<?xml version="1.0" encoding="utf-8" standalone="no"?>
<!DOCTYPE svg PUBLIC "-//W3C//DTD SVG 1.1//EN"
  "http://www.w3.org/Graphics/SVG/1.1/DTD/svg11.dtd">
<!-- Created with matplotlib (https://matplotlib.org/) -->
<svg height="345.6pt" version="1.1" viewBox="0 0 460.8 345.6" width="460.8pt" xmlns="http://www.w3.org/2000/svg" xmlns:xlink="http://www.w3.org/1999/xlink">
 <defs>
  <style type="text/css">
*{stroke-linecap:butt;stroke-linejoin:round;}
  </style>
 </defs>
 <g id="figure_1">
  <g id="patch_1">
   <path d="M 0 345.6 
L 460.8 345.6 
L 460.8 0 
L 0 0 
z
" style="fill:#ffffff;"/>
  </g>
  <g id="axes_1">
   <g id="patch_2">
    <path d="M 57.6 307.584 
L 414.72 307.584 
L 414.72 41.472 
L 57.6 41.472 
z
" style="fill:#ffffff;"/>
   </g>
   <g id="patch_3">
    <path clip-path="url(#pff2eb2fb13)" d="M 73.832727 307.584 
L 77.079277 307.584 
L 77.079277 307.314574 
L 73.832727 307.314574 
z
" style="fill:#0000ff;"/>
   </g>
   <g id="patch_4">
    <path clip-path="url(#pff2eb2fb13)" d="M 77.079277 307.584 
L 80.325816 307.584 
L 80.325816 307.494191 
L 77.079277 307.494191 
z
" style="fill:#0000ff;"/>
   </g>
   <g id="patch_5">
    <path clip-path="url(#pff2eb2fb13)" d="M 80.325816 307.584 
L 83.572366 307.584 
L 83.572366 307.584 
L 80.325816 307.584 
z
" style="fill:#0000ff;"/>
   </g>
   <g id="patch_6">
    <path clip-path="url(#pff2eb2fb13)" d="M 83.572375 307.584 
L 86.818915 307.584 
L 86.818915 307.494191 
L 83.572375 307.494191 
z
" style="fill:#0000ff;"/>
   </g>
   <g id="patch_7">
    <path clip-path="url(#pff2eb2fb13)" d="M 86.818905 307.584 
L 90.065455 307.584 
L 90.065455 307.584 
L 86.818905 307.584 
z
" style="fill:#0000ff;"/>
   </g>
   <g id="patch_8">
    <path clip-path="url(#pff2eb2fb13)" d="M 90.065455 307.584 
L 93.312004 307.584 
L 93.312004 307.494191 
L 90.065455 307.494191 
z
" style="fill:#0000ff;"/>
   </g>
   <g id="patch_9">
    <path clip-path="url(#pff2eb2fb13)" d="M 93.312004 307.584 
L 96.558544 307.584 
L 96.558544 307.404383 
L 93.312004 307.404383 
z
" style="fill:#0000ff;"/>
   </g>
   <g id="patch_10">
    <path clip-path="url(#pff2eb2fb13)" d="M 96.558544 307.584 
L 99.805093 307.584 
L 99.805093 307.134957 
L 96.558544 307.134957 
z
" style="fill:#0000ff;"/>
   </g>
   <g id="patch_11">
    <path clip-path="url(#pff2eb2fb13)" d="M 99.805103 307.584 
L 103.051642 307.584 
L 103.051642 307.314574 
L 99.805103 307.314574 
z
" style="fill:#0000ff;"/>
   </g>
   <g id="patch_12">
    <path clip-path="url(#pff2eb2fb13)" d="M 103.051632 307.584 
L 106.298182 307.584 
L 106.298182 307.494191 
L 103.051632 307.494191 
z
" style="fill:#0000ff;"/>
   </g>
   <g id="patch_13">
    <path clip-path="url(#pff2eb2fb13)" d="M 106.298182 307.584 
L 109.544731 307.584 
L 109.544731 307.045148 
L 106.298182 307.045148 
z
" style="fill:#0000ff;"/>
   </g>
   <g id="patch_14">
    <path clip-path="url(#pff2eb2fb13)" d="M 109.544731 307.584 
L 112.791271 307.584 
L 112.791271 307.314574 
L 109.544731 307.314574 
z
" style="fill:#0000ff;"/>
   </g>
   <g id="patch_15">
    <path clip-path="url(#pff2eb2fb13)" d="M 112.791271 307.584 
L 116.03782 307.584 
L 116.03782 307.224765 
L 112.791271 307.224765 
z
" style="fill:#0000ff;"/>
   </g>
   <g id="patch_16">
    <path clip-path="url(#pff2eb2fb13)" d="M 116.03783 307.584 
L 119.284369 307.584 
L 119.284369 307.045148 
L 116.03783 307.045148 
z
" style="fill:#0000ff;"/>
   </g>
   <g id="patch_17">
    <path clip-path="url(#pff2eb2fb13)" d="M 119.28436 307.584 
L 122.530909 307.584 
L 122.530909 306.506296 
L 119.28436 306.506296 
z
" style="fill:#0000ff;"/>
   </g>
   <g id="patch_18">
    <path clip-path="url(#pff2eb2fb13)" d="M 122.530909 307.584 
L 125.777458 307.584 
L 125.777458 306.865531 
L 122.530909 306.865531 
z
" style="fill:#0000ff;"/>
   </g>
   <g id="patch_19">
    <path clip-path="url(#pff2eb2fb13)" d="M 125.777458 307.584 
L 129.023998 307.584 
L 129.023998 306.685914 
L 125.777458 306.685914 
z
" style="fill:#0000ff;"/>
   </g>
   <g id="patch_20">
    <path clip-path="url(#pff2eb2fb13)" d="M 129.023998 307.584 
L 132.270547 307.584 
L 132.270547 307.134957 
L 129.023998 307.134957 
z
" style="fill:#0000ff;"/>
   </g>
   <g id="patch_21">
    <path clip-path="url(#pff2eb2fb13)" d="M 132.270557 307.584 
L 135.517097 307.584 
L 135.517097 306.326679 
L 132.270557 306.326679 
z
" style="fill:#0000ff;"/>
   </g>
   <g id="patch_22">
    <path clip-path="url(#pff2eb2fb13)" d="M 135.517087 307.584 
L 138.763636 307.584 
L 138.763636 306.596105 
L 135.517087 306.596105 
z
" style="fill:#0000ff;"/>
   </g>
   <g id="patch_23">
    <path clip-path="url(#pff2eb2fb13)" d="M 138.763636 307.584 
L 142.010186 307.584 
L 142.010186 306.326679 
L 138.763636 306.326679 
z
" style="fill:#0000ff;"/>
   </g>
   <g id="patch_24">
    <path clip-path="url(#pff2eb2fb13)" d="M 142.010186 307.584 
L 145.256725 307.584 
L 145.256725 304.889741 
L 142.010186 304.889741 
z
" style="fill:#0000ff;"/>
   </g>
   <g id="patch_25">
    <path clip-path="url(#pff2eb2fb13)" d="M 145.256725 307.584 
L 148.503275 307.584 
L 148.503275 305.787827 
L 145.256725 305.787827 
z
" style="fill:#0000ff;"/>
   </g>
   <g id="patch_26">
    <path clip-path="url(#pff2eb2fb13)" d="M 148.503284 307.584 
L 151.749824 307.584 
L 151.749824 305.069358 
L 148.503284 305.069358 
z
" style="fill:#0000ff;"/>
   </g>
   <g id="patch_27">
    <path clip-path="url(#pff2eb2fb13)" d="M 151.749814 307.584 
L 154.996364 307.584 
L 154.996364 305.787827 
L 151.749814 305.787827 
z
" style="fill:#0000ff;"/>
   </g>
   <g id="patch_28">
    <path clip-path="url(#pff2eb2fb13)" d="M 154.996364 307.584 
L 158.242903 307.584 
L 158.242903 304.979549 
L 154.996364 304.979549 
z
" style="fill:#0000ff;"/>
   </g>
   <g id="patch_29">
    <path clip-path="url(#pff2eb2fb13)" d="M 158.242908 307.584 
L 161.489448 307.584 
L 161.489448 305.248975 
L 158.242908 305.248975 
z
" style="fill:#0000ff;"/>
   </g>
   <g id="patch_30">
    <path clip-path="url(#pff2eb2fb13)" d="M 161.489453 307.584 
L 164.736002 307.584 
L 164.736002 303.812037 
L 161.489453 303.812037 
z
" style="fill:#0000ff;"/>
   </g>
   <g id="patch_31">
    <path clip-path="url(#pff2eb2fb13)" d="M 164.736007 307.584 
L 167.982546 307.584 
L 167.982546 305.428592 
L 164.736007 305.428592 
z
" style="fill:#0000ff;"/>
   </g>
   <g id="patch_32">
    <path clip-path="url(#pff2eb2fb13)" d="M 167.982546 307.584 
L 171.229086 307.584 
L 171.229086 302.644524 
L 167.982546 302.644524 
z
" style="fill:#0000ff;"/>
   </g>
   <g id="patch_33">
    <path clip-path="url(#pff2eb2fb13)" d="M 171.229096 307.584 
L 174.475635 307.584 
L 174.475635 303.093568 
L 171.229096 303.093568 
z
" style="fill:#0000ff;"/>
   </g>
   <g id="patch_34">
    <path clip-path="url(#pff2eb2fb13)" d="M 174.475635 307.584 
L 177.722175 307.584 
L 177.722175 302.734333 
L 174.475635 302.734333 
z
" style="fill:#0000ff;"/>
   </g>
   <g id="patch_35">
    <path clip-path="url(#pff2eb2fb13)" d="M 177.72218 307.584 
L 180.968729 307.584 
L 180.968729 301.117777 
L 177.72218 301.117777 
z
" style="fill:#0000ff;"/>
   </g>
   <g id="patch_36">
    <path clip-path="url(#pff2eb2fb13)" d="M 180.968734 307.584 
L 184.215274 307.584 
L 184.215274 302.91395 
L 180.968734 302.91395 
z
" style="fill:#0000ff;"/>
   </g>
   <g id="patch_37">
    <path clip-path="url(#pff2eb2fb13)" d="M 184.215274 307.584 
L 187.461813 307.584 
L 187.461813 298.782753 
L 184.215274 298.782753 
z
" style="fill:#0000ff;"/>
   </g>
   <g id="patch_38">
    <path clip-path="url(#pff2eb2fb13)" d="M 187.461823 307.584 
L 190.708363 307.584 
L 190.708363 301.207586 
L 187.461823 301.207586 
z
" style="fill:#0000ff;"/>
   </g>
   <g id="patch_39">
    <path clip-path="url(#pff2eb2fb13)" d="M 190.708363 307.584 
L 193.954902 307.584 
L 193.954902 296.537536 
L 190.708363 296.537536 
z
" style="fill:#0000ff;"/>
   </g>
   <g id="patch_40">
    <path clip-path="url(#pff2eb2fb13)" d="M 193.954907 307.584 
L 197.201456 307.584 
L 197.201456 300.040074 
L 193.954907 300.040074 
z
" style="fill:#0000ff;"/>
   </g>
   <g id="patch_41">
    <path clip-path="url(#pff2eb2fb13)" d="M 197.201452 307.584 
L 200.448001 307.584 
L 200.448001 295.100598 
L 197.201452 295.100598 
z
" style="fill:#0000ff;"/>
   </g>
   <g id="patch_42">
    <path clip-path="url(#pff2eb2fb13)" d="M 200.448003 307.584 
L 203.694543 307.584 
L 203.694543 299.141987 
L 200.448003 299.141987 
z
" style="fill:#0000ff;"/>
   </g>
   <g id="patch_43">
    <path clip-path="url(#pff2eb2fb13)" d="M 203.694548 307.584 
L 206.941088 307.584 
L 206.941088 291.68787 
L 203.694548 291.68787 
z
" style="fill:#0000ff;"/>
   </g>
   <g id="patch_44">
    <path clip-path="url(#pff2eb2fb13)" d="M 206.94109 307.584 
L 210.187639 307.584 
L 210.187639 290.610166 
L 206.94109 290.610166 
z
" style="fill:#0000ff;"/>
   </g>
   <g id="patch_45">
    <path clip-path="url(#pff2eb2fb13)" d="M 210.187639 307.584 
L 213.434179 307.584 
L 213.434179 292.585956 
L 210.187639 292.585956 
z
" style="fill:#0000ff;"/>
   </g>
   <g id="patch_46">
    <path clip-path="url(#pff2eb2fb13)" d="M 213.434179 307.584 
L 216.680728 307.584 
L 216.680728 270.223603 
L 213.434179 270.223603 
z
" style="fill:#0000ff;"/>
   </g>
   <g id="patch_47">
    <path clip-path="url(#pff2eb2fb13)" d="M 216.680726 307.584 
L 219.927275 307.584 
L 219.927275 261.063121 
L 216.680726 261.063121 
z
" style="fill:#0000ff;"/>
   </g>
   <g id="patch_48">
    <path clip-path="url(#pff2eb2fb13)" d="M 219.92727 307.584 
L 223.17382 307.584 
L 223.17382 223.97215 
L 219.92727 223.97215 
z
" style="fill:#0000ff;"/>
   </g>
   <g id="patch_49">
    <path clip-path="url(#pff2eb2fb13)" d="M 223.173817 307.584 
L 226.420367 307.584 
L 226.420367 247.23259 
L 223.173817 247.23259 
z
" style="fill:#0000ff;"/>
   </g>
   <g id="patch_50">
    <path clip-path="url(#pff2eb2fb13)" d="M 226.420362 307.584 
L 229.666911 307.584 
L 229.666911 210.321236 
L 226.420362 210.321236 
z
" style="fill:#0000ff;"/>
   </g>
   <g id="patch_51">
    <path clip-path="url(#pff2eb2fb13)" d="M 229.666907 307.584 
L 232.913457 307.584 
L 232.913457 248.040867 
L 229.666907 248.040867 
z
" style="fill:#0000ff;"/>
   </g>
   <g id="patch_52">
    <path clip-path="url(#pff2eb2fb13)" d="M 232.913452 307.584 
L 236.160002 307.584 
L 236.160002 218.942866 
L 232.913452 218.942866 
z
" style="fill:#0000ff;"/>
   </g>
   <g id="patch_53">
    <path clip-path="url(#pff2eb2fb13)" d="M 236.159998 307.584 
L 239.406548 307.584 
L 239.406548 235.018614 
L 236.159998 235.018614 
z
" style="fill:#0000ff;"/>
   </g>
   <g id="patch_54">
    <path clip-path="url(#pff2eb2fb13)" d="M 239.406543 307.584 
L 242.653093 307.584 
L 242.653093 276.600017 
L 239.406543 276.600017 
z
" style="fill:#0000ff;"/>
   </g>
   <g id="patch_55">
    <path clip-path="url(#pff2eb2fb13)" d="M 242.653089 307.584 
L 245.899638 307.584 
L 245.899638 279.204468 
L 242.653089 279.204468 
z
" style="fill:#0000ff;"/>
   </g>
   <g id="patch_56">
    <path clip-path="url(#pff2eb2fb13)" d="M 245.899635 307.584 
L 249.146184 307.584 
L 249.146184 292.226721 
L 245.899635 292.226721 
z
" style="fill:#0000ff;"/>
   </g>
   <g id="patch_57">
    <path clip-path="url(#pff2eb2fb13)" d="M 249.14618 307.584 
L 252.39273 307.584 
L 252.39273 289.352845 
L 249.14618 289.352845 
z
" style="fill:#0000ff;"/>
   </g>
   <g id="patch_58">
    <path clip-path="url(#pff2eb2fb13)" d="M 252.392725 307.584 
L 255.639274 307.584 
L 255.639274 294.651555 
L 252.392725 294.651555 
z
" style="fill:#0000ff;"/>
   </g>
   <g id="patch_59">
    <path clip-path="url(#pff2eb2fb13)" d="M 255.639272 307.584 
L 258.885821 307.584 
L 258.885821 290.610166 
L 255.639272 290.610166 
z
" style="fill:#0000ff;"/>
   </g>
   <g id="patch_60">
    <path clip-path="url(#pff2eb2fb13)" d="M 258.885821 307.584 
L 262.132361 307.584 
L 262.132361 296.717154 
L 258.885821 296.717154 
z
" style="fill:#0000ff;"/>
   </g>
   <g id="patch_61">
    <path clip-path="url(#pff2eb2fb13)" d="M 262.132361 307.584 
L 265.37891 307.584 
L 265.37891 294.651555 
L 262.132361 294.651555 
z
" style="fill:#0000ff;"/>
   </g>
   <g id="patch_62">
    <path clip-path="url(#pff2eb2fb13)" d="M 265.378912 307.584 
L 268.625452 307.584 
L 268.625452 300.489117 
L 265.378912 300.489117 
z
" style="fill:#0000ff;"/>
   </g>
   <g id="patch_63">
    <path clip-path="url(#pff2eb2fb13)" d="M 268.625457 307.584 
L 271.871997 307.584 
L 271.871997 297.884666 
L 268.625457 297.884666 
z
" style="fill:#0000ff;"/>
   </g>
   <g id="patch_64">
    <path clip-path="url(#pff2eb2fb13)" d="M 271.871999 307.584 
L 275.118548 307.584 
L 275.118548 299.411413 
L 271.871999 299.411413 
z
" style="fill:#0000ff;"/>
   </g>
   <g id="patch_65">
    <path clip-path="url(#pff2eb2fb13)" d="M 275.118544 307.584 
L 278.365093 307.584 
L 278.365093 303.093568 
L 275.118544 303.093568 
z
" style="fill:#0000ff;"/>
   </g>
   <g id="patch_66">
    <path clip-path="url(#pff2eb2fb13)" d="M 278.365098 307.584 
L 281.611637 307.584 
L 281.611637 301.746438 
L 278.365098 301.746438 
z
" style="fill:#0000ff;"/>
   </g>
   <g id="patch_67">
    <path clip-path="url(#pff2eb2fb13)" d="M 281.611637 307.584 
L 284.858177 307.584 
L 284.858177 304.889741 
L 281.611637 304.889741 
z
" style="fill:#0000ff;"/>
   </g>
   <g id="patch_68">
    <path clip-path="url(#pff2eb2fb13)" d="M 284.858187 307.584 
L 288.104726 307.584 
L 288.104726 303.183376 
L 284.858187 303.183376 
z
" style="fill:#0000ff;"/>
   </g>
   <g id="patch_69">
    <path clip-path="url(#pff2eb2fb13)" d="M 288.104726 307.584 
L 291.351266 307.584 
L 291.351266 305.248975 
L 288.104726 305.248975 
z
" style="fill:#0000ff;"/>
   </g>
   <g id="patch_70">
    <path clip-path="url(#pff2eb2fb13)" d="M 291.351271 307.584 
L 294.59782 307.584 
L 294.59782 305.60821 
L 291.351271 305.60821 
z
" style="fill:#0000ff;"/>
   </g>
   <g id="patch_71">
    <path clip-path="url(#pff2eb2fb13)" d="M 294.597825 307.584 
L 297.844365 307.584 
L 297.844365 305.787827 
L 294.597825 305.787827 
z
" style="fill:#0000ff;"/>
   </g>
   <g id="patch_72">
    <path clip-path="url(#pff2eb2fb13)" d="M 297.844365 307.584 
L 301.090904 307.584 
L 301.090904 306.416488 
L 297.844365 306.416488 
z
" style="fill:#0000ff;"/>
   </g>
   <g id="patch_73">
    <path clip-path="url(#pff2eb2fb13)" d="M 301.090914 307.584 
L 304.337454 307.584 
L 304.337454 306.326679 
L 301.090914 306.326679 
z
" style="fill:#0000ff;"/>
   </g>
   <g id="patch_74">
    <path clip-path="url(#pff2eb2fb13)" d="M 304.337454 307.584 
L 307.583993 307.584 
L 307.583993 306.955339 
L 304.337454 306.955339 
z
" style="fill:#0000ff;"/>
   </g>
   <g id="patch_75">
    <path clip-path="url(#pff2eb2fb13)" d="M 307.583998 307.584 
L 310.830547 307.584 
L 310.830547 306.775722 
L 307.583998 306.775722 
z
" style="fill:#0000ff;"/>
   </g>
   <g id="patch_76">
    <path clip-path="url(#pff2eb2fb13)" d="M 310.830552 307.584 
L 314.077092 307.584 
L 314.077092 307.314574 
L 310.830552 307.314574 
z
" style="fill:#0000ff;"/>
   </g>
   <g id="patch_77">
    <path clip-path="url(#pff2eb2fb13)" d="M 314.077092 307.584 
L 317.323632 307.584 
L 317.323632 306.775722 
L 314.077092 306.775722 
z
" style="fill:#0000ff;"/>
   </g>
   <g id="patch_78">
    <path clip-path="url(#pff2eb2fb13)" d="M 317.323636 307.584 
L 320.570186 307.584 
L 320.570186 307.314574 
L 317.323636 307.314574 
z
" style="fill:#0000ff;"/>
   </g>
   <g id="patch_79">
    <path clip-path="url(#pff2eb2fb13)" d="M 320.570186 307.584 
L 323.816725 307.584 
L 323.816725 307.224765 
L 320.570186 307.224765 
z
" style="fill:#0000ff;"/>
   </g>
   <g id="patch_80">
    <path clip-path="url(#pff2eb2fb13)" d="M 323.816725 307.584 
L 327.063275 307.584 
L 327.063275 307.404383 
L 323.816725 307.404383 
z
" style="fill:#0000ff;"/>
   </g>
   <g id="patch_81">
    <path clip-path="url(#pff2eb2fb13)" d="M 327.063284 307.584 
L 330.309824 307.584 
L 330.309824 307.494191 
L 327.063284 307.494191 
z
" style="fill:#0000ff;"/>
   </g>
   <g id="patch_82">
    <path clip-path="url(#pff2eb2fb13)" d="M 330.309814 307.584 
L 333.556364 307.584 
L 333.556364 307.404383 
L 330.309814 307.404383 
z
" style="fill:#0000ff;"/>
   </g>
   <g id="patch_83">
    <path clip-path="url(#pff2eb2fb13)" d="M 333.556364 307.584 
L 336.802913 307.584 
L 336.802913 307.404383 
L 333.556364 307.404383 
z
" style="fill:#0000ff;"/>
   </g>
   <g id="patch_84">
    <path clip-path="url(#pff2eb2fb13)" d="M 336.802913 307.584 
L 340.049453 307.584 
L 340.049453 307.584 
L 336.802913 307.584 
z
" style="fill:#0000ff;"/>
   </g>
   <g id="patch_85">
    <path clip-path="url(#pff2eb2fb13)" d="M 340.049453 307.584 
L 343.296002 307.584 
L 343.296002 307.584 
L 340.049453 307.584 
z
" style="fill:#0000ff;"/>
   </g>
   <g id="patch_86">
    <path clip-path="url(#pff2eb2fb13)" d="M 343.296012 307.584 
L 346.542551 307.584 
L 346.542551 307.494191 
L 343.296012 307.494191 
z
" style="fill:#0000ff;"/>
   </g>
   <g id="patch_87">
    <path clip-path="url(#pff2eb2fb13)" d="M 346.542542 307.584 
L 349.789091 307.584 
L 349.789091 307.584 
L 346.542542 307.584 
z
" style="fill:#0000ff;"/>
   </g>
   <g id="patch_88">
    <path clip-path="url(#pff2eb2fb13)" d="M 349.789091 307.584 
L 353.03564 307.584 
L 353.03564 307.584 
L 349.789091 307.584 
z
" style="fill:#0000ff;"/>
   </g>
   <g id="patch_89">
    <path clip-path="url(#pff2eb2fb13)" d="M 353.03564 307.584 
L 356.28218 307.584 
L 356.28218 307.494191 
L 353.03564 307.494191 
z
" style="fill:#0000ff;"/>
   </g>
   <g id="patch_90">
    <path clip-path="url(#pff2eb2fb13)" d="M 356.28218 307.584 
L 359.528729 307.584 
L 359.528729 307.584 
L 356.28218 307.584 
z
" style="fill:#0000ff;"/>
   </g>
   <g id="patch_91">
    <path clip-path="url(#pff2eb2fb13)" d="M 359.528739 307.584 
L 362.775279 307.584 
L 362.775279 307.584 
L 359.528739 307.584 
z
" style="fill:#0000ff;"/>
   </g>
   <g id="patch_92">
    <path clip-path="url(#pff2eb2fb13)" d="M 362.775269 307.584 
L 366.021818 307.584 
L 366.021818 307.584 
L 362.775269 307.584 
z
" style="fill:#0000ff;"/>
   </g>
   <g id="patch_93">
    <path clip-path="url(#pff2eb2fb13)" d="M 366.021818 307.584 
L 369.268368 307.584 
L 369.268368 307.494191 
L 366.021818 307.494191 
z
" style="fill:#0000ff;"/>
   </g>
   <g id="patch_94">
    <path clip-path="url(#pff2eb2fb13)" d="M 369.268368 307.584 
L 372.514907 307.584 
L 372.514907 307.494191 
L 369.268368 307.494191 
z
" style="fill:#0000ff;"/>
   </g>
   <g id="patch_95">
    <path clip-path="url(#pff2eb2fb13)" d="M 372.514907 307.584 
L 375.761456 307.584 
L 375.761456 307.494191 
L 372.514907 307.494191 
z
" style="fill:#0000ff;"/>
   </g>
   <g id="patch_96">
    <path clip-path="url(#pff2eb2fb13)" d="M 375.761466 307.584 
L 379.008006 307.584 
L 379.008006 307.584 
L 375.761466 307.584 
z
" style="fill:#0000ff;"/>
   </g>
   <g id="patch_97">
    <path clip-path="url(#pff2eb2fb13)" d="M 379.007996 307.584 
L 382.254545 307.584 
L 382.254545 307.584 
L 379.007996 307.584 
z
" style="fill:#0000ff;"/>
   </g>
   <g id="patch_98">
    <path clip-path="url(#pff2eb2fb13)" d="M 382.254545 307.584 
L 385.501095 307.584 
L 385.501095 307.584 
L 382.254545 307.584 
z
" style="fill:#0000ff;"/>
   </g>
   <g id="patch_99">
    <path clip-path="url(#pff2eb2fb13)" d="M 385.501095 307.584 
L 388.747634 307.584 
L 388.747634 307.584 
L 385.501095 307.584 
z
" style="fill:#0000ff;"/>
   </g>
   <g id="patch_100">
    <path clip-path="url(#pff2eb2fb13)" d="M 388.747634 307.584 
L 391.994184 307.584 
L 391.994184 307.584 
L 388.747634 307.584 
z
" style="fill:#0000ff;"/>
   </g>
   <g id="patch_101">
    <path clip-path="url(#pff2eb2fb13)" d="M 391.994193 307.584 
L 395.240733 307.584 
L 395.240733 307.584 
L 391.994193 307.584 
z
" style="fill:#0000ff;"/>
   </g>
   <g id="patch_102">
    <path clip-path="url(#pff2eb2fb13)" d="M 395.240723 307.584 
L 398.487273 307.584 
L 398.487273 307.494191 
L 395.240723 307.494191 
z
" style="fill:#0000ff;"/>
   </g>
   <g id="patch_103">
    <path clip-path="url(#pff2eb2fb13)" d="M 120.939465 307.584 
L 123.358462 307.584 
L 123.358462 307.494191 
L 120.939465 307.494191 
z
" style="fill:#808080;"/>
   </g>
   <g id="patch_104">
    <path clip-path="url(#pff2eb2fb13)" d="M 123.358472 307.584 
L 125.777468 307.584 
L 125.777468 307.404383 
L 123.358472 307.404383 
z
" style="fill:#808080;"/>
   </g>
   <g id="patch_105">
    <path clip-path="url(#pff2eb2fb13)" d="M 125.777458 307.584 
L 128.196445 307.584 
L 128.196445 307.494191 
L 125.777458 307.494191 
z
" style="fill:#808080;"/>
   </g>
   <g id="patch_106">
    <path clip-path="url(#pff2eb2fb13)" d="M 128.196445 307.584 
L 130.615442 307.584 
L 130.615442 307.584 
L 128.196445 307.584 
z
" style="fill:#808080;"/>
   </g>
   <g id="patch_107">
    <path clip-path="url(#pff2eb2fb13)" d="M 130.615452 307.584 
L 133.034448 307.584 
L 133.034448 307.494191 
L 130.615452 307.494191 
z
" style="fill:#808080;"/>
   </g>
   <g id="patch_108">
    <path clip-path="url(#pff2eb2fb13)" d="M 133.034439 307.584 
L 135.453435 307.584 
L 135.453435 307.584 
L 133.034439 307.584 
z
" style="fill:#808080;"/>
   </g>
   <g id="patch_109">
    <path clip-path="url(#pff2eb2fb13)" d="M 135.453445 307.584 
L 137.872441 307.584 
L 137.872441 307.494191 
L 135.453445 307.494191 
z
" style="fill:#808080;"/>
   </g>
   <g id="patch_110">
    <path clip-path="url(#pff2eb2fb13)" d="M 137.872432 307.584 
L 140.291419 307.584 
L 140.291419 307.314574 
L 137.872432 307.314574 
z
" style="fill:#808080;"/>
   </g>
   <g id="patch_111">
    <path clip-path="url(#pff2eb2fb13)" d="M 140.291419 307.584 
L 142.710415 307.584 
L 142.710415 307.134957 
L 140.291419 307.134957 
z
" style="fill:#808080;"/>
   </g>
   <g id="patch_112">
    <path clip-path="url(#pff2eb2fb13)" d="M 142.710425 307.584 
L 145.129421 307.584 
L 145.129421 307.314574 
L 142.710425 307.314574 
z
" style="fill:#808080;"/>
   </g>
   <g id="patch_113">
    <path clip-path="url(#pff2eb2fb13)" d="M 145.129412 307.584 
L 147.548408 307.584 
L 147.548408 307.134957 
L 145.129412 307.134957 
z
" style="fill:#808080;"/>
   </g>
   <g id="patch_114">
    <path clip-path="url(#pff2eb2fb13)" d="M 147.548418 307.584 
L 149.967415 307.584 
L 149.967415 307.314574 
L 147.548418 307.314574 
z
" style="fill:#808080;"/>
   </g>
   <g id="patch_115">
    <path clip-path="url(#pff2eb2fb13)" d="M 149.967405 307.584 
L 152.386392 307.584 
L 152.386392 307.224765 
L 149.967405 307.224765 
z
" style="fill:#808080;"/>
   </g>
   <g id="patch_116">
    <path clip-path="url(#pff2eb2fb13)" d="M 152.386392 307.584 
L 154.805388 307.584 
L 154.805388 306.955339 
L 152.386392 306.955339 
z
" style="fill:#808080;"/>
   </g>
   <g id="patch_117">
    <path clip-path="url(#pff2eb2fb13)" d="M 154.805388 307.584 
L 157.224385 307.584 
L 157.224385 306.865531 
L 154.805388 306.865531 
z
" style="fill:#808080;"/>
   </g>
   <g id="patch_118">
    <path clip-path="url(#pff2eb2fb13)" d="M 157.224385 307.584 
L 159.643382 307.584 
L 159.643382 306.326679 
L 157.224385 306.326679 
z
" style="fill:#808080;"/>
   </g>
   <g id="patch_119">
    <path clip-path="url(#pff2eb2fb13)" d="M 159.643382 307.584 
L 162.062369 307.584 
L 162.062369 306.865531 
L 159.643382 306.865531 
z
" style="fill:#808080;"/>
   </g>
   <g id="patch_120">
    <path clip-path="url(#pff2eb2fb13)" d="M 162.062373 307.584 
L 164.48137 307.584 
L 164.48137 307.045148 
L 162.062373 307.045148 
z
" style="fill:#808080;"/>
   </g>
   <g id="patch_121">
    <path clip-path="url(#pff2eb2fb13)" d="M 164.481375 307.584 
L 166.900362 307.584 
L 166.900362 306.057253 
L 164.481375 306.057253 
z
" style="fill:#808080;"/>
   </g>
   <g id="patch_122">
    <path clip-path="url(#pff2eb2fb13)" d="M 166.900362 307.584 
L 169.319358 307.584 
L 169.319358 307.584 
L 166.900362 307.584 
z
" style="fill:#808080;"/>
   </g>
   <g id="patch_123">
    <path clip-path="url(#pff2eb2fb13)" d="M 169.319358 307.584 
L 171.738355 307.584 
L 171.738355 306.416488 
L 169.319358 306.416488 
z
" style="fill:#808080;"/>
   </g>
   <g id="patch_124">
    <path clip-path="url(#pff2eb2fb13)" d="M 171.738355 307.584 
L 174.157342 307.584 
L 174.157342 306.416488 
L 171.738355 306.416488 
z
" style="fill:#808080;"/>
   </g>
   <g id="patch_125">
    <path clip-path="url(#pff2eb2fb13)" d="M 174.157347 307.584 
L 176.576343 307.584 
L 176.576343 305.159167 
L 174.157347 305.159167 
z
" style="fill:#808080;"/>
   </g>
   <g id="patch_126">
    <path clip-path="url(#pff2eb2fb13)" d="M 176.576348 307.584 
L 178.995335 307.584 
L 178.995335 305.069358 
L 176.576348 305.069358 
z
" style="fill:#808080;"/>
   </g>
   <g id="patch_127">
    <path clip-path="url(#pff2eb2fb13)" d="M 178.995335 307.584 
L 181.414332 307.584 
L 181.414332 305.60821 
L 178.995335 305.60821 
z
" style="fill:#808080;"/>
   </g>
   <g id="patch_128">
    <path clip-path="url(#pff2eb2fb13)" d="M 181.414332 307.584 
L 183.833328 307.584 
L 183.833328 305.069358 
L 181.414332 305.069358 
z
" style="fill:#808080;"/>
   </g>
   <g id="patch_129">
    <path clip-path="url(#pff2eb2fb13)" d="M 183.833328 307.584 
L 186.252315 307.584 
L 186.252315 304.710123 
L 183.833328 304.710123 
z
" style="fill:#808080;"/>
   </g>
   <g id="patch_130">
    <path clip-path="url(#pff2eb2fb13)" d="M 186.25232 307.584 
L 188.671316 307.584 
L 188.671316 304.530506 
L 186.25232 304.530506 
z
" style="fill:#808080;"/>
   </g>
   <g id="patch_131">
    <path clip-path="url(#pff2eb2fb13)" d="M 188.671321 307.584 
L 191.090308 307.584 
L 191.090308 304.440697 
L 188.671321 304.440697 
z
" style="fill:#808080;"/>
   </g>
   <g id="patch_132">
    <path clip-path="url(#pff2eb2fb13)" d="M 191.090308 307.584 
L 193.509305 307.584 
L 193.509305 303.452802 
L 191.090308 303.452802 
z
" style="fill:#808080;"/>
   </g>
   <g id="patch_133">
    <path clip-path="url(#pff2eb2fb13)" d="M 193.509305 307.584 
L 195.928301 307.584 
L 195.928301 302.91395 
L 193.509305 302.91395 
z
" style="fill:#808080;"/>
   </g>
   <g id="patch_134">
    <path clip-path="url(#pff2eb2fb13)" d="M 195.928301 307.584 
L 198.347288 307.584 
L 198.347288 302.195481 
L 195.928301 302.195481 
z
" style="fill:#808080;"/>
   </g>
   <g id="patch_135">
    <path clip-path="url(#pff2eb2fb13)" d="M 198.347293 307.584 
L 200.76629 307.584 
L 200.76629 298.782753 
L 198.347293 298.782753 
z
" style="fill:#808080;"/>
   </g>
   <g id="patch_136">
    <path clip-path="url(#pff2eb2fb13)" d="M 200.76629 307.584 
L 203.185286 307.584 
L 203.185286 307.584 
L 200.76629 307.584 
z
" style="fill:#808080;"/>
   </g>
   <g id="patch_137">
    <path clip-path="url(#pff2eb2fb13)" d="M 203.185281 307.584 
L 205.604278 307.584 
L 205.604278 307.584 
L 203.185281 307.584 
z
" style="fill:#808080;"/>
   </g>
   <g id="patch_138">
    <path clip-path="url(#pff2eb2fb13)" d="M 205.604278 307.584 
L 208.023275 307.584 
L 208.023275 307.584 
L 205.604278 307.584 
z
" style="fill:#808080;"/>
   </g>
   <g id="patch_139">
    <path clip-path="url(#pff2eb2fb13)" d="M 208.02327 307.584 
L 210.442266 307.584 
L 210.442266 307.584 
L 208.02327 307.584 
z
" style="fill:#808080;"/>
   </g>
   <g id="patch_140">
    <path clip-path="url(#pff2eb2fb13)" d="M 210.442266 307.584 
L 212.861263 307.584 
L 212.861263 307.584 
L 210.442266 307.584 
z
" style="fill:#808080;"/>
   </g>
   <g id="patch_141">
    <path clip-path="url(#pff2eb2fb13)" d="M 212.861263 307.584 
L 215.28026 307.584 
L 215.28026 307.584 
L 212.861263 307.584 
z
" style="fill:#808080;"/>
   </g>
   <g id="patch_142">
    <path clip-path="url(#pff2eb2fb13)" d="M 215.280255 307.584 
L 217.699251 307.584 
L 217.699251 307.584 
L 215.280255 307.584 
z
" style="fill:#808080;"/>
   </g>
   <g id="patch_143">
    <path clip-path="url(#pff2eb2fb13)" d="M 217.69925 307.584 
L 220.118247 307.584 
L 220.118247 307.584 
L 217.69925 307.584 
z
" style="fill:#808080;"/>
   </g>
   <g id="patch_144">
    <path clip-path="url(#pff2eb2fb13)" d="M 220.118246 307.584 
L 222.537242 307.584 
L 222.537242 307.584 
L 220.118246 307.584 
z
" style="fill:#808080;"/>
   </g>
   <g id="patch_145">
    <path clip-path="url(#pff2eb2fb13)" d="M 222.53724 307.584 
L 224.956236 307.584 
L 224.956236 307.584 
L 222.53724 307.584 
z
" style="fill:#808080;"/>
   </g>
   <g id="patch_146">
    <path clip-path="url(#pff2eb2fb13)" d="M 224.956234 307.584 
L 227.37523 307.584 
L 227.37523 307.584 
L 224.956234 307.584 
z
" style="fill:#808080;"/>
   </g>
   <g id="patch_147">
    <path clip-path="url(#pff2eb2fb13)" d="M 227.375229 307.584 
L 229.794226 307.584 
L 229.794226 307.584 
L 227.375229 307.584 
z
" style="fill:#808080;"/>
   </g>
   <g id="patch_148">
    <path clip-path="url(#pff2eb2fb13)" d="M 229.794223 307.584 
L 232.21322 307.584 
L 232.21322 307.584 
L 229.794223 307.584 
z
" style="fill:#808080;"/>
   </g>
   <g id="patch_149">
    <path clip-path="url(#pff2eb2fb13)" d="M 232.213218 307.584 
L 234.632215 307.584 
L 234.632215 307.584 
L 232.213218 307.584 
z
" style="fill:#808080;"/>
   </g>
   <g id="patch_150">
    <path clip-path="url(#pff2eb2fb13)" d="M 234.632213 307.584 
L 237.05121 307.584 
L 237.05121 307.584 
L 234.632213 307.584 
z
" style="fill:#808080;"/>
   </g>
   <g id="patch_151">
    <path clip-path="url(#pff2eb2fb13)" d="M 237.051208 307.584 
L 239.470204 307.584 
L 239.470204 307.584 
L 237.051208 307.584 
z
" style="fill:#808080;"/>
   </g>
   <g id="patch_152">
    <path clip-path="url(#pff2eb2fb13)" d="M 239.470202 307.584 
L 241.889199 307.584 
L 241.889199 307.584 
L 239.470202 307.584 
z
" style="fill:#808080;"/>
   </g>
   <g id="patch_153">
    <path clip-path="url(#pff2eb2fb13)" d="M 241.889197 307.584 
L 244.308193 307.584 
L 244.308193 307.584 
L 241.889197 307.584 
z
" style="fill:#808080;"/>
   </g>
   <g id="patch_154">
    <path clip-path="url(#pff2eb2fb13)" d="M 244.308192 307.584 
L 246.727189 307.584 
L 246.727189 307.584 
L 244.308192 307.584 
z
" style="fill:#808080;"/>
   </g>
   <g id="patch_155">
    <path clip-path="url(#pff2eb2fb13)" d="M 246.727186 307.584 
L 249.146183 307.584 
L 249.146183 307.584 
L 246.727186 307.584 
z
" style="fill:#808080;"/>
   </g>
   <g id="patch_156">
    <path clip-path="url(#pff2eb2fb13)" d="M 249.14618 307.584 
L 251.565177 307.584 
L 251.565177 307.584 
L 249.14618 307.584 
z
" style="fill:#808080;"/>
   </g>
   <g id="patch_157">
    <path clip-path="url(#pff2eb2fb13)" d="M 251.565176 307.584 
L 253.984172 307.584 
L 253.984172 307.584 
L 251.565176 307.584 
z
" style="fill:#808080;"/>
   </g>
   <g id="patch_158">
    <path clip-path="url(#pff2eb2fb13)" d="M 253.98417 307.584 
L 256.403167 307.584 
L 256.403167 307.584 
L 253.98417 307.584 
z
" style="fill:#808080;"/>
   </g>
   <g id="patch_159">
    <path clip-path="url(#pff2eb2fb13)" d="M 256.403163 307.584 
L 258.822159 307.584 
L 258.822159 307.584 
L 256.403163 307.584 
z
" style="fill:#808080;"/>
   </g>
   <g id="patch_160">
    <path clip-path="url(#pff2eb2fb13)" d="M 258.822159 307.584 
L 261.241156 307.584 
L 261.241156 307.584 
L 258.822159 307.584 
z
" style="fill:#808080;"/>
   </g>
   <g id="patch_161">
    <path clip-path="url(#pff2eb2fb13)" d="M 261.241156 307.584 
L 263.660153 307.584 
L 263.660153 307.584 
L 261.241156 307.584 
z
" style="fill:#808080;"/>
   </g>
   <g id="patch_162">
    <path clip-path="url(#pff2eb2fb13)" d="M 263.660148 307.584 
L 266.079144 307.584 
L 266.079144 307.584 
L 263.660148 307.584 
z
" style="fill:#808080;"/>
   </g>
   <g id="patch_163">
    <path clip-path="url(#pff2eb2fb13)" d="M 266.079144 307.584 
L 268.498141 307.584 
L 268.498141 307.584 
L 266.079144 307.584 
z
" style="fill:#808080;"/>
   </g>
   <g id="patch_164">
    <path clip-path="url(#pff2eb2fb13)" d="M 268.498136 307.584 
L 270.917133 307.584 
L 270.917133 307.584 
L 268.498136 307.584 
z
" style="fill:#808080;"/>
   </g>
   <g id="patch_165">
    <path clip-path="url(#pff2eb2fb13)" d="M 270.917133 307.584 
L 273.336129 307.584 
L 273.336129 307.584 
L 270.917133 307.584 
z
" style="fill:#808080;"/>
   </g>
   <g id="patch_166">
    <path clip-path="url(#pff2eb2fb13)" d="M 273.336129 307.584 
L 275.755126 307.584 
L 275.755126 307.584 
L 273.336129 307.584 
z
" style="fill:#808080;"/>
   </g>
   <g id="patch_167">
    <path clip-path="url(#pff2eb2fb13)" d="M 275.755121 307.584 
L 278.174118 307.584 
L 278.174118 307.584 
L 275.755121 307.584 
z
" style="fill:#808080;"/>
   </g>
   <g id="patch_168">
    <path clip-path="url(#pff2eb2fb13)" d="M 278.174118 307.584 
L 280.593114 307.584 
L 280.593114 307.584 
L 278.174118 307.584 
z
" style="fill:#808080;"/>
   </g>
   <g id="patch_169">
    <path clip-path="url(#pff2eb2fb13)" d="M 280.593114 307.584 
L 283.012101 307.584 
L 283.012101 307.584 
L 280.593114 307.584 
z
" style="fill:#808080;"/>
   </g>
   <g id="patch_170">
    <path clip-path="url(#pff2eb2fb13)" d="M 283.012106 307.584 
L 285.431103 307.584 
L 285.431103 54.144 
L 283.012106 54.144 
z
" style="fill:#808080;"/>
   </g>
   <g id="patch_171">
    <path clip-path="url(#pff2eb2fb13)" d="M 285.431107 307.584 
L 287.850094 307.584 
L 287.850094 297.705049 
L 285.431107 297.705049 
z
" style="fill:#808080;"/>
   </g>
   <g id="patch_172">
    <path clip-path="url(#pff2eb2fb13)" d="M 287.850094 307.584 
L 290.269091 307.584 
L 290.269091 297.61524 
L 287.850094 297.61524 
z
" style="fill:#808080;"/>
   </g>
   <g id="patch_173">
    <path clip-path="url(#pff2eb2fb13)" d="M 290.269091 307.584 
L 292.688088 307.584 
L 292.688088 296.627345 
L 290.269091 296.627345 
z
" style="fill:#808080;"/>
   </g>
   <g id="patch_174">
    <path clip-path="url(#pff2eb2fb13)" d="M 292.688088 307.584 
L 295.107074 307.584 
L 295.107074 296.447728 
L 292.688088 296.447728 
z
" style="fill:#808080;"/>
   </g>
   <g id="patch_175">
    <path clip-path="url(#pff2eb2fb13)" d="M 295.107079 307.584 
L 297.526076 307.584 
L 297.526076 295.63945 
L 295.107079 295.63945 
z
" style="fill:#808080;"/>
   </g>
   <g id="patch_176">
    <path clip-path="url(#pff2eb2fb13)" d="M 297.526081 307.584 
L 299.945068 307.584 
L 299.945068 295.370024 
L 297.526081 295.370024 
z
" style="fill:#808080;"/>
   </g>
   <g id="patch_177">
    <path clip-path="url(#pff2eb2fb13)" d="M 299.945068 307.584 
L 302.364064 307.584 
L 302.364064 292.136913 
L 299.945068 292.136913 
z
" style="fill:#808080;"/>
   </g>
   <g id="patch_178">
    <path clip-path="url(#pff2eb2fb13)" d="M 302.364064 307.584 
L 304.783061 307.584 
L 304.783061 290.9694 
L 302.364064 290.9694 
z
" style="fill:#808080;"/>
   </g>
   <g id="patch_179">
    <path clip-path="url(#pff2eb2fb13)" d="M 304.783061 307.584 
L 307.202048 307.584 
L 307.202048 283.425474 
L 304.783061 283.425474 
z
" style="fill:#808080;"/>
   </g>
   <g id="patch_180">
    <path clip-path="url(#pff2eb2fb13)" d="M 307.202053 307.584 
L 309.621049 307.584 
L 309.621049 263.936998 
L 307.202053 263.936998 
z
" style="fill:#808080;"/>
   </g>
   <g id="patch_181">
    <path clip-path="url(#pff2eb2fb13)" d="M 309.621054 307.584 
L 312.040041 307.584 
L 312.040041 239.060003 
L 309.621054 239.060003 
z
" style="fill:#808080;"/>
   </g>
   <g id="patch_182">
    <path clip-path="url(#pff2eb2fb13)" d="M 312.040041 307.584 
L 314.459037 307.584 
L 314.459037 307.584 
L 312.040041 307.584 
z
" style="fill:#808080;"/>
   </g>
   <g id="patch_183">
    <path clip-path="url(#pff2eb2fb13)" d="M 314.459037 307.584 
L 316.878034 307.584 
L 316.878034 230.258755 
L 314.459037 230.258755 
z
" style="fill:#808080;"/>
   </g>
   <g id="patch_184">
    <path clip-path="url(#pff2eb2fb13)" d="M 316.878034 307.584 
L 319.297031 307.584 
L 319.297031 220.289996 
L 316.878034 220.289996 
z
" style="fill:#808080;"/>
   </g>
   <g id="patch_185">
    <path clip-path="url(#pff2eb2fb13)" d="M 319.297031 307.584 
L 321.716018 307.584 
L 321.716018 225.94794 
L 319.297031 225.94794 
z
" style="fill:#808080;"/>
   </g>
   <g id="patch_186">
    <path clip-path="url(#pff2eb2fb13)" d="M 321.716018 307.584 
L 324.135014 307.584 
L 324.135014 226.307175 
L 321.716018 226.307175 
z
" style="fill:#808080;"/>
   </g>
   <g id="patch_187">
    <path clip-path="url(#pff2eb2fb13)" d="M 324.135024 307.584 
L 326.55402 307.584 
L 326.55402 270.043986 
L 324.135024 270.043986 
z
" style="fill:#808080;"/>
   </g>
   <g id="patch_188">
    <path clip-path="url(#pff2eb2fb13)" d="M 326.554011 307.584 
L 328.973007 307.584 
L 328.973007 307.584 
L 326.554011 307.584 
z
" style="fill:#808080;"/>
   </g>
   <g id="patch_189">
    <path clip-path="url(#pff2eb2fb13)" d="M 328.973017 307.584 
L 331.392014 307.584 
L 331.392014 307.494191 
L 328.973017 307.494191 
z
" style="fill:#808080;"/>
   </g>
   <g id="patch_190">
    <path clip-path="url(#pff2eb2fb13)" d="M 331.392004 307.584 
L 333.810991 307.584 
L 333.810991 307.584 
L 331.392004 307.584 
z
" style="fill:#808080;"/>
   </g>
   <g id="patch_191">
    <path clip-path="url(#pff2eb2fb13)" d="M 333.810991 307.584 
L 336.229987 307.584 
L 336.229987 307.584 
L 333.810991 307.584 
z
" style="fill:#808080;"/>
   </g>
   <g id="patch_192">
    <path clip-path="url(#pff2eb2fb13)" d="M 336.229997 307.584 
L 338.648994 307.584 
L 338.648994 307.584 
L 336.229997 307.584 
z
" style="fill:#808080;"/>
   </g>
   <g id="patch_193">
    <path clip-path="url(#pff2eb2fb13)" d="M 338.648984 307.584 
L 341.067981 307.584 
L 341.067981 307.494191 
L 338.648984 307.494191 
z
" style="fill:#808080;"/>
   </g>
   <g id="patch_194">
    <path clip-path="url(#pff2eb2fb13)" d="M 341.06799 307.584 
L 343.486987 307.584 
L 343.486987 307.584 
L 341.06799 307.584 
z
" style="fill:#808080;"/>
   </g>
   <g id="patch_195">
    <path clip-path="url(#pff2eb2fb13)" d="M 343.486977 307.584 
L 345.905964 307.584 
L 345.905964 307.404383 
L 343.486977 307.404383 
z
" style="fill:#808080;"/>
   </g>
   <g id="patch_196">
    <path clip-path="url(#pff2eb2fb13)" d="M 345.905964 307.584 
L 348.324961 307.584 
L 348.324961 307.584 
L 345.905964 307.584 
z
" style="fill:#808080;"/>
   </g>
   <g id="patch_197">
    <path clip-path="url(#pff2eb2fb13)" d="M 348.32497 307.584 
L 350.743967 307.584 
L 350.743967 307.584 
L 348.32497 307.584 
z
" style="fill:#808080;"/>
   </g>
   <g id="patch_198">
    <path clip-path="url(#pff2eb2fb13)" d="M 350.743957 307.584 
L 353.162954 307.584 
L 353.162954 307.584 
L 350.743957 307.584 
z
" style="fill:#808080;"/>
   </g>
   <g id="patch_199">
    <path clip-path="url(#pff2eb2fb13)" d="M 353.162964 307.584 
L 355.58196 307.584 
L 355.58196 307.584 
L 353.162964 307.584 
z
" style="fill:#808080;"/>
   </g>
   <g id="patch_200">
    <path clip-path="url(#pff2eb2fb13)" d="M 355.58195 307.584 
L 358.000937 307.584 
L 358.000937 307.584 
L 355.58195 307.584 
z
" style="fill:#808080;"/>
   </g>
   <g id="patch_201">
    <path clip-path="url(#pff2eb2fb13)" d="M 358.000937 307.584 
L 360.419934 307.584 
L 360.419934 307.584 
L 358.000937 307.584 
z
" style="fill:#808080;"/>
   </g>
   <g id="patch_202">
    <path clip-path="url(#pff2eb2fb13)" d="M 360.419944 307.584 
L 362.83894 307.584 
L 362.83894 307.494191 
L 360.419944 307.494191 
z
" style="fill:#808080;"/>
   </g>
   <g id="matplotlib.axis_1">
    <g id="xtick_1">
     <g id="line2d_1">
      <defs>
       <path d="M 0 0 
L 0 3.5 
" id="m1abc33ceed" style="stroke:#000000;stroke-width:0.8;"/>
      </defs>
      <g>
       <use style="stroke:#000000;stroke-width:0.8;" x="109.48107" xlink:href="#m1abc33ceed" y="307.584"/>
      </g>
     </g>
     <g id="text_1">
      <!-- −100 -->
      <defs>
       <path d="M 10.59375 35.5 
L 73.1875 35.5 
L 73.1875 27.203125 
L 10.59375 27.203125 
z
" id="DejaVuSans-8722"/>
       <path d="M 12.40625 8.296875 
L 28.515625 8.296875 
L 28.515625 63.921875 
L 10.984375 60.40625 
L 10.984375 69.390625 
L 28.421875 72.90625 
L 38.28125 72.90625 
L 38.28125 8.296875 
L 54.390625 8.296875 
L 54.390625 0 
L 12.40625 0 
z
" id="DejaVuSans-49"/>
       <path d="M 31.78125 66.40625 
Q 24.171875 66.40625 20.328125 58.90625 
Q 16.5 51.421875 16.5 36.375 
Q 16.5 21.390625 20.328125 13.890625 
Q 24.171875 6.390625 31.78125 6.390625 
Q 39.453125 6.390625 43.28125 13.890625 
Q 47.125 21.390625 47.125 36.375 
Q 47.125 51.421875 43.28125 58.90625 
Q 39.453125 66.40625 31.78125 66.40625 
z
M 31.78125 74.21875 
Q 44.046875 74.21875 50.515625 64.515625 
Q 56.984375 54.828125 56.984375 36.375 
Q 56.984375 17.96875 50.515625 8.265625 
Q 44.046875 -1.421875 31.78125 -1.421875 
Q 19.53125 -1.421875 13.0625 8.265625 
Q 6.59375 17.96875 6.59375 36.375 
Q 6.59375 54.828125 13.0625 64.515625 
Q 19.53125 74.21875 31.78125 74.21875 
z
" id="DejaVuSans-48"/>
      </defs>
      <g transform="translate(95.747476 322.182437)scale(0.1 -0.1)">
       <use xlink:href="#DejaVuSans-8722"/>
       <use x="83.789062" xlink:href="#DejaVuSans-49"/>
       <use x="147.412109" xlink:href="#DejaVuSans-48"/>
       <use x="211.035156" xlink:href="#DejaVuSans-48"/>
      </g>
     </g>
    </g>
    <g id="xtick_2">
     <g id="line2d_2">
      <g>
       <use style="stroke:#000000;stroke-width:0.8;" x="173.138824" xlink:href="#m1abc33ceed" y="307.584"/>
      </g>
     </g>
     <g id="text_2">
      <!-- −50 -->
      <defs>
       <path d="M 10.796875 72.90625 
L 49.515625 72.90625 
L 49.515625 64.59375 
L 19.828125 64.59375 
L 19.828125 46.734375 
Q 21.96875 47.46875 24.109375 47.828125 
Q 26.265625 48.1875 28.421875 48.1875 
Q 40.625 48.1875 47.75 41.5 
Q 54.890625 34.8125 54.890625 23.390625 
Q 54.890625 11.625 47.5625 5.09375 
Q 40.234375 -1.421875 26.90625 -1.421875 
Q 22.3125 -1.421875 17.546875 -0.640625 
Q 12.796875 0.140625 7.71875 1.703125 
L 7.71875 11.625 
Q 12.109375 9.234375 16.796875 8.0625 
Q 21.484375 6.890625 26.703125 6.890625 
Q 35.15625 6.890625 40.078125 11.328125 
Q 45.015625 15.765625 45.015625 23.390625 
Q 45.015625 31 40.078125 35.4375 
Q 35.15625 39.890625 26.703125 39.890625 
Q 22.75 39.890625 18.8125 39.015625 
Q 14.890625 38.140625 10.796875 36.28125 
z
" id="DejaVuSans-53"/>
      </defs>
      <g transform="translate(162.58648 322.182437)scale(0.1 -0.1)">
       <use xlink:href="#DejaVuSans-8722"/>
       <use x="83.789062" xlink:href="#DejaVuSans-53"/>
       <use x="147.412109" xlink:href="#DejaVuSans-48"/>
      </g>
     </g>
    </g>
    <g id="xtick_3">
     <g id="line2d_3">
      <g>
       <use style="stroke:#000000;stroke-width:0.8;" x="236.796578" xlink:href="#m1abc33ceed" y="307.584"/>
      </g>
     </g>
     <g id="text_3">
      <!-- 0 -->
      <g transform="translate(233.615328 322.182437)scale(0.1 -0.1)">
       <use xlink:href="#DejaVuSans-48"/>
      </g>
     </g>
    </g>
    <g id="xtick_4">
     <g id="line2d_4">
      <g>
       <use style="stroke:#000000;stroke-width:0.8;" x="300.454332" xlink:href="#m1abc33ceed" y="307.584"/>
      </g>
     </g>
     <g id="text_4">
      <!-- 50 -->
      <g transform="translate(294.091832 322.182437)scale(0.1 -0.1)">
       <use xlink:href="#DejaVuSans-53"/>
       <use x="63.623047" xlink:href="#DejaVuSans-48"/>
      </g>
     </g>
    </g>
    <g id="xtick_5">
     <g id="line2d_5">
      <g>
       <use style="stroke:#000000;stroke-width:0.8;" x="364.112086" xlink:href="#m1abc33ceed" y="307.584"/>
      </g>
     </g>
     <g id="text_5">
      <!-- 100 -->
      <g transform="translate(354.568336 322.182437)scale(0.1 -0.1)">
       <use xlink:href="#DejaVuSans-49"/>
       <use x="63.623047" xlink:href="#DejaVuSans-48"/>
       <use x="127.246094" xlink:href="#DejaVuSans-48"/>
      </g>
     </g>
    </g>
    <g id="text_6">
     <!-- Weight -->
     <defs>
      <path d="M 3.328125 72.90625 
L 13.28125 72.90625 
L 28.609375 11.28125 
L 43.890625 72.90625 
L 54.984375 72.90625 
L 70.3125 11.28125 
L 85.59375 72.90625 
L 95.609375 72.90625 
L 77.296875 0 
L 64.890625 0 
L 49.515625 63.28125 
L 33.984375 0 
L 21.578125 0 
z
" id="DejaVuSans-87"/>
      <path d="M 56.203125 29.59375 
L 56.203125 25.203125 
L 14.890625 25.203125 
Q 15.484375 15.921875 20.484375 11.0625 
Q 25.484375 6.203125 34.421875 6.203125 
Q 39.59375 6.203125 44.453125 7.46875 
Q 49.3125 8.734375 54.109375 11.28125 
L 54.109375 2.78125 
Q 49.265625 0.734375 44.1875 -0.34375 
Q 39.109375 -1.421875 33.890625 -1.421875 
Q 20.796875 -1.421875 13.15625 6.1875 
Q 5.515625 13.8125 5.515625 26.8125 
Q 5.515625 40.234375 12.765625 48.109375 
Q 20.015625 56 32.328125 56 
Q 43.359375 56 49.78125 48.890625 
Q 56.203125 41.796875 56.203125 29.59375 
z
M 47.21875 32.234375 
Q 47.125 39.59375 43.09375 43.984375 
Q 39.0625 48.390625 32.421875 48.390625 
Q 24.90625 48.390625 20.390625 44.140625 
Q 15.875 39.890625 15.1875 32.171875 
z
" id="DejaVuSans-101"/>
      <path d="M 9.421875 54.6875 
L 18.40625 54.6875 
L 18.40625 0 
L 9.421875 0 
z
M 9.421875 75.984375 
L 18.40625 75.984375 
L 18.40625 64.59375 
L 9.421875 64.59375 
z
" id="DejaVuSans-105"/>
      <path d="M 45.40625 27.984375 
Q 45.40625 37.75 41.375 43.109375 
Q 37.359375 48.484375 30.078125 48.484375 
Q 22.859375 48.484375 18.828125 43.109375 
Q 14.796875 37.75 14.796875 27.984375 
Q 14.796875 18.265625 18.828125 12.890625 
Q 22.859375 7.515625 30.078125 7.515625 
Q 37.359375 7.515625 41.375 12.890625 
Q 45.40625 18.265625 45.40625 27.984375 
z
M 54.390625 6.78125 
Q 54.390625 -7.171875 48.1875 -13.984375 
Q 42 -20.796875 29.203125 -20.796875 
Q 24.46875 -20.796875 20.265625 -20.09375 
Q 16.0625 -19.390625 12.109375 -17.921875 
L 12.109375 -9.1875 
Q 16.0625 -11.328125 19.921875 -12.34375 
Q 23.78125 -13.375 27.78125 -13.375 
Q 36.625 -13.375 41.015625 -8.765625 
Q 45.40625 -4.15625 45.40625 5.171875 
L 45.40625 9.625 
Q 42.625 4.78125 38.28125 2.390625 
Q 33.9375 0 27.875 0 
Q 17.828125 0 11.671875 7.65625 
Q 5.515625 15.328125 5.515625 27.984375 
Q 5.515625 40.671875 11.671875 48.328125 
Q 17.828125 56 27.875 56 
Q 33.9375 56 38.28125 53.609375 
Q 42.625 51.21875 45.40625 46.390625 
L 45.40625 54.6875 
L 54.390625 54.6875 
z
" id="DejaVuSans-103"/>
      <path d="M 54.890625 33.015625 
L 54.890625 0 
L 45.90625 0 
L 45.90625 32.71875 
Q 45.90625 40.484375 42.875 44.328125 
Q 39.84375 48.1875 33.796875 48.1875 
Q 26.515625 48.1875 22.3125 43.546875 
Q 18.109375 38.921875 18.109375 30.90625 
L 18.109375 0 
L 9.078125 0 
L 9.078125 75.984375 
L 18.109375 75.984375 
L 18.109375 46.1875 
Q 21.34375 51.125 25.703125 53.5625 
Q 30.078125 56 35.796875 56 
Q 45.21875 56 50.046875 50.171875 
Q 54.890625 44.34375 54.890625 33.015625 
z
" id="DejaVuSans-104"/>
      <path d="M 18.3125 70.21875 
L 18.3125 54.6875 
L 36.8125 54.6875 
L 36.8125 47.703125 
L 18.3125 47.703125 
L 18.3125 18.015625 
Q 18.3125 11.328125 20.140625 9.421875 
Q 21.96875 7.515625 27.59375 7.515625 
L 36.8125 7.515625 
L 36.8125 0 
L 27.59375 0 
Q 17.1875 0 13.234375 3.875 
Q 9.28125 7.765625 9.28125 18.015625 
L 9.28125 47.703125 
L 2.6875 47.703125 
L 2.6875 54.6875 
L 9.28125 54.6875 
L 9.28125 70.21875 
z
" id="DejaVuSans-116"/>
     </defs>
     <g transform="translate(218.451406 335.860562)scale(0.1 -0.1)">
      <use xlink:href="#DejaVuSans-87"/>
      <use x="98.798828" xlink:href="#DejaVuSans-101"/>
      <use x="160.322266" xlink:href="#DejaVuSans-105"/>
      <use x="188.105469" xlink:href="#DejaVuSans-103"/>
      <use x="251.582031" xlink:href="#DejaVuSans-104"/>
      <use x="314.960938" xlink:href="#DejaVuSans-116"/>
     </g>
    </g>
   </g>
   <g id="matplotlib.axis_2">
    <g id="ytick_1">
     <g id="line2d_6">
      <defs>
       <path d="M 0 0 
L -3.5 0 
" id="me1b63ede26" style="stroke:#000000;stroke-width:0.8;"/>
      </defs>
      <g>
       <use style="stroke:#000000;stroke-width:0.8;" x="57.6" xlink:href="#me1b63ede26" y="307.584"/>
      </g>
     </g>
     <g id="text_7">
      <!-- 0 -->
      <g transform="translate(44.2375 311.383219)scale(0.1 -0.1)">
       <use xlink:href="#DejaVuSans-48"/>
      </g>
     </g>
    </g>
    <g id="ytick_2">
     <g id="line2d_7">
      <g>
       <use style="stroke:#000000;stroke-width:0.8;" x="57.6" xlink:href="#me1b63ede26" y="262.679677"/>
      </g>
     </g>
     <g id="text_8">
      <!-- 500 -->
      <g transform="translate(31.5125 266.478896)scale(0.1 -0.1)">
       <use xlink:href="#DejaVuSans-53"/>
       <use x="63.623047" xlink:href="#DejaVuSans-48"/>
       <use x="127.246094" xlink:href="#DejaVuSans-48"/>
      </g>
     </g>
    </g>
    <g id="ytick_3">
     <g id="line2d_8">
      <g>
       <use style="stroke:#000000;stroke-width:0.8;" x="57.6" xlink:href="#me1b63ede26" y="217.775354"/>
      </g>
     </g>
     <g id="text_9">
      <!-- 1000 -->
      <g transform="translate(25.15 221.574572)scale(0.1 -0.1)">
       <use xlink:href="#DejaVuSans-49"/>
       <use x="63.623047" xlink:href="#DejaVuSans-48"/>
       <use x="127.246094" xlink:href="#DejaVuSans-48"/>
       <use x="190.869141" xlink:href="#DejaVuSans-48"/>
      </g>
     </g>
    </g>
    <g id="ytick_4">
     <g id="line2d_9">
      <g>
       <use style="stroke:#000000;stroke-width:0.8;" x="57.6" xlink:href="#me1b63ede26" y="172.87103"/>
      </g>
     </g>
     <g id="text_10">
      <!-- 1500 -->
      <g transform="translate(25.15 176.670249)scale(0.1 -0.1)">
       <use xlink:href="#DejaVuSans-49"/>
       <use x="63.623047" xlink:href="#DejaVuSans-53"/>
       <use x="127.246094" xlink:href="#DejaVuSans-48"/>
       <use x="190.869141" xlink:href="#DejaVuSans-48"/>
      </g>
     </g>
    </g>
    <g id="ytick_5">
     <g id="line2d_10">
      <g>
       <use style="stroke:#000000;stroke-width:0.8;" x="57.6" xlink:href="#me1b63ede26" y="127.966707"/>
      </g>
     </g>
     <g id="text_11">
      <!-- 2000 -->
      <defs>
       <path d="M 19.1875 8.296875 
L 53.609375 8.296875 
L 53.609375 0 
L 7.328125 0 
L 7.328125 8.296875 
Q 12.9375 14.109375 22.625 23.890625 
Q 32.328125 33.6875 34.8125 36.53125 
Q 39.546875 41.84375 41.421875 45.53125 
Q 43.3125 49.21875 43.3125 52.78125 
Q 43.3125 58.59375 39.234375 62.25 
Q 35.15625 65.921875 28.609375 65.921875 
Q 23.96875 65.921875 18.8125 64.3125 
Q 13.671875 62.703125 7.8125 59.421875 
L 7.8125 69.390625 
Q 13.765625 71.78125 18.9375 73 
Q 24.125 74.21875 28.421875 74.21875 
Q 39.75 74.21875 46.484375 68.546875 
Q 53.21875 62.890625 53.21875 53.421875 
Q 53.21875 48.921875 51.53125 44.890625 
Q 49.859375 40.875 45.40625 35.40625 
Q 44.1875 33.984375 37.640625 27.21875 
Q 31.109375 20.453125 19.1875 8.296875 
z
" id="DejaVuSans-50"/>
      </defs>
      <g transform="translate(25.15 131.765926)scale(0.1 -0.1)">
       <use xlink:href="#DejaVuSans-50"/>
       <use x="63.623047" xlink:href="#DejaVuSans-48"/>
       <use x="127.246094" xlink:href="#DejaVuSans-48"/>
       <use x="190.869141" xlink:href="#DejaVuSans-48"/>
      </g>
     </g>
    </g>
    <g id="ytick_6">
     <g id="line2d_11">
      <g>
       <use style="stroke:#000000;stroke-width:0.8;" x="57.6" xlink:href="#me1b63ede26" y="83.062384"/>
      </g>
     </g>
     <g id="text_12">
      <!-- 2500 -->
      <g transform="translate(25.15 86.861603)scale(0.1 -0.1)">
       <use xlink:href="#DejaVuSans-50"/>
       <use x="63.623047" xlink:href="#DejaVuSans-53"/>
       <use x="127.246094" xlink:href="#DejaVuSans-48"/>
       <use x="190.869141" xlink:href="#DejaVuSans-48"/>
      </g>
     </g>
    </g>
    <g id="text_13">
     <!-- Occurrencies -->
     <defs>
      <path d="M 39.40625 66.21875 
Q 28.65625 66.21875 22.328125 58.203125 
Q 16.015625 50.203125 16.015625 36.375 
Q 16.015625 22.609375 22.328125 14.59375 
Q 28.65625 6.59375 39.40625 6.59375 
Q 50.140625 6.59375 56.421875 14.59375 
Q 62.703125 22.609375 62.703125 36.375 
Q 62.703125 50.203125 56.421875 58.203125 
Q 50.140625 66.21875 39.40625 66.21875 
z
M 39.40625 74.21875 
Q 54.734375 74.21875 63.90625 63.9375 
Q 73.09375 53.65625 73.09375 36.375 
Q 73.09375 19.140625 63.90625 8.859375 
Q 54.734375 -1.421875 39.40625 -1.421875 
Q 24.03125 -1.421875 14.8125 8.828125 
Q 5.609375 19.09375 5.609375 36.375 
Q 5.609375 53.65625 14.8125 63.9375 
Q 24.03125 74.21875 39.40625 74.21875 
z
" id="DejaVuSans-79"/>
      <path d="M 48.78125 52.59375 
L 48.78125 44.1875 
Q 44.96875 46.296875 41.140625 47.34375 
Q 37.3125 48.390625 33.40625 48.390625 
Q 24.65625 48.390625 19.8125 42.84375 
Q 14.984375 37.3125 14.984375 27.296875 
Q 14.984375 17.28125 19.8125 11.734375 
Q 24.65625 6.203125 33.40625 6.203125 
Q 37.3125 6.203125 41.140625 7.25 
Q 44.96875 8.296875 48.78125 10.40625 
L 48.78125 2.09375 
Q 45.015625 0.34375 40.984375 -0.53125 
Q 36.96875 -1.421875 32.421875 -1.421875 
Q 20.0625 -1.421875 12.78125 6.34375 
Q 5.515625 14.109375 5.515625 27.296875 
Q 5.515625 40.671875 12.859375 48.328125 
Q 20.21875 56 33.015625 56 
Q 37.15625 56 41.109375 55.140625 
Q 45.0625 54.296875 48.78125 52.59375 
z
" id="DejaVuSans-99"/>
      <path d="M 8.5 21.578125 
L 8.5 54.6875 
L 17.484375 54.6875 
L 17.484375 21.921875 
Q 17.484375 14.15625 20.5 10.265625 
Q 23.53125 6.390625 29.59375 6.390625 
Q 36.859375 6.390625 41.078125 11.03125 
Q 45.3125 15.671875 45.3125 23.6875 
L 45.3125 54.6875 
L 54.296875 54.6875 
L 54.296875 0 
L 45.3125 0 
L 45.3125 8.40625 
Q 42.046875 3.421875 37.71875 1 
Q 33.40625 -1.421875 27.6875 -1.421875 
Q 18.265625 -1.421875 13.375 4.4375 
Q 8.5 10.296875 8.5 21.578125 
z
M 31.109375 56 
z
" id="DejaVuSans-117"/>
      <path d="M 41.109375 46.296875 
Q 39.59375 47.171875 37.8125 47.578125 
Q 36.03125 48 33.890625 48 
Q 26.265625 48 22.1875 43.046875 
Q 18.109375 38.09375 18.109375 28.8125 
L 18.109375 0 
L 9.078125 0 
L 9.078125 54.6875 
L 18.109375 54.6875 
L 18.109375 46.1875 
Q 20.953125 51.171875 25.484375 53.578125 
Q 30.03125 56 36.53125 56 
Q 37.453125 56 38.578125 55.875 
Q 39.703125 55.765625 41.0625 55.515625 
z
" id="DejaVuSans-114"/>
      <path d="M 54.890625 33.015625 
L 54.890625 0 
L 45.90625 0 
L 45.90625 32.71875 
Q 45.90625 40.484375 42.875 44.328125 
Q 39.84375 48.1875 33.796875 48.1875 
Q 26.515625 48.1875 22.3125 43.546875 
Q 18.109375 38.921875 18.109375 30.90625 
L 18.109375 0 
L 9.078125 0 
L 9.078125 54.6875 
L 18.109375 54.6875 
L 18.109375 46.1875 
Q 21.34375 51.125 25.703125 53.5625 
Q 30.078125 56 35.796875 56 
Q 45.21875 56 50.046875 50.171875 
Q 54.890625 44.34375 54.890625 33.015625 
z
" id="DejaVuSans-110"/>
      <path d="M 44.28125 53.078125 
L 44.28125 44.578125 
Q 40.484375 46.53125 36.375 47.5 
Q 32.28125 48.484375 27.875 48.484375 
Q 21.1875 48.484375 17.84375 46.4375 
Q 14.5 44.390625 14.5 40.28125 
Q 14.5 37.15625 16.890625 35.375 
Q 19.28125 33.59375 26.515625 31.984375 
L 29.59375 31.296875 
Q 39.15625 29.25 43.1875 25.515625 
Q 47.21875 21.78125 47.21875 15.09375 
Q 47.21875 7.46875 41.1875 3.015625 
Q 35.15625 -1.421875 24.609375 -1.421875 
Q 20.21875 -1.421875 15.453125 -0.5625 
Q 10.6875 0.296875 5.421875 2 
L 5.421875 11.28125 
Q 10.40625 8.6875 15.234375 7.390625 
Q 20.0625 6.109375 24.8125 6.109375 
Q 31.15625 6.109375 34.5625 8.28125 
Q 37.984375 10.453125 37.984375 14.40625 
Q 37.984375 18.0625 35.515625 20.015625 
Q 33.0625 21.96875 24.703125 23.78125 
L 21.578125 24.515625 
Q 13.234375 26.265625 9.515625 29.90625 
Q 5.8125 33.546875 5.8125 39.890625 
Q 5.8125 47.609375 11.28125 51.796875 
Q 16.75 56 26.8125 56 
Q 31.78125 56 36.171875 55.265625 
Q 40.578125 54.546875 44.28125 53.078125 
z
" id="DejaVuSans-115"/>
     </defs>
     <g transform="translate(19.070312 207.304563)rotate(-90)scale(0.1 -0.1)">
      <use xlink:href="#DejaVuSans-79"/>
      <use x="78.710938" xlink:href="#DejaVuSans-99"/>
      <use x="133.691406" xlink:href="#DejaVuSans-99"/>
      <use x="188.671875" xlink:href="#DejaVuSans-117"/>
      <use x="252.050781" xlink:href="#DejaVuSans-114"/>
      <use x="293.148438" xlink:href="#DejaVuSans-114"/>
      <use x="334.230469" xlink:href="#DejaVuSans-101"/>
      <use x="395.753906" xlink:href="#DejaVuSans-110"/>
      <use x="459.132812" xlink:href="#DejaVuSans-99"/>
      <use x="514.113281" xlink:href="#DejaVuSans-105"/>
      <use x="541.896484" xlink:href="#DejaVuSans-101"/>
      <use x="603.419922" xlink:href="#DejaVuSans-115"/>
     </g>
    </g>
   </g>
   <g id="patch_203">
    <path d="M 57.6 307.584 
L 57.6 41.472 
" style="fill:none;stroke:#000000;stroke-linecap:square;stroke-linejoin:miter;stroke-width:0.8;"/>
   </g>
   <g id="patch_204">
    <path d="M 414.72 307.584 
L 414.72 41.472 
" style="fill:none;stroke:#000000;stroke-linecap:square;stroke-linejoin:miter;stroke-width:0.8;"/>
   </g>
   <g id="patch_205">
    <path d="M 57.6 307.584 
L 414.72 307.584 
" style="fill:none;stroke:#000000;stroke-linecap:square;stroke-linejoin:miter;stroke-width:0.8;"/>
   </g>
   <g id="patch_206">
    <path d="M 57.6 41.472 
L 414.72 41.472 
" style="fill:none;stroke:#000000;stroke-linecap:square;stroke-linejoin:miter;stroke-width:0.8;"/>
   </g>
   <g id="text_14">
    <!-- Histogram of fc2 -->
    <defs>
     <path d="M 9.8125 72.90625 
L 19.671875 72.90625 
L 19.671875 43.015625 
L 55.515625 43.015625 
L 55.515625 72.90625 
L 65.375 72.90625 
L 65.375 0 
L 55.515625 0 
L 55.515625 34.71875 
L 19.671875 34.71875 
L 19.671875 0 
L 9.8125 0 
z
" id="DejaVuSans-72"/>
     <path d="M 30.609375 48.390625 
Q 23.390625 48.390625 19.1875 42.75 
Q 14.984375 37.109375 14.984375 27.296875 
Q 14.984375 17.484375 19.15625 11.84375 
Q 23.34375 6.203125 30.609375 6.203125 
Q 37.796875 6.203125 41.984375 11.859375 
Q 46.1875 17.53125 46.1875 27.296875 
Q 46.1875 37.015625 41.984375 42.703125 
Q 37.796875 48.390625 30.609375 48.390625 
z
M 30.609375 56 
Q 42.328125 56 49.015625 48.375 
Q 55.71875 40.765625 55.71875 27.296875 
Q 55.71875 13.875 49.015625 6.21875 
Q 42.328125 -1.421875 30.609375 -1.421875 
Q 18.84375 -1.421875 12.171875 6.21875 
Q 5.515625 13.875 5.515625 27.296875 
Q 5.515625 40.765625 12.171875 48.375 
Q 18.84375 56 30.609375 56 
z
" id="DejaVuSans-111"/>
     <path d="M 34.28125 27.484375 
Q 23.390625 27.484375 19.1875 25 
Q 14.984375 22.515625 14.984375 16.5 
Q 14.984375 11.71875 18.140625 8.90625 
Q 21.296875 6.109375 26.703125 6.109375 
Q 34.1875 6.109375 38.703125 11.40625 
Q 43.21875 16.703125 43.21875 25.484375 
L 43.21875 27.484375 
z
M 52.203125 31.203125 
L 52.203125 0 
L 43.21875 0 
L 43.21875 8.296875 
Q 40.140625 3.328125 35.546875 0.953125 
Q 30.953125 -1.421875 24.3125 -1.421875 
Q 15.921875 -1.421875 10.953125 3.296875 
Q 6 8.015625 6 15.921875 
Q 6 25.140625 12.171875 29.828125 
Q 18.359375 34.515625 30.609375 34.515625 
L 43.21875 34.515625 
L 43.21875 35.40625 
Q 43.21875 41.609375 39.140625 45 
Q 35.0625 48.390625 27.6875 48.390625 
Q 23 48.390625 18.546875 47.265625 
Q 14.109375 46.140625 10.015625 43.890625 
L 10.015625 52.203125 
Q 14.9375 54.109375 19.578125 55.046875 
Q 24.21875 56 28.609375 56 
Q 40.484375 56 46.34375 49.84375 
Q 52.203125 43.703125 52.203125 31.203125 
z
" id="DejaVuSans-97"/>
     <path d="M 52 44.1875 
Q 55.375 50.25 60.0625 53.125 
Q 64.75 56 71.09375 56 
Q 79.640625 56 84.28125 50.015625 
Q 88.921875 44.046875 88.921875 33.015625 
L 88.921875 0 
L 79.890625 0 
L 79.890625 32.71875 
Q 79.890625 40.578125 77.09375 44.375 
Q 74.3125 48.1875 68.609375 48.1875 
Q 61.625 48.1875 57.5625 43.546875 
Q 53.515625 38.921875 53.515625 30.90625 
L 53.515625 0 
L 44.484375 0 
L 44.484375 32.71875 
Q 44.484375 40.625 41.703125 44.40625 
Q 38.921875 48.1875 33.109375 48.1875 
Q 26.21875 48.1875 22.15625 43.53125 
Q 18.109375 38.875 18.109375 30.90625 
L 18.109375 0 
L 9.078125 0 
L 9.078125 54.6875 
L 18.109375 54.6875 
L 18.109375 46.1875 
Q 21.1875 51.21875 25.484375 53.609375 
Q 29.78125 56 35.6875 56 
Q 41.65625 56 45.828125 52.96875 
Q 50 49.953125 52 44.1875 
z
" id="DejaVuSans-109"/>
     <path id="DejaVuSans-32"/>
     <path d="M 37.109375 75.984375 
L 37.109375 68.5 
L 28.515625 68.5 
Q 23.6875 68.5 21.796875 66.546875 
Q 19.921875 64.59375 19.921875 59.515625 
L 19.921875 54.6875 
L 34.71875 54.6875 
L 34.71875 47.703125 
L 19.921875 47.703125 
L 19.921875 0 
L 10.890625 0 
L 10.890625 47.703125 
L 2.296875 47.703125 
L 2.296875 54.6875 
L 10.890625 54.6875 
L 10.890625 58.5 
Q 10.890625 67.625 15.140625 71.796875 
Q 19.390625 75.984375 28.609375 75.984375 
z
" id="DejaVuSans-102"/>
    </defs>
    <g transform="translate(186.209063 35.472)scale(0.12 -0.12)">
     <use xlink:href="#DejaVuSans-72"/>
     <use x="75.195312" xlink:href="#DejaVuSans-105"/>
     <use x="102.978516" xlink:href="#DejaVuSans-115"/>
     <use x="155.078125" xlink:href="#DejaVuSans-116"/>
     <use x="194.287109" xlink:href="#DejaVuSans-111"/>
     <use x="255.46875" xlink:href="#DejaVuSans-103"/>
     <use x="318.945312" xlink:href="#DejaVuSans-114"/>
     <use x="360.058594" xlink:href="#DejaVuSans-97"/>
     <use x="421.337891" xlink:href="#DejaVuSans-109"/>
     <use x="518.75" xlink:href="#DejaVuSans-32"/>
     <use x="550.537109" xlink:href="#DejaVuSans-111"/>
     <use x="611.71875" xlink:href="#DejaVuSans-102"/>
     <use x="646.923828" xlink:href="#DejaVuSans-32"/>
     <use x="678.710938" xlink:href="#DejaVuSans-102"/>
     <use x="713.916016" xlink:href="#DejaVuSans-99"/>
     <use x="768.896484" xlink:href="#DejaVuSans-50"/>
    </g>
   </g>
   <g id="legend_1">
    <g id="patch_207">
     <path d="M 323.679375 78.82825 
L 407.72 78.82825 
Q 409.72 78.82825 409.72 76.82825 
L 409.72 48.472 
Q 409.72 46.472 407.72 46.472 
L 323.679375 46.472 
Q 321.679375 46.472 321.679375 48.472 
L 321.679375 76.82825 
Q 321.679375 78.82825 323.679375 78.82825 
z
" style="fill:#ffffff;opacity:0.8;stroke:#cccccc;stroke-linejoin:miter;"/>
    </g>
    <g id="patch_208">
     <path d="M 325.679375 58.070437 
L 345.679375 58.070437 
L 345.679375 51.070437 
L 325.679375 51.070437 
z
" style="fill:#0000ff;"/>
    </g>
    <g id="text_15">
     <!-- unmasked -->
     <defs>
      <path d="M 9.078125 75.984375 
L 18.109375 75.984375 
L 18.109375 31.109375 
L 44.921875 54.6875 
L 56.390625 54.6875 
L 27.390625 29.109375 
L 57.625 0 
L 45.90625 0 
L 18.109375 26.703125 
L 18.109375 0 
L 9.078125 0 
z
" id="DejaVuSans-107"/>
      <path d="M 45.40625 46.390625 
L 45.40625 75.984375 
L 54.390625 75.984375 
L 54.390625 0 
L 45.40625 0 
L 45.40625 8.203125 
Q 42.578125 3.328125 38.25 0.953125 
Q 33.9375 -1.421875 27.875 -1.421875 
Q 17.96875 -1.421875 11.734375 6.484375 
Q 5.515625 14.40625 5.515625 27.296875 
Q 5.515625 40.1875 11.734375 48.09375 
Q 17.96875 56 27.875 56 
Q 33.9375 56 38.25 53.625 
Q 42.578125 51.265625 45.40625 46.390625 
z
M 14.796875 27.296875 
Q 14.796875 17.390625 18.875 11.75 
Q 22.953125 6.109375 30.078125 6.109375 
Q 37.203125 6.109375 41.296875 11.75 
Q 45.40625 17.390625 45.40625 27.296875 
Q 45.40625 37.203125 41.296875 42.84375 
Q 37.203125 48.484375 30.078125 48.484375 
Q 22.953125 48.484375 18.875 42.84375 
Q 14.796875 37.203125 14.796875 27.296875 
z
" id="DejaVuSans-100"/>
     </defs>
     <g transform="translate(353.679375 58.070437)scale(0.1 -0.1)">
      <use xlink:href="#DejaVuSans-117"/>
      <use x="63.378906" xlink:href="#DejaVuSans-110"/>
      <use x="126.757812" xlink:href="#DejaVuSans-109"/>
      <use x="224.169922" xlink:href="#DejaVuSans-97"/>
      <use x="285.449219" xlink:href="#DejaVuSans-115"/>
      <use x="337.548828" xlink:href="#DejaVuSans-107"/>
      <use x="395.412109" xlink:href="#DejaVuSans-101"/>
      <use x="456.935547" xlink:href="#DejaVuSans-100"/>
     </g>
    </g>
    <g id="patch_209">
     <path d="M 325.679375 72.748562 
L 345.679375 72.748562 
L 345.679375 65.748562 
L 325.679375 65.748562 
z
" style="fill:#808080;"/>
    </g>
    <g id="text_16">
     <!-- masked -->
     <g transform="translate(353.679375 72.748562)scale(0.1 -0.1)">
      <use xlink:href="#DejaVuSans-109"/>
      <use x="97.412109" xlink:href="#DejaVuSans-97"/>
      <use x="158.691406" xlink:href="#DejaVuSans-115"/>
      <use x="210.791016" xlink:href="#DejaVuSans-107"/>
      <use x="268.654297" xlink:href="#DejaVuSans-101"/>
      <use x="330.177734" xlink:href="#DejaVuSans-100"/>
     </g>
    </g>
   </g>
  </g>
 </g>
 <defs>
  <clipPath id="pff2eb2fb13">
   <rect height="266.112" width="357.12" x="57.6" y="41.472"/>
  </clipPath>
 </defs>
</svg>
