<?xml version="1.0" encoding="utf-8" standalone="no"?>
<!DOCTYPE svg PUBLIC "-//W3C//DTD SVG 1.1//EN"
  "http://www.w3.org/Graphics/SVG/1.1/DTD/svg11.dtd">
<!-- Created with matplotlib (https://matplotlib.org/) -->
<svg height="345.6pt" version="1.1" viewBox="0 0 460.8 345.6" width="460.8pt" xmlns="http://www.w3.org/2000/svg" xmlns:xlink="http://www.w3.org/1999/xlink">
 <defs>
  <style type="text/css">
*{stroke-linecap:butt;stroke-linejoin:round;}
  </style>
 </defs>
 <g id="figure_1">
  <g id="patch_1">
   <path d="M 0 345.6 
L 460.8 345.6 
L 460.8 0 
L 0 0 
z
" style="fill:#ffffff;"/>
  </g>
  <g id="axes_1">
   <g id="patch_2">
    <path d="M 57.6 307.584 
L 414.72 307.584 
L 414.72 41.472 
L 57.6 41.472 
z
" style="fill:#ffffff;"/>
   </g>
   <g id="patch_3">
    <path clip-path="url(#p42348a3c92)" d="M 76.359222 307.584 
L 79.580506 307.584 
L 79.580506 307.572733 
L 76.359222 307.572733 
z
" style="fill:#0000ff;"/>
   </g>
   <g id="patch_4">
    <path clip-path="url(#p42348a3c92)" d="M 79.580506 307.584 
L 82.801781 307.584 
L 82.801781 307.572733 
L 79.580506 307.572733 
z
" style="fill:#0000ff;"/>
   </g>
   <g id="patch_5">
    <path clip-path="url(#p42348a3c92)" d="M 82.801781 307.584 
L 86.023065 307.584 
L 86.023065 307.584 
L 82.801781 307.584 
z
" style="fill:#0000ff;"/>
   </g>
   <g id="patch_6">
    <path clip-path="url(#p42348a3c92)" d="M 86.023075 307.584 
L 89.24435 307.584 
L 89.24435 307.584 
L 86.023075 307.584 
z
" style="fill:#0000ff;"/>
   </g>
   <g id="patch_7">
    <path clip-path="url(#p42348a3c92)" d="M 89.24434 307.584 
L 92.465624 307.584 
L 92.465624 307.572733 
L 89.24434 307.572733 
z
" style="fill:#0000ff;"/>
   </g>
   <g id="patch_8">
    <path clip-path="url(#p42348a3c92)" d="M 92.465624 307.584 
L 95.686909 307.584 
L 95.686909 307.584 
L 92.465624 307.584 
z
" style="fill:#0000ff;"/>
   </g>
   <g id="patch_9">
    <path clip-path="url(#p42348a3c92)" d="M 95.686909 307.584 
L 98.908183 307.584 
L 98.908183 307.584 
L 95.686909 307.584 
z
" style="fill:#0000ff;"/>
   </g>
   <g id="patch_10">
    <path clip-path="url(#p42348a3c92)" d="M 98.908183 307.584 
L 102.129468 307.584 
L 102.129468 307.584 
L 98.908183 307.584 
z
" style="fill:#0000ff;"/>
   </g>
   <g id="patch_11">
    <path clip-path="url(#p42348a3c92)" d="M 102.129477 307.584 
L 105.350752 307.584 
L 105.350752 307.584 
L 102.129477 307.584 
z
" style="fill:#0000ff;"/>
   </g>
   <g id="patch_12">
    <path clip-path="url(#p42348a3c92)" d="M 105.350743 307.584 
L 108.572027 307.584 
L 108.572027 307.584 
L 105.350743 307.584 
z
" style="fill:#0000ff;"/>
   </g>
   <g id="patch_13">
    <path clip-path="url(#p42348a3c92)" d="M 108.572027 307.584 
L 111.793311 307.584 
L 111.793311 307.561467 
L 108.572027 307.561467 
z
" style="fill:#0000ff;"/>
   </g>
   <g id="patch_14">
    <path clip-path="url(#p42348a3c92)" d="M 111.793311 307.584 
L 115.014586 307.584 
L 115.014586 307.584 
L 111.793311 307.584 
z
" style="fill:#0000ff;"/>
   </g>
   <g id="patch_15">
    <path clip-path="url(#p42348a3c92)" d="M 115.014586 307.584 
L 118.23587 307.584 
L 118.23587 307.584 
L 115.014586 307.584 
z
" style="fill:#0000ff;"/>
   </g>
   <g id="patch_16">
    <path clip-path="url(#p42348a3c92)" d="M 118.23588 307.584 
L 121.457155 307.584 
L 121.457155 307.584 
L 118.23588 307.584 
z
" style="fill:#0000ff;"/>
   </g>
   <g id="patch_17">
    <path clip-path="url(#p42348a3c92)" d="M 121.457145 307.584 
L 124.678429 307.584 
L 124.678429 307.561467 
L 121.457145 307.561467 
z
" style="fill:#0000ff;"/>
   </g>
   <g id="patch_18">
    <path clip-path="url(#p42348a3c92)" d="M 124.678429 307.584 
L 127.899714 307.584 
L 127.899714 307.584 
L 124.678429 307.584 
z
" style="fill:#0000ff;"/>
   </g>
   <g id="patch_19">
    <path clip-path="url(#p42348a3c92)" d="M 127.899714 307.584 
L 131.120989 307.584 
L 131.120989 307.584 
L 127.899714 307.584 
z
" style="fill:#0000ff;"/>
   </g>
   <g id="patch_20">
    <path clip-path="url(#p42348a3c92)" d="M 131.120989 307.584 
L 134.342273 307.584 
L 134.342273 307.572733 
L 131.120989 307.572733 
z
" style="fill:#0000ff;"/>
   </g>
   <g id="patch_21">
    <path clip-path="url(#p42348a3c92)" d="M 134.342283 307.584 
L 137.563557 307.584 
L 137.563557 307.584 
L 134.342283 307.584 
z
" style="fill:#0000ff;"/>
   </g>
   <g id="patch_22">
    <path clip-path="url(#p42348a3c92)" d="M 137.563548 307.584 
L 140.784832 307.584 
L 140.784832 307.561467 
L 137.563548 307.561467 
z
" style="fill:#0000ff;"/>
   </g>
   <g id="patch_23">
    <path clip-path="url(#p42348a3c92)" d="M 140.784832 307.584 
L 144.006116 307.584 
L 144.006116 307.572733 
L 140.784832 307.572733 
z
" style="fill:#0000ff;"/>
   </g>
   <g id="patch_24">
    <path clip-path="url(#p42348a3c92)" d="M 144.006116 307.584 
L 147.227391 307.584 
L 147.227391 307.572733 
L 144.006116 307.572733 
z
" style="fill:#0000ff;"/>
   </g>
   <g id="patch_25">
    <path clip-path="url(#p42348a3c92)" d="M 147.227391 307.584 
L 150.448675 307.584 
L 150.448675 307.572733 
L 147.227391 307.572733 
z
" style="fill:#0000ff;"/>
   </g>
   <g id="patch_26">
    <path clip-path="url(#p42348a3c92)" d="M 150.448685 307.584 
L 153.66996 307.584 
L 153.66996 307.505134 
L 150.448685 307.505134 
z
" style="fill:#0000ff;"/>
   </g>
   <g id="patch_27">
    <path clip-path="url(#p42348a3c92)" d="M 153.66995 307.584 
L 156.891235 307.584 
L 156.891235 307.561467 
L 153.66995 307.561467 
z
" style="fill:#0000ff;"/>
   </g>
   <g id="patch_28">
    <path clip-path="url(#p42348a3c92)" d="M 156.891235 307.584 
L 160.112509 307.584 
L 160.112509 307.505134 
L 156.891235 307.505134 
z
" style="fill:#0000ff;"/>
   </g>
   <g id="patch_29">
    <path clip-path="url(#p42348a3c92)" d="M 160.112514 307.584 
L 163.333789 307.584 
L 163.333789 307.471335 
L 160.112514 307.471335 
z
" style="fill:#0000ff;"/>
   </g>
   <g id="patch_30">
    <path clip-path="url(#p42348a3c92)" d="M 163.333794 307.584 
L 166.555078 307.584 
L 166.555078 307.516401 
L 163.333794 307.516401 
z
" style="fill:#0000ff;"/>
   </g>
   <g id="patch_31">
    <path clip-path="url(#p42348a3c92)" d="M 166.555083 307.584 
L 169.776358 307.584 
L 169.776358 307.561467 
L 166.555083 307.561467 
z
" style="fill:#0000ff;"/>
   </g>
   <g id="patch_32">
    <path clip-path="url(#p42348a3c92)" d="M 169.776358 307.584 
L 172.997632 307.584 
L 172.997632 307.471335 
L 169.776358 307.471335 
z
" style="fill:#0000ff;"/>
   </g>
   <g id="patch_33">
    <path clip-path="url(#p42348a3c92)" d="M 172.997642 307.584 
L 176.218917 307.584 
L 176.218917 307.32487 
L 172.997642 307.32487 
z
" style="fill:#0000ff;"/>
   </g>
   <g id="patch_34">
    <path clip-path="url(#p42348a3c92)" d="M 176.218917 307.584 
L 179.440191 307.584 
L 179.440191 307.471335 
L 176.218917 307.471335 
z
" style="fill:#0000ff;"/>
   </g>
   <g id="patch_35">
    <path clip-path="url(#p42348a3c92)" d="M 179.440196 307.584 
L 182.661481 307.584 
L 182.661481 307.381203 
L 179.440196 307.381203 
z
" style="fill:#0000ff;"/>
   </g>
   <g id="patch_36">
    <path clip-path="url(#p42348a3c92)" d="M 182.661485 307.584 
L 185.88276 307.584 
L 185.88276 307.437535 
L 182.661485 307.437535 
z
" style="fill:#0000ff;"/>
   </g>
   <g id="patch_37">
    <path clip-path="url(#p42348a3c92)" d="M 185.88276 307.584 
L 189.104035 307.584 
L 189.104035 307.268538 
L 185.88276 307.268538 
z
" style="fill:#0000ff;"/>
   </g>
   <g id="patch_38">
    <path clip-path="url(#p42348a3c92)" d="M 189.104044 307.584 
L 192.325319 307.584 
L 192.325319 307.291071 
L 189.104044 307.291071 
z
" style="fill:#0000ff;"/>
   </g>
   <g id="patch_39">
    <path clip-path="url(#p42348a3c92)" d="M 192.325319 307.584 
L 195.546594 307.584 
L 195.546594 307.110807 
L 192.325319 307.110807 
z
" style="fill:#0000ff;"/>
   </g>
   <g id="patch_40">
    <path clip-path="url(#p42348a3c92)" d="M 195.546599 307.584 
L 198.767883 307.584 
L 198.767883 307.200939 
L 195.546599 307.200939 
z
" style="fill:#0000ff;"/>
   </g>
   <g id="patch_41">
    <path clip-path="url(#p42348a3c92)" d="M 198.767878 307.584 
L 201.989163 307.584 
L 201.989163 306.964342 
L 198.767878 306.964342 
z
" style="fill:#0000ff;"/>
   </g>
   <g id="patch_42">
    <path clip-path="url(#p42348a3c92)" d="M 201.989165 307.584 
L 205.21044 307.584 
L 205.21044 307.031941 
L 201.989165 307.031941 
z
" style="fill:#0000ff;"/>
   </g>
   <g id="patch_43">
    <path clip-path="url(#p42348a3c92)" d="M 205.210445 307.584 
L 208.431719 307.584 
L 208.431719 306.547482 
L 205.210445 306.547482 
z
" style="fill:#0000ff;"/>
   </g>
   <g id="patch_44">
    <path clip-path="url(#p42348a3c92)" d="M 208.431722 307.584 
L 211.653006 307.584 
L 211.653006 306.42355 
L 208.431722 306.42355 
z
" style="fill:#0000ff;"/>
   </g>
   <g id="patch_45">
    <path clip-path="url(#p42348a3c92)" d="M 211.653006 307.584 
L 214.874281 307.584 
L 214.874281 306.615081 
L 211.653006 306.615081 
z
" style="fill:#0000ff;"/>
   </g>
   <g id="patch_46">
    <path clip-path="url(#p42348a3c92)" d="M 214.874281 307.584 
L 218.095565 307.584 
L 218.095565 305.758826 
L 214.874281 305.758826 
z
" style="fill:#0000ff;"/>
   </g>
   <g id="patch_47">
    <path clip-path="url(#p42348a3c92)" d="M 218.095563 307.584 
L 221.316847 307.584 
L 221.316847 306.096822 
L 218.095563 306.096822 
z
" style="fill:#0000ff;"/>
   </g>
   <g id="patch_48">
    <path clip-path="url(#p42348a3c92)" d="M 221.316842 307.584 
L 224.538127 307.584 
L 224.538127 304.857506 
L 221.316842 304.857506 
z
" style="fill:#0000ff;"/>
   </g>
   <g id="patch_49">
    <path clip-path="url(#p42348a3c92)" d="M 224.538124 307.584 
L 227.759409 307.584 
L 227.759409 305.52223 
L 224.538124 305.52223 
z
" style="fill:#0000ff;"/>
   </g>
   <g id="patch_50">
    <path clip-path="url(#p42348a3c92)" d="M 227.759404 307.584 
L 230.980688 307.584 
L 230.980688 304.113917 
L 227.759404 304.113917 
z
" style="fill:#0000ff;"/>
   </g>
   <g id="patch_51">
    <path clip-path="url(#p42348a3c92)" d="M 230.980685 307.584 
L 234.201969 307.584 
L 234.201969 304.936372 
L 230.980685 304.936372 
z
" style="fill:#0000ff;"/>
   </g>
   <g id="patch_52">
    <path clip-path="url(#p42348a3c92)" d="M 234.201965 307.584 
L 237.423249 307.584 
L 237.423249 302.71687 
L 234.201965 302.71687 
z
" style="fill:#0000ff;"/>
   </g>
   <g id="patch_53">
    <path clip-path="url(#p42348a3c92)" d="M 237.423245 307.584 
L 240.64453 307.584 
L 240.64453 302.638005 
L 237.423245 302.638005 
z
" style="fill:#0000ff;"/>
   </g>
   <g id="patch_54">
    <path clip-path="url(#p42348a3c92)" d="M 240.644526 307.584 
L 243.86581 307.584 
L 243.86581 303.584391 
L 240.644526 303.584391 
z
" style="fill:#0000ff;"/>
   </g>
   <g id="patch_55">
    <path clip-path="url(#p42348a3c92)" d="M 243.865806 307.584 
L 247.087091 307.584 
L 247.087091 300.508636 
L 243.865806 300.508636 
z
" style="fill:#0000ff;"/>
   </g>
   <g id="patch_56">
    <path clip-path="url(#p42348a3c92)" d="M 247.087087 307.584 
L 250.308371 307.584 
L 250.308371 302.277477 
L 247.087087 302.277477 
z
" style="fill:#0000ff;"/>
   </g>
   <g id="patch_57">
    <path clip-path="url(#p42348a3c92)" d="M 250.308368 307.584 
L 253.529652 307.584 
L 253.529652 298.570797 
L 250.308368 298.570797 
z
" style="fill:#0000ff;"/>
   </g>
   <g id="patch_58">
    <path clip-path="url(#p42348a3c92)" d="M 253.529647 307.584 
L 256.750932 307.584 
L 256.750932 301.004362 
L 253.529647 301.004362 
z
" style="fill:#0000ff;"/>
   </g>
   <g id="patch_59">
    <path clip-path="url(#p42348a3c92)" d="M 256.750929 307.584 
L 259.972214 307.584 
L 259.972214 296.27243 
L 256.750929 296.27243 
z
" style="fill:#0000ff;"/>
   </g>
   <g id="patch_60">
    <path clip-path="url(#p42348a3c92)" d="M 259.972214 307.584 
L 263.193488 307.584 
L 263.193488 299.539716 
L 259.972214 299.539716 
z
" style="fill:#0000ff;"/>
   </g>
   <g id="patch_61">
    <path clip-path="url(#p42348a3c92)" d="M 263.193488 307.584 
L 266.414773 307.584 
L 266.414773 291.69823 
L 263.193488 291.69823 
z
" style="fill:#0000ff;"/>
   </g>
   <g id="patch_62">
    <path clip-path="url(#p42348a3c92)" d="M 266.414775 307.584 
L 269.63605 307.584 
L 269.63605 286.41424 
L 266.414775 286.41424 
z
" style="fill:#0000ff;"/>
   </g>
   <g id="patch_63">
    <path clip-path="url(#p42348a3c92)" d="M 269.636055 307.584 
L 272.857329 307.584 
L 272.857329 245.730895 
L 269.636055 245.730895 
z
" style="fill:#0000ff;"/>
   </g>
   <g id="patch_64">
    <path clip-path="url(#p42348a3c92)" d="M 272.857332 307.584 
L 276.078616 307.584 
L 276.078616 222.533164 
L 272.857332 222.533164 
z
" style="fill:#0000ff;"/>
   </g>
   <g id="patch_65">
    <path clip-path="url(#p42348a3c92)" d="M 276.078611 307.584 
L 279.299896 307.584 
L 279.299896 248.423589 
L 276.078611 248.423589 
z
" style="fill:#0000ff;"/>
   </g>
   <g id="patch_66">
    <path clip-path="url(#p42348a3c92)" d="M 279.299901 307.584 
L 282.521175 307.584 
L 282.521175 236.007902 
L 279.299901 236.007902 
z
" style="fill:#0000ff;"/>
   </g>
   <g id="patch_67">
    <path clip-path="url(#p42348a3c92)" d="M 282.521175 307.584 
L 285.74245 307.584 
L 285.74245 278.538954 
L 282.521175 278.538954 
z
" style="fill:#0000ff;"/>
   </g>
   <g id="patch_68">
    <path clip-path="url(#p42348a3c92)" d="M 285.74246 307.584 
L 288.963734 307.584 
L 288.963734 289.568861 
L 285.74246 289.568861 
z
" style="fill:#0000ff;"/>
   </g>
   <g id="patch_69">
    <path clip-path="url(#p42348a3c92)" d="M 288.963734 307.584 
L 292.185009 307.584 
L 292.185009 298.153936 
L 288.963734 298.153936 
z
" style="fill:#0000ff;"/>
   </g>
   <g id="patch_70">
    <path clip-path="url(#p42348a3c92)" d="M 292.185014 307.584 
L 295.406298 307.584 
L 295.406298 295.247178 
L 292.185014 295.247178 
z
" style="fill:#0000ff;"/>
   </g>
   <g id="patch_71">
    <path clip-path="url(#p42348a3c92)" d="M 295.406303 307.584 
L 298.627578 307.584 
L 298.627578 299.731247 
L 295.406303 299.731247 
z
" style="fill:#0000ff;"/>
   </g>
   <g id="patch_72">
    <path clip-path="url(#p42348a3c92)" d="M 298.627578 307.584 
L 301.848853 307.584 
L 301.848853 296.227364 
L 298.627578 296.227364 
z
" style="fill:#0000ff;"/>
   </g>
   <g id="patch_73">
    <path clip-path="url(#p42348a3c92)" d="M 301.848862 307.584 
L 305.070137 307.584 
L 305.070137 297.984939 
L 301.848862 297.984939 
z
" style="fill:#0000ff;"/>
   </g>
   <g id="patch_74">
    <path clip-path="url(#p42348a3c92)" d="M 305.070137 307.584 
L 308.291412 307.584 
L 308.291412 301.62402 
L 305.070137 301.62402 
z
" style="fill:#0000ff;"/>
   </g>
   <g id="patch_75">
    <path clip-path="url(#p42348a3c92)" d="M 308.291417 307.584 
L 311.512701 307.584 
L 311.512701 299.75378 
L 308.291417 299.75378 
z
" style="fill:#0000ff;"/>
   </g>
   <g id="patch_76">
    <path clip-path="url(#p42348a3c92)" d="M 311.512706 307.584 
L 314.73398 307.584 
L 314.73398 303.280196 
L 311.512706 303.280196 
z
" style="fill:#0000ff;"/>
   </g>
   <g id="patch_77">
    <path clip-path="url(#p42348a3c92)" d="M 314.73398 307.584 
L 317.955255 307.584 
L 317.955255 301.691619 
L 314.73398 301.691619 
z
" style="fill:#0000ff;"/>
   </g>
   <g id="patch_78">
    <path clip-path="url(#p42348a3c92)" d="M 317.95526 307.584 
L 321.176544 307.584 
L 321.176544 304.035051 
L 317.95526 304.035051 
z
" style="fill:#0000ff;"/>
   </g>
   <g id="patch_79">
    <path clip-path="url(#p42348a3c92)" d="M 321.176544 307.584 
L 324.397819 307.584 
L 324.397819 303.381594 
L 321.176544 303.381594 
z
" style="fill:#0000ff;"/>
   </g>
   <g id="patch_80">
    <path clip-path="url(#p42348a3c92)" d="M 324.397819 307.584 
L 327.619103 307.584 
L 327.619103 305.082836 
L 324.397819 305.082836 
z
" style="fill:#0000ff;"/>
   </g>
   <g id="patch_81">
    <path clip-path="url(#p42348a3c92)" d="M 327.619113 307.584 
L 330.840388 307.584 
L 330.840388 304.463178 
L 327.619113 304.463178 
z
" style="fill:#0000ff;"/>
   </g>
   <g id="patch_82">
    <path clip-path="url(#p42348a3c92)" d="M 330.840378 307.584 
L 334.061663 307.584 
L 334.061663 305.894024 
L 330.840378 305.894024 
z
" style="fill:#0000ff;"/>
   </g>
   <g id="patch_83">
    <path clip-path="url(#p42348a3c92)" d="M 334.061663 307.584 
L 337.282947 307.584 
L 337.282947 305.792626 
L 334.061663 305.792626 
z
" style="fill:#0000ff;"/>
   </g>
   <g id="patch_84">
    <path clip-path="url(#p42348a3c92)" d="M 337.282947 307.584 
L 340.504222 307.584 
L 340.504222 305.97289 
L 337.282947 305.97289 
z
" style="fill:#0000ff;"/>
   </g>
   <g id="patch_85">
    <path clip-path="url(#p42348a3c92)" d="M 340.504222 307.584 
L 343.725506 307.584 
L 343.725506 306.919276 
L 340.504222 306.919276 
z
" style="fill:#0000ff;"/>
   </g>
   <g id="patch_86">
    <path clip-path="url(#p42348a3c92)" d="M 343.725516 307.584 
L 346.94679 307.584 
L 346.94679 306.660147 
L 343.725516 306.660147 
z
" style="fill:#0000ff;"/>
   </g>
   <g id="patch_87">
    <path clip-path="url(#p42348a3c92)" d="M 346.946781 307.584 
L 350.168065 307.584 
L 350.168065 307.167139 
L 346.946781 307.167139 
z
" style="fill:#0000ff;"/>
   </g>
   <g id="patch_88">
    <path clip-path="url(#p42348a3c92)" d="M 350.168065 307.584 
L 353.389349 307.584 
L 353.389349 307.178406 
L 350.168065 307.178406 
z
" style="fill:#0000ff;"/>
   </g>
   <g id="patch_89">
    <path clip-path="url(#p42348a3c92)" d="M 353.389349 307.584 
L 356.610624 307.584 
L 356.610624 307.336137 
L 353.389349 307.336137 
z
" style="fill:#0000ff;"/>
   </g>
   <g id="patch_90">
    <path clip-path="url(#p42348a3c92)" d="M 356.610624 307.584 
L 359.831909 307.584 
L 359.831909 307.381203 
L 356.610624 307.381203 
z
" style="fill:#0000ff;"/>
   </g>
   <g id="patch_91">
    <path clip-path="url(#p42348a3c92)" d="M 359.831918 307.584 
L 363.053193 307.584 
L 363.053193 307.482601 
L 359.831918 307.482601 
z
" style="fill:#0000ff;"/>
   </g>
   <g id="patch_92">
    <path clip-path="url(#p42348a3c92)" d="M 363.053183 307.584 
L 366.274468 307.584 
L 366.274468 307.426269 
L 363.053183 307.426269 
z
" style="fill:#0000ff;"/>
   </g>
   <g id="patch_93">
    <path clip-path="url(#p42348a3c92)" d="M 366.274468 307.584 
L 369.495752 307.584 
L 369.495752 307.482601 
L 366.274468 307.482601 
z
" style="fill:#0000ff;"/>
   </g>
   <g id="patch_94">
    <path clip-path="url(#p42348a3c92)" d="M 369.495752 307.584 
L 372.717027 307.584 
L 372.717027 307.482601 
L 369.495752 307.482601 
z
" style="fill:#0000ff;"/>
   </g>
   <g id="patch_95">
    <path clip-path="url(#p42348a3c92)" d="M 372.717027 307.584 
L 375.938311 307.584 
L 375.938311 307.516401 
L 372.717027 307.516401 
z
" style="fill:#0000ff;"/>
   </g>
   <g id="patch_96">
    <path clip-path="url(#p42348a3c92)" d="M 375.938321 307.584 
L 379.159595 307.584 
L 379.159595 307.561467 
L 375.938321 307.561467 
z
" style="fill:#0000ff;"/>
   </g>
   <g id="patch_97">
    <path clip-path="url(#p42348a3c92)" d="M 379.159586 307.584 
L 382.38087 307.584 
L 382.38087 307.561467 
L 379.159586 307.561467 
z
" style="fill:#0000ff;"/>
   </g>
   <g id="patch_98">
    <path clip-path="url(#p42348a3c92)" d="M 382.38087 307.584 
L 385.602155 307.584 
L 385.602155 307.572733 
L 382.38087 307.572733 
z
" style="fill:#0000ff;"/>
   </g>
   <g id="patch_99">
    <path clip-path="url(#p42348a3c92)" d="M 385.602155 307.584 
L 388.823429 307.584 
L 388.823429 307.561467 
L 385.602155 307.561467 
z
" style="fill:#0000ff;"/>
   </g>
   <g id="patch_100">
    <path clip-path="url(#p42348a3c92)" d="M 388.823429 307.584 
L 392.044714 307.584 
L 392.044714 307.584 
L 388.823429 307.584 
z
" style="fill:#0000ff;"/>
   </g>
   <g id="patch_101">
    <path clip-path="url(#p42348a3c92)" d="M 392.044723 307.584 
L 395.265998 307.584 
L 395.265998 307.584 
L 392.044723 307.584 
z
" style="fill:#0000ff;"/>
   </g>
   <g id="patch_102">
    <path clip-path="url(#p42348a3c92)" d="M 395.265988 307.584 
L 398.487273 307.584 
L 398.487273 307.572733 
L 395.265988 307.572733 
z
" style="fill:#0000ff;"/>
   </g>
   <g id="patch_103">
    <path clip-path="url(#p42348a3c92)" d="M 73.832727 307.584 
L 76.447649 307.584 
L 76.447649 307.561467 
L 73.832727 307.561467 
z
" style="fill:#808080;"/>
   </g>
   <g id="patch_104">
    <path clip-path="url(#p42348a3c92)" d="M 76.447639 307.584 
L 79.062561 307.584 
L 79.062561 307.584 
L 76.447639 307.584 
z
" style="fill:#808080;"/>
   </g>
   <g id="patch_105">
    <path clip-path="url(#p42348a3c92)" d="M 79.06257 307.584 
L 81.677492 307.584 
L 81.677492 307.584 
L 79.06257 307.584 
z
" style="fill:#808080;"/>
   </g>
   <g id="patch_106">
    <path clip-path="url(#p42348a3c92)" d="M 81.677482 307.584 
L 84.292403 307.584 
L 84.292403 307.584 
L 81.677482 307.584 
z
" style="fill:#808080;"/>
   </g>
   <g id="patch_107">
    <path clip-path="url(#p42348a3c92)" d="M 84.292413 307.584 
L 86.907334 307.584 
L 86.907334 307.572733 
L 84.292413 307.572733 
z
" style="fill:#808080;"/>
   </g>
   <g id="patch_108">
    <path clip-path="url(#p42348a3c92)" d="M 86.907325 307.584 
L 89.522246 307.584 
L 89.522246 307.584 
L 86.907325 307.584 
z
" style="fill:#808080;"/>
   </g>
   <g id="patch_109">
    <path clip-path="url(#p42348a3c92)" d="M 89.522256 307.584 
L 92.137177 307.584 
L 92.137177 307.584 
L 89.522256 307.584 
z
" style="fill:#808080;"/>
   </g>
   <g id="patch_110">
    <path clip-path="url(#p42348a3c92)" d="M 92.137168 307.584 
L 94.752089 307.584 
L 94.752089 307.584 
L 92.137168 307.584 
z
" style="fill:#808080;"/>
   </g>
   <g id="patch_111">
    <path clip-path="url(#p42348a3c92)" d="M 94.752099 307.584 
L 97.36702 307.584 
L 97.36702 307.584 
L 94.752099 307.584 
z
" style="fill:#808080;"/>
   </g>
   <g id="patch_112">
    <path clip-path="url(#p42348a3c92)" d="M 97.367011 307.584 
L 99.981932 307.584 
L 99.981932 307.584 
L 97.367011 307.584 
z
" style="fill:#808080;"/>
   </g>
   <g id="patch_113">
    <path clip-path="url(#p42348a3c92)" d="M 99.981942 307.584 
L 102.596863 307.584 
L 102.596863 307.584 
L 99.981942 307.584 
z
" style="fill:#808080;"/>
   </g>
   <g id="patch_114">
    <path clip-path="url(#p42348a3c92)" d="M 102.596853 307.584 
L 105.211775 307.584 
L 105.211775 307.584 
L 102.596853 307.584 
z
" style="fill:#808080;"/>
   </g>
   <g id="patch_115">
    <path clip-path="url(#p42348a3c92)" d="M 105.211785 307.584 
L 107.826716 307.584 
L 107.826716 307.584 
L 105.211785 307.584 
z
" style="fill:#808080;"/>
   </g>
   <g id="patch_116">
    <path clip-path="url(#p42348a3c92)" d="M 107.826716 307.584 
L 110.441637 307.584 
L 110.441637 307.584 
L 107.826716 307.584 
z
" style="fill:#808080;"/>
   </g>
   <g id="patch_117">
    <path clip-path="url(#p42348a3c92)" d="M 110.441627 307.584 
L 113.056549 307.584 
L 113.056549 307.584 
L 110.441627 307.584 
z
" style="fill:#808080;"/>
   </g>
   <g id="patch_118">
    <path clip-path="url(#p42348a3c92)" d="M 113.056559 307.584 
L 115.67148 307.584 
L 115.67148 307.584 
L 113.056559 307.584 
z
" style="fill:#808080;"/>
   </g>
   <g id="patch_119">
    <path clip-path="url(#p42348a3c92)" d="M 115.67147 307.584 
L 118.286392 307.584 
L 118.286392 307.584 
L 115.67147 307.584 
z
" style="fill:#808080;"/>
   </g>
   <g id="patch_120">
    <path clip-path="url(#p42348a3c92)" d="M 118.286401 307.584 
L 120.901323 307.584 
L 120.901323 307.584 
L 118.286401 307.584 
z
" style="fill:#808080;"/>
   </g>
   <g id="patch_121">
    <path clip-path="url(#p42348a3c92)" d="M 120.901313 307.584 
L 123.516235 307.584 
L 123.516235 307.584 
L 120.901313 307.584 
z
" style="fill:#808080;"/>
   </g>
   <g id="patch_122">
    <path clip-path="url(#p42348a3c92)" d="M 123.516244 307.584 
L 126.131166 307.584 
L 126.131166 307.584 
L 123.516244 307.584 
z
" style="fill:#808080;"/>
   </g>
   <g id="patch_123">
    <path clip-path="url(#p42348a3c92)" d="M 126.131156 307.584 
L 128.746078 307.584 
L 128.746078 307.584 
L 126.131156 307.584 
z
" style="fill:#808080;"/>
   </g>
   <g id="patch_124">
    <path clip-path="url(#p42348a3c92)" d="M 128.746087 307.584 
L 131.361009 307.584 
L 131.361009 307.584 
L 128.746087 307.584 
z
" style="fill:#808080;"/>
   </g>
   <g id="patch_125">
    <path clip-path="url(#p42348a3c92)" d="M 131.360999 307.584 
L 133.97592 307.584 
L 133.97592 307.584 
L 131.360999 307.584 
z
" style="fill:#808080;"/>
   </g>
   <g id="patch_126">
    <path clip-path="url(#p42348a3c92)" d="M 133.97593 307.584 
L 136.590851 307.584 
L 136.590851 307.584 
L 133.97593 307.584 
z
" style="fill:#808080;"/>
   </g>
   <g id="patch_127">
    <path clip-path="url(#p42348a3c92)" d="M 136.590842 307.584 
L 139.205763 307.584 
L 139.205763 307.584 
L 136.590842 307.584 
z
" style="fill:#808080;"/>
   </g>
   <g id="patch_128">
    <path clip-path="url(#p42348a3c92)" d="M 139.205773 307.584 
L 141.820694 307.584 
L 141.820694 307.584 
L 139.205773 307.584 
z
" style="fill:#808080;"/>
   </g>
   <g id="patch_129">
    <path clip-path="url(#p42348a3c92)" d="M 141.820685 307.584 
L 144.435606 307.584 
L 144.435606 307.584 
L 141.820685 307.584 
z
" style="fill:#808080;"/>
   </g>
   <g id="patch_130">
    <path clip-path="url(#p42348a3c92)" d="M 144.435616 307.584 
L 147.050537 307.584 
L 147.050537 307.584 
L 144.435616 307.584 
z
" style="fill:#808080;"/>
   </g>
   <g id="patch_131">
    <path clip-path="url(#p42348a3c92)" d="M 147.050528 307.584 
L 149.665449 307.584 
L 149.665449 307.584 
L 147.050528 307.584 
z
" style="fill:#808080;"/>
   </g>
   <g id="patch_132">
    <path clip-path="url(#p42348a3c92)" d="M 149.665459 307.584 
L 152.28038 307.584 
L 152.28038 307.584 
L 149.665459 307.584 
z
" style="fill:#808080;"/>
   </g>
   <g id="patch_133">
    <path clip-path="url(#p42348a3c92)" d="M 152.28037 307.584 
L 154.895292 307.584 
L 154.895292 306.727746 
L 152.28037 306.727746 
z
" style="fill:#808080;"/>
   </g>
   <g id="patch_134">
    <path clip-path="url(#p42348a3c92)" d="M 154.895302 307.584 
L 157.510233 307.584 
L 157.510233 307.437535 
L 154.895302 307.437535 
z
" style="fill:#808080;"/>
   </g>
   <g id="patch_135">
    <path clip-path="url(#p42348a3c92)" d="M 157.510228 307.584 
L 160.125149 307.584 
L 160.125149 307.437535 
L 157.510228 307.437535 
z
" style="fill:#808080;"/>
   </g>
   <g id="patch_136">
    <path clip-path="url(#p42348a3c92)" d="M 160.125149 307.584 
L 162.740071 307.584 
L 162.740071 307.369936 
L 160.125149 307.369936 
z
" style="fill:#808080;"/>
   </g>
   <g id="patch_137">
    <path clip-path="url(#p42348a3c92)" d="M 162.740071 307.584 
L 165.354992 307.584 
L 165.354992 307.35867 
L 162.740071 307.35867 
z
" style="fill:#808080;"/>
   </g>
   <g id="patch_138">
    <path clip-path="url(#p42348a3c92)" d="M 165.354992 307.584 
L 167.969914 307.584 
L 167.969914 307.212205 
L 165.354992 307.212205 
z
" style="fill:#808080;"/>
   </g>
   <g id="patch_139">
    <path clip-path="url(#p42348a3c92)" d="M 167.969914 307.584 
L 170.584835 307.584 
L 170.584835 307.167139 
L 167.969914 307.167139 
z
" style="fill:#808080;"/>
   </g>
   <g id="patch_140">
    <path clip-path="url(#p42348a3c92)" d="M 170.584835 307.584 
L 173.199756 307.584 
L 173.199756 307.167139 
L 170.584835 307.167139 
z
" style="fill:#808080;"/>
   </g>
   <g id="patch_141">
    <path clip-path="url(#p42348a3c92)" d="M 173.199756 307.584 
L 175.814678 307.584 
L 175.814678 307.347403 
L 173.199756 307.347403 
z
" style="fill:#808080;"/>
   </g>
   <g id="patch_142">
    <path clip-path="url(#p42348a3c92)" d="M 175.814678 307.584 
L 178.429599 307.584 
L 178.429599 307.584 
L 175.814678 307.584 
z
" style="fill:#808080;"/>
   </g>
   <g id="patch_143">
    <path clip-path="url(#p42348a3c92)" d="M 178.429599 307.584 
L 181.044521 307.584 
L 181.044521 307.584 
L 178.429599 307.584 
z
" style="fill:#808080;"/>
   </g>
   <g id="patch_144">
    <path clip-path="url(#p42348a3c92)" d="M 181.044521 307.584 
L 183.659442 307.584 
L 183.659442 307.584 
L 181.044521 307.584 
z
" style="fill:#808080;"/>
   </g>
   <g id="patch_145">
    <path clip-path="url(#p42348a3c92)" d="M 183.659442 307.584 
L 186.274364 307.584 
L 186.274364 307.584 
L 183.659442 307.584 
z
" style="fill:#808080;"/>
   </g>
   <g id="patch_146">
    <path clip-path="url(#p42348a3c92)" d="M 186.274359 307.584 
L 188.88929 307.584 
L 188.88929 307.584 
L 186.274359 307.584 
z
" style="fill:#808080;"/>
   </g>
   <g id="patch_147">
    <path clip-path="url(#p42348a3c92)" d="M 188.88929 307.584 
L 191.504211 307.584 
L 191.504211 307.584 
L 188.88929 307.584 
z
" style="fill:#808080;"/>
   </g>
   <g id="patch_148">
    <path clip-path="url(#p42348a3c92)" d="M 191.504211 307.584 
L 194.119133 307.584 
L 194.119133 307.584 
L 191.504211 307.584 
z
" style="fill:#808080;"/>
   </g>
   <g id="patch_149">
    <path clip-path="url(#p42348a3c92)" d="M 194.119133 307.584 
L 196.734054 307.584 
L 196.734054 307.584 
L 194.119133 307.584 
z
" style="fill:#808080;"/>
   </g>
   <g id="patch_150">
    <path clip-path="url(#p42348a3c92)" d="M 196.734054 307.584 
L 199.348976 307.584 
L 199.348976 307.584 
L 196.734054 307.584 
z
" style="fill:#808080;"/>
   </g>
   <g id="patch_151">
    <path clip-path="url(#p42348a3c92)" d="M 199.348976 307.584 
L 201.963897 307.584 
L 201.963897 307.584 
L 199.348976 307.584 
z
" style="fill:#808080;"/>
   </g>
   <g id="patch_152">
    <path clip-path="url(#p42348a3c92)" d="M 201.963897 307.584 
L 204.578819 307.584 
L 204.578819 307.584 
L 201.963897 307.584 
z
" style="fill:#808080;"/>
   </g>
   <g id="patch_153">
    <path clip-path="url(#p42348a3c92)" d="M 204.578819 307.584 
L 207.19374 307.584 
L 207.19374 307.584 
L 204.578819 307.584 
z
" style="fill:#808080;"/>
   </g>
   <g id="patch_154">
    <path clip-path="url(#p42348a3c92)" d="M 207.19374 307.584 
L 209.808661 307.584 
L 209.808661 307.584 
L 207.19374 307.584 
z
" style="fill:#808080;"/>
   </g>
   <g id="patch_155">
    <path clip-path="url(#p42348a3c92)" d="M 209.808661 307.584 
L 212.423583 307.584 
L 212.423583 307.584 
L 209.808661 307.584 
z
" style="fill:#808080;"/>
   </g>
   <g id="patch_156">
    <path clip-path="url(#p42348a3c92)" d="M 212.423583 307.584 
L 215.038504 307.584 
L 215.038504 307.584 
L 212.423583 307.584 
z
" style="fill:#808080;"/>
   </g>
   <g id="patch_157">
    <path clip-path="url(#p42348a3c92)" d="M 215.038507 307.584 
L 217.653428 307.584 
L 217.653428 307.584 
L 215.038507 307.584 
z
" style="fill:#808080;"/>
   </g>
   <g id="patch_158">
    <path clip-path="url(#p42348a3c92)" d="M 217.653428 307.584 
L 220.26835 307.584 
L 220.26835 307.584 
L 217.653428 307.584 
z
" style="fill:#808080;"/>
   </g>
   <g id="patch_159">
    <path clip-path="url(#p42348a3c92)" d="M 220.26835 307.584 
L 222.883271 307.584 
L 222.883271 307.584 
L 220.26835 307.584 
z
" style="fill:#808080;"/>
   </g>
   <g id="patch_160">
    <path clip-path="url(#p42348a3c92)" d="M 222.883271 307.584 
L 225.498192 307.584 
L 225.498192 307.584 
L 222.883271 307.584 
z
" style="fill:#808080;"/>
   </g>
   <g id="patch_161">
    <path clip-path="url(#p42348a3c92)" d="M 225.498194 307.584 
L 228.113115 307.584 
L 228.113115 307.584 
L 225.498194 307.584 
z
" style="fill:#808080;"/>
   </g>
   <g id="patch_162">
    <path clip-path="url(#p42348a3c92)" d="M 228.113115 307.584 
L 230.728037 307.584 
L 230.728037 307.584 
L 228.113115 307.584 
z
" style="fill:#808080;"/>
   </g>
   <g id="patch_163">
    <path clip-path="url(#p42348a3c92)" d="M 230.728037 307.584 
L 233.342958 307.584 
L 233.342958 307.584 
L 230.728037 307.584 
z
" style="fill:#808080;"/>
   </g>
   <g id="patch_164">
    <path clip-path="url(#p42348a3c92)" d="M 233.342959 307.584 
L 235.95788 307.584 
L 235.95788 54.144 
L 233.342959 54.144 
z
" style="fill:#808080;"/>
   </g>
   <g id="patch_165">
    <path clip-path="url(#p42348a3c92)" d="M 235.957881 307.584 
L 238.572802 307.584 
L 238.572802 235.162914 
L 235.957881 235.162914 
z
" style="fill:#808080;"/>
   </g>
   <g id="patch_166">
    <path clip-path="url(#p42348a3c92)" d="M 238.572802 307.584 
L 241.187724 307.584 
L 241.187724 247.781399 
L 238.572802 247.781399 
z
" style="fill:#808080;"/>
   </g>
   <g id="patch_167">
    <path clip-path="url(#p42348a3c92)" d="M 241.187724 307.584 
L 243.802646 307.584 
L 243.802646 269.660949 
L 241.187724 269.660949 
z
" style="fill:#808080;"/>
   </g>
   <g id="patch_168">
    <path clip-path="url(#p42348a3c92)" d="M 243.802646 307.584 
L 246.417568 307.584 
L 246.417568 292.453086 
L 243.802646 292.453086 
z
" style="fill:#808080;"/>
   </g>
   <g id="patch_169">
    <path clip-path="url(#p42348a3c92)" d="M 246.417568 307.584 
L 249.032489 307.584 
L 249.032489 295.742905 
L 246.417568 295.742905 
z
" style="fill:#808080;"/>
   </g>
   <g id="patch_170">
    <path clip-path="url(#p42348a3c92)" d="M 249.03249 307.584 
L 251.647412 307.584 
L 251.647412 297.365281 
L 249.03249 297.365281 
z
" style="fill:#808080;"/>
   </g>
   <g id="patch_171">
    <path clip-path="url(#p42348a3c92)" d="M 251.647412 307.584 
L 254.262333 307.584 
L 254.262333 297.939873 
L 251.647412 297.939873 
z
" style="fill:#808080;"/>
   </g>
   <g id="patch_172">
    <path clip-path="url(#p42348a3c92)" d="M 254.262333 307.584 
L 256.877255 307.584 
L 256.877255 302.638005 
L 254.262333 302.638005 
z
" style="fill:#808080;"/>
   </g>
   <g id="patch_173">
    <path clip-path="url(#p42348a3c92)" d="M 256.877255 307.584 
L 259.492176 307.584 
L 259.492176 307.584 
L 256.877255 307.584 
z
" style="fill:#808080;"/>
   </g>
   <g id="patch_174">
    <path clip-path="url(#p42348a3c92)" d="M 259.492178 307.584 
L 262.1071 307.584 
L 262.1071 307.584 
L 259.492178 307.584 
z
" style="fill:#808080;"/>
   </g>
   <g id="patch_175">
    <path clip-path="url(#p42348a3c92)" d="M 262.1071 307.584 
L 264.722021 307.584 
L 264.722021 307.584 
L 262.1071 307.584 
z
" style="fill:#808080;"/>
   </g>
   <g id="patch_176">
    <path clip-path="url(#p42348a3c92)" d="M 264.722021 307.584 
L 267.336943 307.584 
L 267.336943 307.584 
L 264.722021 307.584 
z
" style="fill:#808080;"/>
   </g>
   <g id="patch_177">
    <path clip-path="url(#p42348a3c92)" d="M 267.336943 307.584 
L 269.951864 307.584 
L 269.951864 307.584 
L 267.336943 307.584 
z
" style="fill:#808080;"/>
   </g>
   <g id="patch_178">
    <path clip-path="url(#p42348a3c92)" d="M 269.951864 307.584 
L 272.566786 307.584 
L 272.566786 307.584 
L 269.951864 307.584 
z
" style="fill:#808080;"/>
   </g>
   <g id="patch_179">
    <path clip-path="url(#p42348a3c92)" d="M 272.566786 307.584 
L 275.181707 307.584 
L 275.181707 307.584 
L 272.566786 307.584 
z
" style="fill:#808080;"/>
   </g>
   <g id="patch_180">
    <path clip-path="url(#p42348a3c92)" d="M 275.181707 307.584 
L 277.796628 307.584 
L 277.796628 307.584 
L 275.181707 307.584 
z
" style="fill:#808080;"/>
   </g>
   <g id="patch_181">
    <path clip-path="url(#p42348a3c92)" d="M 277.796628 307.584 
L 280.41155 307.584 
L 280.41155 307.584 
L 277.796628 307.584 
z
" style="fill:#808080;"/>
   </g>
   <g id="patch_182">
    <path clip-path="url(#p42348a3c92)" d="M 280.41155 307.584 
L 283.026471 307.584 
L 283.026471 307.584 
L 280.41155 307.584 
z
" style="fill:#808080;"/>
   </g>
   <g id="patch_183">
    <path clip-path="url(#p42348a3c92)" d="M 283.026471 307.584 
L 285.641393 307.584 
L 285.641393 307.584 
L 283.026471 307.584 
z
" style="fill:#808080;"/>
   </g>
   <g id="patch_184">
    <path clip-path="url(#p42348a3c92)" d="M 285.641393 307.584 
L 288.256324 307.584 
L 288.256324 307.584 
L 285.641393 307.584 
z
" style="fill:#808080;"/>
   </g>
   <g id="patch_185">
    <path clip-path="url(#p42348a3c92)" d="M 288.256319 307.584 
L 290.871241 307.584 
L 290.871241 307.584 
L 288.256319 307.584 
z
" style="fill:#808080;"/>
   </g>
   <g id="patch_186">
    <path clip-path="url(#p42348a3c92)" d="M 290.871241 307.584 
L 293.486162 307.584 
L 293.486162 307.584 
L 290.871241 307.584 
z
" style="fill:#808080;"/>
   </g>
   <g id="patch_187">
    <path clip-path="url(#p42348a3c92)" d="M 293.486162 307.584 
L 296.101083 307.584 
L 296.101083 307.584 
L 293.486162 307.584 
z
" style="fill:#808080;"/>
   </g>
   <g id="patch_188">
    <path clip-path="url(#p42348a3c92)" d="M 296.101083 307.584 
L 298.716005 307.584 
L 298.716005 307.584 
L 296.101083 307.584 
z
" style="fill:#808080;"/>
   </g>
   <g id="patch_189">
    <path clip-path="url(#p42348a3c92)" d="M 298.716005 307.584 
L 301.330926 307.584 
L 301.330926 307.584 
L 298.716005 307.584 
z
" style="fill:#808080;"/>
   </g>
   <g id="patch_190">
    <path clip-path="url(#p42348a3c92)" d="M 301.330926 307.584 
L 303.945848 307.584 
L 303.945848 307.584 
L 301.330926 307.584 
z
" style="fill:#808080;"/>
   </g>
   <g id="patch_191">
    <path clip-path="url(#p42348a3c92)" d="M 303.945848 307.584 
L 306.560769 307.584 
L 306.560769 307.584 
L 303.945848 307.584 
z
" style="fill:#808080;"/>
   </g>
   <g id="patch_192">
    <path clip-path="url(#p42348a3c92)" d="M 306.560769 307.584 
L 309.175691 307.584 
L 309.175691 307.584 
L 306.560769 307.584 
z
" style="fill:#808080;"/>
   </g>
   <g id="patch_193">
    <path clip-path="url(#p42348a3c92)" d="M 309.175691 307.584 
L 311.790612 307.584 
L 311.790612 307.584 
L 309.175691 307.584 
z
" style="fill:#808080;"/>
   </g>
   <g id="patch_194">
    <path clip-path="url(#p42348a3c92)" d="M 311.790612 307.584 
L 314.405533 307.584 
L 314.405533 307.584 
L 311.790612 307.584 
z
" style="fill:#808080;"/>
   </g>
   <g id="patch_195">
    <path clip-path="url(#p42348a3c92)" d="M 314.405533 307.584 
L 317.020455 307.584 
L 317.020455 245.325301 
L 314.405533 245.325301 
z
" style="fill:#808080;"/>
   </g>
   <g id="patch_196">
    <path clip-path="url(#p42348a3c92)" d="M 317.02045 307.584 
L 319.635381 307.584 
L 319.635381 307.5502 
L 317.02045 307.5502 
z
" style="fill:#808080;"/>
   </g>
   <g id="patch_197">
    <path clip-path="url(#p42348a3c92)" d="M 319.635381 307.584 
L 322.250303 307.584 
L 322.250303 307.561467 
L 319.635381 307.561467 
z
" style="fill:#808080;"/>
   </g>
   <g id="patch_198">
    <path clip-path="url(#p42348a3c92)" d="M 322.250293 307.584 
L 324.865214 307.584 
L 324.865214 307.572733 
L 322.250293 307.572733 
z
" style="fill:#808080;"/>
   </g>
   <g id="patch_199">
    <path clip-path="url(#p42348a3c92)" d="M 324.865224 307.584 
L 327.480145 307.584 
L 327.480145 307.561467 
L 324.865224 307.561467 
z
" style="fill:#808080;"/>
   </g>
   <g id="patch_200">
    <path clip-path="url(#p42348a3c92)" d="M 327.480136 307.584 
L 330.095057 307.584 
L 330.095057 307.584 
L 327.480136 307.584 
z
" style="fill:#808080;"/>
   </g>
   <g id="patch_201">
    <path clip-path="url(#p42348a3c92)" d="M 330.095067 307.584 
L 332.709988 307.584 
L 332.709988 307.584 
L 330.095067 307.584 
z
" style="fill:#808080;"/>
   </g>
   <g id="patch_202">
    <path clip-path="url(#p42348a3c92)" d="M 332.709979 307.584 
L 335.3249 307.584 
L 335.3249 307.572733 
L 332.709979 307.572733 
z
" style="fill:#808080;"/>
   </g>
   <g id="matplotlib.axis_1">
    <g id="xtick_1">
     <g id="line2d_1">
      <defs>
       <path d="M 0 0 
L 0 3.5 
" id="md9447895e7" style="stroke:#000000;stroke-width:0.8;"/>
      </defs>
      <g>
       <use style="stroke:#000000;stroke-width:0.8;" x="111.730145" xlink:href="#md9447895e7" y="307.584"/>
      </g>
     </g>
     <g id="text_1">
      <!-- −100 -->
      <defs>
       <path d="M 10.59375 35.5 
L 73.1875 35.5 
L 73.1875 27.203125 
L 10.59375 27.203125 
z
" id="DejaVuSans-8722"/>
       <path d="M 12.40625 8.296875 
L 28.515625 8.296875 
L 28.515625 63.921875 
L 10.984375 60.40625 
L 10.984375 69.390625 
L 28.421875 72.90625 
L 38.28125 72.90625 
L 38.28125 8.296875 
L 54.390625 8.296875 
L 54.390625 0 
L 12.40625 0 
z
" id="DejaVuSans-49"/>
       <path d="M 31.78125 66.40625 
Q 24.171875 66.40625 20.328125 58.90625 
Q 16.5 51.421875 16.5 36.375 
Q 16.5 21.390625 20.328125 13.890625 
Q 24.171875 6.390625 31.78125 6.390625 
Q 39.453125 6.390625 43.28125 13.890625 
Q 47.125 21.390625 47.125 36.375 
Q 47.125 51.421875 43.28125 58.90625 
Q 39.453125 66.40625 31.78125 66.40625 
z
M 31.78125 74.21875 
Q 44.046875 74.21875 50.515625 64.515625 
Q 56.984375 54.828125 56.984375 36.375 
Q 56.984375 17.96875 50.515625 8.265625 
Q 44.046875 -1.421875 31.78125 -1.421875 
Q 19.53125 -1.421875 13.0625 8.265625 
Q 6.59375 17.96875 6.59375 36.375 
Q 6.59375 54.828125 13.0625 64.515625 
Q 19.53125 74.21875 31.78125 74.21875 
z
" id="DejaVuSans-48"/>
      </defs>
      <g transform="translate(97.996551 322.182437)scale(0.1 -0.1)">
       <use xlink:href="#DejaVuSans-8722"/>
       <use x="83.789062" xlink:href="#DejaVuSans-49"/>
       <use x="147.412109" xlink:href="#DejaVuSans-48"/>
       <use x="211.035156" xlink:href="#DejaVuSans-48"/>
      </g>
     </g>
    </g>
    <g id="xtick_2">
     <g id="line2d_2">
      <g>
       <use style="stroke:#000000;stroke-width:0.8;" x="174.892508" xlink:href="#md9447895e7" y="307.584"/>
      </g>
     </g>
     <g id="text_2">
      <!-- −50 -->
      <defs>
       <path d="M 10.796875 72.90625 
L 49.515625 72.90625 
L 49.515625 64.59375 
L 19.828125 64.59375 
L 19.828125 46.734375 
Q 21.96875 47.46875 24.109375 47.828125 
Q 26.265625 48.1875 28.421875 48.1875 
Q 40.625 48.1875 47.75 41.5 
Q 54.890625 34.8125 54.890625 23.390625 
Q 54.890625 11.625 47.5625 5.09375 
Q 40.234375 -1.421875 26.90625 -1.421875 
Q 22.3125 -1.421875 17.546875 -0.640625 
Q 12.796875 0.140625 7.71875 1.703125 
L 7.71875 11.625 
Q 12.109375 9.234375 16.796875 8.0625 
Q 21.484375 6.890625 26.703125 6.890625 
Q 35.15625 6.890625 40.078125 11.328125 
Q 45.015625 15.765625 45.015625 23.390625 
Q 45.015625 31 40.078125 35.4375 
Q 35.15625 39.890625 26.703125 39.890625 
Q 22.75 39.890625 18.8125 39.015625 
Q 14.890625 38.140625 10.796875 36.28125 
z
" id="DejaVuSans-53"/>
      </defs>
      <g transform="translate(164.340164 322.182437)scale(0.1 -0.1)">
       <use xlink:href="#DejaVuSans-8722"/>
       <use x="83.789062" xlink:href="#DejaVuSans-53"/>
       <use x="147.412109" xlink:href="#DejaVuSans-48"/>
      </g>
     </g>
    </g>
    <g id="xtick_3">
     <g id="line2d_3">
      <g>
       <use style="stroke:#000000;stroke-width:0.8;" x="238.054871" xlink:href="#md9447895e7" y="307.584"/>
      </g>
     </g>
     <g id="text_3">
      <!-- 0 -->
      <g transform="translate(234.873621 322.182437)scale(0.1 -0.1)">
       <use xlink:href="#DejaVuSans-48"/>
      </g>
     </g>
    </g>
    <g id="xtick_4">
     <g id="line2d_4">
      <g>
       <use style="stroke:#000000;stroke-width:0.8;" x="301.217234" xlink:href="#md9447895e7" y="307.584"/>
      </g>
     </g>
     <g id="text_4">
      <!-- 50 -->
      <g transform="translate(294.854734 322.182437)scale(0.1 -0.1)">
       <use xlink:href="#DejaVuSans-53"/>
       <use x="63.623047" xlink:href="#DejaVuSans-48"/>
      </g>
     </g>
    </g>
    <g id="xtick_5">
     <g id="line2d_5">
      <g>
       <use style="stroke:#000000;stroke-width:0.8;" x="364.379597" xlink:href="#md9447895e7" y="307.584"/>
      </g>
     </g>
     <g id="text_5">
      <!-- 100 -->
      <g transform="translate(354.835847 322.182437)scale(0.1 -0.1)">
       <use xlink:href="#DejaVuSans-49"/>
       <use x="63.623047" xlink:href="#DejaVuSans-48"/>
       <use x="127.246094" xlink:href="#DejaVuSans-48"/>
      </g>
     </g>
    </g>
    <g id="text_6">
     <!-- Weight -->
     <defs>
      <path d="M 3.328125 72.90625 
L 13.28125 72.90625 
L 28.609375 11.28125 
L 43.890625 72.90625 
L 54.984375 72.90625 
L 70.3125 11.28125 
L 85.59375 72.90625 
L 95.609375 72.90625 
L 77.296875 0 
L 64.890625 0 
L 49.515625 63.28125 
L 33.984375 0 
L 21.578125 0 
z
" id="DejaVuSans-87"/>
      <path d="M 56.203125 29.59375 
L 56.203125 25.203125 
L 14.890625 25.203125 
Q 15.484375 15.921875 20.484375 11.0625 
Q 25.484375 6.203125 34.421875 6.203125 
Q 39.59375 6.203125 44.453125 7.46875 
Q 49.3125 8.734375 54.109375 11.28125 
L 54.109375 2.78125 
Q 49.265625 0.734375 44.1875 -0.34375 
Q 39.109375 -1.421875 33.890625 -1.421875 
Q 20.796875 -1.421875 13.15625 6.1875 
Q 5.515625 13.8125 5.515625 26.8125 
Q 5.515625 40.234375 12.765625 48.109375 
Q 20.015625 56 32.328125 56 
Q 43.359375 56 49.78125 48.890625 
Q 56.203125 41.796875 56.203125 29.59375 
z
M 47.21875 32.234375 
Q 47.125 39.59375 43.09375 43.984375 
Q 39.0625 48.390625 32.421875 48.390625 
Q 24.90625 48.390625 20.390625 44.140625 
Q 15.875 39.890625 15.1875 32.171875 
z
" id="DejaVuSans-101"/>
      <path d="M 9.421875 54.6875 
L 18.40625 54.6875 
L 18.40625 0 
L 9.421875 0 
z
M 9.421875 75.984375 
L 18.40625 75.984375 
L 18.40625 64.59375 
L 9.421875 64.59375 
z
" id="DejaVuSans-105"/>
      <path d="M 45.40625 27.984375 
Q 45.40625 37.75 41.375 43.109375 
Q 37.359375 48.484375 30.078125 48.484375 
Q 22.859375 48.484375 18.828125 43.109375 
Q 14.796875 37.75 14.796875 27.984375 
Q 14.796875 18.265625 18.828125 12.890625 
Q 22.859375 7.515625 30.078125 7.515625 
Q 37.359375 7.515625 41.375 12.890625 
Q 45.40625 18.265625 45.40625 27.984375 
z
M 54.390625 6.78125 
Q 54.390625 -7.171875 48.1875 -13.984375 
Q 42 -20.796875 29.203125 -20.796875 
Q 24.46875 -20.796875 20.265625 -20.09375 
Q 16.0625 -19.390625 12.109375 -17.921875 
L 12.109375 -9.1875 
Q 16.0625 -11.328125 19.921875 -12.34375 
Q 23.78125 -13.375 27.78125 -13.375 
Q 36.625 -13.375 41.015625 -8.765625 
Q 45.40625 -4.15625 45.40625 5.171875 
L 45.40625 9.625 
Q 42.625 4.78125 38.28125 2.390625 
Q 33.9375 0 27.875 0 
Q 17.828125 0 11.671875 7.65625 
Q 5.515625 15.328125 5.515625 27.984375 
Q 5.515625 40.671875 11.671875 48.328125 
Q 17.828125 56 27.875 56 
Q 33.9375 56 38.28125 53.609375 
Q 42.625 51.21875 45.40625 46.390625 
L 45.40625 54.6875 
L 54.390625 54.6875 
z
" id="DejaVuSans-103"/>
      <path d="M 54.890625 33.015625 
L 54.890625 0 
L 45.90625 0 
L 45.90625 32.71875 
Q 45.90625 40.484375 42.875 44.328125 
Q 39.84375 48.1875 33.796875 48.1875 
Q 26.515625 48.1875 22.3125 43.546875 
Q 18.109375 38.921875 18.109375 30.90625 
L 18.109375 0 
L 9.078125 0 
L 9.078125 75.984375 
L 18.109375 75.984375 
L 18.109375 46.1875 
Q 21.34375 51.125 25.703125 53.5625 
Q 30.078125 56 35.796875 56 
Q 45.21875 56 50.046875 50.171875 
Q 54.890625 44.34375 54.890625 33.015625 
z
" id="DejaVuSans-104"/>
      <path d="M 18.3125 70.21875 
L 18.3125 54.6875 
L 36.8125 54.6875 
L 36.8125 47.703125 
L 18.3125 47.703125 
L 18.3125 18.015625 
Q 18.3125 11.328125 20.140625 9.421875 
Q 21.96875 7.515625 27.59375 7.515625 
L 36.8125 7.515625 
L 36.8125 0 
L 27.59375 0 
Q 17.1875 0 13.234375 3.875 
Q 9.28125 7.765625 9.28125 18.015625 
L 9.28125 47.703125 
L 2.6875 47.703125 
L 2.6875 54.6875 
L 9.28125 54.6875 
L 9.28125 70.21875 
z
" id="DejaVuSans-116"/>
     </defs>
     <g transform="translate(218.451406 335.860562)scale(0.1 -0.1)">
      <use xlink:href="#DejaVuSans-87"/>
      <use x="98.798828" xlink:href="#DejaVuSans-101"/>
      <use x="160.322266" xlink:href="#DejaVuSans-105"/>
      <use x="188.105469" xlink:href="#DejaVuSans-103"/>
      <use x="251.582031" xlink:href="#DejaVuSans-104"/>
      <use x="314.960938" xlink:href="#DejaVuSans-116"/>
     </g>
    </g>
   </g>
   <g id="matplotlib.axis_2">
    <g id="ytick_1">
     <g id="line2d_6">
      <defs>
       <path d="M 0 0 
L -3.5 0 
" id="mdd30756d8b" style="stroke:#000000;stroke-width:0.8;"/>
      </defs>
      <g>
       <use style="stroke:#000000;stroke-width:0.8;" x="57.6" xlink:href="#mdd30756d8b" y="307.584"/>
      </g>
     </g>
     <g id="text_7">
      <!-- 0 -->
      <g transform="translate(44.2375 311.383219)scale(0.1 -0.1)">
       <use xlink:href="#DejaVuSans-48"/>
      </g>
     </g>
    </g>
    <g id="ytick_2">
     <g id="line2d_7">
      <g>
       <use style="stroke:#000000;stroke-width:0.8;" x="57.6" xlink:href="#mdd30756d8b" y="251.251482"/>
      </g>
     </g>
     <g id="text_8">
      <!-- 5000 -->
      <g transform="translate(25.15 255.0507)scale(0.1 -0.1)">
       <use xlink:href="#DejaVuSans-53"/>
       <use x="63.623047" xlink:href="#DejaVuSans-48"/>
       <use x="127.246094" xlink:href="#DejaVuSans-48"/>
       <use x="190.869141" xlink:href="#DejaVuSans-48"/>
      </g>
     </g>
    </g>
    <g id="ytick_3">
     <g id="line2d_8">
      <g>
       <use style="stroke:#000000;stroke-width:0.8;" x="57.6" xlink:href="#mdd30756d8b" y="194.918963"/>
      </g>
     </g>
     <g id="text_9">
      <!-- 10000 -->
      <g transform="translate(18.7875 198.718182)scale(0.1 -0.1)">
       <use xlink:href="#DejaVuSans-49"/>
       <use x="63.623047" xlink:href="#DejaVuSans-48"/>
       <use x="127.246094" xlink:href="#DejaVuSans-48"/>
       <use x="190.869141" xlink:href="#DejaVuSans-48"/>
       <use x="254.492188" xlink:href="#DejaVuSans-48"/>
      </g>
     </g>
    </g>
    <g id="ytick_4">
     <g id="line2d_9">
      <g>
       <use style="stroke:#000000;stroke-width:0.8;" x="57.6" xlink:href="#mdd30756d8b" y="138.586445"/>
      </g>
     </g>
     <g id="text_10">
      <!-- 15000 -->
      <g transform="translate(18.7875 142.385664)scale(0.1 -0.1)">
       <use xlink:href="#DejaVuSans-49"/>
       <use x="63.623047" xlink:href="#DejaVuSans-53"/>
       <use x="127.246094" xlink:href="#DejaVuSans-48"/>
       <use x="190.869141" xlink:href="#DejaVuSans-48"/>
       <use x="254.492188" xlink:href="#DejaVuSans-48"/>
      </g>
     </g>
    </g>
    <g id="ytick_5">
     <g id="line2d_10">
      <g>
       <use style="stroke:#000000;stroke-width:0.8;" x="57.6" xlink:href="#mdd30756d8b" y="82.253927"/>
      </g>
     </g>
     <g id="text_11">
      <!-- 20000 -->
      <defs>
       <path d="M 19.1875 8.296875 
L 53.609375 8.296875 
L 53.609375 0 
L 7.328125 0 
L 7.328125 8.296875 
Q 12.9375 14.109375 22.625 23.890625 
Q 32.328125 33.6875 34.8125 36.53125 
Q 39.546875 41.84375 41.421875 45.53125 
Q 43.3125 49.21875 43.3125 52.78125 
Q 43.3125 58.59375 39.234375 62.25 
Q 35.15625 65.921875 28.609375 65.921875 
Q 23.96875 65.921875 18.8125 64.3125 
Q 13.671875 62.703125 7.8125 59.421875 
L 7.8125 69.390625 
Q 13.765625 71.78125 18.9375 73 
Q 24.125 74.21875 28.421875 74.21875 
Q 39.75 74.21875 46.484375 68.546875 
Q 53.21875 62.890625 53.21875 53.421875 
Q 53.21875 48.921875 51.53125 44.890625 
Q 49.859375 40.875 45.40625 35.40625 
Q 44.1875 33.984375 37.640625 27.21875 
Q 31.109375 20.453125 19.1875 8.296875 
z
" id="DejaVuSans-50"/>
      </defs>
      <g transform="translate(18.7875 86.053145)scale(0.1 -0.1)">
       <use xlink:href="#DejaVuSans-50"/>
       <use x="63.623047" xlink:href="#DejaVuSans-48"/>
       <use x="127.246094" xlink:href="#DejaVuSans-48"/>
       <use x="190.869141" xlink:href="#DejaVuSans-48"/>
       <use x="254.492188" xlink:href="#DejaVuSans-48"/>
      </g>
     </g>
    </g>
    <g id="text_12">
     <!-- Occurrencies -->
     <defs>
      <path d="M 39.40625 66.21875 
Q 28.65625 66.21875 22.328125 58.203125 
Q 16.015625 50.203125 16.015625 36.375 
Q 16.015625 22.609375 22.328125 14.59375 
Q 28.65625 6.59375 39.40625 6.59375 
Q 50.140625 6.59375 56.421875 14.59375 
Q 62.703125 22.609375 62.703125 36.375 
Q 62.703125 50.203125 56.421875 58.203125 
Q 50.140625 66.21875 39.40625 66.21875 
z
M 39.40625 74.21875 
Q 54.734375 74.21875 63.90625 63.9375 
Q 73.09375 53.65625 73.09375 36.375 
Q 73.09375 19.140625 63.90625 8.859375 
Q 54.734375 -1.421875 39.40625 -1.421875 
Q 24.03125 -1.421875 14.8125 8.828125 
Q 5.609375 19.09375 5.609375 36.375 
Q 5.609375 53.65625 14.8125 63.9375 
Q 24.03125 74.21875 39.40625 74.21875 
z
" id="DejaVuSans-79"/>
      <path d="M 48.78125 52.59375 
L 48.78125 44.1875 
Q 44.96875 46.296875 41.140625 47.34375 
Q 37.3125 48.390625 33.40625 48.390625 
Q 24.65625 48.390625 19.8125 42.84375 
Q 14.984375 37.3125 14.984375 27.296875 
Q 14.984375 17.28125 19.8125 11.734375 
Q 24.65625 6.203125 33.40625 6.203125 
Q 37.3125 6.203125 41.140625 7.25 
Q 44.96875 8.296875 48.78125 10.40625 
L 48.78125 2.09375 
Q 45.015625 0.34375 40.984375 -0.53125 
Q 36.96875 -1.421875 32.421875 -1.421875 
Q 20.0625 -1.421875 12.78125 6.34375 
Q 5.515625 14.109375 5.515625 27.296875 
Q 5.515625 40.671875 12.859375 48.328125 
Q 20.21875 56 33.015625 56 
Q 37.15625 56 41.109375 55.140625 
Q 45.0625 54.296875 48.78125 52.59375 
z
" id="DejaVuSans-99"/>
      <path d="M 8.5 21.578125 
L 8.5 54.6875 
L 17.484375 54.6875 
L 17.484375 21.921875 
Q 17.484375 14.15625 20.5 10.265625 
Q 23.53125 6.390625 29.59375 6.390625 
Q 36.859375 6.390625 41.078125 11.03125 
Q 45.3125 15.671875 45.3125 23.6875 
L 45.3125 54.6875 
L 54.296875 54.6875 
L 54.296875 0 
L 45.3125 0 
L 45.3125 8.40625 
Q 42.046875 3.421875 37.71875 1 
Q 33.40625 -1.421875 27.6875 -1.421875 
Q 18.265625 -1.421875 13.375 4.4375 
Q 8.5 10.296875 8.5 21.578125 
z
M 31.109375 56 
z
" id="DejaVuSans-117"/>
      <path d="M 41.109375 46.296875 
Q 39.59375 47.171875 37.8125 47.578125 
Q 36.03125 48 33.890625 48 
Q 26.265625 48 22.1875 43.046875 
Q 18.109375 38.09375 18.109375 28.8125 
L 18.109375 0 
L 9.078125 0 
L 9.078125 54.6875 
L 18.109375 54.6875 
L 18.109375 46.1875 
Q 20.953125 51.171875 25.484375 53.578125 
Q 30.03125 56 36.53125 56 
Q 37.453125 56 38.578125 55.875 
Q 39.703125 55.765625 41.0625 55.515625 
z
" id="DejaVuSans-114"/>
      <path d="M 54.890625 33.015625 
L 54.890625 0 
L 45.90625 0 
L 45.90625 32.71875 
Q 45.90625 40.484375 42.875 44.328125 
Q 39.84375 48.1875 33.796875 48.1875 
Q 26.515625 48.1875 22.3125 43.546875 
Q 18.109375 38.921875 18.109375 30.90625 
L 18.109375 0 
L 9.078125 0 
L 9.078125 54.6875 
L 18.109375 54.6875 
L 18.109375 46.1875 
Q 21.34375 51.125 25.703125 53.5625 
Q 30.078125 56 35.796875 56 
Q 45.21875 56 50.046875 50.171875 
Q 54.890625 44.34375 54.890625 33.015625 
z
" id="DejaVuSans-110"/>
      <path d="M 44.28125 53.078125 
L 44.28125 44.578125 
Q 40.484375 46.53125 36.375 47.5 
Q 32.28125 48.484375 27.875 48.484375 
Q 21.1875 48.484375 17.84375 46.4375 
Q 14.5 44.390625 14.5 40.28125 
Q 14.5 37.15625 16.890625 35.375 
Q 19.28125 33.59375 26.515625 31.984375 
L 29.59375 31.296875 
Q 39.15625 29.25 43.1875 25.515625 
Q 47.21875 21.78125 47.21875 15.09375 
Q 47.21875 7.46875 41.1875 3.015625 
Q 35.15625 -1.421875 24.609375 -1.421875 
Q 20.21875 -1.421875 15.453125 -0.5625 
Q 10.6875 0.296875 5.421875 2 
L 5.421875 11.28125 
Q 10.40625 8.6875 15.234375 7.390625 
Q 20.0625 6.109375 24.8125 6.109375 
Q 31.15625 6.109375 34.5625 8.28125 
Q 37.984375 10.453125 37.984375 14.40625 
Q 37.984375 18.0625 35.515625 20.015625 
Q 33.0625 21.96875 24.703125 23.78125 
L 21.578125 24.515625 
Q 13.234375 26.265625 9.515625 29.90625 
Q 5.8125 33.546875 5.8125 39.890625 
Q 5.8125 47.609375 11.28125 51.796875 
Q 16.75 56 26.8125 56 
Q 31.78125 56 36.171875 55.265625 
Q 40.578125 54.546875 44.28125 53.078125 
z
" id="DejaVuSans-115"/>
     </defs>
     <g transform="translate(12.707812 207.304563)rotate(-90)scale(0.1 -0.1)">
      <use xlink:href="#DejaVuSans-79"/>
      <use x="78.710938" xlink:href="#DejaVuSans-99"/>
      <use x="133.691406" xlink:href="#DejaVuSans-99"/>
      <use x="188.671875" xlink:href="#DejaVuSans-117"/>
      <use x="252.050781" xlink:href="#DejaVuSans-114"/>
      <use x="293.148438" xlink:href="#DejaVuSans-114"/>
      <use x="334.230469" xlink:href="#DejaVuSans-101"/>
      <use x="395.753906" xlink:href="#DejaVuSans-110"/>
      <use x="459.132812" xlink:href="#DejaVuSans-99"/>
      <use x="514.113281" xlink:href="#DejaVuSans-105"/>
      <use x="541.896484" xlink:href="#DejaVuSans-101"/>
      <use x="603.419922" xlink:href="#DejaVuSans-115"/>
     </g>
    </g>
   </g>
   <g id="patch_203">
    <path d="M 57.6 307.584 
L 57.6 41.472 
" style="fill:none;stroke:#000000;stroke-linecap:square;stroke-linejoin:miter;stroke-width:0.8;"/>
   </g>
   <g id="patch_204">
    <path d="M 414.72 307.584 
L 414.72 41.472 
" style="fill:none;stroke:#000000;stroke-linecap:square;stroke-linejoin:miter;stroke-width:0.8;"/>
   </g>
   <g id="patch_205">
    <path d="M 57.6 307.584 
L 414.72 307.584 
" style="fill:none;stroke:#000000;stroke-linecap:square;stroke-linejoin:miter;stroke-width:0.8;"/>
   </g>
   <g id="patch_206">
    <path d="M 57.6 41.472 
L 414.72 41.472 
" style="fill:none;stroke:#000000;stroke-linecap:square;stroke-linejoin:miter;stroke-width:0.8;"/>
   </g>
   <g id="text_13">
    <!-- Histogram of fc1 -->
    <defs>
     <path d="M 9.8125 72.90625 
L 19.671875 72.90625 
L 19.671875 43.015625 
L 55.515625 43.015625 
L 55.515625 72.90625 
L 65.375 72.90625 
L 65.375 0 
L 55.515625 0 
L 55.515625 34.71875 
L 19.671875 34.71875 
L 19.671875 0 
L 9.8125 0 
z
" id="DejaVuSans-72"/>
     <path d="M 30.609375 48.390625 
Q 23.390625 48.390625 19.1875 42.75 
Q 14.984375 37.109375 14.984375 27.296875 
Q 14.984375 17.484375 19.15625 11.84375 
Q 23.34375 6.203125 30.609375 6.203125 
Q 37.796875 6.203125 41.984375 11.859375 
Q 46.1875 17.53125 46.1875 27.296875 
Q 46.1875 37.015625 41.984375 42.703125 
Q 37.796875 48.390625 30.609375 48.390625 
z
M 30.609375 56 
Q 42.328125 56 49.015625 48.375 
Q 55.71875 40.765625 55.71875 27.296875 
Q 55.71875 13.875 49.015625 6.21875 
Q 42.328125 -1.421875 30.609375 -1.421875 
Q 18.84375 -1.421875 12.171875 6.21875 
Q 5.515625 13.875 5.515625 27.296875 
Q 5.515625 40.765625 12.171875 48.375 
Q 18.84375 56 30.609375 56 
z
" id="DejaVuSans-111"/>
     <path d="M 34.28125 27.484375 
Q 23.390625 27.484375 19.1875 25 
Q 14.984375 22.515625 14.984375 16.5 
Q 14.984375 11.71875 18.140625 8.90625 
Q 21.296875 6.109375 26.703125 6.109375 
Q 34.1875 6.109375 38.703125 11.40625 
Q 43.21875 16.703125 43.21875 25.484375 
L 43.21875 27.484375 
z
M 52.203125 31.203125 
L 52.203125 0 
L 43.21875 0 
L 43.21875 8.296875 
Q 40.140625 3.328125 35.546875 0.953125 
Q 30.953125 -1.421875 24.3125 -1.421875 
Q 15.921875 -1.421875 10.953125 3.296875 
Q 6 8.015625 6 15.921875 
Q 6 25.140625 12.171875 29.828125 
Q 18.359375 34.515625 30.609375 34.515625 
L 43.21875 34.515625 
L 43.21875 35.40625 
Q 43.21875 41.609375 39.140625 45 
Q 35.0625 48.390625 27.6875 48.390625 
Q 23 48.390625 18.546875 47.265625 
Q 14.109375 46.140625 10.015625 43.890625 
L 10.015625 52.203125 
Q 14.9375 54.109375 19.578125 55.046875 
Q 24.21875 56 28.609375 56 
Q 40.484375 56 46.34375 49.84375 
Q 52.203125 43.703125 52.203125 31.203125 
z
" id="DejaVuSans-97"/>
     <path d="M 52 44.1875 
Q 55.375 50.25 60.0625 53.125 
Q 64.75 56 71.09375 56 
Q 79.640625 56 84.28125 50.015625 
Q 88.921875 44.046875 88.921875 33.015625 
L 88.921875 0 
L 79.890625 0 
L 79.890625 32.71875 
Q 79.890625 40.578125 77.09375 44.375 
Q 74.3125 48.1875 68.609375 48.1875 
Q 61.625 48.1875 57.5625 43.546875 
Q 53.515625 38.921875 53.515625 30.90625 
L 53.515625 0 
L 44.484375 0 
L 44.484375 32.71875 
Q 44.484375 40.625 41.703125 44.40625 
Q 38.921875 48.1875 33.109375 48.1875 
Q 26.21875 48.1875 22.15625 43.53125 
Q 18.109375 38.875 18.109375 30.90625 
L 18.109375 0 
L 9.078125 0 
L 9.078125 54.6875 
L 18.109375 54.6875 
L 18.109375 46.1875 
Q 21.1875 51.21875 25.484375 53.609375 
Q 29.78125 56 35.6875 56 
Q 41.65625 56 45.828125 52.96875 
Q 50 49.953125 52 44.1875 
z
" id="DejaVuSans-109"/>
     <path id="DejaVuSans-32"/>
     <path d="M 37.109375 75.984375 
L 37.109375 68.5 
L 28.515625 68.5 
Q 23.6875 68.5 21.796875 66.546875 
Q 19.921875 64.59375 19.921875 59.515625 
L 19.921875 54.6875 
L 34.71875 54.6875 
L 34.71875 47.703125 
L 19.921875 47.703125 
L 19.921875 0 
L 10.890625 0 
L 10.890625 47.703125 
L 2.296875 47.703125 
L 2.296875 54.6875 
L 10.890625 54.6875 
L 10.890625 58.5 
Q 10.890625 67.625 15.140625 71.796875 
Q 19.390625 75.984375 28.609375 75.984375 
z
" id="DejaVuSans-102"/>
    </defs>
    <g transform="translate(186.209063 35.472)scale(0.12 -0.12)">
     <use xlink:href="#DejaVuSans-72"/>
     <use x="75.195312" xlink:href="#DejaVuSans-105"/>
     <use x="102.978516" xlink:href="#DejaVuSans-115"/>
     <use x="155.078125" xlink:href="#DejaVuSans-116"/>
     <use x="194.287109" xlink:href="#DejaVuSans-111"/>
     <use x="255.46875" xlink:href="#DejaVuSans-103"/>
     <use x="318.945312" xlink:href="#DejaVuSans-114"/>
     <use x="360.058594" xlink:href="#DejaVuSans-97"/>
     <use x="421.337891" xlink:href="#DejaVuSans-109"/>
     <use x="518.75" xlink:href="#DejaVuSans-32"/>
     <use x="550.537109" xlink:href="#DejaVuSans-111"/>
     <use x="611.71875" xlink:href="#DejaVuSans-102"/>
     <use x="646.923828" xlink:href="#DejaVuSans-32"/>
     <use x="678.710938" xlink:href="#DejaVuSans-102"/>
     <use x="713.916016" xlink:href="#DejaVuSans-99"/>
     <use x="768.896484" xlink:href="#DejaVuSans-49"/>
    </g>
   </g>
   <g id="legend_1">
    <g id="patch_207">
     <path d="M 323.679375 78.82825 
L 407.72 78.82825 
Q 409.72 78.82825 409.72 76.82825 
L 409.72 48.472 
Q 409.72 46.472 407.72 46.472 
L 323.679375 46.472 
Q 321.679375 46.472 321.679375 48.472 
L 321.679375 76.82825 
Q 321.679375 78.82825 323.679375 78.82825 
z
" style="fill:#ffffff;opacity:0.8;stroke:#cccccc;stroke-linejoin:miter;"/>
    </g>
    <g id="patch_208">
     <path d="M 325.679375 58.070437 
L 345.679375 58.070437 
L 345.679375 51.070437 
L 325.679375 51.070437 
z
" style="fill:#0000ff;"/>
    </g>
    <g id="text_14">
     <!-- unmasked -->
     <defs>
      <path d="M 9.078125 75.984375 
L 18.109375 75.984375 
L 18.109375 31.109375 
L 44.921875 54.6875 
L 56.390625 54.6875 
L 27.390625 29.109375 
L 57.625 0 
L 45.90625 0 
L 18.109375 26.703125 
L 18.109375 0 
L 9.078125 0 
z
" id="DejaVuSans-107"/>
      <path d="M 45.40625 46.390625 
L 45.40625 75.984375 
L 54.390625 75.984375 
L 54.390625 0 
L 45.40625 0 
L 45.40625 8.203125 
Q 42.578125 3.328125 38.25 0.953125 
Q 33.9375 -1.421875 27.875 -1.421875 
Q 17.96875 -1.421875 11.734375 6.484375 
Q 5.515625 14.40625 5.515625 27.296875 
Q 5.515625 40.1875 11.734375 48.09375 
Q 17.96875 56 27.875 56 
Q 33.9375 56 38.25 53.625 
Q 42.578125 51.265625 45.40625 46.390625 
z
M 14.796875 27.296875 
Q 14.796875 17.390625 18.875 11.75 
Q 22.953125 6.109375 30.078125 6.109375 
Q 37.203125 6.109375 41.296875 11.75 
Q 45.40625 17.390625 45.40625 27.296875 
Q 45.40625 37.203125 41.296875 42.84375 
Q 37.203125 48.484375 30.078125 48.484375 
Q 22.953125 48.484375 18.875 42.84375 
Q 14.796875 37.203125 14.796875 27.296875 
z
" id="DejaVuSans-100"/>
     </defs>
     <g transform="translate(353.679375 58.070437)scale(0.1 -0.1)">
      <use xlink:href="#DejaVuSans-117"/>
      <use x="63.378906" xlink:href="#DejaVuSans-110"/>
      <use x="126.757812" xlink:href="#DejaVuSans-109"/>
      <use x="224.169922" xlink:href="#DejaVuSans-97"/>
      <use x="285.449219" xlink:href="#DejaVuSans-115"/>
      <use x="337.548828" xlink:href="#DejaVuSans-107"/>
      <use x="395.412109" xlink:href="#DejaVuSans-101"/>
      <use x="456.935547" xlink:href="#DejaVuSans-100"/>
     </g>
    </g>
    <g id="patch_209">
     <path d="M 325.679375 72.748562 
L 345.679375 72.748562 
L 345.679375 65.748562 
L 325.679375 65.748562 
z
" style="fill:#808080;"/>
    </g>
    <g id="text_15">
     <!-- masked -->
     <g transform="translate(353.679375 72.748562)scale(0.1 -0.1)">
      <use xlink:href="#DejaVuSans-109"/>
      <use x="97.412109" xlink:href="#DejaVuSans-97"/>
      <use x="158.691406" xlink:href="#DejaVuSans-115"/>
      <use x="210.791016" xlink:href="#DejaVuSans-107"/>
      <use x="268.654297" xlink:href="#DejaVuSans-101"/>
      <use x="330.177734" xlink:href="#DejaVuSans-100"/>
     </g>
    </g>
   </g>
  </g>
 </g>
 <defs>
  <clipPath id="p42348a3c92">
   <rect height="266.112" width="357.12" x="57.6" y="41.472"/>
  </clipPath>
 </defs>
</svg>
