<?xml version="1.0" encoding="utf-8" standalone="no"?>
<!DOCTYPE svg PUBLIC "-//W3C//DTD SVG 1.1//EN"
  "http://www.w3.org/Graphics/SVG/1.1/DTD/svg11.dtd">
<!-- Created with matplotlib (https://matplotlib.org/) -->
<svg height="345.6pt" version="1.1" viewBox="0 0 460.8 345.6" width="460.8pt" xmlns="http://www.w3.org/2000/svg" xmlns:xlink="http://www.w3.org/1999/xlink">
 <defs>
  <style type="text/css">
*{stroke-linecap:butt;stroke-linejoin:round;}
  </style>
 </defs>
 <g id="figure_1">
  <g id="patch_1">
   <path d="M 0 345.6 
L 460.8 345.6 
L 460.8 0 
L 0 0 
z
" style="fill:#ffffff;"/>
  </g>
  <g id="axes_1">
   <g id="patch_2">
    <path d="M 57.6 307.584 
L 414.72 307.584 
L 414.72 41.472 
L 57.6 41.472 
z
" style="fill:#ffffff;"/>
   </g>
   <g id="patch_3">
    <path clip-path="url(#p8496af6486)" d="M 109.022556 307.584 
L 111.917206 307.584 
L 111.917206 307.558226 
L 109.022556 307.558226 
z
" style="fill:#0000ff;"/>
   </g>
   <g id="patch_4">
    <path clip-path="url(#p8496af6486)" d="M 111.917206 307.584 
L 114.811848 307.584 
L 114.811848 307.558226 
L 111.917206 307.558226 
z
" style="fill:#0000ff;"/>
   </g>
   <g id="patch_5">
    <path clip-path="url(#p8496af6486)" d="M 114.811848 307.584 
L 117.706499 307.584 
L 117.706499 307.584 
L 114.811848 307.584 
z
" style="fill:#0000ff;"/>
   </g>
   <g id="patch_6">
    <path clip-path="url(#p8496af6486)" d="M 117.706508 307.584 
L 120.60115 307.584 
L 120.60115 307.584 
L 117.706508 307.584 
z
" style="fill:#0000ff;"/>
   </g>
   <g id="patch_7">
    <path clip-path="url(#p8496af6486)" d="M 120.601141 307.584 
L 123.495791 307.584 
L 123.495791 307.558226 
L 120.601141 307.558226 
z
" style="fill:#0000ff;"/>
   </g>
   <g id="patch_8">
    <path clip-path="url(#p8496af6486)" d="M 123.495791 307.584 
L 126.390442 307.584 
L 126.390442 307.584 
L 123.495791 307.584 
z
" style="fill:#0000ff;"/>
   </g>
   <g id="patch_9">
    <path clip-path="url(#p8496af6486)" d="M 126.390442 307.584 
L 129.285084 307.584 
L 129.285084 307.584 
L 126.390442 307.584 
z
" style="fill:#0000ff;"/>
   </g>
   <g id="patch_10">
    <path clip-path="url(#p8496af6486)" d="M 129.285084 307.584 
L 132.179735 307.584 
L 132.179735 307.584 
L 129.285084 307.584 
z
" style="fill:#0000ff;"/>
   </g>
   <g id="patch_11">
    <path clip-path="url(#p8496af6486)" d="M 132.179743 307.584 
L 135.074385 307.584 
L 135.074385 307.584 
L 132.179743 307.584 
z
" style="fill:#0000ff;"/>
   </g>
   <g id="patch_12">
    <path clip-path="url(#p8496af6486)" d="M 135.074377 307.584 
L 137.969027 307.584 
L 137.969027 307.584 
L 135.074377 307.584 
z
" style="fill:#0000ff;"/>
   </g>
   <g id="patch_13">
    <path clip-path="url(#p8496af6486)" d="M 137.969027 307.584 
L 140.863678 307.584 
L 140.863678 307.532451 
L 137.969027 307.532451 
z
" style="fill:#0000ff;"/>
   </g>
   <g id="patch_14">
    <path clip-path="url(#p8496af6486)" d="M 140.863678 307.584 
L 143.75832 307.584 
L 143.75832 307.584 
L 140.863678 307.584 
z
" style="fill:#0000ff;"/>
   </g>
   <g id="patch_15">
    <path clip-path="url(#p8496af6486)" d="M 143.75832 307.584 
L 146.652971 307.584 
L 146.652971 307.584 
L 143.75832 307.584 
z
" style="fill:#0000ff;"/>
   </g>
   <g id="patch_16">
    <path clip-path="url(#p8496af6486)" d="M 146.652979 307.584 
L 149.547621 307.584 
L 149.547621 307.584 
L 146.652979 307.584 
z
" style="fill:#0000ff;"/>
   </g>
   <g id="patch_17">
    <path clip-path="url(#p8496af6486)" d="M 149.547613 307.584 
L 152.442263 307.584 
L 152.442263 307.532451 
L 149.547613 307.532451 
z
" style="fill:#0000ff;"/>
   </g>
   <g id="patch_18">
    <path clip-path="url(#p8496af6486)" d="M 152.442263 307.584 
L 155.336914 307.584 
L 155.336914 307.584 
L 152.442263 307.584 
z
" style="fill:#0000ff;"/>
   </g>
   <g id="patch_19">
    <path clip-path="url(#p8496af6486)" d="M 155.336914 307.584 
L 158.231556 307.584 
L 158.231556 307.584 
L 155.336914 307.584 
z
" style="fill:#0000ff;"/>
   </g>
   <g id="patch_20">
    <path clip-path="url(#p8496af6486)" d="M 158.231556 307.584 
L 161.126206 307.584 
L 161.126206 307.558226 
L 158.231556 307.558226 
z
" style="fill:#0000ff;"/>
   </g>
   <g id="patch_21">
    <path clip-path="url(#p8496af6486)" d="M 161.126215 307.584 
L 164.020857 307.584 
L 164.020857 307.584 
L 161.126215 307.584 
z
" style="fill:#0000ff;"/>
   </g>
   <g id="patch_22">
    <path clip-path="url(#p8496af6486)" d="M 164.020848 307.584 
L 166.915499 307.584 
L 166.915499 307.532451 
L 164.020848 307.532451 
z
" style="fill:#0000ff;"/>
   </g>
   <g id="patch_23">
    <path clip-path="url(#p8496af6486)" d="M 166.915499 307.584 
L 169.81015 307.584 
L 169.81015 307.558226 
L 166.915499 307.558226 
z
" style="fill:#0000ff;"/>
   </g>
   <g id="patch_24">
    <path clip-path="url(#p8496af6486)" d="M 169.81015 307.584 
L 172.704792 307.584 
L 172.704792 307.558226 
L 169.81015 307.558226 
z
" style="fill:#0000ff;"/>
   </g>
   <g id="patch_25">
    <path clip-path="url(#p8496af6486)" d="M 172.704792 307.584 
L 175.599442 307.584 
L 175.599442 307.558226 
L 172.704792 307.558226 
z
" style="fill:#0000ff;"/>
   </g>
   <g id="patch_26">
    <path clip-path="url(#p8496af6486)" d="M 175.599451 307.584 
L 178.494093 307.584 
L 178.494093 307.403579 
L 175.599451 307.403579 
z
" style="fill:#0000ff;"/>
   </g>
   <g id="patch_27">
    <path clip-path="url(#p8496af6486)" d="M 178.494084 307.584 
L 181.388735 307.584 
L 181.388735 307.532451 
L 178.494084 307.532451 
z
" style="fill:#0000ff;"/>
   </g>
   <g id="patch_28">
    <path clip-path="url(#p8496af6486)" d="M 181.388735 307.584 
L 184.283377 307.584 
L 184.283377 307.403579 
L 181.388735 307.403579 
z
" style="fill:#0000ff;"/>
   </g>
   <g id="patch_29">
    <path clip-path="url(#p8496af6486)" d="M 184.283381 307.584 
L 187.178023 307.584 
L 187.178023 307.326256 
L 184.283381 307.326256 
z
" style="fill:#0000ff;"/>
   </g>
   <g id="patch_30">
    <path clip-path="url(#p8496af6486)" d="M 187.178028 307.584 
L 190.072678 307.584 
L 190.072678 307.429353 
L 187.178028 307.429353 
z
" style="fill:#0000ff;"/>
   </g>
   <g id="patch_31">
    <path clip-path="url(#p8496af6486)" d="M 190.072682 307.584 
L 192.967324 307.584 
L 192.967324 307.532451 
L 190.072682 307.532451 
z
" style="fill:#0000ff;"/>
   </g>
   <g id="patch_32">
    <path clip-path="url(#p8496af6486)" d="M 192.967324 307.584 
L 195.861966 307.584 
L 195.861966 307.326256 
L 192.967324 307.326256 
z
" style="fill:#0000ff;"/>
   </g>
   <g id="patch_33">
    <path clip-path="url(#p8496af6486)" d="M 195.861975 307.584 
L 198.756617 307.584 
L 198.756617 306.991188 
L 195.861975 306.991188 
z
" style="fill:#0000ff;"/>
   </g>
   <g id="patch_34">
    <path clip-path="url(#p8496af6486)" d="M 198.756617 307.584 
L 201.651259 307.584 
L 201.651259 307.326256 
L 198.756617 307.326256 
z
" style="fill:#0000ff;"/>
   </g>
   <g id="patch_35">
    <path clip-path="url(#p8496af6486)" d="M 201.651263 307.584 
L 204.545914 307.584 
L 204.545914 307.12006 
L 201.651263 307.12006 
z
" style="fill:#0000ff;"/>
   </g>
   <g id="patch_36">
    <path clip-path="url(#p8496af6486)" d="M 204.545918 307.584 
L 207.44056 307.584 
L 207.44056 307.248932 
L 204.545918 307.248932 
z
" style="fill:#0000ff;"/>
   </g>
   <g id="patch_37">
    <path clip-path="url(#p8496af6486)" d="M 207.44056 307.584 
L 210.335202 307.584 
L 210.335202 306.862316 
L 207.44056 306.862316 
z
" style="fill:#0000ff;"/>
   </g>
   <g id="patch_38">
    <path clip-path="url(#p8496af6486)" d="M 210.335211 307.584 
L 213.229853 307.584 
L 213.229853 306.913865 
L 210.335211 306.913865 
z
" style="fill:#0000ff;"/>
   </g>
   <g id="patch_39">
    <path clip-path="url(#p8496af6486)" d="M 213.229853 307.584 
L 216.124495 307.584 
L 216.124495 306.501474 
L 213.229853 306.501474 
z
" style="fill:#0000ff;"/>
   </g>
   <g id="patch_40">
    <path clip-path="url(#p8496af6486)" d="M 216.124499 307.584 
L 219.01915 307.584 
L 219.01915 306.707669 
L 216.124499 306.707669 
z
" style="fill:#0000ff;"/>
   </g>
   <g id="patch_41">
    <path clip-path="url(#p8496af6486)" d="M 219.019146 307.584 
L 221.913796 307.584 
L 221.913796 306.166406 
L 219.019146 306.166406 
z
" style="fill:#0000ff;"/>
   </g>
   <g id="patch_42">
    <path clip-path="url(#p8496af6486)" d="M 221.913798 307.584 
L 224.80844 307.584 
L 224.80844 306.321053 
L 221.913798 306.321053 
z
" style="fill:#0000ff;"/>
   </g>
   <g id="patch_43">
    <path clip-path="url(#p8496af6486)" d="M 224.808445 307.584 
L 227.703087 307.584 
L 227.703087 305.212752 
L 224.808445 305.212752 
z
" style="fill:#0000ff;"/>
   </g>
   <g id="patch_44">
    <path clip-path="url(#p8496af6486)" d="M 227.703089 307.584 
L 230.597739 307.584 
L 230.597739 304.929233 
L 227.703089 304.929233 
z
" style="fill:#0000ff;"/>
   </g>
   <g id="patch_45">
    <path clip-path="url(#p8496af6486)" d="M 230.597739 307.584 
L 233.492381 307.584 
L 233.492381 305.367399 
L 230.597739 305.367399 
z
" style="fill:#0000ff;"/>
   </g>
   <g id="patch_46">
    <path clip-path="url(#p8496af6486)" d="M 233.492381 307.584 
L 236.387032 307.584 
L 236.387032 303.408542 
L 233.492381 303.408542 
z
" style="fill:#0000ff;"/>
   </g>
   <g id="patch_47">
    <path clip-path="url(#p8496af6486)" d="M 236.38703 307.584 
L 239.28168 307.584 
L 239.28168 304.181775 
L 236.38703 304.181775 
z
" style="fill:#0000ff;"/>
   </g>
   <g id="patch_48">
    <path clip-path="url(#p8496af6486)" d="M 239.281676 307.584 
L 242.176327 307.584 
L 242.176327 301.346587 
L 239.281676 301.346587 
z
" style="fill:#0000ff;"/>
   </g>
   <g id="patch_49">
    <path clip-path="url(#p8496af6486)" d="M 242.176325 307.584 
L 245.070975 307.584 
L 245.070975 302.867279 
L 242.176325 302.867279 
z
" style="fill:#0000ff;"/>
   </g>
   <g id="patch_50">
    <path clip-path="url(#p8496af6486)" d="M 245.070971 307.584 
L 247.965622 307.584 
L 247.965622 299.645475 
L 245.070971 299.645475 
z
" style="fill:#0000ff;"/>
   </g>
   <g id="patch_51">
    <path clip-path="url(#p8496af6486)" d="M 247.965618 307.584 
L 250.860269 307.584 
L 250.860269 301.527008 
L 247.965618 301.527008 
z
" style="fill:#0000ff;"/>
   </g>
   <g id="patch_52">
    <path clip-path="url(#p8496af6486)" d="M 250.860265 307.584 
L 253.754916 307.584 
L 253.754916 296.449445 
L 250.860265 296.449445 
z
" style="fill:#0000ff;"/>
   </g>
   <g id="patch_53">
    <path clip-path="url(#p8496af6486)" d="M 253.754912 307.584 
L 256.649563 307.584 
L 256.649563 296.269024 
L 253.754912 296.269024 
z
" style="fill:#0000ff;"/>
   </g>
   <g id="patch_54">
    <path clip-path="url(#p8496af6486)" d="M 256.649559 307.584 
L 259.54421 307.584 
L 259.54421 298.434076 
L 256.649559 298.434076 
z
" style="fill:#0000ff;"/>
   </g>
   <g id="patch_55">
    <path clip-path="url(#p8496af6486)" d="M 259.544207 307.584 
L 262.438857 307.584 
L 262.438857 291.397656 
L 259.544207 291.397656 
z
" style="fill:#0000ff;"/>
   </g>
   <g id="patch_56">
    <path clip-path="url(#p8496af6486)" d="M 262.438854 307.584 
L 265.333505 307.584 
L 265.333505 295.444242 
L 262.438854 295.444242 
z
" style="fill:#0000ff;"/>
   </g>
   <g id="patch_57">
    <path clip-path="url(#p8496af6486)" d="M 265.333502 307.584 
L 268.228152 307.584 
L 268.228152 286.964454 
L 265.333502 286.964454 
z
" style="fill:#0000ff;"/>
   </g>
   <g id="patch_58">
    <path clip-path="url(#p8496af6486)" d="M 268.228148 307.584 
L 271.122799 307.584 
L 271.122799 292.531731 
L 268.228148 292.531731 
z
" style="fill:#0000ff;"/>
   </g>
   <g id="patch_59">
    <path clip-path="url(#p8496af6486)" d="M 271.122796 307.584 
L 274.017447 307.584 
L 274.017447 281.706469 
L 271.122796 281.706469 
z
" style="fill:#0000ff;"/>
   </g>
   <g id="patch_60">
    <path clip-path="url(#p8496af6486)" d="M 274.017447 307.584 
L 276.912089 307.584 
L 276.912089 289.181055 
L 274.017447 289.181055 
z
" style="fill:#0000ff;"/>
   </g>
   <g id="patch_61">
    <path clip-path="url(#p8496af6486)" d="M 276.912089 307.584 
L 279.80674 307.584 
L 279.80674 271.242049 
L 276.912089 271.242049 
z
" style="fill:#0000ff;"/>
   </g>
   <g id="patch_62">
    <path clip-path="url(#p8496af6486)" d="M 279.806742 307.584 
L 282.701384 307.584 
L 282.701384 259.15384 
L 279.806742 259.15384 
z
" style="fill:#0000ff;"/>
   </g>
   <g id="patch_63">
    <path clip-path="url(#p8496af6486)" d="M 282.701388 307.584 
L 285.59603 307.584 
L 285.59603 166.082363 
L 282.701388 166.082363 
z
" style="fill:#0000ff;"/>
   </g>
   <g id="patch_64">
    <path clip-path="url(#p8496af6486)" d="M 285.596032 307.584 
L 288.490683 307.584 
L 288.490683 113.012805 
L 285.596032 113.012805 
z
" style="fill:#0000ff;"/>
   </g>
   <g id="patch_65">
    <path clip-path="url(#p8496af6486)" d="M 288.490678 307.584 
L 291.385329 307.584 
L 291.385329 172.242452 
L 288.490678 172.242452 
z
" style="fill:#0000ff;"/>
   </g>
   <g id="patch_66">
    <path clip-path="url(#p8496af6486)" d="M 291.385333 307.584 
L 294.279975 307.584 
L 294.279975 143.839027 
L 291.385333 143.839027 
z
" style="fill:#0000ff;"/>
   </g>
   <g id="patch_67">
    <path clip-path="url(#p8496af6486)" d="M 294.279975 307.584 
L 297.174617 307.584 
L 297.174617 241.137512 
L 294.279975 241.137512 
z
" style="fill:#0000ff;"/>
   </g>
   <g id="patch_68">
    <path clip-path="url(#p8496af6486)" d="M 297.174626 307.584 
L 300.069268 307.584 
L 300.069268 266.370682 
L 297.174626 266.370682 
z
" style="fill:#0000ff;"/>
   </g>
   <g id="patch_69">
    <path clip-path="url(#p8496af6486)" d="M 300.069268 307.584 
L 302.96391 307.584 
L 302.96391 286.0108 
L 300.069268 286.0108 
z
" style="fill:#0000ff;"/>
   </g>
   <g id="patch_70">
    <path clip-path="url(#p8496af6486)" d="M 302.963914 307.584 
L 305.858565 307.584 
L 305.858565 279.360996 
L 302.963914 279.360996 
z
" style="fill:#0000ff;"/>
   </g>
   <g id="patch_71">
    <path clip-path="url(#p8496af6486)" d="M 305.858569 307.584 
L 308.753211 307.584 
L 308.753211 289.61922 
L 305.858569 289.61922 
z
" style="fill:#0000ff;"/>
   </g>
   <g id="patch_72">
    <path clip-path="url(#p8496af6486)" d="M 308.753211 307.584 
L 311.647853 307.584 
L 311.647853 281.603372 
L 308.753211 281.603372 
z
" style="fill:#0000ff;"/>
   </g>
   <g id="patch_73">
    <path clip-path="url(#p8496af6486)" d="M 311.647862 307.584 
L 314.542504 307.584 
L 314.542504 285.624183 
L 311.647862 285.624183 
z
" style="fill:#0000ff;"/>
   </g>
   <g id="patch_74">
    <path clip-path="url(#p8496af6486)" d="M 314.542504 307.584 
L 317.437146 307.584 
L 317.437146 293.949325 
L 314.542504 293.949325 
z
" style="fill:#0000ff;"/>
   </g>
   <g id="patch_75">
    <path clip-path="url(#p8496af6486)" d="M 317.43715 307.584 
L 320.331801 307.584 
L 320.331801 289.670769 
L 317.43715 289.670769 
z
" style="fill:#0000ff;"/>
   </g>
   <g id="patch_76">
    <path clip-path="url(#p8496af6486)" d="M 320.331805 307.584 
L 323.226447 307.584 
L 323.226447 297.738167 
L 320.331805 297.738167 
z
" style="fill:#0000ff;"/>
   </g>
   <g id="patch_77">
    <path clip-path="url(#p8496af6486)" d="M 323.226447 307.584 
L 326.121089 307.584 
L 326.121089 294.103972 
L 323.226447 294.103972 
z
" style="fill:#0000ff;"/>
   </g>
   <g id="patch_78">
    <path clip-path="url(#p8496af6486)" d="M 326.121093 307.584 
L 329.015744 307.584 
L 329.015744 299.465054 
L 326.121093 299.465054 
z
" style="fill:#0000ff;"/>
   </g>
   <g id="patch_79">
    <path clip-path="url(#p8496af6486)" d="M 329.015744 307.584 
L 331.910386 307.584 
L 331.910386 297.970136 
L 329.015744 297.970136 
z
" style="fill:#0000ff;"/>
   </g>
   <g id="patch_80">
    <path clip-path="url(#p8496af6486)" d="M 331.910386 307.584 
L 334.805037 307.584 
L 334.805037 301.862076 
L 331.910386 301.862076 
z
" style="fill:#0000ff;"/>
   </g>
   <g id="patch_81">
    <path clip-path="url(#p8496af6486)" d="M 334.805045 307.584 
L 337.699687 307.584 
L 337.699687 300.444482 
L 334.805045 300.444482 
z
" style="fill:#0000ff;"/>
   </g>
   <g id="patch_82">
    <path clip-path="url(#p8496af6486)" d="M 337.699679 307.584 
L 340.594329 307.584 
L 340.594329 303.717835 
L 337.699679 303.717835 
z
" style="fill:#0000ff;"/>
   </g>
   <g id="patch_83">
    <path clip-path="url(#p8496af6486)" d="M 340.594329 307.584 
L 343.48898 307.584 
L 343.48898 303.485865 
L 340.594329 303.485865 
z
" style="fill:#0000ff;"/>
   </g>
   <g id="patch_84">
    <path clip-path="url(#p8496af6486)" d="M 343.48898 307.584 
L 346.383622 307.584 
L 346.383622 303.898256 
L 343.48898 303.898256 
z
" style="fill:#0000ff;"/>
   </g>
   <g id="patch_85">
    <path clip-path="url(#p8496af6486)" d="M 346.383622 307.584 
L 349.278273 307.584 
L 349.278273 306.063308 
L 346.383622 306.063308 
z
" style="fill:#0000ff;"/>
   </g>
   <g id="patch_86">
    <path clip-path="url(#p8496af6486)" d="M 349.278281 307.584 
L 352.172923 307.584 
L 352.172923 305.470496 
L 349.278281 305.470496 
z
" style="fill:#0000ff;"/>
   </g>
   <g id="patch_87">
    <path clip-path="url(#p8496af6486)" d="M 352.172915 307.584 
L 355.067565 307.584 
L 355.067565 306.630346 
L 352.172915 306.630346 
z
" style="fill:#0000ff;"/>
   </g>
   <g id="patch_88">
    <path clip-path="url(#p8496af6486)" d="M 355.067565 307.584 
L 357.962216 307.584 
L 357.962216 306.65612 
L 355.067565 306.65612 
z
" style="fill:#0000ff;"/>
   </g>
   <g id="patch_89">
    <path clip-path="url(#p8496af6486)" d="M 357.962216 307.584 
L 360.856858 307.584 
L 360.856858 307.016962 
L 357.962216 307.016962 
z
" style="fill:#0000ff;"/>
   </g>
   <g id="patch_90">
    <path clip-path="url(#p8496af6486)" d="M 360.856858 307.584 
L 363.751508 307.584 
L 363.751508 307.12006 
L 360.856858 307.12006 
z
" style="fill:#0000ff;"/>
   </g>
   <g id="patch_91">
    <path clip-path="url(#p8496af6486)" d="M 363.751517 307.584 
L 366.646159 307.584 
L 366.646159 307.35203 
L 363.751517 307.35203 
z
" style="fill:#0000ff;"/>
   </g>
   <g id="patch_92">
    <path clip-path="url(#p8496af6486)" d="M 366.64615 307.584 
L 369.540801 307.584 
L 369.540801 307.223158 
L 366.64615 307.223158 
z
" style="fill:#0000ff;"/>
   </g>
   <g id="patch_93">
    <path clip-path="url(#p8496af6486)" d="M 369.540801 307.584 
L 372.435452 307.584 
L 372.435452 307.35203 
L 369.540801 307.35203 
z
" style="fill:#0000ff;"/>
   </g>
   <g id="patch_94">
    <path clip-path="url(#p8496af6486)" d="M 372.435452 307.584 
L 375.330094 307.584 
L 375.330094 307.35203 
L 372.435452 307.35203 
z
" style="fill:#0000ff;"/>
   </g>
   <g id="patch_95">
    <path clip-path="url(#p8496af6486)" d="M 375.330094 307.584 
L 378.224744 307.584 
L 378.224744 307.429353 
L 375.330094 307.429353 
z
" style="fill:#0000ff;"/>
   </g>
   <g id="patch_96">
    <path clip-path="url(#p8496af6486)" d="M 378.224753 307.584 
L 381.119395 307.584 
L 381.119395 307.532451 
L 378.224753 307.532451 
z
" style="fill:#0000ff;"/>
   </g>
   <g id="patch_97">
    <path clip-path="url(#p8496af6486)" d="M 381.119386 307.584 
L 384.014037 307.584 
L 384.014037 307.532451 
L 381.119386 307.532451 
z
" style="fill:#0000ff;"/>
   </g>
   <g id="patch_98">
    <path clip-path="url(#p8496af6486)" d="M 384.014037 307.584 
L 386.908688 307.584 
L 386.908688 307.558226 
L 384.014037 307.558226 
z
" style="fill:#0000ff;"/>
   </g>
   <g id="patch_99">
    <path clip-path="url(#p8496af6486)" d="M 386.908688 307.584 
L 389.803329 307.584 
L 389.803329 307.532451 
L 386.908688 307.532451 
z
" style="fill:#0000ff;"/>
   </g>
   <g id="patch_100">
    <path clip-path="url(#p8496af6486)" d="M 389.803329 307.584 
L 392.69798 307.584 
L 392.69798 307.584 
L 389.803329 307.584 
z
" style="fill:#0000ff;"/>
   </g>
   <g id="patch_101">
    <path clip-path="url(#p8496af6486)" d="M 392.697989 307.584 
L 395.592631 307.584 
L 395.592631 307.584 
L 392.697989 307.584 
z
" style="fill:#0000ff;"/>
   </g>
   <g id="patch_102">
    <path clip-path="url(#p8496af6486)" d="M 395.592622 307.584 
L 398.487273 307.584 
L 398.487273 307.558226 
L 395.592622 307.558226 
z
" style="fill:#0000ff;"/>
   </g>
   <g id="patch_103">
    <path clip-path="url(#p8496af6486)" d="M 73.832727 307.584 
L 76.716015 307.584 
L 76.716015 307.532451 
L 73.832727 307.532451 
z
" style="fill:#808080;"/>
   </g>
   <g id="patch_104">
    <path clip-path="url(#p8496af6486)" d="M 76.716015 307.584 
L 79.599321 307.584 
L 79.599321 307.584 
L 76.716015 307.584 
z
" style="fill:#808080;"/>
   </g>
   <g id="patch_105">
    <path clip-path="url(#p8496af6486)" d="M 79.599338 307.584 
L 82.482626 307.584 
L 82.482626 307.584 
L 79.599338 307.584 
z
" style="fill:#808080;"/>
   </g>
   <g id="patch_106">
    <path clip-path="url(#p8496af6486)" d="M 82.482609 307.584 
L 85.365914 307.584 
L 85.365914 307.584 
L 82.482609 307.584 
z
" style="fill:#808080;"/>
   </g>
   <g id="patch_107">
    <path clip-path="url(#p8496af6486)" d="M 85.365914 307.584 
L 88.249202 307.584 
L 88.249202 307.558226 
L 85.365914 307.558226 
z
" style="fill:#808080;"/>
   </g>
   <g id="patch_108">
    <path clip-path="url(#p8496af6486)" d="M 88.249202 307.584 
L 91.132507 307.584 
L 91.132507 307.584 
L 88.249202 307.584 
z
" style="fill:#808080;"/>
   </g>
   <g id="patch_109">
    <path clip-path="url(#p8496af6486)" d="M 91.132525 307.584 
L 94.015813 307.584 
L 94.015813 307.584 
L 91.132525 307.584 
z
" style="fill:#808080;"/>
   </g>
   <g id="patch_110">
    <path clip-path="url(#p8496af6486)" d="M 94.015795 307.584 
L 96.8991 307.584 
L 96.8991 307.584 
L 94.015795 307.584 
z
" style="fill:#808080;"/>
   </g>
   <g id="patch_111">
    <path clip-path="url(#p8496af6486)" d="M 96.8991 307.584 
L 99.782388 307.584 
L 99.782388 307.584 
L 96.8991 307.584 
z
" style="fill:#808080;"/>
   </g>
   <g id="patch_112">
    <path clip-path="url(#p8496af6486)" d="M 99.782406 307.584 
L 102.665694 307.584 
L 102.665694 307.584 
L 99.782406 307.584 
z
" style="fill:#808080;"/>
   </g>
   <g id="patch_113">
    <path clip-path="url(#p8496af6486)" d="M 102.665676 307.584 
L 105.548982 307.584 
L 105.548982 307.532451 
L 102.665676 307.532451 
z
" style="fill:#808080;"/>
   </g>
   <g id="patch_114">
    <path clip-path="url(#p8496af6486)" d="M 105.548982 307.584 
L 108.43227 307.584 
L 108.43227 307.584 
L 105.548982 307.584 
z
" style="fill:#808080;"/>
   </g>
   <g id="patch_115">
    <path clip-path="url(#p8496af6486)" d="M 108.43227 307.584 
L 111.315575 307.584 
L 111.315575 307.584 
L 108.43227 307.584 
z
" style="fill:#808080;"/>
   </g>
   <g id="patch_116">
    <path clip-path="url(#p8496af6486)" d="M 111.315558 307.584 
L 114.198863 307.584 
L 114.198863 307.584 
L 111.315558 307.584 
z
" style="fill:#808080;"/>
   </g>
   <g id="patch_117">
    <path clip-path="url(#p8496af6486)" d="M 114.198863 307.584 
L 117.082168 307.584 
L 117.082168 307.532451 
L 114.198863 307.532451 
z
" style="fill:#808080;"/>
   </g>
   <g id="patch_118">
    <path clip-path="url(#p8496af6486)" d="M 117.082151 307.584 
L 119.965456 307.584 
L 119.965456 307.584 
L 117.082151 307.584 
z
" style="fill:#808080;"/>
   </g>
   <g id="patch_119">
    <path clip-path="url(#p8496af6486)" d="M 119.965456 307.584 
L 122.848762 307.584 
L 122.848762 307.584 
L 119.965456 307.584 
z
" style="fill:#808080;"/>
   </g>
   <g id="patch_120">
    <path clip-path="url(#p8496af6486)" d="M 122.848744 307.584 
L 125.73205 307.584 
L 125.73205 307.558226 
L 122.848744 307.558226 
z
" style="fill:#808080;"/>
   </g>
   <g id="patch_121">
    <path clip-path="url(#p8496af6486)" d="M 125.73205 307.584 
L 128.615355 307.584 
L 128.615355 307.558226 
L 125.73205 307.558226 
z
" style="fill:#808080;"/>
   </g>
   <g id="patch_122">
    <path clip-path="url(#p8496af6486)" d="M 128.615338 307.584 
L 131.498643 307.584 
L 131.498643 307.558226 
L 128.615338 307.558226 
z
" style="fill:#808080;"/>
   </g>
   <g id="patch_123">
    <path clip-path="url(#p8496af6486)" d="M 131.498643 307.584 
L 134.381931 307.584 
L 134.381931 307.558226 
L 131.498643 307.558226 
z
" style="fill:#808080;"/>
   </g>
   <g id="patch_124">
    <path clip-path="url(#p8496af6486)" d="M 134.381931 307.584 
L 137.265236 307.584 
L 137.265236 307.558226 
L 134.381931 307.558226 
z
" style="fill:#808080;"/>
   </g>
   <g id="patch_125">
    <path clip-path="url(#p8496af6486)" d="M 137.265219 307.584 
L 140.148524 307.584 
L 140.148524 307.429353 
L 137.265219 307.429353 
z
" style="fill:#808080;"/>
   </g>
   <g id="patch_126">
    <path clip-path="url(#p8496af6486)" d="M 140.148524 307.584 
L 143.03183 307.584 
L 143.03183 307.532451 
L 140.148524 307.532451 
z
" style="fill:#808080;"/>
   </g>
   <g id="patch_127">
    <path clip-path="url(#p8496af6486)" d="M 143.031812 307.584 
L 145.915118 307.584 
L 145.915118 307.480902 
L 143.031812 307.480902 
z
" style="fill:#808080;"/>
   </g>
   <g id="patch_128">
    <path clip-path="url(#p8496af6486)" d="M 145.915118 307.584 
L 148.798423 307.584 
L 148.798423 307.197384 
L 145.915118 307.197384 
z
" style="fill:#808080;"/>
   </g>
   <g id="patch_129">
    <path clip-path="url(#p8496af6486)" d="M 148.798406 307.584 
L 151.681711 307.584 
L 151.681711 307.506677 
L 148.798406 307.506677 
z
" style="fill:#808080;"/>
   </g>
   <g id="patch_130">
    <path clip-path="url(#p8496af6486)" d="M 151.681711 307.584 
L 154.565016 307.584 
L 154.565016 307.480902 
L 151.681711 307.480902 
z
" style="fill:#808080;"/>
   </g>
   <g id="patch_131">
    <path clip-path="url(#p8496af6486)" d="M 154.564999 307.584 
L 157.448304 307.584 
L 157.448304 307.558226 
L 154.564999 307.558226 
z
" style="fill:#808080;"/>
   </g>
   <g id="patch_132">
    <path clip-path="url(#p8496af6486)" d="M 157.448304 307.584 
L 160.331592 307.584 
L 160.331592 306.939639 
L 157.448304 306.939639 
z
" style="fill:#808080;"/>
   </g>
   <g id="patch_133">
    <path clip-path="url(#p8496af6486)" d="M 160.331592 307.584 
L 163.214898 307.584 
L 163.214898 307.274707 
L 160.331592 307.274707 
z
" style="fill:#808080;"/>
   </g>
   <g id="patch_134">
    <path clip-path="url(#p8496af6486)" d="M 163.21488 307.584 
L 166.098186 307.584 
L 166.098186 307.300481 
L 163.21488 307.300481 
z
" style="fill:#808080;"/>
   </g>
   <g id="patch_135">
    <path clip-path="url(#p8496af6486)" d="M 166.098186 307.584 
L 168.981491 307.584 
L 168.981491 307.326256 
L 166.098186 307.326256 
z
" style="fill:#808080;"/>
   </g>
   <g id="patch_136">
    <path clip-path="url(#p8496af6486)" d="M 168.981474 307.584 
L 171.864779 307.584 
L 171.864779 306.707669 
L 168.981474 306.707669 
z
" style="fill:#808080;"/>
   </g>
   <g id="patch_137">
    <path clip-path="url(#p8496af6486)" d="M 171.864779 307.584 
L 174.748084 307.584 
L 174.748084 307.042737 
L 171.864779 307.042737 
z
" style="fill:#808080;"/>
   </g>
   <g id="patch_138">
    <path clip-path="url(#p8496af6486)" d="M 174.748067 307.584 
L 177.631372 307.584 
L 177.631372 307.016962 
L 174.748067 307.016962 
z
" style="fill:#808080;"/>
   </g>
   <g id="patch_139">
    <path clip-path="url(#p8496af6486)" d="M 177.631372 307.584 
L 180.514677 307.584 
L 180.514677 306.733444 
L 177.631372 306.733444 
z
" style="fill:#808080;"/>
   </g>
   <g id="patch_140">
    <path clip-path="url(#p8496af6486)" d="M 180.514669 307.584 
L 183.397957 307.584 
L 183.397957 305.831339 
L 180.514669 305.831339 
z
" style="fill:#808080;"/>
   </g>
   <g id="patch_141">
    <path clip-path="url(#p8496af6486)" d="M 183.397957 307.584 
L 186.281262 307.584 
L 186.281262 306.553023 
L 183.397957 306.553023 
z
" style="fill:#808080;"/>
   </g>
   <g id="patch_142">
    <path clip-path="url(#p8496af6486)" d="M 186.281262 307.584 
L 189.16455 307.584 
L 189.16455 306.269504 
L 186.281262 306.269504 
z
" style="fill:#808080;"/>
   </g>
   <g id="patch_143">
    <path clip-path="url(#p8496af6486)" d="M 189.164546 307.584 
L 192.047851 307.584 
L 192.047851 304.207549 
L 189.164546 304.207549 
z
" style="fill:#808080;"/>
   </g>
   <g id="patch_144">
    <path clip-path="url(#p8496af6486)" d="M 192.047842 307.584 
L 194.931148 307.584 
L 194.931148 305.754015 
L 192.047842 305.754015 
z
" style="fill:#808080;"/>
   </g>
   <g id="patch_145">
    <path clip-path="url(#p8496af6486)" d="M 194.931139 307.584 
L 197.814444 307.584 
L 197.814444 304.568391 
L 194.931139 304.568391 
z
" style="fill:#808080;"/>
   </g>
   <g id="patch_146">
    <path clip-path="url(#p8496af6486)" d="M 197.81444 307.584 
L 200.697728 307.584 
L 200.697728 305.238527 
L 197.81444 305.238527 
z
" style="fill:#808080;"/>
   </g>
   <g id="patch_147">
    <path clip-path="url(#p8496af6486)" d="M 200.697728 307.584 
L 203.581033 307.584 
L 203.581033 300.006317 
L 200.697728 300.006317 
z
" style="fill:#808080;"/>
   </g>
   <g id="patch_148">
    <path clip-path="url(#p8496af6486)" d="M 203.581025 307.584 
L 206.46433 307.584 
L 206.46433 303.021925 
L 203.581025 303.021925 
z
" style="fill:#808080;"/>
   </g>
   <g id="patch_149">
    <path clip-path="url(#p8496af6486)" d="M 206.464321 307.584 
L 209.347627 307.584 
L 209.347627 303.125023 
L 206.464321 303.125023 
z
" style="fill:#808080;"/>
   </g>
   <g id="patch_150">
    <path clip-path="url(#p8496af6486)" d="M 209.347627 307.584 
L 212.230915 307.584 
L 212.230915 302.274467 
L 209.347627 302.274467 
z
" style="fill:#808080;"/>
   </g>
   <g id="patch_151">
    <path clip-path="url(#p8496af6486)" d="M 212.23091 307.584 
L 215.114216 307.584 
L 215.114216 293.717355 
L 212.23091 293.717355 
z
" style="fill:#808080;"/>
   </g>
   <g id="patch_152">
    <path clip-path="url(#p8496af6486)" d="M 215.114207 307.584 
L 217.997512 307.584 
L 217.997512 300.109414 
L 215.114207 300.109414 
z
" style="fill:#808080;"/>
   </g>
   <g id="patch_153">
    <path clip-path="url(#p8496af6486)" d="M 217.997504 307.584 
L 220.880809 307.584 
L 220.880809 300.057866 
L 217.997504 300.057866 
z
" style="fill:#808080;"/>
   </g>
   <g id="patch_154">
    <path clip-path="url(#p8496af6486)" d="M 220.880809 307.584 
L 223.764097 307.584 
L 223.764097 287.222198 
L 220.880809 287.222198 
z
" style="fill:#808080;"/>
   </g>
   <g id="patch_155">
    <path clip-path="url(#p8496af6486)" d="M 223.764095 307.584 
L 226.6474 307.584 
L 226.6474 296.939159 
L 223.764095 296.939159 
z
" style="fill:#808080;"/>
   </g>
   <g id="patch_156">
    <path clip-path="url(#p8496af6486)" d="M 226.647398 307.584 
L 229.530686 307.584 
L 229.530686 294.593686 
L 226.647398 294.593686 
z
" style="fill:#808080;"/>
   </g>
   <g id="patch_157">
    <path clip-path="url(#p8496af6486)" d="M 229.530686 307.584 
L 232.413991 307.584 
L 232.413991 293.640032 
L 229.530686 293.640032 
z
" style="fill:#808080;"/>
   </g>
   <g id="patch_158">
    <path clip-path="url(#p8496af6486)" d="M 232.413991 307.584 
L 235.297279 307.584 
L 235.297279 275.907222 
L 232.413991 275.907222 
z
" style="fill:#808080;"/>
   </g>
   <g id="patch_159">
    <path clip-path="url(#p8496af6486)" d="M 235.297286 307.584 
L 238.180574 307.584 
L 238.180574 289.464574 
L 235.297286 289.464574 
z
" style="fill:#808080;"/>
   </g>
   <g id="patch_160">
    <path clip-path="url(#p8496af6486)" d="M 238.18058 307.584 
L 241.063868 307.584 
L 241.063868 287.531491 
L 238.18058 287.531491 
z
" style="fill:#808080;"/>
   </g>
   <g id="patch_161">
    <path clip-path="url(#p8496af6486)" d="M 241.063877 307.584 
L 243.947165 307.584 
L 243.947165 281.783793 
L 241.063877 281.783793 
z
" style="fill:#808080;"/>
   </g>
   <g id="patch_162">
    <path clip-path="url(#p8496af6486)" d="M 243.947172 307.584 
L 246.83046 307.584 
L 246.83046 179.485068 
L 243.947172 179.485068 
z
" style="fill:#808080;"/>
   </g>
   <g id="patch_163">
    <path clip-path="url(#p8496af6486)" d="M 246.830468 307.584 
L 249.713756 307.584 
L 249.713756 181.366601 
L 246.830468 181.366601 
z
" style="fill:#808080;"/>
   </g>
   <g id="patch_164">
    <path clip-path="url(#p8496af6486)" d="M 249.713764 307.584 
L 252.597052 307.584 
L 252.597052 177.242692 
L 249.713764 177.242692 
z
" style="fill:#808080;"/>
   </g>
   <g id="patch_165">
    <path clip-path="url(#p8496af6486)" d="M 252.597059 307.584 
L 255.480347 307.584 
L 255.480347 54.144 
L 252.597059 54.144 
z
" style="fill:#808080;"/>
   </g>
   <g id="patch_166">
    <path clip-path="url(#p8496af6486)" d="M 255.480355 307.584 
L 258.363643 307.584 
L 258.363643 222.090206 
L 255.480355 222.090206 
z
" style="fill:#808080;"/>
   </g>
   <g id="patch_167">
    <path clip-path="url(#p8496af6486)" d="M 258.36365 307.584 
L 261.246938 307.584 
L 261.246938 265.365479 
L 258.36365 265.365479 
z
" style="fill:#808080;"/>
   </g>
   <g id="patch_168">
    <path clip-path="url(#p8496af6486)" d="M 261.246946 307.584 
L 264.130234 307.584 
L 264.130234 281.139432 
L 261.246946 281.139432 
z
" style="fill:#808080;"/>
   </g>
   <g id="patch_169">
    <path clip-path="url(#p8496af6486)" d="M 264.130241 307.584 
L 267.013529 307.584 
L 267.013529 267.247012 
L 264.130241 267.247012 
z
" style="fill:#808080;"/>
   </g>
   <g id="patch_170">
    <path clip-path="url(#p8496af6486)" d="M 267.013538 307.584 
L 269.896826 307.584 
L 269.896826 288.92331 
L 267.013538 288.92331 
z
" style="fill:#808080;"/>
   </g>
   <g id="patch_171">
    <path clip-path="url(#p8496af6486)" d="M 269.896833 307.584 
L 272.780121 307.584 
L 272.780121 289.61922 
L 269.896833 289.61922 
z
" style="fill:#808080;"/>
   </g>
   <g id="patch_172">
    <path clip-path="url(#p8496af6486)" d="M 272.780127 307.584 
L 275.663415 307.584 
L 275.663415 290.572874 
L 272.780127 290.572874 
z
" style="fill:#808080;"/>
   </g>
   <g id="patch_173">
    <path clip-path="url(#p8496af6486)" d="M 275.663415 307.584 
L 278.54672 307.584 
L 278.54672 278.793958 
L 275.663415 278.793958 
z
" style="fill:#808080;"/>
   </g>
   <g id="patch_174">
    <path clip-path="url(#p8496af6486)" d="M 278.54672 307.584 
L 281.430008 307.584 
L 281.430008 294.38749 
L 278.54672 294.38749 
z
" style="fill:#808080;"/>
   </g>
   <g id="patch_175">
    <path clip-path="url(#p8496af6486)" d="M 281.430006 307.584 
L 284.313311 307.584 
L 284.313311 296.01128 
L 281.430006 296.01128 
z
" style="fill:#808080;"/>
   </g>
   <g id="patch_176">
    <path clip-path="url(#p8496af6486)" d="M 284.313309 307.584 
L 287.196597 307.584 
L 287.196597 297.738167 
L 284.313309 297.738167 
z
" style="fill:#808080;"/>
   </g>
   <g id="patch_177">
    <path clip-path="url(#p8496af6486)" d="M 287.196597 307.584 
L 290.079903 307.584 
L 290.079903 289.902739 
L 287.196597 289.902739 
z
" style="fill:#808080;"/>
   </g>
   <g id="patch_178">
    <path clip-path="url(#p8496af6486)" d="M 290.079894 307.584 
L 292.963199 307.584 
L 292.963199 300.54758 
L 290.079894 300.54758 
z
" style="fill:#808080;"/>
   </g>
   <g id="patch_179">
    <path clip-path="url(#p8496af6486)" d="M 292.963191 307.584 
L 295.846496 307.584 
L 295.846496 301.295038 
L 292.963191 301.295038 
z
" style="fill:#808080;"/>
   </g>
   <g id="patch_180">
    <path clip-path="url(#p8496af6486)" d="M 295.846492 307.584 
L 298.72978 307.584 
L 298.72978 297.093806 
L 295.846492 297.093806 
z
" style="fill:#808080;"/>
   </g>
   <g id="patch_181">
    <path clip-path="url(#p8496af6486)" d="M 298.72978 307.584 
L 301.613085 307.584 
L 301.613085 303.382767 
L 298.72978 303.382767 
z
" style="fill:#808080;"/>
   </g>
   <g id="patch_182">
    <path clip-path="url(#p8496af6486)" d="M 301.613076 307.584 
L 304.496382 307.584 
L 304.496382 304.310647 
L 301.613076 304.310647 
z
" style="fill:#808080;"/>
   </g>
   <g id="patch_183">
    <path clip-path="url(#p8496af6486)" d="M 304.496373 307.584 
L 307.379678 307.584 
L 307.379678 304.877685 
L 304.496373 304.877685 
z
" style="fill:#808080;"/>
   </g>
   <g id="patch_184">
    <path clip-path="url(#p8496af6486)" d="M 307.379678 307.584 
L 310.262966 307.584 
L 310.262966 303.434316 
L 307.379678 303.434316 
z
" style="fill:#808080;"/>
   </g>
   <g id="patch_185">
    <path clip-path="url(#p8496af6486)" d="M 310.262962 307.584 
L 313.146267 307.584 
L 313.146267 306.063308 
L 310.262962 306.063308 
z
" style="fill:#808080;"/>
   </g>
   <g id="patch_186">
    <path clip-path="url(#p8496af6486)" d="M 313.146259 307.584 
L 316.029564 307.584 
L 316.029564 306.114857 
L 313.146259 306.114857 
z
" style="fill:#808080;"/>
   </g>
   <g id="patch_187">
    <path clip-path="url(#p8496af6486)" d="M 316.029555 307.584 
L 318.91286 307.584 
L 318.91286 306.784993 
L 316.029555 306.784993 
z
" style="fill:#808080;"/>
   </g>
   <g id="patch_188">
    <path clip-path="url(#p8496af6486)" d="M 318.912856 307.584 
L 321.796144 307.584 
L 321.796144 306.269504 
L 318.912856 306.269504 
z
" style="fill:#808080;"/>
   </g>
   <g id="patch_189">
    <path clip-path="url(#p8496af6486)" d="M 321.796144 307.584 
L 324.679449 307.584 
L 324.679449 307.274707 
L 321.796144 307.274707 
z
" style="fill:#808080;"/>
   </g>
   <g id="patch_190">
    <path clip-path="url(#p8496af6486)" d="M 324.679449 307.584 
L 327.562737 307.584 
L 327.562737 307.197384 
L 324.679449 307.197384 
z
" style="fill:#808080;"/>
   </g>
   <g id="patch_191">
    <path clip-path="url(#p8496af6486)" d="M 327.562729 307.584 
L 330.446034 307.584 
L 330.446034 307.223158 
L 327.562729 307.223158 
z
" style="fill:#808080;"/>
   </g>
   <g id="patch_192">
    <path clip-path="url(#p8496af6486)" d="M 330.446034 307.584 
L 333.329339 307.584 
L 333.329339 307.300481 
L 330.446034 307.300481 
z
" style="fill:#808080;"/>
   </g>
   <g id="patch_193">
    <path clip-path="url(#p8496af6486)" d="M 333.329322 307.584 
L 336.212627 307.584 
L 336.212627 307.455128 
L 333.329322 307.455128 
z
" style="fill:#808080;"/>
   </g>
   <g id="patch_194">
    <path clip-path="url(#p8496af6486)" d="M 336.212627 307.584 
L 339.095933 307.584 
L 339.095933 307.35203 
L 336.212627 307.35203 
z
" style="fill:#808080;"/>
   </g>
   <g id="patch_195">
    <path clip-path="url(#p8496af6486)" d="M 339.095915 307.584 
L 341.979221 307.584 
L 341.979221 307.429353 
L 339.095915 307.429353 
z
" style="fill:#808080;"/>
   </g>
   <g id="patch_196">
    <path clip-path="url(#p8496af6486)" d="M 341.979221 307.584 
L 344.862526 307.584 
L 344.862526 307.506677 
L 341.979221 307.506677 
z
" style="fill:#808080;"/>
   </g>
   <g id="patch_197">
    <path clip-path="url(#p8496af6486)" d="M 344.862509 307.584 
L 347.745814 307.584 
L 347.745814 307.558226 
L 344.862509 307.558226 
z
" style="fill:#808080;"/>
   </g>
   <g id="patch_198">
    <path clip-path="url(#p8496af6486)" d="M 347.745814 307.584 
L 350.629102 307.584 
L 350.629102 307.584 
L 347.745814 307.584 
z
" style="fill:#808080;"/>
   </g>
   <g id="patch_199">
    <path clip-path="url(#p8496af6486)" d="M 350.629102 307.584 
L 353.512407 307.584 
L 353.512407 307.532451 
L 350.629102 307.532451 
z
" style="fill:#808080;"/>
   </g>
   <g id="patch_200">
    <path clip-path="url(#p8496af6486)" d="M 353.51239 307.584 
L 356.395695 307.584 
L 356.395695 307.584 
L 353.51239 307.584 
z
" style="fill:#808080;"/>
   </g>
   <g id="patch_201">
    <path clip-path="url(#p8496af6486)" d="M 356.395695 307.584 
L 359.279001 307.584 
L 359.279001 307.584 
L 356.395695 307.584 
z
" style="fill:#808080;"/>
   </g>
   <g id="patch_202">
    <path clip-path="url(#p8496af6486)" d="M 359.278983 307.584 
L 362.162289 307.584 
L 362.162289 307.558226 
L 359.278983 307.558226 
z
" style="fill:#808080;"/>
   </g>
   <g id="matplotlib.axis_1">
    <g id="xtick_1">
     <g id="line2d_1">
      <defs>
       <path d="M 0 0 
L 0 3.5 
" id="m02c4ab4b86" style="stroke:#000000;stroke-width:0.8;"/>
      </defs>
      <g>
       <use style="stroke:#000000;stroke-width:0.8;" x="84.049129" xlink:href="#m02c4ab4b86" y="307.584"/>
      </g>
     </g>
     <g id="text_1">
      <!-- −150 -->
      <defs>
       <path d="M 10.59375 35.5 
L 73.1875 35.5 
L 73.1875 27.203125 
L 10.59375 27.203125 
z
" id="DejaVuSans-8722"/>
       <path d="M 12.40625 8.296875 
L 28.515625 8.296875 
L 28.515625 63.921875 
L 10.984375 60.40625 
L 10.984375 69.390625 
L 28.421875 72.90625 
L 38.28125 72.90625 
L 38.28125 8.296875 
L 54.390625 8.296875 
L 54.390625 0 
L 12.40625 0 
z
" id="DejaVuSans-49"/>
       <path d="M 10.796875 72.90625 
L 49.515625 72.90625 
L 49.515625 64.59375 
L 19.828125 64.59375 
L 19.828125 46.734375 
Q 21.96875 47.46875 24.109375 47.828125 
Q 26.265625 48.1875 28.421875 48.1875 
Q 40.625 48.1875 47.75 41.5 
Q 54.890625 34.8125 54.890625 23.390625 
Q 54.890625 11.625 47.5625 5.09375 
Q 40.234375 -1.421875 26.90625 -1.421875 
Q 22.3125 -1.421875 17.546875 -0.640625 
Q 12.796875 0.140625 7.71875 1.703125 
L 7.71875 11.625 
Q 12.109375 9.234375 16.796875 8.0625 
Q 21.484375 6.890625 26.703125 6.890625 
Q 35.15625 6.890625 40.078125 11.328125 
Q 45.015625 15.765625 45.015625 23.390625 
Q 45.015625 31 40.078125 35.4375 
Q 35.15625 39.890625 26.703125 39.890625 
Q 22.75 39.890625 18.8125 39.015625 
Q 14.890625 38.140625 10.796875 36.28125 
z
" id="DejaVuSans-53"/>
       <path d="M 31.78125 66.40625 
Q 24.171875 66.40625 20.328125 58.90625 
Q 16.5 51.421875 16.5 36.375 
Q 16.5 21.390625 20.328125 13.890625 
Q 24.171875 6.390625 31.78125 6.390625 
Q 39.453125 6.390625 43.28125 13.890625 
Q 47.125 21.390625 47.125 36.375 
Q 47.125 51.421875 43.28125 58.90625 
Q 39.453125 66.40625 31.78125 66.40625 
z
M 31.78125 74.21875 
Q 44.046875 74.21875 50.515625 64.515625 
Q 56.984375 54.828125 56.984375 36.375 
Q 56.984375 17.96875 50.515625 8.265625 
Q 44.046875 -1.421875 31.78125 -1.421875 
Q 19.53125 -1.421875 13.0625 8.265625 
Q 6.59375 17.96875 6.59375 36.375 
Q 6.59375 54.828125 13.0625 64.515625 
Q 19.53125 74.21875 31.78125 74.21875 
z
" id="DejaVuSans-48"/>
      </defs>
      <g transform="translate(70.315535 322.182437)scale(0.1 -0.1)">
       <use xlink:href="#DejaVuSans-8722"/>
       <use x="83.789062" xlink:href="#DejaVuSans-49"/>
       <use x="147.412109" xlink:href="#DejaVuSans-53"/>
       <use x="211.035156" xlink:href="#DejaVuSans-48"/>
      </g>
     </g>
    </g>
    <g id="xtick_2">
     <g id="line2d_2">
      <g>
       <use style="stroke:#000000;stroke-width:0.8;" x="140.806917" xlink:href="#m02c4ab4b86" y="307.584"/>
      </g>
     </g>
     <g id="text_2">
      <!-- −100 -->
      <g transform="translate(127.073323 322.182437)scale(0.1 -0.1)">
       <use xlink:href="#DejaVuSans-8722"/>
       <use x="83.789062" xlink:href="#DejaVuSans-49"/>
       <use x="147.412109" xlink:href="#DejaVuSans-48"/>
       <use x="211.035156" xlink:href="#DejaVuSans-48"/>
      </g>
     </g>
    </g>
    <g id="xtick_3">
     <g id="line2d_3">
      <g>
       <use style="stroke:#000000;stroke-width:0.8;" x="197.564704" xlink:href="#m02c4ab4b86" y="307.584"/>
      </g>
     </g>
     <g id="text_3">
      <!-- −50 -->
      <g transform="translate(187.012361 322.182437)scale(0.1 -0.1)">
       <use xlink:href="#DejaVuSans-8722"/>
       <use x="83.789062" xlink:href="#DejaVuSans-53"/>
       <use x="147.412109" xlink:href="#DejaVuSans-48"/>
      </g>
     </g>
    </g>
    <g id="xtick_4">
     <g id="line2d_4">
      <g>
       <use style="stroke:#000000;stroke-width:0.8;" x="254.322492" xlink:href="#m02c4ab4b86" y="307.584"/>
      </g>
     </g>
     <g id="text_4">
      <!-- 0 -->
      <g transform="translate(251.141242 322.182437)scale(0.1 -0.1)">
       <use xlink:href="#DejaVuSans-48"/>
      </g>
     </g>
    </g>
    <g id="xtick_5">
     <g id="line2d_5">
      <g>
       <use style="stroke:#000000;stroke-width:0.8;" x="311.08028" xlink:href="#m02c4ab4b86" y="307.584"/>
      </g>
     </g>
     <g id="text_5">
      <!-- 50 -->
      <g transform="translate(304.71778 322.182437)scale(0.1 -0.1)">
       <use xlink:href="#DejaVuSans-53"/>
       <use x="63.623047" xlink:href="#DejaVuSans-48"/>
      </g>
     </g>
    </g>
    <g id="xtick_6">
     <g id="line2d_6">
      <g>
       <use style="stroke:#000000;stroke-width:0.8;" x="367.838067" xlink:href="#m02c4ab4b86" y="307.584"/>
      </g>
     </g>
     <g id="text_6">
      <!-- 100 -->
      <g transform="translate(358.294317 322.182437)scale(0.1 -0.1)">
       <use xlink:href="#DejaVuSans-49"/>
       <use x="63.623047" xlink:href="#DejaVuSans-48"/>
       <use x="127.246094" xlink:href="#DejaVuSans-48"/>
      </g>
     </g>
    </g>
    <g id="text_7">
     <!-- Weight -->
     <defs>
      <path d="M 3.328125 72.90625 
L 13.28125 72.90625 
L 28.609375 11.28125 
L 43.890625 72.90625 
L 54.984375 72.90625 
L 70.3125 11.28125 
L 85.59375 72.90625 
L 95.609375 72.90625 
L 77.296875 0 
L 64.890625 0 
L 49.515625 63.28125 
L 33.984375 0 
L 21.578125 0 
z
" id="DejaVuSans-87"/>
      <path d="M 56.203125 29.59375 
L 56.203125 25.203125 
L 14.890625 25.203125 
Q 15.484375 15.921875 20.484375 11.0625 
Q 25.484375 6.203125 34.421875 6.203125 
Q 39.59375 6.203125 44.453125 7.46875 
Q 49.3125 8.734375 54.109375 11.28125 
L 54.109375 2.78125 
Q 49.265625 0.734375 44.1875 -0.34375 
Q 39.109375 -1.421875 33.890625 -1.421875 
Q 20.796875 -1.421875 13.15625 6.1875 
Q 5.515625 13.8125 5.515625 26.8125 
Q 5.515625 40.234375 12.765625 48.109375 
Q 20.015625 56 32.328125 56 
Q 43.359375 56 49.78125 48.890625 
Q 56.203125 41.796875 56.203125 29.59375 
z
M 47.21875 32.234375 
Q 47.125 39.59375 43.09375 43.984375 
Q 39.0625 48.390625 32.421875 48.390625 
Q 24.90625 48.390625 20.390625 44.140625 
Q 15.875 39.890625 15.1875 32.171875 
z
" id="DejaVuSans-101"/>
      <path d="M 9.421875 54.6875 
L 18.40625 54.6875 
L 18.40625 0 
L 9.421875 0 
z
M 9.421875 75.984375 
L 18.40625 75.984375 
L 18.40625 64.59375 
L 9.421875 64.59375 
z
" id="DejaVuSans-105"/>
      <path d="M 45.40625 27.984375 
Q 45.40625 37.75 41.375 43.109375 
Q 37.359375 48.484375 30.078125 48.484375 
Q 22.859375 48.484375 18.828125 43.109375 
Q 14.796875 37.75 14.796875 27.984375 
Q 14.796875 18.265625 18.828125 12.890625 
Q 22.859375 7.515625 30.078125 7.515625 
Q 37.359375 7.515625 41.375 12.890625 
Q 45.40625 18.265625 45.40625 27.984375 
z
M 54.390625 6.78125 
Q 54.390625 -7.171875 48.1875 -13.984375 
Q 42 -20.796875 29.203125 -20.796875 
Q 24.46875 -20.796875 20.265625 -20.09375 
Q 16.0625 -19.390625 12.109375 -17.921875 
L 12.109375 -9.1875 
Q 16.0625 -11.328125 19.921875 -12.34375 
Q 23.78125 -13.375 27.78125 -13.375 
Q 36.625 -13.375 41.015625 -8.765625 
Q 45.40625 -4.15625 45.40625 5.171875 
L 45.40625 9.625 
Q 42.625 4.78125 38.28125 2.390625 
Q 33.9375 0 27.875 0 
Q 17.828125 0 11.671875 7.65625 
Q 5.515625 15.328125 5.515625 27.984375 
Q 5.515625 40.671875 11.671875 48.328125 
Q 17.828125 56 27.875 56 
Q 33.9375 56 38.28125 53.609375 
Q 42.625 51.21875 45.40625 46.390625 
L 45.40625 54.6875 
L 54.390625 54.6875 
z
" id="DejaVuSans-103"/>
      <path d="M 54.890625 33.015625 
L 54.890625 0 
L 45.90625 0 
L 45.90625 32.71875 
Q 45.90625 40.484375 42.875 44.328125 
Q 39.84375 48.1875 33.796875 48.1875 
Q 26.515625 48.1875 22.3125 43.546875 
Q 18.109375 38.921875 18.109375 30.90625 
L 18.109375 0 
L 9.078125 0 
L 9.078125 75.984375 
L 18.109375 75.984375 
L 18.109375 46.1875 
Q 21.34375 51.125 25.703125 53.5625 
Q 30.078125 56 35.796875 56 
Q 45.21875 56 50.046875 50.171875 
Q 54.890625 44.34375 54.890625 33.015625 
z
" id="DejaVuSans-104"/>
      <path d="M 18.3125 70.21875 
L 18.3125 54.6875 
L 36.8125 54.6875 
L 36.8125 47.703125 
L 18.3125 47.703125 
L 18.3125 18.015625 
Q 18.3125 11.328125 20.140625 9.421875 
Q 21.96875 7.515625 27.59375 7.515625 
L 36.8125 7.515625 
L 36.8125 0 
L 27.59375 0 
Q 17.1875 0 13.234375 3.875 
Q 9.28125 7.765625 9.28125 18.015625 
L 9.28125 47.703125 
L 2.6875 47.703125 
L 2.6875 54.6875 
L 9.28125 54.6875 
L 9.28125 70.21875 
z
" id="DejaVuSans-116"/>
     </defs>
     <g transform="translate(218.451406 335.860562)scale(0.1 -0.1)">
      <use xlink:href="#DejaVuSans-87"/>
      <use x="98.798828" xlink:href="#DejaVuSans-101"/>
      <use x="160.322266" xlink:href="#DejaVuSans-105"/>
      <use x="188.105469" xlink:href="#DejaVuSans-103"/>
      <use x="251.582031" xlink:href="#DejaVuSans-104"/>
      <use x="314.960938" xlink:href="#DejaVuSans-116"/>
     </g>
    </g>
   </g>
   <g id="matplotlib.axis_2">
    <g id="ytick_1">
     <g id="line2d_7">
      <defs>
       <path d="M 0 0 
L -3.5 0 
" id="mdf20f22bad" style="stroke:#000000;stroke-width:0.8;"/>
      </defs>
      <g>
       <use style="stroke:#000000;stroke-width:0.8;" x="57.6" xlink:href="#mdf20f22bad" y="307.584"/>
      </g>
     </g>
     <g id="text_8">
      <!-- 0 -->
      <g transform="translate(44.2375 311.383219)scale(0.1 -0.1)">
       <use xlink:href="#DejaVuSans-48"/>
      </g>
     </g>
    </g>
    <g id="ytick_2">
     <g id="line2d_8">
      <g>
       <use style="stroke:#000000;stroke-width:0.8;" x="57.6" xlink:href="#mdf20f22bad" y="256.035134"/>
      </g>
     </g>
     <g id="text_9">
      <!-- 2000 -->
      <defs>
       <path d="M 19.1875 8.296875 
L 53.609375 8.296875 
L 53.609375 0 
L 7.328125 0 
L 7.328125 8.296875 
Q 12.9375 14.109375 22.625 23.890625 
Q 32.328125 33.6875 34.8125 36.53125 
Q 39.546875 41.84375 41.421875 45.53125 
Q 43.3125 49.21875 43.3125 52.78125 
Q 43.3125 58.59375 39.234375 62.25 
Q 35.15625 65.921875 28.609375 65.921875 
Q 23.96875 65.921875 18.8125 64.3125 
Q 13.671875 62.703125 7.8125 59.421875 
L 7.8125 69.390625 
Q 13.765625 71.78125 18.9375 73 
Q 24.125 74.21875 28.421875 74.21875 
Q 39.75 74.21875 46.484375 68.546875 
Q 53.21875 62.890625 53.21875 53.421875 
Q 53.21875 48.921875 51.53125 44.890625 
Q 49.859375 40.875 45.40625 35.40625 
Q 44.1875 33.984375 37.640625 27.21875 
Q 31.109375 20.453125 19.1875 8.296875 
z
" id="DejaVuSans-50"/>
      </defs>
      <g transform="translate(25.15 259.834353)scale(0.1 -0.1)">
       <use xlink:href="#DejaVuSans-50"/>
       <use x="63.623047" xlink:href="#DejaVuSans-48"/>
       <use x="127.246094" xlink:href="#DejaVuSans-48"/>
       <use x="190.869141" xlink:href="#DejaVuSans-48"/>
      </g>
     </g>
    </g>
    <g id="ytick_3">
     <g id="line2d_9">
      <g>
       <use style="stroke:#000000;stroke-width:0.8;" x="57.6" xlink:href="#mdf20f22bad" y="204.486268"/>
      </g>
     </g>
     <g id="text_10">
      <!-- 4000 -->
      <defs>
       <path d="M 37.796875 64.3125 
L 12.890625 25.390625 
L 37.796875 25.390625 
z
M 35.203125 72.90625 
L 47.609375 72.90625 
L 47.609375 25.390625 
L 58.015625 25.390625 
L 58.015625 17.1875 
L 47.609375 17.1875 
L 47.609375 0 
L 37.796875 0 
L 37.796875 17.1875 
L 4.890625 17.1875 
L 4.890625 26.703125 
z
" id="DejaVuSans-52"/>
      </defs>
      <g transform="translate(25.15 208.285487)scale(0.1 -0.1)">
       <use xlink:href="#DejaVuSans-52"/>
       <use x="63.623047" xlink:href="#DejaVuSans-48"/>
       <use x="127.246094" xlink:href="#DejaVuSans-48"/>
       <use x="190.869141" xlink:href="#DejaVuSans-48"/>
      </g>
     </g>
    </g>
    <g id="ytick_4">
     <g id="line2d_10">
      <g>
       <use style="stroke:#000000;stroke-width:0.8;" x="57.6" xlink:href="#mdf20f22bad" y="152.937402"/>
      </g>
     </g>
     <g id="text_11">
      <!-- 6000 -->
      <defs>
       <path d="M 33.015625 40.375 
Q 26.375 40.375 22.484375 35.828125 
Q 18.609375 31.296875 18.609375 23.390625 
Q 18.609375 15.53125 22.484375 10.953125 
Q 26.375 6.390625 33.015625 6.390625 
Q 39.65625 6.390625 43.53125 10.953125 
Q 47.40625 15.53125 47.40625 23.390625 
Q 47.40625 31.296875 43.53125 35.828125 
Q 39.65625 40.375 33.015625 40.375 
z
M 52.59375 71.296875 
L 52.59375 62.3125 
Q 48.875 64.0625 45.09375 64.984375 
Q 41.3125 65.921875 37.59375 65.921875 
Q 27.828125 65.921875 22.671875 59.328125 
Q 17.53125 52.734375 16.796875 39.40625 
Q 19.671875 43.65625 24.015625 45.921875 
Q 28.375 48.1875 33.59375 48.1875 
Q 44.578125 48.1875 50.953125 41.515625 
Q 57.328125 34.859375 57.328125 23.390625 
Q 57.328125 12.15625 50.6875 5.359375 
Q 44.046875 -1.421875 33.015625 -1.421875 
Q 20.359375 -1.421875 13.671875 8.265625 
Q 6.984375 17.96875 6.984375 36.375 
Q 6.984375 53.65625 15.1875 63.9375 
Q 23.390625 74.21875 37.203125 74.21875 
Q 40.921875 74.21875 44.703125 73.484375 
Q 48.484375 72.75 52.59375 71.296875 
z
" id="DejaVuSans-54"/>
      </defs>
      <g transform="translate(25.15 156.736621)scale(0.1 -0.1)">
       <use xlink:href="#DejaVuSans-54"/>
       <use x="63.623047" xlink:href="#DejaVuSans-48"/>
       <use x="127.246094" xlink:href="#DejaVuSans-48"/>
       <use x="190.869141" xlink:href="#DejaVuSans-48"/>
      </g>
     </g>
    </g>
    <g id="ytick_5">
     <g id="line2d_11">
      <g>
       <use style="stroke:#000000;stroke-width:0.8;" x="57.6" xlink:href="#mdf20f22bad" y="101.388536"/>
      </g>
     </g>
     <g id="text_12">
      <!-- 8000 -->
      <defs>
       <path d="M 31.78125 34.625 
Q 24.75 34.625 20.71875 30.859375 
Q 16.703125 27.09375 16.703125 20.515625 
Q 16.703125 13.921875 20.71875 10.15625 
Q 24.75 6.390625 31.78125 6.390625 
Q 38.8125 6.390625 42.859375 10.171875 
Q 46.921875 13.96875 46.921875 20.515625 
Q 46.921875 27.09375 42.890625 30.859375 
Q 38.875 34.625 31.78125 34.625 
z
M 21.921875 38.8125 
Q 15.578125 40.375 12.03125 44.71875 
Q 8.5 49.078125 8.5 55.328125 
Q 8.5 64.0625 14.71875 69.140625 
Q 20.953125 74.21875 31.78125 74.21875 
Q 42.671875 74.21875 48.875 69.140625 
Q 55.078125 64.0625 55.078125 55.328125 
Q 55.078125 49.078125 51.53125 44.71875 
Q 48 40.375 41.703125 38.8125 
Q 48.828125 37.15625 52.796875 32.3125 
Q 56.78125 27.484375 56.78125 20.515625 
Q 56.78125 9.90625 50.3125 4.234375 
Q 43.84375 -1.421875 31.78125 -1.421875 
Q 19.734375 -1.421875 13.25 4.234375 
Q 6.78125 9.90625 6.78125 20.515625 
Q 6.78125 27.484375 10.78125 32.3125 
Q 14.796875 37.15625 21.921875 38.8125 
z
M 18.3125 54.390625 
Q 18.3125 48.734375 21.84375 45.5625 
Q 25.390625 42.390625 31.78125 42.390625 
Q 38.140625 42.390625 41.71875 45.5625 
Q 45.3125 48.734375 45.3125 54.390625 
Q 45.3125 60.0625 41.71875 63.234375 
Q 38.140625 66.40625 31.78125 66.40625 
Q 25.390625 66.40625 21.84375 63.234375 
Q 18.3125 60.0625 18.3125 54.390625 
z
" id="DejaVuSans-56"/>
      </defs>
      <g transform="translate(25.15 105.187754)scale(0.1 -0.1)">
       <use xlink:href="#DejaVuSans-56"/>
       <use x="63.623047" xlink:href="#DejaVuSans-48"/>
       <use x="127.246094" xlink:href="#DejaVuSans-48"/>
       <use x="190.869141" xlink:href="#DejaVuSans-48"/>
      </g>
     </g>
    </g>
    <g id="ytick_6">
     <g id="line2d_12">
      <g>
       <use style="stroke:#000000;stroke-width:0.8;" x="57.6" xlink:href="#mdf20f22bad" y="49.83967"/>
      </g>
     </g>
     <g id="text_13">
      <!-- 10000 -->
      <g transform="translate(18.7875 53.638888)scale(0.1 -0.1)">
       <use xlink:href="#DejaVuSans-49"/>
       <use x="63.623047" xlink:href="#DejaVuSans-48"/>
       <use x="127.246094" xlink:href="#DejaVuSans-48"/>
       <use x="190.869141" xlink:href="#DejaVuSans-48"/>
       <use x="254.492188" xlink:href="#DejaVuSans-48"/>
      </g>
     </g>
    </g>
    <g id="text_14">
     <!-- Occurrencies -->
     <defs>
      <path d="M 39.40625 66.21875 
Q 28.65625 66.21875 22.328125 58.203125 
Q 16.015625 50.203125 16.015625 36.375 
Q 16.015625 22.609375 22.328125 14.59375 
Q 28.65625 6.59375 39.40625 6.59375 
Q 50.140625 6.59375 56.421875 14.59375 
Q 62.703125 22.609375 62.703125 36.375 
Q 62.703125 50.203125 56.421875 58.203125 
Q 50.140625 66.21875 39.40625 66.21875 
z
M 39.40625 74.21875 
Q 54.734375 74.21875 63.90625 63.9375 
Q 73.09375 53.65625 73.09375 36.375 
Q 73.09375 19.140625 63.90625 8.859375 
Q 54.734375 -1.421875 39.40625 -1.421875 
Q 24.03125 -1.421875 14.8125 8.828125 
Q 5.609375 19.09375 5.609375 36.375 
Q 5.609375 53.65625 14.8125 63.9375 
Q 24.03125 74.21875 39.40625 74.21875 
z
" id="DejaVuSans-79"/>
      <path d="M 48.78125 52.59375 
L 48.78125 44.1875 
Q 44.96875 46.296875 41.140625 47.34375 
Q 37.3125 48.390625 33.40625 48.390625 
Q 24.65625 48.390625 19.8125 42.84375 
Q 14.984375 37.3125 14.984375 27.296875 
Q 14.984375 17.28125 19.8125 11.734375 
Q 24.65625 6.203125 33.40625 6.203125 
Q 37.3125 6.203125 41.140625 7.25 
Q 44.96875 8.296875 48.78125 10.40625 
L 48.78125 2.09375 
Q 45.015625 0.34375 40.984375 -0.53125 
Q 36.96875 -1.421875 32.421875 -1.421875 
Q 20.0625 -1.421875 12.78125 6.34375 
Q 5.515625 14.109375 5.515625 27.296875 
Q 5.515625 40.671875 12.859375 48.328125 
Q 20.21875 56 33.015625 56 
Q 37.15625 56 41.109375 55.140625 
Q 45.0625 54.296875 48.78125 52.59375 
z
" id="DejaVuSans-99"/>
      <path d="M 8.5 21.578125 
L 8.5 54.6875 
L 17.484375 54.6875 
L 17.484375 21.921875 
Q 17.484375 14.15625 20.5 10.265625 
Q 23.53125 6.390625 29.59375 6.390625 
Q 36.859375 6.390625 41.078125 11.03125 
Q 45.3125 15.671875 45.3125 23.6875 
L 45.3125 54.6875 
L 54.296875 54.6875 
L 54.296875 0 
L 45.3125 0 
L 45.3125 8.40625 
Q 42.046875 3.421875 37.71875 1 
Q 33.40625 -1.421875 27.6875 -1.421875 
Q 18.265625 -1.421875 13.375 4.4375 
Q 8.5 10.296875 8.5 21.578125 
z
M 31.109375 56 
z
" id="DejaVuSans-117"/>
      <path d="M 41.109375 46.296875 
Q 39.59375 47.171875 37.8125 47.578125 
Q 36.03125 48 33.890625 48 
Q 26.265625 48 22.1875 43.046875 
Q 18.109375 38.09375 18.109375 28.8125 
L 18.109375 0 
L 9.078125 0 
L 9.078125 54.6875 
L 18.109375 54.6875 
L 18.109375 46.1875 
Q 20.953125 51.171875 25.484375 53.578125 
Q 30.03125 56 36.53125 56 
Q 37.453125 56 38.578125 55.875 
Q 39.703125 55.765625 41.0625 55.515625 
z
" id="DejaVuSans-114"/>
      <path d="M 54.890625 33.015625 
L 54.890625 0 
L 45.90625 0 
L 45.90625 32.71875 
Q 45.90625 40.484375 42.875 44.328125 
Q 39.84375 48.1875 33.796875 48.1875 
Q 26.515625 48.1875 22.3125 43.546875 
Q 18.109375 38.921875 18.109375 30.90625 
L 18.109375 0 
L 9.078125 0 
L 9.078125 54.6875 
L 18.109375 54.6875 
L 18.109375 46.1875 
Q 21.34375 51.125 25.703125 53.5625 
Q 30.078125 56 35.796875 56 
Q 45.21875 56 50.046875 50.171875 
Q 54.890625 44.34375 54.890625 33.015625 
z
" id="DejaVuSans-110"/>
      <path d="M 44.28125 53.078125 
L 44.28125 44.578125 
Q 40.484375 46.53125 36.375 47.5 
Q 32.28125 48.484375 27.875 48.484375 
Q 21.1875 48.484375 17.84375 46.4375 
Q 14.5 44.390625 14.5 40.28125 
Q 14.5 37.15625 16.890625 35.375 
Q 19.28125 33.59375 26.515625 31.984375 
L 29.59375 31.296875 
Q 39.15625 29.25 43.1875 25.515625 
Q 47.21875 21.78125 47.21875 15.09375 
Q 47.21875 7.46875 41.1875 3.015625 
Q 35.15625 -1.421875 24.609375 -1.421875 
Q 20.21875 -1.421875 15.453125 -0.5625 
Q 10.6875 0.296875 5.421875 2 
L 5.421875 11.28125 
Q 10.40625 8.6875 15.234375 7.390625 
Q 20.0625 6.109375 24.8125 6.109375 
Q 31.15625 6.109375 34.5625 8.28125 
Q 37.984375 10.453125 37.984375 14.40625 
Q 37.984375 18.0625 35.515625 20.015625 
Q 33.0625 21.96875 24.703125 23.78125 
L 21.578125 24.515625 
Q 13.234375 26.265625 9.515625 29.90625 
Q 5.8125 33.546875 5.8125 39.890625 
Q 5.8125 47.609375 11.28125 51.796875 
Q 16.75 56 26.8125 56 
Q 31.78125 56 36.171875 55.265625 
Q 40.578125 54.546875 44.28125 53.078125 
z
" id="DejaVuSans-115"/>
     </defs>
     <g transform="translate(12.707812 207.304563)rotate(-90)scale(0.1 -0.1)">
      <use xlink:href="#DejaVuSans-79"/>
      <use x="78.710938" xlink:href="#DejaVuSans-99"/>
      <use x="133.691406" xlink:href="#DejaVuSans-99"/>
      <use x="188.671875" xlink:href="#DejaVuSans-117"/>
      <use x="252.050781" xlink:href="#DejaVuSans-114"/>
      <use x="293.148438" xlink:href="#DejaVuSans-114"/>
      <use x="334.230469" xlink:href="#DejaVuSans-101"/>
      <use x="395.753906" xlink:href="#DejaVuSans-110"/>
      <use x="459.132812" xlink:href="#DejaVuSans-99"/>
      <use x="514.113281" xlink:href="#DejaVuSans-105"/>
      <use x="541.896484" xlink:href="#DejaVuSans-101"/>
      <use x="603.419922" xlink:href="#DejaVuSans-115"/>
     </g>
    </g>
   </g>
   <g id="patch_203">
    <path d="M 57.6 307.584 
L 57.6 41.472 
" style="fill:none;stroke:#000000;stroke-linecap:square;stroke-linejoin:miter;stroke-width:0.8;"/>
   </g>
   <g id="patch_204">
    <path d="M 414.72 307.584 
L 414.72 41.472 
" style="fill:none;stroke:#000000;stroke-linecap:square;stroke-linejoin:miter;stroke-width:0.8;"/>
   </g>
   <g id="patch_205">
    <path d="M 57.6 307.584 
L 414.72 307.584 
" style="fill:none;stroke:#000000;stroke-linecap:square;stroke-linejoin:miter;stroke-width:0.8;"/>
   </g>
   <g id="patch_206">
    <path d="M 57.6 41.472 
L 414.72 41.472 
" style="fill:none;stroke:#000000;stroke-linecap:square;stroke-linejoin:miter;stroke-width:0.8;"/>
   </g>
   <g id="text_15">
    <!-- Histogram of fc1 -->
    <defs>
     <path d="M 9.8125 72.90625 
L 19.671875 72.90625 
L 19.671875 43.015625 
L 55.515625 43.015625 
L 55.515625 72.90625 
L 65.375 72.90625 
L 65.375 0 
L 55.515625 0 
L 55.515625 34.71875 
L 19.671875 34.71875 
L 19.671875 0 
L 9.8125 0 
z
" id="DejaVuSans-72"/>
     <path d="M 30.609375 48.390625 
Q 23.390625 48.390625 19.1875 42.75 
Q 14.984375 37.109375 14.984375 27.296875 
Q 14.984375 17.484375 19.15625 11.84375 
Q 23.34375 6.203125 30.609375 6.203125 
Q 37.796875 6.203125 41.984375 11.859375 
Q 46.1875 17.53125 46.1875 27.296875 
Q 46.1875 37.015625 41.984375 42.703125 
Q 37.796875 48.390625 30.609375 48.390625 
z
M 30.609375 56 
Q 42.328125 56 49.015625 48.375 
Q 55.71875 40.765625 55.71875 27.296875 
Q 55.71875 13.875 49.015625 6.21875 
Q 42.328125 -1.421875 30.609375 -1.421875 
Q 18.84375 -1.421875 12.171875 6.21875 
Q 5.515625 13.875 5.515625 27.296875 
Q 5.515625 40.765625 12.171875 48.375 
Q 18.84375 56 30.609375 56 
z
" id="DejaVuSans-111"/>
     <path d="M 34.28125 27.484375 
Q 23.390625 27.484375 19.1875 25 
Q 14.984375 22.515625 14.984375 16.5 
Q 14.984375 11.71875 18.140625 8.90625 
Q 21.296875 6.109375 26.703125 6.109375 
Q 34.1875 6.109375 38.703125 11.40625 
Q 43.21875 16.703125 43.21875 25.484375 
L 43.21875 27.484375 
z
M 52.203125 31.203125 
L 52.203125 0 
L 43.21875 0 
L 43.21875 8.296875 
Q 40.140625 3.328125 35.546875 0.953125 
Q 30.953125 -1.421875 24.3125 -1.421875 
Q 15.921875 -1.421875 10.953125 3.296875 
Q 6 8.015625 6 15.921875 
Q 6 25.140625 12.171875 29.828125 
Q 18.359375 34.515625 30.609375 34.515625 
L 43.21875 34.515625 
L 43.21875 35.40625 
Q 43.21875 41.609375 39.140625 45 
Q 35.0625 48.390625 27.6875 48.390625 
Q 23 48.390625 18.546875 47.265625 
Q 14.109375 46.140625 10.015625 43.890625 
L 10.015625 52.203125 
Q 14.9375 54.109375 19.578125 55.046875 
Q 24.21875 56 28.609375 56 
Q 40.484375 56 46.34375 49.84375 
Q 52.203125 43.703125 52.203125 31.203125 
z
" id="DejaVuSans-97"/>
     <path d="M 52 44.1875 
Q 55.375 50.25 60.0625 53.125 
Q 64.75 56 71.09375 56 
Q 79.640625 56 84.28125 50.015625 
Q 88.921875 44.046875 88.921875 33.015625 
L 88.921875 0 
L 79.890625 0 
L 79.890625 32.71875 
Q 79.890625 40.578125 77.09375 44.375 
Q 74.3125 48.1875 68.609375 48.1875 
Q 61.625 48.1875 57.5625 43.546875 
Q 53.515625 38.921875 53.515625 30.90625 
L 53.515625 0 
L 44.484375 0 
L 44.484375 32.71875 
Q 44.484375 40.625 41.703125 44.40625 
Q 38.921875 48.1875 33.109375 48.1875 
Q 26.21875 48.1875 22.15625 43.53125 
Q 18.109375 38.875 18.109375 30.90625 
L 18.109375 0 
L 9.078125 0 
L 9.078125 54.6875 
L 18.109375 54.6875 
L 18.109375 46.1875 
Q 21.1875 51.21875 25.484375 53.609375 
Q 29.78125 56 35.6875 56 
Q 41.65625 56 45.828125 52.96875 
Q 50 49.953125 52 44.1875 
z
" id="DejaVuSans-109"/>
     <path id="DejaVuSans-32"/>
     <path d="M 37.109375 75.984375 
L 37.109375 68.5 
L 28.515625 68.5 
Q 23.6875 68.5 21.796875 66.546875 
Q 19.921875 64.59375 19.921875 59.515625 
L 19.921875 54.6875 
L 34.71875 54.6875 
L 34.71875 47.703125 
L 19.921875 47.703125 
L 19.921875 0 
L 10.890625 0 
L 10.890625 47.703125 
L 2.296875 47.703125 
L 2.296875 54.6875 
L 10.890625 54.6875 
L 10.890625 58.5 
Q 10.890625 67.625 15.140625 71.796875 
Q 19.390625 75.984375 28.609375 75.984375 
z
" id="DejaVuSans-102"/>
    </defs>
    <g transform="translate(186.209063 35.472)scale(0.12 -0.12)">
     <use xlink:href="#DejaVuSans-72"/>
     <use x="75.195312" xlink:href="#DejaVuSans-105"/>
     <use x="102.978516" xlink:href="#DejaVuSans-115"/>
     <use x="155.078125" xlink:href="#DejaVuSans-116"/>
     <use x="194.287109" xlink:href="#DejaVuSans-111"/>
     <use x="255.46875" xlink:href="#DejaVuSans-103"/>
     <use x="318.945312" xlink:href="#DejaVuSans-114"/>
     <use x="360.058594" xlink:href="#DejaVuSans-97"/>
     <use x="421.337891" xlink:href="#DejaVuSans-109"/>
     <use x="518.75" xlink:href="#DejaVuSans-32"/>
     <use x="550.537109" xlink:href="#DejaVuSans-111"/>
     <use x="611.71875" xlink:href="#DejaVuSans-102"/>
     <use x="646.923828" xlink:href="#DejaVuSans-32"/>
     <use x="678.710938" xlink:href="#DejaVuSans-102"/>
     <use x="713.916016" xlink:href="#DejaVuSans-99"/>
     <use x="768.896484" xlink:href="#DejaVuSans-49"/>
    </g>
   </g>
   <g id="legend_1">
    <g id="patch_207">
     <path d="M 323.679375 78.82825 
L 407.72 78.82825 
Q 409.72 78.82825 409.72 76.82825 
L 409.72 48.472 
Q 409.72 46.472 407.72 46.472 
L 323.679375 46.472 
Q 321.679375 46.472 321.679375 48.472 
L 321.679375 76.82825 
Q 321.679375 78.82825 323.679375 78.82825 
z
" style="fill:#ffffff;opacity:0.8;stroke:#cccccc;stroke-linejoin:miter;"/>
    </g>
    <g id="patch_208">
     <path d="M 325.679375 58.070437 
L 345.679375 58.070437 
L 345.679375 51.070437 
L 325.679375 51.070437 
z
" style="fill:#0000ff;"/>
    </g>
    <g id="text_16">
     <!-- unmasked -->
     <defs>
      <path d="M 9.078125 75.984375 
L 18.109375 75.984375 
L 18.109375 31.109375 
L 44.921875 54.6875 
L 56.390625 54.6875 
L 27.390625 29.109375 
L 57.625 0 
L 45.90625 0 
L 18.109375 26.703125 
L 18.109375 0 
L 9.078125 0 
z
" id="DejaVuSans-107"/>
      <path d="M 45.40625 46.390625 
L 45.40625 75.984375 
L 54.390625 75.984375 
L 54.390625 0 
L 45.40625 0 
L 45.40625 8.203125 
Q 42.578125 3.328125 38.25 0.953125 
Q 33.9375 -1.421875 27.875 -1.421875 
Q 17.96875 -1.421875 11.734375 6.484375 
Q 5.515625 14.40625 5.515625 27.296875 
Q 5.515625 40.1875 11.734375 48.09375 
Q 17.96875 56 27.875 56 
Q 33.9375 56 38.25 53.625 
Q 42.578125 51.265625 45.40625 46.390625 
z
M 14.796875 27.296875 
Q 14.796875 17.390625 18.875 11.75 
Q 22.953125 6.109375 30.078125 6.109375 
Q 37.203125 6.109375 41.296875 11.75 
Q 45.40625 17.390625 45.40625 27.296875 
Q 45.40625 37.203125 41.296875 42.84375 
Q 37.203125 48.484375 30.078125 48.484375 
Q 22.953125 48.484375 18.875 42.84375 
Q 14.796875 37.203125 14.796875 27.296875 
z
" id="DejaVuSans-100"/>
     </defs>
     <g transform="translate(353.679375 58.070437)scale(0.1 -0.1)">
      <use xlink:href="#DejaVuSans-117"/>
      <use x="63.378906" xlink:href="#DejaVuSans-110"/>
      <use x="126.757812" xlink:href="#DejaVuSans-109"/>
      <use x="224.169922" xlink:href="#DejaVuSans-97"/>
      <use x="285.449219" xlink:href="#DejaVuSans-115"/>
      <use x="337.548828" xlink:href="#DejaVuSans-107"/>
      <use x="395.412109" xlink:href="#DejaVuSans-101"/>
      <use x="456.935547" xlink:href="#DejaVuSans-100"/>
     </g>
    </g>
    <g id="patch_209">
     <path d="M 325.679375 72.748562 
L 345.679375 72.748562 
L 345.679375 65.748562 
L 325.679375 65.748562 
z
" style="fill:#808080;"/>
    </g>
    <g id="text_17">
     <!-- masked -->
     <g transform="translate(353.679375 72.748562)scale(0.1 -0.1)">
      <use xlink:href="#DejaVuSans-109"/>
      <use x="97.412109" xlink:href="#DejaVuSans-97"/>
      <use x="158.691406" xlink:href="#DejaVuSans-115"/>
      <use x="210.791016" xlink:href="#DejaVuSans-107"/>
      <use x="268.654297" xlink:href="#DejaVuSans-101"/>
      <use x="330.177734" xlink:href="#DejaVuSans-100"/>
     </g>
    </g>
   </g>
  </g>
 </g>
 <defs>
  <clipPath id="p8496af6486">
   <rect height="266.112" width="357.12" x="57.6" y="41.472"/>
  </clipPath>
 </defs>
</svg>
