<?xml version="1.0" encoding="utf-8" standalone="no"?>
<!DOCTYPE svg PUBLIC "-//W3C//DTD SVG 1.1//EN"
  "http://www.w3.org/Graphics/SVG/1.1/DTD/svg11.dtd">
<!-- Created with matplotlib (https://matplotlib.org/) -->
<svg height="345.6pt" version="1.1" viewBox="0 0 460.8 345.6" width="460.8pt" xmlns="http://www.w3.org/2000/svg" xmlns:xlink="http://www.w3.org/1999/xlink">
 <defs>
  <style type="text/css">
*{stroke-linecap:butt;stroke-linejoin:round;}
  </style>
 </defs>
 <g id="figure_1">
  <g id="patch_1">
   <path d="M 0 345.6 
L 460.8 345.6 
L 460.8 0 
L 0 0 
z
" style="fill:#ffffff;"/>
  </g>
  <g id="axes_1">
   <g id="patch_2">
    <path d="M 57.6 307.584 
L 414.72 307.584 
L 414.72 41.472 
L 57.6 41.472 
z
" style="fill:#ffffff;"/>
   </g>
   <g id="patch_3">
    <path clip-path="url(#p16a918ddfc)" d="M 164.625944 307.584 
L 166.964557 307.584 
L 166.964557 307.267068 
L 164.625944 307.267068 
z
" style="fill:#0000ff;"/>
   </g>
   <g id="patch_4">
    <path clip-path="url(#p16a918ddfc)" d="M 166.964557 307.584 
L 169.303169 307.584 
L 169.303169 307.478356 
L 166.964557 307.478356 
z
" style="fill:#0000ff;"/>
   </g>
   <g id="patch_5">
    <path clip-path="url(#p16a918ddfc)" d="M 169.30317 307.584 
L 171.641783 307.584 
L 171.641783 307.584 
L 169.30317 307.584 
z
" style="fill:#0000ff;"/>
   </g>
   <g id="patch_6">
    <path clip-path="url(#p16a918ddfc)" d="M 171.641784 307.584 
L 173.980397 307.584 
L 173.980397 307.478356 
L 171.641784 307.478356 
z
" style="fill:#0000ff;"/>
   </g>
   <g id="patch_7">
    <path clip-path="url(#p16a918ddfc)" d="M 173.980397 307.584 
L 176.31901 307.584 
L 176.31901 307.584 
L 173.980397 307.584 
z
" style="fill:#0000ff;"/>
   </g>
   <g id="patch_8">
    <path clip-path="url(#p16a918ddfc)" d="M 176.319009 307.584 
L 178.657623 307.584 
L 178.657623 307.478356 
L 176.319009 307.478356 
z
" style="fill:#0000ff;"/>
   </g>
   <g id="patch_9">
    <path clip-path="url(#p16a918ddfc)" d="M 178.657624 307.584 
L 180.996238 307.584 
L 180.996238 307.372712 
L 178.657624 307.372712 
z
" style="fill:#0000ff;"/>
   </g>
   <g id="patch_10">
    <path clip-path="url(#p16a918ddfc)" d="M 180.996236 307.584 
L 183.334849 307.584 
L 183.334849 307.05578 
L 180.996236 307.05578 
z
" style="fill:#0000ff;"/>
   </g>
   <g id="patch_11">
    <path clip-path="url(#p16a918ddfc)" d="M 183.334847 307.584 
L 185.673461 307.584 
L 185.673461 307.267068 
L 183.334847 307.267068 
z
" style="fill:#0000ff;"/>
   </g>
   <g id="patch_12">
    <path clip-path="url(#p16a918ddfc)" d="M 185.673463 307.584 
L 188.012075 307.584 
L 188.012075 307.478356 
L 185.673463 307.478356 
z
" style="fill:#0000ff;"/>
   </g>
   <g id="patch_13">
    <path clip-path="url(#p16a918ddfc)" d="M 188.012075 307.584 
L 190.350688 307.584 
L 190.350688 306.950136 
L 188.012075 306.950136 
z
" style="fill:#0000ff;"/>
   </g>
   <g id="patch_14">
    <path clip-path="url(#p16a918ddfc)" d="M 190.350688 307.584 
L 192.689302 307.584 
L 192.689302 307.267068 
L 190.350688 307.267068 
z
" style="fill:#0000ff;"/>
   </g>
   <g id="patch_15">
    <path clip-path="url(#p16a918ddfc)" d="M 192.6893 307.584 
L 195.027916 307.584 
L 195.027916 307.161424 
L 192.6893 307.161424 
z
" style="fill:#0000ff;"/>
   </g>
   <g id="patch_16">
    <path clip-path="url(#p16a918ddfc)" d="M 195.027916 307.584 
L 197.366529 307.584 
L 197.366529 306.950136 
L 195.027916 306.950136 
z
" style="fill:#0000ff;"/>
   </g>
   <g id="patch_17">
    <path clip-path="url(#p16a918ddfc)" d="M 197.366525 307.584 
L 199.705137 307.584 
L 199.705137 306.316272 
L 197.366525 306.316272 
z
" style="fill:#0000ff;"/>
   </g>
   <g id="patch_18">
    <path clip-path="url(#p16a918ddfc)" d="M 199.705141 307.584 
L 202.043753 307.584 
L 202.043753 306.738848 
L 199.705141 306.738848 
z
" style="fill:#0000ff;"/>
   </g>
   <g id="patch_19">
    <path clip-path="url(#p16a918ddfc)" d="M 202.04375 307.584 
L 204.382362 307.584 
L 204.382362 306.52756 
L 202.04375 306.52756 
z
" style="fill:#0000ff;"/>
   </g>
   <g id="patch_20">
    <path clip-path="url(#p16a918ddfc)" d="M 204.382366 307.584 
L 206.720982 307.584 
L 206.720982 307.05578 
L 204.382366 307.05578 
z
" style="fill:#0000ff;"/>
   </g>
   <g id="patch_21">
    <path clip-path="url(#p16a918ddfc)" d="M 206.720982 307.584 
L 209.059594 307.584 
L 209.059594 306.104984 
L 206.720982 306.104984 
z
" style="fill:#0000ff;"/>
   </g>
   <g id="patch_22">
    <path clip-path="url(#p16a918ddfc)" d="M 209.059591 307.584 
L 211.398203 307.584 
L 211.398203 306.421916 
L 209.059591 306.421916 
z
" style="fill:#0000ff;"/>
   </g>
   <g id="patch_23">
    <path clip-path="url(#p16a918ddfc)" d="M 211.398207 307.584 
L 213.736819 307.584 
L 213.736819 306.104984 
L 211.398207 306.104984 
z
" style="fill:#0000ff;"/>
   </g>
   <g id="patch_24">
    <path clip-path="url(#p16a918ddfc)" d="M 213.736816 307.584 
L 216.075428 307.584 
L 216.075428 304.414679 
L 213.736816 304.414679 
z
" style="fill:#0000ff;"/>
   </g>
   <g id="patch_25">
    <path clip-path="url(#p16a918ddfc)" d="M 216.075432 307.584 
L 218.414048 307.584 
L 218.414048 305.47112 
L 216.075432 305.47112 
z
" style="fill:#0000ff;"/>
   </g>
   <g id="patch_26">
    <path clip-path="url(#p16a918ddfc)" d="M 218.414048 307.584 
L 220.75266 307.584 
L 220.75266 304.625967 
L 218.414048 304.625967 
z
" style="fill:#0000ff;"/>
   </g>
   <g id="patch_27">
    <path clip-path="url(#p16a918ddfc)" d="M 220.752657 307.584 
L 223.091269 307.584 
L 223.091269 305.47112 
L 220.752657 305.47112 
z
" style="fill:#0000ff;"/>
   </g>
   <g id="patch_28">
    <path clip-path="url(#p16a918ddfc)" d="M 223.091272 307.584 
L 225.429888 307.584 
L 225.429888 304.520323 
L 223.091272 304.520323 
z
" style="fill:#0000ff;"/>
   </g>
   <g id="patch_29">
    <path clip-path="url(#p16a918ddfc)" d="M 225.429888 307.584 
L 227.768497 307.584 
L 227.768497 304.837256 
L 225.429888 304.837256 
z
" style="fill:#0000ff;"/>
   </g>
   <g id="patch_30">
    <path clip-path="url(#p16a918ddfc)" d="M 227.768497 307.584 
L 230.107113 307.584 
L 230.107113 303.146951 
L 227.768497 303.146951 
z
" style="fill:#0000ff;"/>
   </g>
   <g id="patch_31">
    <path clip-path="url(#p16a918ddfc)" d="M 230.10712 307.584 
L 232.445729 307.584 
L 232.445729 305.048544 
L 230.10712 305.048544 
z
" style="fill:#0000ff;"/>
   </g>
   <g id="patch_32">
    <path clip-path="url(#p16a918ddfc)" d="M 232.445722 307.584 
L 234.784338 307.584 
L 234.784338 301.773579 
L 232.445722 301.773579 
z
" style="fill:#0000ff;"/>
   </g>
   <g id="patch_33">
    <path clip-path="url(#p16a918ddfc)" d="M 234.784338 307.584 
L 237.122954 307.584 
L 237.122954 302.301799 
L 234.784338 302.301799 
z
" style="fill:#0000ff;"/>
   </g>
   <g id="patch_34">
    <path clip-path="url(#p16a918ddfc)" d="M 237.122954 307.584 
L 239.461563 307.584 
L 239.461563 301.879223 
L 237.122954 301.879223 
z
" style="fill:#0000ff;"/>
   </g>
   <g id="patch_35">
    <path clip-path="url(#p16a918ddfc)" d="M 239.461563 307.584 
L 241.800179 307.584 
L 241.800179 299.977631 
L 239.461563 299.977631 
z
" style="fill:#0000ff;"/>
   </g>
   <g id="patch_36">
    <path clip-path="url(#p16a918ddfc)" d="M 241.800186 307.584 
L 244.138795 307.584 
L 244.138795 302.090511 
L 241.800186 302.090511 
z
" style="fill:#0000ff;"/>
   </g>
   <g id="patch_37">
    <path clip-path="url(#p16a918ddfc)" d="M 244.138788 307.584 
L 246.477404 307.584 
L 246.477404 297.230886 
L 244.138788 297.230886 
z
" style="fill:#0000ff;"/>
   </g>
   <g id="patch_38">
    <path clip-path="url(#p16a918ddfc)" d="M 246.477404 307.584 
L 248.81602 307.584 
L 248.81602 300.083275 
L 246.477404 300.083275 
z
" style="fill:#0000ff;"/>
   </g>
   <g id="patch_39">
    <path clip-path="url(#p16a918ddfc)" d="M 248.81602 307.584 
L 251.154629 307.584 
L 251.154629 294.589786 
L 248.81602 294.589786 
z
" style="fill:#0000ff;"/>
   </g>
   <g id="patch_40">
    <path clip-path="url(#p16a918ddfc)" d="M 251.154629 307.584 
L 253.493245 307.584 
L 253.493245 298.709902 
L 251.154629 298.709902 
z
" style="fill:#0000ff;"/>
   </g>
   <g id="patch_41">
    <path clip-path="url(#p16a918ddfc)" d="M 253.493252 307.584 
L 255.831861 307.584 
L 255.831861 292.899481 
L 253.493252 292.899481 
z
" style="fill:#0000ff;"/>
   </g>
   <g id="patch_42">
    <path clip-path="url(#p16a918ddfc)" d="M 255.831854 307.584 
L 258.17047 307.584 
L 258.17047 297.653462 
L 255.831854 297.653462 
z
" style="fill:#0000ff;"/>
   </g>
   <g id="patch_43">
    <path clip-path="url(#p16a918ddfc)" d="M 258.17047 307.584 
L 260.509086 307.584 
L 260.509086 288.885009 
L 258.17047 288.885009 
z
" style="fill:#0000ff;"/>
   </g>
   <g id="patch_44">
    <path clip-path="url(#p16a918ddfc)" d="M 260.509086 307.584 
L 262.847695 307.584 
L 262.847695 287.617281 
L 260.509086 287.617281 
z
" style="fill:#0000ff;"/>
   </g>
   <g id="patch_45">
    <path clip-path="url(#p16a918ddfc)" d="M 262.847695 307.584 
L 265.186311 307.584 
L 265.186311 289.941449 
L 262.847695 289.941449 
z
" style="fill:#0000ff;"/>
   </g>
   <g id="patch_46">
    <path clip-path="url(#p16a918ddfc)" d="M 265.186318 307.584 
L 267.524927 307.584 
L 267.524927 263.636088 
L 265.186318 263.636088 
z
" style="fill:#0000ff;"/>
   </g>
   <g id="patch_47">
    <path clip-path="url(#p16a918ddfc)" d="M 267.52492 307.584 
L 269.863535 307.584 
L 269.863535 252.860398 
L 267.52492 252.860398 
z
" style="fill:#0000ff;"/>
   </g>
   <g id="patch_48">
    <path clip-path="url(#p16a918ddfc)" d="M 269.863535 307.584 
L 272.202151 307.584 
L 272.202151 209.229419 
L 269.863535 209.229419 
z
" style="fill:#0000ff;"/>
   </g>
   <g id="patch_49">
    <path clip-path="url(#p16a918ddfc)" d="M 272.202151 307.584 
L 274.54076 307.584 
L 274.54076 236.59122 
L 272.202151 236.59122 
z
" style="fill:#0000ff;"/>
   </g>
   <g id="patch_50">
    <path clip-path="url(#p16a918ddfc)" d="M 274.54076 307.584 
L 276.879376 307.584 
L 276.879376 193.171528 
L 274.54076 193.171528 
z
" style="fill:#0000ff;"/>
   </g>
   <g id="patch_51">
    <path clip-path="url(#p16a918ddfc)" d="M 276.879383 307.584 
L 279.217992 307.584 
L 279.217992 237.542016 
L 276.879383 237.542016 
z
" style="fill:#0000ff;"/>
   </g>
   <g id="patch_52">
    <path clip-path="url(#p16a918ddfc)" d="M 279.217985 307.584 
L 281.556601 307.584 
L 281.556601 203.313354 
L 279.217985 203.313354 
z
" style="fill:#0000ff;"/>
   </g>
   <g id="patch_53">
    <path clip-path="url(#p16a918ddfc)" d="M 281.556594 307.584 
L 283.895203 307.584 
L 283.895203 222.223633 
L 281.556594 222.223633 
z
" style="fill:#0000ff;"/>
   </g>
   <g id="patch_54">
    <path clip-path="url(#p16a918ddfc)" d="M 283.895231 307.584 
L 286.233847 307.584 
L 286.233847 271.136814 
L 283.895231 271.136814 
z
" style="fill:#0000ff;"/>
   </g>
   <g id="patch_55">
    <path clip-path="url(#p16a918ddfc)" d="M 286.233833 307.584 
L 288.572435 307.584 
L 288.572435 274.20049 
L 286.233833 274.20049 
z
" style="fill:#0000ff;"/>
   </g>
   <g id="patch_56">
    <path clip-path="url(#p16a918ddfc)" d="M 288.572435 307.584 
L 290.911051 307.584 
L 290.911051 289.518873 
L 288.572435 289.518873 
z
" style="fill:#0000ff;"/>
   </g>
   <g id="patch_57">
    <path clip-path="url(#p16a918ddfc)" d="M 290.911065 307.584 
L 293.249681 307.584 
L 293.249681 286.138264 
L 290.911065 286.138264 
z
" style="fill:#0000ff;"/>
   </g>
   <g id="patch_58">
    <path clip-path="url(#p16a918ddfc)" d="M 293.249667 307.584 
L 295.588283 307.584 
L 295.588283 292.371261 
L 293.249667 292.371261 
z
" style="fill:#0000ff;"/>
   </g>
   <g id="patch_59">
    <path clip-path="url(#p16a918ddfc)" d="M 295.588297 307.584 
L 297.926913 307.584 
L 297.926913 287.617281 
L 295.588297 287.617281 
z
" style="fill:#0000ff;"/>
   </g>
   <g id="patch_60">
    <path clip-path="url(#p16a918ddfc)" d="M 297.926899 307.584 
L 300.265501 307.584 
L 300.265501 294.801074 
L 297.926899 294.801074 
z
" style="fill:#0000ff;"/>
   </g>
   <g id="patch_61">
    <path clip-path="url(#p16a918ddfc)" d="M 300.265501 307.584 
L 302.604117 307.584 
L 302.604117 292.371261 
L 300.265501 292.371261 
z
" style="fill:#0000ff;"/>
   </g>
   <g id="patch_62">
    <path clip-path="url(#p16a918ddfc)" d="M 302.604131 307.584 
L 304.942747 307.584 
L 304.942747 299.238123 
L 302.604131 299.238123 
z
" style="fill:#0000ff;"/>
   </g>
   <g id="patch_63">
    <path clip-path="url(#p16a918ddfc)" d="M 304.942733 307.584 
L 307.281349 307.584 
L 307.281349 296.174446 
L 304.942733 296.174446 
z
" style="fill:#0000ff;"/>
   </g>
   <g id="patch_64">
    <path clip-path="url(#p16a918ddfc)" d="M 307.281363 307.584 
L 309.619979 307.584 
L 309.619979 297.970394 
L 307.281363 297.970394 
z
" style="fill:#0000ff;"/>
   </g>
   <g id="patch_65">
    <path clip-path="url(#p16a918ddfc)" d="M 309.619965 307.584 
L 311.958567 307.584 
L 311.958567 302.301799 
L 309.619965 302.301799 
z
" style="fill:#0000ff;"/>
   </g>
   <g id="patch_66">
    <path clip-path="url(#p16a918ddfc)" d="M 311.958567 307.584 
L 314.297183 307.584 
L 314.297183 300.717139 
L 311.958567 300.717139 
z
" style="fill:#0000ff;"/>
   </g>
   <g id="patch_67">
    <path clip-path="url(#p16a918ddfc)" d="M 314.297197 307.584 
L 316.635812 307.584 
L 316.635812 304.414679 
L 314.297197 304.414679 
z
" style="fill:#0000ff;"/>
   </g>
   <g id="patch_68">
    <path clip-path="url(#p16a918ddfc)" d="M 316.635798 307.584 
L 318.974414 307.584 
L 318.974414 302.407443 
L 316.635798 302.407443 
z
" style="fill:#0000ff;"/>
   </g>
   <g id="patch_69">
    <path clip-path="url(#p16a918ddfc)" d="M 318.974428 307.584 
L 321.313044 307.584 
L 321.313044 304.837256 
L 318.974428 304.837256 
z
" style="fill:#0000ff;"/>
   </g>
   <g id="patch_70">
    <path clip-path="url(#p16a918ddfc)" d="M 321.31303 307.584 
L 323.651632 307.584 
L 323.651632 305.259832 
L 321.31303 305.259832 
z
" style="fill:#0000ff;"/>
   </g>
   <g id="patch_71">
    <path clip-path="url(#p16a918ddfc)" d="M 323.651632 307.584 
L 325.990248 307.584 
L 325.990248 305.47112 
L 323.651632 305.47112 
z
" style="fill:#0000ff;"/>
   </g>
   <g id="patch_72">
    <path clip-path="url(#p16a918ddfc)" d="M 325.990262 307.584 
L 328.328878 307.584 
L 328.328878 306.210628 
L 325.990262 306.210628 
z
" style="fill:#0000ff;"/>
   </g>
   <g id="patch_73">
    <path clip-path="url(#p16a918ddfc)" d="M 328.328864 307.584 
L 330.66748 307.584 
L 330.66748 306.104984 
L 328.328864 306.104984 
z
" style="fill:#0000ff;"/>
   </g>
   <g id="patch_74">
    <path clip-path="url(#p16a918ddfc)" d="M 330.667494 307.584 
L 333.00611 307.584 
L 333.00611 306.844492 
L 330.667494 306.844492 
z
" style="fill:#0000ff;"/>
   </g>
   <g id="patch_75">
    <path clip-path="url(#p16a918ddfc)" d="M 333.006096 307.584 
L 335.344698 307.584 
L 335.344698 306.633204 
L 333.006096 306.633204 
z
" style="fill:#0000ff;"/>
   </g>
   <g id="patch_76">
    <path clip-path="url(#p16a918ddfc)" d="M 335.344698 307.584 
L 337.683314 307.584 
L 337.683314 307.267068 
L 335.344698 307.267068 
z
" style="fill:#0000ff;"/>
   </g>
   <g id="patch_77">
    <path clip-path="url(#p16a918ddfc)" d="M 337.683328 307.584 
L 340.021944 307.584 
L 340.021944 306.633204 
L 337.683328 306.633204 
z
" style="fill:#0000ff;"/>
   </g>
   <g id="patch_78">
    <path clip-path="url(#p16a918ddfc)" d="M 340.02193 307.584 
L 342.360546 307.584 
L 342.360546 307.267068 
L 340.02193 307.267068 
z
" style="fill:#0000ff;"/>
   </g>
   <g id="patch_79">
    <path clip-path="url(#p16a918ddfc)" d="M 342.36056 307.584 
L 344.699176 307.584 
L 344.699176 307.161424 
L 342.36056 307.161424 
z
" style="fill:#0000ff;"/>
   </g>
   <g id="patch_80">
    <path clip-path="url(#p16a918ddfc)" d="M 344.699162 307.584 
L 347.037764 307.584 
L 347.037764 307.372712 
L 344.699162 307.372712 
z
" style="fill:#0000ff;"/>
   </g>
   <g id="patch_81">
    <path clip-path="url(#p16a918ddfc)" d="M 347.037764 307.584 
L 349.37638 307.584 
L 349.37638 307.478356 
L 347.037764 307.478356 
z
" style="fill:#0000ff;"/>
   </g>
   <g id="patch_82">
    <path clip-path="url(#p16a918ddfc)" d="M 349.376394 307.584 
L 351.71501 307.584 
L 351.71501 307.372712 
L 349.376394 307.372712 
z
" style="fill:#0000ff;"/>
   </g>
   <g id="patch_83">
    <path clip-path="url(#p16a918ddfc)" d="M 351.714996 307.584 
L 354.053612 307.584 
L 354.053612 307.372712 
L 351.714996 307.372712 
z
" style="fill:#0000ff;"/>
   </g>
   <g id="patch_84">
    <path clip-path="url(#p16a918ddfc)" d="M 354.053626 307.584 
L 356.392242 307.584 
L 356.392242 307.584 
L 354.053626 307.584 
z
" style="fill:#0000ff;"/>
   </g>
   <g id="patch_85">
    <path clip-path="url(#p16a918ddfc)" d="M 356.392228 307.584 
L 358.73083 307.584 
L 358.73083 307.584 
L 356.392228 307.584 
z
" style="fill:#0000ff;"/>
   </g>
   <g id="patch_86">
    <path clip-path="url(#p16a918ddfc)" d="M 358.73083 307.584 
L 361.069446 307.584 
L 361.069446 307.478356 
L 358.73083 307.478356 
z
" style="fill:#0000ff;"/>
   </g>
   <g id="patch_87">
    <path clip-path="url(#p16a918ddfc)" d="M 361.06946 307.584 
L 363.408075 307.584 
L 363.408075 307.584 
L 361.06946 307.584 
z
" style="fill:#0000ff;"/>
   </g>
   <g id="patch_88">
    <path clip-path="url(#p16a918ddfc)" d="M 363.408061 307.584 
L 365.746677 307.584 
L 365.746677 307.584 
L 363.408061 307.584 
z
" style="fill:#0000ff;"/>
   </g>
   <g id="patch_89">
    <path clip-path="url(#p16a918ddfc)" d="M 365.746691 307.584 
L 368.085307 307.584 
L 368.085307 307.478356 
L 365.746691 307.478356 
z
" style="fill:#0000ff;"/>
   </g>
   <g id="patch_90">
    <path clip-path="url(#p16a918ddfc)" d="M 368.085293 307.584 
L 370.423895 307.584 
L 370.423895 307.584 
L 368.085293 307.584 
z
" style="fill:#0000ff;"/>
   </g>
   <g id="patch_91">
    <path clip-path="url(#p16a918ddfc)" d="M 370.423895 307.584 
L 372.762511 307.584 
L 372.762511 307.584 
L 370.423895 307.584 
z
" style="fill:#0000ff;"/>
   </g>
   <g id="patch_92">
    <path clip-path="url(#p16a918ddfc)" d="M 372.762525 307.584 
L 375.101141 307.584 
L 375.101141 307.584 
L 372.762525 307.584 
z
" style="fill:#0000ff;"/>
   </g>
   <g id="patch_93">
    <path clip-path="url(#p16a918ddfc)" d="M 375.101127 307.584 
L 377.439743 307.584 
L 377.439743 307.478356 
L 375.101127 307.478356 
z
" style="fill:#0000ff;"/>
   </g>
   <g id="patch_94">
    <path clip-path="url(#p16a918ddfc)" d="M 377.439757 307.584 
L 379.778373 307.584 
L 379.778373 307.478356 
L 377.439757 307.478356 
z
" style="fill:#0000ff;"/>
   </g>
   <g id="patch_95">
    <path clip-path="url(#p16a918ddfc)" d="M 379.778359 307.584 
L 382.116961 307.584 
L 382.116961 307.478356 
L 379.778359 307.478356 
z
" style="fill:#0000ff;"/>
   </g>
   <g id="patch_96">
    <path clip-path="url(#p16a918ddfc)" d="M 382.116961 307.584 
L 384.455577 307.584 
L 384.455577 307.584 
L 382.116961 307.584 
z
" style="fill:#0000ff;"/>
   </g>
   <g id="patch_97">
    <path clip-path="url(#p16a918ddfc)" d="M 384.455591 307.584 
L 386.794207 307.584 
L 386.794207 307.584 
L 384.455591 307.584 
z
" style="fill:#0000ff;"/>
   </g>
   <g id="patch_98">
    <path clip-path="url(#p16a918ddfc)" d="M 386.794193 307.584 
L 389.132809 307.584 
L 389.132809 307.584 
L 386.794193 307.584 
z
" style="fill:#0000ff;"/>
   </g>
   <g id="patch_99">
    <path clip-path="url(#p16a918ddfc)" d="M 389.132823 307.584 
L 391.471439 307.584 
L 391.471439 307.584 
L 389.132823 307.584 
z
" style="fill:#0000ff;"/>
   </g>
   <g id="patch_100">
    <path clip-path="url(#p16a918ddfc)" d="M 391.471425 307.584 
L 393.810027 307.584 
L 393.810027 307.584 
L 391.471425 307.584 
z
" style="fill:#0000ff;"/>
   </g>
   <g id="patch_101">
    <path clip-path="url(#p16a918ddfc)" d="M 393.810027 307.584 
L 396.148643 307.584 
L 396.148643 307.584 
L 393.810027 307.584 
z
" style="fill:#0000ff;"/>
   </g>
   <g id="patch_102">
    <path clip-path="url(#p16a918ddfc)" d="M 396.148657 307.584 
L 398.487273 307.584 
L 398.487273 307.478356 
L 396.148657 307.478356 
z
" style="fill:#0000ff;"/>
   </g>
   <g id="patch_103">
    <path clip-path="url(#p16a918ddfc)" d="M 73.832727 307.584 
L 75.721958 307.584 
L 75.721958 299.449411 
L 73.832727 299.449411 
z
" style="fill:#808080;"/>
   </g>
   <g id="patch_104">
    <path clip-path="url(#p16a918ddfc)" d="M 75.721958 307.584 
L 77.611195 307.584 
L 77.611195 303.886459 
L 75.721958 303.886459 
z
" style="fill:#808080;"/>
   </g>
   <g id="patch_105">
    <path clip-path="url(#p16a918ddfc)" d="M 77.611195 307.584 
L 79.500425 307.584 
L 79.500425 302.830019 
L 77.611195 302.830019 
z
" style="fill:#808080;"/>
   </g>
   <g id="patch_106">
    <path clip-path="url(#p16a918ddfc)" d="M 79.500425 307.584 
L 81.389656 307.584 
L 81.389656 302.090511 
L 79.500425 302.090511 
z
" style="fill:#808080;"/>
   </g>
   <g id="patch_107">
    <path clip-path="url(#p16a918ddfc)" d="M 81.389663 307.584 
L 83.2789 307.584 
L 83.2789 302.830019 
L 81.389663 302.830019 
z
" style="fill:#808080;"/>
   </g>
   <g id="patch_108">
    <path clip-path="url(#p16a918ddfc)" d="M 83.278893 307.584 
L 85.168123 307.584 
L 85.168123 299.555055 
L 83.278893 299.555055 
z
" style="fill:#808080;"/>
   </g>
   <g id="patch_109">
    <path clip-path="url(#p16a918ddfc)" d="M 85.168123 307.584 
L 87.057354 307.584 
L 87.057354 298.92119 
L 85.168123 298.92119 
z
" style="fill:#808080;"/>
   </g>
   <g id="patch_110">
    <path clip-path="url(#p16a918ddfc)" d="M 87.057354 307.584 
L 88.946591 307.584 
L 88.946591 307.584 
L 87.057354 307.584 
z
" style="fill:#808080;"/>
   </g>
   <g id="patch_111">
    <path clip-path="url(#p16a918ddfc)" d="M 88.946591 307.584 
L 90.835821 307.584 
L 90.835821 307.584 
L 88.946591 307.584 
z
" style="fill:#808080;"/>
   </g>
   <g id="patch_112">
    <path clip-path="url(#p16a918ddfc)" d="M 90.835821 307.584 
L 92.725052 307.584 
L 92.725052 307.584 
L 90.835821 307.584 
z
" style="fill:#808080;"/>
   </g>
   <g id="patch_113">
    <path clip-path="url(#p16a918ddfc)" d="M 92.725059 307.584 
L 94.614296 307.584 
L 94.614296 307.584 
L 92.725059 307.584 
z
" style="fill:#808080;"/>
   </g>
   <g id="patch_114">
    <path clip-path="url(#p16a918ddfc)" d="M 94.614289 307.584 
L 96.503519 307.584 
L 96.503519 307.584 
L 94.614289 307.584 
z
" style="fill:#808080;"/>
   </g>
   <g id="patch_115">
    <path clip-path="url(#p16a918ddfc)" d="M 96.503519 307.584 
L 98.39275 307.584 
L 98.39275 307.584 
L 96.503519 307.584 
z
" style="fill:#808080;"/>
   </g>
   <g id="patch_116">
    <path clip-path="url(#p16a918ddfc)" d="M 98.39275 307.584 
L 100.28198 307.584 
L 100.28198 307.584 
L 98.39275 307.584 
z
" style="fill:#808080;"/>
   </g>
   <g id="patch_117">
    <path clip-path="url(#p16a918ddfc)" d="M 100.28198 307.584 
L 102.171217 307.584 
L 102.171217 307.584 
L 100.28198 307.584 
z
" style="fill:#808080;"/>
   </g>
   <g id="patch_118">
    <path clip-path="url(#p16a918ddfc)" d="M 102.171217 307.584 
L 104.060448 307.584 
L 104.060448 307.584 
L 102.171217 307.584 
z
" style="fill:#808080;"/>
   </g>
   <g id="patch_119">
    <path clip-path="url(#p16a918ddfc)" d="M 104.060448 307.584 
L 105.949678 307.584 
L 105.949678 307.584 
L 104.060448 307.584 
z
" style="fill:#808080;"/>
   </g>
   <g id="patch_120">
    <path clip-path="url(#p16a918ddfc)" d="M 105.949685 307.584 
L 107.838915 307.584 
L 107.838915 307.584 
L 105.949685 307.584 
z
" style="fill:#808080;"/>
   </g>
   <g id="patch_121">
    <path clip-path="url(#p16a918ddfc)" d="M 107.838915 307.584 
L 109.728146 307.584 
L 109.728146 307.584 
L 107.838915 307.584 
z
" style="fill:#808080;"/>
   </g>
   <g id="patch_122">
    <path clip-path="url(#p16a918ddfc)" d="M 109.728146 307.584 
L 111.617376 307.584 
L 111.617376 307.584 
L 109.728146 307.584 
z
" style="fill:#808080;"/>
   </g>
   <g id="patch_123">
    <path clip-path="url(#p16a918ddfc)" d="M 111.61738 307.584 
L 113.50661 307.584 
L 113.50661 307.584 
L 111.61738 307.584 
z
" style="fill:#808080;"/>
   </g>
   <g id="patch_124">
    <path clip-path="url(#p16a918ddfc)" d="M 113.506614 307.584 
L 115.395844 307.584 
L 115.395844 307.584 
L 113.506614 307.584 
z
" style="fill:#808080;"/>
   </g>
   <g id="patch_125">
    <path clip-path="url(#p16a918ddfc)" d="M 115.395844 307.584 
L 117.285074 307.584 
L 117.285074 307.584 
L 115.395844 307.584 
z
" style="fill:#808080;"/>
   </g>
   <g id="patch_126">
    <path clip-path="url(#p16a918ddfc)" d="M 117.285078 307.584 
L 119.174308 307.584 
L 119.174308 307.584 
L 117.285078 307.584 
z
" style="fill:#808080;"/>
   </g>
   <g id="patch_127">
    <path clip-path="url(#p16a918ddfc)" d="M 119.174312 307.584 
L 121.063542 307.584 
L 121.063542 307.584 
L 119.174312 307.584 
z
" style="fill:#808080;"/>
   </g>
   <g id="patch_128">
    <path clip-path="url(#p16a918ddfc)" d="M 121.063542 307.584 
L 122.952772 307.584 
L 122.952772 307.584 
L 121.063542 307.584 
z
" style="fill:#808080;"/>
   </g>
   <g id="patch_129">
    <path clip-path="url(#p16a918ddfc)" d="M 122.952776 307.584 
L 124.842006 307.584 
L 124.842006 307.584 
L 122.952776 307.584 
z
" style="fill:#808080;"/>
   </g>
   <g id="patch_130">
    <path clip-path="url(#p16a918ddfc)" d="M 124.84201 307.584 
L 126.73124 307.584 
L 126.73124 307.584 
L 124.84201 307.584 
z
" style="fill:#808080;"/>
   </g>
   <g id="patch_131">
    <path clip-path="url(#p16a918ddfc)" d="M 126.73124 307.584 
L 128.62047 307.584 
L 128.62047 307.584 
L 126.73124 307.584 
z
" style="fill:#808080;"/>
   </g>
   <g id="patch_132">
    <path clip-path="url(#p16a918ddfc)" d="M 128.620474 307.584 
L 130.509704 307.584 
L 130.509704 307.584 
L 128.620474 307.584 
z
" style="fill:#808080;"/>
   </g>
   <g id="patch_133">
    <path clip-path="url(#p16a918ddfc)" d="M 130.509708 307.584 
L 132.398938 307.584 
L 132.398938 307.584 
L 130.509708 307.584 
z
" style="fill:#808080;"/>
   </g>
   <g id="patch_134">
    <path clip-path="url(#p16a918ddfc)" d="M 132.398938 307.584 
L 134.288168 307.584 
L 134.288168 181.973262 
L 132.398938 181.973262 
z
" style="fill:#808080;"/>
   </g>
   <g id="patch_135">
    <path clip-path="url(#p16a918ddfc)" d="M 134.288168 307.584 
L 136.177399 307.584 
L 136.177399 177.958789 
L 134.288168 177.958789 
z
" style="fill:#808080;"/>
   </g>
   <g id="patch_136">
    <path clip-path="url(#p16a918ddfc)" d="M 136.177404 307.584 
L 138.066634 307.584 
L 138.066634 54.144 
L 136.177404 54.144 
z
" style="fill:#808080;"/>
   </g>
   <g id="patch_137">
    <path clip-path="url(#p16a918ddfc)" d="M 138.066636 307.584 
L 139.955866 307.584 
L 139.955866 188.734479 
L 138.066636 188.734479 
z
" style="fill:#808080;"/>
   </g>
   <g id="patch_138">
    <path clip-path="url(#p16a918ddfc)" d="M 139.95587 307.584 
L 141.8451 307.584 
L 141.8451 200.566609 
L 139.95587 200.566609 
z
" style="fill:#808080;"/>
   </g>
   <g id="patch_139">
    <path clip-path="url(#p16a918ddfc)" d="M 141.8451 307.584 
L 143.734331 307.584 
L 143.734331 186.832887 
L 141.8451 186.832887 
z
" style="fill:#808080;"/>
   </g>
   <g id="patch_140">
    <path clip-path="url(#p16a918ddfc)" d="M 143.734334 307.584 
L 145.623564 307.584 
L 145.623564 181.973262 
L 143.734334 181.973262 
z
" style="fill:#808080;"/>
   </g>
   <g id="patch_141">
    <path clip-path="url(#p16a918ddfc)" d="M 145.623568 307.584 
L 147.512798 307.584 
L 147.512798 307.584 
L 145.623568 307.584 
z
" style="fill:#808080;"/>
   </g>
   <g id="patch_142">
    <path clip-path="url(#p16a918ddfc)" d="M 147.512798 307.584 
L 149.402029 307.584 
L 149.402029 307.584 
L 147.512798 307.584 
z
" style="fill:#808080;"/>
   </g>
   <g id="patch_143">
    <path clip-path="url(#p16a918ddfc)" d="M 149.402032 307.584 
L 151.291262 307.584 
L 151.291262 307.584 
L 149.402032 307.584 
z
" style="fill:#808080;"/>
   </g>
   <g id="patch_144">
    <path clip-path="url(#p16a918ddfc)" d="M 151.291264 307.584 
L 153.180494 307.584 
L 153.180494 307.584 
L 151.291264 307.584 
z
" style="fill:#808080;"/>
   </g>
   <g id="patch_145">
    <path clip-path="url(#p16a918ddfc)" d="M 153.180497 307.584 
L 155.069727 307.584 
L 155.069727 307.584 
L 153.180497 307.584 
z
" style="fill:#808080;"/>
   </g>
   <g id="patch_146">
    <path clip-path="url(#p16a918ddfc)" d="M 155.06973 307.584 
L 156.95896 307.584 
L 156.95896 307.584 
L 155.06973 307.584 
z
" style="fill:#808080;"/>
   </g>
   <g id="patch_147">
    <path clip-path="url(#p16a918ddfc)" d="M 156.958962 307.584 
L 158.848193 307.584 
L 158.848193 307.584 
L 156.958962 307.584 
z
" style="fill:#808080;"/>
   </g>
   <g id="patch_148">
    <path clip-path="url(#p16a918ddfc)" d="M 158.848195 307.584 
L 160.737425 307.584 
L 160.737425 307.584 
L 158.848195 307.584 
z
" style="fill:#808080;"/>
   </g>
   <g id="patch_149">
    <path clip-path="url(#p16a918ddfc)" d="M 160.737427 307.584 
L 162.626658 307.584 
L 162.626658 307.584 
L 160.737427 307.584 
z
" style="fill:#808080;"/>
   </g>
   <g id="patch_150">
    <path clip-path="url(#p16a918ddfc)" d="M 162.62666 307.584 
L 164.51589 307.584 
L 164.51589 307.584 
L 162.62666 307.584 
z
" style="fill:#808080;"/>
   </g>
   <g id="patch_151">
    <path clip-path="url(#p16a918ddfc)" d="M 164.515892 307.584 
L 166.405123 307.584 
L 166.405123 307.584 
L 164.515892 307.584 
z
" style="fill:#808080;"/>
   </g>
   <g id="patch_152">
    <path clip-path="url(#p16a918ddfc)" d="M 166.405125 307.584 
L 168.294355 307.584 
L 168.294355 307.584 
L 166.405125 307.584 
z
" style="fill:#808080;"/>
   </g>
   <g id="patch_153">
    <path clip-path="url(#p16a918ddfc)" d="M 168.294357 307.584 
L 170.183588 307.584 
L 170.183588 307.584 
L 168.294357 307.584 
z
" style="fill:#808080;"/>
   </g>
   <g id="patch_154">
    <path clip-path="url(#p16a918ddfc)" d="M 170.18359 307.584 
L 172.072821 307.584 
L 172.072821 307.584 
L 170.18359 307.584 
z
" style="fill:#808080;"/>
   </g>
   <g id="patch_155">
    <path clip-path="url(#p16a918ddfc)" d="M 172.072822 307.584 
L 173.962053 307.584 
L 173.962053 307.584 
L 172.072822 307.584 
z
" style="fill:#808080;"/>
   </g>
   <g id="patch_156">
    <path clip-path="url(#p16a918ddfc)" d="M 173.962055 307.584 
L 175.851286 307.584 
L 175.851286 307.584 
L 173.962055 307.584 
z
" style="fill:#808080;"/>
   </g>
   <g id="patch_157">
    <path clip-path="url(#p16a918ddfc)" d="M 175.851288 307.584 
L 177.740519 307.584 
L 177.740519 307.584 
L 175.851288 307.584 
z
" style="fill:#808080;"/>
   </g>
   <g id="patch_158">
    <path clip-path="url(#p16a918ddfc)" d="M 177.74052 307.584 
L 179.629751 307.584 
L 179.629751 307.584 
L 177.74052 307.584 
z
" style="fill:#808080;"/>
   </g>
   <g id="patch_159">
    <path clip-path="url(#p16a918ddfc)" d="M 179.629753 307.584 
L 181.518983 307.584 
L 181.518983 307.584 
L 179.629753 307.584 
z
" style="fill:#808080;"/>
   </g>
   <g id="patch_160">
    <path clip-path="url(#p16a918ddfc)" d="M 181.518986 307.584 
L 183.408217 307.584 
L 183.408217 307.584 
L 181.518986 307.584 
z
" style="fill:#808080;"/>
   </g>
   <g id="patch_161">
    <path clip-path="url(#p16a918ddfc)" d="M 183.408218 307.584 
L 185.297449 307.584 
L 185.297449 307.584 
L 183.408218 307.584 
z
" style="fill:#808080;"/>
   </g>
   <g id="patch_162">
    <path clip-path="url(#p16a918ddfc)" d="M 185.297451 307.584 
L 187.186681 307.584 
L 187.186681 307.584 
L 185.297451 307.584 
z
" style="fill:#808080;"/>
   </g>
   <g id="patch_163">
    <path clip-path="url(#p16a918ddfc)" d="M 187.186684 307.584 
L 189.075915 307.584 
L 189.075915 307.584 
L 187.186684 307.584 
z
" style="fill:#808080;"/>
   </g>
   <g id="patch_164">
    <path clip-path="url(#p16a918ddfc)" d="M 189.075915 307.584 
L 190.965145 307.584 
L 190.965145 307.584 
L 189.075915 307.584 
z
" style="fill:#808080;"/>
   </g>
   <g id="patch_165">
    <path clip-path="url(#p16a918ddfc)" d="M 190.965149 307.584 
L 192.854379 307.584 
L 192.854379 297.653462 
L 190.965149 297.653462 
z
" style="fill:#808080;"/>
   </g>
   <g id="patch_166">
    <path clip-path="url(#p16a918ddfc)" d="M 192.854382 307.584 
L 194.743613 307.584 
L 194.743613 300.505851 
L 192.854382 300.505851 
z
" style="fill:#808080;"/>
   </g>
   <g id="patch_167">
    <path clip-path="url(#p16a918ddfc)" d="M 194.743616 307.584 
L 196.632847 307.584 
L 196.632847 301.667935 
L 194.743616 301.667935 
z
" style="fill:#808080;"/>
   </g>
   <g id="patch_168">
    <path clip-path="url(#p16a918ddfc)" d="M 196.632847 307.584 
L 198.522077 307.584 
L 198.522077 303.146951 
L 196.632847 303.146951 
z
" style="fill:#808080;"/>
   </g>
   <g id="patch_169">
    <path clip-path="url(#p16a918ddfc)" d="M 198.522077 307.584 
L 200.411307 307.584 
L 200.411307 299.660699 
L 198.522077 299.660699 
z
" style="fill:#808080;"/>
   </g>
   <g id="patch_170">
    <path clip-path="url(#p16a918ddfc)" d="M 200.411314 307.584 
L 202.300545 307.584 
L 202.300545 305.154188 
L 200.411314 305.154188 
z
" style="fill:#808080;"/>
   </g>
   <g id="patch_171">
    <path clip-path="url(#p16a918ddfc)" d="M 202.300545 307.584 
L 204.189775 307.584 
L 204.189775 305.048544 
L 202.300545 305.048544 
z
" style="fill:#808080;"/>
   </g>
   <g id="patch_172">
    <path clip-path="url(#p16a918ddfc)" d="M 204.189775 307.584 
L 206.079005 307.584 
L 206.079005 307.584 
L 204.189775 307.584 
z
" style="fill:#808080;"/>
   </g>
   <g id="patch_173">
    <path clip-path="url(#p16a918ddfc)" d="M 206.079009 307.584 
L 207.968239 307.584 
L 207.968239 307.584 
L 206.079009 307.584 
z
" style="fill:#808080;"/>
   </g>
   <g id="patch_174">
    <path clip-path="url(#p16a918ddfc)" d="M 207.968243 307.584 
L 209.857473 307.584 
L 209.857473 307.584 
L 207.968243 307.584 
z
" style="fill:#808080;"/>
   </g>
   <g id="patch_175">
    <path clip-path="url(#p16a918ddfc)" d="M 209.857473 307.584 
L 211.746703 307.584 
L 211.746703 307.584 
L 209.857473 307.584 
z
" style="fill:#808080;"/>
   </g>
   <g id="patch_176">
    <path clip-path="url(#p16a918ddfc)" d="M 211.746707 307.584 
L 213.635937 307.584 
L 213.635937 307.584 
L 211.746707 307.584 
z
" style="fill:#808080;"/>
   </g>
   <g id="patch_177">
    <path clip-path="url(#p16a918ddfc)" d="M 213.635941 307.584 
L 215.525171 307.584 
L 215.525171 307.584 
L 213.635941 307.584 
z
" style="fill:#808080;"/>
   </g>
   <g id="patch_178">
    <path clip-path="url(#p16a918ddfc)" d="M 215.525171 307.584 
L 217.414401 307.584 
L 217.414401 307.584 
L 215.525171 307.584 
z
" style="fill:#808080;"/>
   </g>
   <g id="patch_179">
    <path clip-path="url(#p16a918ddfc)" d="M 217.414405 307.584 
L 219.303635 307.584 
L 219.303635 307.584 
L 217.414405 307.584 
z
" style="fill:#808080;"/>
   </g>
   <g id="patch_180">
    <path clip-path="url(#p16a918ddfc)" d="M 219.303639 307.584 
L 221.192869 307.584 
L 221.192869 307.584 
L 219.303639 307.584 
z
" style="fill:#808080;"/>
   </g>
   <g id="patch_181">
    <path clip-path="url(#p16a918ddfc)" d="M 221.192869 307.584 
L 223.082099 307.584 
L 223.082099 307.584 
L 221.192869 307.584 
z
" style="fill:#808080;"/>
   </g>
   <g id="patch_182">
    <path clip-path="url(#p16a918ddfc)" d="M 223.082106 307.584 
L 224.971337 307.584 
L 224.971337 307.584 
L 223.082106 307.584 
z
" style="fill:#808080;"/>
   </g>
   <g id="patch_183">
    <path clip-path="url(#p16a918ddfc)" d="M 224.971337 307.584 
L 226.860567 307.584 
L 226.860567 307.584 
L 224.971337 307.584 
z
" style="fill:#808080;"/>
   </g>
   <g id="patch_184">
    <path clip-path="url(#p16a918ddfc)" d="M 226.860567 307.584 
L 228.749797 307.584 
L 228.749797 307.584 
L 226.860567 307.584 
z
" style="fill:#808080;"/>
   </g>
   <g id="patch_185">
    <path clip-path="url(#p16a918ddfc)" d="M 228.749797 307.584 
L 230.639035 307.584 
L 230.639035 307.584 
L 228.749797 307.584 
z
" style="fill:#808080;"/>
   </g>
   <g id="patch_186">
    <path clip-path="url(#p16a918ddfc)" d="M 230.639035 307.584 
L 232.528265 307.584 
L 232.528265 307.584 
L 230.639035 307.584 
z
" style="fill:#808080;"/>
   </g>
   <g id="patch_187">
    <path clip-path="url(#p16a918ddfc)" d="M 232.528265 307.584 
L 234.417496 307.584 
L 234.417496 307.584 
L 232.528265 307.584 
z
" style="fill:#808080;"/>
   </g>
   <g id="patch_188">
    <path clip-path="url(#p16a918ddfc)" d="M 234.417503 307.584 
L 236.30674 307.584 
L 236.30674 307.584 
L 234.417503 307.584 
z
" style="fill:#808080;"/>
   </g>
   <g id="patch_189">
    <path clip-path="url(#p16a918ddfc)" d="M 236.306733 307.584 
L 238.195963 307.584 
L 238.195963 307.584 
L 236.306733 307.584 
z
" style="fill:#808080;"/>
   </g>
   <g id="patch_190">
    <path clip-path="url(#p16a918ddfc)" d="M 238.195963 307.584 
L 240.085194 307.584 
L 240.085194 307.584 
L 238.195963 307.584 
z
" style="fill:#808080;"/>
   </g>
   <g id="patch_191">
    <path clip-path="url(#p16a918ddfc)" d="M 240.085194 307.584 
L 241.974424 307.584 
L 241.974424 307.584 
L 240.085194 307.584 
z
" style="fill:#808080;"/>
   </g>
   <g id="patch_192">
    <path clip-path="url(#p16a918ddfc)" d="M 241.974424 307.584 
L 243.863661 307.584 
L 243.863661 307.584 
L 241.974424 307.584 
z
" style="fill:#808080;"/>
   </g>
   <g id="patch_193">
    <path clip-path="url(#p16a918ddfc)" d="M 243.863661 307.584 
L 245.752892 307.584 
L 245.752892 307.584 
L 243.863661 307.584 
z
" style="fill:#808080;"/>
   </g>
   <g id="patch_194">
    <path clip-path="url(#p16a918ddfc)" d="M 245.752892 307.584 
L 247.642122 307.584 
L 247.642122 307.584 
L 245.752892 307.584 
z
" style="fill:#808080;"/>
   </g>
   <g id="patch_195">
    <path clip-path="url(#p16a918ddfc)" d="M 247.642129 307.584 
L 249.531366 307.584 
L 249.531366 307.584 
L 247.642129 307.584 
z
" style="fill:#808080;"/>
   </g>
   <g id="patch_196">
    <path clip-path="url(#p16a918ddfc)" d="M 249.531359 307.584 
L 251.42059 307.584 
L 251.42059 307.478356 
L 249.531359 307.478356 
z
" style="fill:#808080;"/>
   </g>
   <g id="patch_197">
    <path clip-path="url(#p16a918ddfc)" d="M 251.42059 307.584 
L 253.30982 307.584 
L 253.30982 307.584 
L 251.42059 307.584 
z
" style="fill:#808080;"/>
   </g>
   <g id="patch_198">
    <path clip-path="url(#p16a918ddfc)" d="M 253.30982 307.584 
L 255.199057 307.584 
L 255.199057 307.584 
L 253.30982 307.584 
z
" style="fill:#808080;"/>
   </g>
   <g id="patch_199">
    <path clip-path="url(#p16a918ddfc)" d="M 255.199057 307.584 
L 257.088288 307.584 
L 257.088288 307.584 
L 255.199057 307.584 
z
" style="fill:#808080;"/>
   </g>
   <g id="patch_200">
    <path clip-path="url(#p16a918ddfc)" d="M 257.088288 307.584 
L 258.977518 307.584 
L 258.977518 307.584 
L 257.088288 307.584 
z
" style="fill:#808080;"/>
   </g>
   <g id="patch_201">
    <path clip-path="url(#p16a918ddfc)" d="M 258.977525 307.584 
L 260.866762 307.584 
L 260.866762 307.584 
L 258.977525 307.584 
z
" style="fill:#808080;"/>
   </g>
   <g id="patch_202">
    <path clip-path="url(#p16a918ddfc)" d="M 260.866755 307.584 
L 262.755986 307.584 
L 262.755986 307.478356 
L 260.866755 307.478356 
z
" style="fill:#808080;"/>
   </g>
   <g id="matplotlib.axis_1">
    <g id="xtick_1">
     <g id="line2d_1">
      <defs>
       <path d="M 0 0 
L 0 3.5 
" id="m6caf7e7f7d" style="stroke:#000000;stroke-width:0.8;"/>
      </defs>
      <g>
       <use style="stroke:#000000;stroke-width:0.8;" x="72.915624" xlink:href="#m6caf7e7f7d" y="307.584"/>
      </g>
     </g>
     <g id="text_1">
      <!-- −100 -->
      <defs>
       <path d="M 10.59375 35.5 
L 73.1875 35.5 
L 73.1875 27.203125 
L 10.59375 27.203125 
z
" id="DejaVuSans-8722"/>
       <path d="M 12.40625 8.296875 
L 28.515625 8.296875 
L 28.515625 63.921875 
L 10.984375 60.40625 
L 10.984375 69.390625 
L 28.421875 72.90625 
L 38.28125 72.90625 
L 38.28125 8.296875 
L 54.390625 8.296875 
L 54.390625 0 
L 12.40625 0 
z
" id="DejaVuSans-49"/>
       <path d="M 31.78125 66.40625 
Q 24.171875 66.40625 20.328125 58.90625 
Q 16.5 51.421875 16.5 36.375 
Q 16.5 21.390625 20.328125 13.890625 
Q 24.171875 6.390625 31.78125 6.390625 
Q 39.453125 6.390625 43.28125 13.890625 
Q 47.125 21.390625 47.125 36.375 
Q 47.125 51.421875 43.28125 58.90625 
Q 39.453125 66.40625 31.78125 66.40625 
z
M 31.78125 74.21875 
Q 44.046875 74.21875 50.515625 64.515625 
Q 56.984375 54.828125 56.984375 36.375 
Q 56.984375 17.96875 50.515625 8.265625 
Q 44.046875 -1.421875 31.78125 -1.421875 
Q 19.53125 -1.421875 13.0625 8.265625 
Q 6.59375 17.96875 6.59375 36.375 
Q 6.59375 54.828125 13.0625 64.515625 
Q 19.53125 74.21875 31.78125 74.21875 
z
" id="DejaVuSans-48"/>
      </defs>
      <g transform="translate(59.18203 322.182437)scale(0.1 -0.1)">
       <use xlink:href="#DejaVuSans-8722"/>
       <use x="83.789062" xlink:href="#DejaVuSans-49"/>
       <use x="147.412109" xlink:href="#DejaVuSans-48"/>
       <use x="211.035156" xlink:href="#DejaVuSans-48"/>
      </g>
     </g>
    </g>
    <g id="xtick_2">
     <g id="line2d_2">
      <g>
       <use style="stroke:#000000;stroke-width:0.8;" x="118.770784" xlink:href="#m6caf7e7f7d" y="307.584"/>
      </g>
     </g>
     <g id="text_2">
      <!-- −50 -->
      <defs>
       <path d="M 10.796875 72.90625 
L 49.515625 72.90625 
L 49.515625 64.59375 
L 19.828125 64.59375 
L 19.828125 46.734375 
Q 21.96875 47.46875 24.109375 47.828125 
Q 26.265625 48.1875 28.421875 48.1875 
Q 40.625 48.1875 47.75 41.5 
Q 54.890625 34.8125 54.890625 23.390625 
Q 54.890625 11.625 47.5625 5.09375 
Q 40.234375 -1.421875 26.90625 -1.421875 
Q 22.3125 -1.421875 17.546875 -0.640625 
Q 12.796875 0.140625 7.71875 1.703125 
L 7.71875 11.625 
Q 12.109375 9.234375 16.796875 8.0625 
Q 21.484375 6.890625 26.703125 6.890625 
Q 35.15625 6.890625 40.078125 11.328125 
Q 45.015625 15.765625 45.015625 23.390625 
Q 45.015625 31 40.078125 35.4375 
Q 35.15625 39.890625 26.703125 39.890625 
Q 22.75 39.890625 18.8125 39.015625 
Q 14.890625 38.140625 10.796875 36.28125 
z
" id="DejaVuSans-53"/>
      </defs>
      <g transform="translate(108.21844 322.182437)scale(0.1 -0.1)">
       <use xlink:href="#DejaVuSans-8722"/>
       <use x="83.789062" xlink:href="#DejaVuSans-53"/>
       <use x="147.412109" xlink:href="#DejaVuSans-48"/>
      </g>
     </g>
    </g>
    <g id="xtick_3">
     <g id="line2d_3">
      <g>
       <use style="stroke:#000000;stroke-width:0.8;" x="164.625944" xlink:href="#m6caf7e7f7d" y="307.584"/>
      </g>
     </g>
     <g id="text_3">
      <!-- 0 -->
      <g transform="translate(161.444694 322.182437)scale(0.1 -0.1)">
       <use xlink:href="#DejaVuSans-48"/>
      </g>
     </g>
    </g>
    <g id="xtick_4">
     <g id="line2d_4">
      <g>
       <use style="stroke:#000000;stroke-width:0.8;" x="210.481104" xlink:href="#m6caf7e7f7d" y="307.584"/>
      </g>
     </g>
     <g id="text_4">
      <!-- 50 -->
      <g transform="translate(204.118604 322.182437)scale(0.1 -0.1)">
       <use xlink:href="#DejaVuSans-53"/>
       <use x="63.623047" xlink:href="#DejaVuSans-48"/>
      </g>
     </g>
    </g>
    <g id="xtick_5">
     <g id="line2d_5">
      <g>
       <use style="stroke:#000000;stroke-width:0.8;" x="256.336263" xlink:href="#m6caf7e7f7d" y="307.584"/>
      </g>
     </g>
     <g id="text_5">
      <!-- 100 -->
      <g transform="translate(246.792513 322.182437)scale(0.1 -0.1)">
       <use xlink:href="#DejaVuSans-49"/>
       <use x="63.623047" xlink:href="#DejaVuSans-48"/>
       <use x="127.246094" xlink:href="#DejaVuSans-48"/>
      </g>
     </g>
    </g>
    <g id="xtick_6">
     <g id="line2d_6">
      <g>
       <use style="stroke:#000000;stroke-width:0.8;" x="302.191423" xlink:href="#m6caf7e7f7d" y="307.584"/>
      </g>
     </g>
     <g id="text_6">
      <!-- 150 -->
      <g transform="translate(292.647673 322.182437)scale(0.1 -0.1)">
       <use xlink:href="#DejaVuSans-49"/>
       <use x="63.623047" xlink:href="#DejaVuSans-53"/>
       <use x="127.246094" xlink:href="#DejaVuSans-48"/>
      </g>
     </g>
    </g>
    <g id="xtick_7">
     <g id="line2d_7">
      <g>
       <use style="stroke:#000000;stroke-width:0.8;" x="348.046583" xlink:href="#m6caf7e7f7d" y="307.584"/>
      </g>
     </g>
     <g id="text_7">
      <!-- 200 -->
      <defs>
       <path d="M 19.1875 8.296875 
L 53.609375 8.296875 
L 53.609375 0 
L 7.328125 0 
L 7.328125 8.296875 
Q 12.9375 14.109375 22.625 23.890625 
Q 32.328125 33.6875 34.8125 36.53125 
Q 39.546875 41.84375 41.421875 45.53125 
Q 43.3125 49.21875 43.3125 52.78125 
Q 43.3125 58.59375 39.234375 62.25 
Q 35.15625 65.921875 28.609375 65.921875 
Q 23.96875 65.921875 18.8125 64.3125 
Q 13.671875 62.703125 7.8125 59.421875 
L 7.8125 69.390625 
Q 13.765625 71.78125 18.9375 73 
Q 24.125 74.21875 28.421875 74.21875 
Q 39.75 74.21875 46.484375 68.546875 
Q 53.21875 62.890625 53.21875 53.421875 
Q 53.21875 48.921875 51.53125 44.890625 
Q 49.859375 40.875 45.40625 35.40625 
Q 44.1875 33.984375 37.640625 27.21875 
Q 31.109375 20.453125 19.1875 8.296875 
z
" id="DejaVuSans-50"/>
      </defs>
      <g transform="translate(338.502833 322.182437)scale(0.1 -0.1)">
       <use xlink:href="#DejaVuSans-50"/>
       <use x="63.623047" xlink:href="#DejaVuSans-48"/>
       <use x="127.246094" xlink:href="#DejaVuSans-48"/>
      </g>
     </g>
    </g>
    <g id="xtick_8">
     <g id="line2d_8">
      <g>
       <use style="stroke:#000000;stroke-width:0.8;" x="393.901743" xlink:href="#m6caf7e7f7d" y="307.584"/>
      </g>
     </g>
     <g id="text_8">
      <!-- 250 -->
      <g transform="translate(384.357993 322.182437)scale(0.1 -0.1)">
       <use xlink:href="#DejaVuSans-50"/>
       <use x="63.623047" xlink:href="#DejaVuSans-53"/>
       <use x="127.246094" xlink:href="#DejaVuSans-48"/>
      </g>
     </g>
    </g>
    <g id="text_9">
     <!-- Weight -->
     <defs>
      <path d="M 3.328125 72.90625 
L 13.28125 72.90625 
L 28.609375 11.28125 
L 43.890625 72.90625 
L 54.984375 72.90625 
L 70.3125 11.28125 
L 85.59375 72.90625 
L 95.609375 72.90625 
L 77.296875 0 
L 64.890625 0 
L 49.515625 63.28125 
L 33.984375 0 
L 21.578125 0 
z
" id="DejaVuSans-87"/>
      <path d="M 56.203125 29.59375 
L 56.203125 25.203125 
L 14.890625 25.203125 
Q 15.484375 15.921875 20.484375 11.0625 
Q 25.484375 6.203125 34.421875 6.203125 
Q 39.59375 6.203125 44.453125 7.46875 
Q 49.3125 8.734375 54.109375 11.28125 
L 54.109375 2.78125 
Q 49.265625 0.734375 44.1875 -0.34375 
Q 39.109375 -1.421875 33.890625 -1.421875 
Q 20.796875 -1.421875 13.15625 6.1875 
Q 5.515625 13.8125 5.515625 26.8125 
Q 5.515625 40.234375 12.765625 48.109375 
Q 20.015625 56 32.328125 56 
Q 43.359375 56 49.78125 48.890625 
Q 56.203125 41.796875 56.203125 29.59375 
z
M 47.21875 32.234375 
Q 47.125 39.59375 43.09375 43.984375 
Q 39.0625 48.390625 32.421875 48.390625 
Q 24.90625 48.390625 20.390625 44.140625 
Q 15.875 39.890625 15.1875 32.171875 
z
" id="DejaVuSans-101"/>
      <path d="M 9.421875 54.6875 
L 18.40625 54.6875 
L 18.40625 0 
L 9.421875 0 
z
M 9.421875 75.984375 
L 18.40625 75.984375 
L 18.40625 64.59375 
L 9.421875 64.59375 
z
" id="DejaVuSans-105"/>
      <path d="M 45.40625 27.984375 
Q 45.40625 37.75 41.375 43.109375 
Q 37.359375 48.484375 30.078125 48.484375 
Q 22.859375 48.484375 18.828125 43.109375 
Q 14.796875 37.75 14.796875 27.984375 
Q 14.796875 18.265625 18.828125 12.890625 
Q 22.859375 7.515625 30.078125 7.515625 
Q 37.359375 7.515625 41.375 12.890625 
Q 45.40625 18.265625 45.40625 27.984375 
z
M 54.390625 6.78125 
Q 54.390625 -7.171875 48.1875 -13.984375 
Q 42 -20.796875 29.203125 -20.796875 
Q 24.46875 -20.796875 20.265625 -20.09375 
Q 16.0625 -19.390625 12.109375 -17.921875 
L 12.109375 -9.1875 
Q 16.0625 -11.328125 19.921875 -12.34375 
Q 23.78125 -13.375 27.78125 -13.375 
Q 36.625 -13.375 41.015625 -8.765625 
Q 45.40625 -4.15625 45.40625 5.171875 
L 45.40625 9.625 
Q 42.625 4.78125 38.28125 2.390625 
Q 33.9375 0 27.875 0 
Q 17.828125 0 11.671875 7.65625 
Q 5.515625 15.328125 5.515625 27.984375 
Q 5.515625 40.671875 11.671875 48.328125 
Q 17.828125 56 27.875 56 
Q 33.9375 56 38.28125 53.609375 
Q 42.625 51.21875 45.40625 46.390625 
L 45.40625 54.6875 
L 54.390625 54.6875 
z
" id="DejaVuSans-103"/>
      <path d="M 54.890625 33.015625 
L 54.890625 0 
L 45.90625 0 
L 45.90625 32.71875 
Q 45.90625 40.484375 42.875 44.328125 
Q 39.84375 48.1875 33.796875 48.1875 
Q 26.515625 48.1875 22.3125 43.546875 
Q 18.109375 38.921875 18.109375 30.90625 
L 18.109375 0 
L 9.078125 0 
L 9.078125 75.984375 
L 18.109375 75.984375 
L 18.109375 46.1875 
Q 21.34375 51.125 25.703125 53.5625 
Q 30.078125 56 35.796875 56 
Q 45.21875 56 50.046875 50.171875 
Q 54.890625 44.34375 54.890625 33.015625 
z
" id="DejaVuSans-104"/>
      <path d="M 18.3125 70.21875 
L 18.3125 54.6875 
L 36.8125 54.6875 
L 36.8125 47.703125 
L 18.3125 47.703125 
L 18.3125 18.015625 
Q 18.3125 11.328125 20.140625 9.421875 
Q 21.96875 7.515625 27.59375 7.515625 
L 36.8125 7.515625 
L 36.8125 0 
L 27.59375 0 
Q 17.1875 0 13.234375 3.875 
Q 9.28125 7.765625 9.28125 18.015625 
L 9.28125 47.703125 
L 2.6875 47.703125 
L 2.6875 54.6875 
L 9.28125 54.6875 
L 9.28125 70.21875 
z
" id="DejaVuSans-116"/>
     </defs>
     <g transform="translate(218.451406 335.860562)scale(0.1 -0.1)">
      <use xlink:href="#DejaVuSans-87"/>
      <use x="98.798828" xlink:href="#DejaVuSans-101"/>
      <use x="160.322266" xlink:href="#DejaVuSans-105"/>
      <use x="188.105469" xlink:href="#DejaVuSans-103"/>
      <use x="251.582031" xlink:href="#DejaVuSans-104"/>
      <use x="314.960938" xlink:href="#DejaVuSans-116"/>
     </g>
    </g>
   </g>
   <g id="matplotlib.axis_2">
    <g id="ytick_1">
     <g id="line2d_9">
      <defs>
       <path d="M 0 0 
L -3.5 0 
" id="m4c0a447861" style="stroke:#000000;stroke-width:0.8;"/>
      </defs>
      <g>
       <use style="stroke:#000000;stroke-width:0.8;" x="57.6" xlink:href="#m4c0a447861" y="307.584"/>
      </g>
     </g>
     <g id="text_10">
      <!-- 0 -->
      <g transform="translate(44.2375 311.383219)scale(0.1 -0.1)">
       <use xlink:href="#DejaVuSans-48"/>
      </g>
     </g>
    </g>
    <g id="ytick_2">
     <g id="line2d_10">
      <g>
       <use style="stroke:#000000;stroke-width:0.8;" x="57.6" xlink:href="#m4c0a447861" y="254.761991"/>
      </g>
     </g>
     <g id="text_11">
      <!-- 500 -->
      <g transform="translate(31.5125 258.56121)scale(0.1 -0.1)">
       <use xlink:href="#DejaVuSans-53"/>
       <use x="63.623047" xlink:href="#DejaVuSans-48"/>
       <use x="127.246094" xlink:href="#DejaVuSans-48"/>
      </g>
     </g>
    </g>
    <g id="ytick_3">
     <g id="line2d_11">
      <g>
       <use style="stroke:#000000;stroke-width:0.8;" x="57.6" xlink:href="#m4c0a447861" y="201.939982"/>
      </g>
     </g>
     <g id="text_12">
      <!-- 1000 -->
      <g transform="translate(25.15 205.7392)scale(0.1 -0.1)">
       <use xlink:href="#DejaVuSans-49"/>
       <use x="63.623047" xlink:href="#DejaVuSans-48"/>
       <use x="127.246094" xlink:href="#DejaVuSans-48"/>
       <use x="190.869141" xlink:href="#DejaVuSans-48"/>
      </g>
     </g>
    </g>
    <g id="ytick_4">
     <g id="line2d_12">
      <g>
       <use style="stroke:#000000;stroke-width:0.8;" x="57.6" xlink:href="#m4c0a447861" y="149.117972"/>
      </g>
     </g>
     <g id="text_13">
      <!-- 1500 -->
      <g transform="translate(25.15 152.917191)scale(0.1 -0.1)">
       <use xlink:href="#DejaVuSans-49"/>
       <use x="63.623047" xlink:href="#DejaVuSans-53"/>
       <use x="127.246094" xlink:href="#DejaVuSans-48"/>
       <use x="190.869141" xlink:href="#DejaVuSans-48"/>
      </g>
     </g>
    </g>
    <g id="ytick_5">
     <g id="line2d_13">
      <g>
       <use style="stroke:#000000;stroke-width:0.8;" x="57.6" xlink:href="#m4c0a447861" y="96.295963"/>
      </g>
     </g>
     <g id="text_14">
      <!-- 2000 -->
      <g transform="translate(25.15 100.095182)scale(0.1 -0.1)">
       <use xlink:href="#DejaVuSans-50"/>
       <use x="63.623047" xlink:href="#DejaVuSans-48"/>
       <use x="127.246094" xlink:href="#DejaVuSans-48"/>
       <use x="190.869141" xlink:href="#DejaVuSans-48"/>
      </g>
     </g>
    </g>
    <g id="ytick_6">
     <g id="line2d_14">
      <g>
       <use style="stroke:#000000;stroke-width:0.8;" x="57.6" xlink:href="#m4c0a447861" y="43.473954"/>
      </g>
     </g>
     <g id="text_15">
      <!-- 2500 -->
      <g transform="translate(25.15 47.273173)scale(0.1 -0.1)">
       <use xlink:href="#DejaVuSans-50"/>
       <use x="63.623047" xlink:href="#DejaVuSans-53"/>
       <use x="127.246094" xlink:href="#DejaVuSans-48"/>
       <use x="190.869141" xlink:href="#DejaVuSans-48"/>
      </g>
     </g>
    </g>
    <g id="text_16">
     <!-- Occurrencies -->
     <defs>
      <path d="M 39.40625 66.21875 
Q 28.65625 66.21875 22.328125 58.203125 
Q 16.015625 50.203125 16.015625 36.375 
Q 16.015625 22.609375 22.328125 14.59375 
Q 28.65625 6.59375 39.40625 6.59375 
Q 50.140625 6.59375 56.421875 14.59375 
Q 62.703125 22.609375 62.703125 36.375 
Q 62.703125 50.203125 56.421875 58.203125 
Q 50.140625 66.21875 39.40625 66.21875 
z
M 39.40625 74.21875 
Q 54.734375 74.21875 63.90625 63.9375 
Q 73.09375 53.65625 73.09375 36.375 
Q 73.09375 19.140625 63.90625 8.859375 
Q 54.734375 -1.421875 39.40625 -1.421875 
Q 24.03125 -1.421875 14.8125 8.828125 
Q 5.609375 19.09375 5.609375 36.375 
Q 5.609375 53.65625 14.8125 63.9375 
Q 24.03125 74.21875 39.40625 74.21875 
z
" id="DejaVuSans-79"/>
      <path d="M 48.78125 52.59375 
L 48.78125 44.1875 
Q 44.96875 46.296875 41.140625 47.34375 
Q 37.3125 48.390625 33.40625 48.390625 
Q 24.65625 48.390625 19.8125 42.84375 
Q 14.984375 37.3125 14.984375 27.296875 
Q 14.984375 17.28125 19.8125 11.734375 
Q 24.65625 6.203125 33.40625 6.203125 
Q 37.3125 6.203125 41.140625 7.25 
Q 44.96875 8.296875 48.78125 10.40625 
L 48.78125 2.09375 
Q 45.015625 0.34375 40.984375 -0.53125 
Q 36.96875 -1.421875 32.421875 -1.421875 
Q 20.0625 -1.421875 12.78125 6.34375 
Q 5.515625 14.109375 5.515625 27.296875 
Q 5.515625 40.671875 12.859375 48.328125 
Q 20.21875 56 33.015625 56 
Q 37.15625 56 41.109375 55.140625 
Q 45.0625 54.296875 48.78125 52.59375 
z
" id="DejaVuSans-99"/>
      <path d="M 8.5 21.578125 
L 8.5 54.6875 
L 17.484375 54.6875 
L 17.484375 21.921875 
Q 17.484375 14.15625 20.5 10.265625 
Q 23.53125 6.390625 29.59375 6.390625 
Q 36.859375 6.390625 41.078125 11.03125 
Q 45.3125 15.671875 45.3125 23.6875 
L 45.3125 54.6875 
L 54.296875 54.6875 
L 54.296875 0 
L 45.3125 0 
L 45.3125 8.40625 
Q 42.046875 3.421875 37.71875 1 
Q 33.40625 -1.421875 27.6875 -1.421875 
Q 18.265625 -1.421875 13.375 4.4375 
Q 8.5 10.296875 8.5 21.578125 
z
M 31.109375 56 
z
" id="DejaVuSans-117"/>
      <path d="M 41.109375 46.296875 
Q 39.59375 47.171875 37.8125 47.578125 
Q 36.03125 48 33.890625 48 
Q 26.265625 48 22.1875 43.046875 
Q 18.109375 38.09375 18.109375 28.8125 
L 18.109375 0 
L 9.078125 0 
L 9.078125 54.6875 
L 18.109375 54.6875 
L 18.109375 46.1875 
Q 20.953125 51.171875 25.484375 53.578125 
Q 30.03125 56 36.53125 56 
Q 37.453125 56 38.578125 55.875 
Q 39.703125 55.765625 41.0625 55.515625 
z
" id="DejaVuSans-114"/>
      <path d="M 54.890625 33.015625 
L 54.890625 0 
L 45.90625 0 
L 45.90625 32.71875 
Q 45.90625 40.484375 42.875 44.328125 
Q 39.84375 48.1875 33.796875 48.1875 
Q 26.515625 48.1875 22.3125 43.546875 
Q 18.109375 38.921875 18.109375 30.90625 
L 18.109375 0 
L 9.078125 0 
L 9.078125 54.6875 
L 18.109375 54.6875 
L 18.109375 46.1875 
Q 21.34375 51.125 25.703125 53.5625 
Q 30.078125 56 35.796875 56 
Q 45.21875 56 50.046875 50.171875 
Q 54.890625 44.34375 54.890625 33.015625 
z
" id="DejaVuSans-110"/>
      <path d="M 44.28125 53.078125 
L 44.28125 44.578125 
Q 40.484375 46.53125 36.375 47.5 
Q 32.28125 48.484375 27.875 48.484375 
Q 21.1875 48.484375 17.84375 46.4375 
Q 14.5 44.390625 14.5 40.28125 
Q 14.5 37.15625 16.890625 35.375 
Q 19.28125 33.59375 26.515625 31.984375 
L 29.59375 31.296875 
Q 39.15625 29.25 43.1875 25.515625 
Q 47.21875 21.78125 47.21875 15.09375 
Q 47.21875 7.46875 41.1875 3.015625 
Q 35.15625 -1.421875 24.609375 -1.421875 
Q 20.21875 -1.421875 15.453125 -0.5625 
Q 10.6875 0.296875 5.421875 2 
L 5.421875 11.28125 
Q 10.40625 8.6875 15.234375 7.390625 
Q 20.0625 6.109375 24.8125 6.109375 
Q 31.15625 6.109375 34.5625 8.28125 
Q 37.984375 10.453125 37.984375 14.40625 
Q 37.984375 18.0625 35.515625 20.015625 
Q 33.0625 21.96875 24.703125 23.78125 
L 21.578125 24.515625 
Q 13.234375 26.265625 9.515625 29.90625 
Q 5.8125 33.546875 5.8125 39.890625 
Q 5.8125 47.609375 11.28125 51.796875 
Q 16.75 56 26.8125 56 
Q 31.78125 56 36.171875 55.265625 
Q 40.578125 54.546875 44.28125 53.078125 
z
" id="DejaVuSans-115"/>
     </defs>
     <g transform="translate(19.070312 207.304563)rotate(-90)scale(0.1 -0.1)">
      <use xlink:href="#DejaVuSans-79"/>
      <use x="78.710938" xlink:href="#DejaVuSans-99"/>
      <use x="133.691406" xlink:href="#DejaVuSans-99"/>
      <use x="188.671875" xlink:href="#DejaVuSans-117"/>
      <use x="252.050781" xlink:href="#DejaVuSans-114"/>
      <use x="293.148438" xlink:href="#DejaVuSans-114"/>
      <use x="334.230469" xlink:href="#DejaVuSans-101"/>
      <use x="395.753906" xlink:href="#DejaVuSans-110"/>
      <use x="459.132812" xlink:href="#DejaVuSans-99"/>
      <use x="514.113281" xlink:href="#DejaVuSans-105"/>
      <use x="541.896484" xlink:href="#DejaVuSans-101"/>
      <use x="603.419922" xlink:href="#DejaVuSans-115"/>
     </g>
    </g>
   </g>
   <g id="patch_203">
    <path d="M 57.6 307.584 
L 57.6 41.472 
" style="fill:none;stroke:#000000;stroke-linecap:square;stroke-linejoin:miter;stroke-width:0.8;"/>
   </g>
   <g id="patch_204">
    <path d="M 414.72 307.584 
L 414.72 41.472 
" style="fill:none;stroke:#000000;stroke-linecap:square;stroke-linejoin:miter;stroke-width:0.8;"/>
   </g>
   <g id="patch_205">
    <path d="M 57.6 307.584 
L 414.72 307.584 
" style="fill:none;stroke:#000000;stroke-linecap:square;stroke-linejoin:miter;stroke-width:0.8;"/>
   </g>
   <g id="patch_206">
    <path d="M 57.6 41.472 
L 414.72 41.472 
" style="fill:none;stroke:#000000;stroke-linecap:square;stroke-linejoin:miter;stroke-width:0.8;"/>
   </g>
   <g id="text_17">
    <!-- Histogram of fc2 -->
    <defs>
     <path d="M 9.8125 72.90625 
L 19.671875 72.90625 
L 19.671875 43.015625 
L 55.515625 43.015625 
L 55.515625 72.90625 
L 65.375 72.90625 
L 65.375 0 
L 55.515625 0 
L 55.515625 34.71875 
L 19.671875 34.71875 
L 19.671875 0 
L 9.8125 0 
z
" id="DejaVuSans-72"/>
     <path d="M 30.609375 48.390625 
Q 23.390625 48.390625 19.1875 42.75 
Q 14.984375 37.109375 14.984375 27.296875 
Q 14.984375 17.484375 19.15625 11.84375 
Q 23.34375 6.203125 30.609375 6.203125 
Q 37.796875 6.203125 41.984375 11.859375 
Q 46.1875 17.53125 46.1875 27.296875 
Q 46.1875 37.015625 41.984375 42.703125 
Q 37.796875 48.390625 30.609375 48.390625 
z
M 30.609375 56 
Q 42.328125 56 49.015625 48.375 
Q 55.71875 40.765625 55.71875 27.296875 
Q 55.71875 13.875 49.015625 6.21875 
Q 42.328125 -1.421875 30.609375 -1.421875 
Q 18.84375 -1.421875 12.171875 6.21875 
Q 5.515625 13.875 5.515625 27.296875 
Q 5.515625 40.765625 12.171875 48.375 
Q 18.84375 56 30.609375 56 
z
" id="DejaVuSans-111"/>
     <path d="M 34.28125 27.484375 
Q 23.390625 27.484375 19.1875 25 
Q 14.984375 22.515625 14.984375 16.5 
Q 14.984375 11.71875 18.140625 8.90625 
Q 21.296875 6.109375 26.703125 6.109375 
Q 34.1875 6.109375 38.703125 11.40625 
Q 43.21875 16.703125 43.21875 25.484375 
L 43.21875 27.484375 
z
M 52.203125 31.203125 
L 52.203125 0 
L 43.21875 0 
L 43.21875 8.296875 
Q 40.140625 3.328125 35.546875 0.953125 
Q 30.953125 -1.421875 24.3125 -1.421875 
Q 15.921875 -1.421875 10.953125 3.296875 
Q 6 8.015625 6 15.921875 
Q 6 25.140625 12.171875 29.828125 
Q 18.359375 34.515625 30.609375 34.515625 
L 43.21875 34.515625 
L 43.21875 35.40625 
Q 43.21875 41.609375 39.140625 45 
Q 35.0625 48.390625 27.6875 48.390625 
Q 23 48.390625 18.546875 47.265625 
Q 14.109375 46.140625 10.015625 43.890625 
L 10.015625 52.203125 
Q 14.9375 54.109375 19.578125 55.046875 
Q 24.21875 56 28.609375 56 
Q 40.484375 56 46.34375 49.84375 
Q 52.203125 43.703125 52.203125 31.203125 
z
" id="DejaVuSans-97"/>
     <path d="M 52 44.1875 
Q 55.375 50.25 60.0625 53.125 
Q 64.75 56 71.09375 56 
Q 79.640625 56 84.28125 50.015625 
Q 88.921875 44.046875 88.921875 33.015625 
L 88.921875 0 
L 79.890625 0 
L 79.890625 32.71875 
Q 79.890625 40.578125 77.09375 44.375 
Q 74.3125 48.1875 68.609375 48.1875 
Q 61.625 48.1875 57.5625 43.546875 
Q 53.515625 38.921875 53.515625 30.90625 
L 53.515625 0 
L 44.484375 0 
L 44.484375 32.71875 
Q 44.484375 40.625 41.703125 44.40625 
Q 38.921875 48.1875 33.109375 48.1875 
Q 26.21875 48.1875 22.15625 43.53125 
Q 18.109375 38.875 18.109375 30.90625 
L 18.109375 0 
L 9.078125 0 
L 9.078125 54.6875 
L 18.109375 54.6875 
L 18.109375 46.1875 
Q 21.1875 51.21875 25.484375 53.609375 
Q 29.78125 56 35.6875 56 
Q 41.65625 56 45.828125 52.96875 
Q 50 49.953125 52 44.1875 
z
" id="DejaVuSans-109"/>
     <path id="DejaVuSans-32"/>
     <path d="M 37.109375 75.984375 
L 37.109375 68.5 
L 28.515625 68.5 
Q 23.6875 68.5 21.796875 66.546875 
Q 19.921875 64.59375 19.921875 59.515625 
L 19.921875 54.6875 
L 34.71875 54.6875 
L 34.71875 47.703125 
L 19.921875 47.703125 
L 19.921875 0 
L 10.890625 0 
L 10.890625 47.703125 
L 2.296875 47.703125 
L 2.296875 54.6875 
L 10.890625 54.6875 
L 10.890625 58.5 
Q 10.890625 67.625 15.140625 71.796875 
Q 19.390625 75.984375 28.609375 75.984375 
z
" id="DejaVuSans-102"/>
    </defs>
    <g transform="translate(186.209063 35.472)scale(0.12 -0.12)">
     <use xlink:href="#DejaVuSans-72"/>
     <use x="75.195312" xlink:href="#DejaVuSans-105"/>
     <use x="102.978516" xlink:href="#DejaVuSans-115"/>
     <use x="155.078125" xlink:href="#DejaVuSans-116"/>
     <use x="194.287109" xlink:href="#DejaVuSans-111"/>
     <use x="255.46875" xlink:href="#DejaVuSans-103"/>
     <use x="318.945312" xlink:href="#DejaVuSans-114"/>
     <use x="360.058594" xlink:href="#DejaVuSans-97"/>
     <use x="421.337891" xlink:href="#DejaVuSans-109"/>
     <use x="518.75" xlink:href="#DejaVuSans-32"/>
     <use x="550.537109" xlink:href="#DejaVuSans-111"/>
     <use x="611.71875" xlink:href="#DejaVuSans-102"/>
     <use x="646.923828" xlink:href="#DejaVuSans-32"/>
     <use x="678.710938" xlink:href="#DejaVuSans-102"/>
     <use x="713.916016" xlink:href="#DejaVuSans-99"/>
     <use x="768.896484" xlink:href="#DejaVuSans-50"/>
    </g>
   </g>
   <g id="legend_1">
    <g id="patch_207">
     <path d="M 323.679375 78.82825 
L 407.72 78.82825 
Q 409.72 78.82825 409.72 76.82825 
L 409.72 48.472 
Q 409.72 46.472 407.72 46.472 
L 323.679375 46.472 
Q 321.679375 46.472 321.679375 48.472 
L 321.679375 76.82825 
Q 321.679375 78.82825 323.679375 78.82825 
z
" style="fill:#ffffff;opacity:0.8;stroke:#cccccc;stroke-linejoin:miter;"/>
    </g>
    <g id="patch_208">
     <path d="M 325.679375 58.070437 
L 345.679375 58.070437 
L 345.679375 51.070437 
L 325.679375 51.070437 
z
" style="fill:#0000ff;"/>
    </g>
    <g id="text_18">
     <!-- unmasked -->
     <defs>
      <path d="M 9.078125 75.984375 
L 18.109375 75.984375 
L 18.109375 31.109375 
L 44.921875 54.6875 
L 56.390625 54.6875 
L 27.390625 29.109375 
L 57.625 0 
L 45.90625 0 
L 18.109375 26.703125 
L 18.109375 0 
L 9.078125 0 
z
" id="DejaVuSans-107"/>
      <path d="M 45.40625 46.390625 
L 45.40625 75.984375 
L 54.390625 75.984375 
L 54.390625 0 
L 45.40625 0 
L 45.40625 8.203125 
Q 42.578125 3.328125 38.25 0.953125 
Q 33.9375 -1.421875 27.875 -1.421875 
Q 17.96875 -1.421875 11.734375 6.484375 
Q 5.515625 14.40625 5.515625 27.296875 
Q 5.515625 40.1875 11.734375 48.09375 
Q 17.96875 56 27.875 56 
Q 33.9375 56 38.25 53.625 
Q 42.578125 51.265625 45.40625 46.390625 
z
M 14.796875 27.296875 
Q 14.796875 17.390625 18.875 11.75 
Q 22.953125 6.109375 30.078125 6.109375 
Q 37.203125 6.109375 41.296875 11.75 
Q 45.40625 17.390625 45.40625 27.296875 
Q 45.40625 37.203125 41.296875 42.84375 
Q 37.203125 48.484375 30.078125 48.484375 
Q 22.953125 48.484375 18.875 42.84375 
Q 14.796875 37.203125 14.796875 27.296875 
z
" id="DejaVuSans-100"/>
     </defs>
     <g transform="translate(353.679375 58.070437)scale(0.1 -0.1)">
      <use xlink:href="#DejaVuSans-117"/>
      <use x="63.378906" xlink:href="#DejaVuSans-110"/>
      <use x="126.757812" xlink:href="#DejaVuSans-109"/>
      <use x="224.169922" xlink:href="#DejaVuSans-97"/>
      <use x="285.449219" xlink:href="#DejaVuSans-115"/>
      <use x="337.548828" xlink:href="#DejaVuSans-107"/>
      <use x="395.412109" xlink:href="#DejaVuSans-101"/>
      <use x="456.935547" xlink:href="#DejaVuSans-100"/>
     </g>
    </g>
    <g id="patch_209">
     <path d="M 325.679375 72.748562 
L 345.679375 72.748562 
L 345.679375 65.748562 
L 325.679375 65.748562 
z
" style="fill:#808080;"/>
    </g>
    <g id="text_19">
     <!-- masked -->
     <g transform="translate(353.679375 72.748562)scale(0.1 -0.1)">
      <use xlink:href="#DejaVuSans-109"/>
      <use x="97.412109" xlink:href="#DejaVuSans-97"/>
      <use x="158.691406" xlink:href="#DejaVuSans-115"/>
      <use x="210.791016" xlink:href="#DejaVuSans-107"/>
      <use x="268.654297" xlink:href="#DejaVuSans-101"/>
      <use x="330.177734" xlink:href="#DejaVuSans-100"/>
     </g>
    </g>
   </g>
  </g>
 </g>
 <defs>
  <clipPath id="p16a918ddfc">
   <rect height="266.112" width="357.12" x="57.6" y="41.472"/>
  </clipPath>
 </defs>
</svg>
