<?xml version="1.0" encoding="utf-8" standalone="no"?>
<!DOCTYPE svg PUBLIC "-//W3C//DTD SVG 1.1//EN"
  "http://www.w3.org/Graphics/SVG/1.1/DTD/svg11.dtd">
<!-- Created with matplotlib (https://matplotlib.org/) -->
<svg height="345.6pt" version="1.1" viewBox="0 0 460.8 345.6" width="460.8pt" xmlns="http://www.w3.org/2000/svg" xmlns:xlink="http://www.w3.org/1999/xlink">
 <defs>
  <style type="text/css">
*{stroke-linecap:butt;stroke-linejoin:round;}
  </style>
 </defs>
 <g id="figure_1">
  <g id="patch_1">
   <path d="M 0 345.6 
L 460.8 345.6 
L 460.8 0 
L 0 0 
z
" style="fill:#ffffff;"/>
  </g>
  <g id="axes_1">
   <g id="patch_2">
    <path d="M 57.6 307.584 
L 414.72 307.584 
L 414.72 41.472 
L 57.6 41.472 
z
" style="fill:#ffffff;"/>
   </g>
   <g id="patch_3">
    <path clip-path="url(#p854a269b86)" d="M 199.00074 307.584 
L 200.995605 307.584 
L 200.995605 307.572968 
L 199.00074 307.572968 
z
" style="fill:#0000ff;"/>
   </g>
   <g id="patch_4">
    <path clip-path="url(#p854a269b86)" d="M 200.995605 307.584 
L 202.99047 307.584 
L 202.99047 307.572968 
L 200.995605 307.572968 
z
" style="fill:#0000ff;"/>
   </g>
   <g id="patch_5">
    <path clip-path="url(#p854a269b86)" d="M 202.990471 307.584 
L 204.985336 307.584 
L 204.985336 307.584 
L 202.990471 307.584 
z
" style="fill:#0000ff;"/>
   </g>
   <g id="patch_6">
    <path clip-path="url(#p854a269b86)" d="M 204.985336 307.584 
L 206.980202 307.584 
L 206.980202 307.584 
L 204.985336 307.584 
z
" style="fill:#0000ff;"/>
   </g>
   <g id="patch_7">
    <path clip-path="url(#p854a269b86)" d="M 206.980202 307.584 
L 208.975067 307.584 
L 208.975067 307.572968 
L 206.980202 307.572968 
z
" style="fill:#0000ff;"/>
   </g>
   <g id="patch_8">
    <path clip-path="url(#p854a269b86)" d="M 208.975066 307.584 
L 210.969932 307.584 
L 210.969932 307.584 
L 208.975066 307.584 
z
" style="fill:#0000ff;"/>
   </g>
   <g id="patch_9">
    <path clip-path="url(#p854a269b86)" d="M 210.969932 307.584 
L 212.964798 307.584 
L 212.964798 307.584 
L 210.969932 307.584 
z
" style="fill:#0000ff;"/>
   </g>
   <g id="patch_10">
    <path clip-path="url(#p854a269b86)" d="M 212.964797 307.584 
L 214.959662 307.584 
L 214.959662 307.584 
L 212.964797 307.584 
z
" style="fill:#0000ff;"/>
   </g>
   <g id="patch_11">
    <path clip-path="url(#p854a269b86)" d="M 214.95966 307.584 
L 216.954526 307.584 
L 216.954526 307.584 
L 214.95966 307.584 
z
" style="fill:#0000ff;"/>
   </g>
   <g id="patch_12">
    <path clip-path="url(#p854a269b86)" d="M 216.954528 307.584 
L 218.949392 307.584 
L 218.949392 307.584 
L 216.954528 307.584 
z
" style="fill:#0000ff;"/>
   </g>
   <g id="patch_13">
    <path clip-path="url(#p854a269b86)" d="M 218.949392 307.584 
L 220.944257 307.584 
L 220.944257 307.561937 
L 218.949392 307.561937 
z
" style="fill:#0000ff;"/>
   </g>
   <g id="patch_14">
    <path clip-path="url(#p854a269b86)" d="M 220.944257 307.584 
L 222.939123 307.584 
L 222.939123 307.584 
L 220.944257 307.584 
z
" style="fill:#0000ff;"/>
   </g>
   <g id="patch_15">
    <path clip-path="url(#p854a269b86)" d="M 222.939121 307.584 
L 224.933989 307.584 
L 224.933989 307.584 
L 222.939121 307.584 
z
" style="fill:#0000ff;"/>
   </g>
   <g id="patch_16">
    <path clip-path="url(#p854a269b86)" d="M 224.933989 307.584 
L 226.928854 307.584 
L 226.928854 307.584 
L 224.933989 307.584 
z
" style="fill:#0000ff;"/>
   </g>
   <g id="patch_17">
    <path clip-path="url(#p854a269b86)" d="M 226.928851 307.584 
L 228.923715 307.584 
L 228.923715 307.561937 
L 226.928851 307.561937 
z
" style="fill:#0000ff;"/>
   </g>
   <g id="patch_18">
    <path clip-path="url(#p854a269b86)" d="M 228.923718 307.584 
L 230.918583 307.584 
L 230.918583 307.584 
L 228.923718 307.584 
z
" style="fill:#0000ff;"/>
   </g>
   <g id="patch_19">
    <path clip-path="url(#p854a269b86)" d="M 230.91858 307.584 
L 232.913445 307.584 
L 232.913445 307.584 
L 230.91858 307.584 
z
" style="fill:#0000ff;"/>
   </g>
   <g id="patch_20">
    <path clip-path="url(#p854a269b86)" d="M 232.913448 307.584 
L 234.908315 307.584 
L 234.908315 307.572968 
L 232.913448 307.572968 
z
" style="fill:#0000ff;"/>
   </g>
   <g id="patch_21">
    <path clip-path="url(#p854a269b86)" d="M 234.908315 307.584 
L 236.90318 307.584 
L 236.90318 307.584 
L 234.908315 307.584 
z
" style="fill:#0000ff;"/>
   </g>
   <g id="patch_22">
    <path clip-path="url(#p854a269b86)" d="M 236.903177 307.584 
L 238.898041 307.584 
L 238.898041 307.561937 
L 236.903177 307.561937 
z
" style="fill:#0000ff;"/>
   </g>
   <g id="patch_23">
    <path clip-path="url(#p854a269b86)" d="M 238.898044 307.584 
L 240.892909 307.584 
L 240.892909 307.572968 
L 238.898044 307.572968 
z
" style="fill:#0000ff;"/>
   </g>
   <g id="patch_24">
    <path clip-path="url(#p854a269b86)" d="M 240.892906 307.584 
L 242.887771 307.584 
L 242.887771 307.572968 
L 240.892906 307.572968 
z
" style="fill:#0000ff;"/>
   </g>
   <g id="patch_25">
    <path clip-path="url(#p854a269b86)" d="M 242.887774 307.584 
L 244.882641 307.584 
L 244.882641 307.572968 
L 242.887774 307.572968 
z
" style="fill:#0000ff;"/>
   </g>
   <g id="patch_26">
    <path clip-path="url(#p854a269b86)" d="M 244.882641 307.584 
L 246.877506 307.584 
L 246.877506 307.506779 
L 244.882641 307.506779 
z
" style="fill:#0000ff;"/>
   </g>
   <g id="patch_27">
    <path clip-path="url(#p854a269b86)" d="M 246.877503 307.584 
L 248.872367 307.584 
L 248.872367 307.561937 
L 246.877503 307.561937 
z
" style="fill:#0000ff;"/>
   </g>
   <g id="patch_28">
    <path clip-path="url(#p854a269b86)" d="M 248.87237 307.584 
L 250.867238 307.584 
L 250.867238 307.506779 
L 248.87237 307.506779 
z
" style="fill:#0000ff;"/>
   </g>
   <g id="patch_29">
    <path clip-path="url(#p854a269b86)" d="M 250.867238 307.584 
L 252.8621 307.584 
L 252.8621 307.473684 
L 250.867238 307.473684 
z
" style="fill:#0000ff;"/>
   </g>
   <g id="patch_30">
    <path clip-path="url(#p854a269b86)" d="M 252.8621 307.584 
L 254.856967 307.584 
L 254.856967 307.51781 
L 252.8621 307.51781 
z
" style="fill:#0000ff;"/>
   </g>
   <g id="patch_31">
    <path clip-path="url(#p854a269b86)" d="M 254.856973 307.584 
L 256.851835 307.584 
L 256.851835 307.561937 
L 254.856973 307.561937 
z
" style="fill:#0000ff;"/>
   </g>
   <g id="patch_32">
    <path clip-path="url(#p854a269b86)" d="M 256.851829 307.584 
L 258.846696 307.584 
L 258.846696 307.473684 
L 256.851829 307.473684 
z
" style="fill:#0000ff;"/>
   </g>
   <g id="patch_33">
    <path clip-path="url(#p854a269b86)" d="M 258.846696 307.584 
L 260.841564 307.584 
L 260.841564 307.330273 
L 258.846696 307.330273 
z
" style="fill:#0000ff;"/>
   </g>
   <g id="patch_34">
    <path clip-path="url(#p854a269b86)" d="M 260.841564 307.584 
L 262.836426 307.584 
L 262.836426 307.473684 
L 260.841564 307.473684 
z
" style="fill:#0000ff;"/>
   </g>
   <g id="patch_35">
    <path clip-path="url(#p854a269b86)" d="M 262.836426 307.584 
L 264.831293 307.584 
L 264.831293 307.385431 
L 262.836426 307.385431 
z
" style="fill:#0000ff;"/>
   </g>
   <g id="patch_36">
    <path clip-path="url(#p854a269b86)" d="M 264.831299 307.584 
L 266.826161 307.584 
L 266.826161 307.440589 
L 264.831299 307.440589 
z
" style="fill:#0000ff;"/>
   </g>
   <g id="patch_37">
    <path clip-path="url(#p854a269b86)" d="M 266.826155 307.584 
L 268.821022 307.584 
L 268.821022 307.275115 
L 266.826155 307.275115 
z
" style="fill:#0000ff;"/>
   </g>
   <g id="patch_38">
    <path clip-path="url(#p854a269b86)" d="M 268.821022 307.584 
L 270.81589 307.584 
L 270.81589 307.297178 
L 268.821022 307.297178 
z
" style="fill:#0000ff;"/>
   </g>
   <g id="patch_39">
    <path clip-path="url(#p854a269b86)" d="M 270.81589 307.584 
L 272.810752 307.584 
L 272.810752 307.120673 
L 270.81589 307.120673 
z
" style="fill:#0000ff;"/>
   </g>
   <g id="patch_40">
    <path clip-path="url(#p854a269b86)" d="M 272.810752 307.584 
L 274.805619 307.584 
L 274.805619 307.208926 
L 272.810752 307.208926 
z
" style="fill:#0000ff;"/>
   </g>
   <g id="patch_41">
    <path clip-path="url(#p854a269b86)" d="M 274.805625 307.584 
L 276.800487 307.584 
L 276.800487 306.977262 
L 274.805625 306.977262 
z
" style="fill:#0000ff;"/>
   </g>
   <g id="patch_42">
    <path clip-path="url(#p854a269b86)" d="M 276.800481 307.584 
L 278.795348 307.584 
L 278.795348 307.043452 
L 276.800481 307.043452 
z
" style="fill:#0000ff;"/>
   </g>
   <g id="patch_43">
    <path clip-path="url(#p854a269b86)" d="M 278.795348 307.584 
L 280.790216 307.584 
L 280.790216 306.569093 
L 278.795348 306.569093 
z
" style="fill:#0000ff;"/>
   </g>
   <g id="patch_44">
    <path clip-path="url(#p854a269b86)" d="M 280.790216 307.584 
L 282.785078 307.584 
L 282.785078 306.447745 
L 280.790216 306.447745 
z
" style="fill:#0000ff;"/>
   </g>
   <g id="patch_45">
    <path clip-path="url(#p854a269b86)" d="M 282.785078 307.584 
L 284.779945 307.584 
L 284.779945 306.635282 
L 282.785078 306.635282 
z
" style="fill:#0000ff;"/>
   </g>
   <g id="patch_46">
    <path clip-path="url(#p854a269b86)" d="M 284.779951 307.584 
L 286.774813 307.584 
L 286.774813 305.796881 
L 284.779951 305.796881 
z
" style="fill:#0000ff;"/>
   </g>
   <g id="patch_47">
    <path clip-path="url(#p854a269b86)" d="M 286.774807 307.584 
L 288.769674 307.584 
L 288.769674 306.127829 
L 286.774807 306.127829 
z
" style="fill:#0000ff;"/>
   </g>
   <g id="patch_48">
    <path clip-path="url(#p854a269b86)" d="M 288.769674 307.584 
L 290.764542 307.584 
L 290.764542 304.914353 
L 288.769674 304.914353 
z
" style="fill:#0000ff;"/>
   </g>
   <g id="patch_49">
    <path clip-path="url(#p854a269b86)" d="M 290.764542 307.584 
L 292.759404 307.584 
L 292.759404 305.565217 
L 290.764542 305.565217 
z
" style="fill:#0000ff;"/>
   </g>
   <g id="patch_50">
    <path clip-path="url(#p854a269b86)" d="M 292.759404 307.584 
L 294.754271 307.584 
L 294.754271 304.186267 
L 292.759404 304.186267 
z
" style="fill:#0000ff;"/>
   </g>
   <g id="patch_51">
    <path clip-path="url(#p854a269b86)" d="M 294.754277 307.584 
L 296.749139 307.584 
L 296.749139 304.991574 
L 294.754277 304.991574 
z
" style="fill:#0000ff;"/>
   </g>
   <g id="patch_52">
    <path clip-path="url(#p854a269b86)" d="M 296.749133 307.584 
L 298.744 307.584 
L 298.744 302.818348 
L 296.749133 302.818348 
z
" style="fill:#0000ff;"/>
   </g>
   <g id="patch_53">
    <path clip-path="url(#p854a269b86)" d="M 298.743995 307.584 
L 300.738856 307.584 
L 300.738856 302.741127 
L 298.743995 302.741127 
z
" style="fill:#0000ff;"/>
   </g>
   <g id="patch_54">
    <path clip-path="url(#p854a269b86)" d="M 300.73888 307.584 
L 302.733748 307.584 
L 302.733748 303.667782 
L 300.73888 303.667782 
z
" style="fill:#0000ff;"/>
   </g>
   <g id="patch_55">
    <path clip-path="url(#p854a269b86)" d="M 302.733736 307.584 
L 304.728591 307.584 
L 304.728591 300.656155 
L 302.733736 300.656155 
z
" style="fill:#0000ff;"/>
   </g>
   <g id="patch_56">
    <path clip-path="url(#p854a269b86)" d="M 304.728591 307.584 
L 306.723459 307.584 
L 306.723459 302.388116 
L 304.728591 302.388116 
z
" style="fill:#0000ff;"/>
   </g>
   <g id="patch_57">
    <path clip-path="url(#p854a269b86)" d="M 306.723471 307.584 
L 308.718338 307.584 
L 308.718338 298.758719 
L 306.723471 298.758719 
z
" style="fill:#0000ff;"/>
   </g>
   <g id="patch_58">
    <path clip-path="url(#p854a269b86)" d="M 308.718327 307.584 
L 310.713194 307.584 
L 310.713194 301.141545 
L 308.718327 301.141545 
z
" style="fill:#0000ff;"/>
   </g>
   <g id="patch_59">
    <path clip-path="url(#p854a269b86)" d="M 310.713206 307.584 
L 312.708074 307.584 
L 312.708074 296.508273 
L 310.713206 296.508273 
z
" style="fill:#0000ff;"/>
   </g>
   <g id="patch_60">
    <path clip-path="url(#p854a269b86)" d="M 312.708062 307.584 
L 314.702917 307.584 
L 314.702917 299.707437 
L 312.708062 299.707437 
z
" style="fill:#0000ff;"/>
   </g>
   <g id="patch_61">
    <path clip-path="url(#p854a269b86)" d="M 314.702917 307.584 
L 316.697785 307.584 
L 316.697785 292.029443 
L 314.702917 292.029443 
z
" style="fill:#0000ff;"/>
   </g>
   <g id="patch_62">
    <path clip-path="url(#p854a269b86)" d="M 316.697797 307.584 
L 318.692664 307.584 
L 318.692664 286.855622 
L 316.697797 286.855622 
z
" style="fill:#0000ff;"/>
   </g>
   <g id="patch_63">
    <path clip-path="url(#p854a269b86)" d="M 318.692653 307.584 
L 320.68752 307.584 
L 320.68752 247.020511 
L 318.692653 247.020511 
z
" style="fill:#0000ff;"/>
   </g>
   <g id="patch_64">
    <path clip-path="url(#p854a269b86)" d="M 320.687532 307.584 
L 322.6824 307.584 
L 322.6824 224.306445 
L 320.687532 224.306445 
z
" style="fill:#0000ff;"/>
   </g>
   <g id="patch_65">
    <path clip-path="url(#p854a269b86)" d="M 322.682388 307.584 
L 324.677243 307.584 
L 324.677243 249.657063 
L 322.682388 249.657063 
z
" style="fill:#0000ff;"/>
   </g>
   <g id="patch_66">
    <path clip-path="url(#p854a269b86)" d="M 324.677243 307.584 
L 326.672111 307.584 
L 326.672111 237.500239 
L 324.677243 237.500239 
z
" style="fill:#0000ff;"/>
   </g>
   <g id="patch_67">
    <path clip-path="url(#p854a269b86)" d="M 326.672123 307.584 
L 328.666991 307.584 
L 328.666991 279.144533 
L 326.672123 279.144533 
z
" style="fill:#0000ff;"/>
   </g>
   <g id="patch_68">
    <path clip-path="url(#p854a269b86)" d="M 328.666979 307.584 
L 330.661846 307.584 
L 330.661846 289.94447 
L 328.666979 289.94447 
z
" style="fill:#0000ff;"/>
   </g>
   <g id="patch_69">
    <path clip-path="url(#p854a269b86)" d="M 330.661858 307.584 
L 332.656726 307.584 
L 332.656726 298.35055 
L 330.661858 298.35055 
z
" style="fill:#0000ff;"/>
   </g>
   <g id="patch_70">
    <path clip-path="url(#p854a269b86)" d="M 332.656714 307.584 
L 334.651569 307.584 
L 334.651569 295.504397 
L 332.656714 295.504397 
z
" style="fill:#0000ff;"/>
   </g>
   <g id="patch_71">
    <path clip-path="url(#p854a269b86)" d="M 334.651569 307.584 
L 336.646437 307.584 
L 336.646437 299.894974 
L 334.651569 299.894974 
z
" style="fill:#0000ff;"/>
   </g>
   <g id="patch_72">
    <path clip-path="url(#p854a269b86)" d="M 336.646449 307.584 
L 338.641317 307.584 
L 338.641317 296.464146 
L 336.646449 296.464146 
z
" style="fill:#0000ff;"/>
   </g>
   <g id="patch_73">
    <path clip-path="url(#p854a269b86)" d="M 338.641305 307.584 
L 340.636172 307.584 
L 340.636172 298.185076 
L 338.641305 298.185076 
z
" style="fill:#0000ff;"/>
   </g>
   <g id="patch_74">
    <path clip-path="url(#p854a269b86)" d="M 340.636184 307.584 
L 342.631052 307.584 
L 342.631052 301.748283 
L 340.636184 301.748283 
z
" style="fill:#0000ff;"/>
   </g>
   <g id="patch_75">
    <path clip-path="url(#p854a269b86)" d="M 342.63104 307.584 
L 344.625895 307.584 
L 344.625895 299.917037 
L 342.63104 299.917037 
z
" style="fill:#0000ff;"/>
   </g>
   <g id="patch_76">
    <path clip-path="url(#p854a269b86)" d="M 344.625895 307.584 
L 346.620763 307.584 
L 346.620763 303.369928 
L 344.625895 303.369928 
z
" style="fill:#0000ff;"/>
   </g>
   <g id="patch_77">
    <path clip-path="url(#p854a269b86)" d="M 346.620775 307.584 
L 348.615643 307.584 
L 348.615643 301.814473 
L 346.620775 301.814473 
z
" style="fill:#0000ff;"/>
   </g>
   <g id="patch_78">
    <path clip-path="url(#p854a269b86)" d="M 348.615631 307.584 
L 350.610498 307.584 
L 350.610498 304.109046 
L 348.615631 304.109046 
z
" style="fill:#0000ff;"/>
   </g>
   <g id="patch_79">
    <path clip-path="url(#p854a269b86)" d="M 350.61051 307.584 
L 352.605378 307.584 
L 352.605378 303.469213 
L 350.61051 303.469213 
z
" style="fill:#0000ff;"/>
   </g>
   <g id="patch_80">
    <path clip-path="url(#p854a269b86)" d="M 352.605366 307.584 
L 354.600221 307.584 
L 354.600221 305.134985 
L 352.605366 305.134985 
z
" style="fill:#0000ff;"/>
   </g>
   <g id="patch_81">
    <path clip-path="url(#p854a269b86)" d="M 354.600221 307.584 
L 356.595089 307.584 
L 356.595089 304.528247 
L 354.600221 304.528247 
z
" style="fill:#0000ff;"/>
   </g>
   <g id="patch_82">
    <path clip-path="url(#p854a269b86)" d="M 356.595101 307.584 
L 358.589969 307.584 
L 358.589969 305.92926 
L 356.595101 305.92926 
z
" style="fill:#0000ff;"/>
   </g>
   <g id="patch_83">
    <path clip-path="url(#p854a269b86)" d="M 358.589957 307.584 
L 360.584824 307.584 
L 360.584824 305.829975 
L 358.589957 305.829975 
z
" style="fill:#0000ff;"/>
   </g>
   <g id="patch_84">
    <path clip-path="url(#p854a269b86)" d="M 360.584836 307.584 
L 362.579704 307.584 
L 362.579704 306.006481 
L 360.584836 306.006481 
z
" style="fill:#0000ff;"/>
   </g>
   <g id="patch_85">
    <path clip-path="url(#p854a269b86)" d="M 362.579692 307.584 
L 364.574548 307.584 
L 364.574548 306.933136 
L 362.579692 306.933136 
z
" style="fill:#0000ff;"/>
   </g>
   <g id="patch_86">
    <path clip-path="url(#p854a269b86)" d="M 364.574548 307.584 
L 366.569415 307.584 
L 366.569415 306.679409 
L 364.574548 306.679409 
z
" style="fill:#0000ff;"/>
   </g>
   <g id="patch_87">
    <path clip-path="url(#p854a269b86)" d="M 366.569427 307.584 
L 368.564295 307.584 
L 368.564295 307.175831 
L 366.569427 307.175831 
z
" style="fill:#0000ff;"/>
   </g>
   <g id="patch_88">
    <path clip-path="url(#p854a269b86)" d="M 368.564283 307.584 
L 370.55915 307.584 
L 370.55915 307.186862 
L 368.564283 307.186862 
z
" style="fill:#0000ff;"/>
   </g>
   <g id="patch_89">
    <path clip-path="url(#p854a269b86)" d="M 370.559162 307.584 
L 372.55403 307.584 
L 372.55403 307.341305 
L 370.559162 307.341305 
z
" style="fill:#0000ff;"/>
   </g>
   <g id="patch_90">
    <path clip-path="url(#p854a269b86)" d="M 372.554018 307.584 
L 374.548874 307.584 
L 374.548874 307.385431 
L 372.554018 307.385431 
z
" style="fill:#0000ff;"/>
   </g>
   <g id="patch_91">
    <path clip-path="url(#p854a269b86)" d="M 374.548874 307.584 
L 376.543741 307.584 
L 376.543741 307.484716 
L 374.548874 307.484716 
z
" style="fill:#0000ff;"/>
   </g>
   <g id="patch_92">
    <path clip-path="url(#p854a269b86)" d="M 376.543753 307.584 
L 378.538621 307.584 
L 378.538621 307.429558 
L 376.543753 307.429558 
z
" style="fill:#0000ff;"/>
   </g>
   <g id="patch_93">
    <path clip-path="url(#p854a269b86)" d="M 378.538609 307.584 
L 380.533476 307.584 
L 380.533476 307.484716 
L 378.538609 307.484716 
z
" style="fill:#0000ff;"/>
   </g>
   <g id="patch_94">
    <path clip-path="url(#p854a269b86)" d="M 380.533488 307.584 
L 382.528356 307.584 
L 382.528356 307.484716 
L 380.533488 307.484716 
z
" style="fill:#0000ff;"/>
   </g>
   <g id="patch_95">
    <path clip-path="url(#p854a269b86)" d="M 382.528344 307.584 
L 384.5232 307.584 
L 384.5232 307.51781 
L 382.528344 307.51781 
z
" style="fill:#0000ff;"/>
   </g>
   <g id="patch_96">
    <path clip-path="url(#p854a269b86)" d="M 384.5232 307.584 
L 386.518067 307.584 
L 386.518067 307.561937 
L 384.5232 307.561937 
z
" style="fill:#0000ff;"/>
   </g>
   <g id="patch_97">
    <path clip-path="url(#p854a269b86)" d="M 386.518079 307.584 
L 388.512947 307.584 
L 388.512947 307.561937 
L 386.518079 307.561937 
z
" style="fill:#0000ff;"/>
   </g>
   <g id="patch_98">
    <path clip-path="url(#p854a269b86)" d="M 388.512935 307.584 
L 390.507802 307.584 
L 390.507802 307.572968 
L 388.512935 307.572968 
z
" style="fill:#0000ff;"/>
   </g>
   <g id="patch_99">
    <path clip-path="url(#p854a269b86)" d="M 390.507814 307.584 
L 392.502682 307.584 
L 392.502682 307.561937 
L 390.507814 307.561937 
z
" style="fill:#0000ff;"/>
   </g>
   <g id="patch_100">
    <path clip-path="url(#p854a269b86)" d="M 392.50267 307.584 
L 394.497526 307.584 
L 394.497526 307.584 
L 392.50267 307.584 
z
" style="fill:#0000ff;"/>
   </g>
   <g id="patch_101">
    <path clip-path="url(#p854a269b86)" d="M 394.497526 307.584 
L 396.492393 307.584 
L 396.492393 307.584 
L 394.497526 307.584 
z
" style="fill:#0000ff;"/>
   </g>
   <g id="patch_102">
    <path clip-path="url(#p854a269b86)" d="M 396.492405 307.584 
L 398.487273 307.584 
L 398.487273 307.572968 
L 396.492405 307.572968 
z
" style="fill:#0000ff;"/>
   </g>
   <g id="patch_103">
    <path clip-path="url(#p854a269b86)" d="M 73.832727 307.584 
L 75.624189 307.584 
L 75.624189 307.572968 
L 73.832727 307.572968 
z
" style="fill:#808080;"/>
   </g>
   <g id="patch_104">
    <path clip-path="url(#p854a269b86)" d="M 75.624189 307.584 
L 77.415663 307.584 
L 77.415663 307.572968 
L 75.624189 307.572968 
z
" style="fill:#808080;"/>
   </g>
   <g id="patch_105">
    <path clip-path="url(#p854a269b86)" d="M 77.415675 307.584 
L 79.207137 307.584 
L 79.207137 307.572968 
L 77.415675 307.572968 
z
" style="fill:#808080;"/>
   </g>
   <g id="patch_106">
    <path clip-path="url(#p854a269b86)" d="M 79.207125 307.584 
L 80.998599 307.584 
L 80.998599 307.584 
L 79.207125 307.584 
z
" style="fill:#808080;"/>
   </g>
   <g id="patch_107">
    <path clip-path="url(#p854a269b86)" d="M 80.998599 307.584 
L 82.790061 307.584 
L 82.790061 307.584 
L 80.998599 307.584 
z
" style="fill:#808080;"/>
   </g>
   <g id="patch_108">
    <path clip-path="url(#p854a269b86)" d="M 82.790061 307.584 
L 84.581535 307.584 
L 84.581535 307.584 
L 82.790061 307.584 
z
" style="fill:#808080;"/>
   </g>
   <g id="patch_109">
    <path clip-path="url(#p854a269b86)" d="M 84.581547 307.584 
L 86.373009 307.584 
L 86.373009 307.584 
L 84.581547 307.584 
z
" style="fill:#808080;"/>
   </g>
   <g id="patch_110">
    <path clip-path="url(#p854a269b86)" d="M 86.372997 307.584 
L 88.16447 307.584 
L 88.16447 307.584 
L 86.372997 307.584 
z
" style="fill:#808080;"/>
   </g>
   <g id="patch_111">
    <path clip-path="url(#p854a269b86)" d="M 88.16447 307.584 
L 89.955932 307.584 
L 89.955932 307.584 
L 88.16447 307.584 
z
" style="fill:#808080;"/>
   </g>
   <g id="patch_112">
    <path clip-path="url(#p854a269b86)" d="M 89.955944 307.584 
L 91.747406 307.584 
L 91.747406 307.584 
L 89.955944 307.584 
z
" style="fill:#808080;"/>
   </g>
   <g id="patch_113">
    <path clip-path="url(#p854a269b86)" d="M 91.747394 307.584 
L 93.538868 307.584 
L 93.538868 307.584 
L 91.747394 307.584 
z
" style="fill:#808080;"/>
   </g>
   <g id="patch_114">
    <path clip-path="url(#p854a269b86)" d="M 93.538868 307.584 
L 95.33033 307.584 
L 95.33033 307.584 
L 93.538868 307.584 
z
" style="fill:#808080;"/>
   </g>
   <g id="patch_115">
    <path clip-path="url(#p854a269b86)" d="M 95.33033 307.584 
L 97.121804 307.584 
L 97.121804 307.584 
L 95.33033 307.584 
z
" style="fill:#808080;"/>
   </g>
   <g id="patch_116">
    <path clip-path="url(#p854a269b86)" d="M 97.121816 307.584 
L 98.913278 307.584 
L 98.913278 307.561937 
L 97.121816 307.561937 
z
" style="fill:#808080;"/>
   </g>
   <g id="patch_117">
    <path clip-path="url(#p854a269b86)" d="M 98.913266 307.584 
L 100.70474 307.584 
L 100.70474 307.584 
L 98.913266 307.584 
z
" style="fill:#808080;"/>
   </g>
   <g id="patch_118">
    <path clip-path="url(#p854a269b86)" d="M 100.704728 307.584 
L 102.496202 307.584 
L 102.496202 307.584 
L 100.704728 307.584 
z
" style="fill:#808080;"/>
   </g>
   <g id="patch_119">
    <path clip-path="url(#p854a269b86)" d="M 102.496202 307.584 
L 104.287676 307.584 
L 104.287676 307.550905 
L 102.496202 307.550905 
z
" style="fill:#808080;"/>
   </g>
   <g id="patch_120">
    <path clip-path="url(#p854a269b86)" d="M 104.287664 307.584 
L 106.079138 307.584 
L 106.079138 307.584 
L 104.287664 307.584 
z
" style="fill:#808080;"/>
   </g>
   <g id="patch_121">
    <path clip-path="url(#p854a269b86)" d="M 106.079138 307.584 
L 107.870611 307.584 
L 107.870611 307.584 
L 106.079138 307.584 
z
" style="fill:#808080;"/>
   </g>
   <g id="patch_122">
    <path clip-path="url(#p854a269b86)" d="M 107.870599 307.584 
L 109.662073 307.584 
L 109.662073 307.584 
L 107.870599 307.584 
z
" style="fill:#808080;"/>
   </g>
   <g id="patch_123">
    <path clip-path="url(#p854a269b86)" d="M 109.662073 307.584 
L 111.453535 307.584 
L 111.453535 307.584 
L 109.662073 307.584 
z
" style="fill:#808080;"/>
   </g>
   <g id="patch_124">
    <path clip-path="url(#p854a269b86)" d="M 111.453535 307.584 
L 113.245009 307.584 
L 113.245009 307.584 
L 111.453535 307.584 
z
" style="fill:#808080;"/>
   </g>
   <g id="patch_125">
    <path clip-path="url(#p854a269b86)" d="M 113.244997 307.584 
L 115.036471 307.584 
L 115.036471 307.584 
L 113.244997 307.584 
z
" style="fill:#808080;"/>
   </g>
   <g id="patch_126">
    <path clip-path="url(#p854a269b86)" d="M 115.036471 307.584 
L 116.827945 307.584 
L 116.827945 307.584 
L 115.036471 307.584 
z
" style="fill:#808080;"/>
   </g>
   <g id="patch_127">
    <path clip-path="url(#p854a269b86)" d="M 116.827933 307.584 
L 118.619407 307.584 
L 118.619407 307.584 
L 116.827933 307.584 
z
" style="fill:#808080;"/>
   </g>
   <g id="patch_128">
    <path clip-path="url(#p854a269b86)" d="M 118.619407 307.584 
L 120.410881 307.584 
L 120.410881 307.584 
L 118.619407 307.584 
z
" style="fill:#808080;"/>
   </g>
   <g id="patch_129">
    <path clip-path="url(#p854a269b86)" d="M 120.410869 307.584 
L 122.202343 307.584 
L 122.202343 307.584 
L 120.410869 307.584 
z
" style="fill:#808080;"/>
   </g>
   <g id="patch_130">
    <path clip-path="url(#p854a269b86)" d="M 122.202343 307.584 
L 123.993817 307.584 
L 123.993817 307.396463 
L 122.202343 307.396463 
z
" style="fill:#808080;"/>
   </g>
   <g id="patch_131">
    <path clip-path="url(#p854a269b86)" d="M 123.993805 307.584 
L 125.785279 307.584 
L 125.785279 307.561937 
L 123.993805 307.561937 
z
" style="fill:#808080;"/>
   </g>
   <g id="patch_132">
    <path clip-path="url(#p854a269b86)" d="M 125.785279 307.584 
L 127.57674 307.584 
L 127.57674 307.451621 
L 125.785279 307.451621 
z
" style="fill:#808080;"/>
   </g>
   <g id="patch_133">
    <path clip-path="url(#p854a269b86)" d="M 127.57674 307.584 
L 129.368214 307.584 
L 129.368214 307.131704 
L 127.57674 307.131704 
z
" style="fill:#808080;"/>
   </g>
   <g id="patch_134">
    <path clip-path="url(#p854a269b86)" d="M 129.368202 307.584 
L 131.159676 307.584 
L 131.159676 307.584 
L 129.368202 307.584 
z
" style="fill:#808080;"/>
   </g>
   <g id="patch_135">
    <path clip-path="url(#p854a269b86)" d="M 131.159676 307.584 
L 132.95115 307.584 
L 132.95115 307.584 
L 131.159676 307.584 
z
" style="fill:#808080;"/>
   </g>
   <g id="patch_136">
    <path clip-path="url(#p854a269b86)" d="M 132.951138 307.584 
L 134.742612 307.584 
L 134.742612 307.584 
L 132.951138 307.584 
z
" style="fill:#808080;"/>
   </g>
   <g id="patch_137">
    <path clip-path="url(#p854a269b86)" d="M 134.742612 307.584 
L 136.534086 307.584 
L 136.534086 307.584 
L 134.742612 307.584 
z
" style="fill:#808080;"/>
   </g>
   <g id="patch_138">
    <path clip-path="url(#p854a269b86)" d="M 136.534074 307.584 
L 138.325548 307.584 
L 138.325548 307.584 
L 136.534074 307.584 
z
" style="fill:#808080;"/>
   </g>
   <g id="patch_139">
    <path clip-path="url(#p854a269b86)" d="M 138.325548 307.584 
L 140.117022 307.584 
L 140.117022 307.584 
L 138.325548 307.584 
z
" style="fill:#808080;"/>
   </g>
   <g id="patch_140">
    <path clip-path="url(#p854a269b86)" d="M 140.117016 307.584 
L 141.908478 307.584 
L 141.908478 307.584 
L 140.117016 307.584 
z
" style="fill:#808080;"/>
   </g>
   <g id="patch_141">
    <path clip-path="url(#p854a269b86)" d="M 141.908472 307.584 
L 143.699946 307.584 
L 143.699946 307.584 
L 141.908472 307.584 
z
" style="fill:#808080;"/>
   </g>
   <g id="patch_142">
    <path clip-path="url(#p854a269b86)" d="M 143.699946 307.584 
L 145.491419 307.584 
L 145.491419 307.584 
L 143.699946 307.584 
z
" style="fill:#808080;"/>
   </g>
   <g id="patch_143">
    <path clip-path="url(#p854a269b86)" d="M 145.491408 307.584 
L 147.282881 307.584 
L 147.282881 307.584 
L 145.491408 307.584 
z
" style="fill:#808080;"/>
   </g>
   <g id="patch_144">
    <path clip-path="url(#p854a269b86)" d="M 147.282881 307.584 
L 149.074355 307.584 
L 149.074355 305.697596 
L 147.282881 305.697596 
z
" style="fill:#808080;"/>
   </g>
   <g id="patch_145">
    <path clip-path="url(#p854a269b86)" d="M 149.074346 307.584 
L 150.86582 307.584 
L 150.86582 307.407494 
L 149.074346 307.407494 
z
" style="fill:#808080;"/>
   </g>
   <g id="patch_146">
    <path clip-path="url(#p854a269b86)" d="M 150.865817 307.584 
L 152.657279 307.584 
L 152.657279 306.877978 
L 150.865817 306.877978 
z
" style="fill:#808080;"/>
   </g>
   <g id="patch_147">
    <path clip-path="url(#p854a269b86)" d="M 152.657279 307.584 
L 154.448753 307.584 
L 154.448753 303.050012 
L 152.657279 303.050012 
z
" style="fill:#808080;"/>
   </g>
   <g id="patch_148">
    <path clip-path="url(#p854a269b86)" d="M 154.448747 307.584 
L 156.240221 307.584 
L 156.240221 307.584 
L 154.448747 307.584 
z
" style="fill:#808080;"/>
   </g>
   <g id="patch_149">
    <path clip-path="url(#p854a269b86)" d="M 156.240215 307.584 
L 158.031689 307.584 
L 158.031689 307.584 
L 156.240215 307.584 
z
" style="fill:#808080;"/>
   </g>
   <g id="patch_150">
    <path clip-path="url(#p854a269b86)" d="M 158.031689 307.584 
L 159.823151 307.584 
L 159.823151 307.584 
L 158.031689 307.584 
z
" style="fill:#808080;"/>
   </g>
   <g id="patch_151">
    <path clip-path="url(#p854a269b86)" d="M 159.823148 307.584 
L 161.614622 307.584 
L 161.614622 307.584 
L 159.823148 307.584 
z
" style="fill:#808080;"/>
   </g>
   <g id="patch_152">
    <path clip-path="url(#p854a269b86)" d="M 161.614616 307.584 
L 163.40609 307.584 
L 163.40609 307.584 
L 161.614616 307.584 
z
" style="fill:#808080;"/>
   </g>
   <g id="patch_153">
    <path clip-path="url(#p854a269b86)" d="M 163.406084 307.584 
L 165.197557 307.584 
L 165.197557 307.584 
L 163.406084 307.584 
z
" style="fill:#808080;"/>
   </g>
   <g id="patch_154">
    <path clip-path="url(#p854a269b86)" d="M 165.197551 307.584 
L 166.989025 307.584 
L 166.989025 307.584 
L 165.197551 307.584 
z
" style="fill:#808080;"/>
   </g>
   <g id="patch_155">
    <path clip-path="url(#p854a269b86)" d="M 166.989022 307.584 
L 168.780484 307.584 
L 168.780484 307.584 
L 166.989022 307.584 
z
" style="fill:#808080;"/>
   </g>
   <g id="patch_156">
    <path clip-path="url(#p854a269b86)" d="M 168.780484 307.584 
L 170.571958 307.584 
L 170.571958 307.584 
L 168.780484 307.584 
z
" style="fill:#808080;"/>
   </g>
   <g id="patch_157">
    <path clip-path="url(#p854a269b86)" d="M 170.571952 307.584 
L 172.363426 307.584 
L 172.363426 307.584 
L 170.571952 307.584 
z
" style="fill:#808080;"/>
   </g>
   <g id="patch_158">
    <path clip-path="url(#p854a269b86)" d="M 172.363426 307.584 
L 174.154888 307.584 
L 174.154888 288.400046 
L 172.363426 288.400046 
z
" style="fill:#808080;"/>
   </g>
   <g id="patch_159">
    <path clip-path="url(#p854a269b86)" d="M 174.154886 307.584 
L 175.94636 307.584 
L 175.94636 306.083702 
L 174.154886 306.083702 
z
" style="fill:#808080;"/>
   </g>
   <g id="patch_160">
    <path clip-path="url(#p854a269b86)" d="M 175.946359 307.584 
L 177.737821 307.584 
L 177.737821 301.990978 
L 175.946359 301.990978 
z
" style="fill:#808080;"/>
   </g>
   <g id="patch_161">
    <path clip-path="url(#p854a269b86)" d="M 177.737821 307.584 
L 179.529295 307.584 
L 179.529295 276.629328 
L 177.737821 276.629328 
z
" style="fill:#808080;"/>
   </g>
   <g id="patch_162">
    <path clip-path="url(#p854a269b86)" d="M 179.529295 307.584 
L 181.320757 307.584 
L 181.320757 307.584 
L 179.529295 307.584 
z
" style="fill:#808080;"/>
   </g>
   <g id="patch_163">
    <path clip-path="url(#p854a269b86)" d="M 181.320755 307.584 
L 183.112229 307.584 
L 183.112229 307.584 
L 181.320755 307.584 
z
" style="fill:#808080;"/>
   </g>
   <g id="patch_164">
    <path clip-path="url(#p854a269b86)" d="M 183.112227 307.584 
L 184.903689 307.584 
L 184.903689 307.584 
L 183.112227 307.584 
z
" style="fill:#808080;"/>
   </g>
   <g id="patch_165">
    <path clip-path="url(#p854a269b86)" d="M 184.903689 307.584 
L 186.695163 307.584 
L 186.695163 307.584 
L 184.903689 307.584 
z
" style="fill:#808080;"/>
   </g>
   <g id="patch_166">
    <path clip-path="url(#p854a269b86)" d="M 186.695163 307.584 
L 188.486625 307.584 
L 188.486625 307.584 
L 186.695163 307.584 
z
" style="fill:#808080;"/>
   </g>
   <g id="patch_167">
    <path clip-path="url(#p854a269b86)" d="M 188.48663 307.584 
L 190.278092 307.584 
L 190.278092 307.584 
L 188.48663 307.584 
z
" style="fill:#808080;"/>
   </g>
   <g id="patch_168">
    <path clip-path="url(#p854a269b86)" d="M 190.278098 307.584 
L 192.06956 307.584 
L 192.06956 307.584 
L 190.278098 307.584 
z
" style="fill:#808080;"/>
   </g>
   <g id="patch_169">
    <path clip-path="url(#p854a269b86)" d="M 192.069564 307.584 
L 193.861026 307.584 
L 193.861026 307.584 
L 192.069564 307.584 
z
" style="fill:#808080;"/>
   </g>
   <g id="patch_170">
    <path clip-path="url(#p854a269b86)" d="M 193.861031 307.584 
L 195.652493 307.584 
L 195.652493 307.584 
L 193.861031 307.584 
z
" style="fill:#808080;"/>
   </g>
   <g id="patch_171">
    <path clip-path="url(#p854a269b86)" d="M 195.652498 307.584 
L 197.44396 307.584 
L 197.44396 307.584 
L 195.652498 307.584 
z
" style="fill:#808080;"/>
   </g>
   <g id="patch_172">
    <path clip-path="url(#p854a269b86)" d="M 197.443966 307.584 
L 199.235428 307.584 
L 199.235428 54.144 
L 197.443966 54.144 
z
" style="fill:#808080;"/>
   </g>
   <g id="patch_173">
    <path clip-path="url(#p854a269b86)" d="M 199.235433 307.584 
L 201.026895 307.584 
L 201.026895 280.556578 
L 199.235433 280.556578 
z
" style="fill:#808080;"/>
   </g>
   <g id="patch_174">
    <path clip-path="url(#p854a269b86)" d="M 201.0269 307.584 
L 202.818362 307.584 
L 202.818362 248.002323 
L 201.0269 248.002323 
z
" style="fill:#808080;"/>
   </g>
   <g id="patch_175">
    <path clip-path="url(#p854a269b86)" d="M 202.818367 307.584 
L 204.609829 307.584 
L 204.609829 249.028262 
L 202.818367 249.028262 
z
" style="fill:#808080;"/>
   </g>
   <g id="patch_176">
    <path clip-path="url(#p854a269b86)" d="M 204.609835 307.584 
L 206.401297 307.584 
L 206.401297 307.584 
L 204.609835 307.584 
z
" style="fill:#808080;"/>
   </g>
   <g id="patch_177">
    <path clip-path="url(#p854a269b86)" d="M 206.401301 307.584 
L 208.192763 307.584 
L 208.192763 307.584 
L 206.401301 307.584 
z
" style="fill:#808080;"/>
   </g>
   <g id="patch_178">
    <path clip-path="url(#p854a269b86)" d="M 208.192769 307.584 
L 209.984231 307.584 
L 209.984231 307.584 
L 208.192769 307.584 
z
" style="fill:#808080;"/>
   </g>
   <g id="patch_179">
    <path clip-path="url(#p854a269b86)" d="M 209.984236 307.584 
L 211.775697 307.584 
L 211.775697 307.584 
L 209.984236 307.584 
z
" style="fill:#808080;"/>
   </g>
   <g id="patch_180">
    <path clip-path="url(#p854a269b86)" d="M 211.775697 307.584 
L 213.567171 307.584 
L 213.567171 307.584 
L 211.775697 307.584 
z
" style="fill:#808080;"/>
   </g>
   <g id="patch_181">
    <path clip-path="url(#p854a269b86)" d="M 213.56717 307.584 
L 215.358632 307.584 
L 215.358632 307.584 
L 213.56717 307.584 
z
" style="fill:#808080;"/>
   </g>
   <g id="patch_182">
    <path clip-path="url(#p854a269b86)" d="M 215.358632 307.584 
L 217.150106 307.584 
L 217.150106 307.584 
L 215.358632 307.584 
z
" style="fill:#808080;"/>
   </g>
   <g id="patch_183">
    <path clip-path="url(#p854a269b86)" d="M 217.150106 307.584 
L 218.941568 307.584 
L 218.941568 307.584 
L 217.150106 307.584 
z
" style="fill:#808080;"/>
   </g>
   <g id="patch_184">
    <path clip-path="url(#p854a269b86)" d="M 218.941566 307.584 
L 220.73304 307.584 
L 220.73304 307.584 
L 218.941566 307.584 
z
" style="fill:#808080;"/>
   </g>
   <g id="patch_185">
    <path clip-path="url(#p854a269b86)" d="M 220.733038 307.584 
L 222.5245 307.584 
L 222.5245 307.584 
L 220.733038 307.584 
z
" style="fill:#808080;"/>
   </g>
   <g id="patch_186">
    <path clip-path="url(#p854a269b86)" d="M 222.5245 307.584 
L 224.315974 307.584 
L 224.315974 261.670477 
L 222.5245 261.670477 
z
" style="fill:#808080;"/>
   </g>
   <g id="patch_187">
    <path clip-path="url(#p854a269b86)" d="M 224.315968 307.584 
L 226.107442 307.584 
L 226.107442 306.017513 
L 224.315968 306.017513 
z
" style="fill:#808080;"/>
   </g>
   <g id="patch_188">
    <path clip-path="url(#p854a269b86)" d="M 226.107439 307.584 
L 227.898901 307.584 
L 227.898901 303.469213 
L 226.107439 303.469213 
z
" style="fill:#808080;"/>
   </g>
   <g id="patch_189">
    <path clip-path="url(#p854a269b86)" d="M 227.898901 307.584 
L 229.690375 307.584 
L 229.690375 298.030634 
L 227.898901 298.030634 
z
" style="fill:#808080;"/>
   </g>
   <g id="patch_190">
    <path clip-path="url(#p854a269b86)" d="M 229.690369 307.584 
L 231.481843 307.584 
L 231.481843 307.584 
L 229.690369 307.584 
z
" style="fill:#808080;"/>
   </g>
   <g id="patch_191">
    <path clip-path="url(#p854a269b86)" d="M 231.481837 307.584 
L 233.273311 307.584 
L 233.273311 307.584 
L 231.481837 307.584 
z
" style="fill:#808080;"/>
   </g>
   <g id="patch_192">
    <path clip-path="url(#p854a269b86)" d="M 233.273311 307.584 
L 235.064773 307.584 
L 235.064773 307.584 
L 233.273311 307.584 
z
" style="fill:#808080;"/>
   </g>
   <g id="patch_193">
    <path clip-path="url(#p854a269b86)" d="M 235.06477 307.584 
L 236.856244 307.584 
L 236.856244 307.584 
L 235.06477 307.584 
z
" style="fill:#808080;"/>
   </g>
   <g id="patch_194">
    <path clip-path="url(#p854a269b86)" d="M 236.856238 307.584 
L 238.647712 307.584 
L 238.647712 307.584 
L 236.856238 307.584 
z
" style="fill:#808080;"/>
   </g>
   <g id="patch_195">
    <path clip-path="url(#p854a269b86)" d="M 238.647706 307.584 
L 240.439179 307.584 
L 240.439179 307.584 
L 238.647706 307.584 
z
" style="fill:#808080;"/>
   </g>
   <g id="patch_196">
    <path clip-path="url(#p854a269b86)" d="M 240.439176 307.584 
L 242.230638 307.584 
L 242.230638 307.584 
L 240.439176 307.584 
z
" style="fill:#808080;"/>
   </g>
   <g id="patch_197">
    <path clip-path="url(#p854a269b86)" d="M 242.230638 307.584 
L 244.022112 307.584 
L 244.022112 307.584 
L 242.230638 307.584 
z
" style="fill:#808080;"/>
   </g>
   <g id="patch_198">
    <path clip-path="url(#p854a269b86)" d="M 244.022106 307.584 
L 245.81358 307.584 
L 245.81358 307.584 
L 244.022106 307.584 
z
" style="fill:#808080;"/>
   </g>
   <g id="patch_199">
    <path clip-path="url(#p854a269b86)" d="M 245.813574 307.584 
L 247.605048 307.584 
L 247.605048 307.584 
L 245.813574 307.584 
z
" style="fill:#808080;"/>
   </g>
   <g id="patch_200">
    <path clip-path="url(#p854a269b86)" d="M 247.605048 307.584 
L 249.39651 307.584 
L 249.39651 303.844287 
L 247.605048 303.844287 
z
" style="fill:#808080;"/>
   </g>
   <g id="patch_201">
    <path clip-path="url(#p854a269b86)" d="M 249.39651 307.584 
L 251.187984 307.584 
L 251.187984 307.51781 
L 249.39651 307.51781 
z
" style="fill:#808080;"/>
   </g>
   <g id="patch_202">
    <path clip-path="url(#p854a269b86)" d="M 251.187972 307.584 
L 252.979446 307.584 
L 252.979446 307.043452 
L 251.187972 307.043452 
z
" style="fill:#808080;"/>
   </g>
   <g id="matplotlib.axis_1">
    <g id="xtick_1">
     <g id="line2d_1">
      <defs>
       <path d="M 0 0 
L 0 3.5 
" id="m94d057a72a" style="stroke:#000000;stroke-width:0.8;"/>
      </defs>
      <g>
       <use style="stroke:#000000;stroke-width:0.8;" x="120.770732" xlink:href="#m94d057a72a" y="307.584"/>
      </g>
     </g>
     <g id="text_1">
      <!-- −100 -->
      <defs>
       <path d="M 10.59375 35.5 
L 73.1875 35.5 
L 73.1875 27.203125 
L 10.59375 27.203125 
z
" id="DejaVuSans-8722"/>
       <path d="M 12.40625 8.296875 
L 28.515625 8.296875 
L 28.515625 63.921875 
L 10.984375 60.40625 
L 10.984375 69.390625 
L 28.421875 72.90625 
L 38.28125 72.90625 
L 38.28125 8.296875 
L 54.390625 8.296875 
L 54.390625 0 
L 12.40625 0 
z
" id="DejaVuSans-49"/>
       <path d="M 31.78125 66.40625 
Q 24.171875 66.40625 20.328125 58.90625 
Q 16.5 51.421875 16.5 36.375 
Q 16.5 21.390625 20.328125 13.890625 
Q 24.171875 6.390625 31.78125 6.390625 
Q 39.453125 6.390625 43.28125 13.890625 
Q 47.125 21.390625 47.125 36.375 
Q 47.125 51.421875 43.28125 58.90625 
Q 39.453125 66.40625 31.78125 66.40625 
z
M 31.78125 74.21875 
Q 44.046875 74.21875 50.515625 64.515625 
Q 56.984375 54.828125 56.984375 36.375 
Q 56.984375 17.96875 50.515625 8.265625 
Q 44.046875 -1.421875 31.78125 -1.421875 
Q 19.53125 -1.421875 13.0625 8.265625 
Q 6.59375 17.96875 6.59375 36.375 
Q 6.59375 54.828125 13.0625 64.515625 
Q 19.53125 74.21875 31.78125 74.21875 
z
" id="DejaVuSans-48"/>
      </defs>
      <g transform="translate(107.037138 322.182437)scale(0.1 -0.1)">
       <use xlink:href="#DejaVuSans-8722"/>
       <use x="83.789062" xlink:href="#DejaVuSans-49"/>
       <use x="147.412109" xlink:href="#DejaVuSans-48"/>
       <use x="211.035156" xlink:href="#DejaVuSans-48"/>
      </g>
     </g>
    </g>
    <g id="xtick_2">
     <g id="line2d_2">
      <g>
       <use style="stroke:#000000;stroke-width:0.8;" x="199.00074" xlink:href="#m94d057a72a" y="307.584"/>
      </g>
     </g>
     <g id="text_2">
      <!-- 0 -->
      <g transform="translate(195.81949 322.182437)scale(0.1 -0.1)">
       <use xlink:href="#DejaVuSans-48"/>
      </g>
     </g>
    </g>
    <g id="xtick_3">
     <g id="line2d_3">
      <g>
       <use style="stroke:#000000;stroke-width:0.8;" x="277.230748" xlink:href="#m94d057a72a" y="307.584"/>
      </g>
     </g>
     <g id="text_3">
      <!-- 100 -->
      <g transform="translate(267.686998 322.182437)scale(0.1 -0.1)">
       <use xlink:href="#DejaVuSans-49"/>
       <use x="63.623047" xlink:href="#DejaVuSans-48"/>
       <use x="127.246094" xlink:href="#DejaVuSans-48"/>
      </g>
     </g>
    </g>
    <g id="xtick_4">
     <g id="line2d_4">
      <g>
       <use style="stroke:#000000;stroke-width:0.8;" x="355.460756" xlink:href="#m94d057a72a" y="307.584"/>
      </g>
     </g>
     <g id="text_4">
      <!-- 200 -->
      <defs>
       <path d="M 19.1875 8.296875 
L 53.609375 8.296875 
L 53.609375 0 
L 7.328125 0 
L 7.328125 8.296875 
Q 12.9375 14.109375 22.625 23.890625 
Q 32.328125 33.6875 34.8125 36.53125 
Q 39.546875 41.84375 41.421875 45.53125 
Q 43.3125 49.21875 43.3125 52.78125 
Q 43.3125 58.59375 39.234375 62.25 
Q 35.15625 65.921875 28.609375 65.921875 
Q 23.96875 65.921875 18.8125 64.3125 
Q 13.671875 62.703125 7.8125 59.421875 
L 7.8125 69.390625 
Q 13.765625 71.78125 18.9375 73 
Q 24.125 74.21875 28.421875 74.21875 
Q 39.75 74.21875 46.484375 68.546875 
Q 53.21875 62.890625 53.21875 53.421875 
Q 53.21875 48.921875 51.53125 44.890625 
Q 49.859375 40.875 45.40625 35.40625 
Q 44.1875 33.984375 37.640625 27.21875 
Q 31.109375 20.453125 19.1875 8.296875 
z
" id="DejaVuSans-50"/>
      </defs>
      <g transform="translate(345.917006 322.182437)scale(0.1 -0.1)">
       <use xlink:href="#DejaVuSans-50"/>
       <use x="63.623047" xlink:href="#DejaVuSans-48"/>
       <use x="127.246094" xlink:href="#DejaVuSans-48"/>
      </g>
     </g>
    </g>
    <g id="text_5">
     <!-- Weight -->
     <defs>
      <path d="M 3.328125 72.90625 
L 13.28125 72.90625 
L 28.609375 11.28125 
L 43.890625 72.90625 
L 54.984375 72.90625 
L 70.3125 11.28125 
L 85.59375 72.90625 
L 95.609375 72.90625 
L 77.296875 0 
L 64.890625 0 
L 49.515625 63.28125 
L 33.984375 0 
L 21.578125 0 
z
" id="DejaVuSans-87"/>
      <path d="M 56.203125 29.59375 
L 56.203125 25.203125 
L 14.890625 25.203125 
Q 15.484375 15.921875 20.484375 11.0625 
Q 25.484375 6.203125 34.421875 6.203125 
Q 39.59375 6.203125 44.453125 7.46875 
Q 49.3125 8.734375 54.109375 11.28125 
L 54.109375 2.78125 
Q 49.265625 0.734375 44.1875 -0.34375 
Q 39.109375 -1.421875 33.890625 -1.421875 
Q 20.796875 -1.421875 13.15625 6.1875 
Q 5.515625 13.8125 5.515625 26.8125 
Q 5.515625 40.234375 12.765625 48.109375 
Q 20.015625 56 32.328125 56 
Q 43.359375 56 49.78125 48.890625 
Q 56.203125 41.796875 56.203125 29.59375 
z
M 47.21875 32.234375 
Q 47.125 39.59375 43.09375 43.984375 
Q 39.0625 48.390625 32.421875 48.390625 
Q 24.90625 48.390625 20.390625 44.140625 
Q 15.875 39.890625 15.1875 32.171875 
z
" id="DejaVuSans-101"/>
      <path d="M 9.421875 54.6875 
L 18.40625 54.6875 
L 18.40625 0 
L 9.421875 0 
z
M 9.421875 75.984375 
L 18.40625 75.984375 
L 18.40625 64.59375 
L 9.421875 64.59375 
z
" id="DejaVuSans-105"/>
      <path d="M 45.40625 27.984375 
Q 45.40625 37.75 41.375 43.109375 
Q 37.359375 48.484375 30.078125 48.484375 
Q 22.859375 48.484375 18.828125 43.109375 
Q 14.796875 37.75 14.796875 27.984375 
Q 14.796875 18.265625 18.828125 12.890625 
Q 22.859375 7.515625 30.078125 7.515625 
Q 37.359375 7.515625 41.375 12.890625 
Q 45.40625 18.265625 45.40625 27.984375 
z
M 54.390625 6.78125 
Q 54.390625 -7.171875 48.1875 -13.984375 
Q 42 -20.796875 29.203125 -20.796875 
Q 24.46875 -20.796875 20.265625 -20.09375 
Q 16.0625 -19.390625 12.109375 -17.921875 
L 12.109375 -9.1875 
Q 16.0625 -11.328125 19.921875 -12.34375 
Q 23.78125 -13.375 27.78125 -13.375 
Q 36.625 -13.375 41.015625 -8.765625 
Q 45.40625 -4.15625 45.40625 5.171875 
L 45.40625 9.625 
Q 42.625 4.78125 38.28125 2.390625 
Q 33.9375 0 27.875 0 
Q 17.828125 0 11.671875 7.65625 
Q 5.515625 15.328125 5.515625 27.984375 
Q 5.515625 40.671875 11.671875 48.328125 
Q 17.828125 56 27.875 56 
Q 33.9375 56 38.28125 53.609375 
Q 42.625 51.21875 45.40625 46.390625 
L 45.40625 54.6875 
L 54.390625 54.6875 
z
" id="DejaVuSans-103"/>
      <path d="M 54.890625 33.015625 
L 54.890625 0 
L 45.90625 0 
L 45.90625 32.71875 
Q 45.90625 40.484375 42.875 44.328125 
Q 39.84375 48.1875 33.796875 48.1875 
Q 26.515625 48.1875 22.3125 43.546875 
Q 18.109375 38.921875 18.109375 30.90625 
L 18.109375 0 
L 9.078125 0 
L 9.078125 75.984375 
L 18.109375 75.984375 
L 18.109375 46.1875 
Q 21.34375 51.125 25.703125 53.5625 
Q 30.078125 56 35.796875 56 
Q 45.21875 56 50.046875 50.171875 
Q 54.890625 44.34375 54.890625 33.015625 
z
" id="DejaVuSans-104"/>
      <path d="M 18.3125 70.21875 
L 18.3125 54.6875 
L 36.8125 54.6875 
L 36.8125 47.703125 
L 18.3125 47.703125 
L 18.3125 18.015625 
Q 18.3125 11.328125 20.140625 9.421875 
Q 21.96875 7.515625 27.59375 7.515625 
L 36.8125 7.515625 
L 36.8125 0 
L 27.59375 0 
Q 17.1875 0 13.234375 3.875 
Q 9.28125 7.765625 9.28125 18.015625 
L 9.28125 47.703125 
L 2.6875 47.703125 
L 2.6875 54.6875 
L 9.28125 54.6875 
L 9.28125 70.21875 
z
" id="DejaVuSans-116"/>
     </defs>
     <g transform="translate(218.451406 335.860562)scale(0.1 -0.1)">
      <use xlink:href="#DejaVuSans-87"/>
      <use x="98.798828" xlink:href="#DejaVuSans-101"/>
      <use x="160.322266" xlink:href="#DejaVuSans-105"/>
      <use x="188.105469" xlink:href="#DejaVuSans-103"/>
      <use x="251.582031" xlink:href="#DejaVuSans-104"/>
      <use x="314.960938" xlink:href="#DejaVuSans-116"/>
     </g>
    </g>
   </g>
   <g id="matplotlib.axis_2">
    <g id="ytick_1">
     <g id="line2d_5">
      <defs>
       <path d="M 0 0 
L -3.5 0 
" id="m0452fea08a" style="stroke:#000000;stroke-width:0.8;"/>
      </defs>
      <g>
       <use style="stroke:#000000;stroke-width:0.8;" x="57.6" xlink:href="#m0452fea08a" y="307.584"/>
      </g>
     </g>
     <g id="text_6">
      <!-- 0 -->
      <g transform="translate(44.2375 311.383219)scale(0.1 -0.1)">
       <use xlink:href="#DejaVuSans-48"/>
      </g>
     </g>
    </g>
    <g id="ytick_2">
     <g id="line2d_6">
      <g>
       <use style="stroke:#000000;stroke-width:0.8;" x="57.6" xlink:href="#m0452fea08a" y="252.425995"/>
      </g>
     </g>
     <g id="text_7">
      <!-- 5000 -->
      <defs>
       <path d="M 10.796875 72.90625 
L 49.515625 72.90625 
L 49.515625 64.59375 
L 19.828125 64.59375 
L 19.828125 46.734375 
Q 21.96875 47.46875 24.109375 47.828125 
Q 26.265625 48.1875 28.421875 48.1875 
Q 40.625 48.1875 47.75 41.5 
Q 54.890625 34.8125 54.890625 23.390625 
Q 54.890625 11.625 47.5625 5.09375 
Q 40.234375 -1.421875 26.90625 -1.421875 
Q 22.3125 -1.421875 17.546875 -0.640625 
Q 12.796875 0.140625 7.71875 1.703125 
L 7.71875 11.625 
Q 12.109375 9.234375 16.796875 8.0625 
Q 21.484375 6.890625 26.703125 6.890625 
Q 35.15625 6.890625 40.078125 11.328125 
Q 45.015625 15.765625 45.015625 23.390625 
Q 45.015625 31 40.078125 35.4375 
Q 35.15625 39.890625 26.703125 39.890625 
Q 22.75 39.890625 18.8125 39.015625 
Q 14.890625 38.140625 10.796875 36.28125 
z
" id="DejaVuSans-53"/>
      </defs>
      <g transform="translate(25.15 256.225214)scale(0.1 -0.1)">
       <use xlink:href="#DejaVuSans-53"/>
       <use x="63.623047" xlink:href="#DejaVuSans-48"/>
       <use x="127.246094" xlink:href="#DejaVuSans-48"/>
       <use x="190.869141" xlink:href="#DejaVuSans-48"/>
      </g>
     </g>
    </g>
    <g id="ytick_3">
     <g id="line2d_7">
      <g>
       <use style="stroke:#000000;stroke-width:0.8;" x="57.6" xlink:href="#m0452fea08a" y="197.267991"/>
      </g>
     </g>
     <g id="text_8">
      <!-- 10000 -->
      <g transform="translate(18.7875 201.067209)scale(0.1 -0.1)">
       <use xlink:href="#DejaVuSans-49"/>
       <use x="63.623047" xlink:href="#DejaVuSans-48"/>
       <use x="127.246094" xlink:href="#DejaVuSans-48"/>
       <use x="190.869141" xlink:href="#DejaVuSans-48"/>
       <use x="254.492188" xlink:href="#DejaVuSans-48"/>
      </g>
     </g>
    </g>
    <g id="ytick_4">
     <g id="line2d_8">
      <g>
       <use style="stroke:#000000;stroke-width:0.8;" x="57.6" xlink:href="#m0452fea08a" y="142.109986"/>
      </g>
     </g>
     <g id="text_9">
      <!-- 15000 -->
      <g transform="translate(18.7875 145.909205)scale(0.1 -0.1)">
       <use xlink:href="#DejaVuSans-49"/>
       <use x="63.623047" xlink:href="#DejaVuSans-53"/>
       <use x="127.246094" xlink:href="#DejaVuSans-48"/>
       <use x="190.869141" xlink:href="#DejaVuSans-48"/>
       <use x="254.492188" xlink:href="#DejaVuSans-48"/>
      </g>
     </g>
    </g>
    <g id="ytick_5">
     <g id="line2d_9">
      <g>
       <use style="stroke:#000000;stroke-width:0.8;" x="57.6" xlink:href="#m0452fea08a" y="86.951981"/>
      </g>
     </g>
     <g id="text_10">
      <!-- 20000 -->
      <g transform="translate(18.7875 90.7512)scale(0.1 -0.1)">
       <use xlink:href="#DejaVuSans-50"/>
       <use x="63.623047" xlink:href="#DejaVuSans-48"/>
       <use x="127.246094" xlink:href="#DejaVuSans-48"/>
       <use x="190.869141" xlink:href="#DejaVuSans-48"/>
       <use x="254.492188" xlink:href="#DejaVuSans-48"/>
      </g>
     </g>
    </g>
    <g id="text_11">
     <!-- Occurrencies -->
     <defs>
      <path d="M 39.40625 66.21875 
Q 28.65625 66.21875 22.328125 58.203125 
Q 16.015625 50.203125 16.015625 36.375 
Q 16.015625 22.609375 22.328125 14.59375 
Q 28.65625 6.59375 39.40625 6.59375 
Q 50.140625 6.59375 56.421875 14.59375 
Q 62.703125 22.609375 62.703125 36.375 
Q 62.703125 50.203125 56.421875 58.203125 
Q 50.140625 66.21875 39.40625 66.21875 
z
M 39.40625 74.21875 
Q 54.734375 74.21875 63.90625 63.9375 
Q 73.09375 53.65625 73.09375 36.375 
Q 73.09375 19.140625 63.90625 8.859375 
Q 54.734375 -1.421875 39.40625 -1.421875 
Q 24.03125 -1.421875 14.8125 8.828125 
Q 5.609375 19.09375 5.609375 36.375 
Q 5.609375 53.65625 14.8125 63.9375 
Q 24.03125 74.21875 39.40625 74.21875 
z
" id="DejaVuSans-79"/>
      <path d="M 48.78125 52.59375 
L 48.78125 44.1875 
Q 44.96875 46.296875 41.140625 47.34375 
Q 37.3125 48.390625 33.40625 48.390625 
Q 24.65625 48.390625 19.8125 42.84375 
Q 14.984375 37.3125 14.984375 27.296875 
Q 14.984375 17.28125 19.8125 11.734375 
Q 24.65625 6.203125 33.40625 6.203125 
Q 37.3125 6.203125 41.140625 7.25 
Q 44.96875 8.296875 48.78125 10.40625 
L 48.78125 2.09375 
Q 45.015625 0.34375 40.984375 -0.53125 
Q 36.96875 -1.421875 32.421875 -1.421875 
Q 20.0625 -1.421875 12.78125 6.34375 
Q 5.515625 14.109375 5.515625 27.296875 
Q 5.515625 40.671875 12.859375 48.328125 
Q 20.21875 56 33.015625 56 
Q 37.15625 56 41.109375 55.140625 
Q 45.0625 54.296875 48.78125 52.59375 
z
" id="DejaVuSans-99"/>
      <path d="M 8.5 21.578125 
L 8.5 54.6875 
L 17.484375 54.6875 
L 17.484375 21.921875 
Q 17.484375 14.15625 20.5 10.265625 
Q 23.53125 6.390625 29.59375 6.390625 
Q 36.859375 6.390625 41.078125 11.03125 
Q 45.3125 15.671875 45.3125 23.6875 
L 45.3125 54.6875 
L 54.296875 54.6875 
L 54.296875 0 
L 45.3125 0 
L 45.3125 8.40625 
Q 42.046875 3.421875 37.71875 1 
Q 33.40625 -1.421875 27.6875 -1.421875 
Q 18.265625 -1.421875 13.375 4.4375 
Q 8.5 10.296875 8.5 21.578125 
z
M 31.109375 56 
z
" id="DejaVuSans-117"/>
      <path d="M 41.109375 46.296875 
Q 39.59375 47.171875 37.8125 47.578125 
Q 36.03125 48 33.890625 48 
Q 26.265625 48 22.1875 43.046875 
Q 18.109375 38.09375 18.109375 28.8125 
L 18.109375 0 
L 9.078125 0 
L 9.078125 54.6875 
L 18.109375 54.6875 
L 18.109375 46.1875 
Q 20.953125 51.171875 25.484375 53.578125 
Q 30.03125 56 36.53125 56 
Q 37.453125 56 38.578125 55.875 
Q 39.703125 55.765625 41.0625 55.515625 
z
" id="DejaVuSans-114"/>
      <path d="M 54.890625 33.015625 
L 54.890625 0 
L 45.90625 0 
L 45.90625 32.71875 
Q 45.90625 40.484375 42.875 44.328125 
Q 39.84375 48.1875 33.796875 48.1875 
Q 26.515625 48.1875 22.3125 43.546875 
Q 18.109375 38.921875 18.109375 30.90625 
L 18.109375 0 
L 9.078125 0 
L 9.078125 54.6875 
L 18.109375 54.6875 
L 18.109375 46.1875 
Q 21.34375 51.125 25.703125 53.5625 
Q 30.078125 56 35.796875 56 
Q 45.21875 56 50.046875 50.171875 
Q 54.890625 44.34375 54.890625 33.015625 
z
" id="DejaVuSans-110"/>
      <path d="M 44.28125 53.078125 
L 44.28125 44.578125 
Q 40.484375 46.53125 36.375 47.5 
Q 32.28125 48.484375 27.875 48.484375 
Q 21.1875 48.484375 17.84375 46.4375 
Q 14.5 44.390625 14.5 40.28125 
Q 14.5 37.15625 16.890625 35.375 
Q 19.28125 33.59375 26.515625 31.984375 
L 29.59375 31.296875 
Q 39.15625 29.25 43.1875 25.515625 
Q 47.21875 21.78125 47.21875 15.09375 
Q 47.21875 7.46875 41.1875 3.015625 
Q 35.15625 -1.421875 24.609375 -1.421875 
Q 20.21875 -1.421875 15.453125 -0.5625 
Q 10.6875 0.296875 5.421875 2 
L 5.421875 11.28125 
Q 10.40625 8.6875 15.234375 7.390625 
Q 20.0625 6.109375 24.8125 6.109375 
Q 31.15625 6.109375 34.5625 8.28125 
Q 37.984375 10.453125 37.984375 14.40625 
Q 37.984375 18.0625 35.515625 20.015625 
Q 33.0625 21.96875 24.703125 23.78125 
L 21.578125 24.515625 
Q 13.234375 26.265625 9.515625 29.90625 
Q 5.8125 33.546875 5.8125 39.890625 
Q 5.8125 47.609375 11.28125 51.796875 
Q 16.75 56 26.8125 56 
Q 31.78125 56 36.171875 55.265625 
Q 40.578125 54.546875 44.28125 53.078125 
z
" id="DejaVuSans-115"/>
     </defs>
     <g transform="translate(12.707812 207.304563)rotate(-90)scale(0.1 -0.1)">
      <use xlink:href="#DejaVuSans-79"/>
      <use x="78.710938" xlink:href="#DejaVuSans-99"/>
      <use x="133.691406" xlink:href="#DejaVuSans-99"/>
      <use x="188.671875" xlink:href="#DejaVuSans-117"/>
      <use x="252.050781" xlink:href="#DejaVuSans-114"/>
      <use x="293.148438" xlink:href="#DejaVuSans-114"/>
      <use x="334.230469" xlink:href="#DejaVuSans-101"/>
      <use x="395.753906" xlink:href="#DejaVuSans-110"/>
      <use x="459.132812" xlink:href="#DejaVuSans-99"/>
      <use x="514.113281" xlink:href="#DejaVuSans-105"/>
      <use x="541.896484" xlink:href="#DejaVuSans-101"/>
      <use x="603.419922" xlink:href="#DejaVuSans-115"/>
     </g>
    </g>
   </g>
   <g id="patch_203">
    <path d="M 57.6 307.584 
L 57.6 41.472 
" style="fill:none;stroke:#000000;stroke-linecap:square;stroke-linejoin:miter;stroke-width:0.8;"/>
   </g>
   <g id="patch_204">
    <path d="M 414.72 307.584 
L 414.72 41.472 
" style="fill:none;stroke:#000000;stroke-linecap:square;stroke-linejoin:miter;stroke-width:0.8;"/>
   </g>
   <g id="patch_205">
    <path d="M 57.6 307.584 
L 414.72 307.584 
" style="fill:none;stroke:#000000;stroke-linecap:square;stroke-linejoin:miter;stroke-width:0.8;"/>
   </g>
   <g id="patch_206">
    <path d="M 57.6 41.472 
L 414.72 41.472 
" style="fill:none;stroke:#000000;stroke-linecap:square;stroke-linejoin:miter;stroke-width:0.8;"/>
   </g>
   <g id="text_12">
    <!-- Histogram of fc1 -->
    <defs>
     <path d="M 9.8125 72.90625 
L 19.671875 72.90625 
L 19.671875 43.015625 
L 55.515625 43.015625 
L 55.515625 72.90625 
L 65.375 72.90625 
L 65.375 0 
L 55.515625 0 
L 55.515625 34.71875 
L 19.671875 34.71875 
L 19.671875 0 
L 9.8125 0 
z
" id="DejaVuSans-72"/>
     <path d="M 30.609375 48.390625 
Q 23.390625 48.390625 19.1875 42.75 
Q 14.984375 37.109375 14.984375 27.296875 
Q 14.984375 17.484375 19.15625 11.84375 
Q 23.34375 6.203125 30.609375 6.203125 
Q 37.796875 6.203125 41.984375 11.859375 
Q 46.1875 17.53125 46.1875 27.296875 
Q 46.1875 37.015625 41.984375 42.703125 
Q 37.796875 48.390625 30.609375 48.390625 
z
M 30.609375 56 
Q 42.328125 56 49.015625 48.375 
Q 55.71875 40.765625 55.71875 27.296875 
Q 55.71875 13.875 49.015625 6.21875 
Q 42.328125 -1.421875 30.609375 -1.421875 
Q 18.84375 -1.421875 12.171875 6.21875 
Q 5.515625 13.875 5.515625 27.296875 
Q 5.515625 40.765625 12.171875 48.375 
Q 18.84375 56 30.609375 56 
z
" id="DejaVuSans-111"/>
     <path d="M 34.28125 27.484375 
Q 23.390625 27.484375 19.1875 25 
Q 14.984375 22.515625 14.984375 16.5 
Q 14.984375 11.71875 18.140625 8.90625 
Q 21.296875 6.109375 26.703125 6.109375 
Q 34.1875 6.109375 38.703125 11.40625 
Q 43.21875 16.703125 43.21875 25.484375 
L 43.21875 27.484375 
z
M 52.203125 31.203125 
L 52.203125 0 
L 43.21875 0 
L 43.21875 8.296875 
Q 40.140625 3.328125 35.546875 0.953125 
Q 30.953125 -1.421875 24.3125 -1.421875 
Q 15.921875 -1.421875 10.953125 3.296875 
Q 6 8.015625 6 15.921875 
Q 6 25.140625 12.171875 29.828125 
Q 18.359375 34.515625 30.609375 34.515625 
L 43.21875 34.515625 
L 43.21875 35.40625 
Q 43.21875 41.609375 39.140625 45 
Q 35.0625 48.390625 27.6875 48.390625 
Q 23 48.390625 18.546875 47.265625 
Q 14.109375 46.140625 10.015625 43.890625 
L 10.015625 52.203125 
Q 14.9375 54.109375 19.578125 55.046875 
Q 24.21875 56 28.609375 56 
Q 40.484375 56 46.34375 49.84375 
Q 52.203125 43.703125 52.203125 31.203125 
z
" id="DejaVuSans-97"/>
     <path d="M 52 44.1875 
Q 55.375 50.25 60.0625 53.125 
Q 64.75 56 71.09375 56 
Q 79.640625 56 84.28125 50.015625 
Q 88.921875 44.046875 88.921875 33.015625 
L 88.921875 0 
L 79.890625 0 
L 79.890625 32.71875 
Q 79.890625 40.578125 77.09375 44.375 
Q 74.3125 48.1875 68.609375 48.1875 
Q 61.625 48.1875 57.5625 43.546875 
Q 53.515625 38.921875 53.515625 30.90625 
L 53.515625 0 
L 44.484375 0 
L 44.484375 32.71875 
Q 44.484375 40.625 41.703125 44.40625 
Q 38.921875 48.1875 33.109375 48.1875 
Q 26.21875 48.1875 22.15625 43.53125 
Q 18.109375 38.875 18.109375 30.90625 
L 18.109375 0 
L 9.078125 0 
L 9.078125 54.6875 
L 18.109375 54.6875 
L 18.109375 46.1875 
Q 21.1875 51.21875 25.484375 53.609375 
Q 29.78125 56 35.6875 56 
Q 41.65625 56 45.828125 52.96875 
Q 50 49.953125 52 44.1875 
z
" id="DejaVuSans-109"/>
     <path id="DejaVuSans-32"/>
     <path d="M 37.109375 75.984375 
L 37.109375 68.5 
L 28.515625 68.5 
Q 23.6875 68.5 21.796875 66.546875 
Q 19.921875 64.59375 19.921875 59.515625 
L 19.921875 54.6875 
L 34.71875 54.6875 
L 34.71875 47.703125 
L 19.921875 47.703125 
L 19.921875 0 
L 10.890625 0 
L 10.890625 47.703125 
L 2.296875 47.703125 
L 2.296875 54.6875 
L 10.890625 54.6875 
L 10.890625 58.5 
Q 10.890625 67.625 15.140625 71.796875 
Q 19.390625 75.984375 28.609375 75.984375 
z
" id="DejaVuSans-102"/>
    </defs>
    <g transform="translate(186.209063 35.472)scale(0.12 -0.12)">
     <use xlink:href="#DejaVuSans-72"/>
     <use x="75.195312" xlink:href="#DejaVuSans-105"/>
     <use x="102.978516" xlink:href="#DejaVuSans-115"/>
     <use x="155.078125" xlink:href="#DejaVuSans-116"/>
     <use x="194.287109" xlink:href="#DejaVuSans-111"/>
     <use x="255.46875" xlink:href="#DejaVuSans-103"/>
     <use x="318.945312" xlink:href="#DejaVuSans-114"/>
     <use x="360.058594" xlink:href="#DejaVuSans-97"/>
     <use x="421.337891" xlink:href="#DejaVuSans-109"/>
     <use x="518.75" xlink:href="#DejaVuSans-32"/>
     <use x="550.537109" xlink:href="#DejaVuSans-111"/>
     <use x="611.71875" xlink:href="#DejaVuSans-102"/>
     <use x="646.923828" xlink:href="#DejaVuSans-32"/>
     <use x="678.710938" xlink:href="#DejaVuSans-102"/>
     <use x="713.916016" xlink:href="#DejaVuSans-99"/>
     <use x="768.896484" xlink:href="#DejaVuSans-49"/>
    </g>
   </g>
   <g id="legend_1">
    <g id="patch_207">
     <path d="M 323.679375 78.82825 
L 407.72 78.82825 
Q 409.72 78.82825 409.72 76.82825 
L 409.72 48.472 
Q 409.72 46.472 407.72 46.472 
L 323.679375 46.472 
Q 321.679375 46.472 321.679375 48.472 
L 321.679375 76.82825 
Q 321.679375 78.82825 323.679375 78.82825 
z
" style="fill:#ffffff;opacity:0.8;stroke:#cccccc;stroke-linejoin:miter;"/>
    </g>
    <g id="patch_208">
     <path d="M 325.679375 58.070437 
L 345.679375 58.070437 
L 345.679375 51.070437 
L 325.679375 51.070437 
z
" style="fill:#0000ff;"/>
    </g>
    <g id="text_13">
     <!-- unmasked -->
     <defs>
      <path d="M 9.078125 75.984375 
L 18.109375 75.984375 
L 18.109375 31.109375 
L 44.921875 54.6875 
L 56.390625 54.6875 
L 27.390625 29.109375 
L 57.625 0 
L 45.90625 0 
L 18.109375 26.703125 
L 18.109375 0 
L 9.078125 0 
z
" id="DejaVuSans-107"/>
      <path d="M 45.40625 46.390625 
L 45.40625 75.984375 
L 54.390625 75.984375 
L 54.390625 0 
L 45.40625 0 
L 45.40625 8.203125 
Q 42.578125 3.328125 38.25 0.953125 
Q 33.9375 -1.421875 27.875 -1.421875 
Q 17.96875 -1.421875 11.734375 6.484375 
Q 5.515625 14.40625 5.515625 27.296875 
Q 5.515625 40.1875 11.734375 48.09375 
Q 17.96875 56 27.875 56 
Q 33.9375 56 38.25 53.625 
Q 42.578125 51.265625 45.40625 46.390625 
z
M 14.796875 27.296875 
Q 14.796875 17.390625 18.875 11.75 
Q 22.953125 6.109375 30.078125 6.109375 
Q 37.203125 6.109375 41.296875 11.75 
Q 45.40625 17.390625 45.40625 27.296875 
Q 45.40625 37.203125 41.296875 42.84375 
Q 37.203125 48.484375 30.078125 48.484375 
Q 22.953125 48.484375 18.875 42.84375 
Q 14.796875 37.203125 14.796875 27.296875 
z
" id="DejaVuSans-100"/>
     </defs>
     <g transform="translate(353.679375 58.070437)scale(0.1 -0.1)">
      <use xlink:href="#DejaVuSans-117"/>
      <use x="63.378906" xlink:href="#DejaVuSans-110"/>
      <use x="126.757812" xlink:href="#DejaVuSans-109"/>
      <use x="224.169922" xlink:href="#DejaVuSans-97"/>
      <use x="285.449219" xlink:href="#DejaVuSans-115"/>
      <use x="337.548828" xlink:href="#DejaVuSans-107"/>
      <use x="395.412109" xlink:href="#DejaVuSans-101"/>
      <use x="456.935547" xlink:href="#DejaVuSans-100"/>
     </g>
    </g>
    <g id="patch_209">
     <path d="M 325.679375 72.748562 
L 345.679375 72.748562 
L 345.679375 65.748562 
L 325.679375 65.748562 
z
" style="fill:#808080;"/>
    </g>
    <g id="text_14">
     <!-- masked -->
     <g transform="translate(353.679375 72.748562)scale(0.1 -0.1)">
      <use xlink:href="#DejaVuSans-109"/>
      <use x="97.412109" xlink:href="#DejaVuSans-97"/>
      <use x="158.691406" xlink:href="#DejaVuSans-115"/>
      <use x="210.791016" xlink:href="#DejaVuSans-107"/>
      <use x="268.654297" xlink:href="#DejaVuSans-101"/>
      <use x="330.177734" xlink:href="#DejaVuSans-100"/>
     </g>
    </g>
   </g>
  </g>
 </g>
 <defs>
  <clipPath id="p854a269b86">
   <rect height="266.112" width="357.12" x="57.6" y="41.472"/>
  </clipPath>
 </defs>
</svg>
