<?xml version="1.0" encoding="utf-8" standalone="no"?>
<!DOCTYPE svg PUBLIC "-//W3C//DTD SVG 1.1//EN"
  "http://www.w3.org/Graphics/SVG/1.1/DTD/svg11.dtd">
<!-- Created with matplotlib (https://matplotlib.org/) -->
<svg height="345.6pt" version="1.1" viewBox="0 0 460.8 345.6" width="460.8pt" xmlns="http://www.w3.org/2000/svg" xmlns:xlink="http://www.w3.org/1999/xlink">
 <defs>
  <style type="text/css">
*{stroke-linecap:butt;stroke-linejoin:round;}
  </style>
 </defs>
 <g id="figure_1">
  <g id="patch_1">
   <path d="M 0 345.6 
L 460.8 345.6 
L 460.8 0 
L 0 0 
z
" style="fill:#ffffff;"/>
  </g>
  <g id="axes_1">
   <g id="patch_2">
    <path d="M 57.6 307.584 
L 414.72 307.584 
L 414.72 41.472 
L 57.6 41.472 
z
" style="fill:#ffffff;"/>
   </g>
   <g id="patch_3">
    <path clip-path="url(#p18b6b6cf9a)" d="M 73.832727 307.584 
L 77.079272 307.584 
L 77.079272 306.496275 
L 73.832727 306.496275 
z
" style="fill:#0000ff;"/>
   </g>
   <g id="patch_4">
    <path clip-path="url(#p18b6b6cf9a)" d="M 77.079272 307.584 
L 80.325817 307.584 
L 80.325817 307.584 
L 77.079272 307.584 
z
" style="fill:#0000ff;"/>
   </g>
   <g id="patch_5">
    <path clip-path="url(#p18b6b6cf9a)" d="M 80.325818 307.584 
L 83.572363 307.584 
L 83.572363 307.584 
L 80.325818 307.584 
z
" style="fill:#0000ff;"/>
   </g>
   <g id="patch_6">
    <path clip-path="url(#p18b6b6cf9a)" d="M 83.572364 307.584 
L 86.818909 307.584 
L 86.818909 307.584 
L 83.572364 307.584 
z
" style="fill:#0000ff;"/>
   </g>
   <g id="patch_7">
    <path clip-path="url(#p18b6b6cf9a)" d="M 86.818909 307.584 
L 90.065455 307.584 
L 90.065455 307.584 
L 86.818909 307.584 
z
" style="fill:#0000ff;"/>
   </g>
   <g id="patch_8">
    <path clip-path="url(#p18b6b6cf9a)" d="M 90.065454 307.584 
L 93.311999 307.584 
L 93.311999 306.496275 
L 90.065454 306.496275 
z
" style="fill:#0000ff;"/>
   </g>
   <g id="patch_9">
    <path clip-path="url(#p18b6b6cf9a)" d="M 93.312 307.584 
L 96.558547 307.584 
L 96.558547 307.584 
L 93.312 307.584 
z
" style="fill:#0000ff;"/>
   </g>
   <g id="patch_10">
    <path clip-path="url(#p18b6b6cf9a)" d="M 96.558545 307.584 
L 99.805089 307.584 
L 99.805089 306.496275 
L 96.558545 306.496275 
z
" style="fill:#0000ff;"/>
   </g>
   <g id="patch_11">
    <path clip-path="url(#p18b6b6cf9a)" d="M 99.805086 307.584 
L 103.051633 307.584 
L 103.051633 307.584 
L 99.805086 307.584 
z
" style="fill:#0000ff;"/>
   </g>
   <g id="patch_12">
    <path clip-path="url(#p18b6b6cf9a)" d="M 103.051636 307.584 
L 106.29818 307.584 
L 106.29818 306.496275 
L 103.051636 306.496275 
z
" style="fill:#0000ff;"/>
   </g>
   <g id="patch_13">
    <path clip-path="url(#p18b6b6cf9a)" d="M 106.29818 307.584 
L 109.544724 307.584 
L 109.544724 306.496275 
L 106.29818 306.496275 
z
" style="fill:#0000ff;"/>
   </g>
   <g id="patch_14">
    <path clip-path="url(#p18b6b6cf9a)" d="M 109.544724 307.584 
L 112.791271 307.584 
L 112.791271 306.496275 
L 109.544724 306.496275 
z
" style="fill:#0000ff;"/>
   </g>
   <g id="patch_15">
    <path clip-path="url(#p18b6b6cf9a)" d="M 112.791268 307.584 
L 116.037818 307.584 
L 116.037818 307.584 
L 112.791268 307.584 
z
" style="fill:#0000ff;"/>
   </g>
   <g id="patch_16">
    <path clip-path="url(#p18b6b6cf9a)" d="M 116.037818 307.584 
L 119.284362 307.584 
L 119.284362 307.584 
L 116.037818 307.584 
z
" style="fill:#0000ff;"/>
   </g>
   <g id="patch_17">
    <path clip-path="url(#p18b6b6cf9a)" d="M 119.284357 307.584 
L 122.530901 307.584 
L 122.530901 306.496275 
L 119.284357 306.496275 
z
" style="fill:#0000ff;"/>
   </g>
   <g id="patch_18">
    <path clip-path="url(#p18b6b6cf9a)" d="M 122.530906 307.584 
L 125.77745 307.584 
L 125.77745 305.408549 
L 122.530906 305.408549 
z
" style="fill:#0000ff;"/>
   </g>
   <g id="patch_19">
    <path clip-path="url(#p18b6b6cf9a)" d="M 125.777446 307.584 
L 129.02399 307.584 
L 129.02399 305.408549 
L 125.777446 305.408549 
z
" style="fill:#0000ff;"/>
   </g>
   <g id="patch_20">
    <path clip-path="url(#p18b6b6cf9a)" d="M 129.023995 307.584 
L 132.270544 307.584 
L 132.270544 306.496275 
L 129.023995 306.496275 
z
" style="fill:#0000ff;"/>
   </g>
   <g id="patch_21">
    <path clip-path="url(#p18b6b6cf9a)" d="M 132.270544 307.584 
L 135.517088 307.584 
L 135.517088 307.584 
L 132.270544 307.584 
z
" style="fill:#0000ff;"/>
   </g>
   <g id="patch_22">
    <path clip-path="url(#p18b6b6cf9a)" d="M 135.517083 307.584 
L 138.763628 307.584 
L 138.763628 306.496275 
L 135.517083 306.496275 
z
" style="fill:#0000ff;"/>
   </g>
   <g id="patch_23">
    <path clip-path="url(#p18b6b6cf9a)" d="M 138.763632 307.584 
L 142.010177 307.584 
L 142.010177 306.496275 
L 138.763632 306.496275 
z
" style="fill:#0000ff;"/>
   </g>
   <g id="patch_24">
    <path clip-path="url(#p18b6b6cf9a)" d="M 142.010172 307.584 
L 145.256716 307.584 
L 145.256716 305.408549 
L 142.010172 305.408549 
z
" style="fill:#0000ff;"/>
   </g>
   <g id="patch_25">
    <path clip-path="url(#p18b6b6cf9a)" d="M 145.256721 307.584 
L 148.50327 307.584 
L 148.50327 306.496275 
L 145.256721 306.496275 
z
" style="fill:#0000ff;"/>
   </g>
   <g id="patch_26">
    <path clip-path="url(#p18b6b6cf9a)" d="M 148.50327 307.584 
L 151.749814 307.584 
L 151.749814 303.233099 
L 148.50327 303.233099 
z
" style="fill:#0000ff;"/>
   </g>
   <g id="patch_27">
    <path clip-path="url(#p18b6b6cf9a)" d="M 151.74981 307.584 
L 154.996354 307.584 
L 154.996354 306.496275 
L 151.74981 306.496275 
z
" style="fill:#0000ff;"/>
   </g>
   <g id="patch_28">
    <path clip-path="url(#p18b6b6cf9a)" d="M 154.996359 307.584 
L 158.242908 307.584 
L 158.242908 306.496275 
L 154.996359 306.496275 
z
" style="fill:#0000ff;"/>
   </g>
   <g id="patch_29">
    <path clip-path="url(#p18b6b6cf9a)" d="M 158.242908 307.584 
L 161.489447 307.584 
L 161.489447 305.408549 
L 158.242908 305.408549 
z
" style="fill:#0000ff;"/>
   </g>
   <g id="patch_30">
    <path clip-path="url(#p18b6b6cf9a)" d="M 161.489447 307.584 
L 164.735997 307.584 
L 164.735997 305.408549 
L 161.489447 305.408549 
z
" style="fill:#0000ff;"/>
   </g>
   <g id="patch_31">
    <path clip-path="url(#p18b6b6cf9a)" d="M 164.736006 307.584 
L 167.982546 307.584 
L 167.982546 302.145373 
L 164.736006 302.145373 
z
" style="fill:#0000ff;"/>
   </g>
   <g id="patch_32">
    <path clip-path="url(#p18b6b6cf9a)" d="M 167.982536 307.584 
L 171.229085 307.584 
L 171.229085 296.706747 
L 167.982536 296.706747 
z
" style="fill:#0000ff;"/>
   </g>
   <g id="patch_33">
    <path clip-path="url(#p18b6b6cf9a)" d="M 171.229085 307.584 
L 174.475634 307.584 
L 174.475634 302.145373 
L 171.229085 302.145373 
z
" style="fill:#0000ff;"/>
   </g>
   <g id="patch_34">
    <path clip-path="url(#p18b6b6cf9a)" d="M 174.475634 307.584 
L 177.722174 307.584 
L 177.722174 305.408549 
L 174.475634 305.408549 
z
" style="fill:#0000ff;"/>
   </g>
   <g id="patch_35">
    <path clip-path="url(#p18b6b6cf9a)" d="M 177.722174 307.584 
L 180.968723 307.584 
L 180.968723 302.145373 
L 177.722174 302.145373 
z
" style="fill:#0000ff;"/>
   </g>
   <g id="patch_36">
    <path clip-path="url(#p18b6b6cf9a)" d="M 180.968733 307.584 
L 184.215272 307.584 
L 184.215272 303.233099 
L 180.968733 303.233099 
z
" style="fill:#0000ff;"/>
   </g>
   <g id="patch_37">
    <path clip-path="url(#p18b6b6cf9a)" d="M 184.215262 307.584 
L 187.461811 307.584 
L 187.461811 299.969923 
L 184.215262 299.969923 
z
" style="fill:#0000ff;"/>
   </g>
   <g id="patch_38">
    <path clip-path="url(#p18b6b6cf9a)" d="M 187.461811 307.584 
L 190.708361 307.584 
L 190.708361 297.794472 
L 187.461811 297.794472 
z
" style="fill:#0000ff;"/>
   </g>
   <g id="patch_39">
    <path clip-path="url(#p18b6b6cf9a)" d="M 190.708361 307.584 
L 193.9549 307.584 
L 193.9549 292.355845 
L 190.708361 292.355845 
z
" style="fill:#0000ff;"/>
   </g>
   <g id="patch_40">
    <path clip-path="url(#p18b6b6cf9a)" d="M 193.9549 307.584 
L 197.201449 307.584 
L 197.201449 304.320824 
L 193.9549 304.320824 
z
" style="fill:#0000ff;"/>
   </g>
   <g id="patch_41">
    <path clip-path="url(#p18b6b6cf9a)" d="M 197.201459 307.584 
L 200.447998 307.584 
L 200.447998 282.566318 
L 197.201459 282.566318 
z
" style="fill:#0000ff;"/>
   </g>
   <g id="patch_42">
    <path clip-path="url(#p18b6b6cf9a)" d="M 200.447989 307.584 
L 203.694538 307.584 
L 203.694538 296.706747 
L 200.447989 296.706747 
z
" style="fill:#0000ff;"/>
   </g>
   <g id="patch_43">
    <path clip-path="url(#p18b6b6cf9a)" d="M 203.694538 307.584 
L 206.941087 307.584 
L 206.941087 280.390867 
L 203.694538 280.390867 
z
" style="fill:#0000ff;"/>
   </g>
   <g id="patch_44">
    <path clip-path="url(#p18b6b6cf9a)" d="M 206.941087 307.584 
L 210.187626 307.584 
L 210.187626 281.478592 
L 206.941087 281.478592 
z
" style="fill:#0000ff;"/>
   </g>
   <g id="patch_45">
    <path clip-path="url(#p18b6b6cf9a)" d="M 210.187626 307.584 
L 213.434175 307.584 
L 213.434175 289.09267 
L 210.187626 289.09267 
z
" style="fill:#0000ff;"/>
   </g>
   <g id="patch_46">
    <path clip-path="url(#p18b6b6cf9a)" d="M 213.434185 307.584 
L 216.680725 307.584 
L 216.680725 273.864515 
L 213.434185 273.864515 
z
" style="fill:#0000ff;"/>
   </g>
   <g id="patch_47">
    <path clip-path="url(#p18b6b6cf9a)" d="M 216.680715 307.584 
L 219.927264 307.584 
L 219.927264 293.443571 
L 216.680715 293.443571 
z
" style="fill:#0000ff;"/>
   </g>
   <g id="patch_48">
    <path clip-path="url(#p18b6b6cf9a)" d="M 219.927264 307.584 
L 223.173813 307.584 
L 223.173813 281.478592 
L 219.927264 281.478592 
z
" style="fill:#0000ff;"/>
   </g>
   <g id="patch_49">
    <path clip-path="url(#p18b6b6cf9a)" d="M 223.173813 307.584 
L 226.420353 307.584 
L 226.420353 280.390867 
L 223.173813 280.390867 
z
" style="fill:#0000ff;"/>
   </g>
   <g id="patch_50">
    <path clip-path="url(#p18b6b6cf9a)" d="M 226.420353 307.584 
L 229.666902 307.584 
L 229.666902 274.95224 
L 226.420353 274.95224 
z
" style="fill:#0000ff;"/>
   </g>
   <g id="patch_51">
    <path clip-path="url(#p18b6b6cf9a)" d="M 229.666911 307.584 
L 232.913451 307.584 
L 232.913451 271.689064 
L 229.666911 271.689064 
z
" style="fill:#0000ff;"/>
   </g>
   <g id="patch_52">
    <path clip-path="url(#p18b6b6cf9a)" d="M 232.913441 307.584 
L 236.15999 307.584 
L 236.15999 239.057305 
L 232.913441 239.057305 
z
" style="fill:#0000ff;"/>
   </g>
   <g id="patch_53">
    <path clip-path="url(#p18b6b6cf9a)" d="M 236.159981 307.584 
L 239.40652 307.584 
L 239.40652 253.197734 
L 236.159981 253.197734 
z
" style="fill:#0000ff;"/>
   </g>
   <g id="patch_54">
    <path clip-path="url(#p18b6b6cf9a)" d="M 239.406559 307.584 
L 242.653108 307.584 
L 242.653108 261.899536 
L 239.406559 261.899536 
z
" style="fill:#0000ff;"/>
   </g>
   <g id="patch_55">
    <path clip-path="url(#p18b6b6cf9a)" d="M 242.653089 307.584 
L 245.899618 307.584 
L 245.899618 209.688721 
L 242.653089 209.688721 
z
" style="fill:#0000ff;"/>
   </g>
   <g id="patch_56">
    <path clip-path="url(#p18b6b6cf9a)" d="M 245.899618 307.584 
L 249.146167 307.584 
L 249.146167 217.302798 
L 245.899618 217.302798 
z
" style="fill:#0000ff;"/>
   </g>
   <g id="patch_57">
    <path clip-path="url(#p18b6b6cf9a)" d="M 249.146187 307.584 
L 252.392736 307.584 
L 252.392736 141.162026 
L 249.146187 141.162026 
z
" style="fill:#0000ff;"/>
   </g>
   <g id="patch_58">
    <path clip-path="url(#p18b6b6cf9a)" d="M 252.392717 307.584 
L 255.639266 307.584 
L 255.639266 192.285116 
L 252.392717 192.285116 
z
" style="fill:#0000ff;"/>
   </g>
   <g id="patch_59">
    <path clip-path="url(#p18b6b6cf9a)" d="M 255.639285 307.584 
L 258.885834 307.584 
L 258.885834 122.670695 
L 255.639285 122.670695 
z
" style="fill:#0000ff;"/>
   </g>
   <g id="patch_60">
    <path clip-path="url(#p18b6b6cf9a)" d="M 258.885815 307.584 
L 262.132345 307.584 
L 262.132345 175.969236 
L 258.885815 175.969236 
z
" style="fill:#0000ff;"/>
   </g>
   <g id="patch_61">
    <path clip-path="url(#p18b6b6cf9a)" d="M 262.132345 307.584 
L 265.378894 307.584 
L 265.378894 127.021597 
L 262.132345 127.021597 
z
" style="fill:#0000ff;"/>
   </g>
   <g id="patch_62">
    <path clip-path="url(#p18b6b6cf9a)" d="M 265.378913 307.584 
L 268.625462 307.584 
L 268.625462 180.320137 
L 265.378913 180.320137 
z
" style="fill:#0000ff;"/>
   </g>
   <g id="patch_63">
    <path clip-path="url(#p18b6b6cf9a)" d="M 268.625443 307.584 
L 271.871992 307.584 
L 271.871992 146.600652 
L 268.625443 146.600652 
z
" style="fill:#0000ff;"/>
   </g>
   <g id="patch_64">
    <path clip-path="url(#p18b6b6cf9a)" d="M 271.872011 307.584 
L 275.118561 307.584 
L 275.118561 160.741082 
L 271.872011 160.741082 
z
" style="fill:#0000ff;"/>
   </g>
   <g id="patch_65">
    <path clip-path="url(#p18b6b6cf9a)" d="M 275.118541 307.584 
L 278.365071 307.584 
L 278.365071 233.618678 
L 275.118541 233.618678 
z
" style="fill:#0000ff;"/>
   </g>
   <g id="patch_66">
    <path clip-path="url(#p18b6b6cf9a)" d="M 278.365071 307.584 
L 281.61162 307.584 
L 281.61162 210.776446 
L 278.365071 210.776446 
z
" style="fill:#0000ff;"/>
   </g>
   <g id="patch_67">
    <path clip-path="url(#p18b6b6cf9a)" d="M 281.611639 307.584 
L 284.858189 307.584 
L 284.858189 260.811811 
L 281.611639 260.811811 
z
" style="fill:#0000ff;"/>
   </g>
   <g id="patch_68">
    <path clip-path="url(#p18b6b6cf9a)" d="M 284.858169 307.584 
L 288.104718 307.584 
L 288.104718 243.408206 
L 284.858169 243.408206 
z
" style="fill:#0000ff;"/>
   </g>
   <g id="patch_69">
    <path clip-path="url(#p18b6b6cf9a)" d="M 288.104738 307.584 
L 291.351287 307.584 
L 291.351287 274.95224 
L 288.104738 274.95224 
z
" style="fill:#0000ff;"/>
   </g>
   <g id="patch_70">
    <path clip-path="url(#p18b6b6cf9a)" d="M 291.351267 307.584 
L 294.597797 307.584 
L 294.597797 253.197734 
L 291.351267 253.197734 
z
" style="fill:#0000ff;"/>
   </g>
   <g id="patch_71">
    <path clip-path="url(#p18b6b6cf9a)" d="M 294.597797 307.584 
L 297.844346 307.584 
L 297.844346 272.77679 
L 294.597797 272.77679 
z
" style="fill:#0000ff;"/>
   </g>
   <g id="patch_72">
    <path clip-path="url(#p18b6b6cf9a)" d="M 297.844366 307.584 
L 301.090915 307.584 
L 301.090915 262.987262 
L 297.844366 262.987262 
z
" style="fill:#0000ff;"/>
   </g>
   <g id="patch_73">
    <path clip-path="url(#p18b6b6cf9a)" d="M 301.090895 307.584 
L 304.337445 307.584 
L 304.337445 271.689064 
L 301.090895 271.689064 
z
" style="fill:#0000ff;"/>
   </g>
   <g id="patch_74">
    <path clip-path="url(#p18b6b6cf9a)" d="M 304.337464 307.584 
L 307.584013 307.584 
L 307.584013 294.531296 
L 304.337464 294.531296 
z
" style="fill:#0000ff;"/>
   </g>
   <g id="patch_75">
    <path clip-path="url(#p18b6b6cf9a)" d="M 307.583994 307.584 
L 310.830524 307.584 
L 310.830524 269.513614 
L 307.583994 269.513614 
z
" style="fill:#0000ff;"/>
   </g>
   <g id="patch_76">
    <path clip-path="url(#p18b6b6cf9a)" d="M 310.830524 307.584 
L 314.077073 307.584 
L 314.077073 295.619021 
L 310.830524 295.619021 
z
" style="fill:#0000ff;"/>
   </g>
   <g id="patch_77">
    <path clip-path="url(#p18b6b6cf9a)" d="M 314.077092 307.584 
L 317.323641 307.584 
L 317.323641 279.303142 
L 314.077092 279.303142 
z
" style="fill:#0000ff;"/>
   </g>
   <g id="patch_78">
    <path clip-path="url(#p18b6b6cf9a)" d="M 317.323622 307.584 
L 320.570171 307.584 
L 320.570171 297.794472 
L 317.323622 297.794472 
z
" style="fill:#0000ff;"/>
   </g>
   <g id="patch_79">
    <path clip-path="url(#p18b6b6cf9a)" d="M 320.57019 307.584 
L 323.81674 307.584 
L 323.81674 289.09267 
L 320.57019 289.09267 
z
" style="fill:#0000ff;"/>
   </g>
   <g id="patch_80">
    <path clip-path="url(#p18b6b6cf9a)" d="M 323.81672 307.584 
L 327.06325 307.584 
L 327.06325 303.233099 
L 323.81672 303.233099 
z
" style="fill:#0000ff;"/>
   </g>
   <g id="patch_81">
    <path clip-path="url(#p18b6b6cf9a)" d="M 327.06325 307.584 
L 330.309799 307.584 
L 330.309799 295.619021 
L 327.06325 295.619021 
z
" style="fill:#0000ff;"/>
   </g>
   <g id="patch_82">
    <path clip-path="url(#p18b6b6cf9a)" d="M 330.309818 307.584 
L 333.556368 307.584 
L 333.556368 301.057648 
L 330.309818 301.057648 
z
" style="fill:#0000ff;"/>
   </g>
   <g id="patch_83">
    <path clip-path="url(#p18b6b6cf9a)" d="M 333.556348 307.584 
L 336.802897 307.584 
L 336.802897 297.794472 
L 333.556348 297.794472 
z
" style="fill:#0000ff;"/>
   </g>
   <g id="patch_84">
    <path clip-path="url(#p18b6b6cf9a)" d="M 336.802917 307.584 
L 340.049466 307.584 
L 340.049466 301.057648 
L 336.802917 301.057648 
z
" style="fill:#0000ff;"/>
   </g>
   <g id="patch_85">
    <path clip-path="url(#p18b6b6cf9a)" d="M 340.049446 307.584 
L 343.295976 307.584 
L 343.295976 303.233099 
L 340.049446 303.233099 
z
" style="fill:#0000ff;"/>
   </g>
   <g id="patch_86">
    <path clip-path="url(#p18b6b6cf9a)" d="M 343.295976 307.584 
L 346.542525 307.584 
L 346.542525 304.320824 
L 343.295976 304.320824 
z
" style="fill:#0000ff;"/>
   </g>
   <g id="patch_87">
    <path clip-path="url(#p18b6b6cf9a)" d="M 346.542545 307.584 
L 349.789094 307.584 
L 349.789094 306.496275 
L 346.542545 306.496275 
z
" style="fill:#0000ff;"/>
   </g>
   <g id="patch_88">
    <path clip-path="url(#p18b6b6cf9a)" d="M 349.789074 307.584 
L 353.035624 307.584 
L 353.035624 304.320824 
L 349.789074 304.320824 
z
" style="fill:#0000ff;"/>
   </g>
   <g id="patch_89">
    <path clip-path="url(#p18b6b6cf9a)" d="M 353.035643 307.584 
L 356.282192 307.584 
L 356.282192 306.496275 
L 353.035643 306.496275 
z
" style="fill:#0000ff;"/>
   </g>
   <g id="patch_90">
    <path clip-path="url(#p18b6b6cf9a)" d="M 356.282173 307.584 
L 359.528702 307.584 
L 359.528702 304.320824 
L 356.282173 304.320824 
z
" style="fill:#0000ff;"/>
   </g>
   <g id="patch_91">
    <path clip-path="url(#p18b6b6cf9a)" d="M 359.528702 307.584 
L 362.775252 307.584 
L 362.775252 306.496275 
L 359.528702 306.496275 
z
" style="fill:#0000ff;"/>
   </g>
   <g id="patch_92">
    <path clip-path="url(#p18b6b6cf9a)" d="M 362.775271 307.584 
L 366.02182 307.584 
L 366.02182 307.584 
L 362.775271 307.584 
z
" style="fill:#0000ff;"/>
   </g>
   <g id="patch_93">
    <path clip-path="url(#p18b6b6cf9a)" d="M 366.021801 307.584 
L 369.26835 307.584 
L 369.26835 306.496275 
L 366.021801 306.496275 
z
" style="fill:#0000ff;"/>
   </g>
   <g id="patch_94">
    <path clip-path="url(#p18b6b6cf9a)" d="M 369.268369 307.584 
L 372.514918 307.584 
L 372.514918 307.584 
L 369.268369 307.584 
z
" style="fill:#0000ff;"/>
   </g>
   <g id="patch_95">
    <path clip-path="url(#p18b6b6cf9a)" d="M 372.514899 307.584 
L 375.761429 307.584 
L 375.761429 307.584 
L 372.514899 307.584 
z
" style="fill:#0000ff;"/>
   </g>
   <g id="patch_96">
    <path clip-path="url(#p18b6b6cf9a)" d="M 375.761429 307.584 
L 379.007978 307.584 
L 379.007978 306.496275 
L 375.761429 306.496275 
z
" style="fill:#0000ff;"/>
   </g>
   <g id="patch_97">
    <path clip-path="url(#p18b6b6cf9a)" d="M 379.007997 307.584 
L 382.254546 307.584 
L 382.254546 307.584 
L 379.007997 307.584 
z
" style="fill:#0000ff;"/>
   </g>
   <g id="patch_98">
    <path clip-path="url(#p18b6b6cf9a)" d="M 382.254527 307.584 
L 385.501076 307.584 
L 385.501076 307.584 
L 382.254527 307.584 
z
" style="fill:#0000ff;"/>
   </g>
   <g id="patch_99">
    <path clip-path="url(#p18b6b6cf9a)" d="M 385.501096 307.584 
L 388.747645 307.584 
L 388.747645 307.584 
L 385.501096 307.584 
z
" style="fill:#0000ff;"/>
   </g>
   <g id="patch_100">
    <path clip-path="url(#p18b6b6cf9a)" d="M 388.747625 307.584 
L 391.994155 307.584 
L 391.994155 307.584 
L 388.747625 307.584 
z
" style="fill:#0000ff;"/>
   </g>
   <g id="patch_101">
    <path clip-path="url(#p18b6b6cf9a)" d="M 391.994155 307.584 
L 395.240704 307.584 
L 395.240704 307.584 
L 391.994155 307.584 
z
" style="fill:#0000ff;"/>
   </g>
   <g id="patch_102">
    <path clip-path="url(#p18b6b6cf9a)" d="M 395.240724 307.584 
L 398.487273 307.584 
L 398.487273 306.496275 
L 395.240724 306.496275 
z
" style="fill:#0000ff;"/>
   </g>
   <g id="patch_103">
    <path clip-path="url(#p18b6b6cf9a)" d="M 73.832727 307.584 
L 75.411439 307.584 
L 75.411439 226.004601 
L 73.832727 226.004601 
z
" style="fill:#808080;"/>
   </g>
   <g id="patch_104">
    <path clip-path="url(#p18b6b6cf9a)" d="M 75.411439 307.584 
L 76.990152 307.584 
L 76.990152 307.584 
L 75.411439 307.584 
z
" style="fill:#808080;"/>
   </g>
   <g id="patch_105">
    <path clip-path="url(#p18b6b6cf9a)" d="M 76.990152 307.584 
L 78.568864 307.584 
L 78.568864 307.584 
L 76.990152 307.584 
z
" style="fill:#808080;"/>
   </g>
   <g id="patch_106">
    <path clip-path="url(#p18b6b6cf9a)" d="M 78.568864 307.584 
L 80.147576 307.584 
L 80.147576 190.109665 
L 78.568864 190.109665 
z
" style="fill:#808080;"/>
   </g>
   <g id="patch_107">
    <path clip-path="url(#p18b6b6cf9a)" d="M 80.147576 307.584 
L 81.726288 307.584 
L 81.726288 307.584 
L 80.147576 307.584 
z
" style="fill:#808080;"/>
   </g>
   <g id="patch_108">
    <path clip-path="url(#p18b6b6cf9a)" d="M 81.726288 307.584 
L 83.305001 307.584 
L 83.305001 307.584 
L 81.726288 307.584 
z
" style="fill:#808080;"/>
   </g>
   <g id="patch_109">
    <path clip-path="url(#p18b6b6cf9a)" d="M 83.305001 307.584 
L 84.883713 307.584 
L 84.883713 105.26709 
L 83.305001 105.26709 
z
" style="fill:#808080;"/>
   </g>
   <g id="patch_110">
    <path clip-path="url(#p18b6b6cf9a)" d="M 84.883713 307.584 
L 86.462425 307.584 
L 86.462425 307.584 
L 84.883713 307.584 
z
" style="fill:#808080;"/>
   </g>
   <g id="patch_111">
    <path clip-path="url(#p18b6b6cf9a)" d="M 86.462425 307.584 
L 88.041137 307.584 
L 88.041137 307.584 
L 86.462425 307.584 
z
" style="fill:#808080;"/>
   </g>
   <g id="patch_112">
    <path clip-path="url(#p18b6b6cf9a)" d="M 88.041137 307.584 
L 89.619849 307.584 
L 89.619849 72.63533 
L 88.041137 72.63533 
z
" style="fill:#808080;"/>
   </g>
   <g id="patch_113">
    <path clip-path="url(#p18b6b6cf9a)" d="M 89.619849 307.584 
L 91.198562 307.584 
L 91.198562 307.584 
L 89.619849 307.584 
z
" style="fill:#808080;"/>
   </g>
   <g id="patch_114">
    <path clip-path="url(#p18b6b6cf9a)" d="M 91.198562 307.584 
L 92.777274 307.584 
L 92.777274 307.584 
L 91.198562 307.584 
z
" style="fill:#808080;"/>
   </g>
   <g id="patch_115">
    <path clip-path="url(#p18b6b6cf9a)" d="M 92.777273 307.584 
L 94.355985 307.584 
L 94.355985 54.144 
L 92.777273 54.144 
z
" style="fill:#808080;"/>
   </g>
   <g id="patch_116">
    <path clip-path="url(#p18b6b6cf9a)" d="M 94.355989 307.584 
L 95.934701 307.584 
L 95.934701 307.584 
L 94.355989 307.584 
z
" style="fill:#808080;"/>
   </g>
   <g id="patch_117">
    <path clip-path="url(#p18b6b6cf9a)" d="M 95.934699 307.584 
L 97.513411 307.584 
L 97.513411 307.584 
L 95.934699 307.584 
z
" style="fill:#808080;"/>
   </g>
   <g id="patch_118">
    <path clip-path="url(#p18b6b6cf9a)" d="M 97.513413 307.584 
L 99.092125 307.584 
L 99.092125 307.584 
L 97.513413 307.584 
z
" style="fill:#808080;"/>
   </g>
   <g id="patch_119">
    <path clip-path="url(#p18b6b6cf9a)" d="M 99.092123 307.584 
L 100.670835 307.584 
L 100.670835 57.407176 
L 99.092123 57.407176 
z
" style="fill:#808080;"/>
   </g>
   <g id="patch_120">
    <path clip-path="url(#p18b6b6cf9a)" d="M 100.670837 307.584 
L 102.249549 307.584 
L 102.249549 307.584 
L 100.670837 307.584 
z
" style="fill:#808080;"/>
   </g>
   <g id="patch_121">
    <path clip-path="url(#p18b6b6cf9a)" d="M 102.249547 307.584 
L 103.828258 307.584 
L 103.828258 307.584 
L 102.249547 307.584 
z
" style="fill:#808080;"/>
   </g>
   <g id="patch_122">
    <path clip-path="url(#p18b6b6cf9a)" d="M 103.828261 307.584 
L 105.406973 307.584 
L 105.406973 87.863485 
L 103.828261 87.863485 
z
" style="fill:#808080;"/>
   </g>
   <g id="patch_123">
    <path clip-path="url(#p18b6b6cf9a)" d="M 105.40697 307.584 
L 106.985685 307.584 
L 106.985685 307.584 
L 105.40697 307.584 
z
" style="fill:#808080;"/>
   </g>
   <g id="patch_124">
    <path clip-path="url(#p18b6b6cf9a)" d="M 106.985685 307.584 
L 108.564397 307.584 
L 108.564397 307.584 
L 106.985685 307.584 
z
" style="fill:#808080;"/>
   </g>
   <g id="patch_125">
    <path clip-path="url(#p18b6b6cf9a)" d="M 108.564399 307.584 
L 110.143111 307.584 
L 110.143111 109.617991 
L 108.564399 109.617991 
z
" style="fill:#808080;"/>
   </g>
   <g id="patch_126">
    <path clip-path="url(#p18b6b6cf9a)" d="M 110.143109 307.584 
L 111.72182 307.584 
L 111.72182 307.584 
L 110.143109 307.584 
z
" style="fill:#808080;"/>
   </g>
   <g id="patch_127">
    <path clip-path="url(#p18b6b6cf9a)" d="M 111.721823 307.584 
L 113.300535 307.584 
L 113.300535 307.584 
L 111.721823 307.584 
z
" style="fill:#808080;"/>
   </g>
   <g id="patch_128">
    <path clip-path="url(#p18b6b6cf9a)" d="M 113.300532 307.584 
L 114.879247 307.584 
L 114.879247 185.758764 
L 113.300532 185.758764 
z
" style="fill:#808080;"/>
   </g>
   <g id="patch_129">
    <path clip-path="url(#p18b6b6cf9a)" d="M 114.879247 307.584 
L 116.457956 307.584 
L 116.457956 307.584 
L 114.879247 307.584 
z
" style="fill:#808080;"/>
   </g>
   <g id="patch_130">
    <path clip-path="url(#p18b6b6cf9a)" d="M 116.457951 307.584 
L 118.036666 307.584 
L 118.036666 307.584 
L 116.457951 307.584 
z
" style="fill:#808080;"/>
   </g>
   <g id="patch_131">
    <path clip-path="url(#p18b6b6cf9a)" d="M 118.036671 307.584 
L 119.61538 307.584 
L 119.61538 307.584 
L 118.036671 307.584 
z
" style="fill:#808080;"/>
   </g>
   <g id="patch_132">
    <path clip-path="url(#p18b6b6cf9a)" d="M 119.61538 307.584 
L 121.194094 307.584 
L 121.194094 216.215073 
L 119.61538 216.215073 
z
" style="fill:#808080;"/>
   </g>
   <g id="patch_133">
    <path clip-path="url(#p18b6b6cf9a)" d="M 121.194094 307.584 
L 122.772804 307.584 
L 122.772804 307.584 
L 121.194094 307.584 
z
" style="fill:#808080;"/>
   </g>
   <g id="patch_134">
    <path clip-path="url(#p18b6b6cf9a)" d="M 122.772799 307.584 
L 124.351513 307.584 
L 124.351513 307.584 
L 122.772799 307.584 
z
" style="fill:#808080;"/>
   </g>
   <g id="patch_135">
    <path clip-path="url(#p18b6b6cf9a)" d="M 124.351518 307.584 
L 125.930228 307.584 
L 125.930228 233.618678 
L 124.351518 233.618678 
z
" style="fill:#808080;"/>
   </g>
   <g id="patch_136">
    <path clip-path="url(#p18b6b6cf9a)" d="M 125.930228 307.584 
L 127.508942 307.584 
L 127.508942 307.584 
L 125.930228 307.584 
z
" style="fill:#808080;"/>
   </g>
   <g id="patch_137">
    <path clip-path="url(#p18b6b6cf9a)" d="M 127.508937 307.584 
L 129.087652 307.584 
L 129.087652 307.584 
L 127.508937 307.584 
z
" style="fill:#808080;"/>
   </g>
   <g id="patch_138">
    <path clip-path="url(#p18b6b6cf9a)" d="M 129.087656 307.584 
L 130.666366 307.584 
L 130.666366 233.618678 
L 129.087656 233.618678 
z
" style="fill:#808080;"/>
   </g>
   <g id="patch_139">
    <path clip-path="url(#p18b6b6cf9a)" d="M 130.666366 307.584 
L 132.24508 307.584 
L 132.24508 307.584 
L 130.666366 307.584 
z
" style="fill:#808080;"/>
   </g>
   <g id="patch_140">
    <path clip-path="url(#p18b6b6cf9a)" d="M 132.24508 307.584 
L 133.82379 307.584 
L 133.82379 307.584 
L 132.24508 307.584 
z
" style="fill:#808080;"/>
   </g>
   <g id="patch_141">
    <path clip-path="url(#p18b6b6cf9a)" d="M 133.823785 307.584 
L 135.402499 307.584 
L 135.402499 251.022283 
L 133.823785 251.022283 
z
" style="fill:#808080;"/>
   </g>
   <g id="patch_142">
    <path clip-path="url(#p18b6b6cf9a)" d="M 135.402504 307.584 
L 136.981214 307.584 
L 136.981214 307.584 
L 135.402504 307.584 
z
" style="fill:#808080;"/>
   </g>
   <g id="patch_143">
    <path clip-path="url(#p18b6b6cf9a)" d="M 136.981214 307.584 
L 138.559928 307.584 
L 138.559928 307.584 
L 136.981214 307.584 
z
" style="fill:#808080;"/>
   </g>
   <g id="patch_144">
    <path clip-path="url(#p18b6b6cf9a)" d="M 138.559923 307.584 
L 140.138637 307.584 
L 140.138637 266.250438 
L 138.559923 266.250438 
z
" style="fill:#808080;"/>
   </g>
   <g id="patch_145">
    <path clip-path="url(#p18b6b6cf9a)" d="M 140.138642 307.584 
L 141.717352 307.584 
L 141.717352 307.584 
L 140.138642 307.584 
z
" style="fill:#808080;"/>
   </g>
   <g id="patch_146">
    <path clip-path="url(#p18b6b6cf9a)" d="M 141.717352 307.584 
L 143.296066 307.584 
L 143.296066 307.584 
L 141.717352 307.584 
z
" style="fill:#808080;"/>
   </g>
   <g id="patch_147">
    <path clip-path="url(#p18b6b6cf9a)" d="M 143.296066 307.584 
L 144.874776 307.584 
L 144.874776 307.584 
L 143.296066 307.584 
z
" style="fill:#808080;"/>
   </g>
   <g id="patch_148">
    <path clip-path="url(#p18b6b6cf9a)" d="M 144.874771 307.584 
L 146.453485 307.584 
L 146.453485 260.811811 
L 144.874771 260.811811 
z
" style="fill:#808080;"/>
   </g>
   <g id="patch_149">
    <path clip-path="url(#p18b6b6cf9a)" d="M 146.45349 307.584 
L 148.032199 307.584 
L 148.032199 307.584 
L 146.45349 307.584 
z
" style="fill:#808080;"/>
   </g>
   <g id="patch_150">
    <path clip-path="url(#p18b6b6cf9a)" d="M 148.032199 307.584 
L 149.610914 307.584 
L 149.610914 307.584 
L 148.032199 307.584 
z
" style="fill:#808080;"/>
   </g>
   <g id="patch_151">
    <path clip-path="url(#p18b6b6cf9a)" d="M 149.610914 307.584 
L 151.189623 307.584 
L 151.189623 269.513614 
L 149.610914 269.513614 
z
" style="fill:#808080;"/>
   </g>
   <g id="patch_152">
    <path clip-path="url(#p18b6b6cf9a)" d="M 151.189618 307.584 
L 152.768333 307.584 
L 152.768333 307.584 
L 151.189618 307.584 
z
" style="fill:#808080;"/>
   </g>
   <g id="patch_153">
    <path clip-path="url(#p18b6b6cf9a)" d="M 152.768338 307.584 
L 154.347052 307.584 
L 154.347052 307.584 
L 152.768338 307.584 
z
" style="fill:#808080;"/>
   </g>
   <g id="patch_154">
    <path clip-path="url(#p18b6b6cf9a)" d="M 154.347047 307.584 
L 155.925756 307.584 
L 155.925756 280.390867 
L 154.347047 280.390867 
z
" style="fill:#808080;"/>
   </g>
   <g id="patch_155">
    <path clip-path="url(#p18b6b6cf9a)" d="M 155.925776 307.584 
L 157.504485 307.584 
L 157.504485 307.584 
L 155.925776 307.584 
z
" style="fill:#808080;"/>
   </g>
   <g id="patch_156">
    <path clip-path="url(#p18b6b6cf9a)" d="M 157.504476 307.584 
L 159.083185 307.584 
L 159.083185 307.584 
L 157.504476 307.584 
z
" style="fill:#808080;"/>
   </g>
   <g id="patch_157">
    <path clip-path="url(#p18b6b6cf9a)" d="M 159.083195 307.584 
L 160.661904 307.584 
L 160.661904 294.531296 
L 159.083195 294.531296 
z
" style="fill:#808080;"/>
   </g>
   <g id="patch_158">
    <path clip-path="url(#p18b6b6cf9a)" d="M 160.661895 307.584 
L 162.240614 307.584 
L 162.240614 307.584 
L 160.661895 307.584 
z
" style="fill:#808080;"/>
   </g>
   <g id="patch_159">
    <path clip-path="url(#p18b6b6cf9a)" d="M 162.240614 307.584 
L 163.819323 307.584 
L 163.819323 307.584 
L 162.240614 307.584 
z
" style="fill:#808080;"/>
   </g>
   <g id="patch_160">
    <path clip-path="url(#p18b6b6cf9a)" d="M 163.819333 307.584 
L 165.398043 307.584 
L 165.398043 307.584 
L 163.819333 307.584 
z
" style="fill:#808080;"/>
   </g>
   <g id="patch_161">
    <path clip-path="url(#p18b6b6cf9a)" d="M 165.398033 307.584 
L 166.976752 307.584 
L 166.976752 276.039966 
L 165.398033 276.039966 
z
" style="fill:#808080;"/>
   </g>
   <g id="patch_162">
    <path clip-path="url(#p18b6b6cf9a)" d="M 166.976752 307.584 
L 168.555462 307.584 
L 168.555462 307.584 
L 166.976752 307.584 
z
" style="fill:#808080;"/>
   </g>
   <g id="patch_163">
    <path clip-path="url(#p18b6b6cf9a)" d="M 168.555471 307.584 
L 170.134181 307.584 
L 170.134181 307.584 
L 168.555471 307.584 
z
" style="fill:#808080;"/>
   </g>
   <g id="patch_164">
    <path clip-path="url(#p18b6b6cf9a)" d="M 170.134171 307.584 
L 171.71288 307.584 
L 171.71288 289.09267 
L 170.134171 289.09267 
z
" style="fill:#808080;"/>
   </g>
   <g id="patch_165">
    <path clip-path="url(#p18b6b6cf9a)" d="M 171.71288 307.584 
L 173.2916 307.584 
L 173.2916 307.584 
L 171.71288 307.584 
z
" style="fill:#808080;"/>
   </g>
   <g id="patch_166">
    <path clip-path="url(#p18b6b6cf9a)" d="M 173.291609 307.584 
L 174.870319 307.584 
L 174.870319 307.584 
L 173.291609 307.584 
z
" style="fill:#808080;"/>
   </g>
   <g id="patch_167">
    <path clip-path="url(#p18b6b6cf9a)" d="M 174.870309 307.584 
L 176.449019 307.584 
L 176.449019 295.619021 
L 174.870309 295.619021 
z
" style="fill:#808080;"/>
   </g>
   <g id="patch_168">
    <path clip-path="url(#p18b6b6cf9a)" d="M 176.449028 307.584 
L 178.027738 307.584 
L 178.027738 307.584 
L 176.449028 307.584 
z
" style="fill:#808080;"/>
   </g>
   <g id="patch_169">
    <path clip-path="url(#p18b6b6cf9a)" d="M 178.027728 307.584 
L 179.606447 307.584 
L 179.606447 307.584 
L 178.027728 307.584 
z
" style="fill:#808080;"/>
   </g>
   <g id="patch_170">
    <path clip-path="url(#p18b6b6cf9a)" d="M 179.606447 307.584 
L 181.185157 307.584 
L 181.185157 291.26812 
L 179.606447 291.26812 
z
" style="fill:#808080;"/>
   </g>
   <g id="patch_171">
    <path clip-path="url(#p18b6b6cf9a)" d="M 181.185167 307.584 
L 182.763876 307.584 
L 182.763876 307.584 
L 181.185167 307.584 
z
" style="fill:#808080;"/>
   </g>
   <g id="patch_172">
    <path clip-path="url(#p18b6b6cf9a)" d="M 182.763866 307.584 
L 184.342586 307.584 
L 184.342586 307.584 
L 182.763866 307.584 
z
" style="fill:#808080;"/>
   </g>
   <g id="patch_173">
    <path clip-path="url(#p18b6b6cf9a)" d="M 184.342586 307.584 
L 185.921295 307.584 
L 185.921295 290.180395 
L 184.342586 290.180395 
z
" style="fill:#808080;"/>
   </g>
   <g id="patch_174">
    <path clip-path="url(#p18b6b6cf9a)" d="M 185.921305 307.584 
L 187.500014 307.584 
L 187.500014 307.584 
L 185.921305 307.584 
z
" style="fill:#808080;"/>
   </g>
   <g id="patch_175">
    <path clip-path="url(#p18b6b6cf9a)" d="M 187.500004 307.584 
L 189.078714 307.584 
L 189.078714 307.584 
L 187.500004 307.584 
z
" style="fill:#808080;"/>
   </g>
   <g id="patch_176">
    <path clip-path="url(#p18b6b6cf9a)" d="M 189.078714 307.584 
L 190.657433 307.584 
L 190.657433 307.584 
L 189.078714 307.584 
z
" style="fill:#808080;"/>
   </g>
   <g id="patch_177">
    <path clip-path="url(#p18b6b6cf9a)" d="M 190.657443 307.584 
L 192.236152 307.584 
L 192.236152 288.004944 
L 190.657443 288.004944 
z
" style="fill:#808080;"/>
   </g>
   <g id="patch_178">
    <path clip-path="url(#p18b6b6cf9a)" d="M 192.236143 307.584 
L 193.814852 307.584 
L 193.814852 307.584 
L 192.236143 307.584 
z
" style="fill:#808080;"/>
   </g>
   <g id="patch_179">
    <path clip-path="url(#p18b6b6cf9a)" d="M 193.814852 307.584 
L 195.393571 307.584 
L 195.393571 307.584 
L 193.814852 307.584 
z
" style="fill:#808080;"/>
   </g>
   <g id="patch_180">
    <path clip-path="url(#p18b6b6cf9a)" d="M 195.393581 307.584 
L 196.972291 307.584 
L 196.972291 278.215416 
L 195.393581 278.215416 
z
" style="fill:#808080;"/>
   </g>
   <g id="patch_181">
    <path clip-path="url(#p18b6b6cf9a)" d="M 196.972281 307.584 
L 198.55099 307.584 
L 198.55099 307.584 
L 196.972281 307.584 
z
" style="fill:#808080;"/>
   </g>
   <g id="patch_182">
    <path clip-path="url(#p18b6b6cf9a)" d="M 198.551 307.584 
L 200.12971 307.584 
L 200.12971 307.584 
L 198.551 307.584 
z
" style="fill:#808080;"/>
   </g>
   <g id="patch_183">
    <path clip-path="url(#p18b6b6cf9a)" d="M 200.1297 307.584 
L 201.708419 307.584 
L 201.708419 276.039966 
L 200.1297 276.039966 
z
" style="fill:#808080;"/>
   </g>
   <g id="patch_184">
    <path clip-path="url(#p18b6b6cf9a)" d="M 201.708419 307.584 
L 203.287128 307.584 
L 203.287128 307.584 
L 201.708419 307.584 
z
" style="fill:#808080;"/>
   </g>
   <g id="patch_185">
    <path clip-path="url(#p18b6b6cf9a)" d="M 203.287138 307.584 
L 204.865848 307.584 
L 204.865848 307.584 
L 203.287138 307.584 
z
" style="fill:#808080;"/>
   </g>
   <g id="patch_186">
    <path clip-path="url(#p18b6b6cf9a)" d="M 204.865838 307.584 
L 206.444557 307.584 
L 206.444557 273.864515 
L 204.865838 273.864515 
z
" style="fill:#808080;"/>
   </g>
   <g id="patch_187">
    <path clip-path="url(#p18b6b6cf9a)" d="M 206.444557 307.584 
L 208.023267 307.584 
L 208.023267 307.584 
L 206.444557 307.584 
z
" style="fill:#808080;"/>
   </g>
   <g id="patch_188">
    <path clip-path="url(#p18b6b6cf9a)" d="M 208.023276 307.584 
L 209.601986 307.584 
L 209.601986 307.584 
L 208.023276 307.584 
z
" style="fill:#808080;"/>
   </g>
   <g id="patch_189">
    <path clip-path="url(#p18b6b6cf9a)" d="M 209.601976 307.584 
L 211.180686 307.584 
L 211.180686 307.584 
L 209.601976 307.584 
z
" style="fill:#808080;"/>
   </g>
   <g id="patch_190">
    <path clip-path="url(#p18b6b6cf9a)" d="M 211.180686 307.584 
L 212.759405 307.584 
L 212.759405 270.601339 
L 211.180686 270.601339 
z
" style="fill:#808080;"/>
   </g>
   <g id="patch_191">
    <path clip-path="url(#p18b6b6cf9a)" d="M 212.759415 307.584 
L 214.338124 307.584 
L 214.338124 307.584 
L 212.759415 307.584 
z
" style="fill:#808080;"/>
   </g>
   <g id="patch_192">
    <path clip-path="url(#p18b6b6cf9a)" d="M 214.338114 307.584 
L 215.916824 307.584 
L 215.916824 307.584 
L 214.338114 307.584 
z
" style="fill:#808080;"/>
   </g>
   <g id="patch_193">
    <path clip-path="url(#p18b6b6cf9a)" d="M 215.916833 307.584 
L 217.495543 307.584 
L 217.495543 270.601339 
L 215.916833 270.601339 
z
" style="fill:#808080;"/>
   </g>
   <g id="patch_194">
    <path clip-path="url(#p18b6b6cf9a)" d="M 217.495533 307.584 
L 219.074252 307.584 
L 219.074252 307.584 
L 217.495533 307.584 
z
" style="fill:#808080;"/>
   </g>
   <g id="patch_195">
    <path clip-path="url(#p18b6b6cf9a)" d="M 219.074252 307.584 
L 220.652962 307.584 
L 220.652962 307.584 
L 219.074252 307.584 
z
" style="fill:#808080;"/>
   </g>
   <g id="patch_196">
    <path clip-path="url(#p18b6b6cf9a)" d="M 220.652972 307.584 
L 222.231681 307.584 
L 222.231681 260.811811 
L 220.652972 260.811811 
z
" style="fill:#808080;"/>
   </g>
   <g id="patch_197">
    <path clip-path="url(#p18b6b6cf9a)" d="M 222.231671 307.584 
L 223.810391 307.584 
L 223.810391 307.584 
L 222.231671 307.584 
z
" style="fill:#808080;"/>
   </g>
   <g id="patch_198">
    <path clip-path="url(#p18b6b6cf9a)" d="M 223.810391 307.584 
L 225.3891 307.584 
L 225.3891 307.584 
L 223.810391 307.584 
z
" style="fill:#808080;"/>
   </g>
   <g id="patch_199">
    <path clip-path="url(#p18b6b6cf9a)" d="M 225.38911 307.584 
L 226.967819 307.584 
L 226.967819 262.987262 
L 225.38911 262.987262 
z
" style="fill:#808080;"/>
   </g>
   <g id="patch_200">
    <path clip-path="url(#p18b6b6cf9a)" d="M 226.96781 307.584 
L 228.546519 307.584 
L 228.546519 307.584 
L 226.96781 307.584 
z
" style="fill:#808080;"/>
   </g>
   <g id="patch_201">
    <path clip-path="url(#p18b6b6cf9a)" d="M 228.546519 307.584 
L 230.125238 307.584 
L 230.125238 307.584 
L 228.546519 307.584 
z
" style="fill:#808080;"/>
   </g>
   <g id="patch_202">
    <path clip-path="url(#p18b6b6cf9a)" d="M 230.125248 307.584 
L 231.703957 307.584 
L 231.703957 214.039622 
L 230.125248 214.039622 
z
" style="fill:#808080;"/>
   </g>
   <g id="matplotlib.axis_1">
    <g id="xtick_1">
     <g id="line2d_1">
      <defs>
       <path d="M 0 0 
L 0 3.5 
" id="mae14a1b8f4" style="stroke:#000000;stroke-width:0.8;"/>
      </defs>
      <g>
       <use style="stroke:#000000;stroke-width:0.8;" x="73.832727" xlink:href="#mae14a1b8f4" y="307.584"/>
      </g>
     </g>
     <g id="text_1">
      <!-- 0 -->
      <defs>
       <path d="M 31.78125 66.40625 
Q 24.171875 66.40625 20.328125 58.90625 
Q 16.5 51.421875 16.5 36.375 
Q 16.5 21.390625 20.328125 13.890625 
Q 24.171875 6.390625 31.78125 6.390625 
Q 39.453125 6.390625 43.28125 13.890625 
Q 47.125 21.390625 47.125 36.375 
Q 47.125 51.421875 43.28125 58.90625 
Q 39.453125 66.40625 31.78125 66.40625 
z
M 31.78125 74.21875 
Q 44.046875 74.21875 50.515625 64.515625 
Q 56.984375 54.828125 56.984375 36.375 
Q 56.984375 17.96875 50.515625 8.265625 
Q 44.046875 -1.421875 31.78125 -1.421875 
Q 19.53125 -1.421875 13.0625 8.265625 
Q 6.59375 17.96875 6.59375 36.375 
Q 6.59375 54.828125 13.0625 64.515625 
Q 19.53125 74.21875 31.78125 74.21875 
z
" id="DejaVuSans-48"/>
      </defs>
      <g transform="translate(70.651477 322.182437)scale(0.1 -0.1)">
       <use xlink:href="#DejaVuSans-48"/>
      </g>
     </g>
    </g>
    <g id="xtick_2">
     <g id="line2d_2">
      <g>
       <use style="stroke:#000000;stroke-width:0.8;" x="137.490477" xlink:href="#mae14a1b8f4" y="307.584"/>
      </g>
     </g>
     <g id="text_2">
      <!-- 50 -->
      <defs>
       <path d="M 10.796875 72.90625 
L 49.515625 72.90625 
L 49.515625 64.59375 
L 19.828125 64.59375 
L 19.828125 46.734375 
Q 21.96875 47.46875 24.109375 47.828125 
Q 26.265625 48.1875 28.421875 48.1875 
Q 40.625 48.1875 47.75 41.5 
Q 54.890625 34.8125 54.890625 23.390625 
Q 54.890625 11.625 47.5625 5.09375 
Q 40.234375 -1.421875 26.90625 -1.421875 
Q 22.3125 -1.421875 17.546875 -0.640625 
Q 12.796875 0.140625 7.71875 1.703125 
L 7.71875 11.625 
Q 12.109375 9.234375 16.796875 8.0625 
Q 21.484375 6.890625 26.703125 6.890625 
Q 35.15625 6.890625 40.078125 11.328125 
Q 45.015625 15.765625 45.015625 23.390625 
Q 45.015625 31 40.078125 35.4375 
Q 35.15625 39.890625 26.703125 39.890625 
Q 22.75 39.890625 18.8125 39.015625 
Q 14.890625 38.140625 10.796875 36.28125 
z
" id="DejaVuSans-53"/>
      </defs>
      <g transform="translate(131.127977 322.182437)scale(0.1 -0.1)">
       <use xlink:href="#DejaVuSans-53"/>
       <use x="63.623047" xlink:href="#DejaVuSans-48"/>
      </g>
     </g>
    </g>
    <g id="xtick_3">
     <g id="line2d_3">
      <g>
       <use style="stroke:#000000;stroke-width:0.8;" x="201.148228" xlink:href="#mae14a1b8f4" y="307.584"/>
      </g>
     </g>
     <g id="text_3">
      <!-- 100 -->
      <defs>
       <path d="M 12.40625 8.296875 
L 28.515625 8.296875 
L 28.515625 63.921875 
L 10.984375 60.40625 
L 10.984375 69.390625 
L 28.421875 72.90625 
L 38.28125 72.90625 
L 38.28125 8.296875 
L 54.390625 8.296875 
L 54.390625 0 
L 12.40625 0 
z
" id="DejaVuSans-49"/>
      </defs>
      <g transform="translate(191.604478 322.182437)scale(0.1 -0.1)">
       <use xlink:href="#DejaVuSans-49"/>
       <use x="63.623047" xlink:href="#DejaVuSans-48"/>
       <use x="127.246094" xlink:href="#DejaVuSans-48"/>
      </g>
     </g>
    </g>
    <g id="xtick_4">
     <g id="line2d_4">
      <g>
       <use style="stroke:#000000;stroke-width:0.8;" x="264.805978" xlink:href="#mae14a1b8f4" y="307.584"/>
      </g>
     </g>
     <g id="text_4">
      <!-- 150 -->
      <g transform="translate(255.262228 322.182437)scale(0.1 -0.1)">
       <use xlink:href="#DejaVuSans-49"/>
       <use x="63.623047" xlink:href="#DejaVuSans-53"/>
       <use x="127.246094" xlink:href="#DejaVuSans-48"/>
      </g>
     </g>
    </g>
    <g id="xtick_5">
     <g id="line2d_5">
      <g>
       <use style="stroke:#000000;stroke-width:0.8;" x="328.463728" xlink:href="#mae14a1b8f4" y="307.584"/>
      </g>
     </g>
     <g id="text_5">
      <!-- 200 -->
      <defs>
       <path d="M 19.1875 8.296875 
L 53.609375 8.296875 
L 53.609375 0 
L 7.328125 0 
L 7.328125 8.296875 
Q 12.9375 14.109375 22.625 23.890625 
Q 32.328125 33.6875 34.8125 36.53125 
Q 39.546875 41.84375 41.421875 45.53125 
Q 43.3125 49.21875 43.3125 52.78125 
Q 43.3125 58.59375 39.234375 62.25 
Q 35.15625 65.921875 28.609375 65.921875 
Q 23.96875 65.921875 18.8125 64.3125 
Q 13.671875 62.703125 7.8125 59.421875 
L 7.8125 69.390625 
Q 13.765625 71.78125 18.9375 73 
Q 24.125 74.21875 28.421875 74.21875 
Q 39.75 74.21875 46.484375 68.546875 
Q 53.21875 62.890625 53.21875 53.421875 
Q 53.21875 48.921875 51.53125 44.890625 
Q 49.859375 40.875 45.40625 35.40625 
Q 44.1875 33.984375 37.640625 27.21875 
Q 31.109375 20.453125 19.1875 8.296875 
z
" id="DejaVuSans-50"/>
      </defs>
      <g transform="translate(318.919978 322.182437)scale(0.1 -0.1)">
       <use xlink:href="#DejaVuSans-50"/>
       <use x="63.623047" xlink:href="#DejaVuSans-48"/>
       <use x="127.246094" xlink:href="#DejaVuSans-48"/>
      </g>
     </g>
    </g>
    <g id="xtick_6">
     <g id="line2d_6">
      <g>
       <use style="stroke:#000000;stroke-width:0.8;" x="392.121478" xlink:href="#mae14a1b8f4" y="307.584"/>
      </g>
     </g>
     <g id="text_6">
      <!-- 250 -->
      <g transform="translate(382.577728 322.182437)scale(0.1 -0.1)">
       <use xlink:href="#DejaVuSans-50"/>
       <use x="63.623047" xlink:href="#DejaVuSans-53"/>
       <use x="127.246094" xlink:href="#DejaVuSans-48"/>
      </g>
     </g>
    </g>
    <g id="text_7">
     <!-- Weight -->
     <defs>
      <path d="M 3.328125 72.90625 
L 13.28125 72.90625 
L 28.609375 11.28125 
L 43.890625 72.90625 
L 54.984375 72.90625 
L 70.3125 11.28125 
L 85.59375 72.90625 
L 95.609375 72.90625 
L 77.296875 0 
L 64.890625 0 
L 49.515625 63.28125 
L 33.984375 0 
L 21.578125 0 
z
" id="DejaVuSans-87"/>
      <path d="M 56.203125 29.59375 
L 56.203125 25.203125 
L 14.890625 25.203125 
Q 15.484375 15.921875 20.484375 11.0625 
Q 25.484375 6.203125 34.421875 6.203125 
Q 39.59375 6.203125 44.453125 7.46875 
Q 49.3125 8.734375 54.109375 11.28125 
L 54.109375 2.78125 
Q 49.265625 0.734375 44.1875 -0.34375 
Q 39.109375 -1.421875 33.890625 -1.421875 
Q 20.796875 -1.421875 13.15625 6.1875 
Q 5.515625 13.8125 5.515625 26.8125 
Q 5.515625 40.234375 12.765625 48.109375 
Q 20.015625 56 32.328125 56 
Q 43.359375 56 49.78125 48.890625 
Q 56.203125 41.796875 56.203125 29.59375 
z
M 47.21875 32.234375 
Q 47.125 39.59375 43.09375 43.984375 
Q 39.0625 48.390625 32.421875 48.390625 
Q 24.90625 48.390625 20.390625 44.140625 
Q 15.875 39.890625 15.1875 32.171875 
z
" id="DejaVuSans-101"/>
      <path d="M 9.421875 54.6875 
L 18.40625 54.6875 
L 18.40625 0 
L 9.421875 0 
z
M 9.421875 75.984375 
L 18.40625 75.984375 
L 18.40625 64.59375 
L 9.421875 64.59375 
z
" id="DejaVuSans-105"/>
      <path d="M 45.40625 27.984375 
Q 45.40625 37.75 41.375 43.109375 
Q 37.359375 48.484375 30.078125 48.484375 
Q 22.859375 48.484375 18.828125 43.109375 
Q 14.796875 37.75 14.796875 27.984375 
Q 14.796875 18.265625 18.828125 12.890625 
Q 22.859375 7.515625 30.078125 7.515625 
Q 37.359375 7.515625 41.375 12.890625 
Q 45.40625 18.265625 45.40625 27.984375 
z
M 54.390625 6.78125 
Q 54.390625 -7.171875 48.1875 -13.984375 
Q 42 -20.796875 29.203125 -20.796875 
Q 24.46875 -20.796875 20.265625 -20.09375 
Q 16.0625 -19.390625 12.109375 -17.921875 
L 12.109375 -9.1875 
Q 16.0625 -11.328125 19.921875 -12.34375 
Q 23.78125 -13.375 27.78125 -13.375 
Q 36.625 -13.375 41.015625 -8.765625 
Q 45.40625 -4.15625 45.40625 5.171875 
L 45.40625 9.625 
Q 42.625 4.78125 38.28125 2.390625 
Q 33.9375 0 27.875 0 
Q 17.828125 0 11.671875 7.65625 
Q 5.515625 15.328125 5.515625 27.984375 
Q 5.515625 40.671875 11.671875 48.328125 
Q 17.828125 56 27.875 56 
Q 33.9375 56 38.28125 53.609375 
Q 42.625 51.21875 45.40625 46.390625 
L 45.40625 54.6875 
L 54.390625 54.6875 
z
" id="DejaVuSans-103"/>
      <path d="M 54.890625 33.015625 
L 54.890625 0 
L 45.90625 0 
L 45.90625 32.71875 
Q 45.90625 40.484375 42.875 44.328125 
Q 39.84375 48.1875 33.796875 48.1875 
Q 26.515625 48.1875 22.3125 43.546875 
Q 18.109375 38.921875 18.109375 30.90625 
L 18.109375 0 
L 9.078125 0 
L 9.078125 75.984375 
L 18.109375 75.984375 
L 18.109375 46.1875 
Q 21.34375 51.125 25.703125 53.5625 
Q 30.078125 56 35.796875 56 
Q 45.21875 56 50.046875 50.171875 
Q 54.890625 44.34375 54.890625 33.015625 
z
" id="DejaVuSans-104"/>
      <path d="M 18.3125 70.21875 
L 18.3125 54.6875 
L 36.8125 54.6875 
L 36.8125 47.703125 
L 18.3125 47.703125 
L 18.3125 18.015625 
Q 18.3125 11.328125 20.140625 9.421875 
Q 21.96875 7.515625 27.59375 7.515625 
L 36.8125 7.515625 
L 36.8125 0 
L 27.59375 0 
Q 17.1875 0 13.234375 3.875 
Q 9.28125 7.765625 9.28125 18.015625 
L 9.28125 47.703125 
L 2.6875 47.703125 
L 2.6875 54.6875 
L 9.28125 54.6875 
L 9.28125 70.21875 
z
" id="DejaVuSans-116"/>
     </defs>
     <g transform="translate(218.451406 335.860562)scale(0.1 -0.1)">
      <use xlink:href="#DejaVuSans-87"/>
      <use x="98.798828" xlink:href="#DejaVuSans-101"/>
      <use x="160.322266" xlink:href="#DejaVuSans-105"/>
      <use x="188.105469" xlink:href="#DejaVuSans-103"/>
      <use x="251.582031" xlink:href="#DejaVuSans-104"/>
      <use x="314.960938" xlink:href="#DejaVuSans-116"/>
     </g>
    </g>
   </g>
   <g id="matplotlib.axis_2">
    <g id="ytick_1">
     <g id="line2d_7">
      <defs>
       <path d="M 0 0 
L -3.5 0 
" id="m94448c1f9d" style="stroke:#000000;stroke-width:0.8;"/>
      </defs>
      <g>
       <use style="stroke:#000000;stroke-width:0.8;" x="57.6" xlink:href="#m94448c1f9d" y="307.584"/>
      </g>
     </g>
     <g id="text_8">
      <!-- 0 -->
      <g transform="translate(44.2375 311.383219)scale(0.1 -0.1)">
       <use xlink:href="#DejaVuSans-48"/>
      </g>
     </g>
    </g>
    <g id="ytick_2">
     <g id="line2d_8">
      <g>
       <use style="stroke:#000000;stroke-width:0.8;" x="57.6" xlink:href="#m94448c1f9d" y="253.197734"/>
      </g>
     </g>
     <g id="text_9">
      <!-- 50 -->
      <g transform="translate(37.875 256.996953)scale(0.1 -0.1)">
       <use xlink:href="#DejaVuSans-53"/>
       <use x="63.623047" xlink:href="#DejaVuSans-48"/>
      </g>
     </g>
    </g>
    <g id="ytick_3">
     <g id="line2d_9">
      <g>
       <use style="stroke:#000000;stroke-width:0.8;" x="57.6" xlink:href="#m94448c1f9d" y="198.811468"/>
      </g>
     </g>
     <g id="text_10">
      <!-- 100 -->
      <g transform="translate(31.5125 202.610687)scale(0.1 -0.1)">
       <use xlink:href="#DejaVuSans-49"/>
       <use x="63.623047" xlink:href="#DejaVuSans-48"/>
       <use x="127.246094" xlink:href="#DejaVuSans-48"/>
      </g>
     </g>
    </g>
    <g id="ytick_4">
     <g id="line2d_10">
      <g>
       <use style="stroke:#000000;stroke-width:0.8;" x="57.6" xlink:href="#m94448c1f9d" y="144.425202"/>
      </g>
     </g>
     <g id="text_11">
      <!-- 150 -->
      <g transform="translate(31.5125 148.22442)scale(0.1 -0.1)">
       <use xlink:href="#DejaVuSans-49"/>
       <use x="63.623047" xlink:href="#DejaVuSans-53"/>
       <use x="127.246094" xlink:href="#DejaVuSans-48"/>
      </g>
     </g>
    </g>
    <g id="ytick_5">
     <g id="line2d_11">
      <g>
       <use style="stroke:#000000;stroke-width:0.8;" x="57.6" xlink:href="#m94448c1f9d" y="90.038936"/>
      </g>
     </g>
     <g id="text_12">
      <!-- 200 -->
      <g transform="translate(31.5125 93.838154)scale(0.1 -0.1)">
       <use xlink:href="#DejaVuSans-50"/>
       <use x="63.623047" xlink:href="#DejaVuSans-48"/>
       <use x="127.246094" xlink:href="#DejaVuSans-48"/>
      </g>
     </g>
    </g>
    <g id="text_13">
     <!-- Occurrencies -->
     <defs>
      <path d="M 39.40625 66.21875 
Q 28.65625 66.21875 22.328125 58.203125 
Q 16.015625 50.203125 16.015625 36.375 
Q 16.015625 22.609375 22.328125 14.59375 
Q 28.65625 6.59375 39.40625 6.59375 
Q 50.140625 6.59375 56.421875 14.59375 
Q 62.703125 22.609375 62.703125 36.375 
Q 62.703125 50.203125 56.421875 58.203125 
Q 50.140625 66.21875 39.40625 66.21875 
z
M 39.40625 74.21875 
Q 54.734375 74.21875 63.90625 63.9375 
Q 73.09375 53.65625 73.09375 36.375 
Q 73.09375 19.140625 63.90625 8.859375 
Q 54.734375 -1.421875 39.40625 -1.421875 
Q 24.03125 -1.421875 14.8125 8.828125 
Q 5.609375 19.09375 5.609375 36.375 
Q 5.609375 53.65625 14.8125 63.9375 
Q 24.03125 74.21875 39.40625 74.21875 
z
" id="DejaVuSans-79"/>
      <path d="M 48.78125 52.59375 
L 48.78125 44.1875 
Q 44.96875 46.296875 41.140625 47.34375 
Q 37.3125 48.390625 33.40625 48.390625 
Q 24.65625 48.390625 19.8125 42.84375 
Q 14.984375 37.3125 14.984375 27.296875 
Q 14.984375 17.28125 19.8125 11.734375 
Q 24.65625 6.203125 33.40625 6.203125 
Q 37.3125 6.203125 41.140625 7.25 
Q 44.96875 8.296875 48.78125 10.40625 
L 48.78125 2.09375 
Q 45.015625 0.34375 40.984375 -0.53125 
Q 36.96875 -1.421875 32.421875 -1.421875 
Q 20.0625 -1.421875 12.78125 6.34375 
Q 5.515625 14.109375 5.515625 27.296875 
Q 5.515625 40.671875 12.859375 48.328125 
Q 20.21875 56 33.015625 56 
Q 37.15625 56 41.109375 55.140625 
Q 45.0625 54.296875 48.78125 52.59375 
z
" id="DejaVuSans-99"/>
      <path d="M 8.5 21.578125 
L 8.5 54.6875 
L 17.484375 54.6875 
L 17.484375 21.921875 
Q 17.484375 14.15625 20.5 10.265625 
Q 23.53125 6.390625 29.59375 6.390625 
Q 36.859375 6.390625 41.078125 11.03125 
Q 45.3125 15.671875 45.3125 23.6875 
L 45.3125 54.6875 
L 54.296875 54.6875 
L 54.296875 0 
L 45.3125 0 
L 45.3125 8.40625 
Q 42.046875 3.421875 37.71875 1 
Q 33.40625 -1.421875 27.6875 -1.421875 
Q 18.265625 -1.421875 13.375 4.4375 
Q 8.5 10.296875 8.5 21.578125 
z
M 31.109375 56 
z
" id="DejaVuSans-117"/>
      <path d="M 41.109375 46.296875 
Q 39.59375 47.171875 37.8125 47.578125 
Q 36.03125 48 33.890625 48 
Q 26.265625 48 22.1875 43.046875 
Q 18.109375 38.09375 18.109375 28.8125 
L 18.109375 0 
L 9.078125 0 
L 9.078125 54.6875 
L 18.109375 54.6875 
L 18.109375 46.1875 
Q 20.953125 51.171875 25.484375 53.578125 
Q 30.03125 56 36.53125 56 
Q 37.453125 56 38.578125 55.875 
Q 39.703125 55.765625 41.0625 55.515625 
z
" id="DejaVuSans-114"/>
      <path d="M 54.890625 33.015625 
L 54.890625 0 
L 45.90625 0 
L 45.90625 32.71875 
Q 45.90625 40.484375 42.875 44.328125 
Q 39.84375 48.1875 33.796875 48.1875 
Q 26.515625 48.1875 22.3125 43.546875 
Q 18.109375 38.921875 18.109375 30.90625 
L 18.109375 0 
L 9.078125 0 
L 9.078125 54.6875 
L 18.109375 54.6875 
L 18.109375 46.1875 
Q 21.34375 51.125 25.703125 53.5625 
Q 30.078125 56 35.796875 56 
Q 45.21875 56 50.046875 50.171875 
Q 54.890625 44.34375 54.890625 33.015625 
z
" id="DejaVuSans-110"/>
      <path d="M 44.28125 53.078125 
L 44.28125 44.578125 
Q 40.484375 46.53125 36.375 47.5 
Q 32.28125 48.484375 27.875 48.484375 
Q 21.1875 48.484375 17.84375 46.4375 
Q 14.5 44.390625 14.5 40.28125 
Q 14.5 37.15625 16.890625 35.375 
Q 19.28125 33.59375 26.515625 31.984375 
L 29.59375 31.296875 
Q 39.15625 29.25 43.1875 25.515625 
Q 47.21875 21.78125 47.21875 15.09375 
Q 47.21875 7.46875 41.1875 3.015625 
Q 35.15625 -1.421875 24.609375 -1.421875 
Q 20.21875 -1.421875 15.453125 -0.5625 
Q 10.6875 0.296875 5.421875 2 
L 5.421875 11.28125 
Q 10.40625 8.6875 15.234375 7.390625 
Q 20.0625 6.109375 24.8125 6.109375 
Q 31.15625 6.109375 34.5625 8.28125 
Q 37.984375 10.453125 37.984375 14.40625 
Q 37.984375 18.0625 35.515625 20.015625 
Q 33.0625 21.96875 24.703125 23.78125 
L 21.578125 24.515625 
Q 13.234375 26.265625 9.515625 29.90625 
Q 5.8125 33.546875 5.8125 39.890625 
Q 5.8125 47.609375 11.28125 51.796875 
Q 16.75 56 26.8125 56 
Q 31.78125 56 36.171875 55.265625 
Q 40.578125 54.546875 44.28125 53.078125 
z
" id="DejaVuSans-115"/>
     </defs>
     <g transform="translate(25.432812 207.304563)rotate(-90)scale(0.1 -0.1)">
      <use xlink:href="#DejaVuSans-79"/>
      <use x="78.710938" xlink:href="#DejaVuSans-99"/>
      <use x="133.691406" xlink:href="#DejaVuSans-99"/>
      <use x="188.671875" xlink:href="#DejaVuSans-117"/>
      <use x="252.050781" xlink:href="#DejaVuSans-114"/>
      <use x="293.148438" xlink:href="#DejaVuSans-114"/>
      <use x="334.230469" xlink:href="#DejaVuSans-101"/>
      <use x="395.753906" xlink:href="#DejaVuSans-110"/>
      <use x="459.132812" xlink:href="#DejaVuSans-99"/>
      <use x="514.113281" xlink:href="#DejaVuSans-105"/>
      <use x="541.896484" xlink:href="#DejaVuSans-101"/>
      <use x="603.419922" xlink:href="#DejaVuSans-115"/>
     </g>
    </g>
   </g>
   <g id="patch_203">
    <path d="M 57.6 307.584 
L 57.6 41.472 
" style="fill:none;stroke:#000000;stroke-linecap:square;stroke-linejoin:miter;stroke-width:0.8;"/>
   </g>
   <g id="patch_204">
    <path d="M 414.72 307.584 
L 414.72 41.472 
" style="fill:none;stroke:#000000;stroke-linecap:square;stroke-linejoin:miter;stroke-width:0.8;"/>
   </g>
   <g id="patch_205">
    <path d="M 57.6 307.584 
L 414.72 307.584 
" style="fill:none;stroke:#000000;stroke-linecap:square;stroke-linejoin:miter;stroke-width:0.8;"/>
   </g>
   <g id="patch_206">
    <path d="M 57.6 41.472 
L 414.72 41.472 
" style="fill:none;stroke:#000000;stroke-linecap:square;stroke-linejoin:miter;stroke-width:0.8;"/>
   </g>
   <g id="text_14">
    <!-- Histogram of conv2 -->
    <defs>
     <path d="M 9.8125 72.90625 
L 19.671875 72.90625 
L 19.671875 43.015625 
L 55.515625 43.015625 
L 55.515625 72.90625 
L 65.375 72.90625 
L 65.375 0 
L 55.515625 0 
L 55.515625 34.71875 
L 19.671875 34.71875 
L 19.671875 0 
L 9.8125 0 
z
" id="DejaVuSans-72"/>
     <path d="M 30.609375 48.390625 
Q 23.390625 48.390625 19.1875 42.75 
Q 14.984375 37.109375 14.984375 27.296875 
Q 14.984375 17.484375 19.15625 11.84375 
Q 23.34375 6.203125 30.609375 6.203125 
Q 37.796875 6.203125 41.984375 11.859375 
Q 46.1875 17.53125 46.1875 27.296875 
Q 46.1875 37.015625 41.984375 42.703125 
Q 37.796875 48.390625 30.609375 48.390625 
z
M 30.609375 56 
Q 42.328125 56 49.015625 48.375 
Q 55.71875 40.765625 55.71875 27.296875 
Q 55.71875 13.875 49.015625 6.21875 
Q 42.328125 -1.421875 30.609375 -1.421875 
Q 18.84375 -1.421875 12.171875 6.21875 
Q 5.515625 13.875 5.515625 27.296875 
Q 5.515625 40.765625 12.171875 48.375 
Q 18.84375 56 30.609375 56 
z
" id="DejaVuSans-111"/>
     <path d="M 34.28125 27.484375 
Q 23.390625 27.484375 19.1875 25 
Q 14.984375 22.515625 14.984375 16.5 
Q 14.984375 11.71875 18.140625 8.90625 
Q 21.296875 6.109375 26.703125 6.109375 
Q 34.1875 6.109375 38.703125 11.40625 
Q 43.21875 16.703125 43.21875 25.484375 
L 43.21875 27.484375 
z
M 52.203125 31.203125 
L 52.203125 0 
L 43.21875 0 
L 43.21875 8.296875 
Q 40.140625 3.328125 35.546875 0.953125 
Q 30.953125 -1.421875 24.3125 -1.421875 
Q 15.921875 -1.421875 10.953125 3.296875 
Q 6 8.015625 6 15.921875 
Q 6 25.140625 12.171875 29.828125 
Q 18.359375 34.515625 30.609375 34.515625 
L 43.21875 34.515625 
L 43.21875 35.40625 
Q 43.21875 41.609375 39.140625 45 
Q 35.0625 48.390625 27.6875 48.390625 
Q 23 48.390625 18.546875 47.265625 
Q 14.109375 46.140625 10.015625 43.890625 
L 10.015625 52.203125 
Q 14.9375 54.109375 19.578125 55.046875 
Q 24.21875 56 28.609375 56 
Q 40.484375 56 46.34375 49.84375 
Q 52.203125 43.703125 52.203125 31.203125 
z
" id="DejaVuSans-97"/>
     <path d="M 52 44.1875 
Q 55.375 50.25 60.0625 53.125 
Q 64.75 56 71.09375 56 
Q 79.640625 56 84.28125 50.015625 
Q 88.921875 44.046875 88.921875 33.015625 
L 88.921875 0 
L 79.890625 0 
L 79.890625 32.71875 
Q 79.890625 40.578125 77.09375 44.375 
Q 74.3125 48.1875 68.609375 48.1875 
Q 61.625 48.1875 57.5625 43.546875 
Q 53.515625 38.921875 53.515625 30.90625 
L 53.515625 0 
L 44.484375 0 
L 44.484375 32.71875 
Q 44.484375 40.625 41.703125 44.40625 
Q 38.921875 48.1875 33.109375 48.1875 
Q 26.21875 48.1875 22.15625 43.53125 
Q 18.109375 38.875 18.109375 30.90625 
L 18.109375 0 
L 9.078125 0 
L 9.078125 54.6875 
L 18.109375 54.6875 
L 18.109375 46.1875 
Q 21.1875 51.21875 25.484375 53.609375 
Q 29.78125 56 35.6875 56 
Q 41.65625 56 45.828125 52.96875 
Q 50 49.953125 52 44.1875 
z
" id="DejaVuSans-109"/>
     <path id="DejaVuSans-32"/>
     <path d="M 37.109375 75.984375 
L 37.109375 68.5 
L 28.515625 68.5 
Q 23.6875 68.5 21.796875 66.546875 
Q 19.921875 64.59375 19.921875 59.515625 
L 19.921875 54.6875 
L 34.71875 54.6875 
L 34.71875 47.703125 
L 19.921875 47.703125 
L 19.921875 0 
L 10.890625 0 
L 10.890625 47.703125 
L 2.296875 47.703125 
L 2.296875 54.6875 
L 10.890625 54.6875 
L 10.890625 58.5 
Q 10.890625 67.625 15.140625 71.796875 
Q 19.390625 75.984375 28.609375 75.984375 
z
" id="DejaVuSans-102"/>
     <path d="M 2.984375 54.6875 
L 12.5 54.6875 
L 29.59375 8.796875 
L 46.6875 54.6875 
L 56.203125 54.6875 
L 35.6875 0 
L 23.484375 0 
z
" id="DejaVuSans-118"/>
    </defs>
    <g transform="translate(177.29625 35.472)scale(0.12 -0.12)">
     <use xlink:href="#DejaVuSans-72"/>
     <use x="75.195312" xlink:href="#DejaVuSans-105"/>
     <use x="102.978516" xlink:href="#DejaVuSans-115"/>
     <use x="155.078125" xlink:href="#DejaVuSans-116"/>
     <use x="194.287109" xlink:href="#DejaVuSans-111"/>
     <use x="255.46875" xlink:href="#DejaVuSans-103"/>
     <use x="318.945312" xlink:href="#DejaVuSans-114"/>
     <use x="360.058594" xlink:href="#DejaVuSans-97"/>
     <use x="421.337891" xlink:href="#DejaVuSans-109"/>
     <use x="518.75" xlink:href="#DejaVuSans-32"/>
     <use x="550.537109" xlink:href="#DejaVuSans-111"/>
     <use x="611.71875" xlink:href="#DejaVuSans-102"/>
     <use x="646.923828" xlink:href="#DejaVuSans-32"/>
     <use x="678.710938" xlink:href="#DejaVuSans-99"/>
     <use x="733.691406" xlink:href="#DejaVuSans-111"/>
     <use x="794.873047" xlink:href="#DejaVuSans-110"/>
     <use x="858.251953" xlink:href="#DejaVuSans-118"/>
     <use x="917.431641" xlink:href="#DejaVuSans-50"/>
    </g>
   </g>
   <g id="legend_1">
    <g id="patch_207">
     <path d="M 323.679375 78.82825 
L 407.72 78.82825 
Q 409.72 78.82825 409.72 76.82825 
L 409.72 48.472 
Q 409.72 46.472 407.72 46.472 
L 323.679375 46.472 
Q 321.679375 46.472 321.679375 48.472 
L 321.679375 76.82825 
Q 321.679375 78.82825 323.679375 78.82825 
z
" style="fill:#ffffff;opacity:0.8;stroke:#cccccc;stroke-linejoin:miter;"/>
    </g>
    <g id="patch_208">
     <path d="M 325.679375 58.070437 
L 345.679375 58.070437 
L 345.679375 51.070437 
L 325.679375 51.070437 
z
" style="fill:#0000ff;"/>
    </g>
    <g id="text_15">
     <!-- unmasked -->
     <defs>
      <path d="M 9.078125 75.984375 
L 18.109375 75.984375 
L 18.109375 31.109375 
L 44.921875 54.6875 
L 56.390625 54.6875 
L 27.390625 29.109375 
L 57.625 0 
L 45.90625 0 
L 18.109375 26.703125 
L 18.109375 0 
L 9.078125 0 
z
" id="DejaVuSans-107"/>
      <path d="M 45.40625 46.390625 
L 45.40625 75.984375 
L 54.390625 75.984375 
L 54.390625 0 
L 45.40625 0 
L 45.40625 8.203125 
Q 42.578125 3.328125 38.25 0.953125 
Q 33.9375 -1.421875 27.875 -1.421875 
Q 17.96875 -1.421875 11.734375 6.484375 
Q 5.515625 14.40625 5.515625 27.296875 
Q 5.515625 40.1875 11.734375 48.09375 
Q 17.96875 56 27.875 56 
Q 33.9375 56 38.25 53.625 
Q 42.578125 51.265625 45.40625 46.390625 
z
M 14.796875 27.296875 
Q 14.796875 17.390625 18.875 11.75 
Q 22.953125 6.109375 30.078125 6.109375 
Q 37.203125 6.109375 41.296875 11.75 
Q 45.40625 17.390625 45.40625 27.296875 
Q 45.40625 37.203125 41.296875 42.84375 
Q 37.203125 48.484375 30.078125 48.484375 
Q 22.953125 48.484375 18.875 42.84375 
Q 14.796875 37.203125 14.796875 27.296875 
z
" id="DejaVuSans-100"/>
     </defs>
     <g transform="translate(353.679375 58.070437)scale(0.1 -0.1)">
      <use xlink:href="#DejaVuSans-117"/>
      <use x="63.378906" xlink:href="#DejaVuSans-110"/>
      <use x="126.757812" xlink:href="#DejaVuSans-109"/>
      <use x="224.169922" xlink:href="#DejaVuSans-97"/>
      <use x="285.449219" xlink:href="#DejaVuSans-115"/>
      <use x="337.548828" xlink:href="#DejaVuSans-107"/>
      <use x="395.412109" xlink:href="#DejaVuSans-101"/>
      <use x="456.935547" xlink:href="#DejaVuSans-100"/>
     </g>
    </g>
    <g id="patch_209">
     <path d="M 325.679375 72.748562 
L 345.679375 72.748562 
L 345.679375 65.748562 
L 325.679375 65.748562 
z
" style="fill:#808080;"/>
    </g>
    <g id="text_16">
     <!-- masked -->
     <g transform="translate(353.679375 72.748562)scale(0.1 -0.1)">
      <use xlink:href="#DejaVuSans-109"/>
      <use x="97.412109" xlink:href="#DejaVuSans-97"/>
      <use x="158.691406" xlink:href="#DejaVuSans-115"/>
      <use x="210.791016" xlink:href="#DejaVuSans-107"/>
      <use x="268.654297" xlink:href="#DejaVuSans-101"/>
      <use x="330.177734" xlink:href="#DejaVuSans-100"/>
     </g>
    </g>
   </g>
  </g>
 </g>
 <defs>
  <clipPath id="p18b6b6cf9a">
   <rect height="266.112" width="357.12" x="57.6" y="41.472"/>
  </clipPath>
 </defs>
</svg>
