<?xml version="1.0" encoding="utf-8" standalone="no"?>
<!DOCTYPE svg PUBLIC "-//W3C//DTD SVG 1.1//EN"
  "http://www.w3.org/Graphics/SVG/1.1/DTD/svg11.dtd">
<!-- Created with matplotlib (https://matplotlib.org/) -->
<svg height="345.6pt" version="1.1" viewBox="0 0 460.8 345.6" width="460.8pt" xmlns="http://www.w3.org/2000/svg" xmlns:xlink="http://www.w3.org/1999/xlink">
 <defs>
  <style type="text/css">
*{stroke-linecap:butt;stroke-linejoin:round;}
  </style>
 </defs>
 <g id="figure_1">
  <g id="patch_1">
   <path d="M 0 345.6 
L 460.8 345.6 
L 460.8 0 
L 0 0 
z
" style="fill:#ffffff;"/>
  </g>
  <g id="axes_1">
   <g id="patch_2">
    <path d="M 57.6 307.584 
L 414.72 307.584 
L 414.72 41.472 
L 57.6 41.472 
z
" style="fill:#ffffff;"/>
   </g>
   <g id="patch_3">
    <path clip-path="url(#p93609296cf)" d="M 199.00074 307.584 
L 200.995605 307.584 
L 200.995605 307.569723 
L 199.00074 307.569723 
z
" style="fill:#0000ff;"/>
   </g>
   <g id="patch_4">
    <path clip-path="url(#p93609296cf)" d="M 200.995605 307.584 
L 202.99047 307.584 
L 202.99047 307.569723 
L 200.995605 307.569723 
z
" style="fill:#0000ff;"/>
   </g>
   <g id="patch_5">
    <path clip-path="url(#p93609296cf)" d="M 202.990471 307.584 
L 204.985336 307.584 
L 204.985336 307.584 
L 202.990471 307.584 
z
" style="fill:#0000ff;"/>
   </g>
   <g id="patch_6">
    <path clip-path="url(#p93609296cf)" d="M 204.985336 307.584 
L 206.980202 307.584 
L 206.980202 307.584 
L 204.985336 307.584 
z
" style="fill:#0000ff;"/>
   </g>
   <g id="patch_7">
    <path clip-path="url(#p93609296cf)" d="M 206.980202 307.584 
L 208.975067 307.584 
L 208.975067 307.569723 
L 206.980202 307.569723 
z
" style="fill:#0000ff;"/>
   </g>
   <g id="patch_8">
    <path clip-path="url(#p93609296cf)" d="M 208.975066 307.584 
L 210.969932 307.584 
L 210.969932 307.584 
L 208.975066 307.584 
z
" style="fill:#0000ff;"/>
   </g>
   <g id="patch_9">
    <path clip-path="url(#p93609296cf)" d="M 210.969932 307.584 
L 212.964798 307.584 
L 212.964798 307.584 
L 210.969932 307.584 
z
" style="fill:#0000ff;"/>
   </g>
   <g id="patch_10">
    <path clip-path="url(#p93609296cf)" d="M 212.964797 307.584 
L 214.959662 307.584 
L 214.959662 307.584 
L 212.964797 307.584 
z
" style="fill:#0000ff;"/>
   </g>
   <g id="patch_11">
    <path clip-path="url(#p93609296cf)" d="M 214.95966 307.584 
L 216.954526 307.584 
L 216.954526 307.584 
L 214.95966 307.584 
z
" style="fill:#0000ff;"/>
   </g>
   <g id="patch_12">
    <path clip-path="url(#p93609296cf)" d="M 216.954528 307.584 
L 218.949392 307.584 
L 218.949392 307.584 
L 216.954528 307.584 
z
" style="fill:#0000ff;"/>
   </g>
   <g id="patch_13">
    <path clip-path="url(#p93609296cf)" d="M 218.949392 307.584 
L 220.944257 307.584 
L 220.944257 307.555447 
L 218.949392 307.555447 
z
" style="fill:#0000ff;"/>
   </g>
   <g id="patch_14">
    <path clip-path="url(#p93609296cf)" d="M 220.944257 307.584 
L 222.939123 307.584 
L 222.939123 307.584 
L 220.944257 307.584 
z
" style="fill:#0000ff;"/>
   </g>
   <g id="patch_15">
    <path clip-path="url(#p93609296cf)" d="M 222.939121 307.584 
L 224.933989 307.584 
L 224.933989 307.584 
L 222.939121 307.584 
z
" style="fill:#0000ff;"/>
   </g>
   <g id="patch_16">
    <path clip-path="url(#p93609296cf)" d="M 224.933989 307.584 
L 226.928854 307.584 
L 226.928854 307.584 
L 224.933989 307.584 
z
" style="fill:#0000ff;"/>
   </g>
   <g id="patch_17">
    <path clip-path="url(#p93609296cf)" d="M 226.928851 307.584 
L 228.923715 307.584 
L 228.923715 307.555447 
L 226.928851 307.555447 
z
" style="fill:#0000ff;"/>
   </g>
   <g id="patch_18">
    <path clip-path="url(#p93609296cf)" d="M 228.923718 307.584 
L 230.918583 307.584 
L 230.918583 307.584 
L 228.923718 307.584 
z
" style="fill:#0000ff;"/>
   </g>
   <g id="patch_19">
    <path clip-path="url(#p93609296cf)" d="M 230.91858 307.584 
L 232.913445 307.584 
L 232.913445 307.584 
L 230.91858 307.584 
z
" style="fill:#0000ff;"/>
   </g>
   <g id="patch_20">
    <path clip-path="url(#p93609296cf)" d="M 232.913448 307.584 
L 234.908315 307.584 
L 234.908315 307.569723 
L 232.913448 307.569723 
z
" style="fill:#0000ff;"/>
   </g>
   <g id="patch_21">
    <path clip-path="url(#p93609296cf)" d="M 234.908315 307.584 
L 236.90318 307.584 
L 236.90318 307.584 
L 234.908315 307.584 
z
" style="fill:#0000ff;"/>
   </g>
   <g id="patch_22">
    <path clip-path="url(#p93609296cf)" d="M 236.903177 307.584 
L 238.898041 307.584 
L 238.898041 307.555447 
L 236.903177 307.555447 
z
" style="fill:#0000ff;"/>
   </g>
   <g id="patch_23">
    <path clip-path="url(#p93609296cf)" d="M 238.898044 307.584 
L 240.892909 307.584 
L 240.892909 307.569723 
L 238.898044 307.569723 
z
" style="fill:#0000ff;"/>
   </g>
   <g id="patch_24">
    <path clip-path="url(#p93609296cf)" d="M 240.892906 307.584 
L 242.887771 307.584 
L 242.887771 307.569723 
L 240.892906 307.569723 
z
" style="fill:#0000ff;"/>
   </g>
   <g id="patch_25">
    <path clip-path="url(#p93609296cf)" d="M 242.887774 307.584 
L 244.882641 307.584 
L 244.882641 307.569723 
L 242.887774 307.569723 
z
" style="fill:#0000ff;"/>
   </g>
   <g id="patch_26">
    <path clip-path="url(#p93609296cf)" d="M 244.882641 307.584 
L 246.877506 307.584 
L 246.877506 307.484063 
L 244.882641 307.484063 
z
" style="fill:#0000ff;"/>
   </g>
   <g id="patch_27">
    <path clip-path="url(#p93609296cf)" d="M 246.877503 307.584 
L 248.872367 307.584 
L 248.872367 307.555447 
L 246.877503 307.555447 
z
" style="fill:#0000ff;"/>
   </g>
   <g id="patch_28">
    <path clip-path="url(#p93609296cf)" d="M 248.87237 307.584 
L 250.867238 307.584 
L 250.867238 307.484063 
L 248.87237 307.484063 
z
" style="fill:#0000ff;"/>
   </g>
   <g id="patch_29">
    <path clip-path="url(#p93609296cf)" d="M 250.867238 307.584 
L 252.8621 307.584 
L 252.8621 307.441233 
L 250.867238 307.441233 
z
" style="fill:#0000ff;"/>
   </g>
   <g id="patch_30">
    <path clip-path="url(#p93609296cf)" d="M 252.8621 307.584 
L 254.856967 307.584 
L 254.856967 307.49834 
L 252.8621 307.49834 
z
" style="fill:#0000ff;"/>
   </g>
   <g id="patch_31">
    <path clip-path="url(#p93609296cf)" d="M 254.856973 307.584 
L 256.851835 307.584 
L 256.851835 307.555447 
L 254.856973 307.555447 
z
" style="fill:#0000ff;"/>
   </g>
   <g id="patch_32">
    <path clip-path="url(#p93609296cf)" d="M 256.851829 307.584 
L 258.846696 307.584 
L 258.846696 307.441233 
L 256.851829 307.441233 
z
" style="fill:#0000ff;"/>
   </g>
   <g id="patch_33">
    <path clip-path="url(#p93609296cf)" d="M 258.846696 307.584 
L 260.841564 307.584 
L 260.841564 307.255636 
L 258.846696 307.255636 
z
" style="fill:#0000ff;"/>
   </g>
   <g id="patch_34">
    <path clip-path="url(#p93609296cf)" d="M 260.841564 307.584 
L 262.836426 307.584 
L 262.836426 307.441233 
L 260.841564 307.441233 
z
" style="fill:#0000ff;"/>
   </g>
   <g id="patch_35">
    <path clip-path="url(#p93609296cf)" d="M 262.836426 307.584 
L 264.831293 307.584 
L 264.831293 307.327019 
L 262.836426 307.327019 
z
" style="fill:#0000ff;"/>
   </g>
   <g id="patch_36">
    <path clip-path="url(#p93609296cf)" d="M 264.831299 307.584 
L 266.826161 307.584 
L 266.826161 307.398403 
L 264.831299 307.398403 
z
" style="fill:#0000ff;"/>
   </g>
   <g id="patch_37">
    <path clip-path="url(#p93609296cf)" d="M 266.826155 307.584 
L 268.821022 307.584 
L 268.821022 307.184252 
L 266.826155 307.184252 
z
" style="fill:#0000ff;"/>
   </g>
   <g id="patch_38">
    <path clip-path="url(#p93609296cf)" d="M 268.821022 307.584 
L 270.81589 307.584 
L 270.81589 307.212806 
L 268.821022 307.212806 
z
" style="fill:#0000ff;"/>
   </g>
   <g id="patch_39">
    <path clip-path="url(#p93609296cf)" d="M 270.81589 307.584 
L 272.810752 307.584 
L 272.810752 306.984379 
L 270.81589 306.984379 
z
" style="fill:#0000ff;"/>
   </g>
   <g id="patch_40">
    <path clip-path="url(#p93609296cf)" d="M 272.810752 307.584 
L 274.805619 307.584 
L 274.805619 307.098592 
L 272.810752 307.098592 
z
" style="fill:#0000ff;"/>
   </g>
   <g id="patch_41">
    <path clip-path="url(#p93609296cf)" d="M 274.805625 307.584 
L 276.800487 307.584 
L 276.800487 306.798781 
L 274.805625 306.798781 
z
" style="fill:#0000ff;"/>
   </g>
   <g id="patch_42">
    <path clip-path="url(#p93609296cf)" d="M 276.800481 307.584 
L 278.795348 307.584 
L 278.795348 306.884442 
L 276.800481 306.884442 
z
" style="fill:#0000ff;"/>
   </g>
   <g id="patch_43">
    <path clip-path="url(#p93609296cf)" d="M 278.795348 307.584 
L 280.790216 307.584 
L 280.790216 306.270543 
L 278.795348 306.270543 
z
" style="fill:#0000ff;"/>
   </g>
   <g id="patch_44">
    <path clip-path="url(#p93609296cf)" d="M 280.790216 307.584 
L 282.785078 307.584 
L 282.785078 306.1135 
L 280.790216 306.1135 
z
" style="fill:#0000ff;"/>
   </g>
   <g id="patch_45">
    <path clip-path="url(#p93609296cf)" d="M 282.785078 307.584 
L 284.779945 307.584 
L 284.779945 306.356204 
L 282.785078 306.356204 
z
" style="fill:#0000ff;"/>
   </g>
   <g id="patch_46">
    <path clip-path="url(#p93609296cf)" d="M 284.779951 307.584 
L 286.774813 307.584 
L 286.774813 305.271174 
L 284.779951 305.271174 
z
" style="fill:#0000ff;"/>
   </g>
   <g id="patch_47">
    <path clip-path="url(#p93609296cf)" d="M 286.774807 307.584 
L 288.769674 307.584 
L 288.769674 305.699475 
L 286.774807 305.699475 
z
" style="fill:#0000ff;"/>
   </g>
   <g id="patch_48">
    <path clip-path="url(#p93609296cf)" d="M 288.769674 307.584 
L 290.764542 307.584 
L 290.764542 304.129038 
L 288.769674 304.129038 
z
" style="fill:#0000ff;"/>
   </g>
   <g id="patch_49">
    <path clip-path="url(#p93609296cf)" d="M 290.764542 307.584 
L 292.759404 307.584 
L 292.759404 304.971364 
L 290.764542 304.971364 
z
" style="fill:#0000ff;"/>
   </g>
   <g id="patch_50">
    <path clip-path="url(#p93609296cf)" d="M 292.759404 307.584 
L 294.754271 307.584 
L 294.754271 303.186776 
L 292.759404 303.186776 
z
" style="fill:#0000ff;"/>
   </g>
   <g id="patch_51">
    <path clip-path="url(#p93609296cf)" d="M 294.754277 307.584 
L 296.749139 307.584 
L 296.749139 304.228975 
L 294.754277 304.228975 
z
" style="fill:#0000ff;"/>
   </g>
   <g id="patch_52">
    <path clip-path="url(#p93609296cf)" d="M 296.749133 307.584 
L 298.744 307.584 
L 298.744 301.416465 
L 296.749133 301.416465 
z
" style="fill:#0000ff;"/>
   </g>
   <g id="patch_53">
    <path clip-path="url(#p93609296cf)" d="M 298.743995 307.584 
L 300.738856 307.584 
L 300.738856 301.316528 
L 298.743995 301.316528 
z
" style="fill:#0000ff;"/>
   </g>
   <g id="patch_54">
    <path clip-path="url(#p93609296cf)" d="M 300.73888 307.584 
L 302.733748 307.584 
L 302.733748 302.515771 
L 300.73888 302.515771 
z
" style="fill:#0000ff;"/>
   </g>
   <g id="patch_55">
    <path clip-path="url(#p93609296cf)" d="M 302.733736 307.584 
L 304.728591 307.584 
L 304.728591 298.618232 
L 302.733736 298.618232 
z
" style="fill:#0000ff;"/>
   </g>
   <g id="patch_56">
    <path clip-path="url(#p93609296cf)" d="M 304.728591 307.584 
L 306.723459 307.584 
L 306.723459 300.859674 
L 304.728591 300.859674 
z
" style="fill:#0000ff;"/>
   </g>
   <g id="patch_57">
    <path clip-path="url(#p93609296cf)" d="M 306.723471 307.584 
L 308.718338 307.584 
L 308.718338 296.162639 
L 306.723471 296.162639 
z
" style="fill:#0000ff;"/>
   </g>
   <g id="patch_58">
    <path clip-path="url(#p93609296cf)" d="M 308.718327 307.584 
L 310.713194 307.584 
L 310.713194 299.246406 
L 308.718327 299.246406 
z
" style="fill:#0000ff;"/>
   </g>
   <g id="patch_59">
    <path clip-path="url(#p93609296cf)" d="M 310.713206 307.584 
L 312.708074 307.584 
L 312.708074 293.250192 
L 310.713206 293.250192 
z
" style="fill:#0000ff;"/>
   </g>
   <g id="patch_60">
    <path clip-path="url(#p93609296cf)" d="M 312.708062 307.584 
L 314.702917 307.584 
L 314.702917 297.390435 
L 312.708062 297.390435 
z
" style="fill:#0000ff;"/>
   </g>
   <g id="patch_61">
    <path clip-path="url(#p93609296cf)" d="M 314.702917 307.584 
L 316.697785 307.584 
L 316.697785 287.453851 
L 314.702917 287.453851 
z
" style="fill:#0000ff;"/>
   </g>
   <g id="patch_62">
    <path clip-path="url(#p93609296cf)" d="M 316.697797 307.584 
L 318.692664 307.584 
L 318.692664 280.758078 
L 316.697797 280.758078 
z
" style="fill:#0000ff;"/>
   </g>
   <g id="patch_63">
    <path clip-path="url(#p93609296cf)" d="M 318.692653 307.584 
L 320.68752 307.584 
L 320.68752 229.20491 
L 318.692653 229.20491 
z
" style="fill:#0000ff;"/>
   </g>
   <g id="patch_64">
    <path clip-path="url(#p93609296cf)" d="M 320.687532 307.584 
L 322.6824 307.584 
L 322.6824 199.809183 
L 320.687532 199.809183 
z
" style="fill:#0000ff;"/>
   </g>
   <g id="patch_65">
    <path clip-path="url(#p93609296cf)" d="M 322.682388 307.584 
L 324.677243 307.584 
L 324.677243 232.617042 
L 322.682388 232.617042 
z
" style="fill:#0000ff;"/>
   </g>
   <g id="patch_66">
    <path clip-path="url(#p93609296cf)" d="M 324.677243 307.584 
L 326.672111 307.584 
L 326.672111 216.884117 
L 324.677243 216.884117 
z
" style="fill:#0000ff;"/>
   </g>
   <g id="patch_67">
    <path clip-path="url(#p93609296cf)" d="M 326.672123 307.584 
L 328.666991 307.584 
L 328.666991 270.778664 
L 326.672123 270.778664 
z
" style="fill:#0000ff;"/>
   </g>
   <g id="patch_68">
    <path clip-path="url(#p93609296cf)" d="M 328.666979 307.584 
L 330.661846 307.584 
L 330.661846 284.755555 
L 328.666979 284.755555 
z
" style="fill:#0000ff;"/>
   </g>
   <g id="patch_69">
    <path clip-path="url(#p93609296cf)" d="M 330.661858 307.584 
L 332.656726 307.584 
L 332.656726 295.634401 
L 330.661858 295.634401 
z
" style="fill:#0000ff;"/>
   </g>
   <g id="patch_70">
    <path clip-path="url(#p93609296cf)" d="M 332.656714 307.584 
L 334.651569 307.584 
L 334.651569 291.951012 
L 332.656714 291.951012 
z
" style="fill:#0000ff;"/>
   </g>
   <g id="patch_71">
    <path clip-path="url(#p93609296cf)" d="M 334.651569 307.584 
L 336.646437 307.584 
L 336.646437 297.633139 
L 334.651569 297.633139 
z
" style="fill:#0000ff;"/>
   </g>
   <g id="patch_72">
    <path clip-path="url(#p93609296cf)" d="M 336.646449 307.584 
L 338.641317 307.584 
L 338.641317 293.193085 
L 336.646449 293.193085 
z
" style="fill:#0000ff;"/>
   </g>
   <g id="patch_73">
    <path clip-path="url(#p93609296cf)" d="M 338.641305 307.584 
L 340.636172 307.584 
L 340.636172 295.420251 
L 338.641305 295.420251 
z
" style="fill:#0000ff;"/>
   </g>
   <g id="patch_74">
    <path clip-path="url(#p93609296cf)" d="M 340.636184 307.584 
L 342.631052 307.584 
L 342.631052 300.031625 
L 340.636184 300.031625 
z
" style="fill:#0000ff;"/>
   </g>
   <g id="patch_75">
    <path clip-path="url(#p93609296cf)" d="M 342.63104 307.584 
L 344.625895 307.584 
L 344.625895 297.661693 
L 342.63104 297.661693 
z
" style="fill:#0000ff;"/>
   </g>
   <g id="patch_76">
    <path clip-path="url(#p93609296cf)" d="M 344.625895 307.584 
L 346.620763 307.584 
L 346.620763 302.1303 
L 344.625895 302.1303 
z
" style="fill:#0000ff;"/>
   </g>
   <g id="patch_77">
    <path clip-path="url(#p93609296cf)" d="M 346.620775 307.584 
L 348.615643 307.584 
L 348.615643 300.117285 
L 346.620775 300.117285 
z
" style="fill:#0000ff;"/>
   </g>
   <g id="patch_78">
    <path clip-path="url(#p93609296cf)" d="M 348.615631 307.584 
L 350.610498 307.584 
L 350.610498 303.086839 
L 348.615631 303.086839 
z
" style="fill:#0000ff;"/>
   </g>
   <g id="patch_79">
    <path clip-path="url(#p93609296cf)" d="M 350.61051 307.584 
L 352.605378 307.584 
L 352.605378 302.25879 
L 350.61051 302.25879 
z
" style="fill:#0000ff;"/>
   </g>
   <g id="patch_80">
    <path clip-path="url(#p93609296cf)" d="M 352.605366 307.584 
L 354.600221 307.584 
L 354.600221 304.414572 
L 352.605366 304.414572 
z
" style="fill:#0000ff;"/>
   </g>
   <g id="patch_81">
    <path clip-path="url(#p93609296cf)" d="M 354.600221 307.584 
L 356.595089 307.584 
L 356.595089 303.629354 
L 354.600221 303.629354 
z
" style="fill:#0000ff;"/>
   </g>
   <g id="patch_82">
    <path clip-path="url(#p93609296cf)" d="M 356.595101 307.584 
L 358.589969 307.584 
L 358.589969 305.442495 
L 356.595101 305.442495 
z
" style="fill:#0000ff;"/>
   </g>
   <g id="patch_83">
    <path clip-path="url(#p93609296cf)" d="M 358.589957 307.584 
L 360.584824 307.584 
L 360.584824 305.314005 
L 358.589957 305.314005 
z
" style="fill:#0000ff;"/>
   </g>
   <g id="patch_84">
    <path clip-path="url(#p93609296cf)" d="M 360.584836 307.584 
L 362.579704 307.584 
L 362.579704 305.542432 
L 360.584836 305.542432 
z
" style="fill:#0000ff;"/>
   </g>
   <g id="patch_85">
    <path clip-path="url(#p93609296cf)" d="M 362.579692 307.584 
L 364.574548 307.584 
L 364.574548 306.741675 
L 362.579692 306.741675 
z
" style="fill:#0000ff;"/>
   </g>
   <g id="patch_86">
    <path clip-path="url(#p93609296cf)" d="M 364.574548 307.584 
L 366.569415 307.584 
L 366.569415 306.413311 
L 364.574548 306.413311 
z
" style="fill:#0000ff;"/>
   </g>
   <g id="patch_87">
    <path clip-path="url(#p93609296cf)" d="M 366.569427 307.584 
L 368.564295 307.584 
L 368.564295 307.055762 
L 366.569427 307.055762 
z
" style="fill:#0000ff;"/>
   </g>
   <g id="patch_88">
    <path clip-path="url(#p93609296cf)" d="M 368.564283 307.584 
L 370.55915 307.584 
L 370.55915 307.070039 
L 368.564283 307.070039 
z
" style="fill:#0000ff;"/>
   </g>
   <g id="patch_89">
    <path clip-path="url(#p93609296cf)" d="M 370.559162 307.584 
L 372.55403 307.584 
L 372.55403 307.269913 
L 370.559162 307.269913 
z
" style="fill:#0000ff;"/>
   </g>
   <g id="patch_90">
    <path clip-path="url(#p93609296cf)" d="M 372.554018 307.584 
L 374.548874 307.584 
L 374.548874 307.327019 
L 372.554018 307.327019 
z
" style="fill:#0000ff;"/>
   </g>
   <g id="patch_91">
    <path clip-path="url(#p93609296cf)" d="M 374.548874 307.584 
L 376.543741 307.584 
L 376.543741 307.45551 
L 374.548874 307.45551 
z
" style="fill:#0000ff;"/>
   </g>
   <g id="patch_92">
    <path clip-path="url(#p93609296cf)" d="M 376.543753 307.584 
L 378.538621 307.584 
L 378.538621 307.384126 
L 376.543753 307.384126 
z
" style="fill:#0000ff;"/>
   </g>
   <g id="patch_93">
    <path clip-path="url(#p93609296cf)" d="M 378.538609 307.584 
L 380.533476 307.584 
L 380.533476 307.45551 
L 378.538609 307.45551 
z
" style="fill:#0000ff;"/>
   </g>
   <g id="patch_94">
    <path clip-path="url(#p93609296cf)" d="M 380.533488 307.584 
L 382.528356 307.584 
L 382.528356 307.45551 
L 380.533488 307.45551 
z
" style="fill:#0000ff;"/>
   </g>
   <g id="patch_95">
    <path clip-path="url(#p93609296cf)" d="M 382.528344 307.584 
L 384.5232 307.584 
L 384.5232 307.49834 
L 382.528344 307.49834 
z
" style="fill:#0000ff;"/>
   </g>
   <g id="patch_96">
    <path clip-path="url(#p93609296cf)" d="M 384.5232 307.584 
L 386.518067 307.584 
L 386.518067 307.555447 
L 384.5232 307.555447 
z
" style="fill:#0000ff;"/>
   </g>
   <g id="patch_97">
    <path clip-path="url(#p93609296cf)" d="M 386.518079 307.584 
L 388.512947 307.584 
L 388.512947 307.555447 
L 386.518079 307.555447 
z
" style="fill:#0000ff;"/>
   </g>
   <g id="patch_98">
    <path clip-path="url(#p93609296cf)" d="M 388.512935 307.584 
L 390.507802 307.584 
L 390.507802 307.569723 
L 388.512935 307.569723 
z
" style="fill:#0000ff;"/>
   </g>
   <g id="patch_99">
    <path clip-path="url(#p93609296cf)" d="M 390.507814 307.584 
L 392.502682 307.584 
L 392.502682 307.555447 
L 390.507814 307.555447 
z
" style="fill:#0000ff;"/>
   </g>
   <g id="patch_100">
    <path clip-path="url(#p93609296cf)" d="M 392.50267 307.584 
L 394.497526 307.584 
L 394.497526 307.584 
L 392.50267 307.584 
z
" style="fill:#0000ff;"/>
   </g>
   <g id="patch_101">
    <path clip-path="url(#p93609296cf)" d="M 394.497526 307.584 
L 396.492393 307.584 
L 396.492393 307.584 
L 394.497526 307.584 
z
" style="fill:#0000ff;"/>
   </g>
   <g id="patch_102">
    <path clip-path="url(#p93609296cf)" d="M 396.492405 307.584 
L 398.487273 307.584 
L 398.487273 307.569723 
L 396.492405 307.569723 
z
" style="fill:#0000ff;"/>
   </g>
   <g id="patch_103">
    <path clip-path="url(#p93609296cf)" d="M 73.832727 307.584 
L 75.74936 307.584 
L 75.74936 307.569723 
L 73.832727 307.569723 
z
" style="fill:#808080;"/>
   </g>
   <g id="patch_104">
    <path clip-path="url(#p93609296cf)" d="M 75.749348 307.584 
L 77.665981 307.584 
L 77.665981 307.569723 
L 75.749348 307.569723 
z
" style="fill:#808080;"/>
   </g>
   <g id="patch_105">
    <path clip-path="url(#p93609296cf)" d="M 77.665993 307.584 
L 79.582638 307.584 
L 79.582638 307.584 
L 77.665993 307.584 
z
" style="fill:#808080;"/>
   </g>
   <g id="patch_106">
    <path clip-path="url(#p93609296cf)" d="M 79.582638 307.584 
L 81.49927 307.584 
L 81.49927 307.584 
L 79.582638 307.584 
z
" style="fill:#808080;"/>
   </g>
   <g id="patch_107">
    <path clip-path="url(#p93609296cf)" d="M 81.499259 307.584 
L 83.415891 307.584 
L 83.415891 307.584 
L 81.499259 307.584 
z
" style="fill:#808080;"/>
   </g>
   <g id="patch_108">
    <path clip-path="url(#p93609296cf)" d="M 83.415903 307.584 
L 85.332536 307.584 
L 85.332536 307.584 
L 83.415903 307.584 
z
" style="fill:#808080;"/>
   </g>
   <g id="patch_109">
    <path clip-path="url(#p93609296cf)" d="M 85.332524 307.584 
L 87.249157 307.584 
L 87.249157 307.569723 
L 85.332524 307.569723 
z
" style="fill:#808080;"/>
   </g>
   <g id="patch_110">
    <path clip-path="url(#p93609296cf)" d="M 87.249169 307.584 
L 89.165814 307.584 
L 89.165814 307.584 
L 87.249169 307.584 
z
" style="fill:#808080;"/>
   </g>
   <g id="patch_111">
    <path clip-path="url(#p93609296cf)" d="M 89.165814 307.584 
L 91.082446 307.584 
L 91.082446 307.584 
L 89.165814 307.584 
z
" style="fill:#808080;"/>
   </g>
   <g id="patch_112">
    <path clip-path="url(#p93609296cf)" d="M 91.082435 307.584 
L 92.999067 307.584 
L 92.999067 307.584 
L 91.082435 307.584 
z
" style="fill:#808080;"/>
   </g>
   <g id="patch_113">
    <path clip-path="url(#p93609296cf)" d="M 92.999079 307.584 
L 94.915712 307.584 
L 94.915712 307.584 
L 92.999079 307.584 
z
" style="fill:#808080;"/>
   </g>
   <g id="patch_114">
    <path clip-path="url(#p93609296cf)" d="M 94.9157 307.584 
L 96.832333 307.584 
L 96.832333 307.584 
L 94.9157 307.584 
z
" style="fill:#808080;"/>
   </g>
   <g id="patch_115">
    <path clip-path="url(#p93609296cf)" d="M 96.832345 307.584 
L 98.74899 307.584 
L 98.74899 307.584 
L 96.832345 307.584 
z
" style="fill:#808080;"/>
   </g>
   <g id="patch_116">
    <path clip-path="url(#p93609296cf)" d="M 98.74899 307.584 
L 100.665622 307.584 
L 100.665622 307.584 
L 98.74899 307.584 
z
" style="fill:#808080;"/>
   </g>
   <g id="patch_117">
    <path clip-path="url(#p93609296cf)" d="M 100.665622 307.584 
L 102.582255 307.584 
L 102.582255 307.555447 
L 100.665622 307.555447 
z
" style="fill:#808080;"/>
   </g>
   <g id="patch_118">
    <path clip-path="url(#p93609296cf)" d="M 102.582255 307.584 
L 104.498888 307.584 
L 104.498888 307.555447 
L 102.582255 307.555447 
z
" style="fill:#808080;"/>
   </g>
   <g id="patch_119">
    <path clip-path="url(#p93609296cf)" d="M 104.498888 307.584 
L 106.415533 307.584 
L 106.415533 307.584 
L 104.498888 307.584 
z
" style="fill:#808080;"/>
   </g>
   <g id="patch_120">
    <path clip-path="url(#p93609296cf)" d="M 106.415527 307.584 
L 108.33216 307.584 
L 108.33216 307.584 
L 106.415527 307.584 
z
" style="fill:#808080;"/>
   </g>
   <g id="patch_121">
    <path clip-path="url(#p93609296cf)" d="M 108.332154 307.584 
L 110.248798 307.584 
L 110.248798 307.584 
L 108.332154 307.584 
z
" style="fill:#808080;"/>
   </g>
   <g id="patch_122">
    <path clip-path="url(#p93609296cf)" d="M 110.248798 307.584 
L 112.165431 307.584 
L 112.165431 307.569723 
L 110.248798 307.569723 
z
" style="fill:#808080;"/>
   </g>
   <g id="patch_123">
    <path clip-path="url(#p93609296cf)" d="M 112.165431 307.584 
L 114.082064 307.584 
L 114.082064 307.569723 
L 112.165431 307.569723 
z
" style="fill:#808080;"/>
   </g>
   <g id="patch_124">
    <path clip-path="url(#p93609296cf)" d="M 114.082064 307.584 
L 115.998709 307.584 
L 115.998709 307.54117 
L 114.082064 307.54117 
z
" style="fill:#808080;"/>
   </g>
   <g id="patch_125">
    <path clip-path="url(#p93609296cf)" d="M 115.998703 307.584 
L 117.915336 307.584 
L 117.915336 307.584 
L 115.998703 307.584 
z
" style="fill:#808080;"/>
   </g>
   <g id="patch_126">
    <path clip-path="url(#p93609296cf)" d="M 117.91533 307.584 
L 119.831974 307.584 
L 119.831974 307.584 
L 117.91533 307.584 
z
" style="fill:#808080;"/>
   </g>
   <g id="patch_127">
    <path clip-path="url(#p93609296cf)" d="M 119.831974 307.584 
L 121.748607 307.584 
L 121.748607 307.584 
L 119.831974 307.584 
z
" style="fill:#808080;"/>
   </g>
   <g id="patch_128">
    <path clip-path="url(#p93609296cf)" d="M 121.748607 307.584 
L 123.66524 307.584 
L 123.66524 307.584 
L 121.748607 307.584 
z
" style="fill:#808080;"/>
   </g>
   <g id="patch_129">
    <path clip-path="url(#p93609296cf)" d="M 123.66524 307.584 
L 125.581885 307.584 
L 125.581885 307.41268 
L 123.66524 307.41268 
z
" style="fill:#808080;"/>
   </g>
   <g id="patch_130">
    <path clip-path="url(#p93609296cf)" d="M 125.581879 307.584 
L 127.498512 307.584 
L 127.498512 307.369849 
L 125.581879 307.369849 
z
" style="fill:#808080;"/>
   </g>
   <g id="patch_131">
    <path clip-path="url(#p93609296cf)" d="M 127.498506 307.584 
L 129.41515 307.584 
L 129.41515 307.49834 
L 127.498506 307.49834 
z
" style="fill:#808080;"/>
   </g>
   <g id="patch_132">
    <path clip-path="url(#p93609296cf)" d="M 129.41515 307.584 
L 131.331783 307.584 
L 131.331783 307.584 
L 129.41515 307.584 
z
" style="fill:#808080;"/>
   </g>
   <g id="patch_133">
    <path clip-path="url(#p93609296cf)" d="M 131.331783 307.584 
L 133.248416 307.584 
L 133.248416 307.584 
L 131.331783 307.584 
z
" style="fill:#808080;"/>
   </g>
   <g id="patch_134">
    <path clip-path="url(#p93609296cf)" d="M 133.248416 307.584 
L 135.165061 307.584 
L 135.165061 307.584 
L 133.248416 307.584 
z
" style="fill:#808080;"/>
   </g>
   <g id="patch_135">
    <path clip-path="url(#p93609296cf)" d="M 135.165055 307.584 
L 137.081688 307.584 
L 137.081688 307.055762 
L 135.165055 307.055762 
z
" style="fill:#808080;"/>
   </g>
   <g id="patch_136">
    <path clip-path="url(#p93609296cf)" d="M 137.081682 307.584 
L 138.998326 307.584 
L 138.998326 307.526893 
L 137.081682 307.526893 
z
" style="fill:#808080;"/>
   </g>
   <g id="patch_137">
    <path clip-path="url(#p93609296cf)" d="M 138.998326 307.584 
L 140.914959 307.584 
L 140.914959 306.955825 
L 138.998326 306.955825 
z
" style="fill:#808080;"/>
   </g>
   <g id="patch_138">
    <path clip-path="url(#p93609296cf)" d="M 140.914959 307.584 
L 142.831592 307.584 
L 142.831592 307.584 
L 140.914959 307.584 
z
" style="fill:#808080;"/>
   </g>
   <g id="patch_139">
    <path clip-path="url(#p93609296cf)" d="M 142.831592 307.584 
L 144.748237 307.584 
L 144.748237 307.584 
L 142.831592 307.584 
z
" style="fill:#808080;"/>
   </g>
   <g id="patch_140">
    <path clip-path="url(#p93609296cf)" d="M 144.748231 307.584 
L 146.664864 307.584 
L 146.664864 307.584 
L 144.748231 307.584 
z
" style="fill:#808080;"/>
   </g>
   <g id="patch_141">
    <path clip-path="url(#p93609296cf)" d="M 146.664858 307.584 
L 148.581502 307.584 
L 148.581502 307.584 
L 146.664858 307.584 
z
" style="fill:#808080;"/>
   </g>
   <g id="patch_142">
    <path clip-path="url(#p93609296cf)" d="M 148.581502 307.584 
L 150.498135 307.584 
L 150.498135 305.999286 
L 148.581502 305.999286 
z
" style="fill:#808080;"/>
   </g>
   <g id="patch_143">
    <path clip-path="url(#p93609296cf)" d="M 150.498135 307.584 
L 152.414768 307.584 
L 152.414768 306.299097 
L 150.498135 306.299097 
z
" style="fill:#808080;"/>
   </g>
   <g id="patch_144">
    <path clip-path="url(#p93609296cf)" d="M 152.414774 307.584 
L 154.331407 307.584 
L 154.331407 306.498971 
L 152.414774 306.498971 
z
" style="fill:#808080;"/>
   </g>
   <g id="patch_145">
    <path clip-path="url(#p93609296cf)" d="M 154.331407 307.584 
L 156.24804 307.584 
L 156.24804 307.584 
L 154.331407 307.584 
z
" style="fill:#808080;"/>
   </g>
   <g id="patch_146">
    <path clip-path="url(#p93609296cf)" d="M 156.24804 307.584 
L 158.164672 307.584 
L 158.164672 307.584 
L 156.24804 307.584 
z
" style="fill:#808080;"/>
   </g>
   <g id="patch_147">
    <path clip-path="url(#p93609296cf)" d="M 158.164678 307.584 
L 160.081311 307.584 
L 160.081311 307.584 
L 158.164678 307.584 
z
" style="fill:#808080;"/>
   </g>
   <g id="patch_148">
    <path clip-path="url(#p93609296cf)" d="M 160.081311 307.584 
L 161.997944 307.584 
L 161.997944 303.47231 
L 160.081311 303.47231 
z
" style="fill:#808080;"/>
   </g>
   <g id="patch_149">
    <path clip-path="url(#p93609296cf)" d="M 161.99795 307.584 
L 163.914583 307.584 
L 163.914583 306.056393 
L 161.99795 306.056393 
z
" style="fill:#808080;"/>
   </g>
   <g id="patch_150">
    <path clip-path="url(#p93609296cf)" d="M 163.914583 307.584 
L 165.831216 307.584 
L 165.831216 299.688984 
L 163.914583 299.688984 
z
" style="fill:#808080;"/>
   </g>
   <g id="patch_151">
    <path clip-path="url(#p93609296cf)" d="M 165.831216 307.584 
L 167.747848 307.584 
L 167.747848 307.584 
L 165.831216 307.584 
z
" style="fill:#808080;"/>
   </g>
   <g id="patch_152">
    <path clip-path="url(#p93609296cf)" d="M 167.747854 307.584 
L 169.664487 307.584 
L 169.664487 307.584 
L 167.747854 307.584 
z
" style="fill:#808080;"/>
   </g>
   <g id="patch_153">
    <path clip-path="url(#p93609296cf)" d="M 169.664487 307.584 
L 171.58112 307.584 
L 171.58112 307.584 
L 169.664487 307.584 
z
" style="fill:#808080;"/>
   </g>
   <g id="patch_154">
    <path clip-path="url(#p93609296cf)" d="M 171.581126 307.584 
L 173.497759 307.584 
L 173.497759 307.584 
L 171.581126 307.584 
z
" style="fill:#808080;"/>
   </g>
   <g id="patch_155">
    <path clip-path="url(#p93609296cf)" d="M 173.497759 307.584 
L 175.414392 307.584 
L 175.414392 292.793338 
L 173.497759 292.793338 
z
" style="fill:#808080;"/>
   </g>
   <g id="patch_156">
    <path clip-path="url(#p93609296cf)" d="M 175.414395 307.584 
L 177.331027 307.584 
L 177.331027 297.119178 
L 175.414395 297.119178 
z
" style="fill:#808080;"/>
   </g>
   <g id="patch_157">
    <path clip-path="url(#p93609296cf)" d="M 177.331029 307.584 
L 179.247662 307.584 
L 179.247662 298.618232 
L 177.331029 298.618232 
z
" style="fill:#808080;"/>
   </g>
   <g id="patch_158">
    <path clip-path="url(#p93609296cf)" d="M 179.247665 307.584 
L 181.164297 307.584 
L 181.164297 307.584 
L 179.247665 307.584 
z
" style="fill:#808080;"/>
   </g>
   <g id="patch_159">
    <path clip-path="url(#p93609296cf)" d="M 181.164299 307.584 
L 183.080932 307.584 
L 183.080932 307.584 
L 181.164299 307.584 
z
" style="fill:#808080;"/>
   </g>
   <g id="patch_160">
    <path clip-path="url(#p93609296cf)" d="M 183.080935 307.584 
L 184.997568 307.584 
L 184.997568 307.584 
L 183.080935 307.584 
z
" style="fill:#808080;"/>
   </g>
   <g id="patch_161">
    <path clip-path="url(#p93609296cf)" d="M 184.997571 307.584 
L 186.914203 307.584 
L 186.914203 282.371346 
L 184.997571 282.371346 
z
" style="fill:#808080;"/>
   </g>
   <g id="patch_162">
    <path clip-path="url(#p93609296cf)" d="M 186.914205 307.584 
L 188.830838 307.584 
L 188.830838 298.918042 
L 186.914205 298.918042 
z
" style="fill:#808080;"/>
   </g>
   <g id="patch_163">
    <path clip-path="url(#p93609296cf)" d="M 188.830841 307.584 
L 190.747473 307.584 
L 190.747473 259.357303 
L 188.830841 259.357303 
z
" style="fill:#808080;"/>
   </g>
   <g id="patch_164">
    <path clip-path="url(#p93609296cf)" d="M 190.747475 307.584 
L 192.664108 307.584 
L 192.664108 307.584 
L 190.747475 307.584 
z
" style="fill:#808080;"/>
   </g>
   <g id="patch_165">
    <path clip-path="url(#p93609296cf)" d="M 192.664111 307.584 
L 194.580744 307.584 
L 194.580744 307.584 
L 192.664111 307.584 
z
" style="fill:#808080;"/>
   </g>
   <g id="patch_166">
    <path clip-path="url(#p93609296cf)" d="M 194.580746 307.584 
L 196.497379 307.584 
L 196.497379 307.584 
L 194.580746 307.584 
z
" style="fill:#808080;"/>
   </g>
   <g id="patch_167">
    <path clip-path="url(#p93609296cf)" d="M 196.497381 307.584 
L 198.414014 307.584 
L 198.414014 307.584 
L 196.497381 307.584 
z
" style="fill:#808080;"/>
   </g>
   <g id="patch_168">
    <path clip-path="url(#p93609296cf)" d="M 198.414016 307.584 
L 200.330649 307.584 
L 200.330649 54.144 
L 198.414016 54.144 
z
" style="fill:#808080;"/>
   </g>
   <g id="patch_169">
    <path clip-path="url(#p93609296cf)" d="M 200.330652 307.584 
L 202.247284 307.584 
L 202.247284 171.955338 
L 200.330652 171.955338 
z
" style="fill:#808080;"/>
   </g>
   <g id="patch_170">
    <path clip-path="url(#p93609296cf)" d="M 202.247287 307.584 
L 204.16392 307.584 
L 204.16392 276.360854 
L 202.247287 276.360854 
z
" style="fill:#808080;"/>
   </g>
   <g id="patch_171">
    <path clip-path="url(#p93609296cf)" d="M 204.163922 307.584 
L 206.080555 307.584 
L 206.080555 307.584 
L 204.163922 307.584 
z
" style="fill:#808080;"/>
   </g>
   <g id="patch_172">
    <path clip-path="url(#p93609296cf)" d="M 206.080557 307.584 
L 207.99719 307.584 
L 207.99719 307.584 
L 206.080557 307.584 
z
" style="fill:#808080;"/>
   </g>
   <g id="patch_173">
    <path clip-path="url(#p93609296cf)" d="M 207.997193 307.584 
L 209.913825 307.584 
L 209.913825 307.584 
L 207.997193 307.584 
z
" style="fill:#808080;"/>
   </g>
   <g id="patch_174">
    <path clip-path="url(#p93609296cf)" d="M 209.913827 307.584 
L 211.83046 307.584 
L 211.83046 275.504252 
L 209.913827 275.504252 
z
" style="fill:#808080;"/>
   </g>
   <g id="patch_175">
    <path clip-path="url(#p93609296cf)" d="M 211.830463 307.584 
L 213.747096 307.584 
L 213.747096 296.59094 
L 211.830463 296.59094 
z
" style="fill:#808080;"/>
   </g>
   <g id="patch_176">
    <path clip-path="url(#p93609296cf)" d="M 213.747099 307.584 
L 215.663731 307.584 
L 215.663731 271.992184 
L 213.747099 271.992184 
z
" style="fill:#808080;"/>
   </g>
   <g id="patch_177">
    <path clip-path="url(#p93609296cf)" d="M 215.663733 307.584 
L 217.580366 307.584 
L 217.580366 307.584 
L 215.663733 307.584 
z
" style="fill:#808080;"/>
   </g>
   <g id="patch_178">
    <path clip-path="url(#p93609296cf)" d="M 217.580369 307.584 
L 219.497001 307.584 
L 219.497001 307.584 
L 217.580369 307.584 
z
" style="fill:#808080;"/>
   </g>
   <g id="patch_179">
    <path clip-path="url(#p93609296cf)" d="M 219.497003 307.584 
L 221.413636 307.584 
L 221.413636 307.584 
L 219.497003 307.584 
z
" style="fill:#808080;"/>
   </g>
   <g id="patch_180">
    <path clip-path="url(#p93609296cf)" d="M 221.413639 307.584 
L 223.330272 307.584 
L 223.330272 307.584 
L 221.413639 307.584 
z
" style="fill:#808080;"/>
   </g>
   <g id="patch_181">
    <path clip-path="url(#p93609296cf)" d="M 223.330274 307.584 
L 225.246907 307.584 
L 225.246907 285.911968 
L 223.330274 285.911968 
z
" style="fill:#808080;"/>
   </g>
   <g id="patch_182">
    <path clip-path="url(#p93609296cf)" d="M 225.24691 307.584 
L 227.163543 307.584 
L 227.163543 307.584 
L 225.24691 307.584 
z
" style="fill:#808080;"/>
   </g>
   <g id="patch_183">
    <path clip-path="url(#p93609296cf)" d="M 227.163543 307.584 
L 229.080176 307.584 
L 229.080176 291.965289 
L 227.163543 291.965289 
z
" style="fill:#808080;"/>
   </g>
   <g id="patch_184">
    <path clip-path="url(#p93609296cf)" d="M 229.080182 307.584 
L 230.996815 307.584 
L 230.996815 307.584 
L 229.080182 307.584 
z
" style="fill:#808080;"/>
   </g>
   <g id="patch_185">
    <path clip-path="url(#p93609296cf)" d="M 230.996815 307.584 
L 232.913448 307.584 
L 232.913448 307.584 
L 230.996815 307.584 
z
" style="fill:#808080;"/>
   </g>
   <g id="patch_186">
    <path clip-path="url(#p93609296cf)" d="M 232.913448 307.584 
L 234.83008 307.584 
L 234.83008 307.584 
L 232.913448 307.584 
z
" style="fill:#808080;"/>
   </g>
   <g id="patch_187">
    <path clip-path="url(#p93609296cf)" d="M 234.830086 307.584 
L 236.746719 307.584 
L 236.746719 302.615708 
L 234.830086 302.615708 
z
" style="fill:#808080;"/>
   </g>
   <g id="patch_188">
    <path clip-path="url(#p93609296cf)" d="M 236.746719 307.584 
L 238.663352 307.584 
L 238.663352 305.742306 
L 236.746719 305.742306 
z
" style="fill:#808080;"/>
   </g>
   <g id="patch_189">
    <path clip-path="url(#p93609296cf)" d="M 238.663358 307.584 
L 240.579991 307.584 
L 240.579991 303.129669 
L 238.663358 303.129669 
z
" style="fill:#808080;"/>
   </g>
   <g id="patch_190">
    <path clip-path="url(#p93609296cf)" d="M 240.579991 307.584 
L 242.496623 307.584 
L 242.496623 307.584 
L 240.579991 307.584 
z
" style="fill:#808080;"/>
   </g>
   <g id="patch_191">
    <path clip-path="url(#p93609296cf)" d="M 242.496623 307.584 
L 244.413256 307.584 
L 244.413256 307.584 
L 242.496623 307.584 
z
" style="fill:#808080;"/>
   </g>
   <g id="patch_192">
    <path clip-path="url(#p93609296cf)" d="M 244.413262 307.584 
L 246.329895 307.584 
L 246.329895 307.584 
L 244.413262 307.584 
z
" style="fill:#808080;"/>
   </g>
   <g id="patch_193">
    <path clip-path="url(#p93609296cf)" d="M 246.329895 307.584 
L 248.246528 307.584 
L 248.246528 307.584 
L 246.329895 307.584 
z
" style="fill:#808080;"/>
   </g>
   <g id="patch_194">
    <path clip-path="url(#p93609296cf)" d="M 248.246534 307.584 
L 250.163167 307.584 
L 250.163167 306.513247 
L 248.246534 306.513247 
z
" style="fill:#808080;"/>
   </g>
   <g id="patch_195">
    <path clip-path="url(#p93609296cf)" d="M 250.163167 307.584 
L 252.079799 307.584 
L 252.079799 307.584 
L 250.163167 307.584 
z
" style="fill:#808080;"/>
   </g>
   <g id="patch_196">
    <path clip-path="url(#p93609296cf)" d="M 252.079794 307.584 
L 253.996438 307.584 
L 253.996438 306.927272 
L 252.079794 306.927272 
z
" style="fill:#808080;"/>
   </g>
   <g id="patch_197">
    <path clip-path="url(#p93609296cf)" d="M 253.996438 307.584 
L 255.913071 307.584 
L 255.913071 307.584 
L 253.996438 307.584 
z
" style="fill:#808080;"/>
   </g>
   <g id="patch_198">
    <path clip-path="url(#p93609296cf)" d="M 255.913071 307.584 
L 257.829704 307.584 
L 257.829704 307.584 
L 255.913071 307.584 
z
" style="fill:#808080;"/>
   </g>
   <g id="patch_199">
    <path clip-path="url(#p93609296cf)" d="M 257.829704 307.584 
L 259.746349 307.584 
L 259.746349 307.584 
L 257.829704 307.584 
z
" style="fill:#808080;"/>
   </g>
   <g id="patch_200">
    <path clip-path="url(#p93609296cf)" d="M 259.746343 307.584 
L 261.662975 307.584 
L 261.662975 307.45551 
L 259.746343 307.45551 
z
" style="fill:#808080;"/>
   </g>
   <g id="patch_201">
    <path clip-path="url(#p93609296cf)" d="M 261.66297 307.584 
L 263.579614 307.584 
L 263.579614 307.49834 
L 261.66297 307.49834 
z
" style="fill:#808080;"/>
   </g>
   <g id="patch_202">
    <path clip-path="url(#p93609296cf)" d="M 263.579614 307.584 
L 265.496247 307.584 
L 265.496247 307.426956 
L 263.579614 307.426956 
z
" style="fill:#808080;"/>
   </g>
   <g id="matplotlib.axis_1">
    <g id="xtick_1">
     <g id="line2d_1">
      <defs>
       <path d="M 0 0 
L 0 3.5 
" id="m6e576b121c" style="stroke:#000000;stroke-width:0.8;"/>
      </defs>
      <g>
       <use style="stroke:#000000;stroke-width:0.8;" x="120.770732" xlink:href="#m6e576b121c" y="307.584"/>
      </g>
     </g>
     <g id="text_1">
      <!-- −100 -->
      <defs>
       <path d="M 10.59375 35.5 
L 73.1875 35.5 
L 73.1875 27.203125 
L 10.59375 27.203125 
z
" id="DejaVuSans-8722"/>
       <path d="M 12.40625 8.296875 
L 28.515625 8.296875 
L 28.515625 63.921875 
L 10.984375 60.40625 
L 10.984375 69.390625 
L 28.421875 72.90625 
L 38.28125 72.90625 
L 38.28125 8.296875 
L 54.390625 8.296875 
L 54.390625 0 
L 12.40625 0 
z
" id="DejaVuSans-49"/>
       <path d="M 31.78125 66.40625 
Q 24.171875 66.40625 20.328125 58.90625 
Q 16.5 51.421875 16.5 36.375 
Q 16.5 21.390625 20.328125 13.890625 
Q 24.171875 6.390625 31.78125 6.390625 
Q 39.453125 6.390625 43.28125 13.890625 
Q 47.125 21.390625 47.125 36.375 
Q 47.125 51.421875 43.28125 58.90625 
Q 39.453125 66.40625 31.78125 66.40625 
z
M 31.78125 74.21875 
Q 44.046875 74.21875 50.515625 64.515625 
Q 56.984375 54.828125 56.984375 36.375 
Q 56.984375 17.96875 50.515625 8.265625 
Q 44.046875 -1.421875 31.78125 -1.421875 
Q 19.53125 -1.421875 13.0625 8.265625 
Q 6.59375 17.96875 6.59375 36.375 
Q 6.59375 54.828125 13.0625 64.515625 
Q 19.53125 74.21875 31.78125 74.21875 
z
" id="DejaVuSans-48"/>
      </defs>
      <g transform="translate(107.037138 322.182437)scale(0.1 -0.1)">
       <use xlink:href="#DejaVuSans-8722"/>
       <use x="83.789062" xlink:href="#DejaVuSans-49"/>
       <use x="147.412109" xlink:href="#DejaVuSans-48"/>
       <use x="211.035156" xlink:href="#DejaVuSans-48"/>
      </g>
     </g>
    </g>
    <g id="xtick_2">
     <g id="line2d_2">
      <g>
       <use style="stroke:#000000;stroke-width:0.8;" x="199.00074" xlink:href="#m6e576b121c" y="307.584"/>
      </g>
     </g>
     <g id="text_2">
      <!-- 0 -->
      <g transform="translate(195.81949 322.182437)scale(0.1 -0.1)">
       <use xlink:href="#DejaVuSans-48"/>
      </g>
     </g>
    </g>
    <g id="xtick_3">
     <g id="line2d_3">
      <g>
       <use style="stroke:#000000;stroke-width:0.8;" x="277.230748" xlink:href="#m6e576b121c" y="307.584"/>
      </g>
     </g>
     <g id="text_3">
      <!-- 100 -->
      <g transform="translate(267.686998 322.182437)scale(0.1 -0.1)">
       <use xlink:href="#DejaVuSans-49"/>
       <use x="63.623047" xlink:href="#DejaVuSans-48"/>
       <use x="127.246094" xlink:href="#DejaVuSans-48"/>
      </g>
     </g>
    </g>
    <g id="xtick_4">
     <g id="line2d_4">
      <g>
       <use style="stroke:#000000;stroke-width:0.8;" x="355.460756" xlink:href="#m6e576b121c" y="307.584"/>
      </g>
     </g>
     <g id="text_4">
      <!-- 200 -->
      <defs>
       <path d="M 19.1875 8.296875 
L 53.609375 8.296875 
L 53.609375 0 
L 7.328125 0 
L 7.328125 8.296875 
Q 12.9375 14.109375 22.625 23.890625 
Q 32.328125 33.6875 34.8125 36.53125 
Q 39.546875 41.84375 41.421875 45.53125 
Q 43.3125 49.21875 43.3125 52.78125 
Q 43.3125 58.59375 39.234375 62.25 
Q 35.15625 65.921875 28.609375 65.921875 
Q 23.96875 65.921875 18.8125 64.3125 
Q 13.671875 62.703125 7.8125 59.421875 
L 7.8125 69.390625 
Q 13.765625 71.78125 18.9375 73 
Q 24.125 74.21875 28.421875 74.21875 
Q 39.75 74.21875 46.484375 68.546875 
Q 53.21875 62.890625 53.21875 53.421875 
Q 53.21875 48.921875 51.53125 44.890625 
Q 49.859375 40.875 45.40625 35.40625 
Q 44.1875 33.984375 37.640625 27.21875 
Q 31.109375 20.453125 19.1875 8.296875 
z
" id="DejaVuSans-50"/>
      </defs>
      <g transform="translate(345.917006 322.182437)scale(0.1 -0.1)">
       <use xlink:href="#DejaVuSans-50"/>
       <use x="63.623047" xlink:href="#DejaVuSans-48"/>
       <use x="127.246094" xlink:href="#DejaVuSans-48"/>
      </g>
     </g>
    </g>
    <g id="text_5">
     <!-- Weight -->
     <defs>
      <path d="M 3.328125 72.90625 
L 13.28125 72.90625 
L 28.609375 11.28125 
L 43.890625 72.90625 
L 54.984375 72.90625 
L 70.3125 11.28125 
L 85.59375 72.90625 
L 95.609375 72.90625 
L 77.296875 0 
L 64.890625 0 
L 49.515625 63.28125 
L 33.984375 0 
L 21.578125 0 
z
" id="DejaVuSans-87"/>
      <path d="M 56.203125 29.59375 
L 56.203125 25.203125 
L 14.890625 25.203125 
Q 15.484375 15.921875 20.484375 11.0625 
Q 25.484375 6.203125 34.421875 6.203125 
Q 39.59375 6.203125 44.453125 7.46875 
Q 49.3125 8.734375 54.109375 11.28125 
L 54.109375 2.78125 
Q 49.265625 0.734375 44.1875 -0.34375 
Q 39.109375 -1.421875 33.890625 -1.421875 
Q 20.796875 -1.421875 13.15625 6.1875 
Q 5.515625 13.8125 5.515625 26.8125 
Q 5.515625 40.234375 12.765625 48.109375 
Q 20.015625 56 32.328125 56 
Q 43.359375 56 49.78125 48.890625 
Q 56.203125 41.796875 56.203125 29.59375 
z
M 47.21875 32.234375 
Q 47.125 39.59375 43.09375 43.984375 
Q 39.0625 48.390625 32.421875 48.390625 
Q 24.90625 48.390625 20.390625 44.140625 
Q 15.875 39.890625 15.1875 32.171875 
z
" id="DejaVuSans-101"/>
      <path d="M 9.421875 54.6875 
L 18.40625 54.6875 
L 18.40625 0 
L 9.421875 0 
z
M 9.421875 75.984375 
L 18.40625 75.984375 
L 18.40625 64.59375 
L 9.421875 64.59375 
z
" id="DejaVuSans-105"/>
      <path d="M 45.40625 27.984375 
Q 45.40625 37.75 41.375 43.109375 
Q 37.359375 48.484375 30.078125 48.484375 
Q 22.859375 48.484375 18.828125 43.109375 
Q 14.796875 37.75 14.796875 27.984375 
Q 14.796875 18.265625 18.828125 12.890625 
Q 22.859375 7.515625 30.078125 7.515625 
Q 37.359375 7.515625 41.375 12.890625 
Q 45.40625 18.265625 45.40625 27.984375 
z
M 54.390625 6.78125 
Q 54.390625 -7.171875 48.1875 -13.984375 
Q 42 -20.796875 29.203125 -20.796875 
Q 24.46875 -20.796875 20.265625 -20.09375 
Q 16.0625 -19.390625 12.109375 -17.921875 
L 12.109375 -9.1875 
Q 16.0625 -11.328125 19.921875 -12.34375 
Q 23.78125 -13.375 27.78125 -13.375 
Q 36.625 -13.375 41.015625 -8.765625 
Q 45.40625 -4.15625 45.40625 5.171875 
L 45.40625 9.625 
Q 42.625 4.78125 38.28125 2.390625 
Q 33.9375 0 27.875 0 
Q 17.828125 0 11.671875 7.65625 
Q 5.515625 15.328125 5.515625 27.984375 
Q 5.515625 40.671875 11.671875 48.328125 
Q 17.828125 56 27.875 56 
Q 33.9375 56 38.28125 53.609375 
Q 42.625 51.21875 45.40625 46.390625 
L 45.40625 54.6875 
L 54.390625 54.6875 
z
" id="DejaVuSans-103"/>
      <path d="M 54.890625 33.015625 
L 54.890625 0 
L 45.90625 0 
L 45.90625 32.71875 
Q 45.90625 40.484375 42.875 44.328125 
Q 39.84375 48.1875 33.796875 48.1875 
Q 26.515625 48.1875 22.3125 43.546875 
Q 18.109375 38.921875 18.109375 30.90625 
L 18.109375 0 
L 9.078125 0 
L 9.078125 75.984375 
L 18.109375 75.984375 
L 18.109375 46.1875 
Q 21.34375 51.125 25.703125 53.5625 
Q 30.078125 56 35.796875 56 
Q 45.21875 56 50.046875 50.171875 
Q 54.890625 44.34375 54.890625 33.015625 
z
" id="DejaVuSans-104"/>
      <path d="M 18.3125 70.21875 
L 18.3125 54.6875 
L 36.8125 54.6875 
L 36.8125 47.703125 
L 18.3125 47.703125 
L 18.3125 18.015625 
Q 18.3125 11.328125 20.140625 9.421875 
Q 21.96875 7.515625 27.59375 7.515625 
L 36.8125 7.515625 
L 36.8125 0 
L 27.59375 0 
Q 17.1875 0 13.234375 3.875 
Q 9.28125 7.765625 9.28125 18.015625 
L 9.28125 47.703125 
L 2.6875 47.703125 
L 2.6875 54.6875 
L 9.28125 54.6875 
L 9.28125 70.21875 
z
" id="DejaVuSans-116"/>
     </defs>
     <g transform="translate(218.451406 335.860562)scale(0.1 -0.1)">
      <use xlink:href="#DejaVuSans-87"/>
      <use x="98.798828" xlink:href="#DejaVuSans-101"/>
      <use x="160.322266" xlink:href="#DejaVuSans-105"/>
      <use x="188.105469" xlink:href="#DejaVuSans-103"/>
      <use x="251.582031" xlink:href="#DejaVuSans-104"/>
      <use x="314.960938" xlink:href="#DejaVuSans-116"/>
     </g>
    </g>
   </g>
   <g id="matplotlib.axis_2">
    <g id="ytick_1">
     <g id="line2d_5">
      <defs>
       <path d="M 0 0 
L -3.5 0 
" id="medd02d1814" style="stroke:#000000;stroke-width:0.8;"/>
      </defs>
      <g>
       <use style="stroke:#000000;stroke-width:0.8;" x="57.6" xlink:href="#medd02d1814" y="307.584"/>
      </g>
     </g>
     <g id="text_6">
      <!-- 0 -->
      <g transform="translate(44.2375 311.383219)scale(0.1 -0.1)">
       <use xlink:href="#DejaVuSans-48"/>
      </g>
     </g>
    </g>
    <g id="ytick_2">
     <g id="line2d_6">
      <g>
       <use style="stroke:#000000;stroke-width:0.8;" x="57.6" xlink:href="#medd02d1814" y="271.892247"/>
      </g>
     </g>
     <g id="text_7">
      <!-- 2500 -->
      <defs>
       <path d="M 10.796875 72.90625 
L 49.515625 72.90625 
L 49.515625 64.59375 
L 19.828125 64.59375 
L 19.828125 46.734375 
Q 21.96875 47.46875 24.109375 47.828125 
Q 26.265625 48.1875 28.421875 48.1875 
Q 40.625 48.1875 47.75 41.5 
Q 54.890625 34.8125 54.890625 23.390625 
Q 54.890625 11.625 47.5625 5.09375 
Q 40.234375 -1.421875 26.90625 -1.421875 
Q 22.3125 -1.421875 17.546875 -0.640625 
Q 12.796875 0.140625 7.71875 1.703125 
L 7.71875 11.625 
Q 12.109375 9.234375 16.796875 8.0625 
Q 21.484375 6.890625 26.703125 6.890625 
Q 35.15625 6.890625 40.078125 11.328125 
Q 45.015625 15.765625 45.015625 23.390625 
Q 45.015625 31 40.078125 35.4375 
Q 35.15625 39.890625 26.703125 39.890625 
Q 22.75 39.890625 18.8125 39.015625 
Q 14.890625 38.140625 10.796875 36.28125 
z
" id="DejaVuSans-53"/>
      </defs>
      <g transform="translate(25.15 275.691466)scale(0.1 -0.1)">
       <use xlink:href="#DejaVuSans-50"/>
       <use x="63.623047" xlink:href="#DejaVuSans-53"/>
       <use x="127.246094" xlink:href="#DejaVuSans-48"/>
       <use x="190.869141" xlink:href="#DejaVuSans-48"/>
      </g>
     </g>
    </g>
    <g id="ytick_3">
     <g id="line2d_7">
      <g>
       <use style="stroke:#000000;stroke-width:0.8;" x="57.6" xlink:href="#medd02d1814" y="236.200494"/>
      </g>
     </g>
     <g id="text_8">
      <!-- 5000 -->
      <g transform="translate(25.15 239.999713)scale(0.1 -0.1)">
       <use xlink:href="#DejaVuSans-53"/>
       <use x="63.623047" xlink:href="#DejaVuSans-48"/>
       <use x="127.246094" xlink:href="#DejaVuSans-48"/>
       <use x="190.869141" xlink:href="#DejaVuSans-48"/>
      </g>
     </g>
    </g>
    <g id="ytick_4">
     <g id="line2d_8">
      <g>
       <use style="stroke:#000000;stroke-width:0.8;" x="57.6" xlink:href="#medd02d1814" y="200.508741"/>
      </g>
     </g>
     <g id="text_9">
      <!-- 7500 -->
      <defs>
       <path d="M 8.203125 72.90625 
L 55.078125 72.90625 
L 55.078125 68.703125 
L 28.609375 0 
L 18.3125 0 
L 43.21875 64.59375 
L 8.203125 64.59375 
z
" id="DejaVuSans-55"/>
      </defs>
      <g transform="translate(25.15 204.30796)scale(0.1 -0.1)">
       <use xlink:href="#DejaVuSans-55"/>
       <use x="63.623047" xlink:href="#DejaVuSans-53"/>
       <use x="127.246094" xlink:href="#DejaVuSans-48"/>
       <use x="190.869141" xlink:href="#DejaVuSans-48"/>
      </g>
     </g>
    </g>
    <g id="ytick_5">
     <g id="line2d_9">
      <g>
       <use style="stroke:#000000;stroke-width:0.8;" x="57.6" xlink:href="#medd02d1814" y="164.816988"/>
      </g>
     </g>
     <g id="text_10">
      <!-- 10000 -->
      <g transform="translate(18.7875 168.616207)scale(0.1 -0.1)">
       <use xlink:href="#DejaVuSans-49"/>
       <use x="63.623047" xlink:href="#DejaVuSans-48"/>
       <use x="127.246094" xlink:href="#DejaVuSans-48"/>
       <use x="190.869141" xlink:href="#DejaVuSans-48"/>
       <use x="254.492188" xlink:href="#DejaVuSans-48"/>
      </g>
     </g>
    </g>
    <g id="ytick_6">
     <g id="line2d_10">
      <g>
       <use style="stroke:#000000;stroke-width:0.8;" x="57.6" xlink:href="#medd02d1814" y="129.125235"/>
      </g>
     </g>
     <g id="text_11">
      <!-- 12500 -->
      <g transform="translate(18.7875 132.924454)scale(0.1 -0.1)">
       <use xlink:href="#DejaVuSans-49"/>
       <use x="63.623047" xlink:href="#DejaVuSans-50"/>
       <use x="127.246094" xlink:href="#DejaVuSans-53"/>
       <use x="190.869141" xlink:href="#DejaVuSans-48"/>
       <use x="254.492188" xlink:href="#DejaVuSans-48"/>
      </g>
     </g>
    </g>
    <g id="ytick_7">
     <g id="line2d_11">
      <g>
       <use style="stroke:#000000;stroke-width:0.8;" x="57.6" xlink:href="#medd02d1814" y="93.433482"/>
      </g>
     </g>
     <g id="text_12">
      <!-- 15000 -->
      <g transform="translate(18.7875 97.2327)scale(0.1 -0.1)">
       <use xlink:href="#DejaVuSans-49"/>
       <use x="63.623047" xlink:href="#DejaVuSans-53"/>
       <use x="127.246094" xlink:href="#DejaVuSans-48"/>
       <use x="190.869141" xlink:href="#DejaVuSans-48"/>
       <use x="254.492188" xlink:href="#DejaVuSans-48"/>
      </g>
     </g>
    </g>
    <g id="ytick_8">
     <g id="line2d_12">
      <g>
       <use style="stroke:#000000;stroke-width:0.8;" x="57.6" xlink:href="#medd02d1814" y="57.741729"/>
      </g>
     </g>
     <g id="text_13">
      <!-- 17500 -->
      <g transform="translate(18.7875 61.540947)scale(0.1 -0.1)">
       <use xlink:href="#DejaVuSans-49"/>
       <use x="63.623047" xlink:href="#DejaVuSans-55"/>
       <use x="127.246094" xlink:href="#DejaVuSans-53"/>
       <use x="190.869141" xlink:href="#DejaVuSans-48"/>
       <use x="254.492188" xlink:href="#DejaVuSans-48"/>
      </g>
     </g>
    </g>
    <g id="text_14">
     <!-- Occurrencies -->
     <defs>
      <path d="M 39.40625 66.21875 
Q 28.65625 66.21875 22.328125 58.203125 
Q 16.015625 50.203125 16.015625 36.375 
Q 16.015625 22.609375 22.328125 14.59375 
Q 28.65625 6.59375 39.40625 6.59375 
Q 50.140625 6.59375 56.421875 14.59375 
Q 62.703125 22.609375 62.703125 36.375 
Q 62.703125 50.203125 56.421875 58.203125 
Q 50.140625 66.21875 39.40625 66.21875 
z
M 39.40625 74.21875 
Q 54.734375 74.21875 63.90625 63.9375 
Q 73.09375 53.65625 73.09375 36.375 
Q 73.09375 19.140625 63.90625 8.859375 
Q 54.734375 -1.421875 39.40625 -1.421875 
Q 24.03125 -1.421875 14.8125 8.828125 
Q 5.609375 19.09375 5.609375 36.375 
Q 5.609375 53.65625 14.8125 63.9375 
Q 24.03125 74.21875 39.40625 74.21875 
z
" id="DejaVuSans-79"/>
      <path d="M 48.78125 52.59375 
L 48.78125 44.1875 
Q 44.96875 46.296875 41.140625 47.34375 
Q 37.3125 48.390625 33.40625 48.390625 
Q 24.65625 48.390625 19.8125 42.84375 
Q 14.984375 37.3125 14.984375 27.296875 
Q 14.984375 17.28125 19.8125 11.734375 
Q 24.65625 6.203125 33.40625 6.203125 
Q 37.3125 6.203125 41.140625 7.25 
Q 44.96875 8.296875 48.78125 10.40625 
L 48.78125 2.09375 
Q 45.015625 0.34375 40.984375 -0.53125 
Q 36.96875 -1.421875 32.421875 -1.421875 
Q 20.0625 -1.421875 12.78125 6.34375 
Q 5.515625 14.109375 5.515625 27.296875 
Q 5.515625 40.671875 12.859375 48.328125 
Q 20.21875 56 33.015625 56 
Q 37.15625 56 41.109375 55.140625 
Q 45.0625 54.296875 48.78125 52.59375 
z
" id="DejaVuSans-99"/>
      <path d="M 8.5 21.578125 
L 8.5 54.6875 
L 17.484375 54.6875 
L 17.484375 21.921875 
Q 17.484375 14.15625 20.5 10.265625 
Q 23.53125 6.390625 29.59375 6.390625 
Q 36.859375 6.390625 41.078125 11.03125 
Q 45.3125 15.671875 45.3125 23.6875 
L 45.3125 54.6875 
L 54.296875 54.6875 
L 54.296875 0 
L 45.3125 0 
L 45.3125 8.40625 
Q 42.046875 3.421875 37.71875 1 
Q 33.40625 -1.421875 27.6875 -1.421875 
Q 18.265625 -1.421875 13.375 4.4375 
Q 8.5 10.296875 8.5 21.578125 
z
M 31.109375 56 
z
" id="DejaVuSans-117"/>
      <path d="M 41.109375 46.296875 
Q 39.59375 47.171875 37.8125 47.578125 
Q 36.03125 48 33.890625 48 
Q 26.265625 48 22.1875 43.046875 
Q 18.109375 38.09375 18.109375 28.8125 
L 18.109375 0 
L 9.078125 0 
L 9.078125 54.6875 
L 18.109375 54.6875 
L 18.109375 46.1875 
Q 20.953125 51.171875 25.484375 53.578125 
Q 30.03125 56 36.53125 56 
Q 37.453125 56 38.578125 55.875 
Q 39.703125 55.765625 41.0625 55.515625 
z
" id="DejaVuSans-114"/>
      <path d="M 54.890625 33.015625 
L 54.890625 0 
L 45.90625 0 
L 45.90625 32.71875 
Q 45.90625 40.484375 42.875 44.328125 
Q 39.84375 48.1875 33.796875 48.1875 
Q 26.515625 48.1875 22.3125 43.546875 
Q 18.109375 38.921875 18.109375 30.90625 
L 18.109375 0 
L 9.078125 0 
L 9.078125 54.6875 
L 18.109375 54.6875 
L 18.109375 46.1875 
Q 21.34375 51.125 25.703125 53.5625 
Q 30.078125 56 35.796875 56 
Q 45.21875 56 50.046875 50.171875 
Q 54.890625 44.34375 54.890625 33.015625 
z
" id="DejaVuSans-110"/>
      <path d="M 44.28125 53.078125 
L 44.28125 44.578125 
Q 40.484375 46.53125 36.375 47.5 
Q 32.28125 48.484375 27.875 48.484375 
Q 21.1875 48.484375 17.84375 46.4375 
Q 14.5 44.390625 14.5 40.28125 
Q 14.5 37.15625 16.890625 35.375 
Q 19.28125 33.59375 26.515625 31.984375 
L 29.59375 31.296875 
Q 39.15625 29.25 43.1875 25.515625 
Q 47.21875 21.78125 47.21875 15.09375 
Q 47.21875 7.46875 41.1875 3.015625 
Q 35.15625 -1.421875 24.609375 -1.421875 
Q 20.21875 -1.421875 15.453125 -0.5625 
Q 10.6875 0.296875 5.421875 2 
L 5.421875 11.28125 
Q 10.40625 8.6875 15.234375 7.390625 
Q 20.0625 6.109375 24.8125 6.109375 
Q 31.15625 6.109375 34.5625 8.28125 
Q 37.984375 10.453125 37.984375 14.40625 
Q 37.984375 18.0625 35.515625 20.015625 
Q 33.0625 21.96875 24.703125 23.78125 
L 21.578125 24.515625 
Q 13.234375 26.265625 9.515625 29.90625 
Q 5.8125 33.546875 5.8125 39.890625 
Q 5.8125 47.609375 11.28125 51.796875 
Q 16.75 56 26.8125 56 
Q 31.78125 56 36.171875 55.265625 
Q 40.578125 54.546875 44.28125 53.078125 
z
" id="DejaVuSans-115"/>
     </defs>
     <g transform="translate(12.707812 207.304563)rotate(-90)scale(0.1 -0.1)">
      <use xlink:href="#DejaVuSans-79"/>
      <use x="78.710938" xlink:href="#DejaVuSans-99"/>
      <use x="133.691406" xlink:href="#DejaVuSans-99"/>
      <use x="188.671875" xlink:href="#DejaVuSans-117"/>
      <use x="252.050781" xlink:href="#DejaVuSans-114"/>
      <use x="293.148438" xlink:href="#DejaVuSans-114"/>
      <use x="334.230469" xlink:href="#DejaVuSans-101"/>
      <use x="395.753906" xlink:href="#DejaVuSans-110"/>
      <use x="459.132812" xlink:href="#DejaVuSans-99"/>
      <use x="514.113281" xlink:href="#DejaVuSans-105"/>
      <use x="541.896484" xlink:href="#DejaVuSans-101"/>
      <use x="603.419922" xlink:href="#DejaVuSans-115"/>
     </g>
    </g>
   </g>
   <g id="patch_203">
    <path d="M 57.6 307.584 
L 57.6 41.472 
" style="fill:none;stroke:#000000;stroke-linecap:square;stroke-linejoin:miter;stroke-width:0.8;"/>
   </g>
   <g id="patch_204">
    <path d="M 414.72 307.584 
L 414.72 41.472 
" style="fill:none;stroke:#000000;stroke-linecap:square;stroke-linejoin:miter;stroke-width:0.8;"/>
   </g>
   <g id="patch_205">
    <path d="M 57.6 307.584 
L 414.72 307.584 
" style="fill:none;stroke:#000000;stroke-linecap:square;stroke-linejoin:miter;stroke-width:0.8;"/>
   </g>
   <g id="patch_206">
    <path d="M 57.6 41.472 
L 414.72 41.472 
" style="fill:none;stroke:#000000;stroke-linecap:square;stroke-linejoin:miter;stroke-width:0.8;"/>
   </g>
   <g id="text_15">
    <!-- Histogram of fc1 -->
    <defs>
     <path d="M 9.8125 72.90625 
L 19.671875 72.90625 
L 19.671875 43.015625 
L 55.515625 43.015625 
L 55.515625 72.90625 
L 65.375 72.90625 
L 65.375 0 
L 55.515625 0 
L 55.515625 34.71875 
L 19.671875 34.71875 
L 19.671875 0 
L 9.8125 0 
z
" id="DejaVuSans-72"/>
     <path d="M 30.609375 48.390625 
Q 23.390625 48.390625 19.1875 42.75 
Q 14.984375 37.109375 14.984375 27.296875 
Q 14.984375 17.484375 19.15625 11.84375 
Q 23.34375 6.203125 30.609375 6.203125 
Q 37.796875 6.203125 41.984375 11.859375 
Q 46.1875 17.53125 46.1875 27.296875 
Q 46.1875 37.015625 41.984375 42.703125 
Q 37.796875 48.390625 30.609375 48.390625 
z
M 30.609375 56 
Q 42.328125 56 49.015625 48.375 
Q 55.71875 40.765625 55.71875 27.296875 
Q 55.71875 13.875 49.015625 6.21875 
Q 42.328125 -1.421875 30.609375 -1.421875 
Q 18.84375 -1.421875 12.171875 6.21875 
Q 5.515625 13.875 5.515625 27.296875 
Q 5.515625 40.765625 12.171875 48.375 
Q 18.84375 56 30.609375 56 
z
" id="DejaVuSans-111"/>
     <path d="M 34.28125 27.484375 
Q 23.390625 27.484375 19.1875 25 
Q 14.984375 22.515625 14.984375 16.5 
Q 14.984375 11.71875 18.140625 8.90625 
Q 21.296875 6.109375 26.703125 6.109375 
Q 34.1875 6.109375 38.703125 11.40625 
Q 43.21875 16.703125 43.21875 25.484375 
L 43.21875 27.484375 
z
M 52.203125 31.203125 
L 52.203125 0 
L 43.21875 0 
L 43.21875 8.296875 
Q 40.140625 3.328125 35.546875 0.953125 
Q 30.953125 -1.421875 24.3125 -1.421875 
Q 15.921875 -1.421875 10.953125 3.296875 
Q 6 8.015625 6 15.921875 
Q 6 25.140625 12.171875 29.828125 
Q 18.359375 34.515625 30.609375 34.515625 
L 43.21875 34.515625 
L 43.21875 35.40625 
Q 43.21875 41.609375 39.140625 45 
Q 35.0625 48.390625 27.6875 48.390625 
Q 23 48.390625 18.546875 47.265625 
Q 14.109375 46.140625 10.015625 43.890625 
L 10.015625 52.203125 
Q 14.9375 54.109375 19.578125 55.046875 
Q 24.21875 56 28.609375 56 
Q 40.484375 56 46.34375 49.84375 
Q 52.203125 43.703125 52.203125 31.203125 
z
" id="DejaVuSans-97"/>
     <path d="M 52 44.1875 
Q 55.375 50.25 60.0625 53.125 
Q 64.75 56 71.09375 56 
Q 79.640625 56 84.28125 50.015625 
Q 88.921875 44.046875 88.921875 33.015625 
L 88.921875 0 
L 79.890625 0 
L 79.890625 32.71875 
Q 79.890625 40.578125 77.09375 44.375 
Q 74.3125 48.1875 68.609375 48.1875 
Q 61.625 48.1875 57.5625 43.546875 
Q 53.515625 38.921875 53.515625 30.90625 
L 53.515625 0 
L 44.484375 0 
L 44.484375 32.71875 
Q 44.484375 40.625 41.703125 44.40625 
Q 38.921875 48.1875 33.109375 48.1875 
Q 26.21875 48.1875 22.15625 43.53125 
Q 18.109375 38.875 18.109375 30.90625 
L 18.109375 0 
L 9.078125 0 
L 9.078125 54.6875 
L 18.109375 54.6875 
L 18.109375 46.1875 
Q 21.1875 51.21875 25.484375 53.609375 
Q 29.78125 56 35.6875 56 
Q 41.65625 56 45.828125 52.96875 
Q 50 49.953125 52 44.1875 
z
" id="DejaVuSans-109"/>
     <path id="DejaVuSans-32"/>
     <path d="M 37.109375 75.984375 
L 37.109375 68.5 
L 28.515625 68.5 
Q 23.6875 68.5 21.796875 66.546875 
Q 19.921875 64.59375 19.921875 59.515625 
L 19.921875 54.6875 
L 34.71875 54.6875 
L 34.71875 47.703125 
L 19.921875 47.703125 
L 19.921875 0 
L 10.890625 0 
L 10.890625 47.703125 
L 2.296875 47.703125 
L 2.296875 54.6875 
L 10.890625 54.6875 
L 10.890625 58.5 
Q 10.890625 67.625 15.140625 71.796875 
Q 19.390625 75.984375 28.609375 75.984375 
z
" id="DejaVuSans-102"/>
    </defs>
    <g transform="translate(186.209063 35.472)scale(0.12 -0.12)">
     <use xlink:href="#DejaVuSans-72"/>
     <use x="75.195312" xlink:href="#DejaVuSans-105"/>
     <use x="102.978516" xlink:href="#DejaVuSans-115"/>
     <use x="155.078125" xlink:href="#DejaVuSans-116"/>
     <use x="194.287109" xlink:href="#DejaVuSans-111"/>
     <use x="255.46875" xlink:href="#DejaVuSans-103"/>
     <use x="318.945312" xlink:href="#DejaVuSans-114"/>
     <use x="360.058594" xlink:href="#DejaVuSans-97"/>
     <use x="421.337891" xlink:href="#DejaVuSans-109"/>
     <use x="518.75" xlink:href="#DejaVuSans-32"/>
     <use x="550.537109" xlink:href="#DejaVuSans-111"/>
     <use x="611.71875" xlink:href="#DejaVuSans-102"/>
     <use x="646.923828" xlink:href="#DejaVuSans-32"/>
     <use x="678.710938" xlink:href="#DejaVuSans-102"/>
     <use x="713.916016" xlink:href="#DejaVuSans-99"/>
     <use x="768.896484" xlink:href="#DejaVuSans-49"/>
    </g>
   </g>
   <g id="legend_1">
    <g id="patch_207">
     <path d="M 323.679375 78.82825 
L 407.72 78.82825 
Q 409.72 78.82825 409.72 76.82825 
L 409.72 48.472 
Q 409.72 46.472 407.72 46.472 
L 323.679375 46.472 
Q 321.679375 46.472 321.679375 48.472 
L 321.679375 76.82825 
Q 321.679375 78.82825 323.679375 78.82825 
z
" style="fill:#ffffff;opacity:0.8;stroke:#cccccc;stroke-linejoin:miter;"/>
    </g>
    <g id="patch_208">
     <path d="M 325.679375 58.070437 
L 345.679375 58.070437 
L 345.679375 51.070437 
L 325.679375 51.070437 
z
" style="fill:#0000ff;"/>
    </g>
    <g id="text_16">
     <!-- unmasked -->
     <defs>
      <path d="M 9.078125 75.984375 
L 18.109375 75.984375 
L 18.109375 31.109375 
L 44.921875 54.6875 
L 56.390625 54.6875 
L 27.390625 29.109375 
L 57.625 0 
L 45.90625 0 
L 18.109375 26.703125 
L 18.109375 0 
L 9.078125 0 
z
" id="DejaVuSans-107"/>
      <path d="M 45.40625 46.390625 
L 45.40625 75.984375 
L 54.390625 75.984375 
L 54.390625 0 
L 45.40625 0 
L 45.40625 8.203125 
Q 42.578125 3.328125 38.25 0.953125 
Q 33.9375 -1.421875 27.875 -1.421875 
Q 17.96875 -1.421875 11.734375 6.484375 
Q 5.515625 14.40625 5.515625 27.296875 
Q 5.515625 40.1875 11.734375 48.09375 
Q 17.96875 56 27.875 56 
Q 33.9375 56 38.25 53.625 
Q 42.578125 51.265625 45.40625 46.390625 
z
M 14.796875 27.296875 
Q 14.796875 17.390625 18.875 11.75 
Q 22.953125 6.109375 30.078125 6.109375 
Q 37.203125 6.109375 41.296875 11.75 
Q 45.40625 17.390625 45.40625 27.296875 
Q 45.40625 37.203125 41.296875 42.84375 
Q 37.203125 48.484375 30.078125 48.484375 
Q 22.953125 48.484375 18.875 42.84375 
Q 14.796875 37.203125 14.796875 27.296875 
z
" id="DejaVuSans-100"/>
     </defs>
     <g transform="translate(353.679375 58.070437)scale(0.1 -0.1)">
      <use xlink:href="#DejaVuSans-117"/>
      <use x="63.378906" xlink:href="#DejaVuSans-110"/>
      <use x="126.757812" xlink:href="#DejaVuSans-109"/>
      <use x="224.169922" xlink:href="#DejaVuSans-97"/>
      <use x="285.449219" xlink:href="#DejaVuSans-115"/>
      <use x="337.548828" xlink:href="#DejaVuSans-107"/>
      <use x="395.412109" xlink:href="#DejaVuSans-101"/>
      <use x="456.935547" xlink:href="#DejaVuSans-100"/>
     </g>
    </g>
    <g id="patch_209">
     <path d="M 325.679375 72.748562 
L 345.679375 72.748562 
L 345.679375 65.748562 
L 325.679375 65.748562 
z
" style="fill:#808080;"/>
    </g>
    <g id="text_17">
     <!-- masked -->
     <g transform="translate(353.679375 72.748562)scale(0.1 -0.1)">
      <use xlink:href="#DejaVuSans-109"/>
      <use x="97.412109" xlink:href="#DejaVuSans-97"/>
      <use x="158.691406" xlink:href="#DejaVuSans-115"/>
      <use x="210.791016" xlink:href="#DejaVuSans-107"/>
      <use x="268.654297" xlink:href="#DejaVuSans-101"/>
      <use x="330.177734" xlink:href="#DejaVuSans-100"/>
     </g>
    </g>
   </g>
  </g>
 </g>
 <defs>
  <clipPath id="p93609296cf">
   <rect height="266.112" width="357.12" x="57.6" y="41.472"/>
  </clipPath>
 </defs>
</svg>
