<?xml version="1.0" encoding="utf-8" standalone="no"?>
<!DOCTYPE svg PUBLIC "-//W3C//DTD SVG 1.1//EN"
  "http://www.w3.org/Graphics/SVG/1.1/DTD/svg11.dtd">
<!-- Created with matplotlib (https://matplotlib.org/) -->
<svg height="345.6pt" version="1.1" viewBox="0 0 460.8 345.6" width="460.8pt" xmlns="http://www.w3.org/2000/svg" xmlns:xlink="http://www.w3.org/1999/xlink">
 <defs>
  <style type="text/css">
*{stroke-linecap:butt;stroke-linejoin:round;}
  </style>
 </defs>
 <g id="figure_1">
  <g id="patch_1">
   <path d="M 0 345.6 
L 460.8 345.6 
L 460.8 0 
L 0 0 
z
" style="fill:#ffffff;"/>
  </g>
  <g id="axes_1">
   <g id="patch_2">
    <path d="M 57.6 307.584 
L 414.72 307.584 
L 414.72 41.472 
L 57.6 41.472 
z
" style="fill:#ffffff;"/>
   </g>
   <g id="patch_3">
    <path clip-path="url(#p6c7ea561d3)" d="M 87.258291 307.584 
L 90.37058 307.584 
L 90.37058 307.382163 
L 87.258291 307.382163 
z
" style="fill:#0000ff;"/>
   </g>
   <g id="patch_4">
    <path clip-path="url(#p6c7ea561d3)" d="M 90.37058 307.584 
L 93.482869 307.584 
L 93.482869 307.516721 
L 90.37058 307.516721 
z
" style="fill:#0000ff;"/>
   </g>
   <g id="patch_5">
    <path clip-path="url(#p6c7ea561d3)" d="M 93.48287 307.584 
L 96.595159 307.584 
L 96.595159 307.584 
L 93.48287 307.584 
z
" style="fill:#0000ff;"/>
   </g>
   <g id="patch_6">
    <path clip-path="url(#p6c7ea561d3)" d="M 96.59516 307.584 
L 99.70745 307.584 
L 99.70745 307.516721 
L 96.59516 307.516721 
z
" style="fill:#0000ff;"/>
   </g>
   <g id="patch_7">
    <path clip-path="url(#p6c7ea561d3)" d="M 99.70745 307.584 
L 102.81974 307.584 
L 102.81974 307.584 
L 99.70745 307.584 
z
" style="fill:#0000ff;"/>
   </g>
   <g id="patch_8">
    <path clip-path="url(#p6c7ea561d3)" d="M 102.819739 307.584 
L 105.932028 307.584 
L 105.932028 307.516721 
L 102.819739 307.516721 
z
" style="fill:#0000ff;"/>
   </g>
   <g id="patch_9">
    <path clip-path="url(#p6c7ea561d3)" d="M 105.93203 307.584 
L 109.044321 307.584 
L 109.044321 307.449442 
L 105.93203 307.449442 
z
" style="fill:#0000ff;"/>
   </g>
   <g id="patch_10">
    <path clip-path="url(#p6c7ea561d3)" d="M 109.044318 307.584 
L 112.156607 307.584 
L 112.156607 307.247605 
L 109.044318 307.247605 
z
" style="fill:#0000ff;"/>
   </g>
   <g id="patch_11">
    <path clip-path="url(#p6c7ea561d3)" d="M 112.156605 307.584 
L 115.268896 307.584 
L 115.268896 307.382163 
L 112.156605 307.382163 
z
" style="fill:#0000ff;"/>
   </g>
   <g id="patch_12">
    <path clip-path="url(#p6c7ea561d3)" d="M 115.268898 307.584 
L 118.381187 307.584 
L 118.381187 307.516721 
L 115.268898 307.516721 
z
" style="fill:#0000ff;"/>
   </g>
   <g id="patch_13">
    <path clip-path="url(#p6c7ea561d3)" d="M 118.381187 307.584 
L 121.493475 307.584 
L 121.493475 307.180326 
L 118.381187 307.180326 
z
" style="fill:#0000ff;"/>
   </g>
   <g id="patch_14">
    <path clip-path="url(#p6c7ea561d3)" d="M 121.493475 307.584 
L 124.605767 307.584 
L 124.605767 307.382163 
L 121.493475 307.382163 
z
" style="fill:#0000ff;"/>
   </g>
   <g id="patch_15">
    <path clip-path="url(#p6c7ea561d3)" d="M 124.605764 307.584 
L 127.718058 307.584 
L 127.718058 307.314884 
L 124.605764 307.314884 
z
" style="fill:#0000ff;"/>
   </g>
   <g id="patch_16">
    <path clip-path="url(#p6c7ea561d3)" d="M 127.718058 307.584 
L 130.830346 307.584 
L 130.830346 307.180326 
L 127.718058 307.180326 
z
" style="fill:#0000ff;"/>
   </g>
   <g id="patch_17">
    <path clip-path="url(#p6c7ea561d3)" d="M 130.830342 307.584 
L 133.94263 307.584 
L 133.94263 306.776652 
L 130.830342 306.776652 
z
" style="fill:#0000ff;"/>
   </g>
   <g id="patch_18">
    <path clip-path="url(#p6c7ea561d3)" d="M 133.942635 307.584 
L 137.054924 307.584 
L 137.054924 307.045768 
L 133.942635 307.045768 
z
" style="fill:#0000ff;"/>
   </g>
   <g id="patch_19">
    <path clip-path="url(#p6c7ea561d3)" d="M 137.054919 307.584 
L 140.167208 307.584 
L 140.167208 306.91121 
L 137.054919 306.91121 
z
" style="fill:#0000ff;"/>
   </g>
   <g id="patch_20">
    <path clip-path="url(#p6c7ea561d3)" d="M 140.167212 307.584 
L 143.279506 307.584 
L 143.279506 307.247605 
L 140.167212 307.247605 
z
" style="fill:#0000ff;"/>
   </g>
   <g id="patch_21">
    <path clip-path="url(#p6c7ea561d3)" d="M 143.279506 307.584 
L 146.391794 307.584 
L 146.391794 306.642094 
L 143.279506 306.642094 
z
" style="fill:#0000ff;"/>
   </g>
   <g id="patch_22">
    <path clip-path="url(#p6c7ea561d3)" d="M 146.39179 307.584 
L 149.504078 307.584 
L 149.504078 306.843931 
L 146.39179 306.843931 
z
" style="fill:#0000ff;"/>
   </g>
   <g id="patch_23">
    <path clip-path="url(#p6c7ea561d3)" d="M 149.504083 307.584 
L 152.616372 307.584 
L 152.616372 306.642094 
L 149.504083 306.642094 
z
" style="fill:#0000ff;"/>
   </g>
   <g id="patch_24">
    <path clip-path="url(#p6c7ea561d3)" d="M 152.616367 307.584 
L 155.728656 307.584 
L 155.728656 305.56563 
L 152.616367 305.56563 
z
" style="fill:#0000ff;"/>
   </g>
   <g id="patch_25">
    <path clip-path="url(#p6c7ea561d3)" d="M 155.728661 307.584 
L 158.840954 307.584 
L 158.840954 306.23842 
L 155.728661 306.23842 
z
" style="fill:#0000ff;"/>
   </g>
   <g id="patch_26">
    <path clip-path="url(#p6c7ea561d3)" d="M 158.840954 307.584 
L 161.953243 307.584 
L 161.953243 305.700188 
L 158.840954 305.700188 
z
" style="fill:#0000ff;"/>
   </g>
   <g id="patch_27">
    <path clip-path="url(#p6c7ea561d3)" d="M 161.953238 307.584 
L 165.065527 307.584 
L 165.065527 306.23842 
L 161.953238 306.23842 
z
" style="fill:#0000ff;"/>
   </g>
   <g id="patch_28">
    <path clip-path="url(#p6c7ea561d3)" d="M 165.065531 307.584 
L 168.177825 307.584 
L 168.177825 305.632909 
L 165.065531 305.632909 
z
" style="fill:#0000ff;"/>
   </g>
   <g id="patch_29">
    <path clip-path="url(#p6c7ea561d3)" d="M 168.177825 307.584 
L 171.290109 307.584 
L 171.290109 305.834746 
L 168.177825 305.834746 
z
" style="fill:#0000ff;"/>
   </g>
   <g id="patch_30">
    <path clip-path="url(#p6c7ea561d3)" d="M 171.290109 307.584 
L 174.402402 307.584 
L 174.402402 304.758282 
L 171.290109 304.758282 
z
" style="fill:#0000ff;"/>
   </g>
   <g id="patch_31">
    <path clip-path="url(#p6c7ea561d3)" d="M 174.402411 307.584 
L 177.514695 307.584 
L 177.514695 305.969304 
L 174.402411 305.969304 
z
" style="fill:#0000ff;"/>
   </g>
   <g id="patch_32">
    <path clip-path="url(#p6c7ea561d3)" d="M 177.514686 307.584 
L 180.62698 307.584 
L 180.62698 303.883655 
L 177.514686 303.883655 
z
" style="fill:#0000ff;"/>
   </g>
   <g id="patch_33">
    <path clip-path="url(#p6c7ea561d3)" d="M 180.62698 307.584 
L 183.739273 307.584 
L 183.739273 304.22005 
L 180.62698 304.22005 
z
" style="fill:#0000ff;"/>
   </g>
   <g id="patch_34">
    <path clip-path="url(#p6c7ea561d3)" d="M 183.739273 307.584 
L 186.851557 307.584 
L 186.851557 303.950934 
L 183.739273 303.950934 
z
" style="fill:#0000ff;"/>
   </g>
   <g id="patch_35">
    <path clip-path="url(#p6c7ea561d3)" d="M 186.851557 307.584 
L 189.96385 307.584 
L 189.96385 302.739912 
L 186.851557 302.739912 
z
" style="fill:#0000ff;"/>
   </g>
   <g id="patch_36">
    <path clip-path="url(#p6c7ea561d3)" d="M 189.96386 307.584 
L 193.076144 307.584 
L 193.076144 304.085492 
L 189.96386 304.085492 
z
" style="fill:#0000ff;"/>
   </g>
   <g id="patch_37">
    <path clip-path="url(#p6c7ea561d3)" d="M 193.076134 307.584 
L 196.188428 307.584 
L 196.188428 300.990658 
L 193.076134 300.990658 
z
" style="fill:#0000ff;"/>
   </g>
   <g id="patch_38">
    <path clip-path="url(#p6c7ea561d3)" d="M 196.188428 307.584 
L 199.300721 307.584 
L 199.300721 302.807191 
L 196.188428 302.807191 
z
" style="fill:#0000ff;"/>
   </g>
   <g id="patch_39">
    <path clip-path="url(#p6c7ea561d3)" d="M 199.300721 307.584 
L 202.413005 307.584 
L 202.413005 299.308683 
L 199.300721 299.308683 
z
" style="fill:#0000ff;"/>
   </g>
   <g id="patch_40">
    <path clip-path="url(#p6c7ea561d3)" d="M 202.413005 307.584 
L 205.525298 307.584 
L 205.525298 301.932564 
L 202.413005 301.932564 
z
" style="fill:#0000ff;"/>
   </g>
   <g id="patch_41">
    <path clip-path="url(#p6c7ea561d3)" d="M 205.525308 307.584 
L 208.637592 307.584 
L 208.637592 298.232219 
L 205.525308 298.232219 
z
" style="fill:#0000ff;"/>
   </g>
   <g id="patch_42">
    <path clip-path="url(#p6c7ea561d3)" d="M 208.637583 307.584 
L 211.749876 307.584 
L 211.749876 301.259774 
L 208.637583 301.259774 
z
" style="fill:#0000ff;"/>
   </g>
   <g id="patch_43">
    <path clip-path="url(#p6c7ea561d3)" d="M 211.749876 307.584 
L 214.862169 307.584 
L 214.862169 295.675617 
L 211.749876 295.675617 
z
" style="fill:#0000ff;"/>
   </g>
   <g id="patch_44">
    <path clip-path="url(#p6c7ea561d3)" d="M 214.862169 307.584 
L 217.974453 307.584 
L 217.974453 294.868269 
L 214.862169 294.868269 
z
" style="fill:#0000ff;"/>
   </g>
   <g id="patch_45">
    <path clip-path="url(#p6c7ea561d3)" d="M 217.974453 307.584 
L 221.086747 307.584 
L 221.086747 296.348407 
L 217.974453 296.348407 
z
" style="fill:#0000ff;"/>
   </g>
   <g id="patch_46">
    <path clip-path="url(#p6c7ea561d3)" d="M 221.086756 307.584 
L 224.19904 307.584 
L 224.19904 279.595935 
L 221.086756 279.595935 
z
" style="fill:#0000ff;"/>
   </g>
   <g id="patch_47">
    <path clip-path="url(#p6c7ea561d3)" d="M 224.199031 307.584 
L 227.311324 307.584 
L 227.311324 272.733477 
L 224.199031 272.733477 
z
" style="fill:#0000ff;"/>
   </g>
   <g id="patch_48">
    <path clip-path="url(#p6c7ea561d3)" d="M 227.311324 307.584 
L 230.423617 307.584 
L 230.423617 244.947249 
L 227.311324 244.947249 
z
" style="fill:#0000ff;"/>
   </g>
   <g id="patch_49">
    <path clip-path="url(#p6c7ea561d3)" d="M 230.423617 307.584 
L 233.535901 307.584 
L 233.535901 262.372511 
L 230.423617 262.372511 
z
" style="fill:#0000ff;"/>
   </g>
   <g id="patch_50">
    <path clip-path="url(#p6c7ea561d3)" d="M 233.535901 307.584 
L 236.648195 307.584 
L 236.648195 234.720841 
L 233.535901 234.720841 
z
" style="fill:#0000ff;"/>
   </g>
   <g id="patch_51">
    <path clip-path="url(#p6c7ea561d3)" d="M 236.648204 307.584 
L 239.760488 307.584 
L 239.760488 262.978022 
L 236.648204 262.978022 
z
" style="fill:#0000ff;"/>
   </g>
   <g id="patch_52">
    <path clip-path="url(#p6c7ea561d3)" d="M 239.760479 307.584 
L 242.872772 307.584 
L 242.872772 241.179625 
L 239.760479 241.179625 
z
" style="fill:#0000ff;"/>
   </g>
   <g id="patch_53">
    <path clip-path="url(#p6c7ea561d3)" d="M 242.872763 307.584 
L 245.985047 307.584 
L 245.985047 253.222566 
L 242.872763 253.222566 
z
" style="fill:#0000ff;"/>
   </g>
   <g id="patch_54">
    <path clip-path="url(#p6c7ea561d3)" d="M 245.985084 307.584 
L 249.097378 307.584 
L 249.097378 284.372744 
L 245.985084 284.372744 
z
" style="fill:#0000ff;"/>
   </g>
   <g id="patch_55">
    <path clip-path="url(#p6c7ea561d3)" d="M 249.097359 307.584 
L 252.209634 307.584 
L 252.209634 286.323835 
L 249.097359 286.323835 
z
" style="fill:#0000ff;"/>
   </g>
   <g id="patch_56">
    <path clip-path="url(#p6c7ea561d3)" d="M 252.209634 307.584 
L 255.321927 307.584 
L 255.321927 296.079291 
L 252.209634 296.079291 
z
" style="fill:#0000ff;"/>
   </g>
   <g id="patch_57">
    <path clip-path="url(#p6c7ea561d3)" d="M 255.321946 307.584 
L 258.434239 307.584 
L 258.434239 293.926363 
L 255.321946 293.926363 
z
" style="fill:#0000ff;"/>
   </g>
   <g id="patch_58">
    <path clip-path="url(#p6c7ea561d3)" d="M 258.43422 307.584 
L 261.546514 307.584 
L 261.546514 297.895824 
L 258.43422 297.895824 
z
" style="fill:#0000ff;"/>
   </g>
   <g id="patch_59">
    <path clip-path="url(#p6c7ea561d3)" d="M 261.546532 307.584 
L 264.658826 307.584 
L 264.658826 294.868269 
L 261.546532 294.868269 
z
" style="fill:#0000ff;"/>
   </g>
   <g id="patch_60">
    <path clip-path="url(#p6c7ea561d3)" d="M 264.658807 307.584 
L 267.771082 307.584 
L 267.771082 299.443241 
L 264.658807 299.443241 
z
" style="fill:#0000ff;"/>
   </g>
   <g id="patch_61">
    <path clip-path="url(#p6c7ea561d3)" d="M 267.771082 307.584 
L 270.883375 307.584 
L 270.883375 297.895824 
L 267.771082 297.895824 
z
" style="fill:#0000ff;"/>
   </g>
   <g id="patch_62">
    <path clip-path="url(#p6c7ea561d3)" d="M 270.883394 307.584 
L 273.995687 307.584 
L 273.995687 302.268959 
L 270.883394 302.268959 
z
" style="fill:#0000ff;"/>
   </g>
   <g id="patch_63">
    <path clip-path="url(#p6c7ea561d3)" d="M 273.995669 307.584 
L 277.107962 307.584 
L 277.107962 300.317868 
L 273.995669 300.317868 
z
" style="fill:#0000ff;"/>
   </g>
   <g id="patch_64">
    <path clip-path="url(#p6c7ea561d3)" d="M 277.107981 307.584 
L 280.220274 307.584 
L 280.220274 301.461611 
L 277.107981 301.461611 
z
" style="fill:#0000ff;"/>
   </g>
   <g id="patch_65">
    <path clip-path="url(#p6c7ea561d3)" d="M 280.220255 307.584 
L 283.33253 307.584 
L 283.33253 304.22005 
L 280.220255 304.22005 
z
" style="fill:#0000ff;"/>
   </g>
   <g id="patch_66">
    <path clip-path="url(#p6c7ea561d3)" d="M 283.33253 307.584 
L 286.444823 307.584 
L 286.444823 303.210865 
L 283.33253 303.210865 
z
" style="fill:#0000ff;"/>
   </g>
   <g id="patch_67">
    <path clip-path="url(#p6c7ea561d3)" d="M 286.444842 307.584 
L 289.557135 307.584 
L 289.557135 305.56563 
L 286.444842 305.56563 
z
" style="fill:#0000ff;"/>
   </g>
   <g id="patch_68">
    <path clip-path="url(#p6c7ea561d3)" d="M 289.557117 307.584 
L 292.66941 307.584 
L 292.66941 304.287329 
L 289.557117 304.287329 
z
" style="fill:#0000ff;"/>
   </g>
   <g id="patch_69">
    <path clip-path="url(#p6c7ea561d3)" d="M 292.669429 307.584 
L 295.781722 307.584 
L 295.781722 305.834746 
L 292.669429 305.834746 
z
" style="fill:#0000ff;"/>
   </g>
   <g id="patch_70">
    <path clip-path="url(#p6c7ea561d3)" d="M 295.781704 307.584 
L 298.893978 307.584 
L 298.893978 306.103862 
L 295.781704 306.103862 
z
" style="fill:#0000ff;"/>
   </g>
   <g id="patch_71">
    <path clip-path="url(#p6c7ea561d3)" d="M 298.893978 307.584 
L 302.006272 307.584 
L 302.006272 306.23842 
L 298.893978 306.23842 
z
" style="fill:#0000ff;"/>
   </g>
   <g id="patch_72">
    <path clip-path="url(#p6c7ea561d3)" d="M 302.00629 307.584 
L 305.118584 307.584 
L 305.118584 306.709373 
L 302.00629 306.709373 
z
" style="fill:#0000ff;"/>
   </g>
   <g id="patch_73">
    <path clip-path="url(#p6c7ea561d3)" d="M 305.118565 307.584 
L 308.230858 307.584 
L 308.230858 306.642094 
L 305.118565 306.642094 
z
" style="fill:#0000ff;"/>
   </g>
   <g id="patch_74">
    <path clip-path="url(#p6c7ea561d3)" d="M 308.230877 307.584 
L 311.34317 307.584 
L 311.34317 307.113047 
L 308.230877 307.113047 
z
" style="fill:#0000ff;"/>
   </g>
   <g id="patch_75">
    <path clip-path="url(#p6c7ea561d3)" d="M 311.343152 307.584 
L 314.455426 307.584 
L 314.455426 306.978489 
L 311.343152 306.978489 
z
" style="fill:#0000ff;"/>
   </g>
   <g id="patch_76">
    <path clip-path="url(#p6c7ea561d3)" d="M 314.455426 307.584 
L 317.56772 307.584 
L 317.56772 307.382163 
L 314.455426 307.382163 
z
" style="fill:#0000ff;"/>
   </g>
   <g id="patch_77">
    <path clip-path="url(#p6c7ea561d3)" d="M 317.567738 307.584 
L 320.680032 307.584 
L 320.680032 306.978489 
L 317.567738 306.978489 
z
" style="fill:#0000ff;"/>
   </g>
   <g id="patch_78">
    <path clip-path="url(#p6c7ea561d3)" d="M 320.680013 307.584 
L 323.792307 307.584 
L 323.792307 307.382163 
L 320.680013 307.382163 
z
" style="fill:#0000ff;"/>
   </g>
   <g id="patch_79">
    <path clip-path="url(#p6c7ea561d3)" d="M 323.792325 307.584 
L 326.904619 307.584 
L 326.904619 307.314884 
L 323.792325 307.314884 
z
" style="fill:#0000ff;"/>
   </g>
   <g id="patch_80">
    <path clip-path="url(#p6c7ea561d3)" d="M 326.9046 307.584 
L 330.016875 307.584 
L 330.016875 307.449442 
L 326.9046 307.449442 
z
" style="fill:#0000ff;"/>
   </g>
   <g id="patch_81">
    <path clip-path="url(#p6c7ea561d3)" d="M 330.016875 307.584 
L 333.129168 307.584 
L 333.129168 307.516721 
L 330.016875 307.516721 
z
" style="fill:#0000ff;"/>
   </g>
   <g id="patch_82">
    <path clip-path="url(#p6c7ea561d3)" d="M 333.129187 307.584 
L 336.24148 307.584 
L 336.24148 307.449442 
L 333.129187 307.449442 
z
" style="fill:#0000ff;"/>
   </g>
   <g id="patch_83">
    <path clip-path="url(#p6c7ea561d3)" d="M 336.241461 307.584 
L 339.353755 307.584 
L 339.353755 307.449442 
L 336.241461 307.449442 
z
" style="fill:#0000ff;"/>
   </g>
   <g id="patch_84">
    <path clip-path="url(#p6c7ea561d3)" d="M 339.353773 307.584 
L 342.466067 307.584 
L 342.466067 307.584 
L 339.353773 307.584 
z
" style="fill:#0000ff;"/>
   </g>
   <g id="patch_85">
    <path clip-path="url(#p6c7ea561d3)" d="M 342.466048 307.584 
L 345.578323 307.584 
L 345.578323 307.584 
L 342.466048 307.584 
z
" style="fill:#0000ff;"/>
   </g>
   <g id="patch_86">
    <path clip-path="url(#p6c7ea561d3)" d="M 345.578323 307.584 
L 348.690616 307.584 
L 348.690616 307.516721 
L 345.578323 307.516721 
z
" style="fill:#0000ff;"/>
   </g>
   <g id="patch_87">
    <path clip-path="url(#p6c7ea561d3)" d="M 348.690635 307.584 
L 351.802928 307.584 
L 351.802928 307.584 
L 348.690635 307.584 
z
" style="fill:#0000ff;"/>
   </g>
   <g id="patch_88">
    <path clip-path="url(#p6c7ea561d3)" d="M 351.80291 307.584 
L 354.915203 307.584 
L 354.915203 307.584 
L 351.80291 307.584 
z
" style="fill:#0000ff;"/>
   </g>
   <g id="patch_89">
    <path clip-path="url(#p6c7ea561d3)" d="M 354.915222 307.584 
L 358.027515 307.584 
L 358.027515 307.516721 
L 354.915222 307.516721 
z
" style="fill:#0000ff;"/>
   </g>
   <g id="patch_90">
    <path clip-path="url(#p6c7ea561d3)" d="M 358.027496 307.584 
L 361.139771 307.584 
L 361.139771 307.584 
L 358.027496 307.584 
z
" style="fill:#0000ff;"/>
   </g>
   <g id="patch_91">
    <path clip-path="url(#p6c7ea561d3)" d="M 361.139771 307.584 
L 364.252064 307.584 
L 364.252064 307.584 
L 361.139771 307.584 
z
" style="fill:#0000ff;"/>
   </g>
   <g id="patch_92">
    <path clip-path="url(#p6c7ea561d3)" d="M 364.252083 307.584 
L 367.364376 307.584 
L 367.364376 307.584 
L 364.252083 307.584 
z
" style="fill:#0000ff;"/>
   </g>
   <g id="patch_93">
    <path clip-path="url(#p6c7ea561d3)" d="M 367.364358 307.584 
L 370.476651 307.584 
L 370.476651 307.516721 
L 367.364358 307.516721 
z
" style="fill:#0000ff;"/>
   </g>
   <g id="patch_94">
    <path clip-path="url(#p6c7ea561d3)" d="M 370.47667 307.584 
L 373.588963 307.584 
L 373.588963 307.516721 
L 370.47667 307.516721 
z
" style="fill:#0000ff;"/>
   </g>
   <g id="patch_95">
    <path clip-path="url(#p6c7ea561d3)" d="M 373.588944 307.584 
L 376.701219 307.584 
L 376.701219 307.516721 
L 373.588944 307.516721 
z
" style="fill:#0000ff;"/>
   </g>
   <g id="patch_96">
    <path clip-path="url(#p6c7ea561d3)" d="M 376.701219 307.584 
L 379.813513 307.584 
L 379.813513 307.584 
L 376.701219 307.584 
z
" style="fill:#0000ff;"/>
   </g>
   <g id="patch_97">
    <path clip-path="url(#p6c7ea561d3)" d="M 379.813531 307.584 
L 382.925825 307.584 
L 382.925825 307.584 
L 379.813531 307.584 
z
" style="fill:#0000ff;"/>
   </g>
   <g id="patch_98">
    <path clip-path="url(#p6c7ea561d3)" d="M 382.925806 307.584 
L 386.038099 307.584 
L 386.038099 307.584 
L 382.925806 307.584 
z
" style="fill:#0000ff;"/>
   </g>
   <g id="patch_99">
    <path clip-path="url(#p6c7ea561d3)" d="M 386.038118 307.584 
L 389.150411 307.584 
L 389.150411 307.584 
L 386.038118 307.584 
z
" style="fill:#0000ff;"/>
   </g>
   <g id="patch_100">
    <path clip-path="url(#p6c7ea561d3)" d="M 389.150393 307.584 
L 392.262667 307.584 
L 392.262667 307.584 
L 389.150393 307.584 
z
" style="fill:#0000ff;"/>
   </g>
   <g id="patch_101">
    <path clip-path="url(#p6c7ea561d3)" d="M 392.262667 307.584 
L 395.374961 307.584 
L 395.374961 307.584 
L 392.262667 307.584 
z
" style="fill:#0000ff;"/>
   </g>
   <g id="patch_102">
    <path clip-path="url(#p6c7ea561d3)" d="M 395.374979 307.584 
L 398.487273 307.584 
L 398.487273 307.516721 
L 395.374979 307.516721 
z
" style="fill:#0000ff;"/>
   </g>
   <g id="patch_103">
    <path clip-path="url(#p6c7ea561d3)" d="M 73.832727 307.584 
L 74.113443 307.584 
L 74.113443 307.314884 
L 73.832727 307.314884 
z
" style="fill:#808080;"/>
   </g>
   <g id="patch_104">
    <path clip-path="url(#p6c7ea561d3)" d="M 74.113443 307.584 
L 74.39416 307.584 
L 74.39416 307.584 
L 74.113443 307.584 
z
" style="fill:#808080;"/>
   </g>
   <g id="patch_105">
    <path clip-path="url(#p6c7ea561d3)" d="M 74.39416 307.584 
L 74.674876 307.584 
L 74.674876 307.584 
L 74.39416 307.584 
z
" style="fill:#808080;"/>
   </g>
   <g id="patch_106">
    <path clip-path="url(#p6c7ea561d3)" d="M 74.674877 307.584 
L 74.955594 307.584 
L 74.955594 307.584 
L 74.674877 307.584 
z
" style="fill:#808080;"/>
   </g>
   <g id="patch_107">
    <path clip-path="url(#p6c7ea561d3)" d="M 74.955593 307.584 
L 75.236308 307.584 
L 75.236308 307.449442 
L 74.955593 307.449442 
z
" style="fill:#808080;"/>
   </g>
   <g id="patch_108">
    <path clip-path="url(#p6c7ea561d3)" d="M 75.236308 307.584 
L 75.517025 307.584 
L 75.517025 307.584 
L 75.236308 307.584 
z
" style="fill:#808080;"/>
   </g>
   <g id="patch_109">
    <path clip-path="url(#p6c7ea561d3)" d="M 75.517025 307.584 
L 75.797741 307.584 
L 75.797741 307.584 
L 75.517025 307.584 
z
" style="fill:#808080;"/>
   </g>
   <g id="patch_110">
    <path clip-path="url(#p6c7ea561d3)" d="M 75.797742 307.584 
L 76.078459 307.584 
L 76.078459 307.584 
L 75.797742 307.584 
z
" style="fill:#808080;"/>
   </g>
   <g id="patch_111">
    <path clip-path="url(#p6c7ea561d3)" d="M 76.078458 307.584 
L 76.359174 307.584 
L 76.359174 306.507536 
L 76.078458 306.507536 
z
" style="fill:#808080;"/>
   </g>
   <g id="patch_112">
    <path clip-path="url(#p6c7ea561d3)" d="M 76.359174 307.584 
L 76.639891 307.584 
L 76.639891 307.584 
L 76.359174 307.584 
z
" style="fill:#808080;"/>
   </g>
   <g id="patch_113">
    <path clip-path="url(#p6c7ea561d3)" d="M 76.639891 307.584 
L 76.920606 307.584 
L 76.920606 307.584 
L 76.639891 307.584 
z
" style="fill:#808080;"/>
   </g>
   <g id="patch_114">
    <path clip-path="url(#p6c7ea561d3)" d="M 76.920608 307.584 
L 77.201325 307.584 
L 77.201325 307.584 
L 76.920608 307.584 
z
" style="fill:#808080;"/>
   </g>
   <g id="patch_115">
    <path clip-path="url(#p6c7ea561d3)" d="M 77.201323 307.584 
L 77.482039 307.584 
L 77.482039 307.584 
L 77.201323 307.584 
z
" style="fill:#808080;"/>
   </g>
   <g id="patch_116">
    <path clip-path="url(#p6c7ea561d3)" d="M 77.482039 307.584 
L 77.762755 307.584 
L 77.762755 305.834746 
L 77.482039 305.834746 
z
" style="fill:#808080;"/>
   </g>
   <g id="patch_117">
    <path clip-path="url(#p6c7ea561d3)" d="M 77.762756 307.584 
L 78.043472 307.584 
L 78.043472 307.584 
L 77.762756 307.584 
z
" style="fill:#808080;"/>
   </g>
   <g id="patch_118">
    <path clip-path="url(#p6c7ea561d3)" d="M 78.043472 307.584 
L 78.324188 307.584 
L 78.324188 307.584 
L 78.043472 307.584 
z
" style="fill:#808080;"/>
   </g>
   <g id="patch_119">
    <path clip-path="url(#p6c7ea561d3)" d="M 78.324189 307.584 
L 78.604905 307.584 
L 78.604905 307.584 
L 78.324189 307.584 
z
" style="fill:#808080;"/>
   </g>
   <g id="patch_120">
    <path clip-path="url(#p6c7ea561d3)" d="M 78.604905 307.584 
L 78.88562 307.584 
L 78.88562 304.623724 
L 78.604905 304.623724 
z
" style="fill:#808080;"/>
   </g>
   <g id="patch_121">
    <path clip-path="url(#p6c7ea561d3)" d="M 78.885621 307.584 
L 79.166337 307.584 
L 79.166337 307.584 
L 78.885621 307.584 
z
" style="fill:#808080;"/>
   </g>
   <g id="patch_122">
    <path clip-path="url(#p6c7ea561d3)" d="M 79.166337 307.584 
L 79.447053 307.584 
L 79.447053 307.584 
L 79.166337 307.584 
z
" style="fill:#808080;"/>
   </g>
   <g id="patch_123">
    <path clip-path="url(#p6c7ea561d3)" d="M 79.447054 307.584 
L 79.72777 307.584 
L 79.72777 307.584 
L 79.447054 307.584 
z
" style="fill:#808080;"/>
   </g>
   <g id="patch_124">
    <path clip-path="url(#p6c7ea561d3)" d="M 79.72777 307.584 
L 80.008486 307.584 
L 80.008486 301.327053 
L 79.72777 301.327053 
z
" style="fill:#808080;"/>
   </g>
   <g id="patch_125">
    <path clip-path="url(#p6c7ea561d3)" d="M 80.008487 307.584 
L 80.289203 307.584 
L 80.289203 307.584 
L 80.008487 307.584 
z
" style="fill:#808080;"/>
   </g>
   <g id="patch_126">
    <path clip-path="url(#p6c7ea561d3)" d="M 80.289203 307.584 
L 80.569918 307.584 
L 80.569918 307.584 
L 80.289203 307.584 
z
" style="fill:#808080;"/>
   </g>
   <g id="patch_127">
    <path clip-path="url(#p6c7ea561d3)" d="M 80.56992 307.584 
L 80.850635 307.584 
L 80.850635 307.584 
L 80.56992 307.584 
z
" style="fill:#808080;"/>
   </g>
   <g id="patch_128">
    <path clip-path="url(#p6c7ea561d3)" d="M 80.850635 307.584 
L 81.131351 307.584 
L 81.131351 307.584 
L 80.850635 307.584 
z
" style="fill:#808080;"/>
   </g>
   <g id="patch_129">
    <path clip-path="url(#p6c7ea561d3)" d="M 81.131352 307.584 
L 81.412068 307.584 
L 81.412068 298.972288 
L 81.131352 298.972288 
z
" style="fill:#808080;"/>
   </g>
   <g id="patch_130">
    <path clip-path="url(#p6c7ea561d3)" d="M 81.412068 307.584 
L 81.692784 307.584 
L 81.692784 307.584 
L 81.412068 307.584 
z
" style="fill:#808080;"/>
   </g>
   <g id="patch_131">
    <path clip-path="url(#p6c7ea561d3)" d="M 81.692785 307.584 
L 81.973501 307.584 
L 81.973501 307.584 
L 81.692785 307.584 
z
" style="fill:#808080;"/>
   </g>
   <g id="patch_132">
    <path clip-path="url(#p6c7ea561d3)" d="M 81.973501 307.584 
L 82.254216 307.584 
L 82.254216 307.584 
L 81.973501 307.584 
z
" style="fill:#808080;"/>
   </g>
   <g id="patch_133">
    <path clip-path="url(#p6c7ea561d3)" d="M 82.254218 307.584 
L 82.534933 307.584 
L 82.534933 293.253573 
L 82.254218 293.253573 
z
" style="fill:#808080;"/>
   </g>
   <g id="patch_134">
    <path clip-path="url(#p6c7ea561d3)" d="M 82.534933 307.584 
L 82.815649 307.584 
L 82.815649 307.584 
L 82.534933 307.584 
z
" style="fill:#808080;"/>
   </g>
   <g id="patch_135">
    <path clip-path="url(#p6c7ea561d3)" d="M 82.81565 307.584 
L 83.096365 307.584 
L 83.096365 307.584 
L 82.81565 307.584 
z
" style="fill:#808080;"/>
   </g>
   <g id="patch_136">
    <path clip-path="url(#p6c7ea561d3)" d="M 83.096366 307.584 
L 83.377082 307.584 
L 83.377082 307.584 
L 83.096366 307.584 
z
" style="fill:#808080;"/>
   </g>
   <g id="patch_137">
    <path clip-path="url(#p6c7ea561d3)" d="M 83.377082 307.584 
L 83.657798 307.584 
L 83.657798 307.584 
L 83.377082 307.584 
z
" style="fill:#808080;"/>
   </g>
   <g id="patch_138">
    <path clip-path="url(#p6c7ea561d3)" d="M 83.657799 307.584 
L 83.938514 307.584 
L 83.938514 307.584 
L 83.657799 307.584 
z
" style="fill:#808080;"/>
   </g>
   <g id="patch_139">
    <path clip-path="url(#p6c7ea561d3)" d="M 83.938515 307.584 
L 84.219231 307.584 
L 84.219231 307.584 
L 83.938515 307.584 
z
" style="fill:#808080;"/>
   </g>
   <g id="patch_140">
    <path clip-path="url(#p6c7ea561d3)" d="M 84.219231 307.584 
L 84.499947 307.584 
L 84.499947 307.584 
L 84.219231 307.584 
z
" style="fill:#808080;"/>
   </g>
   <g id="patch_141">
    <path clip-path="url(#p6c7ea561d3)" d="M 84.499948 307.584 
L 84.780664 307.584 
L 84.780664 307.584 
L 84.499948 307.584 
z
" style="fill:#808080;"/>
   </g>
   <g id="patch_142">
    <path clip-path="url(#p6c7ea561d3)" d="M 84.780664 307.584 
L 85.06138 307.584 
L 85.06138 307.584 
L 84.780664 307.584 
z
" style="fill:#808080;"/>
   </g>
   <g id="patch_143">
    <path clip-path="url(#p6c7ea561d3)" d="M 85.06138 307.584 
L 85.342096 307.584 
L 85.342096 307.584 
L 85.06138 307.584 
z
" style="fill:#808080;"/>
   </g>
   <g id="patch_144">
    <path clip-path="url(#p6c7ea561d3)" d="M 85.342097 307.584 
L 85.622812 307.584 
L 85.622812 307.584 
L 85.342097 307.584 
z
" style="fill:#808080;"/>
   </g>
   <g id="patch_145">
    <path clip-path="url(#p6c7ea561d3)" d="M 85.622813 307.584 
L 85.903529 307.584 
L 85.903529 307.584 
L 85.622813 307.584 
z
" style="fill:#808080;"/>
   </g>
   <g id="patch_146">
    <path clip-path="url(#p6c7ea561d3)" d="M 85.903529 307.584 
L 86.184245 307.584 
L 86.184245 307.584 
L 85.903529 307.584 
z
" style="fill:#808080;"/>
   </g>
   <g id="patch_147">
    <path clip-path="url(#p6c7ea561d3)" d="M 86.184246 307.584 
L 86.464961 307.584 
L 86.464961 307.584 
L 86.184246 307.584 
z
" style="fill:#808080;"/>
   </g>
   <g id="patch_148">
    <path clip-path="url(#p6c7ea561d3)" d="M 86.464962 307.584 
L 86.745678 307.584 
L 86.745678 307.584 
L 86.464962 307.584 
z
" style="fill:#808080;"/>
   </g>
   <g id="patch_149">
    <path clip-path="url(#p6c7ea561d3)" d="M 86.745678 307.584 
L 87.026394 307.584 
L 87.026394 307.584 
L 86.745678 307.584 
z
" style="fill:#808080;"/>
   </g>
   <g id="patch_150">
    <path clip-path="url(#p6c7ea561d3)" d="M 87.026395 307.584 
L 87.30711 307.584 
L 87.30711 307.584 
L 87.026395 307.584 
z
" style="fill:#808080;"/>
   </g>
   <g id="patch_151">
    <path clip-path="url(#p6c7ea561d3)" d="M 87.307111 307.584 
L 87.587827 307.584 
L 87.587827 307.584 
L 87.307111 307.584 
z
" style="fill:#808080;"/>
   </g>
   <g id="patch_152">
    <path clip-path="url(#p6c7ea561d3)" d="M 87.587827 307.584 
L 87.868543 307.584 
L 87.868543 307.584 
L 87.587827 307.584 
z
" style="fill:#808080;"/>
   </g>
   <g id="patch_153">
    <path clip-path="url(#p6c7ea561d3)" d="M 87.868544 307.584 
L 88.149259 307.584 
L 88.149259 307.584 
L 87.868544 307.584 
z
" style="fill:#808080;"/>
   </g>
   <g id="patch_154">
    <path clip-path="url(#p6c7ea561d3)" d="M 88.14926 307.584 
L 88.429976 307.584 
L 88.429976 307.584 
L 88.14926 307.584 
z
" style="fill:#808080;"/>
   </g>
   <g id="patch_155">
    <path clip-path="url(#p6c7ea561d3)" d="M 88.429976 307.584 
L 88.710693 307.584 
L 88.710693 307.584 
L 88.429976 307.584 
z
" style="fill:#808080;"/>
   </g>
   <g id="patch_156">
    <path clip-path="url(#p6c7ea561d3)" d="M 88.710693 307.584 
L 88.991408 307.584 
L 88.991408 307.584 
L 88.710693 307.584 
z
" style="fill:#808080;"/>
   </g>
   <g id="patch_157">
    <path clip-path="url(#p6c7ea561d3)" d="M 88.991409 307.584 
L 89.272125 307.584 
L 89.272125 307.584 
L 88.991409 307.584 
z
" style="fill:#808080;"/>
   </g>
   <g id="patch_158">
    <path clip-path="url(#p6c7ea561d3)" d="M 89.272125 307.584 
L 89.552841 307.584 
L 89.552841 307.584 
L 89.272125 307.584 
z
" style="fill:#808080;"/>
   </g>
   <g id="patch_159">
    <path clip-path="url(#p6c7ea561d3)" d="M 89.552841 307.584 
L 89.833557 307.584 
L 89.833557 307.584 
L 89.552841 307.584 
z
" style="fill:#808080;"/>
   </g>
   <g id="patch_160">
    <path clip-path="url(#p6c7ea561d3)" d="M 89.833558 307.584 
L 90.114273 307.584 
L 90.114273 307.584 
L 89.833558 307.584 
z
" style="fill:#808080;"/>
   </g>
   <g id="patch_161">
    <path clip-path="url(#p6c7ea561d3)" d="M 90.114274 307.584 
L 90.39499 307.584 
L 90.39499 307.584 
L 90.114274 307.584 
z
" style="fill:#808080;"/>
   </g>
   <g id="patch_162">
    <path clip-path="url(#p6c7ea561d3)" d="M 90.39499 307.584 
L 90.675706 307.584 
L 90.675706 307.584 
L 90.39499 307.584 
z
" style="fill:#808080;"/>
   </g>
   <g id="patch_163">
    <path clip-path="url(#p6c7ea561d3)" d="M 90.675707 307.584 
L 90.956422 307.584 
L 90.956422 307.584 
L 90.675707 307.584 
z
" style="fill:#808080;"/>
   </g>
   <g id="patch_164">
    <path clip-path="url(#p6c7ea561d3)" d="M 90.956423 307.584 
L 91.237139 307.584 
L 91.237139 307.584 
L 90.956423 307.584 
z
" style="fill:#808080;"/>
   </g>
   <g id="patch_165">
    <path clip-path="url(#p6c7ea561d3)" d="M 91.237139 307.584 
L 91.517855 307.584 
L 91.517855 307.584 
L 91.237139 307.584 
z
" style="fill:#808080;"/>
   </g>
   <g id="patch_166">
    <path clip-path="url(#p6c7ea561d3)" d="M 91.517856 307.584 
L 91.798572 307.584 
L 91.798572 307.584 
L 91.517856 307.584 
z
" style="fill:#808080;"/>
   </g>
   <g id="patch_167">
    <path clip-path="url(#p6c7ea561d3)" d="M 91.798572 307.584 
L 92.079288 307.584 
L 92.079288 307.584 
L 91.798572 307.584 
z
" style="fill:#808080;"/>
   </g>
   <g id="patch_168">
    <path clip-path="url(#p6c7ea561d3)" d="M 92.079288 307.584 
L 92.360004 307.584 
L 92.360004 307.584 
L 92.079288 307.584 
z
" style="fill:#808080;"/>
   </g>
   <g id="patch_169">
    <path clip-path="url(#p6c7ea561d3)" d="M 92.360005 307.584 
L 92.640721 307.584 
L 92.640721 307.584 
L 92.360005 307.584 
z
" style="fill:#808080;"/>
   </g>
   <g id="patch_170">
    <path clip-path="url(#p6c7ea561d3)" d="M 92.640721 307.584 
L 92.921436 307.584 
L 92.921436 307.584 
L 92.640721 307.584 
z
" style="fill:#808080;"/>
   </g>
   <g id="patch_171">
    <path clip-path="url(#p6c7ea561d3)" d="M 92.921437 307.584 
L 93.202153 307.584 
L 93.202153 307.584 
L 92.921437 307.584 
z
" style="fill:#808080;"/>
   </g>
   <g id="patch_172">
    <path clip-path="url(#p6c7ea561d3)" d="M 93.202153 307.584 
L 93.482869 307.584 
L 93.482869 80.786485 
L 93.202153 80.786485 
z
" style="fill:#808080;"/>
   </g>
   <g id="patch_173">
    <path clip-path="url(#p6c7ea561d3)" d="M 93.48287 307.584 
L 93.763586 307.584 
L 93.763586 307.584 
L 93.48287 307.584 
z
" style="fill:#808080;"/>
   </g>
   <g id="patch_174">
    <path clip-path="url(#p6c7ea561d3)" d="M 93.763586 307.584 
L 94.044302 307.584 
L 94.044302 307.584 
L 93.763586 307.584 
z
" style="fill:#808080;"/>
   </g>
   <g id="patch_175">
    <path clip-path="url(#p6c7ea561d3)" d="M 94.044303 307.584 
L 94.325019 307.584 
L 94.325019 307.584 
L 94.044303 307.584 
z
" style="fill:#808080;"/>
   </g>
   <g id="patch_176">
    <path clip-path="url(#p6c7ea561d3)" d="M 94.325019 307.584 
L 94.605734 307.584 
L 94.605734 268.4949 
L 94.325019 268.4949 
z
" style="fill:#808080;"/>
   </g>
   <g id="patch_177">
    <path clip-path="url(#p6c7ea561d3)" d="M 94.605736 307.584 
L 94.886451 307.584 
L 94.886451 307.584 
L 94.605736 307.584 
z
" style="fill:#808080;"/>
   </g>
   <g id="patch_178">
    <path clip-path="url(#p6c7ea561d3)" d="M 94.886451 307.584 
L 95.167167 307.584 
L 95.167167 307.584 
L 94.886451 307.584 
z
" style="fill:#808080;"/>
   </g>
   <g id="patch_179">
    <path clip-path="url(#p6c7ea561d3)" d="M 95.167168 307.584 
L 95.447884 307.584 
L 95.447884 307.584 
L 95.167168 307.584 
z
" style="fill:#808080;"/>
   </g>
   <g id="patch_180">
    <path clip-path="url(#p6c7ea561d3)" d="M 95.447884 307.584 
L 95.7286 307.584 
L 95.7286 307.584 
L 95.447884 307.584 
z
" style="fill:#808080;"/>
   </g>
   <g id="patch_181">
    <path clip-path="url(#p6c7ea561d3)" d="M 95.728601 307.584 
L 96.009317 307.584 
L 96.009317 184.463427 
L 95.728601 184.463427 
z
" style="fill:#808080;"/>
   </g>
   <g id="patch_182">
    <path clip-path="url(#p6c7ea561d3)" d="M 96.009317 307.584 
L 96.290032 307.584 
L 96.290032 307.584 
L 96.009317 307.584 
z
" style="fill:#808080;"/>
   </g>
   <g id="patch_183">
    <path clip-path="url(#p6c7ea561d3)" d="M 96.290034 307.584 
L 96.570749 307.584 
L 96.570749 307.584 
L 96.290034 307.584 
z
" style="fill:#808080;"/>
   </g>
   <g id="patch_184">
    <path clip-path="url(#p6c7ea561d3)" d="M 96.570749 307.584 
L 96.851465 307.584 
L 96.851465 307.584 
L 96.570749 307.584 
z
" style="fill:#808080;"/>
   </g>
   <g id="patch_185">
    <path clip-path="url(#p6c7ea561d3)" d="M 96.851466 307.584 
L 97.132182 307.584 
L 97.132182 54.144 
L 96.851466 54.144 
z
" style="fill:#808080;"/>
   </g>
   <g id="patch_186">
    <path clip-path="url(#p6c7ea561d3)" d="M 97.132182 307.584 
L 97.412898 307.584 
L 97.412898 307.584 
L 97.132182 307.584 
z
" style="fill:#808080;"/>
   </g>
   <g id="patch_187">
    <path clip-path="url(#p6c7ea561d3)" d="M 97.412898 307.584 
L 97.693615 307.584 
L 97.693615 307.584 
L 97.412898 307.584 
z
" style="fill:#808080;"/>
   </g>
   <g id="patch_188">
    <path clip-path="url(#p6c7ea561d3)" d="M 97.693615 307.584 
L 97.97433 307.584 
L 97.97433 307.584 
L 97.693615 307.584 
z
" style="fill:#808080;"/>
   </g>
   <g id="patch_189">
    <path clip-path="url(#p6c7ea561d3)" d="M 97.974332 307.584 
L 98.255049 307.584 
L 98.255049 307.516721 
L 97.974332 307.516721 
z
" style="fill:#808080;"/>
   </g>
   <g id="patch_190">
    <path clip-path="url(#p6c7ea561d3)" d="M 98.255047 307.584 
L 98.535763 307.584 
L 98.535763 307.584 
L 98.255047 307.584 
z
" style="fill:#808080;"/>
   </g>
   <g id="patch_191">
    <path clip-path="url(#p6c7ea561d3)" d="M 98.535763 307.584 
L 98.81648 307.584 
L 98.81648 307.584 
L 98.535763 307.584 
z
" style="fill:#808080;"/>
   </g>
   <g id="patch_192">
    <path clip-path="url(#p6c7ea561d3)" d="M 98.81648 307.584 
L 99.097196 307.584 
L 99.097196 307.584 
L 98.81648 307.584 
z
" style="fill:#808080;"/>
   </g>
   <g id="patch_193">
    <path clip-path="url(#p6c7ea561d3)" d="M 99.097197 307.584 
L 99.377914 307.584 
L 99.377914 307.584 
L 99.097197 307.584 
z
" style="fill:#808080;"/>
   </g>
   <g id="patch_194">
    <path clip-path="url(#p6c7ea561d3)" d="M 99.377913 307.584 
L 99.658629 307.584 
L 99.658629 307.382163 
L 99.377913 307.382163 
z
" style="fill:#808080;"/>
   </g>
   <g id="patch_195">
    <path clip-path="url(#p6c7ea561d3)" d="M 99.658629 307.584 
L 99.939345 307.584 
L 99.939345 307.584 
L 99.658629 307.584 
z
" style="fill:#808080;"/>
   </g>
   <g id="patch_196">
    <path clip-path="url(#p6c7ea561d3)" d="M 99.939345 307.584 
L 100.220061 307.584 
L 100.220061 307.584 
L 99.939345 307.584 
z
" style="fill:#808080;"/>
   </g>
   <g id="patch_197">
    <path clip-path="url(#p6c7ea561d3)" d="M 100.220062 307.584 
L 100.500779 307.584 
L 100.500779 307.584 
L 100.220062 307.584 
z
" style="fill:#808080;"/>
   </g>
   <g id="patch_198">
    <path clip-path="url(#p6c7ea561d3)" d="M 100.500778 307.584 
L 100.781494 307.584 
L 100.781494 307.584 
L 100.500778 307.584 
z
" style="fill:#808080;"/>
   </g>
   <g id="patch_199">
    <path clip-path="url(#p6c7ea561d3)" d="M 100.781494 307.584 
L 101.062211 307.584 
L 101.062211 307.584 
L 100.781494 307.584 
z
" style="fill:#808080;"/>
   </g>
   <g id="patch_200">
    <path clip-path="url(#p6c7ea561d3)" d="M 101.062211 307.584 
L 101.342927 307.584 
L 101.342927 307.584 
L 101.062211 307.584 
z
" style="fill:#808080;"/>
   </g>
   <g id="patch_201">
    <path clip-path="url(#p6c7ea561d3)" d="M 101.342928 307.584 
L 101.623645 307.584 
L 101.623645 307.584 
L 101.342928 307.584 
z
" style="fill:#808080;"/>
   </g>
   <g id="patch_202">
    <path clip-path="url(#p6c7ea561d3)" d="M 101.623644 307.584 
L 101.904359 307.584 
L 101.904359 307.516721 
L 101.623644 307.516721 
z
" style="fill:#808080;"/>
   </g>
   <g id="matplotlib.axis_1">
    <g id="xtick_1">
     <g id="line2d_1">
      <defs>
       <path d="M 0 0 
L 0 3.5 
" id="meb4939aa6b" style="stroke:#000000;stroke-width:0.8;"/>
      </defs>
      <g>
       <use style="stroke:#000000;stroke-width:0.8;" x="87.25829" xlink:href="#meb4939aa6b" y="307.584"/>
      </g>
     </g>
     <g id="text_1">
      <!-- 0 -->
      <defs>
       <path d="M 31.78125 66.40625 
Q 24.171875 66.40625 20.328125 58.90625 
Q 16.5 51.421875 16.5 36.375 
Q 16.5 21.390625 20.328125 13.890625 
Q 24.171875 6.390625 31.78125 6.390625 
Q 39.453125 6.390625 43.28125 13.890625 
Q 47.125 21.390625 47.125 36.375 
Q 47.125 51.421875 43.28125 58.90625 
Q 39.453125 66.40625 31.78125 66.40625 
z
M 31.78125 74.21875 
Q 44.046875 74.21875 50.515625 64.515625 
Q 56.984375 54.828125 56.984375 36.375 
Q 56.984375 17.96875 50.515625 8.265625 
Q 44.046875 -1.421875 31.78125 -1.421875 
Q 19.53125 -1.421875 13.0625 8.265625 
Q 6.59375 17.96875 6.59375 36.375 
Q 6.59375 54.828125 13.0625 64.515625 
Q 19.53125 74.21875 31.78125 74.21875 
z
" id="DejaVuSans-48"/>
      </defs>
      <g transform="translate(84.07704 322.182437)scale(0.1 -0.1)">
       <use xlink:href="#DejaVuSans-48"/>
      </g>
     </g>
    </g>
    <g id="xtick_2">
     <g id="line2d_2">
      <g>
       <use style="stroke:#000000;stroke-width:0.8;" x="148.283577" xlink:href="#meb4939aa6b" y="307.584"/>
      </g>
     </g>
     <g id="text_2">
      <!-- 50 -->
      <defs>
       <path d="M 10.796875 72.90625 
L 49.515625 72.90625 
L 49.515625 64.59375 
L 19.828125 64.59375 
L 19.828125 46.734375 
Q 21.96875 47.46875 24.109375 47.828125 
Q 26.265625 48.1875 28.421875 48.1875 
Q 40.625 48.1875 47.75 41.5 
Q 54.890625 34.8125 54.890625 23.390625 
Q 54.890625 11.625 47.5625 5.09375 
Q 40.234375 -1.421875 26.90625 -1.421875 
Q 22.3125 -1.421875 17.546875 -0.640625 
Q 12.796875 0.140625 7.71875 1.703125 
L 7.71875 11.625 
Q 12.109375 9.234375 16.796875 8.0625 
Q 21.484375 6.890625 26.703125 6.890625 
Q 35.15625 6.890625 40.078125 11.328125 
Q 45.015625 15.765625 45.015625 23.390625 
Q 45.015625 31 40.078125 35.4375 
Q 35.15625 39.890625 26.703125 39.890625 
Q 22.75 39.890625 18.8125 39.015625 
Q 14.890625 38.140625 10.796875 36.28125 
z
" id="DejaVuSans-53"/>
      </defs>
      <g transform="translate(141.921077 322.182437)scale(0.1 -0.1)">
       <use xlink:href="#DejaVuSans-53"/>
       <use x="63.623047" xlink:href="#DejaVuSans-48"/>
      </g>
     </g>
    </g>
    <g id="xtick_3">
     <g id="line2d_3">
      <g>
       <use style="stroke:#000000;stroke-width:0.8;" x="209.308864" xlink:href="#meb4939aa6b" y="307.584"/>
      </g>
     </g>
     <g id="text_3">
      <!-- 100 -->
      <defs>
       <path d="M 12.40625 8.296875 
L 28.515625 8.296875 
L 28.515625 63.921875 
L 10.984375 60.40625 
L 10.984375 69.390625 
L 28.421875 72.90625 
L 38.28125 72.90625 
L 38.28125 8.296875 
L 54.390625 8.296875 
L 54.390625 0 
L 12.40625 0 
z
" id="DejaVuSans-49"/>
      </defs>
      <g transform="translate(199.765114 322.182437)scale(0.1 -0.1)">
       <use xlink:href="#DejaVuSans-49"/>
       <use x="63.623047" xlink:href="#DejaVuSans-48"/>
       <use x="127.246094" xlink:href="#DejaVuSans-48"/>
      </g>
     </g>
    </g>
    <g id="xtick_4">
     <g id="line2d_4">
      <g>
       <use style="stroke:#000000;stroke-width:0.8;" x="270.334151" xlink:href="#meb4939aa6b" y="307.584"/>
      </g>
     </g>
     <g id="text_4">
      <!-- 150 -->
      <g transform="translate(260.790401 322.182437)scale(0.1 -0.1)">
       <use xlink:href="#DejaVuSans-49"/>
       <use x="63.623047" xlink:href="#DejaVuSans-53"/>
       <use x="127.246094" xlink:href="#DejaVuSans-48"/>
      </g>
     </g>
    </g>
    <g id="xtick_5">
     <g id="line2d_5">
      <g>
       <use style="stroke:#000000;stroke-width:0.8;" x="331.359438" xlink:href="#meb4939aa6b" y="307.584"/>
      </g>
     </g>
     <g id="text_5">
      <!-- 200 -->
      <defs>
       <path d="M 19.1875 8.296875 
L 53.609375 8.296875 
L 53.609375 0 
L 7.328125 0 
L 7.328125 8.296875 
Q 12.9375 14.109375 22.625 23.890625 
Q 32.328125 33.6875 34.8125 36.53125 
Q 39.546875 41.84375 41.421875 45.53125 
Q 43.3125 49.21875 43.3125 52.78125 
Q 43.3125 58.59375 39.234375 62.25 
Q 35.15625 65.921875 28.609375 65.921875 
Q 23.96875 65.921875 18.8125 64.3125 
Q 13.671875 62.703125 7.8125 59.421875 
L 7.8125 69.390625 
Q 13.765625 71.78125 18.9375 73 
Q 24.125 74.21875 28.421875 74.21875 
Q 39.75 74.21875 46.484375 68.546875 
Q 53.21875 62.890625 53.21875 53.421875 
Q 53.21875 48.921875 51.53125 44.890625 
Q 49.859375 40.875 45.40625 35.40625 
Q 44.1875 33.984375 37.640625 27.21875 
Q 31.109375 20.453125 19.1875 8.296875 
z
" id="DejaVuSans-50"/>
      </defs>
      <g transform="translate(321.815688 322.182437)scale(0.1 -0.1)">
       <use xlink:href="#DejaVuSans-50"/>
       <use x="63.623047" xlink:href="#DejaVuSans-48"/>
       <use x="127.246094" xlink:href="#DejaVuSans-48"/>
      </g>
     </g>
    </g>
    <g id="xtick_6">
     <g id="line2d_6">
      <g>
       <use style="stroke:#000000;stroke-width:0.8;" x="392.384725" xlink:href="#meb4939aa6b" y="307.584"/>
      </g>
     </g>
     <g id="text_6">
      <!-- 250 -->
      <g transform="translate(382.840975 322.182437)scale(0.1 -0.1)">
       <use xlink:href="#DejaVuSans-50"/>
       <use x="63.623047" xlink:href="#DejaVuSans-53"/>
       <use x="127.246094" xlink:href="#DejaVuSans-48"/>
      </g>
     </g>
    </g>
    <g id="text_7">
     <!-- Weight -->
     <defs>
      <path d="M 3.328125 72.90625 
L 13.28125 72.90625 
L 28.609375 11.28125 
L 43.890625 72.90625 
L 54.984375 72.90625 
L 70.3125 11.28125 
L 85.59375 72.90625 
L 95.609375 72.90625 
L 77.296875 0 
L 64.890625 0 
L 49.515625 63.28125 
L 33.984375 0 
L 21.578125 0 
z
" id="DejaVuSans-87"/>
      <path d="M 56.203125 29.59375 
L 56.203125 25.203125 
L 14.890625 25.203125 
Q 15.484375 15.921875 20.484375 11.0625 
Q 25.484375 6.203125 34.421875 6.203125 
Q 39.59375 6.203125 44.453125 7.46875 
Q 49.3125 8.734375 54.109375 11.28125 
L 54.109375 2.78125 
Q 49.265625 0.734375 44.1875 -0.34375 
Q 39.109375 -1.421875 33.890625 -1.421875 
Q 20.796875 -1.421875 13.15625 6.1875 
Q 5.515625 13.8125 5.515625 26.8125 
Q 5.515625 40.234375 12.765625 48.109375 
Q 20.015625 56 32.328125 56 
Q 43.359375 56 49.78125 48.890625 
Q 56.203125 41.796875 56.203125 29.59375 
z
M 47.21875 32.234375 
Q 47.125 39.59375 43.09375 43.984375 
Q 39.0625 48.390625 32.421875 48.390625 
Q 24.90625 48.390625 20.390625 44.140625 
Q 15.875 39.890625 15.1875 32.171875 
z
" id="DejaVuSans-101"/>
      <path d="M 9.421875 54.6875 
L 18.40625 54.6875 
L 18.40625 0 
L 9.421875 0 
z
M 9.421875 75.984375 
L 18.40625 75.984375 
L 18.40625 64.59375 
L 9.421875 64.59375 
z
" id="DejaVuSans-105"/>
      <path d="M 45.40625 27.984375 
Q 45.40625 37.75 41.375 43.109375 
Q 37.359375 48.484375 30.078125 48.484375 
Q 22.859375 48.484375 18.828125 43.109375 
Q 14.796875 37.75 14.796875 27.984375 
Q 14.796875 18.265625 18.828125 12.890625 
Q 22.859375 7.515625 30.078125 7.515625 
Q 37.359375 7.515625 41.375 12.890625 
Q 45.40625 18.265625 45.40625 27.984375 
z
M 54.390625 6.78125 
Q 54.390625 -7.171875 48.1875 -13.984375 
Q 42 -20.796875 29.203125 -20.796875 
Q 24.46875 -20.796875 20.265625 -20.09375 
Q 16.0625 -19.390625 12.109375 -17.921875 
L 12.109375 -9.1875 
Q 16.0625 -11.328125 19.921875 -12.34375 
Q 23.78125 -13.375 27.78125 -13.375 
Q 36.625 -13.375 41.015625 -8.765625 
Q 45.40625 -4.15625 45.40625 5.171875 
L 45.40625 9.625 
Q 42.625 4.78125 38.28125 2.390625 
Q 33.9375 0 27.875 0 
Q 17.828125 0 11.671875 7.65625 
Q 5.515625 15.328125 5.515625 27.984375 
Q 5.515625 40.671875 11.671875 48.328125 
Q 17.828125 56 27.875 56 
Q 33.9375 56 38.28125 53.609375 
Q 42.625 51.21875 45.40625 46.390625 
L 45.40625 54.6875 
L 54.390625 54.6875 
z
" id="DejaVuSans-103"/>
      <path d="M 54.890625 33.015625 
L 54.890625 0 
L 45.90625 0 
L 45.90625 32.71875 
Q 45.90625 40.484375 42.875 44.328125 
Q 39.84375 48.1875 33.796875 48.1875 
Q 26.515625 48.1875 22.3125 43.546875 
Q 18.109375 38.921875 18.109375 30.90625 
L 18.109375 0 
L 9.078125 0 
L 9.078125 75.984375 
L 18.109375 75.984375 
L 18.109375 46.1875 
Q 21.34375 51.125 25.703125 53.5625 
Q 30.078125 56 35.796875 56 
Q 45.21875 56 50.046875 50.171875 
Q 54.890625 44.34375 54.890625 33.015625 
z
" id="DejaVuSans-104"/>
      <path d="M 18.3125 70.21875 
L 18.3125 54.6875 
L 36.8125 54.6875 
L 36.8125 47.703125 
L 18.3125 47.703125 
L 18.3125 18.015625 
Q 18.3125 11.328125 20.140625 9.421875 
Q 21.96875 7.515625 27.59375 7.515625 
L 36.8125 7.515625 
L 36.8125 0 
L 27.59375 0 
Q 17.1875 0 13.234375 3.875 
Q 9.28125 7.765625 9.28125 18.015625 
L 9.28125 47.703125 
L 2.6875 47.703125 
L 2.6875 54.6875 
L 9.28125 54.6875 
L 9.28125 70.21875 
z
" id="DejaVuSans-116"/>
     </defs>
     <g transform="translate(218.451406 335.860562)scale(0.1 -0.1)">
      <use xlink:href="#DejaVuSans-87"/>
      <use x="98.798828" xlink:href="#DejaVuSans-101"/>
      <use x="160.322266" xlink:href="#DejaVuSans-105"/>
      <use x="188.105469" xlink:href="#DejaVuSans-103"/>
      <use x="251.582031" xlink:href="#DejaVuSans-104"/>
      <use x="314.960938" xlink:href="#DejaVuSans-116"/>
     </g>
    </g>
   </g>
   <g id="matplotlib.axis_2">
    <g id="ytick_1">
     <g id="line2d_7">
      <defs>
       <path d="M 0 0 
L -3.5 0 
" id="m6f29173761" style="stroke:#000000;stroke-width:0.8;"/>
      </defs>
      <g>
       <use style="stroke:#000000;stroke-width:0.8;" x="57.6" xlink:href="#m6f29173761" y="307.584"/>
      </g>
     </g>
     <g id="text_8">
      <!-- 0 -->
      <g transform="translate(44.2375 311.383219)scale(0.1 -0.1)">
       <use xlink:href="#DejaVuSans-48"/>
      </g>
     </g>
    </g>
    <g id="ytick_2">
     <g id="line2d_8">
      <g>
       <use style="stroke:#000000;stroke-width:0.8;" x="57.6" xlink:href="#m6f29173761" y="273.944499"/>
      </g>
     </g>
     <g id="text_9">
      <!-- 500 -->
      <g transform="translate(31.5125 277.743718)scale(0.1 -0.1)">
       <use xlink:href="#DejaVuSans-53"/>
       <use x="63.623047" xlink:href="#DejaVuSans-48"/>
       <use x="127.246094" xlink:href="#DejaVuSans-48"/>
      </g>
     </g>
    </g>
    <g id="ytick_3">
     <g id="line2d_9">
      <g>
       <use style="stroke:#000000;stroke-width:0.8;" x="57.6" xlink:href="#m6f29173761" y="240.304998"/>
      </g>
     </g>
     <g id="text_10">
      <!-- 1000 -->
      <g transform="translate(25.15 244.104217)scale(0.1 -0.1)">
       <use xlink:href="#DejaVuSans-49"/>
       <use x="63.623047" xlink:href="#DejaVuSans-48"/>
       <use x="127.246094" xlink:href="#DejaVuSans-48"/>
       <use x="190.869141" xlink:href="#DejaVuSans-48"/>
      </g>
     </g>
    </g>
    <g id="ytick_4">
     <g id="line2d_10">
      <g>
       <use style="stroke:#000000;stroke-width:0.8;" x="57.6" xlink:href="#m6f29173761" y="206.665497"/>
      </g>
     </g>
     <g id="text_11">
      <!-- 1500 -->
      <g transform="translate(25.15 210.464716)scale(0.1 -0.1)">
       <use xlink:href="#DejaVuSans-49"/>
       <use x="63.623047" xlink:href="#DejaVuSans-53"/>
       <use x="127.246094" xlink:href="#DejaVuSans-48"/>
       <use x="190.869141" xlink:href="#DejaVuSans-48"/>
      </g>
     </g>
    </g>
    <g id="ytick_5">
     <g id="line2d_11">
      <g>
       <use style="stroke:#000000;stroke-width:0.8;" x="57.6" xlink:href="#m6f29173761" y="173.025996"/>
      </g>
     </g>
     <g id="text_12">
      <!-- 2000 -->
      <g transform="translate(25.15 176.825215)scale(0.1 -0.1)">
       <use xlink:href="#DejaVuSans-50"/>
       <use x="63.623047" xlink:href="#DejaVuSans-48"/>
       <use x="127.246094" xlink:href="#DejaVuSans-48"/>
       <use x="190.869141" xlink:href="#DejaVuSans-48"/>
      </g>
     </g>
    </g>
    <g id="ytick_6">
     <g id="line2d_12">
      <g>
       <use style="stroke:#000000;stroke-width:0.8;" x="57.6" xlink:href="#m6f29173761" y="139.386495"/>
      </g>
     </g>
     <g id="text_13">
      <!-- 2500 -->
      <g transform="translate(25.15 143.185714)scale(0.1 -0.1)">
       <use xlink:href="#DejaVuSans-50"/>
       <use x="63.623047" xlink:href="#DejaVuSans-53"/>
       <use x="127.246094" xlink:href="#DejaVuSans-48"/>
       <use x="190.869141" xlink:href="#DejaVuSans-48"/>
      </g>
     </g>
    </g>
    <g id="ytick_7">
     <g id="line2d_13">
      <g>
       <use style="stroke:#000000;stroke-width:0.8;" x="57.6" xlink:href="#m6f29173761" y="105.746994"/>
      </g>
     </g>
     <g id="text_14">
      <!-- 3000 -->
      <defs>
       <path d="M 40.578125 39.3125 
Q 47.65625 37.796875 51.625 33 
Q 55.609375 28.21875 55.609375 21.1875 
Q 55.609375 10.40625 48.1875 4.484375 
Q 40.765625 -1.421875 27.09375 -1.421875 
Q 22.515625 -1.421875 17.65625 -0.515625 
Q 12.796875 0.390625 7.625 2.203125 
L 7.625 11.71875 
Q 11.71875 9.328125 16.59375 8.109375 
Q 21.484375 6.890625 26.8125 6.890625 
Q 36.078125 6.890625 40.9375 10.546875 
Q 45.796875 14.203125 45.796875 21.1875 
Q 45.796875 27.640625 41.28125 31.265625 
Q 36.765625 34.90625 28.71875 34.90625 
L 20.21875 34.90625 
L 20.21875 43.015625 
L 29.109375 43.015625 
Q 36.375 43.015625 40.234375 45.921875 
Q 44.09375 48.828125 44.09375 54.296875 
Q 44.09375 59.90625 40.109375 62.90625 
Q 36.140625 65.921875 28.71875 65.921875 
Q 24.65625 65.921875 20.015625 65.03125 
Q 15.375 64.15625 9.8125 62.3125 
L 9.8125 71.09375 
Q 15.4375 72.65625 20.34375 73.4375 
Q 25.25 74.21875 29.59375 74.21875 
Q 40.828125 74.21875 47.359375 69.109375 
Q 53.90625 64.015625 53.90625 55.328125 
Q 53.90625 49.265625 50.4375 45.09375 
Q 46.96875 40.921875 40.578125 39.3125 
z
" id="DejaVuSans-51"/>
      </defs>
      <g transform="translate(25.15 109.546213)scale(0.1 -0.1)">
       <use xlink:href="#DejaVuSans-51"/>
       <use x="63.623047" xlink:href="#DejaVuSans-48"/>
       <use x="127.246094" xlink:href="#DejaVuSans-48"/>
       <use x="190.869141" xlink:href="#DejaVuSans-48"/>
      </g>
     </g>
    </g>
    <g id="ytick_8">
     <g id="line2d_14">
      <g>
       <use style="stroke:#000000;stroke-width:0.8;" x="57.6" xlink:href="#m6f29173761" y="72.107493"/>
      </g>
     </g>
     <g id="text_15">
      <!-- 3500 -->
      <g transform="translate(25.15 75.906712)scale(0.1 -0.1)">
       <use xlink:href="#DejaVuSans-51"/>
       <use x="63.623047" xlink:href="#DejaVuSans-53"/>
       <use x="127.246094" xlink:href="#DejaVuSans-48"/>
       <use x="190.869141" xlink:href="#DejaVuSans-48"/>
      </g>
     </g>
    </g>
    <g id="text_16">
     <!-- Occurrencies -->
     <defs>
      <path d="M 39.40625 66.21875 
Q 28.65625 66.21875 22.328125 58.203125 
Q 16.015625 50.203125 16.015625 36.375 
Q 16.015625 22.609375 22.328125 14.59375 
Q 28.65625 6.59375 39.40625 6.59375 
Q 50.140625 6.59375 56.421875 14.59375 
Q 62.703125 22.609375 62.703125 36.375 
Q 62.703125 50.203125 56.421875 58.203125 
Q 50.140625 66.21875 39.40625 66.21875 
z
M 39.40625 74.21875 
Q 54.734375 74.21875 63.90625 63.9375 
Q 73.09375 53.65625 73.09375 36.375 
Q 73.09375 19.140625 63.90625 8.859375 
Q 54.734375 -1.421875 39.40625 -1.421875 
Q 24.03125 -1.421875 14.8125 8.828125 
Q 5.609375 19.09375 5.609375 36.375 
Q 5.609375 53.65625 14.8125 63.9375 
Q 24.03125 74.21875 39.40625 74.21875 
z
" id="DejaVuSans-79"/>
      <path d="M 48.78125 52.59375 
L 48.78125 44.1875 
Q 44.96875 46.296875 41.140625 47.34375 
Q 37.3125 48.390625 33.40625 48.390625 
Q 24.65625 48.390625 19.8125 42.84375 
Q 14.984375 37.3125 14.984375 27.296875 
Q 14.984375 17.28125 19.8125 11.734375 
Q 24.65625 6.203125 33.40625 6.203125 
Q 37.3125 6.203125 41.140625 7.25 
Q 44.96875 8.296875 48.78125 10.40625 
L 48.78125 2.09375 
Q 45.015625 0.34375 40.984375 -0.53125 
Q 36.96875 -1.421875 32.421875 -1.421875 
Q 20.0625 -1.421875 12.78125 6.34375 
Q 5.515625 14.109375 5.515625 27.296875 
Q 5.515625 40.671875 12.859375 48.328125 
Q 20.21875 56 33.015625 56 
Q 37.15625 56 41.109375 55.140625 
Q 45.0625 54.296875 48.78125 52.59375 
z
" id="DejaVuSans-99"/>
      <path d="M 8.5 21.578125 
L 8.5 54.6875 
L 17.484375 54.6875 
L 17.484375 21.921875 
Q 17.484375 14.15625 20.5 10.265625 
Q 23.53125 6.390625 29.59375 6.390625 
Q 36.859375 6.390625 41.078125 11.03125 
Q 45.3125 15.671875 45.3125 23.6875 
L 45.3125 54.6875 
L 54.296875 54.6875 
L 54.296875 0 
L 45.3125 0 
L 45.3125 8.40625 
Q 42.046875 3.421875 37.71875 1 
Q 33.40625 -1.421875 27.6875 -1.421875 
Q 18.265625 -1.421875 13.375 4.4375 
Q 8.5 10.296875 8.5 21.578125 
z
M 31.109375 56 
z
" id="DejaVuSans-117"/>
      <path d="M 41.109375 46.296875 
Q 39.59375 47.171875 37.8125 47.578125 
Q 36.03125 48 33.890625 48 
Q 26.265625 48 22.1875 43.046875 
Q 18.109375 38.09375 18.109375 28.8125 
L 18.109375 0 
L 9.078125 0 
L 9.078125 54.6875 
L 18.109375 54.6875 
L 18.109375 46.1875 
Q 20.953125 51.171875 25.484375 53.578125 
Q 30.03125 56 36.53125 56 
Q 37.453125 56 38.578125 55.875 
Q 39.703125 55.765625 41.0625 55.515625 
z
" id="DejaVuSans-114"/>
      <path d="M 54.890625 33.015625 
L 54.890625 0 
L 45.90625 0 
L 45.90625 32.71875 
Q 45.90625 40.484375 42.875 44.328125 
Q 39.84375 48.1875 33.796875 48.1875 
Q 26.515625 48.1875 22.3125 43.546875 
Q 18.109375 38.921875 18.109375 30.90625 
L 18.109375 0 
L 9.078125 0 
L 9.078125 54.6875 
L 18.109375 54.6875 
L 18.109375 46.1875 
Q 21.34375 51.125 25.703125 53.5625 
Q 30.078125 56 35.796875 56 
Q 45.21875 56 50.046875 50.171875 
Q 54.890625 44.34375 54.890625 33.015625 
z
" id="DejaVuSans-110"/>
      <path d="M 44.28125 53.078125 
L 44.28125 44.578125 
Q 40.484375 46.53125 36.375 47.5 
Q 32.28125 48.484375 27.875 48.484375 
Q 21.1875 48.484375 17.84375 46.4375 
Q 14.5 44.390625 14.5 40.28125 
Q 14.5 37.15625 16.890625 35.375 
Q 19.28125 33.59375 26.515625 31.984375 
L 29.59375 31.296875 
Q 39.15625 29.25 43.1875 25.515625 
Q 47.21875 21.78125 47.21875 15.09375 
Q 47.21875 7.46875 41.1875 3.015625 
Q 35.15625 -1.421875 24.609375 -1.421875 
Q 20.21875 -1.421875 15.453125 -0.5625 
Q 10.6875 0.296875 5.421875 2 
L 5.421875 11.28125 
Q 10.40625 8.6875 15.234375 7.390625 
Q 20.0625 6.109375 24.8125 6.109375 
Q 31.15625 6.109375 34.5625 8.28125 
Q 37.984375 10.453125 37.984375 14.40625 
Q 37.984375 18.0625 35.515625 20.015625 
Q 33.0625 21.96875 24.703125 23.78125 
L 21.578125 24.515625 
Q 13.234375 26.265625 9.515625 29.90625 
Q 5.8125 33.546875 5.8125 39.890625 
Q 5.8125 47.609375 11.28125 51.796875 
Q 16.75 56 26.8125 56 
Q 31.78125 56 36.171875 55.265625 
Q 40.578125 54.546875 44.28125 53.078125 
z
" id="DejaVuSans-115"/>
     </defs>
     <g transform="translate(19.070312 207.304563)rotate(-90)scale(0.1 -0.1)">
      <use xlink:href="#DejaVuSans-79"/>
      <use x="78.710938" xlink:href="#DejaVuSans-99"/>
      <use x="133.691406" xlink:href="#DejaVuSans-99"/>
      <use x="188.671875" xlink:href="#DejaVuSans-117"/>
      <use x="252.050781" xlink:href="#DejaVuSans-114"/>
      <use x="293.148438" xlink:href="#DejaVuSans-114"/>
      <use x="334.230469" xlink:href="#DejaVuSans-101"/>
      <use x="395.753906" xlink:href="#DejaVuSans-110"/>
      <use x="459.132812" xlink:href="#DejaVuSans-99"/>
      <use x="514.113281" xlink:href="#DejaVuSans-105"/>
      <use x="541.896484" xlink:href="#DejaVuSans-101"/>
      <use x="603.419922" xlink:href="#DejaVuSans-115"/>
     </g>
    </g>
   </g>
   <g id="patch_203">
    <path d="M 57.6 307.584 
L 57.6 41.472 
" style="fill:none;stroke:#000000;stroke-linecap:square;stroke-linejoin:miter;stroke-width:0.8;"/>
   </g>
   <g id="patch_204">
    <path d="M 414.72 307.584 
L 414.72 41.472 
" style="fill:none;stroke:#000000;stroke-linecap:square;stroke-linejoin:miter;stroke-width:0.8;"/>
   </g>
   <g id="patch_205">
    <path d="M 57.6 307.584 
L 414.72 307.584 
" style="fill:none;stroke:#000000;stroke-linecap:square;stroke-linejoin:miter;stroke-width:0.8;"/>
   </g>
   <g id="patch_206">
    <path d="M 57.6 41.472 
L 414.72 41.472 
" style="fill:none;stroke:#000000;stroke-linecap:square;stroke-linejoin:miter;stroke-width:0.8;"/>
   </g>
   <g id="text_17">
    <!-- Histogram of fc2 -->
    <defs>
     <path d="M 9.8125 72.90625 
L 19.671875 72.90625 
L 19.671875 43.015625 
L 55.515625 43.015625 
L 55.515625 72.90625 
L 65.375 72.90625 
L 65.375 0 
L 55.515625 0 
L 55.515625 34.71875 
L 19.671875 34.71875 
L 19.671875 0 
L 9.8125 0 
z
" id="DejaVuSans-72"/>
     <path d="M 30.609375 48.390625 
Q 23.390625 48.390625 19.1875 42.75 
Q 14.984375 37.109375 14.984375 27.296875 
Q 14.984375 17.484375 19.15625 11.84375 
Q 23.34375 6.203125 30.609375 6.203125 
Q 37.796875 6.203125 41.984375 11.859375 
Q 46.1875 17.53125 46.1875 27.296875 
Q 46.1875 37.015625 41.984375 42.703125 
Q 37.796875 48.390625 30.609375 48.390625 
z
M 30.609375 56 
Q 42.328125 56 49.015625 48.375 
Q 55.71875 40.765625 55.71875 27.296875 
Q 55.71875 13.875 49.015625 6.21875 
Q 42.328125 -1.421875 30.609375 -1.421875 
Q 18.84375 -1.421875 12.171875 6.21875 
Q 5.515625 13.875 5.515625 27.296875 
Q 5.515625 40.765625 12.171875 48.375 
Q 18.84375 56 30.609375 56 
z
" id="DejaVuSans-111"/>
     <path d="M 34.28125 27.484375 
Q 23.390625 27.484375 19.1875 25 
Q 14.984375 22.515625 14.984375 16.5 
Q 14.984375 11.71875 18.140625 8.90625 
Q 21.296875 6.109375 26.703125 6.109375 
Q 34.1875 6.109375 38.703125 11.40625 
Q 43.21875 16.703125 43.21875 25.484375 
L 43.21875 27.484375 
z
M 52.203125 31.203125 
L 52.203125 0 
L 43.21875 0 
L 43.21875 8.296875 
Q 40.140625 3.328125 35.546875 0.953125 
Q 30.953125 -1.421875 24.3125 -1.421875 
Q 15.921875 -1.421875 10.953125 3.296875 
Q 6 8.015625 6 15.921875 
Q 6 25.140625 12.171875 29.828125 
Q 18.359375 34.515625 30.609375 34.515625 
L 43.21875 34.515625 
L 43.21875 35.40625 
Q 43.21875 41.609375 39.140625 45 
Q 35.0625 48.390625 27.6875 48.390625 
Q 23 48.390625 18.546875 47.265625 
Q 14.109375 46.140625 10.015625 43.890625 
L 10.015625 52.203125 
Q 14.9375 54.109375 19.578125 55.046875 
Q 24.21875 56 28.609375 56 
Q 40.484375 56 46.34375 49.84375 
Q 52.203125 43.703125 52.203125 31.203125 
z
" id="DejaVuSans-97"/>
     <path d="M 52 44.1875 
Q 55.375 50.25 60.0625 53.125 
Q 64.75 56 71.09375 56 
Q 79.640625 56 84.28125 50.015625 
Q 88.921875 44.046875 88.921875 33.015625 
L 88.921875 0 
L 79.890625 0 
L 79.890625 32.71875 
Q 79.890625 40.578125 77.09375 44.375 
Q 74.3125 48.1875 68.609375 48.1875 
Q 61.625 48.1875 57.5625 43.546875 
Q 53.515625 38.921875 53.515625 30.90625 
L 53.515625 0 
L 44.484375 0 
L 44.484375 32.71875 
Q 44.484375 40.625 41.703125 44.40625 
Q 38.921875 48.1875 33.109375 48.1875 
Q 26.21875 48.1875 22.15625 43.53125 
Q 18.109375 38.875 18.109375 30.90625 
L 18.109375 0 
L 9.078125 0 
L 9.078125 54.6875 
L 18.109375 54.6875 
L 18.109375 46.1875 
Q 21.1875 51.21875 25.484375 53.609375 
Q 29.78125 56 35.6875 56 
Q 41.65625 56 45.828125 52.96875 
Q 50 49.953125 52 44.1875 
z
" id="DejaVuSans-109"/>
     <path id="DejaVuSans-32"/>
     <path d="M 37.109375 75.984375 
L 37.109375 68.5 
L 28.515625 68.5 
Q 23.6875 68.5 21.796875 66.546875 
Q 19.921875 64.59375 19.921875 59.515625 
L 19.921875 54.6875 
L 34.71875 54.6875 
L 34.71875 47.703125 
L 19.921875 47.703125 
L 19.921875 0 
L 10.890625 0 
L 10.890625 47.703125 
L 2.296875 47.703125 
L 2.296875 54.6875 
L 10.890625 54.6875 
L 10.890625 58.5 
Q 10.890625 67.625 15.140625 71.796875 
Q 19.390625 75.984375 28.609375 75.984375 
z
" id="DejaVuSans-102"/>
    </defs>
    <g transform="translate(186.209063 35.472)scale(0.12 -0.12)">
     <use xlink:href="#DejaVuSans-72"/>
     <use x="75.195312" xlink:href="#DejaVuSans-105"/>
     <use x="102.978516" xlink:href="#DejaVuSans-115"/>
     <use x="155.078125" xlink:href="#DejaVuSans-116"/>
     <use x="194.287109" xlink:href="#DejaVuSans-111"/>
     <use x="255.46875" xlink:href="#DejaVuSans-103"/>
     <use x="318.945312" xlink:href="#DejaVuSans-114"/>
     <use x="360.058594" xlink:href="#DejaVuSans-97"/>
     <use x="421.337891" xlink:href="#DejaVuSans-109"/>
     <use x="518.75" xlink:href="#DejaVuSans-32"/>
     <use x="550.537109" xlink:href="#DejaVuSans-111"/>
     <use x="611.71875" xlink:href="#DejaVuSans-102"/>
     <use x="646.923828" xlink:href="#DejaVuSans-32"/>
     <use x="678.710938" xlink:href="#DejaVuSans-102"/>
     <use x="713.916016" xlink:href="#DejaVuSans-99"/>
     <use x="768.896484" xlink:href="#DejaVuSans-50"/>
    </g>
   </g>
   <g id="legend_1">
    <g id="patch_207">
     <path d="M 323.679375 78.82825 
L 407.72 78.82825 
Q 409.72 78.82825 409.72 76.82825 
L 409.72 48.472 
Q 409.72 46.472 407.72 46.472 
L 323.679375 46.472 
Q 321.679375 46.472 321.679375 48.472 
L 321.679375 76.82825 
Q 321.679375 78.82825 323.679375 78.82825 
z
" style="fill:#ffffff;opacity:0.8;stroke:#cccccc;stroke-linejoin:miter;"/>
    </g>
    <g id="patch_208">
     <path d="M 325.679375 58.070437 
L 345.679375 58.070437 
L 345.679375 51.070437 
L 325.679375 51.070437 
z
" style="fill:#0000ff;"/>
    </g>
    <g id="text_18">
     <!-- unmasked -->
     <defs>
      <path d="M 9.078125 75.984375 
L 18.109375 75.984375 
L 18.109375 31.109375 
L 44.921875 54.6875 
L 56.390625 54.6875 
L 27.390625 29.109375 
L 57.625 0 
L 45.90625 0 
L 18.109375 26.703125 
L 18.109375 0 
L 9.078125 0 
z
" id="DejaVuSans-107"/>
      <path d="M 45.40625 46.390625 
L 45.40625 75.984375 
L 54.390625 75.984375 
L 54.390625 0 
L 45.40625 0 
L 45.40625 8.203125 
Q 42.578125 3.328125 38.25 0.953125 
Q 33.9375 -1.421875 27.875 -1.421875 
Q 17.96875 -1.421875 11.734375 6.484375 
Q 5.515625 14.40625 5.515625 27.296875 
Q 5.515625 40.1875 11.734375 48.09375 
Q 17.96875 56 27.875 56 
Q 33.9375 56 38.25 53.625 
Q 42.578125 51.265625 45.40625 46.390625 
z
M 14.796875 27.296875 
Q 14.796875 17.390625 18.875 11.75 
Q 22.953125 6.109375 30.078125 6.109375 
Q 37.203125 6.109375 41.296875 11.75 
Q 45.40625 17.390625 45.40625 27.296875 
Q 45.40625 37.203125 41.296875 42.84375 
Q 37.203125 48.484375 30.078125 48.484375 
Q 22.953125 48.484375 18.875 42.84375 
Q 14.796875 37.203125 14.796875 27.296875 
z
" id="DejaVuSans-100"/>
     </defs>
     <g transform="translate(353.679375 58.070437)scale(0.1 -0.1)">
      <use xlink:href="#DejaVuSans-117"/>
      <use x="63.378906" xlink:href="#DejaVuSans-110"/>
      <use x="126.757812" xlink:href="#DejaVuSans-109"/>
      <use x="224.169922" xlink:href="#DejaVuSans-97"/>
      <use x="285.449219" xlink:href="#DejaVuSans-115"/>
      <use x="337.548828" xlink:href="#DejaVuSans-107"/>
      <use x="395.412109" xlink:href="#DejaVuSans-101"/>
      <use x="456.935547" xlink:href="#DejaVuSans-100"/>
     </g>
    </g>
    <g id="patch_209">
     <path d="M 325.679375 72.748562 
L 345.679375 72.748562 
L 345.679375 65.748562 
L 325.679375 65.748562 
z
" style="fill:#808080;"/>
    </g>
    <g id="text_19">
     <!-- masked -->
     <g transform="translate(353.679375 72.748562)scale(0.1 -0.1)">
      <use xlink:href="#DejaVuSans-109"/>
      <use x="97.412109" xlink:href="#DejaVuSans-97"/>
      <use x="158.691406" xlink:href="#DejaVuSans-115"/>
      <use x="210.791016" xlink:href="#DejaVuSans-107"/>
      <use x="268.654297" xlink:href="#DejaVuSans-101"/>
      <use x="330.177734" xlink:href="#DejaVuSans-100"/>
     </g>
    </g>
   </g>
  </g>
 </g>
 <defs>
  <clipPath id="p6c7ea561d3">
   <rect height="266.112" width="357.12" x="57.6" y="41.472"/>
  </clipPath>
 </defs>
</svg>
