<?xml version="1.0" encoding="utf-8" standalone="no"?>
<!DOCTYPE svg PUBLIC "-//W3C//DTD SVG 1.1//EN"
  "http://www.w3.org/Graphics/SVG/1.1/DTD/svg11.dtd">
<!-- Created with matplotlib (https://matplotlib.org/) -->
<svg height="345.6pt" version="1.1" viewBox="0 0 460.8 345.6" width="460.8pt" xmlns="http://www.w3.org/2000/svg" xmlns:xlink="http://www.w3.org/1999/xlink">
 <defs>
  <style type="text/css">
*{stroke-linecap:butt;stroke-linejoin:round;}
  </style>
 </defs>
 <g id="figure_1">
  <g id="patch_1">
   <path d="M 0 345.6 
L 460.8 345.6 
L 460.8 0 
L 0 0 
z
" style="fill:#ffffff;"/>
  </g>
  <g id="axes_1">
   <g id="patch_2">
    <path d="M 57.6 307.584 
L 414.72 307.584 
L 414.72 41.472 
L 57.6 41.472 
z
" style="fill:#ffffff;"/>
   </g>
   <g id="patch_3">
    <path clip-path="url(#p042c160747)" d="M 73.832727 307.584 
L 77.079277 307.584 
L 77.079277 307.465274 
L 73.832727 307.465274 
z
" style="fill:#0000ff;"/>
   </g>
   <g id="patch_4">
    <path clip-path="url(#p042c160747)" d="M 77.079277 307.584 
L 80.325816 307.584 
L 80.325816 307.544425 
L 77.079277 307.544425 
z
" style="fill:#0000ff;"/>
   </g>
   <g id="patch_5">
    <path clip-path="url(#p042c160747)" d="M 80.325816 307.584 
L 83.572366 307.584 
L 83.572366 307.584 
L 80.325816 307.584 
z
" style="fill:#0000ff;"/>
   </g>
   <g id="patch_6">
    <path clip-path="url(#p042c160747)" d="M 83.572375 307.584 
L 86.818915 307.584 
L 86.818915 307.544425 
L 83.572375 307.544425 
z
" style="fill:#0000ff;"/>
   </g>
   <g id="patch_7">
    <path clip-path="url(#p042c160747)" d="M 86.818905 307.584 
L 90.065455 307.584 
L 90.065455 307.584 
L 86.818905 307.584 
z
" style="fill:#0000ff;"/>
   </g>
   <g id="patch_8">
    <path clip-path="url(#p042c160747)" d="M 90.065455 307.584 
L 93.312004 307.584 
L 93.312004 307.544425 
L 90.065455 307.544425 
z
" style="fill:#0000ff;"/>
   </g>
   <g id="patch_9">
    <path clip-path="url(#p042c160747)" d="M 93.312004 307.584 
L 96.558544 307.584 
L 96.558544 307.504849 
L 93.312004 307.504849 
z
" style="fill:#0000ff;"/>
   </g>
   <g id="patch_10">
    <path clip-path="url(#p042c160747)" d="M 96.558544 307.584 
L 99.805093 307.584 
L 99.805093 307.386124 
L 96.558544 307.386124 
z
" style="fill:#0000ff;"/>
   </g>
   <g id="patch_11">
    <path clip-path="url(#p042c160747)" d="M 99.805103 307.584 
L 103.051642 307.584 
L 103.051642 307.465274 
L 99.805103 307.465274 
z
" style="fill:#0000ff;"/>
   </g>
   <g id="patch_12">
    <path clip-path="url(#p042c160747)" d="M 103.051632 307.584 
L 106.298182 307.584 
L 106.298182 307.544425 
L 103.051632 307.544425 
z
" style="fill:#0000ff;"/>
   </g>
   <g id="patch_13">
    <path clip-path="url(#p042c160747)" d="M 106.298182 307.584 
L 109.544731 307.584 
L 109.544731 307.346548 
L 106.298182 307.346548 
z
" style="fill:#0000ff;"/>
   </g>
   <g id="patch_14">
    <path clip-path="url(#p042c160747)" d="M 109.544731 307.584 
L 112.791271 307.584 
L 112.791271 307.465274 
L 109.544731 307.465274 
z
" style="fill:#0000ff;"/>
   </g>
   <g id="patch_15">
    <path clip-path="url(#p042c160747)" d="M 112.791271 307.584 
L 116.03782 307.584 
L 116.03782 307.425699 
L 112.791271 307.425699 
z
" style="fill:#0000ff;"/>
   </g>
   <g id="patch_16">
    <path clip-path="url(#p042c160747)" d="M 116.03783 307.584 
L 119.284369 307.584 
L 119.284369 307.346548 
L 116.03783 307.346548 
z
" style="fill:#0000ff;"/>
   </g>
   <g id="patch_17">
    <path clip-path="url(#p042c160747)" d="M 119.28436 307.584 
L 122.530909 307.584 
L 122.530909 307.109097 
L 119.28436 307.109097 
z
" style="fill:#0000ff;"/>
   </g>
   <g id="patch_18">
    <path clip-path="url(#p042c160747)" d="M 122.530909 307.584 
L 125.777458 307.584 
L 125.777458 307.267398 
L 122.530909 307.267398 
z
" style="fill:#0000ff;"/>
   </g>
   <g id="patch_19">
    <path clip-path="url(#p042c160747)" d="M 125.777458 307.584 
L 129.023998 307.584 
L 129.023998 307.188247 
L 125.777458 307.188247 
z
" style="fill:#0000ff;"/>
   </g>
   <g id="patch_20">
    <path clip-path="url(#p042c160747)" d="M 129.023998 307.584 
L 132.270547 307.584 
L 132.270547 307.386124 
L 129.023998 307.386124 
z
" style="fill:#0000ff;"/>
   </g>
   <g id="patch_21">
    <path clip-path="url(#p042c160747)" d="M 132.270557 307.584 
L 135.517097 307.584 
L 135.517097 307.029946 
L 132.270557 307.029946 
z
" style="fill:#0000ff;"/>
   </g>
   <g id="patch_22">
    <path clip-path="url(#p042c160747)" d="M 135.517087 307.584 
L 138.763636 307.584 
L 138.763636 307.148672 
L 135.517087 307.148672 
z
" style="fill:#0000ff;"/>
   </g>
   <g id="patch_23">
    <path clip-path="url(#p042c160747)" d="M 138.763636 307.584 
L 142.010186 307.584 
L 142.010186 307.029946 
L 138.763636 307.029946 
z
" style="fill:#0000ff;"/>
   </g>
   <g id="patch_24">
    <path clip-path="url(#p042c160747)" d="M 142.010186 307.584 
L 145.256725 307.584 
L 145.256725 306.396742 
L 142.010186 306.396742 
z
" style="fill:#0000ff;"/>
   </g>
   <g id="patch_25">
    <path clip-path="url(#p042c160747)" d="M 145.256725 307.584 
L 148.503275 307.584 
L 148.503275 306.792495 
L 145.256725 306.792495 
z
" style="fill:#0000ff;"/>
   </g>
   <g id="patch_26">
    <path clip-path="url(#p042c160747)" d="M 148.503284 307.584 
L 151.749824 307.584 
L 151.749824 306.475893 
L 148.503284 306.475893 
z
" style="fill:#0000ff;"/>
   </g>
   <g id="patch_27">
    <path clip-path="url(#p042c160747)" d="M 151.749814 307.584 
L 154.996364 307.584 
L 154.996364 306.792495 
L 151.749814 306.792495 
z
" style="fill:#0000ff;"/>
   </g>
   <g id="patch_28">
    <path clip-path="url(#p042c160747)" d="M 154.996364 307.584 
L 158.242903 307.584 
L 158.242903 306.436317 
L 154.996364 306.436317 
z
" style="fill:#0000ff;"/>
   </g>
   <g id="patch_29">
    <path clip-path="url(#p042c160747)" d="M 158.242908 307.584 
L 161.489448 307.584 
L 161.489448 306.555043 
L 158.242908 306.555043 
z
" style="fill:#0000ff;"/>
   </g>
   <g id="patch_30">
    <path clip-path="url(#p042c160747)" d="M 161.489453 307.584 
L 164.736002 307.584 
L 164.736002 305.921839 
L 161.489453 305.921839 
z
" style="fill:#0000ff;"/>
   </g>
   <g id="patch_31">
    <path clip-path="url(#p042c160747)" d="M 164.736007 307.584 
L 167.982546 307.584 
L 167.982546 306.634194 
L 164.736007 306.634194 
z
" style="fill:#0000ff;"/>
   </g>
   <g id="patch_32">
    <path clip-path="url(#p042c160747)" d="M 167.982546 307.584 
L 171.229086 307.584 
L 171.229086 305.40736 
L 167.982546 305.40736 
z
" style="fill:#0000ff;"/>
   </g>
   <g id="patch_33">
    <path clip-path="url(#p042c160747)" d="M 171.229096 307.584 
L 174.475635 307.584 
L 174.475635 305.605237 
L 171.229096 305.605237 
z
" style="fill:#0000ff;"/>
   </g>
   <g id="patch_34">
    <path clip-path="url(#p042c160747)" d="M 174.475635 307.584 
L 177.722175 307.584 
L 177.722175 305.446936 
L 174.475635 305.446936 
z
" style="fill:#0000ff;"/>
   </g>
   <g id="patch_35">
    <path clip-path="url(#p042c160747)" d="M 177.72218 307.584 
L 180.968729 307.584 
L 180.968729 304.734581 
L 177.72218 304.734581 
z
" style="fill:#0000ff;"/>
   </g>
   <g id="patch_36">
    <path clip-path="url(#p042c160747)" d="M 180.968734 307.584 
L 184.215274 307.584 
L 184.215274 305.526086 
L 180.968734 305.526086 
z
" style="fill:#0000ff;"/>
   </g>
   <g id="patch_37">
    <path clip-path="url(#p042c160747)" d="M 184.215274 307.584 
L 187.461813 307.584 
L 187.461813 303.705624 
L 184.215274 303.705624 
z
" style="fill:#0000ff;"/>
   </g>
   <g id="patch_38">
    <path clip-path="url(#p042c160747)" d="M 187.461823 307.584 
L 190.708363 307.584 
L 190.708363 304.774156 
L 187.461823 304.774156 
z
" style="fill:#0000ff;"/>
   </g>
   <g id="patch_39">
    <path clip-path="url(#p042c160747)" d="M 190.708363 307.584 
L 193.954902 307.584 
L 193.954902 302.716242 
L 190.708363 302.716242 
z
" style="fill:#0000ff;"/>
   </g>
   <g id="patch_40">
    <path clip-path="url(#p042c160747)" d="M 193.954907 307.584 
L 197.201456 307.584 
L 197.201456 304.259678 
L 193.954907 304.259678 
z
" style="fill:#0000ff;"/>
   </g>
   <g id="patch_41">
    <path clip-path="url(#p042c160747)" d="M 197.201452 307.584 
L 200.448001 307.584 
L 200.448001 302.083038 
L 197.201452 302.083038 
z
" style="fill:#0000ff;"/>
   </g>
   <g id="patch_42">
    <path clip-path="url(#p042c160747)" d="M 200.448003 307.584 
L 203.694543 307.584 
L 203.694543 303.863925 
L 200.448003 303.863925 
z
" style="fill:#0000ff;"/>
   </g>
   <g id="patch_43">
    <path clip-path="url(#p042c160747)" d="M 203.694548 307.584 
L 206.941088 307.584 
L 206.941088 300.579178 
L 203.694548 300.579178 
z
" style="fill:#0000ff;"/>
   </g>
   <g id="patch_44">
    <path clip-path="url(#p042c160747)" d="M 206.94109 307.584 
L 210.187639 307.584 
L 210.187639 300.104275 
L 206.94109 300.104275 
z
" style="fill:#0000ff;"/>
   </g>
   <g id="patch_45">
    <path clip-path="url(#p042c160747)" d="M 210.187639 307.584 
L 213.434179 307.584 
L 213.434179 300.974931 
L 210.187639 300.974931 
z
" style="fill:#0000ff;"/>
   </g>
   <g id="patch_46">
    <path clip-path="url(#p042c160747)" d="M 213.434179 307.584 
L 216.680728 307.584 
L 216.680728 291.12069 
L 213.434179 291.12069 
z
" style="fill:#0000ff;"/>
   </g>
   <g id="patch_47">
    <path clip-path="url(#p042c160747)" d="M 216.680726 307.584 
L 219.927275 307.584 
L 219.927275 287.084012 
L 216.680726 287.084012 
z
" style="fill:#0000ff;"/>
   </g>
   <g id="patch_48">
    <path clip-path="url(#p042c160747)" d="M 219.92727 307.584 
L 223.17382 307.584 
L 223.17382 270.739428 
L 219.92727 270.739428 
z
" style="fill:#0000ff;"/>
   </g>
   <g id="patch_49">
    <path clip-path="url(#p042c160747)" d="M 223.173817 307.584 
L 226.420367 307.584 
L 226.420367 280.989422 
L 223.173817 280.989422 
z
" style="fill:#0000ff;"/>
   </g>
   <g id="patch_50">
    <path clip-path="url(#p042c160747)" d="M 226.420362 307.584 
L 229.666911 307.584 
L 229.666911 264.723988 
L 226.420362 264.723988 
z
" style="fill:#0000ff;"/>
   </g>
   <g id="patch_51">
    <path clip-path="url(#p042c160747)" d="M 229.666907 307.584 
L 232.913457 307.584 
L 232.913457 281.345599 
L 229.666907 281.345599 
z
" style="fill:#0000ff;"/>
   </g>
   <g id="patch_52">
    <path clip-path="url(#p042c160747)" d="M 232.913452 307.584 
L 236.160002 307.584 
L 236.160002 268.523213 
L 232.913452 268.523213 
z
" style="fill:#0000ff;"/>
   </g>
   <g id="patch_53">
    <path clip-path="url(#p042c160747)" d="M 236.159998 307.584 
L 239.406548 307.584 
L 239.406548 275.607186 
L 236.159998 275.607186 
z
" style="fill:#0000ff;"/>
   </g>
   <g id="patch_54">
    <path clip-path="url(#p042c160747)" d="M 239.406543 307.584 
L 242.653093 307.584 
L 242.653093 293.930533 
L 239.406543 293.930533 
z
" style="fill:#0000ff;"/>
   </g>
   <g id="patch_55">
    <path clip-path="url(#p042c160747)" d="M 242.653089 307.584 
L 245.899638 307.584 
L 245.899638 295.078216 
L 242.653089 295.078216 
z
" style="fill:#0000ff;"/>
   </g>
   <g id="patch_56">
    <path clip-path="url(#p042c160747)" d="M 245.899635 307.584 
L 249.146184 307.584 
L 249.146184 300.81663 
L 245.899635 300.81663 
z
" style="fill:#0000ff;"/>
   </g>
   <g id="patch_57">
    <path clip-path="url(#p042c160747)" d="M 249.14618 307.584 
L 252.39273 307.584 
L 252.39273 299.550221 
L 249.14618 299.550221 
z
" style="fill:#0000ff;"/>
   </g>
   <g id="patch_58">
    <path clip-path="url(#p042c160747)" d="M 252.392725 307.584 
L 255.639274 307.584 
L 255.639274 301.885162 
L 252.392725 301.885162 
z
" style="fill:#0000ff;"/>
   </g>
   <g id="patch_59">
    <path clip-path="url(#p042c160747)" d="M 255.639272 307.584 
L 258.885821 307.584 
L 258.885821 300.104275 
L 255.639272 300.104275 
z
" style="fill:#0000ff;"/>
   </g>
   <g id="patch_60">
    <path clip-path="url(#p042c160747)" d="M 258.885821 307.584 
L 262.132361 307.584 
L 262.132361 302.795393 
L 258.885821 302.795393 
z
" style="fill:#0000ff;"/>
   </g>
   <g id="patch_61">
    <path clip-path="url(#p042c160747)" d="M 262.132361 307.584 
L 265.37891 307.584 
L 265.37891 301.885162 
L 262.132361 301.885162 
z
" style="fill:#0000ff;"/>
   </g>
   <g id="patch_62">
    <path clip-path="url(#p042c160747)" d="M 265.378912 307.584 
L 268.625452 307.584 
L 268.625452 304.457554 
L 265.378912 304.457554 
z
" style="fill:#0000ff;"/>
   </g>
   <g id="patch_63">
    <path clip-path="url(#p042c160747)" d="M 268.625457 307.584 
L 271.871997 307.584 
L 271.871997 303.309871 
L 268.625457 303.309871 
z
" style="fill:#0000ff;"/>
   </g>
   <g id="patch_64">
    <path clip-path="url(#p042c160747)" d="M 271.871999 307.584 
L 275.118548 307.584 
L 275.118548 303.982651 
L 271.871999 303.982651 
z
" style="fill:#0000ff;"/>
   </g>
   <g id="patch_65">
    <path clip-path="url(#p042c160747)" d="M 275.118544 307.584 
L 278.365093 307.584 
L 278.365093 305.605237 
L 275.118544 305.605237 
z
" style="fill:#0000ff;"/>
   </g>
   <g id="patch_66">
    <path clip-path="url(#p042c160747)" d="M 278.365098 307.584 
L 281.611637 307.584 
L 281.611637 305.011608 
L 278.365098 305.011608 
z
" style="fill:#0000ff;"/>
   </g>
   <g id="patch_67">
    <path clip-path="url(#p042c160747)" d="M 281.611637 307.584 
L 284.858177 307.584 
L 284.858177 306.396742 
L 281.611637 306.396742 
z
" style="fill:#0000ff;"/>
   </g>
   <g id="patch_68">
    <path clip-path="url(#p042c160747)" d="M 284.858187 307.584 
L 288.104726 307.584 
L 288.104726 305.644812 
L 284.858187 305.644812 
z
" style="fill:#0000ff;"/>
   </g>
   <g id="patch_69">
    <path clip-path="url(#p042c160747)" d="M 288.104726 307.584 
L 291.351266 307.584 
L 291.351266 306.555043 
L 288.104726 306.555043 
z
" style="fill:#0000ff;"/>
   </g>
   <g id="patch_70">
    <path clip-path="url(#p042c160747)" d="M 291.351271 307.584 
L 294.59782 307.584 
L 294.59782 306.713344 
L 291.351271 306.713344 
z
" style="fill:#0000ff;"/>
   </g>
   <g id="patch_71">
    <path clip-path="url(#p042c160747)" d="M 294.597825 307.584 
L 297.844365 307.584 
L 297.844365 306.792495 
L 294.597825 306.792495 
z
" style="fill:#0000ff;"/>
   </g>
   <g id="patch_72">
    <path clip-path="url(#p042c160747)" d="M 297.844365 307.584 
L 301.090904 307.584 
L 301.090904 307.069522 
L 297.844365 307.069522 
z
" style="fill:#0000ff;"/>
   </g>
   <g id="patch_73">
    <path clip-path="url(#p042c160747)" d="M 301.090914 307.584 
L 304.337454 307.584 
L 304.337454 307.029946 
L 301.090914 307.029946 
z
" style="fill:#0000ff;"/>
   </g>
   <g id="patch_74">
    <path clip-path="url(#p042c160747)" d="M 304.337454 307.584 
L 307.583993 307.584 
L 307.583993 307.306973 
L 304.337454 307.306973 
z
" style="fill:#0000ff;"/>
   </g>
   <g id="patch_75">
    <path clip-path="url(#p042c160747)" d="M 307.583998 307.584 
L 310.830547 307.584 
L 310.830547 307.227823 
L 307.583998 307.227823 
z
" style="fill:#0000ff;"/>
   </g>
   <g id="patch_76">
    <path clip-path="url(#p042c160747)" d="M 310.830552 307.584 
L 314.077092 307.584 
L 314.077092 307.465274 
L 310.830552 307.465274 
z
" style="fill:#0000ff;"/>
   </g>
   <g id="patch_77">
    <path clip-path="url(#p042c160747)" d="M 314.077092 307.584 
L 317.323632 307.584 
L 317.323632 307.227823 
L 314.077092 307.227823 
z
" style="fill:#0000ff;"/>
   </g>
   <g id="patch_78">
    <path clip-path="url(#p042c160747)" d="M 317.323636 307.584 
L 320.570186 307.584 
L 320.570186 307.465274 
L 317.323636 307.465274 
z
" style="fill:#0000ff;"/>
   </g>
   <g id="patch_79">
    <path clip-path="url(#p042c160747)" d="M 320.570186 307.584 
L 323.816725 307.584 
L 323.816725 307.425699 
L 320.570186 307.425699 
z
" style="fill:#0000ff;"/>
   </g>
   <g id="patch_80">
    <path clip-path="url(#p042c160747)" d="M 323.816725 307.584 
L 327.063275 307.584 
L 327.063275 307.504849 
L 323.816725 307.504849 
z
" style="fill:#0000ff;"/>
   </g>
   <g id="patch_81">
    <path clip-path="url(#p042c160747)" d="M 327.063284 307.584 
L 330.309824 307.584 
L 330.309824 307.544425 
L 327.063284 307.544425 
z
" style="fill:#0000ff;"/>
   </g>
   <g id="patch_82">
    <path clip-path="url(#p042c160747)" d="M 330.309814 307.584 
L 333.556364 307.584 
L 333.556364 307.504849 
L 330.309814 307.504849 
z
" style="fill:#0000ff;"/>
   </g>
   <g id="patch_83">
    <path clip-path="url(#p042c160747)" d="M 333.556364 307.584 
L 336.802913 307.584 
L 336.802913 307.504849 
L 333.556364 307.504849 
z
" style="fill:#0000ff;"/>
   </g>
   <g id="patch_84">
    <path clip-path="url(#p042c160747)" d="M 336.802913 307.584 
L 340.049453 307.584 
L 340.049453 307.584 
L 336.802913 307.584 
z
" style="fill:#0000ff;"/>
   </g>
   <g id="patch_85">
    <path clip-path="url(#p042c160747)" d="M 340.049453 307.584 
L 343.296002 307.584 
L 343.296002 307.584 
L 340.049453 307.584 
z
" style="fill:#0000ff;"/>
   </g>
   <g id="patch_86">
    <path clip-path="url(#p042c160747)" d="M 343.296012 307.584 
L 346.542551 307.584 
L 346.542551 307.544425 
L 343.296012 307.544425 
z
" style="fill:#0000ff;"/>
   </g>
   <g id="patch_87">
    <path clip-path="url(#p042c160747)" d="M 346.542542 307.584 
L 349.789091 307.584 
L 349.789091 307.584 
L 346.542542 307.584 
z
" style="fill:#0000ff;"/>
   </g>
   <g id="patch_88">
    <path clip-path="url(#p042c160747)" d="M 349.789091 307.584 
L 353.03564 307.584 
L 353.03564 307.584 
L 349.789091 307.584 
z
" style="fill:#0000ff;"/>
   </g>
   <g id="patch_89">
    <path clip-path="url(#p042c160747)" d="M 353.03564 307.584 
L 356.28218 307.584 
L 356.28218 307.544425 
L 353.03564 307.544425 
z
" style="fill:#0000ff;"/>
   </g>
   <g id="patch_90">
    <path clip-path="url(#p042c160747)" d="M 356.28218 307.584 
L 359.528729 307.584 
L 359.528729 307.584 
L 356.28218 307.584 
z
" style="fill:#0000ff;"/>
   </g>
   <g id="patch_91">
    <path clip-path="url(#p042c160747)" d="M 359.528739 307.584 
L 362.775279 307.584 
L 362.775279 307.584 
L 359.528739 307.584 
z
" style="fill:#0000ff;"/>
   </g>
   <g id="patch_92">
    <path clip-path="url(#p042c160747)" d="M 362.775269 307.584 
L 366.021818 307.584 
L 366.021818 307.584 
L 362.775269 307.584 
z
" style="fill:#0000ff;"/>
   </g>
   <g id="patch_93">
    <path clip-path="url(#p042c160747)" d="M 366.021818 307.584 
L 369.268368 307.584 
L 369.268368 307.544425 
L 366.021818 307.544425 
z
" style="fill:#0000ff;"/>
   </g>
   <g id="patch_94">
    <path clip-path="url(#p042c160747)" d="M 369.268368 307.584 
L 372.514907 307.584 
L 372.514907 307.544425 
L 369.268368 307.544425 
z
" style="fill:#0000ff;"/>
   </g>
   <g id="patch_95">
    <path clip-path="url(#p042c160747)" d="M 372.514907 307.584 
L 375.761456 307.584 
L 375.761456 307.544425 
L 372.514907 307.544425 
z
" style="fill:#0000ff;"/>
   </g>
   <g id="patch_96">
    <path clip-path="url(#p042c160747)" d="M 375.761466 307.584 
L 379.008006 307.584 
L 379.008006 307.584 
L 375.761466 307.584 
z
" style="fill:#0000ff;"/>
   </g>
   <g id="patch_97">
    <path clip-path="url(#p042c160747)" d="M 379.007996 307.584 
L 382.254545 307.584 
L 382.254545 307.584 
L 379.007996 307.584 
z
" style="fill:#0000ff;"/>
   </g>
   <g id="patch_98">
    <path clip-path="url(#p042c160747)" d="M 382.254545 307.584 
L 385.501095 307.584 
L 385.501095 307.584 
L 382.254545 307.584 
z
" style="fill:#0000ff;"/>
   </g>
   <g id="patch_99">
    <path clip-path="url(#p042c160747)" d="M 385.501095 307.584 
L 388.747634 307.584 
L 388.747634 307.584 
L 385.501095 307.584 
z
" style="fill:#0000ff;"/>
   </g>
   <g id="patch_100">
    <path clip-path="url(#p042c160747)" d="M 388.747634 307.584 
L 391.994184 307.584 
L 391.994184 307.584 
L 388.747634 307.584 
z
" style="fill:#0000ff;"/>
   </g>
   <g id="patch_101">
    <path clip-path="url(#p042c160747)" d="M 391.994193 307.584 
L 395.240733 307.584 
L 395.240733 307.584 
L 391.994193 307.584 
z
" style="fill:#0000ff;"/>
   </g>
   <g id="patch_102">
    <path clip-path="url(#p042c160747)" d="M 395.240723 307.584 
L 398.487273 307.584 
L 398.487273 307.544425 
L 395.240723 307.544425 
z
" style="fill:#0000ff;"/>
   </g>
   <g id="patch_103">
    <path clip-path="url(#p042c160747)" d="M 81.471658 307.584 
L 83.5851 307.584 
L 83.5851 307.544425 
L 81.471658 307.544425 
z
" style="fill:#808080;"/>
   </g>
   <g id="patch_104">
    <path clip-path="url(#p042c160747)" d="M 83.5851 307.584 
L 85.698532 307.584 
L 85.698532 307.504849 
L 83.5851 307.504849 
z
" style="fill:#808080;"/>
   </g>
   <g id="patch_105">
    <path clip-path="url(#p042c160747)" d="M 85.698532 307.584 
L 87.811974 307.584 
L 87.811974 307.584 
L 85.698532 307.584 
z
" style="fill:#808080;"/>
   </g>
   <g id="patch_106">
    <path clip-path="url(#p042c160747)" d="M 87.811965 307.584 
L 89.925397 307.584 
L 89.925397 307.465274 
L 87.811965 307.465274 
z
" style="fill:#808080;"/>
   </g>
   <g id="patch_107">
    <path clip-path="url(#p042c160747)" d="M 89.925407 307.584 
L 92.038849 307.584 
L 92.038849 307.584 
L 89.925407 307.584 
z
" style="fill:#808080;"/>
   </g>
   <g id="patch_108">
    <path clip-path="url(#p042c160747)" d="M 92.038849 307.584 
L 94.152281 307.584 
L 94.152281 307.584 
L 92.038849 307.584 
z
" style="fill:#808080;"/>
   </g>
   <g id="patch_109">
    <path clip-path="url(#p042c160747)" d="M 94.152281 307.584 
L 96.265723 307.584 
L 96.265723 307.584 
L 94.152281 307.584 
z
" style="fill:#808080;"/>
   </g>
   <g id="patch_110">
    <path clip-path="url(#p042c160747)" d="M 96.265714 307.584 
L 98.379146 307.584 
L 98.379146 307.584 
L 96.265714 307.584 
z
" style="fill:#808080;"/>
   </g>
   <g id="patch_111">
    <path clip-path="url(#p042c160747)" d="M 98.379156 307.584 
L 100.492598 307.584 
L 100.492598 307.584 
L 98.379156 307.584 
z
" style="fill:#808080;"/>
   </g>
   <g id="patch_112">
    <path clip-path="url(#p042c160747)" d="M 100.492598 307.584 
L 102.60603 307.584 
L 102.60603 307.584 
L 100.492598 307.584 
z
" style="fill:#808080;"/>
   </g>
   <g id="patch_113">
    <path clip-path="url(#p042c160747)" d="M 102.60603 307.584 
L 104.719472 307.584 
L 104.719472 307.584 
L 102.60603 307.584 
z
" style="fill:#808080;"/>
   </g>
   <g id="patch_114">
    <path clip-path="url(#p042c160747)" d="M 104.719463 307.584 
L 106.832895 307.584 
L 106.832895 307.584 
L 104.719463 307.584 
z
" style="fill:#808080;"/>
   </g>
   <g id="patch_115">
    <path clip-path="url(#p042c160747)" d="M 106.832905 307.584 
L 108.946347 307.584 
L 108.946347 307.584 
L 106.832905 307.584 
z
" style="fill:#808080;"/>
   </g>
   <g id="patch_116">
    <path clip-path="url(#p042c160747)" d="M 108.946347 307.584 
L 111.059779 307.584 
L 111.059779 307.584 
L 108.946347 307.584 
z
" style="fill:#808080;"/>
   </g>
   <g id="patch_117">
    <path clip-path="url(#p042c160747)" d="M 111.059779 307.584 
L 113.173221 307.584 
L 113.173221 307.584 
L 111.059779 307.584 
z
" style="fill:#808080;"/>
   </g>
   <g id="patch_118">
    <path clip-path="url(#p042c160747)" d="M 113.173211 307.584 
L 115.286644 307.584 
L 115.286644 307.584 
L 113.173211 307.584 
z
" style="fill:#808080;"/>
   </g>
   <g id="patch_119">
    <path clip-path="url(#p042c160747)" d="M 115.286654 307.584 
L 117.400096 307.584 
L 117.400096 307.584 
L 115.286654 307.584 
z
" style="fill:#808080;"/>
   </g>
   <g id="patch_120">
    <path clip-path="url(#p042c160747)" d="M 117.400096 307.584 
L 119.513528 307.584 
L 119.513528 307.584 
L 117.400096 307.584 
z
" style="fill:#808080;"/>
   </g>
   <g id="patch_121">
    <path clip-path="url(#p042c160747)" d="M 119.513528 307.584 
L 121.62697 307.584 
L 121.62697 307.584 
L 119.513528 307.584 
z
" style="fill:#808080;"/>
   </g>
   <g id="patch_122">
    <path clip-path="url(#p042c160747)" d="M 121.62696 307.584 
L 123.740393 307.584 
L 123.740393 307.109097 
L 121.62696 307.109097 
z
" style="fill:#808080;"/>
   </g>
   <g id="patch_123">
    <path clip-path="url(#p042c160747)" d="M 123.740403 307.584 
L 125.853845 307.584 
L 125.853845 307.267398 
L 123.740403 307.267398 
z
" style="fill:#808080;"/>
   </g>
   <g id="patch_124">
    <path clip-path="url(#p042c160747)" d="M 125.853845 307.584 
L 127.967277 307.584 
L 127.967277 307.188247 
L 125.853845 307.188247 
z
" style="fill:#808080;"/>
   </g>
   <g id="patch_125">
    <path clip-path="url(#p042c160747)" d="M 127.967277 307.584 
L 130.080719 307.584 
L 130.080719 300.777054 
L 127.967277 300.777054 
z
" style="fill:#808080;"/>
   </g>
   <g id="patch_126">
    <path clip-path="url(#p042c160747)" d="M 130.080709 307.584 
L 132.194142 307.584 
L 132.194142 307.584 
L 130.080709 307.584 
z
" style="fill:#808080;"/>
   </g>
   <g id="patch_127">
    <path clip-path="url(#p042c160747)" d="M 132.194151 307.584 
L 134.307594 307.584 
L 134.307594 307.584 
L 132.194151 307.584 
z
" style="fill:#808080;"/>
   </g>
   <g id="patch_128">
    <path clip-path="url(#p042c160747)" d="M 134.307594 307.584 
L 136.421036 307.584 
L 136.421036 307.584 
L 134.307594 307.584 
z
" style="fill:#808080;"/>
   </g>
   <g id="patch_129">
    <path clip-path="url(#p042c160747)" d="M 136.421036 307.584 
L 138.534468 307.584 
L 138.534468 307.584 
L 136.421036 307.584 
z
" style="fill:#808080;"/>
   </g>
   <g id="patch_130">
    <path clip-path="url(#p042c160747)" d="M 138.534468 307.584 
L 140.64791 307.584 
L 140.64791 307.584 
L 138.534468 307.584 
z
" style="fill:#808080;"/>
   </g>
   <g id="patch_131">
    <path clip-path="url(#p042c160747)" d="M 140.6479 307.584 
L 142.761333 307.584 
L 142.761333 307.584 
L 140.6479 307.584 
z
" style="fill:#808080;"/>
   </g>
   <g id="patch_132">
    <path clip-path="url(#p042c160747)" d="M 142.761343 307.584 
L 144.874785 307.584 
L 144.874785 307.584 
L 142.761343 307.584 
z
" style="fill:#808080;"/>
   </g>
   <g id="patch_133">
    <path clip-path="url(#p042c160747)" d="M 144.874785 307.584 
L 146.988217 307.584 
L 146.988217 307.584 
L 144.874785 307.584 
z
" style="fill:#808080;"/>
   </g>
   <g id="patch_134">
    <path clip-path="url(#p042c160747)" d="M 146.988217 307.584 
L 149.101659 307.584 
L 149.101659 307.584 
L 146.988217 307.584 
z
" style="fill:#808080;"/>
   </g>
   <g id="patch_135">
    <path clip-path="url(#p042c160747)" d="M 149.101649 307.584 
L 151.215082 307.584 
L 151.215082 307.584 
L 149.101649 307.584 
z
" style="fill:#808080;"/>
   </g>
   <g id="patch_136">
    <path clip-path="url(#p042c160747)" d="M 151.215091 307.584 
L 153.328534 307.584 
L 153.328534 307.584 
L 151.215091 307.584 
z
" style="fill:#808080;"/>
   </g>
   <g id="patch_137">
    <path clip-path="url(#p042c160747)" d="M 153.328534 307.584 
L 155.441966 307.584 
L 155.441966 307.584 
L 153.328534 307.584 
z
" style="fill:#808080;"/>
   </g>
   <g id="patch_138">
    <path clip-path="url(#p042c160747)" d="M 155.441966 307.584 
L 157.555408 307.584 
L 157.555408 307.584 
L 155.441966 307.584 
z
" style="fill:#808080;"/>
   </g>
   <g id="patch_139">
    <path clip-path="url(#p042c160747)" d="M 157.555398 307.584 
L 159.66884 307.584 
L 159.66884 307.584 
L 157.555398 307.584 
z
" style="fill:#808080;"/>
   </g>
   <g id="patch_140">
    <path clip-path="url(#p042c160747)" d="M 159.66884 307.584 
L 161.782283 307.584 
L 161.782283 307.584 
L 159.66884 307.584 
z
" style="fill:#808080;"/>
   </g>
   <g id="patch_141">
    <path clip-path="url(#p042c160747)" d="M 161.782283 307.584 
L 163.895725 307.584 
L 163.895725 307.584 
L 161.782283 307.584 
z
" style="fill:#808080;"/>
   </g>
   <g id="patch_142">
    <path clip-path="url(#p042c160747)" d="M 163.895715 307.584 
L 166.009157 307.584 
L 166.009157 307.584 
L 163.895715 307.584 
z
" style="fill:#808080;"/>
   </g>
   <g id="patch_143">
    <path clip-path="url(#p042c160747)" d="M 166.009157 307.584 
L 168.122599 307.584 
L 168.122599 307.584 
L 166.009157 307.584 
z
" style="fill:#808080;"/>
   </g>
   <g id="patch_144">
    <path clip-path="url(#p042c160747)" d="M 168.122589 307.584 
L 170.236032 307.584 
L 170.236032 307.584 
L 168.122589 307.584 
z
" style="fill:#808080;"/>
   </g>
   <g id="patch_145">
    <path clip-path="url(#p042c160747)" d="M 170.236032 307.584 
L 172.349474 307.584 
L 172.349474 307.584 
L 170.236032 307.584 
z
" style="fill:#808080;"/>
   </g>
   <g id="patch_146">
    <path clip-path="url(#p042c160747)" d="M 172.349464 307.584 
L 174.462906 307.584 
L 174.462906 307.584 
L 172.349464 307.584 
z
" style="fill:#808080;"/>
   </g>
   <g id="patch_147">
    <path clip-path="url(#p042c160747)" d="M 174.462906 307.584 
L 176.576348 307.584 
L 176.576348 307.584 
L 174.462906 307.584 
z
" style="fill:#808080;"/>
   </g>
   <g id="patch_148">
    <path clip-path="url(#p042c160747)" d="M 176.576338 307.584 
L 178.68978 307.584 
L 178.68978 307.584 
L 176.576338 307.584 
z
" style="fill:#808080;"/>
   </g>
   <g id="patch_149">
    <path clip-path="url(#p042c160747)" d="M 178.68978 307.584 
L 180.803223 307.584 
L 180.803223 307.584 
L 178.68978 307.584 
z
" style="fill:#808080;"/>
   </g>
   <g id="patch_150">
    <path clip-path="url(#p042c160747)" d="M 180.803213 307.584 
L 182.916655 307.584 
L 182.916655 307.584 
L 180.803213 307.584 
z
" style="fill:#808080;"/>
   </g>
   <g id="patch_151">
    <path clip-path="url(#p042c160747)" d="M 182.916655 307.584 
L 185.030097 307.584 
L 185.030097 307.584 
L 182.916655 307.584 
z
" style="fill:#808080;"/>
   </g>
   <g id="patch_152">
    <path clip-path="url(#p042c160747)" d="M 185.030087 307.584 
L 187.143529 307.584 
L 187.143529 307.584 
L 185.030087 307.584 
z
" style="fill:#808080;"/>
   </g>
   <g id="patch_153">
    <path clip-path="url(#p042c160747)" d="M 187.143529 307.584 
L 189.256972 307.584 
L 189.256972 307.584 
L 187.143529 307.584 
z
" style="fill:#808080;"/>
   </g>
   <g id="patch_154">
    <path clip-path="url(#p042c160747)" d="M 189.256962 307.584 
L 191.370404 307.584 
L 191.370404 307.584 
L 189.256962 307.584 
z
" style="fill:#808080;"/>
   </g>
   <g id="patch_155">
    <path clip-path="url(#p042c160747)" d="M 191.370404 307.584 
L 193.483846 307.584 
L 193.483846 307.584 
L 191.370404 307.584 
z
" style="fill:#808080;"/>
   </g>
   <g id="patch_156">
    <path clip-path="url(#p042c160747)" d="M 193.483836 307.584 
L 195.597278 307.584 
L 195.597278 307.584 
L 193.483836 307.584 
z
" style="fill:#808080;"/>
   </g>
   <g id="patch_157">
    <path clip-path="url(#p042c160747)" d="M 195.597278 307.584 
L 197.71072 307.584 
L 197.71072 307.584 
L 195.597278 307.584 
z
" style="fill:#808080;"/>
   </g>
   <g id="patch_158">
    <path clip-path="url(#p042c160747)" d="M 197.710713 307.584 
L 199.824155 307.584 
L 199.824155 307.584 
L 197.710713 307.584 
z
" style="fill:#808080;"/>
   </g>
   <g id="patch_159">
    <path clip-path="url(#p042c160747)" d="M 199.824153 307.584 
L 201.937595 307.584 
L 201.937595 307.584 
L 199.824153 307.584 
z
" style="fill:#808080;"/>
   </g>
   <g id="patch_160">
    <path clip-path="url(#p042c160747)" d="M 201.93759 307.584 
L 204.051032 307.584 
L 204.051032 307.584 
L 201.93759 307.584 
z
" style="fill:#808080;"/>
   </g>
   <g id="patch_161">
    <path clip-path="url(#p042c160747)" d="M 204.051027 307.584 
L 206.164469 307.584 
L 206.164469 307.584 
L 204.051027 307.584 
z
" style="fill:#808080;"/>
   </g>
   <g id="patch_162">
    <path clip-path="url(#p042c160747)" d="M 206.164465 307.584 
L 208.277907 307.584 
L 208.277907 307.584 
L 206.164465 307.584 
z
" style="fill:#808080;"/>
   </g>
   <g id="patch_163">
    <path clip-path="url(#p042c160747)" d="M 208.277902 307.584 
L 210.391344 307.584 
L 210.391344 307.584 
L 208.277902 307.584 
z
" style="fill:#808080;"/>
   </g>
   <g id="patch_164">
    <path clip-path="url(#p042c160747)" d="M 210.391339 307.584 
L 212.504781 307.584 
L 212.504781 307.584 
L 210.391339 307.584 
z
" style="fill:#808080;"/>
   </g>
   <g id="patch_165">
    <path clip-path="url(#p042c160747)" d="M 212.504776 307.584 
L 214.618218 307.584 
L 214.618218 307.584 
L 212.504776 307.584 
z
" style="fill:#808080;"/>
   </g>
   <g id="patch_166">
    <path clip-path="url(#p042c160747)" d="M 214.618214 307.584 
L 216.731656 307.584 
L 216.731656 307.584 
L 214.618214 307.584 
z
" style="fill:#808080;"/>
   </g>
   <g id="patch_167">
    <path clip-path="url(#p042c160747)" d="M 216.731651 307.584 
L 218.845093 307.584 
L 218.845093 307.584 
L 216.731651 307.584 
z
" style="fill:#808080;"/>
   </g>
   <g id="patch_168">
    <path clip-path="url(#p042c160747)" d="M 218.845088 307.584 
L 220.95853 307.584 
L 220.95853 307.584 
L 218.845088 307.584 
z
" style="fill:#808080;"/>
   </g>
   <g id="patch_169">
    <path clip-path="url(#p042c160747)" d="M 220.958526 307.584 
L 223.071969 307.584 
L 223.071969 307.584 
L 220.958526 307.584 
z
" style="fill:#808080;"/>
   </g>
   <g id="patch_170">
    <path clip-path="url(#p042c160747)" d="M 223.071964 307.584 
L 225.185406 307.584 
L 225.185406 307.584 
L 223.071964 307.584 
z
" style="fill:#808080;"/>
   </g>
   <g id="patch_171">
    <path clip-path="url(#p042c160747)" d="M 225.185401 307.584 
L 227.298843 307.584 
L 227.298843 307.584 
L 225.185401 307.584 
z
" style="fill:#808080;"/>
   </g>
   <g id="patch_172">
    <path clip-path="url(#p042c160747)" d="M 227.298838 307.584 
L 229.41228 307.584 
L 229.41228 307.584 
L 227.298838 307.584 
z
" style="fill:#808080;"/>
   </g>
   <g id="patch_173">
    <path clip-path="url(#p042c160747)" d="M 229.412275 307.584 
L 231.525717 307.584 
L 231.525717 307.584 
L 229.412275 307.584 
z
" style="fill:#808080;"/>
   </g>
   <g id="patch_174">
    <path clip-path="url(#p042c160747)" d="M 231.525713 307.584 
L 233.639155 307.584 
L 233.639155 307.584 
L 231.525713 307.584 
z
" style="fill:#808080;"/>
   </g>
   <g id="patch_175">
    <path clip-path="url(#p042c160747)" d="M 233.63915 307.584 
L 235.752593 307.584 
L 235.752593 307.584 
L 233.63915 307.584 
z
" style="fill:#808080;"/>
   </g>
   <g id="patch_176">
    <path clip-path="url(#p042c160747)" d="M 235.752588 307.584 
L 237.86603 307.584 
L 237.86603 307.584 
L 235.752588 307.584 
z
" style="fill:#808080;"/>
   </g>
   <g id="patch_177">
    <path clip-path="url(#p042c160747)" d="M 237.866026 307.584 
L 239.979468 307.584 
L 239.979468 307.584 
L 237.866026 307.584 
z
" style="fill:#808080;"/>
   </g>
   <g id="patch_178">
    <path clip-path="url(#p042c160747)" d="M 239.979463 307.584 
L 242.092905 307.584 
L 242.092905 307.584 
L 239.979463 307.584 
z
" style="fill:#808080;"/>
   </g>
   <g id="patch_179">
    <path clip-path="url(#p042c160747)" d="M 242.0929 307.584 
L 244.206342 307.584 
L 244.206342 307.584 
L 242.0929 307.584 
z
" style="fill:#808080;"/>
   </g>
   <g id="patch_180">
    <path clip-path="url(#p042c160747)" d="M 244.206338 307.584 
L 246.31978 307.584 
L 246.31978 54.144 
L 244.206338 54.144 
z
" style="fill:#808080;"/>
   </g>
   <g id="patch_181">
    <path clip-path="url(#p042c160747)" d="M 246.319776 307.584 
L 248.433218 307.584 
L 248.433218 287.242314 
L 246.319776 287.242314 
z
" style="fill:#808080;"/>
   </g>
   <g id="patch_182">
    <path clip-path="url(#p042c160747)" d="M 248.433213 307.584 
L 250.546655 307.584 
L 250.546655 292.901577 
L 248.433213 292.901577 
z
" style="fill:#808080;"/>
   </g>
   <g id="patch_183">
    <path clip-path="url(#p042c160747)" d="M 250.54665 307.584 
L 252.660092 307.584 
L 252.660092 265.11974 
L 250.54665 265.11974 
z
" style="fill:#808080;"/>
   </g>
   <g id="patch_184">
    <path clip-path="url(#p042c160747)" d="M 252.660087 307.584 
L 254.77353 307.584 
L 254.77353 307.584 
L 252.660087 307.584 
z
" style="fill:#808080;"/>
   </g>
   <g id="patch_185">
    <path clip-path="url(#p042c160747)" d="M 254.773525 307.584 
L 256.886967 307.584 
L 256.886967 307.584 
L 254.773525 307.584 
z
" style="fill:#808080;"/>
   </g>
   <g id="patch_186">
    <path clip-path="url(#p042c160747)" d="M 256.886963 307.584 
L 259.000405 307.584 
L 259.000405 307.584 
L 256.886963 307.584 
z
" style="fill:#808080;"/>
   </g>
   <g id="patch_187">
    <path clip-path="url(#p042c160747)" d="M 259.0004 307.584 
L 261.113842 307.584 
L 261.113842 307.584 
L 259.0004 307.584 
z
" style="fill:#808080;"/>
   </g>
   <g id="patch_188">
    <path clip-path="url(#p042c160747)" d="M 261.113838 307.584 
L 263.22728 307.584 
L 263.22728 307.584 
L 261.113838 307.584 
z
" style="fill:#808080;"/>
   </g>
   <g id="patch_189">
    <path clip-path="url(#p042c160747)" d="M 263.227275 307.584 
L 265.340717 307.584 
L 265.340717 307.584 
L 263.227275 307.584 
z
" style="fill:#808080;"/>
   </g>
   <g id="patch_190">
    <path clip-path="url(#p042c160747)" d="M 265.340712 307.584 
L 267.454154 307.584 
L 267.454154 307.584 
L 265.340712 307.584 
z
" style="fill:#808080;"/>
   </g>
   <g id="patch_191">
    <path clip-path="url(#p042c160747)" d="M 267.454149 307.584 
L 269.567591 307.584 
L 269.567591 307.584 
L 267.454149 307.584 
z
" style="fill:#808080;"/>
   </g>
   <g id="patch_192">
    <path clip-path="url(#p042c160747)" d="M 269.567587 307.584 
L 271.681029 307.584 
L 271.681029 307.584 
L 269.567587 307.584 
z
" style="fill:#808080;"/>
   </g>
   <g id="patch_193">
    <path clip-path="url(#p042c160747)" d="M 271.681024 307.584 
L 273.794466 307.584 
L 273.794466 307.584 
L 271.681024 307.584 
z
" style="fill:#808080;"/>
   </g>
   <g id="patch_194">
    <path clip-path="url(#p042c160747)" d="M 273.794461 307.584 
L 275.907903 307.584 
L 275.907903 307.584 
L 273.794461 307.584 
z
" style="fill:#808080;"/>
   </g>
   <g id="patch_195">
    <path clip-path="url(#p042c160747)" d="M 275.907898 307.584 
L 278.02134 307.584 
L 278.02134 307.584 
L 275.907898 307.584 
z
" style="fill:#808080;"/>
   </g>
   <g id="patch_196">
    <path clip-path="url(#p042c160747)" d="M 278.021336 307.584 
L 280.134778 307.584 
L 280.134778 307.584 
L 278.021336 307.584 
z
" style="fill:#808080;"/>
   </g>
   <g id="patch_197">
    <path clip-path="url(#p042c160747)" d="M 280.134778 307.584 
L 282.24822 307.584 
L 282.24822 307.584 
L 280.134778 307.584 
z
" style="fill:#808080;"/>
   </g>
   <g id="patch_198">
    <path clip-path="url(#p042c160747)" d="M 282.24821 307.584 
L 284.361652 307.584 
L 284.361652 307.584 
L 282.24821 307.584 
z
" style="fill:#808080;"/>
   </g>
   <g id="patch_199">
    <path clip-path="url(#p042c160747)" d="M 284.361652 307.584 
L 286.475094 307.584 
L 286.475094 281.187298 
L 284.361652 281.187298 
z
" style="fill:#808080;"/>
   </g>
   <g id="patch_200">
    <path clip-path="url(#p042c160747)" d="M 286.475084 307.584 
L 288.588527 307.584 
L 288.588527 298.956592 
L 286.475084 298.956592 
z
" style="fill:#808080;"/>
   </g>
   <g id="patch_201">
    <path clip-path="url(#p042c160747)" d="M 288.588527 307.584 
L 290.701969 307.584 
L 290.701969 299.668947 
L 288.588527 299.668947 
z
" style="fill:#808080;"/>
   </g>
   <g id="patch_202">
    <path clip-path="url(#p042c160747)" d="M 290.701959 307.584 
L 292.815401 307.584 
L 292.815401 290.764512 
L 290.701959 290.764512 
z
" style="fill:#808080;"/>
   </g>
   <g id="matplotlib.axis_1">
    <g id="xtick_1">
     <g id="line2d_1">
      <defs>
       <path d="M 0 0 
L 0 3.5 
" id="meddb52757b" style="stroke:#000000;stroke-width:0.8;"/>
      </defs>
      <g>
       <use style="stroke:#000000;stroke-width:0.8;" x="109.48107" xlink:href="#meddb52757b" y="307.584"/>
      </g>
     </g>
     <g id="text_1">
      <!-- −100 -->
      <defs>
       <path d="M 10.59375 35.5 
L 73.1875 35.5 
L 73.1875 27.203125 
L 10.59375 27.203125 
z
" id="DejaVuSans-8722"/>
       <path d="M 12.40625 8.296875 
L 28.515625 8.296875 
L 28.515625 63.921875 
L 10.984375 60.40625 
L 10.984375 69.390625 
L 28.421875 72.90625 
L 38.28125 72.90625 
L 38.28125 8.296875 
L 54.390625 8.296875 
L 54.390625 0 
L 12.40625 0 
z
" id="DejaVuSans-49"/>
       <path d="M 31.78125 66.40625 
Q 24.171875 66.40625 20.328125 58.90625 
Q 16.5 51.421875 16.5 36.375 
Q 16.5 21.390625 20.328125 13.890625 
Q 24.171875 6.390625 31.78125 6.390625 
Q 39.453125 6.390625 43.28125 13.890625 
Q 47.125 21.390625 47.125 36.375 
Q 47.125 51.421875 43.28125 58.90625 
Q 39.453125 66.40625 31.78125 66.40625 
z
M 31.78125 74.21875 
Q 44.046875 74.21875 50.515625 64.515625 
Q 56.984375 54.828125 56.984375 36.375 
Q 56.984375 17.96875 50.515625 8.265625 
Q 44.046875 -1.421875 31.78125 -1.421875 
Q 19.53125 -1.421875 13.0625 8.265625 
Q 6.59375 17.96875 6.59375 36.375 
Q 6.59375 54.828125 13.0625 64.515625 
Q 19.53125 74.21875 31.78125 74.21875 
z
" id="DejaVuSans-48"/>
      </defs>
      <g transform="translate(95.747476 322.182437)scale(0.1 -0.1)">
       <use xlink:href="#DejaVuSans-8722"/>
       <use x="83.789062" xlink:href="#DejaVuSans-49"/>
       <use x="147.412109" xlink:href="#DejaVuSans-48"/>
       <use x="211.035156" xlink:href="#DejaVuSans-48"/>
      </g>
     </g>
    </g>
    <g id="xtick_2">
     <g id="line2d_2">
      <g>
       <use style="stroke:#000000;stroke-width:0.8;" x="173.138824" xlink:href="#meddb52757b" y="307.584"/>
      </g>
     </g>
     <g id="text_2">
      <!-- −50 -->
      <defs>
       <path d="M 10.796875 72.90625 
L 49.515625 72.90625 
L 49.515625 64.59375 
L 19.828125 64.59375 
L 19.828125 46.734375 
Q 21.96875 47.46875 24.109375 47.828125 
Q 26.265625 48.1875 28.421875 48.1875 
Q 40.625 48.1875 47.75 41.5 
Q 54.890625 34.8125 54.890625 23.390625 
Q 54.890625 11.625 47.5625 5.09375 
Q 40.234375 -1.421875 26.90625 -1.421875 
Q 22.3125 -1.421875 17.546875 -0.640625 
Q 12.796875 0.140625 7.71875 1.703125 
L 7.71875 11.625 
Q 12.109375 9.234375 16.796875 8.0625 
Q 21.484375 6.890625 26.703125 6.890625 
Q 35.15625 6.890625 40.078125 11.328125 
Q 45.015625 15.765625 45.015625 23.390625 
Q 45.015625 31 40.078125 35.4375 
Q 35.15625 39.890625 26.703125 39.890625 
Q 22.75 39.890625 18.8125 39.015625 
Q 14.890625 38.140625 10.796875 36.28125 
z
" id="DejaVuSans-53"/>
      </defs>
      <g transform="translate(162.58648 322.182437)scale(0.1 -0.1)">
       <use xlink:href="#DejaVuSans-8722"/>
       <use x="83.789062" xlink:href="#DejaVuSans-53"/>
       <use x="147.412109" xlink:href="#DejaVuSans-48"/>
      </g>
     </g>
    </g>
    <g id="xtick_3">
     <g id="line2d_3">
      <g>
       <use style="stroke:#000000;stroke-width:0.8;" x="236.796578" xlink:href="#meddb52757b" y="307.584"/>
      </g>
     </g>
     <g id="text_3">
      <!-- 0 -->
      <g transform="translate(233.615328 322.182437)scale(0.1 -0.1)">
       <use xlink:href="#DejaVuSans-48"/>
      </g>
     </g>
    </g>
    <g id="xtick_4">
     <g id="line2d_4">
      <g>
       <use style="stroke:#000000;stroke-width:0.8;" x="300.454332" xlink:href="#meddb52757b" y="307.584"/>
      </g>
     </g>
     <g id="text_4">
      <!-- 50 -->
      <g transform="translate(294.091832 322.182437)scale(0.1 -0.1)">
       <use xlink:href="#DejaVuSans-53"/>
       <use x="63.623047" xlink:href="#DejaVuSans-48"/>
      </g>
     </g>
    </g>
    <g id="xtick_5">
     <g id="line2d_5">
      <g>
       <use style="stroke:#000000;stroke-width:0.8;" x="364.112086" xlink:href="#meddb52757b" y="307.584"/>
      </g>
     </g>
     <g id="text_5">
      <!-- 100 -->
      <g transform="translate(354.568336 322.182437)scale(0.1 -0.1)">
       <use xlink:href="#DejaVuSans-49"/>
       <use x="63.623047" xlink:href="#DejaVuSans-48"/>
       <use x="127.246094" xlink:href="#DejaVuSans-48"/>
      </g>
     </g>
    </g>
    <g id="text_6">
     <!-- Weight -->
     <defs>
      <path d="M 3.328125 72.90625 
L 13.28125 72.90625 
L 28.609375 11.28125 
L 43.890625 72.90625 
L 54.984375 72.90625 
L 70.3125 11.28125 
L 85.59375 72.90625 
L 95.609375 72.90625 
L 77.296875 0 
L 64.890625 0 
L 49.515625 63.28125 
L 33.984375 0 
L 21.578125 0 
z
" id="DejaVuSans-87"/>
      <path d="M 56.203125 29.59375 
L 56.203125 25.203125 
L 14.890625 25.203125 
Q 15.484375 15.921875 20.484375 11.0625 
Q 25.484375 6.203125 34.421875 6.203125 
Q 39.59375 6.203125 44.453125 7.46875 
Q 49.3125 8.734375 54.109375 11.28125 
L 54.109375 2.78125 
Q 49.265625 0.734375 44.1875 -0.34375 
Q 39.109375 -1.421875 33.890625 -1.421875 
Q 20.796875 -1.421875 13.15625 6.1875 
Q 5.515625 13.8125 5.515625 26.8125 
Q 5.515625 40.234375 12.765625 48.109375 
Q 20.015625 56 32.328125 56 
Q 43.359375 56 49.78125 48.890625 
Q 56.203125 41.796875 56.203125 29.59375 
z
M 47.21875 32.234375 
Q 47.125 39.59375 43.09375 43.984375 
Q 39.0625 48.390625 32.421875 48.390625 
Q 24.90625 48.390625 20.390625 44.140625 
Q 15.875 39.890625 15.1875 32.171875 
z
" id="DejaVuSans-101"/>
      <path d="M 9.421875 54.6875 
L 18.40625 54.6875 
L 18.40625 0 
L 9.421875 0 
z
M 9.421875 75.984375 
L 18.40625 75.984375 
L 18.40625 64.59375 
L 9.421875 64.59375 
z
" id="DejaVuSans-105"/>
      <path d="M 45.40625 27.984375 
Q 45.40625 37.75 41.375 43.109375 
Q 37.359375 48.484375 30.078125 48.484375 
Q 22.859375 48.484375 18.828125 43.109375 
Q 14.796875 37.75 14.796875 27.984375 
Q 14.796875 18.265625 18.828125 12.890625 
Q 22.859375 7.515625 30.078125 7.515625 
Q 37.359375 7.515625 41.375 12.890625 
Q 45.40625 18.265625 45.40625 27.984375 
z
M 54.390625 6.78125 
Q 54.390625 -7.171875 48.1875 -13.984375 
Q 42 -20.796875 29.203125 -20.796875 
Q 24.46875 -20.796875 20.265625 -20.09375 
Q 16.0625 -19.390625 12.109375 -17.921875 
L 12.109375 -9.1875 
Q 16.0625 -11.328125 19.921875 -12.34375 
Q 23.78125 -13.375 27.78125 -13.375 
Q 36.625 -13.375 41.015625 -8.765625 
Q 45.40625 -4.15625 45.40625 5.171875 
L 45.40625 9.625 
Q 42.625 4.78125 38.28125 2.390625 
Q 33.9375 0 27.875 0 
Q 17.828125 0 11.671875 7.65625 
Q 5.515625 15.328125 5.515625 27.984375 
Q 5.515625 40.671875 11.671875 48.328125 
Q 17.828125 56 27.875 56 
Q 33.9375 56 38.28125 53.609375 
Q 42.625 51.21875 45.40625 46.390625 
L 45.40625 54.6875 
L 54.390625 54.6875 
z
" id="DejaVuSans-103"/>
      <path d="M 54.890625 33.015625 
L 54.890625 0 
L 45.90625 0 
L 45.90625 32.71875 
Q 45.90625 40.484375 42.875 44.328125 
Q 39.84375 48.1875 33.796875 48.1875 
Q 26.515625 48.1875 22.3125 43.546875 
Q 18.109375 38.921875 18.109375 30.90625 
L 18.109375 0 
L 9.078125 0 
L 9.078125 75.984375 
L 18.109375 75.984375 
L 18.109375 46.1875 
Q 21.34375 51.125 25.703125 53.5625 
Q 30.078125 56 35.796875 56 
Q 45.21875 56 50.046875 50.171875 
Q 54.890625 44.34375 54.890625 33.015625 
z
" id="DejaVuSans-104"/>
      <path d="M 18.3125 70.21875 
L 18.3125 54.6875 
L 36.8125 54.6875 
L 36.8125 47.703125 
L 18.3125 47.703125 
L 18.3125 18.015625 
Q 18.3125 11.328125 20.140625 9.421875 
Q 21.96875 7.515625 27.59375 7.515625 
L 36.8125 7.515625 
L 36.8125 0 
L 27.59375 0 
Q 17.1875 0 13.234375 3.875 
Q 9.28125 7.765625 9.28125 18.015625 
L 9.28125 47.703125 
L 2.6875 47.703125 
L 2.6875 54.6875 
L 9.28125 54.6875 
L 9.28125 70.21875 
z
" id="DejaVuSans-116"/>
     </defs>
     <g transform="translate(218.451406 335.860562)scale(0.1 -0.1)">
      <use xlink:href="#DejaVuSans-87"/>
      <use x="98.798828" xlink:href="#DejaVuSans-101"/>
      <use x="160.322266" xlink:href="#DejaVuSans-105"/>
      <use x="188.105469" xlink:href="#DejaVuSans-103"/>
      <use x="251.582031" xlink:href="#DejaVuSans-104"/>
      <use x="314.960938" xlink:href="#DejaVuSans-116"/>
     </g>
    </g>
   </g>
   <g id="matplotlib.axis_2">
    <g id="ytick_1">
     <g id="line2d_6">
      <defs>
       <path d="M 0 0 
L -3.5 0 
" id="m8ef3b08eb4" style="stroke:#000000;stroke-width:0.8;"/>
      </defs>
      <g>
       <use style="stroke:#000000;stroke-width:0.8;" x="57.6" xlink:href="#m8ef3b08eb4" y="307.584"/>
      </g>
     </g>
     <g id="text_7">
      <!-- 0 -->
      <g transform="translate(44.2375 311.383219)scale(0.1 -0.1)">
       <use xlink:href="#DejaVuSans-48"/>
      </g>
     </g>
    </g>
    <g id="ytick_2">
     <g id="line2d_7">
      <g>
       <use style="stroke:#000000;stroke-width:0.8;" x="57.6" xlink:href="#m8ef3b08eb4" y="268.008735"/>
      </g>
     </g>
     <g id="text_8">
      <!-- 1000 -->
      <g transform="translate(25.15 271.807953)scale(0.1 -0.1)">
       <use xlink:href="#DejaVuSans-49"/>
       <use x="63.623047" xlink:href="#DejaVuSans-48"/>
       <use x="127.246094" xlink:href="#DejaVuSans-48"/>
       <use x="190.869141" xlink:href="#DejaVuSans-48"/>
      </g>
     </g>
    </g>
    <g id="ytick_3">
     <g id="line2d_8">
      <g>
       <use style="stroke:#000000;stroke-width:0.8;" x="57.6" xlink:href="#m8ef3b08eb4" y="228.433469"/>
      </g>
     </g>
     <g id="text_9">
      <!-- 2000 -->
      <defs>
       <path d="M 19.1875 8.296875 
L 53.609375 8.296875 
L 53.609375 0 
L 7.328125 0 
L 7.328125 8.296875 
Q 12.9375 14.109375 22.625 23.890625 
Q 32.328125 33.6875 34.8125 36.53125 
Q 39.546875 41.84375 41.421875 45.53125 
Q 43.3125 49.21875 43.3125 52.78125 
Q 43.3125 58.59375 39.234375 62.25 
Q 35.15625 65.921875 28.609375 65.921875 
Q 23.96875 65.921875 18.8125 64.3125 
Q 13.671875 62.703125 7.8125 59.421875 
L 7.8125 69.390625 
Q 13.765625 71.78125 18.9375 73 
Q 24.125 74.21875 28.421875 74.21875 
Q 39.75 74.21875 46.484375 68.546875 
Q 53.21875 62.890625 53.21875 53.421875 
Q 53.21875 48.921875 51.53125 44.890625 
Q 49.859375 40.875 45.40625 35.40625 
Q 44.1875 33.984375 37.640625 27.21875 
Q 31.109375 20.453125 19.1875 8.296875 
z
" id="DejaVuSans-50"/>
      </defs>
      <g transform="translate(25.15 232.232688)scale(0.1 -0.1)">
       <use xlink:href="#DejaVuSans-50"/>
       <use x="63.623047" xlink:href="#DejaVuSans-48"/>
       <use x="127.246094" xlink:href="#DejaVuSans-48"/>
       <use x="190.869141" xlink:href="#DejaVuSans-48"/>
      </g>
     </g>
    </g>
    <g id="ytick_4">
     <g id="line2d_9">
      <g>
       <use style="stroke:#000000;stroke-width:0.8;" x="57.6" xlink:href="#m8ef3b08eb4" y="188.858204"/>
      </g>
     </g>
     <g id="text_10">
      <!-- 3000 -->
      <defs>
       <path d="M 40.578125 39.3125 
Q 47.65625 37.796875 51.625 33 
Q 55.609375 28.21875 55.609375 21.1875 
Q 55.609375 10.40625 48.1875 4.484375 
Q 40.765625 -1.421875 27.09375 -1.421875 
Q 22.515625 -1.421875 17.65625 -0.515625 
Q 12.796875 0.390625 7.625 2.203125 
L 7.625 11.71875 
Q 11.71875 9.328125 16.59375 8.109375 
Q 21.484375 6.890625 26.8125 6.890625 
Q 36.078125 6.890625 40.9375 10.546875 
Q 45.796875 14.203125 45.796875 21.1875 
Q 45.796875 27.640625 41.28125 31.265625 
Q 36.765625 34.90625 28.71875 34.90625 
L 20.21875 34.90625 
L 20.21875 43.015625 
L 29.109375 43.015625 
Q 36.375 43.015625 40.234375 45.921875 
Q 44.09375 48.828125 44.09375 54.296875 
Q 44.09375 59.90625 40.109375 62.90625 
Q 36.140625 65.921875 28.71875 65.921875 
Q 24.65625 65.921875 20.015625 65.03125 
Q 15.375 64.15625 9.8125 62.3125 
L 9.8125 71.09375 
Q 15.4375 72.65625 20.34375 73.4375 
Q 25.25 74.21875 29.59375 74.21875 
Q 40.828125 74.21875 47.359375 69.109375 
Q 53.90625 64.015625 53.90625 55.328125 
Q 53.90625 49.265625 50.4375 45.09375 
Q 46.96875 40.921875 40.578125 39.3125 
z
" id="DejaVuSans-51"/>
      </defs>
      <g transform="translate(25.15 192.657422)scale(0.1 -0.1)">
       <use xlink:href="#DejaVuSans-51"/>
       <use x="63.623047" xlink:href="#DejaVuSans-48"/>
       <use x="127.246094" xlink:href="#DejaVuSans-48"/>
       <use x="190.869141" xlink:href="#DejaVuSans-48"/>
      </g>
     </g>
    </g>
    <g id="ytick_5">
     <g id="line2d_10">
      <g>
       <use style="stroke:#000000;stroke-width:0.8;" x="57.6" xlink:href="#m8ef3b08eb4" y="149.282938"/>
      </g>
     </g>
     <g id="text_11">
      <!-- 4000 -->
      <defs>
       <path d="M 37.796875 64.3125 
L 12.890625 25.390625 
L 37.796875 25.390625 
z
M 35.203125 72.90625 
L 47.609375 72.90625 
L 47.609375 25.390625 
L 58.015625 25.390625 
L 58.015625 17.1875 
L 47.609375 17.1875 
L 47.609375 0 
L 37.796875 0 
L 37.796875 17.1875 
L 4.890625 17.1875 
L 4.890625 26.703125 
z
" id="DejaVuSans-52"/>
      </defs>
      <g transform="translate(25.15 153.082157)scale(0.1 -0.1)">
       <use xlink:href="#DejaVuSans-52"/>
       <use x="63.623047" xlink:href="#DejaVuSans-48"/>
       <use x="127.246094" xlink:href="#DejaVuSans-48"/>
       <use x="190.869141" xlink:href="#DejaVuSans-48"/>
      </g>
     </g>
    </g>
    <g id="ytick_6">
     <g id="line2d_11">
      <g>
       <use style="stroke:#000000;stroke-width:0.8;" x="57.6" xlink:href="#m8ef3b08eb4" y="109.707673"/>
      </g>
     </g>
     <g id="text_12">
      <!-- 5000 -->
      <g transform="translate(25.15 113.506891)scale(0.1 -0.1)">
       <use xlink:href="#DejaVuSans-53"/>
       <use x="63.623047" xlink:href="#DejaVuSans-48"/>
       <use x="127.246094" xlink:href="#DejaVuSans-48"/>
       <use x="190.869141" xlink:href="#DejaVuSans-48"/>
      </g>
     </g>
    </g>
    <g id="ytick_7">
     <g id="line2d_12">
      <g>
       <use style="stroke:#000000;stroke-width:0.8;" x="57.6" xlink:href="#m8ef3b08eb4" y="70.132407"/>
      </g>
     </g>
     <g id="text_13">
      <!-- 6000 -->
      <defs>
       <path d="M 33.015625 40.375 
Q 26.375 40.375 22.484375 35.828125 
Q 18.609375 31.296875 18.609375 23.390625 
Q 18.609375 15.53125 22.484375 10.953125 
Q 26.375 6.390625 33.015625 6.390625 
Q 39.65625 6.390625 43.53125 10.953125 
Q 47.40625 15.53125 47.40625 23.390625 
Q 47.40625 31.296875 43.53125 35.828125 
Q 39.65625 40.375 33.015625 40.375 
z
M 52.59375 71.296875 
L 52.59375 62.3125 
Q 48.875 64.0625 45.09375 64.984375 
Q 41.3125 65.921875 37.59375 65.921875 
Q 27.828125 65.921875 22.671875 59.328125 
Q 17.53125 52.734375 16.796875 39.40625 
Q 19.671875 43.65625 24.015625 45.921875 
Q 28.375 48.1875 33.59375 48.1875 
Q 44.578125 48.1875 50.953125 41.515625 
Q 57.328125 34.859375 57.328125 23.390625 
Q 57.328125 12.15625 50.6875 5.359375 
Q 44.046875 -1.421875 33.015625 -1.421875 
Q 20.359375 -1.421875 13.671875 8.265625 
Q 6.984375 17.96875 6.984375 36.375 
Q 6.984375 53.65625 15.1875 63.9375 
Q 23.390625 74.21875 37.203125 74.21875 
Q 40.921875 74.21875 44.703125 73.484375 
Q 48.484375 72.75 52.59375 71.296875 
z
" id="DejaVuSans-54"/>
      </defs>
      <g transform="translate(25.15 73.931626)scale(0.1 -0.1)">
       <use xlink:href="#DejaVuSans-54"/>
       <use x="63.623047" xlink:href="#DejaVuSans-48"/>
       <use x="127.246094" xlink:href="#DejaVuSans-48"/>
       <use x="190.869141" xlink:href="#DejaVuSans-48"/>
      </g>
     </g>
    </g>
    <g id="text_14">
     <!-- Occurrencies -->
     <defs>
      <path d="M 39.40625 66.21875 
Q 28.65625 66.21875 22.328125 58.203125 
Q 16.015625 50.203125 16.015625 36.375 
Q 16.015625 22.609375 22.328125 14.59375 
Q 28.65625 6.59375 39.40625 6.59375 
Q 50.140625 6.59375 56.421875 14.59375 
Q 62.703125 22.609375 62.703125 36.375 
Q 62.703125 50.203125 56.421875 58.203125 
Q 50.140625 66.21875 39.40625 66.21875 
z
M 39.40625 74.21875 
Q 54.734375 74.21875 63.90625 63.9375 
Q 73.09375 53.65625 73.09375 36.375 
Q 73.09375 19.140625 63.90625 8.859375 
Q 54.734375 -1.421875 39.40625 -1.421875 
Q 24.03125 -1.421875 14.8125 8.828125 
Q 5.609375 19.09375 5.609375 36.375 
Q 5.609375 53.65625 14.8125 63.9375 
Q 24.03125 74.21875 39.40625 74.21875 
z
" id="DejaVuSans-79"/>
      <path d="M 48.78125 52.59375 
L 48.78125 44.1875 
Q 44.96875 46.296875 41.140625 47.34375 
Q 37.3125 48.390625 33.40625 48.390625 
Q 24.65625 48.390625 19.8125 42.84375 
Q 14.984375 37.3125 14.984375 27.296875 
Q 14.984375 17.28125 19.8125 11.734375 
Q 24.65625 6.203125 33.40625 6.203125 
Q 37.3125 6.203125 41.140625 7.25 
Q 44.96875 8.296875 48.78125 10.40625 
L 48.78125 2.09375 
Q 45.015625 0.34375 40.984375 -0.53125 
Q 36.96875 -1.421875 32.421875 -1.421875 
Q 20.0625 -1.421875 12.78125 6.34375 
Q 5.515625 14.109375 5.515625 27.296875 
Q 5.515625 40.671875 12.859375 48.328125 
Q 20.21875 56 33.015625 56 
Q 37.15625 56 41.109375 55.140625 
Q 45.0625 54.296875 48.78125 52.59375 
z
" id="DejaVuSans-99"/>
      <path d="M 8.5 21.578125 
L 8.5 54.6875 
L 17.484375 54.6875 
L 17.484375 21.921875 
Q 17.484375 14.15625 20.5 10.265625 
Q 23.53125 6.390625 29.59375 6.390625 
Q 36.859375 6.390625 41.078125 11.03125 
Q 45.3125 15.671875 45.3125 23.6875 
L 45.3125 54.6875 
L 54.296875 54.6875 
L 54.296875 0 
L 45.3125 0 
L 45.3125 8.40625 
Q 42.046875 3.421875 37.71875 1 
Q 33.40625 -1.421875 27.6875 -1.421875 
Q 18.265625 -1.421875 13.375 4.4375 
Q 8.5 10.296875 8.5 21.578125 
z
M 31.109375 56 
z
" id="DejaVuSans-117"/>
      <path d="M 41.109375 46.296875 
Q 39.59375 47.171875 37.8125 47.578125 
Q 36.03125 48 33.890625 48 
Q 26.265625 48 22.1875 43.046875 
Q 18.109375 38.09375 18.109375 28.8125 
L 18.109375 0 
L 9.078125 0 
L 9.078125 54.6875 
L 18.109375 54.6875 
L 18.109375 46.1875 
Q 20.953125 51.171875 25.484375 53.578125 
Q 30.03125 56 36.53125 56 
Q 37.453125 56 38.578125 55.875 
Q 39.703125 55.765625 41.0625 55.515625 
z
" id="DejaVuSans-114"/>
      <path d="M 54.890625 33.015625 
L 54.890625 0 
L 45.90625 0 
L 45.90625 32.71875 
Q 45.90625 40.484375 42.875 44.328125 
Q 39.84375 48.1875 33.796875 48.1875 
Q 26.515625 48.1875 22.3125 43.546875 
Q 18.109375 38.921875 18.109375 30.90625 
L 18.109375 0 
L 9.078125 0 
L 9.078125 54.6875 
L 18.109375 54.6875 
L 18.109375 46.1875 
Q 21.34375 51.125 25.703125 53.5625 
Q 30.078125 56 35.796875 56 
Q 45.21875 56 50.046875 50.171875 
Q 54.890625 44.34375 54.890625 33.015625 
z
" id="DejaVuSans-110"/>
      <path d="M 44.28125 53.078125 
L 44.28125 44.578125 
Q 40.484375 46.53125 36.375 47.5 
Q 32.28125 48.484375 27.875 48.484375 
Q 21.1875 48.484375 17.84375 46.4375 
Q 14.5 44.390625 14.5 40.28125 
Q 14.5 37.15625 16.890625 35.375 
Q 19.28125 33.59375 26.515625 31.984375 
L 29.59375 31.296875 
Q 39.15625 29.25 43.1875 25.515625 
Q 47.21875 21.78125 47.21875 15.09375 
Q 47.21875 7.46875 41.1875 3.015625 
Q 35.15625 -1.421875 24.609375 -1.421875 
Q 20.21875 -1.421875 15.453125 -0.5625 
Q 10.6875 0.296875 5.421875 2 
L 5.421875 11.28125 
Q 10.40625 8.6875 15.234375 7.390625 
Q 20.0625 6.109375 24.8125 6.109375 
Q 31.15625 6.109375 34.5625 8.28125 
Q 37.984375 10.453125 37.984375 14.40625 
Q 37.984375 18.0625 35.515625 20.015625 
Q 33.0625 21.96875 24.703125 23.78125 
L 21.578125 24.515625 
Q 13.234375 26.265625 9.515625 29.90625 
Q 5.8125 33.546875 5.8125 39.890625 
Q 5.8125 47.609375 11.28125 51.796875 
Q 16.75 56 26.8125 56 
Q 31.78125 56 36.171875 55.265625 
Q 40.578125 54.546875 44.28125 53.078125 
z
" id="DejaVuSans-115"/>
     </defs>
     <g transform="translate(19.070312 207.304563)rotate(-90)scale(0.1 -0.1)">
      <use xlink:href="#DejaVuSans-79"/>
      <use x="78.710938" xlink:href="#DejaVuSans-99"/>
      <use x="133.691406" xlink:href="#DejaVuSans-99"/>
      <use x="188.671875" xlink:href="#DejaVuSans-117"/>
      <use x="252.050781" xlink:href="#DejaVuSans-114"/>
      <use x="293.148438" xlink:href="#DejaVuSans-114"/>
      <use x="334.230469" xlink:href="#DejaVuSans-101"/>
      <use x="395.753906" xlink:href="#DejaVuSans-110"/>
      <use x="459.132812" xlink:href="#DejaVuSans-99"/>
      <use x="514.113281" xlink:href="#DejaVuSans-105"/>
      <use x="541.896484" xlink:href="#DejaVuSans-101"/>
      <use x="603.419922" xlink:href="#DejaVuSans-115"/>
     </g>
    </g>
   </g>
   <g id="patch_203">
    <path d="M 57.6 307.584 
L 57.6 41.472 
" style="fill:none;stroke:#000000;stroke-linecap:square;stroke-linejoin:miter;stroke-width:0.8;"/>
   </g>
   <g id="patch_204">
    <path d="M 414.72 307.584 
L 414.72 41.472 
" style="fill:none;stroke:#000000;stroke-linecap:square;stroke-linejoin:miter;stroke-width:0.8;"/>
   </g>
   <g id="patch_205">
    <path d="M 57.6 307.584 
L 414.72 307.584 
" style="fill:none;stroke:#000000;stroke-linecap:square;stroke-linejoin:miter;stroke-width:0.8;"/>
   </g>
   <g id="patch_206">
    <path d="M 57.6 41.472 
L 414.72 41.472 
" style="fill:none;stroke:#000000;stroke-linecap:square;stroke-linejoin:miter;stroke-width:0.8;"/>
   </g>
   <g id="text_15">
    <!-- Histogram of fc2 -->
    <defs>
     <path d="M 9.8125 72.90625 
L 19.671875 72.90625 
L 19.671875 43.015625 
L 55.515625 43.015625 
L 55.515625 72.90625 
L 65.375 72.90625 
L 65.375 0 
L 55.515625 0 
L 55.515625 34.71875 
L 19.671875 34.71875 
L 19.671875 0 
L 9.8125 0 
z
" id="DejaVuSans-72"/>
     <path d="M 30.609375 48.390625 
Q 23.390625 48.390625 19.1875 42.75 
Q 14.984375 37.109375 14.984375 27.296875 
Q 14.984375 17.484375 19.15625 11.84375 
Q 23.34375 6.203125 30.609375 6.203125 
Q 37.796875 6.203125 41.984375 11.859375 
Q 46.1875 17.53125 46.1875 27.296875 
Q 46.1875 37.015625 41.984375 42.703125 
Q 37.796875 48.390625 30.609375 48.390625 
z
M 30.609375 56 
Q 42.328125 56 49.015625 48.375 
Q 55.71875 40.765625 55.71875 27.296875 
Q 55.71875 13.875 49.015625 6.21875 
Q 42.328125 -1.421875 30.609375 -1.421875 
Q 18.84375 -1.421875 12.171875 6.21875 
Q 5.515625 13.875 5.515625 27.296875 
Q 5.515625 40.765625 12.171875 48.375 
Q 18.84375 56 30.609375 56 
z
" id="DejaVuSans-111"/>
     <path d="M 34.28125 27.484375 
Q 23.390625 27.484375 19.1875 25 
Q 14.984375 22.515625 14.984375 16.5 
Q 14.984375 11.71875 18.140625 8.90625 
Q 21.296875 6.109375 26.703125 6.109375 
Q 34.1875 6.109375 38.703125 11.40625 
Q 43.21875 16.703125 43.21875 25.484375 
L 43.21875 27.484375 
z
M 52.203125 31.203125 
L 52.203125 0 
L 43.21875 0 
L 43.21875 8.296875 
Q 40.140625 3.328125 35.546875 0.953125 
Q 30.953125 -1.421875 24.3125 -1.421875 
Q 15.921875 -1.421875 10.953125 3.296875 
Q 6 8.015625 6 15.921875 
Q 6 25.140625 12.171875 29.828125 
Q 18.359375 34.515625 30.609375 34.515625 
L 43.21875 34.515625 
L 43.21875 35.40625 
Q 43.21875 41.609375 39.140625 45 
Q 35.0625 48.390625 27.6875 48.390625 
Q 23 48.390625 18.546875 47.265625 
Q 14.109375 46.140625 10.015625 43.890625 
L 10.015625 52.203125 
Q 14.9375 54.109375 19.578125 55.046875 
Q 24.21875 56 28.609375 56 
Q 40.484375 56 46.34375 49.84375 
Q 52.203125 43.703125 52.203125 31.203125 
z
" id="DejaVuSans-97"/>
     <path d="M 52 44.1875 
Q 55.375 50.25 60.0625 53.125 
Q 64.75 56 71.09375 56 
Q 79.640625 56 84.28125 50.015625 
Q 88.921875 44.046875 88.921875 33.015625 
L 88.921875 0 
L 79.890625 0 
L 79.890625 32.71875 
Q 79.890625 40.578125 77.09375 44.375 
Q 74.3125 48.1875 68.609375 48.1875 
Q 61.625 48.1875 57.5625 43.546875 
Q 53.515625 38.921875 53.515625 30.90625 
L 53.515625 0 
L 44.484375 0 
L 44.484375 32.71875 
Q 44.484375 40.625 41.703125 44.40625 
Q 38.921875 48.1875 33.109375 48.1875 
Q 26.21875 48.1875 22.15625 43.53125 
Q 18.109375 38.875 18.109375 30.90625 
L 18.109375 0 
L 9.078125 0 
L 9.078125 54.6875 
L 18.109375 54.6875 
L 18.109375 46.1875 
Q 21.1875 51.21875 25.484375 53.609375 
Q 29.78125 56 35.6875 56 
Q 41.65625 56 45.828125 52.96875 
Q 50 49.953125 52 44.1875 
z
" id="DejaVuSans-109"/>
     <path id="DejaVuSans-32"/>
     <path d="M 37.109375 75.984375 
L 37.109375 68.5 
L 28.515625 68.5 
Q 23.6875 68.5 21.796875 66.546875 
Q 19.921875 64.59375 19.921875 59.515625 
L 19.921875 54.6875 
L 34.71875 54.6875 
L 34.71875 47.703125 
L 19.921875 47.703125 
L 19.921875 0 
L 10.890625 0 
L 10.890625 47.703125 
L 2.296875 47.703125 
L 2.296875 54.6875 
L 10.890625 54.6875 
L 10.890625 58.5 
Q 10.890625 67.625 15.140625 71.796875 
Q 19.390625 75.984375 28.609375 75.984375 
z
" id="DejaVuSans-102"/>
    </defs>
    <g transform="translate(186.209063 35.472)scale(0.12 -0.12)">
     <use xlink:href="#DejaVuSans-72"/>
     <use x="75.195312" xlink:href="#DejaVuSans-105"/>
     <use x="102.978516" xlink:href="#DejaVuSans-115"/>
     <use x="155.078125" xlink:href="#DejaVuSans-116"/>
     <use x="194.287109" xlink:href="#DejaVuSans-111"/>
     <use x="255.46875" xlink:href="#DejaVuSans-103"/>
     <use x="318.945312" xlink:href="#DejaVuSans-114"/>
     <use x="360.058594" xlink:href="#DejaVuSans-97"/>
     <use x="421.337891" xlink:href="#DejaVuSans-109"/>
     <use x="518.75" xlink:href="#DejaVuSans-32"/>
     <use x="550.537109" xlink:href="#DejaVuSans-111"/>
     <use x="611.71875" xlink:href="#DejaVuSans-102"/>
     <use x="646.923828" xlink:href="#DejaVuSans-32"/>
     <use x="678.710938" xlink:href="#DejaVuSans-102"/>
     <use x="713.916016" xlink:href="#DejaVuSans-99"/>
     <use x="768.896484" xlink:href="#DejaVuSans-50"/>
    </g>
   </g>
   <g id="legend_1">
    <g id="patch_207">
     <path d="M 323.679375 78.82825 
L 407.72 78.82825 
Q 409.72 78.82825 409.72 76.82825 
L 409.72 48.472 
Q 409.72 46.472 407.72 46.472 
L 323.679375 46.472 
Q 321.679375 46.472 321.679375 48.472 
L 321.679375 76.82825 
Q 321.679375 78.82825 323.679375 78.82825 
z
" style="fill:#ffffff;opacity:0.8;stroke:#cccccc;stroke-linejoin:miter;"/>
    </g>
    <g id="patch_208">
     <path d="M 325.679375 58.070437 
L 345.679375 58.070437 
L 345.679375 51.070437 
L 325.679375 51.070437 
z
" style="fill:#0000ff;"/>
    </g>
    <g id="text_16">
     <!-- unmasked -->
     <defs>
      <path d="M 9.078125 75.984375 
L 18.109375 75.984375 
L 18.109375 31.109375 
L 44.921875 54.6875 
L 56.390625 54.6875 
L 27.390625 29.109375 
L 57.625 0 
L 45.90625 0 
L 18.109375 26.703125 
L 18.109375 0 
L 9.078125 0 
z
" id="DejaVuSans-107"/>
      <path d="M 45.40625 46.390625 
L 45.40625 75.984375 
L 54.390625 75.984375 
L 54.390625 0 
L 45.40625 0 
L 45.40625 8.203125 
Q 42.578125 3.328125 38.25 0.953125 
Q 33.9375 -1.421875 27.875 -1.421875 
Q 17.96875 -1.421875 11.734375 6.484375 
Q 5.515625 14.40625 5.515625 27.296875 
Q 5.515625 40.1875 11.734375 48.09375 
Q 17.96875 56 27.875 56 
Q 33.9375 56 38.25 53.625 
Q 42.578125 51.265625 45.40625 46.390625 
z
M 14.796875 27.296875 
Q 14.796875 17.390625 18.875 11.75 
Q 22.953125 6.109375 30.078125 6.109375 
Q 37.203125 6.109375 41.296875 11.75 
Q 45.40625 17.390625 45.40625 27.296875 
Q 45.40625 37.203125 41.296875 42.84375 
Q 37.203125 48.484375 30.078125 48.484375 
Q 22.953125 48.484375 18.875 42.84375 
Q 14.796875 37.203125 14.796875 27.296875 
z
" id="DejaVuSans-100"/>
     </defs>
     <g transform="translate(353.679375 58.070437)scale(0.1 -0.1)">
      <use xlink:href="#DejaVuSans-117"/>
      <use x="63.378906" xlink:href="#DejaVuSans-110"/>
      <use x="126.757812" xlink:href="#DejaVuSans-109"/>
      <use x="224.169922" xlink:href="#DejaVuSans-97"/>
      <use x="285.449219" xlink:href="#DejaVuSans-115"/>
      <use x="337.548828" xlink:href="#DejaVuSans-107"/>
      <use x="395.412109" xlink:href="#DejaVuSans-101"/>
      <use x="456.935547" xlink:href="#DejaVuSans-100"/>
     </g>
    </g>
    <g id="patch_209">
     <path d="M 325.679375 72.748562 
L 345.679375 72.748562 
L 345.679375 65.748562 
L 325.679375 65.748562 
z
" style="fill:#808080;"/>
    </g>
    <g id="text_17">
     <!-- masked -->
     <g transform="translate(353.679375 72.748562)scale(0.1 -0.1)">
      <use xlink:href="#DejaVuSans-109"/>
      <use x="97.412109" xlink:href="#DejaVuSans-97"/>
      <use x="158.691406" xlink:href="#DejaVuSans-115"/>
      <use x="210.791016" xlink:href="#DejaVuSans-107"/>
      <use x="268.654297" xlink:href="#DejaVuSans-101"/>
      <use x="330.177734" xlink:href="#DejaVuSans-100"/>
     </g>
    </g>
   </g>
  </g>
 </g>
 <defs>
  <clipPath id="p042c160747">
   <rect height="266.112" width="357.12" x="57.6" y="41.472"/>
  </clipPath>
 </defs>
</svg>
