<?xml version="1.0" encoding="utf-8" standalone="no"?>
<!DOCTYPE svg PUBLIC "-//W3C//DTD SVG 1.1//EN"
  "http://www.w3.org/Graphics/SVG/1.1/DTD/svg11.dtd">
<!-- Created with matplotlib (https://matplotlib.org/) -->
<svg height="345.6pt" version="1.1" viewBox="0 0 460.8 345.6" width="460.8pt" xmlns="http://www.w3.org/2000/svg" xmlns:xlink="http://www.w3.org/1999/xlink">
 <defs>
  <style type="text/css">
*{stroke-linecap:butt;stroke-linejoin:round;}
  </style>
 </defs>
 <g id="figure_1">
  <g id="patch_1">
   <path d="M 0 345.6 
L 460.8 345.6 
L 460.8 0 
L 0 0 
z
" style="fill:#ffffff;"/>
  </g>
  <g id="axes_1">
   <g id="patch_2">
    <path d="M 57.6 307.584 
L 414.72 307.584 
L 414.72 41.472 
L 57.6 41.472 
z
" style="fill:#ffffff;"/>
   </g>
   <g id="patch_3">
    <path clip-path="url(#pa9511daca1)" d="M 73.832727 307.584 
L 77.079276 307.584 
L 77.079276 307.168978 
L 73.832727 307.168978 
z
" style="fill:#0000ff;"/>
   </g>
   <g id="patch_4">
    <path clip-path="url(#pa9511daca1)" d="M 77.079276 307.584 
L 80.325815 307.584 
L 80.325815 307.584 
L 77.079276 307.584 
z
" style="fill:#0000ff;"/>
   </g>
   <g id="patch_5">
    <path clip-path="url(#pa9511daca1)" d="M 80.325815 307.584 
L 83.572363 307.584 
L 83.572363 307.445659 
L 80.325815 307.445659 
z
" style="fill:#0000ff;"/>
   </g>
   <g id="patch_6">
    <path clip-path="url(#pa9511daca1)" d="M 83.572363 307.584 
L 86.818912 307.584 
L 86.818912 307.584 
L 83.572363 307.584 
z
" style="fill:#0000ff;"/>
   </g>
   <g id="patch_7">
    <path clip-path="url(#pa9511daca1)" d="M 86.818902 307.584 
L 90.06544 307.584 
L 90.06544 307.445659 
L 86.818902 307.445659 
z
" style="fill:#0000ff;"/>
   </g>
   <g id="patch_8">
    <path clip-path="url(#pa9511daca1)" d="M 90.06545 307.584 
L 93.311999 307.584 
L 93.311999 307.445659 
L 90.06545 307.445659 
z
" style="fill:#0000ff;"/>
   </g>
   <g id="patch_9">
    <path clip-path="url(#pa9511daca1)" d="M 93.311999 307.584 
L 96.558548 307.584 
L 96.558548 307.307319 
L 93.311999 307.307319 
z
" style="fill:#0000ff;"/>
   </g>
   <g id="patch_10">
    <path clip-path="url(#pa9511daca1)" d="M 96.558548 307.584 
L 99.805086 307.584 
L 99.805086 307.168978 
L 96.558548 307.168978 
z
" style="fill:#0000ff;"/>
   </g>
   <g id="patch_11">
    <path clip-path="url(#pa9511daca1)" d="M 99.805086 307.584 
L 103.051635 307.584 
L 103.051635 306.892297 
L 99.805086 306.892297 
z
" style="fill:#0000ff;"/>
   </g>
   <g id="patch_12">
    <path clip-path="url(#pa9511daca1)" d="M 103.051635 307.584 
L 106.298184 307.584 
L 106.298184 307.445659 
L 103.051635 307.445659 
z
" style="fill:#0000ff;"/>
   </g>
   <g id="patch_13">
    <path clip-path="url(#pa9511daca1)" d="M 106.298174 307.584 
L 109.544712 307.584 
L 109.544712 306.892297 
L 106.298174 306.892297 
z
" style="fill:#0000ff;"/>
   </g>
   <g id="patch_14">
    <path clip-path="url(#pa9511daca1)" d="M 109.544722 307.584 
L 112.791271 307.584 
L 112.791271 307.030638 
L 109.544722 307.030638 
z
" style="fill:#0000ff;"/>
   </g>
   <g id="patch_15">
    <path clip-path="url(#pa9511daca1)" d="M 112.791271 307.584 
L 116.03782 307.584 
L 116.03782 307.168978 
L 112.791271 307.168978 
z
" style="fill:#0000ff;"/>
   </g>
   <g id="patch_16">
    <path clip-path="url(#pa9511daca1)" d="M 116.03782 307.584 
L 119.284369 307.584 
L 119.284369 306.477275 
L 116.03782 306.477275 
z
" style="fill:#0000ff;"/>
   </g>
   <g id="patch_17">
    <path clip-path="url(#pa9511daca1)" d="M 119.284369 307.584 
L 122.530907 307.584 
L 122.530907 306.615616 
L 119.284369 306.615616 
z
" style="fill:#0000ff;"/>
   </g>
   <g id="patch_18">
    <path clip-path="url(#pa9511daca1)" d="M 122.530907 307.584 
L 125.777456 307.584 
L 125.777456 305.508891 
L 122.530907 305.508891 
z
" style="fill:#0000ff;"/>
   </g>
   <g id="patch_19">
    <path clip-path="url(#pa9511daca1)" d="M 125.777456 307.584 
L 129.024004 307.584 
L 129.024004 306.892297 
L 125.777456 306.892297 
z
" style="fill:#0000ff;"/>
   </g>
   <g id="patch_20">
    <path clip-path="url(#pa9511daca1)" d="M 129.023994 307.584 
L 132.270533 307.584 
L 132.270533 306.753956 
L 129.023994 306.753956 
z
" style="fill:#0000ff;"/>
   </g>
   <g id="patch_21">
    <path clip-path="url(#pa9511daca1)" d="M 132.270543 307.584 
L 135.517092 307.584 
L 135.517092 305.508891 
L 132.270543 305.508891 
z
" style="fill:#0000ff;"/>
   </g>
   <g id="patch_22">
    <path clip-path="url(#pa9511daca1)" d="M 135.517092 307.584 
L 138.76364 307.584 
L 138.76364 306.062253 
L 135.517092 306.062253 
z
" style="fill:#0000ff;"/>
   </g>
   <g id="patch_23">
    <path clip-path="url(#pa9511daca1)" d="M 138.76364 307.584 
L 142.010179 307.584 
L 142.010179 305.647231 
L 138.76364 305.647231 
z
" style="fill:#0000ff;"/>
   </g>
   <g id="patch_24">
    <path clip-path="url(#pa9511daca1)" d="M 142.010179 307.584 
L 145.256728 307.584 
L 145.256728 304.263825 
L 142.010179 304.263825 
z
" style="fill:#0000ff;"/>
   </g>
   <g id="patch_25">
    <path clip-path="url(#pa9511daca1)" d="M 145.256728 307.584 
L 148.503276 307.584 
L 148.503276 303.1571 
L 145.256728 303.1571 
z
" style="fill:#0000ff;"/>
   </g>
   <g id="patch_26">
    <path clip-path="url(#pa9511daca1)" d="M 148.503271 307.584 
L 151.74982 307.584 
L 151.74982 305.23221 
L 148.503271 305.23221 
z
" style="fill:#0000ff;"/>
   </g>
   <g id="patch_27">
    <path clip-path="url(#pa9511daca1)" d="M 151.749815 307.584 
L 154.996364 307.584 
L 154.996364 304.817188 
L 151.749815 304.817188 
z
" style="fill:#0000ff;"/>
   </g>
   <g id="patch_28">
    <path clip-path="url(#pa9511daca1)" d="M 154.996364 307.584 
L 158.242912 307.584 
L 158.242912 302.880419 
L 154.996364 302.880419 
z
" style="fill:#0000ff;"/>
   </g>
   <g id="patch_29">
    <path clip-path="url(#pa9511daca1)" d="M 158.242907 307.584 
L 161.489456 307.584 
L 161.489456 304.817188 
L 158.242907 304.817188 
z
" style="fill:#0000ff;"/>
   </g>
   <g id="patch_30">
    <path clip-path="url(#pa9511daca1)" d="M 161.489451 307.584 
L 164.736 307.584 
L 164.736 301.220332 
L 161.489451 301.220332 
z
" style="fill:#0000ff;"/>
   </g>
   <g id="patch_31">
    <path clip-path="url(#pa9511daca1)" d="M 164.736 307.584 
L 167.982548 307.584 
L 167.982548 304.125485 
L 164.736 304.125485 
z
" style="fill:#0000ff;"/>
   </g>
   <g id="patch_32">
    <path clip-path="url(#pa9511daca1)" d="M 167.982543 307.584 
L 171.229092 307.584 
L 171.229092 299.698585 
L 167.982543 299.698585 
z
" style="fill:#0000ff;"/>
   </g>
   <g id="patch_33">
    <path clip-path="url(#pa9511daca1)" d="M 171.229087 307.584 
L 174.475636 307.584 
L 174.475636 302.603738 
L 171.229087 302.603738 
z
" style="fill:#0000ff;"/>
   </g>
   <g id="patch_34">
    <path clip-path="url(#pa9511daca1)" d="M 174.475636 307.584 
L 177.722184 307.584 
L 177.722184 297.070114 
L 174.475636 297.070114 
z
" style="fill:#0000ff;"/>
   </g>
   <g id="patch_35">
    <path clip-path="url(#pa9511daca1)" d="M 177.722184 307.584 
L 180.968733 307.584 
L 180.968733 301.497013 
L 177.722184 301.497013 
z
" style="fill:#0000ff;"/>
   </g>
   <g id="patch_36">
    <path clip-path="url(#pa9511daca1)" d="M 180.968723 307.584 
L 184.215272 307.584 
L 184.215272 300.251948 
L 180.968723 300.251948 
z
" style="fill:#0000ff;"/>
   </g>
   <g id="patch_37">
    <path clip-path="url(#pa9511daca1)" d="M 184.215272 307.584 
L 187.46182 307.584 
L 187.46182 293.473258 
L 184.215272 293.473258 
z
" style="fill:#0000ff;"/>
   </g>
   <g id="patch_38">
    <path clip-path="url(#pa9511daca1)" d="M 187.461815 307.584 
L 190.708364 307.584 
L 190.708364 297.208454 
L 187.461815 297.208454 
z
" style="fill:#0000ff;"/>
   </g>
   <g id="patch_39">
    <path clip-path="url(#pa9511daca1)" d="M 190.708364 307.584 
L 193.954913 307.584 
L 193.954913 290.291424 
L 190.708364 290.291424 
z
" style="fill:#0000ff;"/>
   </g>
   <g id="patch_40">
    <path clip-path="url(#pa9511daca1)" d="M 193.954907 307.584 
L 197.201456 307.584 
L 197.201456 295.410026 
L 193.954907 295.410026 
z
" style="fill:#0000ff;"/>
   </g>
   <g id="patch_41">
    <path clip-path="url(#pa9511daca1)" d="M 197.201451 307.584 
L 200.448 307.584 
L 200.448 287.386271 
L 197.201451 287.386271 
z
" style="fill:#0000ff;"/>
   </g>
   <g id="patch_42">
    <path clip-path="url(#pa9511daca1)" d="M 200.448 307.584 
L 203.694548 307.584 
L 203.694548 294.164961 
L 200.448 294.164961 
z
" style="fill:#0000ff;"/>
   </g>
   <g id="patch_43">
    <path clip-path="url(#pa9511daca1)" d="M 203.694543 307.584 
L 206.941092 307.584 
L 206.941092 281.714306 
L 203.694543 281.714306 
z
" style="fill:#0000ff;"/>
   </g>
   <g id="patch_44">
    <path clip-path="url(#pa9511daca1)" d="M 206.94109 307.584 
L 210.187638 307.584 
L 210.187638 289.046358 
L 206.94109 289.046358 
z
" style="fill:#0000ff;"/>
   </g>
   <g id="patch_45">
    <path clip-path="url(#pa9511daca1)" d="M 210.187634 307.584 
L 213.434183 307.584 
L 213.434183 286.832908 
L 210.187634 286.832908 
z
" style="fill:#0000ff;"/>
   </g>
   <g id="patch_46">
    <path clip-path="url(#pa9511daca1)" d="M 213.434179 307.584 
L 216.680728 307.584 
L 216.680728 252.386096 
L 213.434179 252.386096 
z
" style="fill:#0000ff;"/>
   </g>
   <g id="patch_47">
    <path clip-path="url(#pa9511daca1)" d="M 216.680726 307.584 
L 219.927274 307.584 
L 219.927274 237.998672 
L 216.680726 237.998672 
z
" style="fill:#0000ff;"/>
   </g>
   <g id="patch_48">
    <path clip-path="url(#pa9511daca1)" d="M 219.927271 307.584 
L 223.17382 307.584 
L 223.17382 176.575441 
L 219.927271 176.575441 
z
" style="fill:#0000ff;"/>
   </g>
   <g id="patch_49">
    <path clip-path="url(#pa9511daca1)" d="M 223.173817 307.584 
L 226.420365 307.584 
L 226.420365 209.085485 
L 223.173817 209.085485 
z
" style="fill:#0000ff;"/>
   </g>
   <g id="patch_50">
    <path clip-path="url(#pa9511daca1)" d="M 226.420362 307.584 
L 229.666911 307.584 
L 229.666911 152.642515 
L 226.420362 152.642515 
z
" style="fill:#0000ff;"/>
   </g>
   <g id="patch_51">
    <path clip-path="url(#pa9511daca1)" d="M 229.666908 307.584 
L 232.913456 307.584 
L 232.913456 210.19221 
L 229.666908 210.19221 
z
" style="fill:#0000ff;"/>
   </g>
   <g id="patch_52">
    <path clip-path="url(#pa9511daca1)" d="M 232.913453 307.584 
L 236.160001 307.584 
L 236.160001 211.713956 
L 232.913453 211.713956 
z
" style="fill:#0000ff;"/>
   </g>
   <g id="patch_53">
    <path clip-path="url(#pa9511daca1)" d="M 236.159999 307.584 
L 239.406547 307.584 
L 239.406547 183.07745 
L 236.159999 183.07745 
z
" style="fill:#0000ff;"/>
   </g>
   <g id="patch_54">
    <path clip-path="url(#pa9511daca1)" d="M 239.406544 307.584 
L 242.653092 307.584 
L 242.653092 248.78924 
L 239.406544 248.78924 
z
" style="fill:#0000ff;"/>
   </g>
   <g id="patch_55">
    <path clip-path="url(#pa9511daca1)" d="M 242.65309 307.584 
L 245.899638 307.584 
L 245.899638 257.78138 
L 242.65309 257.78138 
z
" style="fill:#0000ff;"/>
   </g>
   <g id="patch_56">
    <path clip-path="url(#pa9511daca1)" d="M 245.899635 307.584 
L 249.146183 307.584 
L 249.146183 283.236052 
L 245.899635 283.236052 
z
" style="fill:#0000ff;"/>
   </g>
   <g id="patch_57">
    <path clip-path="url(#pa9511daca1)" d="M 249.146181 307.584 
L 252.392728 307.584 
L 252.392728 277.287406 
L 249.146181 277.287406 
z
" style="fill:#0000ff;"/>
   </g>
   <g id="patch_58">
    <path clip-path="url(#pa9511daca1)" d="M 252.392726 307.584 
L 255.639274 307.584 
L 255.639274 286.971249 
L 252.392726 286.971249 
z
" style="fill:#0000ff;"/>
   </g>
   <g id="patch_59">
    <path clip-path="url(#pa9511daca1)" d="M 255.639272 307.584 
L 258.885821 307.584 
L 258.885821 280.607581 
L 255.639272 280.607581 
z
" style="fill:#0000ff;"/>
   </g>
   <g id="patch_60">
    <path clip-path="url(#pa9511daca1)" d="M 258.885816 307.584 
L 262.132364 307.584 
L 262.132364 290.153083 
L 258.885816 290.153083 
z
" style="fill:#0000ff;"/>
   </g>
   <g id="patch_61">
    <path clip-path="url(#pa9511daca1)" d="M 262.132362 307.584 
L 265.37891 307.584 
L 265.37891 292.919895 
L 262.132362 292.919895 
z
" style="fill:#0000ff;"/>
   </g>
   <g id="patch_62">
    <path clip-path="url(#pa9511daca1)" d="M 265.378908 307.584 
L 268.625457 307.584 
L 268.625457 290.706445 
L 265.378908 290.706445 
z
" style="fill:#0000ff;"/>
   </g>
   <g id="patch_63">
    <path clip-path="url(#pa9511daca1)" d="M 268.625452 307.584 
L 271.872 307.584 
L 271.872 296.931773 
L 268.625452 296.931773 
z
" style="fill:#0000ff;"/>
   </g>
   <g id="patch_64">
    <path clip-path="url(#pa9511daca1)" d="M 271.871995 307.584 
L 275.118544 307.584 
L 275.118544 294.164961 
L 271.871995 294.164961 
z
" style="fill:#0000ff;"/>
   </g>
   <g id="patch_65">
    <path clip-path="url(#pa9511daca1)" d="M 275.118544 307.584 
L 278.365093 307.584 
L 278.365093 299.421904 
L 275.118544 299.421904 
z
" style="fill:#0000ff;"/>
   </g>
   <g id="patch_66">
    <path clip-path="url(#pa9511daca1)" d="M 278.365093 307.584 
L 281.611641 307.584 
L 281.611641 298.176838 
L 278.365093 298.176838 
z
" style="fill:#0000ff;"/>
   </g>
   <g id="patch_67">
    <path clip-path="url(#pa9511daca1)" d="M 281.611631 307.584 
L 284.85818 307.584 
L 284.85818 303.433782 
L 281.611631 303.433782 
z
" style="fill:#0000ff;"/>
   </g>
   <g id="patch_68">
    <path clip-path="url(#pa9511daca1)" d="M 284.85818 307.584 
L 288.104728 307.584 
L 288.104728 300.390288 
L 284.85818 300.390288 
z
" style="fill:#0000ff;"/>
   </g>
   <g id="patch_69">
    <path clip-path="url(#pa9511daca1)" d="M 288.104728 307.584 
L 291.351277 307.584 
L 291.351277 303.710463 
L 288.104728 303.710463 
z
" style="fill:#0000ff;"/>
   </g>
   <g id="patch_70">
    <path clip-path="url(#pa9511daca1)" d="M 291.351267 307.584 
L 294.597816 307.584 
L 294.597816 305.647231 
L 291.351267 305.647231 
z
" style="fill:#0000ff;"/>
   </g>
   <g id="patch_71">
    <path clip-path="url(#pa9511daca1)" d="M 294.597816 307.584 
L 297.844364 307.584 
L 297.844364 303.710463 
L 294.597816 303.710463 
z
" style="fill:#0000ff;"/>
   </g>
   <g id="patch_72">
    <path clip-path="url(#pa9511daca1)" d="M 297.844364 307.584 
L 301.090913 307.584 
L 301.090913 306.338934 
L 297.844364 306.338934 
z
" style="fill:#0000ff;"/>
   </g>
   <g id="patch_73">
    <path clip-path="url(#pa9511daca1)" d="M 301.090908 307.584 
L 304.337457 307.584 
L 304.337457 305.785572 
L 301.090908 305.785572 
z
" style="fill:#0000ff;"/>
   </g>
   <g id="patch_74">
    <path clip-path="url(#pa9511daca1)" d="M 304.337452 307.584 
L 307.584 307.584 
L 307.584 306.338934 
L 304.337452 306.338934 
z
" style="fill:#0000ff;"/>
   </g>
   <g id="patch_75">
    <path clip-path="url(#pa9511daca1)" d="M 307.584 307.584 
L 310.830549 307.584 
L 310.830549 306.338934 
L 307.584 306.338934 
z
" style="fill:#0000ff;"/>
   </g>
   <g id="patch_76">
    <path clip-path="url(#pa9511daca1)" d="M 310.830544 307.584 
L 314.077093 307.584 
L 314.077093 307.030638 
L 310.830544 307.030638 
z
" style="fill:#0000ff;"/>
   </g>
   <g id="patch_77">
    <path clip-path="url(#pa9511daca1)" d="M 314.077088 307.584 
L 317.323636 307.584 
L 317.323636 306.615616 
L 314.077088 306.615616 
z
" style="fill:#0000ff;"/>
   </g>
   <g id="patch_78">
    <path clip-path="url(#pa9511daca1)" d="M 317.323636 307.584 
L 320.570185 307.584 
L 320.570185 306.892297 
L 317.323636 306.892297 
z
" style="fill:#0000ff;"/>
   </g>
   <g id="patch_79">
    <path clip-path="url(#pa9511daca1)" d="M 320.570185 307.584 
L 323.816724 307.584 
L 323.816724 307.168978 
L 320.570185 307.168978 
z
" style="fill:#0000ff;"/>
   </g>
   <g id="patch_80">
    <path clip-path="url(#pa9511daca1)" d="M 323.816724 307.584 
L 327.063272 307.584 
L 327.063272 307.030638 
L 323.816724 307.030638 
z
" style="fill:#0000ff;"/>
   </g>
   <g id="patch_81">
    <path clip-path="url(#pa9511daca1)" d="M 327.063272 307.584 
L 330.309821 307.584 
L 330.309821 307.584 
L 327.063272 307.584 
z
" style="fill:#0000ff;"/>
   </g>
   <g id="patch_82">
    <path clip-path="url(#pa9511daca1)" d="M 330.309811 307.584 
L 333.556349 307.584 
L 333.556349 307.307319 
L 330.309811 307.307319 
z
" style="fill:#0000ff;"/>
   </g>
   <g id="patch_83">
    <path clip-path="url(#pa9511daca1)" d="M 333.55636 307.584 
L 336.802908 307.584 
L 336.802908 307.307319 
L 333.55636 307.307319 
z
" style="fill:#0000ff;"/>
   </g>
   <g id="patch_84">
    <path clip-path="url(#pa9511daca1)" d="M 336.802908 307.584 
L 340.049457 307.584 
L 340.049457 307.584 
L 336.802908 307.584 
z
" style="fill:#0000ff;"/>
   </g>
   <g id="patch_85">
    <path clip-path="url(#pa9511daca1)" d="M 340.049457 307.584 
L 343.295996 307.584 
L 343.295996 307.584 
L 340.049457 307.584 
z
" style="fill:#0000ff;"/>
   </g>
   <g id="patch_86">
    <path clip-path="url(#pa9511daca1)" d="M 343.295996 307.584 
L 346.542544 307.584 
L 346.542544 307.445659 
L 343.295996 307.445659 
z
" style="fill:#0000ff;"/>
   </g>
   <g id="patch_87">
    <path clip-path="url(#pa9511daca1)" d="M 346.542544 307.584 
L 349.789093 307.584 
L 349.789093 307.584 
L 346.542544 307.584 
z
" style="fill:#0000ff;"/>
   </g>
   <g id="patch_88">
    <path clip-path="url(#pa9511daca1)" d="M 349.789083 307.584 
L 353.035621 307.584 
L 353.035621 307.584 
L 349.789083 307.584 
z
" style="fill:#0000ff;"/>
   </g>
   <g id="patch_89">
    <path clip-path="url(#pa9511daca1)" d="M 353.035631 307.584 
L 356.28218 307.584 
L 356.28218 307.445659 
L 353.035631 307.445659 
z
" style="fill:#0000ff;"/>
   </g>
   <g id="patch_90">
    <path clip-path="url(#pa9511daca1)" d="M 356.28218 307.584 
L 359.528729 307.584 
L 359.528729 307.584 
L 356.28218 307.584 
z
" style="fill:#0000ff;"/>
   </g>
   <g id="patch_91">
    <path clip-path="url(#pa9511daca1)" d="M 359.528729 307.584 
L 362.775278 307.584 
L 362.775278 307.584 
L 359.528729 307.584 
z
" style="fill:#0000ff;"/>
   </g>
   <g id="patch_92">
    <path clip-path="url(#pa9511daca1)" d="M 362.775278 307.584 
L 366.021816 307.584 
L 366.021816 307.584 
L 362.775278 307.584 
z
" style="fill:#0000ff;"/>
   </g>
   <g id="patch_93">
    <path clip-path="url(#pa9511daca1)" d="M 366.021816 307.584 
L 369.268365 307.584 
L 369.268365 307.445659 
L 366.021816 307.445659 
z
" style="fill:#0000ff;"/>
   </g>
   <g id="patch_94">
    <path clip-path="url(#pa9511daca1)" d="M 369.268365 307.584 
L 372.514914 307.584 
L 372.514914 307.445659 
L 369.268365 307.445659 
z
" style="fill:#0000ff;"/>
   </g>
   <g id="patch_95">
    <path clip-path="url(#pa9511daca1)" d="M 372.514903 307.584 
L 375.761442 307.584 
L 375.761442 307.584 
L 372.514903 307.584 
z
" style="fill:#0000ff;"/>
   </g>
   <g id="patch_96">
    <path clip-path="url(#pa9511daca1)" d="M 375.761452 307.584 
L 379.008001 307.584 
L 379.008001 307.445659 
L 375.761452 307.445659 
z
" style="fill:#0000ff;"/>
   </g>
   <g id="patch_97">
    <path clip-path="url(#pa9511daca1)" d="M 379.008001 307.584 
L 382.25455 307.584 
L 382.25455 307.584 
L 379.008001 307.584 
z
" style="fill:#0000ff;"/>
   </g>
   <g id="patch_98">
    <path clip-path="url(#pa9511daca1)" d="M 382.25455 307.584 
L 385.501088 307.584 
L 385.501088 307.584 
L 382.25455 307.584 
z
" style="fill:#0000ff;"/>
   </g>
   <g id="patch_99">
    <path clip-path="url(#pa9511daca1)" d="M 385.501088 307.584 
L 388.747637 307.584 
L 388.747637 307.584 
L 385.501088 307.584 
z
" style="fill:#0000ff;"/>
   </g>
   <g id="patch_100">
    <path clip-path="url(#pa9511daca1)" d="M 388.747637 307.584 
L 391.994185 307.584 
L 391.994185 307.584 
L 388.747637 307.584 
z
" style="fill:#0000ff;"/>
   </g>
   <g id="patch_101">
    <path clip-path="url(#pa9511daca1)" d="M 391.994175 307.584 
L 395.240714 307.584 
L 395.240714 307.584 
L 391.994175 307.584 
z
" style="fill:#0000ff;"/>
   </g>
   <g id="patch_102">
    <path clip-path="url(#pa9511daca1)" d="M 395.240724 307.584 
L 398.487273 307.584 
L 398.487273 307.445659 
L 395.240724 307.445659 
z
" style="fill:#0000ff;"/>
   </g>
   <g id="patch_103">
    <path clip-path="url(#pa9511daca1)" d="M 73.832727 307.584 
L 77.026053 307.584 
L 77.026053 307.445659 
L 73.832727 307.445659 
z
" style="fill:#808080;"/>
   </g>
   <g id="patch_104">
    <path clip-path="url(#pa9511daca1)" d="M 77.026063 307.584 
L 80.219388 307.584 
L 80.219388 307.584 
L 77.026063 307.584 
z
" style="fill:#808080;"/>
   </g>
   <g id="patch_105">
    <path clip-path="url(#pa9511daca1)" d="M 80.219378 307.584 
L 83.412693 307.584 
L 83.412693 307.168978 
L 80.219378 307.168978 
z
" style="fill:#808080;"/>
   </g>
   <g id="patch_106">
    <path clip-path="url(#pa9511daca1)" d="M 83.412693 307.584 
L 86.606019 307.584 
L 86.606019 307.584 
L 83.412693 307.584 
z
" style="fill:#808080;"/>
   </g>
   <g id="patch_107">
    <path clip-path="url(#pa9511daca1)" d="M 86.606029 307.584 
L 89.799354 307.584 
L 89.799354 307.584 
L 86.606029 307.584 
z
" style="fill:#808080;"/>
   </g>
   <g id="patch_108">
    <path clip-path="url(#pa9511daca1)" d="M 89.799344 307.584 
L 92.99267 307.584 
L 92.99267 307.307319 
L 89.799344 307.307319 
z
" style="fill:#808080;"/>
   </g>
   <g id="patch_109">
    <path clip-path="url(#pa9511daca1)" d="M 92.99268 307.584 
L 96.186005 307.584 
L 96.186005 307.307319 
L 92.99268 307.307319 
z
" style="fill:#808080;"/>
   </g>
   <g id="patch_110">
    <path clip-path="url(#pa9511daca1)" d="M 96.185995 307.584 
L 99.37931 307.584 
L 99.37931 307.584 
L 96.185995 307.584 
z
" style="fill:#808080;"/>
   </g>
   <g id="patch_111">
    <path clip-path="url(#pa9511daca1)" d="M 99.37931 307.584 
L 102.572636 307.584 
L 102.572636 306.477275 
L 99.37931 306.477275 
z
" style="fill:#808080;"/>
   </g>
   <g id="patch_112">
    <path clip-path="url(#pa9511daca1)" d="M 102.572646 307.584 
L 105.765971 307.584 
L 105.765971 307.445659 
L 102.572646 307.445659 
z
" style="fill:#808080;"/>
   </g>
   <g id="patch_113">
    <path clip-path="url(#pa9511daca1)" d="M 105.765961 307.584 
L 108.959287 307.584 
L 108.959287 307.584 
L 105.765961 307.584 
z
" style="fill:#808080;"/>
   </g>
   <g id="patch_114">
    <path clip-path="url(#pa9511daca1)" d="M 108.959297 307.584 
L 112.152622 307.584 
L 112.152622 307.584 
L 108.959297 307.584 
z
" style="fill:#808080;"/>
   </g>
   <g id="patch_115">
    <path clip-path="url(#pa9511daca1)" d="M 112.152612 307.584 
L 115.345927 307.584 
L 115.345927 305.923913 
L 112.152612 305.923913 
z
" style="fill:#808080;"/>
   </g>
   <g id="patch_116">
    <path clip-path="url(#pa9511daca1)" d="M 115.345927 307.584 
L 118.539253 307.584 
L 118.539253 307.307319 
L 115.345927 307.307319 
z
" style="fill:#808080;"/>
   </g>
   <g id="patch_117">
    <path clip-path="url(#pa9511daca1)" d="M 118.539263 307.584 
L 121.732588 307.584 
L 121.732588 307.584 
L 118.539263 307.584 
z
" style="fill:#808080;"/>
   </g>
   <g id="patch_118">
    <path clip-path="url(#pa9511daca1)" d="M 121.732578 307.584 
L 124.925904 307.584 
L 124.925904 304.540507 
L 121.732578 304.540507 
z
" style="fill:#808080;"/>
   </g>
   <g id="patch_119">
    <path clip-path="url(#pa9511daca1)" d="M 124.925914 307.584 
L 128.119239 307.584 
L 128.119239 306.477275 
L 124.925914 306.477275 
z
" style="fill:#808080;"/>
   </g>
   <g id="patch_120">
    <path clip-path="url(#pa9511daca1)" d="M 128.119229 307.584 
L 131.312544 307.584 
L 131.312544 307.584 
L 128.119229 307.584 
z
" style="fill:#808080;"/>
   </g>
   <g id="patch_121">
    <path clip-path="url(#pa9511daca1)" d="M 131.312544 307.584 
L 134.50587 307.584 
L 134.50587 304.817188 
L 131.312544 304.817188 
z
" style="fill:#808080;"/>
   </g>
   <g id="patch_122">
    <path clip-path="url(#pa9511daca1)" d="M 134.50588 307.584 
L 137.699205 307.584 
L 137.699205 306.200594 
L 134.50588 306.200594 
z
" style="fill:#808080;"/>
   </g>
   <g id="patch_123">
    <path clip-path="url(#pa9511daca1)" d="M 137.699195 307.584 
L 140.892521 307.584 
L 140.892521 306.892297 
L 137.699195 306.892297 
z
" style="fill:#808080;"/>
   </g>
   <g id="patch_124">
    <path clip-path="url(#pa9511daca1)" d="M 140.892531 307.584 
L 144.085856 307.584 
L 144.085856 307.584 
L 140.892531 307.584 
z
" style="fill:#808080;"/>
   </g>
   <g id="patch_125">
    <path clip-path="url(#pa9511daca1)" d="M 144.085846 307.584 
L 147.279161 307.584 
L 147.279161 299.421904 
L 144.085846 299.421904 
z
" style="fill:#808080;"/>
   </g>
   <g id="patch_126">
    <path clip-path="url(#pa9511daca1)" d="M 147.279172 307.584 
L 150.472487 307.584 
L 150.472487 306.062253 
L 147.279172 306.062253 
z
" style="fill:#808080;"/>
   </g>
   <g id="patch_127">
    <path clip-path="url(#pa9511daca1)" d="M 150.472487 307.584 
L 153.665812 307.584 
L 153.665812 307.584 
L 150.472487 307.584 
z
" style="fill:#808080;"/>
   </g>
   <g id="patch_128">
    <path clip-path="url(#pa9511daca1)" d="M 153.665812 307.584 
L 156.859138 307.584 
L 156.859138 299.836926 
L 153.665812 299.836926 
z
" style="fill:#808080;"/>
   </g>
   <g id="patch_129">
    <path clip-path="url(#pa9511daca1)" d="M 156.859138 307.584 
L 160.052453 307.584 
L 160.052453 304.402166 
L 156.859138 304.402166 
z
" style="fill:#808080;"/>
   </g>
   <g id="patch_130">
    <path clip-path="url(#pa9511daca1)" d="M 160.052458 307.584 
L 163.245783 307.584 
L 163.245783 307.584 
L 160.052458 307.584 
z
" style="fill:#808080;"/>
   </g>
   <g id="patch_131">
    <path clip-path="url(#pa9511daca1)" d="M 163.245789 307.584 
L 166.439104 307.584 
L 166.439104 297.900157 
L 163.245789 297.900157 
z
" style="fill:#808080;"/>
   </g>
   <g id="patch_132">
    <path clip-path="url(#pa9511daca1)" d="M 166.439104 307.584 
L 169.632429 307.584 
L 169.632429 303.433782 
L 166.439104 303.433782 
z
" style="fill:#808080;"/>
   </g>
   <g id="patch_133">
    <path clip-path="url(#pa9511daca1)" d="M 169.632429 307.584 
L 172.825755 307.584 
L 172.825755 305.647231 
L 169.632429 305.647231 
z
" style="fill:#808080;"/>
   </g>
   <g id="patch_134">
    <path clip-path="url(#pa9511daca1)" d="M 172.825755 307.584 
L 176.01907 307.584 
L 176.01907 307.584 
L 172.825755 307.584 
z
" style="fill:#808080;"/>
   </g>
   <g id="patch_135">
    <path clip-path="url(#pa9511daca1)" d="M 176.019075 307.584 
L 179.2124 307.584 
L 179.2124 285.864524 
L 176.019075 285.864524 
z
" style="fill:#808080;"/>
   </g>
   <g id="patch_136">
    <path clip-path="url(#pa9511daca1)" d="M 179.212405 307.584 
L 182.405721 307.584 
L 182.405721 304.125485 
L 179.212405 304.125485 
z
" style="fill:#808080;"/>
   </g>
   <g id="patch_137">
    <path clip-path="url(#pa9511daca1)" d="M 182.405721 307.584 
L 185.599046 307.584 
L 185.599046 307.584 
L 182.405721 307.584 
z
" style="fill:#808080;"/>
   </g>
   <g id="patch_138">
    <path clip-path="url(#pa9511daca1)" d="M 185.599046 307.584 
L 188.792372 307.584 
L 188.792372 281.714306 
L 185.599046 281.714306 
z
" style="fill:#808080;"/>
   </g>
   <g id="patch_139">
    <path clip-path="url(#pa9511daca1)" d="M 188.792367 307.584 
L 191.985692 307.584 
L 191.985692 296.37841 
L 188.792367 296.37841 
z
" style="fill:#808080;"/>
   </g>
   <g id="patch_140">
    <path clip-path="url(#pa9511daca1)" d="M 191.985692 307.584 
L 195.179017 307.584 
L 195.179017 307.584 
L 191.985692 307.584 
z
" style="fill:#808080;"/>
   </g>
   <g id="patch_141">
    <path clip-path="url(#pa9511daca1)" d="M 195.179017 307.584 
L 198.372343 307.584 
L 198.372343 276.457362 
L 195.179017 276.457362 
z
" style="fill:#808080;"/>
   </g>
   <g id="patch_142">
    <path clip-path="url(#pa9511daca1)" d="M 198.372338 307.584 
L 201.565663 307.584 
L 201.565663 294.303301 
L 198.372338 294.303301 
z
" style="fill:#808080;"/>
   </g>
   <g id="patch_143">
    <path clip-path="url(#pa9511daca1)" d="M 201.565663 307.584 
L 204.758989 307.584 
L 204.758989 300.251948 
L 201.565663 300.251948 
z
" style="fill:#808080;"/>
   </g>
   <g id="patch_144">
    <path clip-path="url(#pa9511daca1)" d="M 204.758984 307.584 
L 207.952309 307.584 
L 207.952309 307.584 
L 204.758984 307.584 
z
" style="fill:#808080;"/>
   </g>
   <g id="patch_145">
    <path clip-path="url(#pa9511daca1)" d="M 207.952309 307.584 
L 211.145634 307.584 
L 211.145634 247.405834 
L 207.952309 247.405834 
z
" style="fill:#808080;"/>
   </g>
   <g id="patch_146">
    <path clip-path="url(#pa9511daca1)" d="M 211.145632 307.584 
L 214.338957 307.584 
L 214.338957 296.516751 
L 211.145632 296.516751 
z
" style="fill:#808080;"/>
   </g>
   <g id="patch_147">
    <path clip-path="url(#pa9511daca1)" d="M 214.338956 307.584 
L 217.532281 307.584 
L 217.532281 307.584 
L 214.338956 307.584 
z
" style="fill:#808080;"/>
   </g>
   <g id="patch_148">
    <path clip-path="url(#pa9511daca1)" d="M 217.532279 307.584 
L 220.725604 307.584 
L 220.725604 143.373694 
L 217.532279 143.373694 
z
" style="fill:#808080;"/>
   </g>
   <g id="patch_149">
    <path clip-path="url(#pa9511daca1)" d="M 220.725603 307.584 
L 223.918928 307.584 
L 223.918928 216.002515 
L 220.725603 216.002515 
z
" style="fill:#808080;"/>
   </g>
   <g id="patch_150">
    <path clip-path="url(#pa9511daca1)" d="M 223.918926 307.584 
L 227.112251 307.584 
L 227.112251 307.584 
L 223.918926 307.584 
z
" style="fill:#808080;"/>
   </g>
   <g id="patch_151">
    <path clip-path="url(#pa9511daca1)" d="M 227.112249 307.584 
L 230.305575 307.584 
L 230.305575 54.144 
L 227.112249 54.144 
z
" style="fill:#808080;"/>
   </g>
   <g id="patch_152">
    <path clip-path="url(#pa9511daca1)" d="M 230.305573 307.584 
L 233.498898 307.584 
L 233.498898 210.19221 
L 230.305573 210.19221 
z
" style="fill:#808080;"/>
   </g>
   <g id="patch_153">
    <path clip-path="url(#pa9511daca1)" d="M 233.498896 307.584 
L 236.692221 307.584 
L 236.692221 258.473083 
L 233.498896 258.473083 
z
" style="fill:#808080;"/>
   </g>
   <g id="patch_154">
    <path clip-path="url(#pa9511daca1)" d="M 236.69222 307.584 
L 239.885545 307.584 
L 239.885545 307.584 
L 236.69222 307.584 
z
" style="fill:#808080;"/>
   </g>
   <g id="patch_155">
    <path clip-path="url(#pa9511daca1)" d="M 239.885543 307.584 
L 243.078868 307.584 
L 243.078868 59.124262 
L 239.885543 59.124262 
z
" style="fill:#808080;"/>
   </g>
   <g id="patch_156">
    <path clip-path="url(#pa9511daca1)" d="M 243.078866 307.584 
L 246.272191 307.584 
L 246.272191 290.568105 
L 243.078866 290.568105 
z
" style="fill:#808080;"/>
   </g>
   <g id="patch_157">
    <path clip-path="url(#pa9511daca1)" d="M 246.27219 307.584 
L 249.465515 307.584 
L 249.465515 307.584 
L 246.27219 307.584 
z
" style="fill:#808080;"/>
   </g>
   <g id="patch_158">
    <path clip-path="url(#pa9511daca1)" d="M 249.465514 307.584 
L 252.65884 307.584 
L 252.65884 238.552035 
L 249.465514 238.552035 
z
" style="fill:#808080;"/>
   </g>
   <g id="patch_159">
    <path clip-path="url(#pa9511daca1)" d="M 252.658835 307.584 
L 255.85216 307.584 
L 255.85216 286.971249 
L 252.658835 286.971249 
z
" style="fill:#808080;"/>
   </g>
   <g id="patch_160">
    <path clip-path="url(#pa9511daca1)" d="M 255.85216 307.584 
L 259.045485 307.584 
L 259.045485 307.584 
L 255.85216 307.584 
z
" style="fill:#808080;"/>
   </g>
   <g id="patch_161">
    <path clip-path="url(#pa9511daca1)" d="M 259.045485 307.584 
L 262.238811 307.584 
L 262.238811 263.176664 
L 259.045485 263.176664 
z
" style="fill:#808080;"/>
   </g>
   <g id="patch_162">
    <path clip-path="url(#pa9511daca1)" d="M 262.238806 307.584 
L 265.432131 307.584 
L 265.432131 292.919895 
L 262.238806 292.919895 
z
" style="fill:#808080;"/>
   </g>
   <g id="patch_163">
    <path clip-path="url(#pa9511daca1)" d="M 265.432131 307.584 
L 268.625457 307.584 
L 268.625457 301.358672 
L 265.432131 301.358672 
z
" style="fill:#808080;"/>
   </g>
   <g id="patch_164">
    <path clip-path="url(#pa9511daca1)" d="M 268.625452 307.584 
L 271.818777 307.584 
L 271.818777 307.584 
L 268.625452 307.584 
z
" style="fill:#808080;"/>
   </g>
   <g id="patch_165">
    <path clip-path="url(#pa9511daca1)" d="M 271.818777 307.584 
L 275.012102 307.584 
L 275.012102 272.860507 
L 271.818777 272.860507 
z
" style="fill:#808080;"/>
   </g>
   <g id="patch_166">
    <path clip-path="url(#pa9511daca1)" d="M 275.012107 307.584 
L 278.205423 307.584 
L 278.205423 303.433782 
L 275.012107 303.433782 
z
" style="fill:#808080;"/>
   </g>
   <g id="patch_167">
    <path clip-path="url(#pa9511daca1)" d="M 278.205423 307.584 
L 281.398748 307.584 
L 281.398748 307.584 
L 278.205423 307.584 
z
" style="fill:#808080;"/>
   </g>
   <g id="patch_168">
    <path clip-path="url(#pa9511daca1)" d="M 281.398748 307.584 
L 284.592074 307.584 
L 284.592074 290.014742 
L 281.398748 290.014742 
z
" style="fill:#808080;"/>
   </g>
   <g id="patch_169">
    <path clip-path="url(#pa9511daca1)" d="M 284.592074 307.584 
L 287.785389 307.584 
L 287.785389 302.880419 
L 284.592074 302.880419 
z
" style="fill:#808080;"/>
   </g>
   <g id="patch_170">
    <path clip-path="url(#pa9511daca1)" d="M 287.785394 307.584 
L 290.978719 307.584 
L 290.978719 307.584 
L 287.785394 307.584 
z
" style="fill:#808080;"/>
   </g>
   <g id="patch_171">
    <path clip-path="url(#pa9511daca1)" d="M 290.978724 307.584 
L 294.17204 307.584 
L 294.17204 299.283563 
L 290.978724 299.283563 
z
" style="fill:#808080;"/>
   </g>
   <g id="patch_172">
    <path clip-path="url(#pa9511daca1)" d="M 294.17204 307.584 
L 297.365365 307.584 
L 297.365365 304.955528 
L 294.17204 304.955528 
z
" style="fill:#808080;"/>
   </g>
   <g id="patch_173">
    <path clip-path="url(#pa9511daca1)" d="M 297.365365 307.584 
L 300.558691 307.584 
L 300.558691 306.338934 
L 297.365365 306.338934 
z
" style="fill:#808080;"/>
   </g>
   <g id="patch_174">
    <path clip-path="url(#pa9511daca1)" d="M 300.558691 307.584 
L 303.752006 307.584 
L 303.752006 307.584 
L 300.558691 307.584 
z
" style="fill:#808080;"/>
   </g>
   <g id="patch_175">
    <path clip-path="url(#pa9511daca1)" d="M 303.752011 307.584 
L 306.945336 307.584 
L 306.945336 303.295441 
L 303.752011 303.295441 
z
" style="fill:#808080;"/>
   </g>
   <g id="patch_176">
    <path clip-path="url(#pa9511daca1)" d="M 306.945341 307.584 
L 310.138657 307.584 
L 310.138657 307.445659 
L 306.945341 307.445659 
z
" style="fill:#808080;"/>
   </g>
   <g id="patch_177">
    <path clip-path="url(#pa9511daca1)" d="M 310.138657 307.584 
L 313.331982 307.584 
L 313.331982 307.584 
L 310.138657 307.584 
z
" style="fill:#808080;"/>
   </g>
   <g id="patch_178">
    <path clip-path="url(#pa9511daca1)" d="M 313.331977 307.584 
L 316.525297 307.584 
L 316.525297 304.955528 
L 313.331977 304.955528 
z
" style="fill:#808080;"/>
   </g>
   <g id="patch_179">
    <path clip-path="url(#pa9511daca1)" d="M 316.525318 307.584 
L 319.718643 307.584 
L 319.718643 307.030638 
L 316.525318 307.030638 
z
" style="fill:#808080;"/>
   </g>
   <g id="patch_180">
    <path clip-path="url(#pa9511daca1)" d="M 319.718633 307.584 
L 322.911948 307.584 
L 322.911948 307.584 
L 319.718633 307.584 
z
" style="fill:#808080;"/>
   </g>
   <g id="patch_181">
    <path clip-path="url(#pa9511daca1)" d="M 322.911948 307.584 
L 326.105274 307.584 
L 326.105274 306.753956 
L 322.911948 306.753956 
z
" style="fill:#808080;"/>
   </g>
   <g id="patch_182">
    <path clip-path="url(#pa9511daca1)" d="M 326.105284 307.584 
L 329.298609 307.584 
L 329.298609 307.307319 
L 326.105284 307.307319 
z
" style="fill:#808080;"/>
   </g>
   <g id="patch_183">
    <path clip-path="url(#pa9511daca1)" d="M 329.298599 307.584 
L 332.491925 307.584 
L 332.491925 307.584 
L 329.298599 307.584 
z
" style="fill:#808080;"/>
   </g>
   <g id="patch_184">
    <path clip-path="url(#pa9511daca1)" d="M 332.491935 307.584 
L 335.68526 307.584 
L 335.68526 307.584 
L 332.491935 307.584 
z
" style="fill:#808080;"/>
   </g>
   <g id="patch_185">
    <path clip-path="url(#pa9511daca1)" d="M 335.68525 307.584 
L 338.878565 307.584 
L 338.878565 307.030638 
L 335.68525 307.030638 
z
" style="fill:#808080;"/>
   </g>
   <g id="patch_186">
    <path clip-path="url(#pa9511daca1)" d="M 338.878565 307.584 
L 342.071891 307.584 
L 342.071891 307.584 
L 338.878565 307.584 
z
" style="fill:#808080;"/>
   </g>
   <g id="patch_187">
    <path clip-path="url(#pa9511daca1)" d="M 342.071901 307.584 
L 345.265226 307.584 
L 345.265226 307.584 
L 342.071901 307.584 
z
" style="fill:#808080;"/>
   </g>
   <g id="patch_188">
    <path clip-path="url(#pa9511daca1)" d="M 345.265216 307.584 
L 348.458542 307.584 
L 348.458542 307.445659 
L 345.265216 307.445659 
z
" style="fill:#808080;"/>
   </g>
   <g id="patch_189">
    <path clip-path="url(#pa9511daca1)" d="M 348.458552 307.584 
L 351.651877 307.584 
L 351.651877 307.584 
L 348.458552 307.584 
z
" style="fill:#808080;"/>
   </g>
   <g id="patch_190">
    <path clip-path="url(#pa9511daca1)" d="M 351.651867 307.584 
L 354.845182 307.584 
L 354.845182 307.584 
L 351.651867 307.584 
z
" style="fill:#808080;"/>
   </g>
   <g id="patch_191">
    <path clip-path="url(#pa9511daca1)" d="M 354.845182 307.584 
L 358.038508 307.584 
L 358.038508 307.445659 
L 354.845182 307.445659 
z
" style="fill:#808080;"/>
   </g>
   <g id="patch_192">
    <path clip-path="url(#pa9511daca1)" d="M 358.038518 307.584 
L 361.231843 307.584 
L 361.231843 307.584 
L 358.038518 307.584 
z
" style="fill:#808080;"/>
   </g>
   <g id="patch_193">
    <path clip-path="url(#pa9511daca1)" d="M 361.231833 307.584 
L 364.425159 307.584 
L 364.425159 307.584 
L 361.231833 307.584 
z
" style="fill:#808080;"/>
   </g>
   <g id="patch_194">
    <path clip-path="url(#pa9511daca1)" d="M 364.425169 307.584 
L 367.618494 307.584 
L 367.618494 307.584 
L 364.425169 307.584 
z
" style="fill:#808080;"/>
   </g>
   <g id="patch_195">
    <path clip-path="url(#pa9511daca1)" d="M 367.618484 307.584 
L 370.811799 307.584 
L 370.811799 307.445659 
L 367.618484 307.445659 
z
" style="fill:#808080;"/>
   </g>
   <g id="patch_196">
    <path clip-path="url(#pa9511daca1)" d="M 370.811799 307.584 
L 374.005125 307.584 
L 374.005125 307.445659 
L 370.811799 307.445659 
z
" style="fill:#808080;"/>
   </g>
   <g id="patch_197">
    <path clip-path="url(#pa9511daca1)" d="M 374.005135 307.584 
L 377.19846 307.584 
L 377.19846 307.584 
L 374.005135 307.584 
z
" style="fill:#808080;"/>
   </g>
   <g id="patch_198">
    <path clip-path="url(#pa9511daca1)" d="M 377.19845 307.584 
L 380.391776 307.584 
L 380.391776 307.445659 
L 377.19845 307.445659 
z
" style="fill:#808080;"/>
   </g>
   <g id="patch_199">
    <path clip-path="url(#pa9511daca1)" d="M 380.391786 307.584 
L 383.585111 307.584 
L 383.585111 307.584 
L 380.391786 307.584 
z
" style="fill:#808080;"/>
   </g>
   <g id="patch_200">
    <path clip-path="url(#pa9511daca1)" d="M 383.585101 307.584 
L 386.778416 307.584 
L 386.778416 307.584 
L 383.585101 307.584 
z
" style="fill:#808080;"/>
   </g>
   <g id="patch_201">
    <path clip-path="url(#pa9511daca1)" d="M 386.778416 307.584 
L 389.971742 307.584 
L 389.971742 307.584 
L 386.778416 307.584 
z
" style="fill:#808080;"/>
   </g>
   <g id="patch_202">
    <path clip-path="url(#pa9511daca1)" d="M 389.971752 307.584 
L 393.165077 307.584 
L 393.165077 307.445659 
L 389.971752 307.445659 
z
" style="fill:#808080;"/>
   </g>
   <g id="matplotlib.axis_1">
    <g id="xtick_1">
     <g id="line2d_1">
      <defs>
       <path d="M 0 0 
L 0 3.5 
" id="m4ca5ac4a53" style="stroke:#000000;stroke-width:0.8;"/>
      </defs>
      <g>
       <use style="stroke:#000000;stroke-width:0.8;" x="96.452101" xlink:href="#m4ca5ac4a53" y="307.584"/>
      </g>
     </g>
     <g id="text_1">
      <!-- −100 -->
      <defs>
       <path d="M 10.59375 35.5 
L 73.1875 35.5 
L 73.1875 27.203125 
L 10.59375 27.203125 
z
" id="DejaVuSans-8722"/>
       <path d="M 12.40625 8.296875 
L 28.515625 8.296875 
L 28.515625 63.921875 
L 10.984375 60.40625 
L 10.984375 69.390625 
L 28.421875 72.90625 
L 38.28125 72.90625 
L 38.28125 8.296875 
L 54.390625 8.296875 
L 54.390625 0 
L 12.40625 0 
z
" id="DejaVuSans-49"/>
       <path d="M 31.78125 66.40625 
Q 24.171875 66.40625 20.328125 58.90625 
Q 16.5 51.421875 16.5 36.375 
Q 16.5 21.390625 20.328125 13.890625 
Q 24.171875 6.390625 31.78125 6.390625 
Q 39.453125 6.390625 43.28125 13.890625 
Q 47.125 21.390625 47.125 36.375 
Q 47.125 51.421875 43.28125 58.90625 
Q 39.453125 66.40625 31.78125 66.40625 
z
M 31.78125 74.21875 
Q 44.046875 74.21875 50.515625 64.515625 
Q 56.984375 54.828125 56.984375 36.375 
Q 56.984375 17.96875 50.515625 8.265625 
Q 44.046875 -1.421875 31.78125 -1.421875 
Q 19.53125 -1.421875 13.0625 8.265625 
Q 6.59375 17.96875 6.59375 36.375 
Q 6.59375 54.828125 13.0625 64.515625 
Q 19.53125 74.21875 31.78125 74.21875 
z
" id="DejaVuSans-48"/>
      </defs>
      <g transform="translate(82.718508 322.182437)scale(0.1 -0.1)">
       <use xlink:href="#DejaVuSans-8722"/>
       <use x="83.789062" xlink:href="#DejaVuSans-49"/>
       <use x="147.412109" xlink:href="#DejaVuSans-48"/>
       <use x="211.035156" xlink:href="#DejaVuSans-48"/>
      </g>
     </g>
    </g>
    <g id="xtick_2">
     <g id="line2d_2">
      <g>
       <use style="stroke:#000000;stroke-width:0.8;" x="162.979672" xlink:href="#m4ca5ac4a53" y="307.584"/>
      </g>
     </g>
     <g id="text_2">
      <!-- −50 -->
      <defs>
       <path d="M 10.796875 72.90625 
L 49.515625 72.90625 
L 49.515625 64.59375 
L 19.828125 64.59375 
L 19.828125 46.734375 
Q 21.96875 47.46875 24.109375 47.828125 
Q 26.265625 48.1875 28.421875 48.1875 
Q 40.625 48.1875 47.75 41.5 
Q 54.890625 34.8125 54.890625 23.390625 
Q 54.890625 11.625 47.5625 5.09375 
Q 40.234375 -1.421875 26.90625 -1.421875 
Q 22.3125 -1.421875 17.546875 -0.640625 
Q 12.796875 0.140625 7.71875 1.703125 
L 7.71875 11.625 
Q 12.109375 9.234375 16.796875 8.0625 
Q 21.484375 6.890625 26.703125 6.890625 
Q 35.15625 6.890625 40.078125 11.328125 
Q 45.015625 15.765625 45.015625 23.390625 
Q 45.015625 31 40.078125 35.4375 
Q 35.15625 39.890625 26.703125 39.890625 
Q 22.75 39.890625 18.8125 39.015625 
Q 14.890625 38.140625 10.796875 36.28125 
z
" id="DejaVuSans-53"/>
      </defs>
      <g transform="translate(152.427328 322.182437)scale(0.1 -0.1)">
       <use xlink:href="#DejaVuSans-8722"/>
       <use x="83.789062" xlink:href="#DejaVuSans-53"/>
       <use x="147.412109" xlink:href="#DejaVuSans-48"/>
      </g>
     </g>
    </g>
    <g id="xtick_3">
     <g id="line2d_3">
      <g>
       <use style="stroke:#000000;stroke-width:0.8;" x="229.507243" xlink:href="#m4ca5ac4a53" y="307.584"/>
      </g>
     </g>
     <g id="text_3">
      <!-- 0 -->
      <g transform="translate(226.325993 322.182437)scale(0.1 -0.1)">
       <use xlink:href="#DejaVuSans-48"/>
      </g>
     </g>
    </g>
    <g id="xtick_4">
     <g id="line2d_4">
      <g>
       <use style="stroke:#000000;stroke-width:0.8;" x="296.034814" xlink:href="#m4ca5ac4a53" y="307.584"/>
      </g>
     </g>
     <g id="text_4">
      <!-- 50 -->
      <g transform="translate(289.672314 322.182437)scale(0.1 -0.1)">
       <use xlink:href="#DejaVuSans-53"/>
       <use x="63.623047" xlink:href="#DejaVuSans-48"/>
      </g>
     </g>
    </g>
    <g id="xtick_5">
     <g id="line2d_5">
      <g>
       <use style="stroke:#000000;stroke-width:0.8;" x="362.562385" xlink:href="#m4ca5ac4a53" y="307.584"/>
      </g>
     </g>
     <g id="text_5">
      <!-- 100 -->
      <g transform="translate(353.018635 322.182437)scale(0.1 -0.1)">
       <use xlink:href="#DejaVuSans-49"/>
       <use x="63.623047" xlink:href="#DejaVuSans-48"/>
       <use x="127.246094" xlink:href="#DejaVuSans-48"/>
      </g>
     </g>
    </g>
    <g id="text_6">
     <!-- Weight -->
     <defs>
      <path d="M 3.328125 72.90625 
L 13.28125 72.90625 
L 28.609375 11.28125 
L 43.890625 72.90625 
L 54.984375 72.90625 
L 70.3125 11.28125 
L 85.59375 72.90625 
L 95.609375 72.90625 
L 77.296875 0 
L 64.890625 0 
L 49.515625 63.28125 
L 33.984375 0 
L 21.578125 0 
z
" id="DejaVuSans-87"/>
      <path d="M 56.203125 29.59375 
L 56.203125 25.203125 
L 14.890625 25.203125 
Q 15.484375 15.921875 20.484375 11.0625 
Q 25.484375 6.203125 34.421875 6.203125 
Q 39.59375 6.203125 44.453125 7.46875 
Q 49.3125 8.734375 54.109375 11.28125 
L 54.109375 2.78125 
Q 49.265625 0.734375 44.1875 -0.34375 
Q 39.109375 -1.421875 33.890625 -1.421875 
Q 20.796875 -1.421875 13.15625 6.1875 
Q 5.515625 13.8125 5.515625 26.8125 
Q 5.515625 40.234375 12.765625 48.109375 
Q 20.015625 56 32.328125 56 
Q 43.359375 56 49.78125 48.890625 
Q 56.203125 41.796875 56.203125 29.59375 
z
M 47.21875 32.234375 
Q 47.125 39.59375 43.09375 43.984375 
Q 39.0625 48.390625 32.421875 48.390625 
Q 24.90625 48.390625 20.390625 44.140625 
Q 15.875 39.890625 15.1875 32.171875 
z
" id="DejaVuSans-101"/>
      <path d="M 9.421875 54.6875 
L 18.40625 54.6875 
L 18.40625 0 
L 9.421875 0 
z
M 9.421875 75.984375 
L 18.40625 75.984375 
L 18.40625 64.59375 
L 9.421875 64.59375 
z
" id="DejaVuSans-105"/>
      <path d="M 45.40625 27.984375 
Q 45.40625 37.75 41.375 43.109375 
Q 37.359375 48.484375 30.078125 48.484375 
Q 22.859375 48.484375 18.828125 43.109375 
Q 14.796875 37.75 14.796875 27.984375 
Q 14.796875 18.265625 18.828125 12.890625 
Q 22.859375 7.515625 30.078125 7.515625 
Q 37.359375 7.515625 41.375 12.890625 
Q 45.40625 18.265625 45.40625 27.984375 
z
M 54.390625 6.78125 
Q 54.390625 -7.171875 48.1875 -13.984375 
Q 42 -20.796875 29.203125 -20.796875 
Q 24.46875 -20.796875 20.265625 -20.09375 
Q 16.0625 -19.390625 12.109375 -17.921875 
L 12.109375 -9.1875 
Q 16.0625 -11.328125 19.921875 -12.34375 
Q 23.78125 -13.375 27.78125 -13.375 
Q 36.625 -13.375 41.015625 -8.765625 
Q 45.40625 -4.15625 45.40625 5.171875 
L 45.40625 9.625 
Q 42.625 4.78125 38.28125 2.390625 
Q 33.9375 0 27.875 0 
Q 17.828125 0 11.671875 7.65625 
Q 5.515625 15.328125 5.515625 27.984375 
Q 5.515625 40.671875 11.671875 48.328125 
Q 17.828125 56 27.875 56 
Q 33.9375 56 38.28125 53.609375 
Q 42.625 51.21875 45.40625 46.390625 
L 45.40625 54.6875 
L 54.390625 54.6875 
z
" id="DejaVuSans-103"/>
      <path d="M 54.890625 33.015625 
L 54.890625 0 
L 45.90625 0 
L 45.90625 32.71875 
Q 45.90625 40.484375 42.875 44.328125 
Q 39.84375 48.1875 33.796875 48.1875 
Q 26.515625 48.1875 22.3125 43.546875 
Q 18.109375 38.921875 18.109375 30.90625 
L 18.109375 0 
L 9.078125 0 
L 9.078125 75.984375 
L 18.109375 75.984375 
L 18.109375 46.1875 
Q 21.34375 51.125 25.703125 53.5625 
Q 30.078125 56 35.796875 56 
Q 45.21875 56 50.046875 50.171875 
Q 54.890625 44.34375 54.890625 33.015625 
z
" id="DejaVuSans-104"/>
      <path d="M 18.3125 70.21875 
L 18.3125 54.6875 
L 36.8125 54.6875 
L 36.8125 47.703125 
L 18.3125 47.703125 
L 18.3125 18.015625 
Q 18.3125 11.328125 20.140625 9.421875 
Q 21.96875 7.515625 27.59375 7.515625 
L 36.8125 7.515625 
L 36.8125 0 
L 27.59375 0 
Q 17.1875 0 13.234375 3.875 
Q 9.28125 7.765625 9.28125 18.015625 
L 9.28125 47.703125 
L 2.6875 47.703125 
L 2.6875 54.6875 
L 9.28125 54.6875 
L 9.28125 70.21875 
z
" id="DejaVuSans-116"/>
     </defs>
     <g transform="translate(218.451406 335.860562)scale(0.1 -0.1)">
      <use xlink:href="#DejaVuSans-87"/>
      <use x="98.798828" xlink:href="#DejaVuSans-101"/>
      <use x="160.322266" xlink:href="#DejaVuSans-105"/>
      <use x="188.105469" xlink:href="#DejaVuSans-103"/>
      <use x="251.582031" xlink:href="#DejaVuSans-104"/>
      <use x="314.960938" xlink:href="#DejaVuSans-116"/>
     </g>
    </g>
   </g>
   <g id="matplotlib.axis_2">
    <g id="ytick_1">
     <g id="line2d_6">
      <defs>
       <path d="M 0 0 
L -3.5 0 
" id="m48ff0b7c7c" style="stroke:#000000;stroke-width:0.8;"/>
      </defs>
      <g>
       <use style="stroke:#000000;stroke-width:0.8;" x="57.6" xlink:href="#m48ff0b7c7c" y="307.584"/>
      </g>
     </g>
     <g id="text_7">
      <!-- 0 -->
      <g transform="translate(44.2375 311.383219)scale(0.1 -0.1)">
       <use xlink:href="#DejaVuSans-48"/>
      </g>
     </g>
    </g>
    <g id="ytick_2">
     <g id="line2d_7">
      <g>
       <use style="stroke:#000000;stroke-width:0.8;" x="57.6" xlink:href="#m48ff0b7c7c" y="272.998847"/>
      </g>
     </g>
     <g id="text_8">
      <!-- 250 -->
      <defs>
       <path d="M 19.1875 8.296875 
L 53.609375 8.296875 
L 53.609375 0 
L 7.328125 0 
L 7.328125 8.296875 
Q 12.9375 14.109375 22.625 23.890625 
Q 32.328125 33.6875 34.8125 36.53125 
Q 39.546875 41.84375 41.421875 45.53125 
Q 43.3125 49.21875 43.3125 52.78125 
Q 43.3125 58.59375 39.234375 62.25 
Q 35.15625 65.921875 28.609375 65.921875 
Q 23.96875 65.921875 18.8125 64.3125 
Q 13.671875 62.703125 7.8125 59.421875 
L 7.8125 69.390625 
Q 13.765625 71.78125 18.9375 73 
Q 24.125 74.21875 28.421875 74.21875 
Q 39.75 74.21875 46.484375 68.546875 
Q 53.21875 62.890625 53.21875 53.421875 
Q 53.21875 48.921875 51.53125 44.890625 
Q 49.859375 40.875 45.40625 35.40625 
Q 44.1875 33.984375 37.640625 27.21875 
Q 31.109375 20.453125 19.1875 8.296875 
z
" id="DejaVuSans-50"/>
      </defs>
      <g transform="translate(31.5125 276.798066)scale(0.1 -0.1)">
       <use xlink:href="#DejaVuSans-50"/>
       <use x="63.623047" xlink:href="#DejaVuSans-53"/>
       <use x="127.246094" xlink:href="#DejaVuSans-48"/>
      </g>
     </g>
    </g>
    <g id="ytick_3">
     <g id="line2d_8">
      <g>
       <use style="stroke:#000000;stroke-width:0.8;" x="57.6" xlink:href="#m48ff0b7c7c" y="238.413694"/>
      </g>
     </g>
     <g id="text_9">
      <!-- 500 -->
      <g transform="translate(31.5125 242.212913)scale(0.1 -0.1)">
       <use xlink:href="#DejaVuSans-53"/>
       <use x="63.623047" xlink:href="#DejaVuSans-48"/>
       <use x="127.246094" xlink:href="#DejaVuSans-48"/>
      </g>
     </g>
    </g>
    <g id="ytick_4">
     <g id="line2d_9">
      <g>
       <use style="stroke:#000000;stroke-width:0.8;" x="57.6" xlink:href="#m48ff0b7c7c" y="203.828541"/>
      </g>
     </g>
     <g id="text_10">
      <!-- 750 -->
      <defs>
       <path d="M 8.203125 72.90625 
L 55.078125 72.90625 
L 55.078125 68.703125 
L 28.609375 0 
L 18.3125 0 
L 43.21875 64.59375 
L 8.203125 64.59375 
z
" id="DejaVuSans-55"/>
      </defs>
      <g transform="translate(31.5125 207.62776)scale(0.1 -0.1)">
       <use xlink:href="#DejaVuSans-55"/>
       <use x="63.623047" xlink:href="#DejaVuSans-53"/>
       <use x="127.246094" xlink:href="#DejaVuSans-48"/>
      </g>
     </g>
    </g>
    <g id="ytick_5">
     <g id="line2d_10">
      <g>
       <use style="stroke:#000000;stroke-width:0.8;" x="57.6" xlink:href="#m48ff0b7c7c" y="169.243389"/>
      </g>
     </g>
     <g id="text_11">
      <!-- 1000 -->
      <g transform="translate(25.15 173.042607)scale(0.1 -0.1)">
       <use xlink:href="#DejaVuSans-49"/>
       <use x="63.623047" xlink:href="#DejaVuSans-48"/>
       <use x="127.246094" xlink:href="#DejaVuSans-48"/>
       <use x="190.869141" xlink:href="#DejaVuSans-48"/>
      </g>
     </g>
    </g>
    <g id="ytick_6">
     <g id="line2d_11">
      <g>
       <use style="stroke:#000000;stroke-width:0.8;" x="57.6" xlink:href="#m48ff0b7c7c" y="134.658236"/>
      </g>
     </g>
     <g id="text_12">
      <!-- 1250 -->
      <g transform="translate(25.15 138.457455)scale(0.1 -0.1)">
       <use xlink:href="#DejaVuSans-49"/>
       <use x="63.623047" xlink:href="#DejaVuSans-50"/>
       <use x="127.246094" xlink:href="#DejaVuSans-53"/>
       <use x="190.869141" xlink:href="#DejaVuSans-48"/>
      </g>
     </g>
    </g>
    <g id="ytick_7">
     <g id="line2d_12">
      <g>
       <use style="stroke:#000000;stroke-width:0.8;" x="57.6" xlink:href="#m48ff0b7c7c" y="100.073083"/>
      </g>
     </g>
     <g id="text_13">
      <!-- 1500 -->
      <g transform="translate(25.15 103.872302)scale(0.1 -0.1)">
       <use xlink:href="#DejaVuSans-49"/>
       <use x="63.623047" xlink:href="#DejaVuSans-53"/>
       <use x="127.246094" xlink:href="#DejaVuSans-48"/>
       <use x="190.869141" xlink:href="#DejaVuSans-48"/>
      </g>
     </g>
    </g>
    <g id="ytick_8">
     <g id="line2d_13">
      <g>
       <use style="stroke:#000000;stroke-width:0.8;" x="57.6" xlink:href="#m48ff0b7c7c" y="65.48793"/>
      </g>
     </g>
     <g id="text_14">
      <!-- 1750 -->
      <g transform="translate(25.15 69.287149)scale(0.1 -0.1)">
       <use xlink:href="#DejaVuSans-49"/>
       <use x="63.623047" xlink:href="#DejaVuSans-55"/>
       <use x="127.246094" xlink:href="#DejaVuSans-53"/>
       <use x="190.869141" xlink:href="#DejaVuSans-48"/>
      </g>
     </g>
    </g>
    <g id="text_15">
     <!-- Occurrencies -->
     <defs>
      <path d="M 39.40625 66.21875 
Q 28.65625 66.21875 22.328125 58.203125 
Q 16.015625 50.203125 16.015625 36.375 
Q 16.015625 22.609375 22.328125 14.59375 
Q 28.65625 6.59375 39.40625 6.59375 
Q 50.140625 6.59375 56.421875 14.59375 
Q 62.703125 22.609375 62.703125 36.375 
Q 62.703125 50.203125 56.421875 58.203125 
Q 50.140625 66.21875 39.40625 66.21875 
z
M 39.40625 74.21875 
Q 54.734375 74.21875 63.90625 63.9375 
Q 73.09375 53.65625 73.09375 36.375 
Q 73.09375 19.140625 63.90625 8.859375 
Q 54.734375 -1.421875 39.40625 -1.421875 
Q 24.03125 -1.421875 14.8125 8.828125 
Q 5.609375 19.09375 5.609375 36.375 
Q 5.609375 53.65625 14.8125 63.9375 
Q 24.03125 74.21875 39.40625 74.21875 
z
" id="DejaVuSans-79"/>
      <path d="M 48.78125 52.59375 
L 48.78125 44.1875 
Q 44.96875 46.296875 41.140625 47.34375 
Q 37.3125 48.390625 33.40625 48.390625 
Q 24.65625 48.390625 19.8125 42.84375 
Q 14.984375 37.3125 14.984375 27.296875 
Q 14.984375 17.28125 19.8125 11.734375 
Q 24.65625 6.203125 33.40625 6.203125 
Q 37.3125 6.203125 41.140625 7.25 
Q 44.96875 8.296875 48.78125 10.40625 
L 48.78125 2.09375 
Q 45.015625 0.34375 40.984375 -0.53125 
Q 36.96875 -1.421875 32.421875 -1.421875 
Q 20.0625 -1.421875 12.78125 6.34375 
Q 5.515625 14.109375 5.515625 27.296875 
Q 5.515625 40.671875 12.859375 48.328125 
Q 20.21875 56 33.015625 56 
Q 37.15625 56 41.109375 55.140625 
Q 45.0625 54.296875 48.78125 52.59375 
z
" id="DejaVuSans-99"/>
      <path d="M 8.5 21.578125 
L 8.5 54.6875 
L 17.484375 54.6875 
L 17.484375 21.921875 
Q 17.484375 14.15625 20.5 10.265625 
Q 23.53125 6.390625 29.59375 6.390625 
Q 36.859375 6.390625 41.078125 11.03125 
Q 45.3125 15.671875 45.3125 23.6875 
L 45.3125 54.6875 
L 54.296875 54.6875 
L 54.296875 0 
L 45.3125 0 
L 45.3125 8.40625 
Q 42.046875 3.421875 37.71875 1 
Q 33.40625 -1.421875 27.6875 -1.421875 
Q 18.265625 -1.421875 13.375 4.4375 
Q 8.5 10.296875 8.5 21.578125 
z
M 31.109375 56 
z
" id="DejaVuSans-117"/>
      <path d="M 41.109375 46.296875 
Q 39.59375 47.171875 37.8125 47.578125 
Q 36.03125 48 33.890625 48 
Q 26.265625 48 22.1875 43.046875 
Q 18.109375 38.09375 18.109375 28.8125 
L 18.109375 0 
L 9.078125 0 
L 9.078125 54.6875 
L 18.109375 54.6875 
L 18.109375 46.1875 
Q 20.953125 51.171875 25.484375 53.578125 
Q 30.03125 56 36.53125 56 
Q 37.453125 56 38.578125 55.875 
Q 39.703125 55.765625 41.0625 55.515625 
z
" id="DejaVuSans-114"/>
      <path d="M 54.890625 33.015625 
L 54.890625 0 
L 45.90625 0 
L 45.90625 32.71875 
Q 45.90625 40.484375 42.875 44.328125 
Q 39.84375 48.1875 33.796875 48.1875 
Q 26.515625 48.1875 22.3125 43.546875 
Q 18.109375 38.921875 18.109375 30.90625 
L 18.109375 0 
L 9.078125 0 
L 9.078125 54.6875 
L 18.109375 54.6875 
L 18.109375 46.1875 
Q 21.34375 51.125 25.703125 53.5625 
Q 30.078125 56 35.796875 56 
Q 45.21875 56 50.046875 50.171875 
Q 54.890625 44.34375 54.890625 33.015625 
z
" id="DejaVuSans-110"/>
      <path d="M 44.28125 53.078125 
L 44.28125 44.578125 
Q 40.484375 46.53125 36.375 47.5 
Q 32.28125 48.484375 27.875 48.484375 
Q 21.1875 48.484375 17.84375 46.4375 
Q 14.5 44.390625 14.5 40.28125 
Q 14.5 37.15625 16.890625 35.375 
Q 19.28125 33.59375 26.515625 31.984375 
L 29.59375 31.296875 
Q 39.15625 29.25 43.1875 25.515625 
Q 47.21875 21.78125 47.21875 15.09375 
Q 47.21875 7.46875 41.1875 3.015625 
Q 35.15625 -1.421875 24.609375 -1.421875 
Q 20.21875 -1.421875 15.453125 -0.5625 
Q 10.6875 0.296875 5.421875 2 
L 5.421875 11.28125 
Q 10.40625 8.6875 15.234375 7.390625 
Q 20.0625 6.109375 24.8125 6.109375 
Q 31.15625 6.109375 34.5625 8.28125 
Q 37.984375 10.453125 37.984375 14.40625 
Q 37.984375 18.0625 35.515625 20.015625 
Q 33.0625 21.96875 24.703125 23.78125 
L 21.578125 24.515625 
Q 13.234375 26.265625 9.515625 29.90625 
Q 5.8125 33.546875 5.8125 39.890625 
Q 5.8125 47.609375 11.28125 51.796875 
Q 16.75 56 26.8125 56 
Q 31.78125 56 36.171875 55.265625 
Q 40.578125 54.546875 44.28125 53.078125 
z
" id="DejaVuSans-115"/>
     </defs>
     <g transform="translate(19.070312 207.304563)rotate(-90)scale(0.1 -0.1)">
      <use xlink:href="#DejaVuSans-79"/>
      <use x="78.710938" xlink:href="#DejaVuSans-99"/>
      <use x="133.691406" xlink:href="#DejaVuSans-99"/>
      <use x="188.671875" xlink:href="#DejaVuSans-117"/>
      <use x="252.050781" xlink:href="#DejaVuSans-114"/>
      <use x="293.148438" xlink:href="#DejaVuSans-114"/>
      <use x="334.230469" xlink:href="#DejaVuSans-101"/>
      <use x="395.753906" xlink:href="#DejaVuSans-110"/>
      <use x="459.132812" xlink:href="#DejaVuSans-99"/>
      <use x="514.113281" xlink:href="#DejaVuSans-105"/>
      <use x="541.896484" xlink:href="#DejaVuSans-101"/>
      <use x="603.419922" xlink:href="#DejaVuSans-115"/>
     </g>
    </g>
   </g>
   <g id="patch_203">
    <path d="M 57.6 307.584 
L 57.6 41.472 
" style="fill:none;stroke:#000000;stroke-linecap:square;stroke-linejoin:miter;stroke-width:0.8;"/>
   </g>
   <g id="patch_204">
    <path d="M 414.72 307.584 
L 414.72 41.472 
" style="fill:none;stroke:#000000;stroke-linecap:square;stroke-linejoin:miter;stroke-width:0.8;"/>
   </g>
   <g id="patch_205">
    <path d="M 57.6 307.584 
L 414.72 307.584 
" style="fill:none;stroke:#000000;stroke-linecap:square;stroke-linejoin:miter;stroke-width:0.8;"/>
   </g>
   <g id="patch_206">
    <path d="M 57.6 41.472 
L 414.72 41.472 
" style="fill:none;stroke:#000000;stroke-linecap:square;stroke-linejoin:miter;stroke-width:0.8;"/>
   </g>
   <g id="text_16">
    <!-- Histogram of fc2 -->
    <defs>
     <path d="M 9.8125 72.90625 
L 19.671875 72.90625 
L 19.671875 43.015625 
L 55.515625 43.015625 
L 55.515625 72.90625 
L 65.375 72.90625 
L 65.375 0 
L 55.515625 0 
L 55.515625 34.71875 
L 19.671875 34.71875 
L 19.671875 0 
L 9.8125 0 
z
" id="DejaVuSans-72"/>
     <path d="M 30.609375 48.390625 
Q 23.390625 48.390625 19.1875 42.75 
Q 14.984375 37.109375 14.984375 27.296875 
Q 14.984375 17.484375 19.15625 11.84375 
Q 23.34375 6.203125 30.609375 6.203125 
Q 37.796875 6.203125 41.984375 11.859375 
Q 46.1875 17.53125 46.1875 27.296875 
Q 46.1875 37.015625 41.984375 42.703125 
Q 37.796875 48.390625 30.609375 48.390625 
z
M 30.609375 56 
Q 42.328125 56 49.015625 48.375 
Q 55.71875 40.765625 55.71875 27.296875 
Q 55.71875 13.875 49.015625 6.21875 
Q 42.328125 -1.421875 30.609375 -1.421875 
Q 18.84375 -1.421875 12.171875 6.21875 
Q 5.515625 13.875 5.515625 27.296875 
Q 5.515625 40.765625 12.171875 48.375 
Q 18.84375 56 30.609375 56 
z
" id="DejaVuSans-111"/>
     <path d="M 34.28125 27.484375 
Q 23.390625 27.484375 19.1875 25 
Q 14.984375 22.515625 14.984375 16.5 
Q 14.984375 11.71875 18.140625 8.90625 
Q 21.296875 6.109375 26.703125 6.109375 
Q 34.1875 6.109375 38.703125 11.40625 
Q 43.21875 16.703125 43.21875 25.484375 
L 43.21875 27.484375 
z
M 52.203125 31.203125 
L 52.203125 0 
L 43.21875 0 
L 43.21875 8.296875 
Q 40.140625 3.328125 35.546875 0.953125 
Q 30.953125 -1.421875 24.3125 -1.421875 
Q 15.921875 -1.421875 10.953125 3.296875 
Q 6 8.015625 6 15.921875 
Q 6 25.140625 12.171875 29.828125 
Q 18.359375 34.515625 30.609375 34.515625 
L 43.21875 34.515625 
L 43.21875 35.40625 
Q 43.21875 41.609375 39.140625 45 
Q 35.0625 48.390625 27.6875 48.390625 
Q 23 48.390625 18.546875 47.265625 
Q 14.109375 46.140625 10.015625 43.890625 
L 10.015625 52.203125 
Q 14.9375 54.109375 19.578125 55.046875 
Q 24.21875 56 28.609375 56 
Q 40.484375 56 46.34375 49.84375 
Q 52.203125 43.703125 52.203125 31.203125 
z
" id="DejaVuSans-97"/>
     <path d="M 52 44.1875 
Q 55.375 50.25 60.0625 53.125 
Q 64.75 56 71.09375 56 
Q 79.640625 56 84.28125 50.015625 
Q 88.921875 44.046875 88.921875 33.015625 
L 88.921875 0 
L 79.890625 0 
L 79.890625 32.71875 
Q 79.890625 40.578125 77.09375 44.375 
Q 74.3125 48.1875 68.609375 48.1875 
Q 61.625 48.1875 57.5625 43.546875 
Q 53.515625 38.921875 53.515625 30.90625 
L 53.515625 0 
L 44.484375 0 
L 44.484375 32.71875 
Q 44.484375 40.625 41.703125 44.40625 
Q 38.921875 48.1875 33.109375 48.1875 
Q 26.21875 48.1875 22.15625 43.53125 
Q 18.109375 38.875 18.109375 30.90625 
L 18.109375 0 
L 9.078125 0 
L 9.078125 54.6875 
L 18.109375 54.6875 
L 18.109375 46.1875 
Q 21.1875 51.21875 25.484375 53.609375 
Q 29.78125 56 35.6875 56 
Q 41.65625 56 45.828125 52.96875 
Q 50 49.953125 52 44.1875 
z
" id="DejaVuSans-109"/>
     <path id="DejaVuSans-32"/>
     <path d="M 37.109375 75.984375 
L 37.109375 68.5 
L 28.515625 68.5 
Q 23.6875 68.5 21.796875 66.546875 
Q 19.921875 64.59375 19.921875 59.515625 
L 19.921875 54.6875 
L 34.71875 54.6875 
L 34.71875 47.703125 
L 19.921875 47.703125 
L 19.921875 0 
L 10.890625 0 
L 10.890625 47.703125 
L 2.296875 47.703125 
L 2.296875 54.6875 
L 10.890625 54.6875 
L 10.890625 58.5 
Q 10.890625 67.625 15.140625 71.796875 
Q 19.390625 75.984375 28.609375 75.984375 
z
" id="DejaVuSans-102"/>
    </defs>
    <g transform="translate(186.209063 35.472)scale(0.12 -0.12)">
     <use xlink:href="#DejaVuSans-72"/>
     <use x="75.195312" xlink:href="#DejaVuSans-105"/>
     <use x="102.978516" xlink:href="#DejaVuSans-115"/>
     <use x="155.078125" xlink:href="#DejaVuSans-116"/>
     <use x="194.287109" xlink:href="#DejaVuSans-111"/>
     <use x="255.46875" xlink:href="#DejaVuSans-103"/>
     <use x="318.945312" xlink:href="#DejaVuSans-114"/>
     <use x="360.058594" xlink:href="#DejaVuSans-97"/>
     <use x="421.337891" xlink:href="#DejaVuSans-109"/>
     <use x="518.75" xlink:href="#DejaVuSans-32"/>
     <use x="550.537109" xlink:href="#DejaVuSans-111"/>
     <use x="611.71875" xlink:href="#DejaVuSans-102"/>
     <use x="646.923828" xlink:href="#DejaVuSans-32"/>
     <use x="678.710938" xlink:href="#DejaVuSans-102"/>
     <use x="713.916016" xlink:href="#DejaVuSans-99"/>
     <use x="768.896484" xlink:href="#DejaVuSans-50"/>
    </g>
   </g>
   <g id="legend_1">
    <g id="patch_207">
     <path d="M 323.679375 78.82825 
L 407.72 78.82825 
Q 409.72 78.82825 409.72 76.82825 
L 409.72 48.472 
Q 409.72 46.472 407.72 46.472 
L 323.679375 46.472 
Q 321.679375 46.472 321.679375 48.472 
L 321.679375 76.82825 
Q 321.679375 78.82825 323.679375 78.82825 
z
" style="fill:#ffffff;opacity:0.8;stroke:#cccccc;stroke-linejoin:miter;"/>
    </g>
    <g id="patch_208">
     <path d="M 325.679375 58.070437 
L 345.679375 58.070437 
L 345.679375 51.070437 
L 325.679375 51.070437 
z
" style="fill:#0000ff;"/>
    </g>
    <g id="text_17">
     <!-- unmasked -->
     <defs>
      <path d="M 9.078125 75.984375 
L 18.109375 75.984375 
L 18.109375 31.109375 
L 44.921875 54.6875 
L 56.390625 54.6875 
L 27.390625 29.109375 
L 57.625 0 
L 45.90625 0 
L 18.109375 26.703125 
L 18.109375 0 
L 9.078125 0 
z
" id="DejaVuSans-107"/>
      <path d="M 45.40625 46.390625 
L 45.40625 75.984375 
L 54.390625 75.984375 
L 54.390625 0 
L 45.40625 0 
L 45.40625 8.203125 
Q 42.578125 3.328125 38.25 0.953125 
Q 33.9375 -1.421875 27.875 -1.421875 
Q 17.96875 -1.421875 11.734375 6.484375 
Q 5.515625 14.40625 5.515625 27.296875 
Q 5.515625 40.1875 11.734375 48.09375 
Q 17.96875 56 27.875 56 
Q 33.9375 56 38.25 53.625 
Q 42.578125 51.265625 45.40625 46.390625 
z
M 14.796875 27.296875 
Q 14.796875 17.390625 18.875 11.75 
Q 22.953125 6.109375 30.078125 6.109375 
Q 37.203125 6.109375 41.296875 11.75 
Q 45.40625 17.390625 45.40625 27.296875 
Q 45.40625 37.203125 41.296875 42.84375 
Q 37.203125 48.484375 30.078125 48.484375 
Q 22.953125 48.484375 18.875 42.84375 
Q 14.796875 37.203125 14.796875 27.296875 
z
" id="DejaVuSans-100"/>
     </defs>
     <g transform="translate(353.679375 58.070437)scale(0.1 -0.1)">
      <use xlink:href="#DejaVuSans-117"/>
      <use x="63.378906" xlink:href="#DejaVuSans-110"/>
      <use x="126.757812" xlink:href="#DejaVuSans-109"/>
      <use x="224.169922" xlink:href="#DejaVuSans-97"/>
      <use x="285.449219" xlink:href="#DejaVuSans-115"/>
      <use x="337.548828" xlink:href="#DejaVuSans-107"/>
      <use x="395.412109" xlink:href="#DejaVuSans-101"/>
      <use x="456.935547" xlink:href="#DejaVuSans-100"/>
     </g>
    </g>
    <g id="patch_209">
     <path d="M 325.679375 72.748562 
L 345.679375 72.748562 
L 345.679375 65.748562 
L 325.679375 65.748562 
z
" style="fill:#808080;"/>
    </g>
    <g id="text_18">
     <!-- masked -->
     <g transform="translate(353.679375 72.748562)scale(0.1 -0.1)">
      <use xlink:href="#DejaVuSans-109"/>
      <use x="97.412109" xlink:href="#DejaVuSans-97"/>
      <use x="158.691406" xlink:href="#DejaVuSans-115"/>
      <use x="210.791016" xlink:href="#DejaVuSans-107"/>
      <use x="268.654297" xlink:href="#DejaVuSans-101"/>
      <use x="330.177734" xlink:href="#DejaVuSans-100"/>
     </g>
    </g>
   </g>
  </g>
 </g>
 <defs>
  <clipPath id="pa9511daca1">
   <rect height="266.112" width="357.12" x="57.6" y="41.472"/>
  </clipPath>
 </defs>
</svg>
