<?xml version="1.0" encoding="utf-8" standalone="no"?>
<!DOCTYPE svg PUBLIC "-//W3C//DTD SVG 1.1//EN"
  "http://www.w3.org/Graphics/SVG/1.1/DTD/svg11.dtd">
<!-- Created with matplotlib (https://matplotlib.org/) -->
<svg height="345.6pt" version="1.1" viewBox="0 0 460.8 345.6" width="460.8pt" xmlns="http://www.w3.org/2000/svg" xmlns:xlink="http://www.w3.org/1999/xlink">
 <defs>
  <style type="text/css">
*{stroke-linecap:butt;stroke-linejoin:round;}
  </style>
 </defs>
 <g id="figure_1">
  <g id="patch_1">
   <path d="M 0 345.6 
L 460.8 345.6 
L 460.8 0 
L 0 0 
z
" style="fill:#ffffff;"/>
  </g>
  <g id="axes_1">
   <g id="patch_2">
    <path d="M 57.6 307.584 
L 414.72 307.584 
L 414.72 41.472 
L 57.6 41.472 
z
" style="fill:#ffffff;"/>
   </g>
   <g id="patch_3">
    <path clip-path="url(#pe04b31a34d)" d="M 168.523632 307.584 
L 170.823268 307.584 
L 170.823268 306.76908 
L 168.523632 306.76908 
z
" style="fill:#0000ff;"/>
   </g>
   <g id="patch_4">
    <path clip-path="url(#pe04b31a34d)" d="M 170.823269 307.584 
L 173.122904 307.584 
L 173.122904 307.584 
L 170.823269 307.584 
z
" style="fill:#0000ff;"/>
   </g>
   <g id="patch_5">
    <path clip-path="url(#pe04b31a34d)" d="M 173.122905 307.584 
L 175.422541 307.584 
L 175.422541 307.584 
L 173.122905 307.584 
z
" style="fill:#0000ff;"/>
   </g>
   <g id="patch_6">
    <path clip-path="url(#pe04b31a34d)" d="M 175.422542 307.584 
L 177.722178 307.584 
L 177.722178 307.584 
L 175.422542 307.584 
z
" style="fill:#0000ff;"/>
   </g>
   <g id="patch_7">
    <path clip-path="url(#pe04b31a34d)" d="M 177.722178 307.584 
L 180.021815 307.584 
L 180.021815 307.584 
L 177.722178 307.584 
z
" style="fill:#0000ff;"/>
   </g>
   <g id="patch_8">
    <path clip-path="url(#pe04b31a34d)" d="M 180.021814 307.584 
L 182.32145 307.584 
L 182.32145 306.76908 
L 180.021814 306.76908 
z
" style="fill:#0000ff;"/>
   </g>
   <g id="patch_9">
    <path clip-path="url(#pe04b31a34d)" d="M 182.321451 307.584 
L 184.621088 307.584 
L 184.621088 307.584 
L 182.321451 307.584 
z
" style="fill:#0000ff;"/>
   </g>
   <g id="patch_10">
    <path clip-path="url(#pe04b31a34d)" d="M 184.621087 307.584 
L 186.920722 307.584 
L 186.920722 306.76908 
L 184.621087 306.76908 
z
" style="fill:#0000ff;"/>
   </g>
   <g id="patch_11">
    <path clip-path="url(#pe04b31a34d)" d="M 186.92072 307.584 
L 189.220358 307.584 
L 189.220358 307.584 
L 186.92072 307.584 
z
" style="fill:#0000ff;"/>
   </g>
   <g id="patch_12">
    <path clip-path="url(#pe04b31a34d)" d="M 189.220359 307.584 
L 191.519995 307.584 
L 191.519995 306.76908 
L 189.220359 306.76908 
z
" style="fill:#0000ff;"/>
   </g>
   <g id="patch_13">
    <path clip-path="url(#pe04b31a34d)" d="M 191.519995 307.584 
L 193.819631 307.584 
L 193.819631 306.76908 
L 191.519995 306.76908 
z
" style="fill:#0000ff;"/>
   </g>
   <g id="patch_14">
    <path clip-path="url(#pe04b31a34d)" d="M 193.819631 307.584 
L 196.119268 307.584 
L 196.119268 306.76908 
L 193.819631 306.76908 
z
" style="fill:#0000ff;"/>
   </g>
   <g id="patch_15">
    <path clip-path="url(#pe04b31a34d)" d="M 196.119266 307.584 
L 198.418905 307.584 
L 198.418905 307.584 
L 196.119266 307.584 
z
" style="fill:#0000ff;"/>
   </g>
   <g id="patch_16">
    <path clip-path="url(#pe04b31a34d)" d="M 198.418905 307.584 
L 200.718541 307.584 
L 200.718541 307.584 
L 198.418905 307.584 
z
" style="fill:#0000ff;"/>
   </g>
   <g id="patch_17">
    <path clip-path="url(#pe04b31a34d)" d="M 200.718537 307.584 
L 203.018173 307.584 
L 203.018173 306.76908 
L 200.718537 306.76908 
z
" style="fill:#0000ff;"/>
   </g>
   <g id="patch_18">
    <path clip-path="url(#pe04b31a34d)" d="M 203.018176 307.584 
L 205.317812 307.584 
L 205.317812 305.954161 
L 203.018176 305.954161 
z
" style="fill:#0000ff;"/>
   </g>
   <g id="patch_19">
    <path clip-path="url(#pe04b31a34d)" d="M 205.317808 307.584 
L 207.617444 307.584 
L 207.617444 305.954161 
L 205.317808 305.954161 
z
" style="fill:#0000ff;"/>
   </g>
   <g id="patch_20">
    <path clip-path="url(#pe04b31a34d)" d="M 207.617447 307.584 
L 209.917087 307.584 
L 209.917087 306.76908 
L 207.617447 306.76908 
z
" style="fill:#0000ff;"/>
   </g>
   <g id="patch_21">
    <path clip-path="url(#pe04b31a34d)" d="M 209.917087 307.584 
L 212.216722 307.584 
L 212.216722 307.584 
L 209.917087 307.584 
z
" style="fill:#0000ff;"/>
   </g>
   <g id="patch_22">
    <path clip-path="url(#pe04b31a34d)" d="M 212.216719 307.584 
L 214.516354 307.584 
L 214.516354 306.76908 
L 212.216719 306.76908 
z
" style="fill:#0000ff;"/>
   </g>
   <g id="patch_23">
    <path clip-path="url(#pe04b31a34d)" d="M 214.516358 307.584 
L 216.815993 307.584 
L 216.815993 306.76908 
L 214.516358 306.76908 
z
" style="fill:#0000ff;"/>
   </g>
   <g id="patch_24">
    <path clip-path="url(#pe04b31a34d)" d="M 216.81599 307.584 
L 219.115625 307.584 
L 219.115625 305.954161 
L 216.81599 305.954161 
z
" style="fill:#0000ff;"/>
   </g>
   <g id="patch_25">
    <path clip-path="url(#pe04b31a34d)" d="M 219.115629 307.584 
L 221.415268 307.584 
L 221.415268 306.76908 
L 219.115629 306.76908 
z
" style="fill:#0000ff;"/>
   </g>
   <g id="patch_26">
    <path clip-path="url(#pe04b31a34d)" d="M 221.415268 307.584 
L 223.714903 307.584 
L 223.714903 304.324322 
L 221.415268 304.324322 
z
" style="fill:#0000ff;"/>
   </g>
   <g id="patch_27">
    <path clip-path="url(#pe04b31a34d)" d="M 223.7149 307.584 
L 226.014536 307.584 
L 226.014536 306.76908 
L 223.7149 306.76908 
z
" style="fill:#0000ff;"/>
   </g>
   <g id="patch_28">
    <path clip-path="url(#pe04b31a34d)" d="M 226.014539 307.584 
L 228.314178 307.584 
L 228.314178 306.76908 
L 226.014539 306.76908 
z
" style="fill:#0000ff;"/>
   </g>
   <g id="patch_29">
    <path clip-path="url(#pe04b31a34d)" d="M 228.314178 307.584 
L 230.61381 307.584 
L 230.61381 305.954161 
L 228.314178 305.954161 
z
" style="fill:#0000ff;"/>
   </g>
   <g id="patch_30">
    <path clip-path="url(#pe04b31a34d)" d="M 230.61381 307.584 
L 232.913449 307.584 
L 232.913449 305.954161 
L 230.61381 305.954161 
z
" style="fill:#0000ff;"/>
   </g>
   <g id="patch_31">
    <path clip-path="url(#pe04b31a34d)" d="M 232.913456 307.584 
L 235.213088 307.584 
L 235.213088 303.509402 
L 232.913456 303.509402 
z
" style="fill:#0000ff;"/>
   </g>
   <g id="patch_32">
    <path clip-path="url(#pe04b31a34d)" d="M 235.213081 307.584 
L 237.51272 307.584 
L 237.51272 299.434804 
L 235.213081 299.434804 
z
" style="fill:#0000ff;"/>
   </g>
   <g id="patch_33">
    <path clip-path="url(#pe04b31a34d)" d="M 237.51272 307.584 
L 239.812359 307.584 
L 239.812359 303.509402 
L 237.51272 303.509402 
z
" style="fill:#0000ff;"/>
   </g>
   <g id="patch_34">
    <path clip-path="url(#pe04b31a34d)" d="M 239.812359 307.584 
L 242.111991 307.584 
L 242.111991 305.954161 
L 239.812359 305.954161 
z
" style="fill:#0000ff;"/>
   </g>
   <g id="patch_35">
    <path clip-path="url(#pe04b31a34d)" d="M 242.111991 307.584 
L 244.411631 307.584 
L 244.411631 303.509402 
L 242.111991 303.509402 
z
" style="fill:#0000ff;"/>
   </g>
   <g id="patch_36">
    <path clip-path="url(#pe04b31a34d)" d="M 244.411637 307.584 
L 246.71127 307.584 
L 246.71127 304.324322 
L 244.411637 304.324322 
z
" style="fill:#0000ff;"/>
   </g>
   <g id="patch_37">
    <path clip-path="url(#pe04b31a34d)" d="M 246.711263 307.584 
L 249.010902 307.584 
L 249.010902 301.879563 
L 246.711263 301.879563 
z
" style="fill:#0000ff;"/>
   </g>
   <g id="patch_38">
    <path clip-path="url(#pe04b31a34d)" d="M 249.010902 307.584 
L 251.310541 307.584 
L 251.310541 300.249723 
L 249.010902 300.249723 
z
" style="fill:#0000ff;"/>
   </g>
   <g id="patch_39">
    <path clip-path="url(#pe04b31a34d)" d="M 251.310541 307.584 
L 253.610173 307.584 
L 253.610173 296.175125 
L 251.310541 296.175125 
z
" style="fill:#0000ff;"/>
   </g>
   <g id="patch_40">
    <path clip-path="url(#pe04b31a34d)" d="M 253.610173 307.584 
L 255.909812 307.584 
L 255.909812 305.139241 
L 253.610173 305.139241 
z
" style="fill:#0000ff;"/>
   </g>
   <g id="patch_41">
    <path clip-path="url(#pe04b31a34d)" d="M 255.909819 307.584 
L 258.209451 307.584 
L 258.209451 288.840849 
L 255.909819 288.840849 
z
" style="fill:#0000ff;"/>
   </g>
   <g id="patch_42">
    <path clip-path="url(#pe04b31a34d)" d="M 258.209444 307.584 
L 260.509083 307.584 
L 260.509083 299.434804 
L 258.209444 299.434804 
z
" style="fill:#0000ff;"/>
   </g>
   <g id="patch_43">
    <path clip-path="url(#pe04b31a34d)" d="M 260.509083 307.584 
L 262.808722 307.584 
L 262.808722 287.21101 
L 260.509083 287.21101 
z
" style="fill:#0000ff;"/>
   </g>
   <g id="patch_44">
    <path clip-path="url(#pe04b31a34d)" d="M 262.808722 307.584 
L 265.108354 307.584 
L 265.108354 288.025929 
L 262.808722 288.025929 
z
" style="fill:#0000ff;"/>
   </g>
   <g id="patch_45">
    <path clip-path="url(#pe04b31a34d)" d="M 265.108354 307.584 
L 267.407993 307.584 
L 267.407993 293.730367 
L 265.108354 293.730367 
z
" style="fill:#0000ff;"/>
   </g>
   <g id="patch_46">
    <path clip-path="url(#pe04b31a34d)" d="M 267.408 307.584 
L 269.707632 307.584 
L 269.707632 282.321492 
L 267.408 282.321492 
z
" style="fill:#0000ff;"/>
   </g>
   <g id="patch_47">
    <path clip-path="url(#pe04b31a34d)" d="M 269.707625 307.584 
L 272.007264 307.584 
L 272.007264 296.990045 
L 269.707625 296.990045 
z
" style="fill:#0000ff;"/>
   </g>
   <g id="patch_48">
    <path clip-path="url(#pe04b31a34d)" d="M 272.007264 307.584 
L 274.306903 307.584 
L 274.306903 288.025929 
L 272.007264 288.025929 
z
" style="fill:#0000ff;"/>
   </g>
   <g id="patch_49">
    <path clip-path="url(#pe04b31a34d)" d="M 274.306903 307.584 
L 276.606535 307.584 
L 276.606535 287.21101 
L 274.306903 287.21101 
z
" style="fill:#0000ff;"/>
   </g>
   <g id="patch_50">
    <path clip-path="url(#pe04b31a34d)" d="M 276.606535 307.584 
L 278.906175 307.584 
L 278.906175 283.136412 
L 276.606535 283.136412 
z
" style="fill:#0000ff;"/>
   </g>
   <g id="patch_51">
    <path clip-path="url(#pe04b31a34d)" d="M 278.906181 307.584 
L 281.205814 307.584 
L 281.205814 280.691653 
L 278.906181 280.691653 
z
" style="fill:#0000ff;"/>
   </g>
   <g id="patch_52">
    <path clip-path="url(#pe04b31a34d)" d="M 281.205807 307.584 
L 283.505446 307.584 
L 283.505446 256.244064 
L 281.205807 256.244064 
z
" style="fill:#0000ff;"/>
   </g>
   <g id="patch_53">
    <path clip-path="url(#pe04b31a34d)" d="M 283.505439 307.584 
L 285.805071 307.584 
L 285.805071 266.838019 
L 283.505439 266.838019 
z
" style="fill:#0000ff;"/>
   </g>
   <g id="patch_54">
    <path clip-path="url(#pe04b31a34d)" d="M 285.805098 307.584 
L 288.104737 307.584 
L 288.104737 273.357376 
L 285.805098 273.357376 
z
" style="fill:#0000ff;"/>
   </g>
   <g id="patch_55">
    <path clip-path="url(#pe04b31a34d)" d="M 288.104724 307.584 
L 290.404349 307.584 
L 290.404349 234.241235 
L 288.104724 234.241235 
z
" style="fill:#0000ff;"/>
   </g>
   <g id="patch_56">
    <path clip-path="url(#pe04b31a34d)" d="M 290.404349 307.584 
L 292.703988 307.584 
L 292.703988 239.945672 
L 290.404349 239.945672 
z
" style="fill:#0000ff;"/>
   </g>
   <g id="patch_57">
    <path clip-path="url(#pe04b31a34d)" d="M 292.704002 307.584 
L 295.003641 307.584 
L 295.003641 182.901299 
L 292.704002 182.901299 
z
" style="fill:#0000ff;"/>
   </g>
   <g id="patch_58">
    <path clip-path="url(#pe04b31a34d)" d="M 295.003627 307.584 
L 297.303266 307.584 
L 297.303266 221.202521 
L 295.003627 221.202521 
z
" style="fill:#0000ff;"/>
   </g>
   <g id="patch_59">
    <path clip-path="url(#pe04b31a34d)" d="M 297.30328 307.584 
L 299.602919 307.584 
L 299.602919 169.047666 
L 297.30328 169.047666 
z
" style="fill:#0000ff;"/>
   </g>
   <g id="patch_60">
    <path clip-path="url(#pe04b31a34d)" d="M 299.602905 307.584 
L 301.90253 307.584 
L 301.90253 208.978727 
L 299.602905 208.978727 
z
" style="fill:#0000ff;"/>
   </g>
   <g id="patch_61">
    <path clip-path="url(#pe04b31a34d)" d="M 301.90253 307.584 
L 304.202169 307.584 
L 304.202169 172.307344 
L 301.90253 172.307344 
z
" style="fill:#0000ff;"/>
   </g>
   <g id="patch_62">
    <path clip-path="url(#pe04b31a34d)" d="M 304.202183 307.584 
L 306.501822 307.584 
L 306.501822 212.238405 
L 304.202183 212.238405 
z
" style="fill:#0000ff;"/>
   </g>
   <g id="patch_63">
    <path clip-path="url(#pe04b31a34d)" d="M 306.501808 307.584 
L 308.801447 307.584 
L 308.801447 186.975897 
L 306.501808 186.975897 
z
" style="fill:#0000ff;"/>
   </g>
   <g id="patch_64">
    <path clip-path="url(#pe04b31a34d)" d="M 308.801461 307.584 
L 311.1011 307.584 
L 311.1011 197.569852 
L 308.801461 197.569852 
z
" style="fill:#0000ff;"/>
   </g>
   <g id="patch_65">
    <path clip-path="url(#pe04b31a34d)" d="M 311.101086 307.584 
L 313.400712 307.584 
L 313.400712 252.169466 
L 311.101086 252.169466 
z
" style="fill:#0000ff;"/>
   </g>
   <g id="patch_66">
    <path clip-path="url(#pe04b31a34d)" d="M 313.400712 307.584 
L 315.700351 307.584 
L 315.700351 235.056154 
L 313.400712 235.056154 
z
" style="fill:#0000ff;"/>
   </g>
   <g id="patch_67">
    <path clip-path="url(#pe04b31a34d)" d="M 315.700364 307.584 
L 318.000003 307.584 
L 318.000003 272.542457 
L 315.700364 272.542457 
z
" style="fill:#0000ff;"/>
   </g>
   <g id="patch_68">
    <path clip-path="url(#pe04b31a34d)" d="M 317.99999 307.584 
L 320.299629 307.584 
L 320.299629 259.503743 
L 317.99999 259.503743 
z
" style="fill:#0000ff;"/>
   </g>
   <g id="patch_69">
    <path clip-path="url(#pe04b31a34d)" d="M 320.299642 307.584 
L 322.599281 307.584 
L 322.599281 283.136412 
L 320.299642 283.136412 
z
" style="fill:#0000ff;"/>
   </g>
   <g id="patch_70">
    <path clip-path="url(#pe04b31a34d)" d="M 322.599268 307.584 
L 324.898893 307.584 
L 324.898893 266.838019 
L 322.599268 266.838019 
z
" style="fill:#0000ff;"/>
   </g>
   <g id="patch_71">
    <path clip-path="url(#pe04b31a34d)" d="M 324.898893 307.584 
L 327.198532 307.584 
L 327.198532 281.506572 
L 324.898893 281.506572 
z
" style="fill:#0000ff;"/>
   </g>
   <g id="patch_72">
    <path clip-path="url(#pe04b31a34d)" d="M 327.198546 307.584 
L 329.498185 307.584 
L 329.498185 274.172296 
L 327.198546 274.172296 
z
" style="fill:#0000ff;"/>
   </g>
   <g id="patch_73">
    <path clip-path="url(#pe04b31a34d)" d="M 329.498171 307.584 
L 331.79781 307.584 
L 331.79781 280.691653 
L 329.498171 280.691653 
z
" style="fill:#0000ff;"/>
   </g>
   <g id="patch_74">
    <path clip-path="url(#pe04b31a34d)" d="M 331.797824 307.584 
L 334.097463 307.584 
L 334.097463 297.804965 
L 331.797824 297.804965 
z
" style="fill:#0000ff;"/>
   </g>
   <g id="patch_75">
    <path clip-path="url(#pe04b31a34d)" d="M 334.097449 307.584 
L 336.397074 307.584 
L 336.397074 279.061814 
L 334.097449 279.061814 
z
" style="fill:#0000ff;"/>
   </g>
   <g id="patch_76">
    <path clip-path="url(#pe04b31a34d)" d="M 336.397074 307.584 
L 338.696713 307.584 
L 338.696713 298.619884 
L 336.397074 298.619884 
z
" style="fill:#0000ff;"/>
   </g>
   <g id="patch_77">
    <path clip-path="url(#pe04b31a34d)" d="M 338.696727 307.584 
L 340.996366 307.584 
L 340.996366 286.39609 
L 338.696727 286.39609 
z
" style="fill:#0000ff;"/>
   </g>
   <g id="patch_78">
    <path clip-path="url(#pe04b31a34d)" d="M 340.996352 307.584 
L 343.295991 307.584 
L 343.295991 300.249723 
L 340.996352 300.249723 
z
" style="fill:#0000ff;"/>
   </g>
   <g id="patch_79">
    <path clip-path="url(#pe04b31a34d)" d="M 343.296005 307.584 
L 345.595644 307.584 
L 345.595644 293.730367 
L 343.296005 293.730367 
z
" style="fill:#0000ff;"/>
   </g>
   <g id="patch_80">
    <path clip-path="url(#pe04b31a34d)" d="M 345.59563 307.584 
L 347.895256 307.584 
L 347.895256 304.324322 
L 345.59563 304.324322 
z
" style="fill:#0000ff;"/>
   </g>
   <g id="patch_81">
    <path clip-path="url(#pe04b31a34d)" d="M 347.895256 307.584 
L 350.194895 307.584 
L 350.194895 298.619884 
L 347.895256 298.619884 
z
" style="fill:#0000ff;"/>
   </g>
   <g id="patch_82">
    <path clip-path="url(#pe04b31a34d)" d="M 350.194908 307.584 
L 352.494547 307.584 
L 352.494547 302.694482 
L 350.194908 302.694482 
z
" style="fill:#0000ff;"/>
   </g>
   <g id="patch_83">
    <path clip-path="url(#pe04b31a34d)" d="M 352.494534 307.584 
L 354.794173 307.584 
L 354.794173 300.249723 
L 352.494534 300.249723 
z
" style="fill:#0000ff;"/>
   </g>
   <g id="patch_84">
    <path clip-path="url(#pe04b31a34d)" d="M 354.794186 307.584 
L 357.093825 307.584 
L 357.093825 302.694482 
L 354.794186 302.694482 
z
" style="fill:#0000ff;"/>
   </g>
   <g id="patch_85">
    <path clip-path="url(#pe04b31a34d)" d="M 357.093812 307.584 
L 359.393437 307.584 
L 359.393437 304.324322 
L 357.093812 304.324322 
z
" style="fill:#0000ff;"/>
   </g>
   <g id="patch_86">
    <path clip-path="url(#pe04b31a34d)" d="M 359.393437 307.584 
L 361.693076 307.584 
L 361.693076 305.139241 
L 359.393437 305.139241 
z
" style="fill:#0000ff;"/>
   </g>
   <g id="patch_87">
    <path clip-path="url(#pe04b31a34d)" d="M 361.69309 307.584 
L 363.992729 307.584 
L 363.992729 306.76908 
L 361.69309 306.76908 
z
" style="fill:#0000ff;"/>
   </g>
   <g id="patch_88">
    <path clip-path="url(#pe04b31a34d)" d="M 363.992715 307.584 
L 366.292354 307.584 
L 366.292354 305.139241 
L 363.992715 305.139241 
z
" style="fill:#0000ff;"/>
   </g>
   <g id="patch_89">
    <path clip-path="url(#pe04b31a34d)" d="M 366.292368 307.584 
L 368.592007 307.584 
L 368.592007 306.76908 
L 366.292368 306.76908 
z
" style="fill:#0000ff;"/>
   </g>
   <g id="patch_90">
    <path clip-path="url(#pe04b31a34d)" d="M 368.591993 307.584 
L 370.891618 307.584 
L 370.891618 305.139241 
L 368.591993 305.139241 
z
" style="fill:#0000ff;"/>
   </g>
   <g id="patch_91">
    <path clip-path="url(#pe04b31a34d)" d="M 370.891618 307.584 
L 373.191257 307.584 
L 373.191257 306.76908 
L 370.891618 306.76908 
z
" style="fill:#0000ff;"/>
   </g>
   <g id="patch_92">
    <path clip-path="url(#pe04b31a34d)" d="M 373.191271 307.584 
L 375.49091 307.584 
L 375.49091 307.584 
L 373.191271 307.584 
z
" style="fill:#0000ff;"/>
   </g>
   <g id="patch_93">
    <path clip-path="url(#pe04b31a34d)" d="M 375.490896 307.584 
L 377.790535 307.584 
L 377.790535 306.76908 
L 375.490896 306.76908 
z
" style="fill:#0000ff;"/>
   </g>
   <g id="patch_94">
    <path clip-path="url(#pe04b31a34d)" d="M 377.790549 307.584 
L 380.090188 307.584 
L 380.090188 307.584 
L 377.790549 307.584 
z
" style="fill:#0000ff;"/>
   </g>
   <g id="patch_95">
    <path clip-path="url(#pe04b31a34d)" d="M 380.090174 307.584 
L 382.3898 307.584 
L 382.3898 307.584 
L 380.090174 307.584 
z
" style="fill:#0000ff;"/>
   </g>
   <g id="patch_96">
    <path clip-path="url(#pe04b31a34d)" d="M 382.3898 307.584 
L 384.689439 307.584 
L 384.689439 306.76908 
L 382.3898 306.76908 
z
" style="fill:#0000ff;"/>
   </g>
   <g id="patch_97">
    <path clip-path="url(#pe04b31a34d)" d="M 384.689452 307.584 
L 386.989091 307.584 
L 386.989091 307.584 
L 384.689452 307.584 
z
" style="fill:#0000ff;"/>
   </g>
   <g id="patch_98">
    <path clip-path="url(#pe04b31a34d)" d="M 386.989078 307.584 
L 389.288717 307.584 
L 389.288717 307.584 
L 386.989078 307.584 
z
" style="fill:#0000ff;"/>
   </g>
   <g id="patch_99">
    <path clip-path="url(#pe04b31a34d)" d="M 389.28873 307.584 
L 391.588369 307.584 
L 391.588369 307.584 
L 389.28873 307.584 
z
" style="fill:#0000ff;"/>
   </g>
   <g id="patch_100">
    <path clip-path="url(#pe04b31a34d)" d="M 391.588356 307.584 
L 393.887981 307.584 
L 393.887981 307.584 
L 391.588356 307.584 
z
" style="fill:#0000ff;"/>
   </g>
   <g id="patch_101">
    <path clip-path="url(#pe04b31a34d)" d="M 393.887981 307.584 
L 396.18762 307.584 
L 396.18762 307.584 
L 393.887981 307.584 
z
" style="fill:#0000ff;"/>
   </g>
   <g id="patch_102">
    <path clip-path="url(#pe04b31a34d)" d="M 396.187634 307.584 
L 398.487273 307.584 
L 398.487273 306.76908 
L 396.187634 306.76908 
z
" style="fill:#0000ff;"/>
   </g>
   <g id="patch_103">
    <path clip-path="url(#pe04b31a34d)" d="M 73.832727 307.584 
L 75.474036 307.584 
L 75.474036 276.617055 
L 73.832727 276.617055 
z
" style="fill:#808080;"/>
   </g>
   <g id="patch_104">
    <path clip-path="url(#pe04b31a34d)" d="M 75.474029 307.584 
L 77.115338 307.584 
L 77.115338 282.321492 
L 75.474029 282.321492 
z
" style="fill:#808080;"/>
   </g>
   <g id="patch_105">
    <path clip-path="url(#pe04b31a34d)" d="M 77.115345 307.584 
L 78.756654 307.584 
L 78.756654 276.617055 
L 77.115345 276.617055 
z
" style="fill:#808080;"/>
   </g>
   <g id="patch_106">
    <path clip-path="url(#pe04b31a34d)" d="M 78.756647 307.584 
L 80.397955 307.584 
L 80.397955 269.282778 
L 78.756647 269.282778 
z
" style="fill:#808080;"/>
   </g>
   <g id="patch_107">
    <path clip-path="url(#pe04b31a34d)" d="M 80.397962 307.584 
L 82.039271 307.584 
L 82.039271 307.584 
L 80.397962 307.584 
z
" style="fill:#808080;"/>
   </g>
   <g id="patch_108">
    <path clip-path="url(#pe04b31a34d)" d="M 82.039264 307.584 
L 83.680573 307.584 
L 83.680573 307.584 
L 82.039264 307.584 
z
" style="fill:#808080;"/>
   </g>
   <g id="patch_109">
    <path clip-path="url(#pe04b31a34d)" d="M 83.68058 307.584 
L 85.321888 307.584 
L 85.321888 307.584 
L 83.68058 307.584 
z
" style="fill:#808080;"/>
   </g>
   <g id="patch_110">
    <path clip-path="url(#pe04b31a34d)" d="M 85.321882 307.584 
L 86.96319 307.584 
L 86.96319 307.584 
L 85.321882 307.584 
z
" style="fill:#808080;"/>
   </g>
   <g id="patch_111">
    <path clip-path="url(#pe04b31a34d)" d="M 86.963197 307.584 
L 88.604506 307.584 
L 88.604506 239.130752 
L 86.963197 239.130752 
z
" style="fill:#808080;"/>
   </g>
   <g id="patch_112">
    <path clip-path="url(#pe04b31a34d)" d="M 88.604499 307.584 
L 90.245808 307.584 
L 90.245808 245.650109 
L 88.604499 245.650109 
z
" style="fill:#808080;"/>
   </g>
   <g id="patch_113">
    <path clip-path="url(#pe04b31a34d)" d="M 90.245815 307.584 
L 91.887123 307.584 
L 91.887123 233.426315 
L 90.245815 233.426315 
z
" style="fill:#808080;"/>
   </g>
   <g id="patch_114">
    <path clip-path="url(#pe04b31a34d)" d="M 91.887117 307.584 
L 93.528425 307.584 
L 93.528425 307.584 
L 91.887117 307.584 
z
" style="fill:#808080;"/>
   </g>
   <g id="patch_115">
    <path clip-path="url(#pe04b31a34d)" d="M 93.528432 307.584 
L 95.169748 307.584 
L 95.169748 222.017441 
L 93.528432 222.017441 
z
" style="fill:#808080;"/>
   </g>
   <g id="patch_116">
    <path clip-path="url(#pe04b31a34d)" d="M 95.169748 307.584 
L 96.811057 307.584 
L 96.811057 307.584 
L 95.169748 307.584 
z
" style="fill:#808080;"/>
   </g>
   <g id="patch_117">
    <path clip-path="url(#pe04b31a34d)" d="M 96.81105 307.584 
L 98.452358 307.584 
L 98.452358 307.584 
L 96.81105 307.584 
z
" style="fill:#808080;"/>
   </g>
   <g id="patch_118">
    <path clip-path="url(#pe04b31a34d)" d="M 98.452365 307.584 
L 100.093674 307.584 
L 100.093674 307.584 
L 98.452365 307.584 
z
" style="fill:#808080;"/>
   </g>
   <g id="patch_119">
    <path clip-path="url(#pe04b31a34d)" d="M 100.093667 307.584 
L 101.734976 307.584 
L 101.734976 307.584 
L 100.093667 307.584 
z
" style="fill:#808080;"/>
   </g>
   <g id="patch_120">
    <path clip-path="url(#pe04b31a34d)" d="M 101.734983 307.584 
L 103.376292 307.584 
L 103.376292 85.925865 
L 101.734983 85.925865 
z
" style="fill:#808080;"/>
   </g>
   <g id="patch_121">
    <path clip-path="url(#pe04b31a34d)" d="M 103.376285 307.584 
L 105.017593 307.584 
L 105.017593 54.144 
L 103.376285 54.144 
z
" style="fill:#808080;"/>
   </g>
   <g id="patch_122">
    <path clip-path="url(#pe04b31a34d)" d="M 105.0176 307.584 
L 106.658909 307.584 
L 106.658909 62.293196 
L 105.0176 62.293196 
z
" style="fill:#808080;"/>
   </g>
   <g id="patch_123">
    <path clip-path="url(#pe04b31a34d)" d="M 106.658902 307.584 
L 108.300211 307.584 
L 108.300211 68.812553 
L 106.658902 68.812553 
z
" style="fill:#808080;"/>
   </g>
   <g id="patch_124">
    <path clip-path="url(#pe04b31a34d)" d="M 108.300218 307.584 
L 109.941527 307.584 
L 109.941527 307.584 
L 108.300218 307.584 
z
" style="fill:#808080;"/>
   </g>
   <g id="patch_125">
    <path clip-path="url(#pe04b31a34d)" d="M 109.94152 307.584 
L 111.582828 307.584 
L 111.582828 307.584 
L 109.94152 307.584 
z
" style="fill:#808080;"/>
   </g>
   <g id="patch_126">
    <path clip-path="url(#pe04b31a34d)" d="M 111.582835 307.584 
L 113.224144 307.584 
L 113.224144 307.584 
L 111.582835 307.584 
z
" style="fill:#808080;"/>
   </g>
   <g id="patch_127">
    <path clip-path="url(#pe04b31a34d)" d="M 113.224144 307.584 
L 114.865453 307.584 
L 114.865453 307.584 
L 113.224144 307.584 
z
" style="fill:#808080;"/>
   </g>
   <g id="patch_128">
    <path clip-path="url(#pe04b31a34d)" d="M 114.865453 307.584 
L 116.506762 307.584 
L 116.506762 307.584 
L 114.865453 307.584 
z
" style="fill:#808080;"/>
   </g>
   <g id="patch_129">
    <path clip-path="url(#pe04b31a34d)" d="M 116.506762 307.584 
L 118.14807 307.584 
L 118.14807 172.307344 
L 116.506762 172.307344 
z
" style="fill:#808080;"/>
   </g>
   <g id="patch_130">
    <path clip-path="url(#pe04b31a34d)" d="M 118.14807 307.584 
L 119.789379 307.584 
L 119.789379 195.125093 
L 118.14807 195.125093 
z
" style="fill:#808080;"/>
   </g>
   <g id="patch_131">
    <path clip-path="url(#pe04b31a34d)" d="M 119.789379 307.584 
L 121.430688 307.584 
L 121.430688 208.163807 
L 119.789379 208.163807 
z
" style="fill:#808080;"/>
   </g>
   <g id="patch_132">
    <path clip-path="url(#pe04b31a34d)" d="M 121.430688 307.584 
L 123.071997 307.584 
L 123.071997 227.721878 
L 121.430688 227.721878 
z
" style="fill:#808080;"/>
   </g>
   <g id="patch_133">
    <path clip-path="url(#pe04b31a34d)" d="M 123.071997 307.584 
L 124.713305 307.584 
L 124.713305 307.584 
L 123.071997 307.584 
z
" style="fill:#808080;"/>
   </g>
   <g id="patch_134">
    <path clip-path="url(#pe04b31a34d)" d="M 124.713305 307.584 
L 126.354621 307.584 
L 126.354621 307.584 
L 124.713305 307.584 
z
" style="fill:#808080;"/>
   </g>
   <g id="patch_135">
    <path clip-path="url(#pe04b31a34d)" d="M 126.354617 307.584 
L 127.995926 307.584 
L 127.995926 307.584 
L 126.354617 307.584 
z
" style="fill:#808080;"/>
   </g>
   <g id="patch_136">
    <path clip-path="url(#pe04b31a34d)" d="M 127.995926 307.584 
L 129.637235 307.584 
L 129.637235 307.584 
L 127.995926 307.584 
z
" style="fill:#808080;"/>
   </g>
   <g id="patch_137">
    <path clip-path="url(#pe04b31a34d)" d="M 129.637235 307.584 
L 131.278544 307.584 
L 131.278544 307.584 
L 129.637235 307.584 
z
" style="fill:#808080;"/>
   </g>
   <g id="patch_138">
    <path clip-path="url(#pe04b31a34d)" d="M 131.278544 307.584 
L 132.919852 307.584 
L 132.919852 307.584 
L 131.278544 307.584 
z
" style="fill:#808080;"/>
   </g>
   <g id="patch_139">
    <path clip-path="url(#pe04b31a34d)" d="M 132.919852 307.584 
L 134.561161 307.584 
L 134.561161 307.584 
L 132.919852 307.584 
z
" style="fill:#808080;"/>
   </g>
   <g id="patch_140">
    <path clip-path="url(#pe04b31a34d)" d="M 134.561161 307.584 
L 136.20247 307.584 
L 136.20247 307.584 
L 134.561161 307.584 
z
" style="fill:#808080;"/>
   </g>
   <g id="patch_141">
    <path clip-path="url(#pe04b31a34d)" d="M 136.20247 307.584 
L 137.843779 307.584 
L 137.843779 307.584 
L 136.20247 307.584 
z
" style="fill:#808080;"/>
   </g>
   <g id="patch_142">
    <path clip-path="url(#pe04b31a34d)" d="M 137.843779 307.584 
L 139.485087 307.584 
L 139.485087 307.584 
L 137.843779 307.584 
z
" style="fill:#808080;"/>
   </g>
   <g id="patch_143">
    <path clip-path="url(#pe04b31a34d)" d="M 139.485087 307.584 
L 141.126396 307.584 
L 141.126396 307.584 
L 139.485087 307.584 
z
" style="fill:#808080;"/>
   </g>
   <g id="patch_144">
    <path clip-path="url(#pe04b31a34d)" d="M 141.126398 307.584 
L 142.767707 307.584 
L 142.767707 307.584 
L 141.126398 307.584 
z
" style="fill:#808080;"/>
   </g>
   <g id="patch_145">
    <path clip-path="url(#pe04b31a34d)" d="M 142.767707 307.584 
L 144.409015 307.584 
L 144.409015 307.584 
L 142.767707 307.584 
z
" style="fill:#808080;"/>
   </g>
   <g id="patch_146">
    <path clip-path="url(#pe04b31a34d)" d="M 144.409015 307.584 
L 146.050324 307.584 
L 146.050324 307.584 
L 144.409015 307.584 
z
" style="fill:#808080;"/>
   </g>
   <g id="patch_147">
    <path clip-path="url(#pe04b31a34d)" d="M 146.050324 307.584 
L 147.691633 307.584 
L 147.691633 307.584 
L 146.050324 307.584 
z
" style="fill:#808080;"/>
   </g>
   <g id="patch_148">
    <path clip-path="url(#pe04b31a34d)" d="M 147.691633 307.584 
L 149.332942 307.584 
L 149.332942 307.584 
L 147.691633 307.584 
z
" style="fill:#808080;"/>
   </g>
   <g id="patch_149">
    <path clip-path="url(#pe04b31a34d)" d="M 149.332943 307.584 
L 150.974252 307.584 
L 150.974252 307.584 
L 149.332943 307.584 
z
" style="fill:#808080;"/>
   </g>
   <g id="patch_150">
    <path clip-path="url(#pe04b31a34d)" d="M 150.974252 307.584 
L 152.615561 307.584 
L 152.615561 307.584 
L 150.974252 307.584 
z
" style="fill:#808080;"/>
   </g>
   <g id="patch_151">
    <path clip-path="url(#pe04b31a34d)" d="M 152.615561 307.584 
L 154.25687 307.584 
L 154.25687 307.584 
L 152.615561 307.584 
z
" style="fill:#808080;"/>
   </g>
   <g id="patch_152">
    <path clip-path="url(#pe04b31a34d)" d="M 154.25687 307.584 
L 155.898178 307.584 
L 155.898178 307.584 
L 154.25687 307.584 
z
" style="fill:#808080;"/>
   </g>
   <g id="patch_153">
    <path clip-path="url(#pe04b31a34d)" d="M 155.898178 307.584 
L 157.539487 307.584 
L 157.539487 307.584 
L 155.898178 307.584 
z
" style="fill:#808080;"/>
   </g>
   <g id="patch_154">
    <path clip-path="url(#pe04b31a34d)" d="M 157.539487 307.584 
L 159.180796 307.584 
L 159.180796 307.584 
L 157.539487 307.584 
z
" style="fill:#808080;"/>
   </g>
   <g id="patch_155">
    <path clip-path="url(#pe04b31a34d)" d="M 159.180797 307.584 
L 160.822105 307.584 
L 160.822105 307.584 
L 159.180797 307.584 
z
" style="fill:#808080;"/>
   </g>
   <g id="patch_156">
    <path clip-path="url(#pe04b31a34d)" d="M 160.822105 307.584 
L 162.463414 307.584 
L 162.463414 307.584 
L 160.822105 307.584 
z
" style="fill:#808080;"/>
   </g>
   <g id="patch_157">
    <path clip-path="url(#pe04b31a34d)" d="M 162.463415 307.584 
L 164.104723 307.584 
L 164.104723 307.584 
L 162.463415 307.584 
z
" style="fill:#808080;"/>
   </g>
   <g id="patch_158">
    <path clip-path="url(#pe04b31a34d)" d="M 164.104724 307.584 
L 165.746033 307.584 
L 165.746033 307.584 
L 164.104724 307.584 
z
" style="fill:#808080;"/>
   </g>
   <g id="patch_159">
    <path clip-path="url(#pe04b31a34d)" d="M 165.746033 307.584 
L 167.387341 307.584 
L 167.387341 307.584 
L 165.746033 307.584 
z
" style="fill:#808080;"/>
   </g>
   <g id="patch_160">
    <path clip-path="url(#pe04b31a34d)" d="M 167.387342 307.584 
L 169.02865 307.584 
L 169.02865 307.584 
L 167.387342 307.584 
z
" style="fill:#808080;"/>
   </g>
   <g id="patch_161">
    <path clip-path="url(#pe04b31a34d)" d="M 169.028651 307.584 
L 170.669959 307.584 
L 170.669959 307.584 
L 169.028651 307.584 
z
" style="fill:#808080;"/>
   </g>
   <g id="patch_162">
    <path clip-path="url(#pe04b31a34d)" d="M 170.66996 307.584 
L 172.311268 307.584 
L 172.311268 307.584 
L 170.66996 307.584 
z
" style="fill:#808080;"/>
   </g>
   <g id="patch_163">
    <path clip-path="url(#pe04b31a34d)" d="M 172.311268 307.584 
L 173.952577 307.584 
L 173.952577 307.584 
L 172.311268 307.584 
z
" style="fill:#808080;"/>
   </g>
   <g id="patch_164">
    <path clip-path="url(#pe04b31a34d)" d="M 173.952578 307.584 
L 175.593887 307.584 
L 175.593887 307.584 
L 173.952578 307.584 
z
" style="fill:#808080;"/>
   </g>
   <g id="patch_165">
    <path clip-path="url(#pe04b31a34d)" d="M 175.593887 307.584 
L 177.235195 307.584 
L 177.235195 307.584 
L 175.593887 307.584 
z
" style="fill:#808080;"/>
   </g>
   <g id="patch_166">
    <path clip-path="url(#pe04b31a34d)" d="M 177.235195 307.584 
L 178.876504 307.584 
L 178.876504 307.584 
L 177.235195 307.584 
z
" style="fill:#808080;"/>
   </g>
   <g id="patch_167">
    <path clip-path="url(#pe04b31a34d)" d="M 178.876504 307.584 
L 180.517813 307.584 
L 180.517813 307.584 
L 178.876504 307.584 
z
" style="fill:#808080;"/>
   </g>
   <g id="patch_168">
    <path clip-path="url(#pe04b31a34d)" d="M 180.517814 307.584 
L 182.159123 307.584 
L 182.159123 307.584 
L 180.517814 307.584 
z
" style="fill:#808080;"/>
   </g>
   <g id="patch_169">
    <path clip-path="url(#pe04b31a34d)" d="M 182.159123 307.584 
L 183.800432 307.584 
L 183.800432 307.584 
L 182.159123 307.584 
z
" style="fill:#808080;"/>
   </g>
   <g id="patch_170">
    <path clip-path="url(#pe04b31a34d)" d="M 183.800432 307.584 
L 185.441741 307.584 
L 185.441741 307.584 
L 183.800432 307.584 
z
" style="fill:#808080;"/>
   </g>
   <g id="patch_171">
    <path clip-path="url(#pe04b31a34d)" d="M 185.441741 307.584 
L 187.08305 307.584 
L 187.08305 307.584 
L 185.441741 307.584 
z
" style="fill:#808080;"/>
   </g>
   <g id="patch_172">
    <path clip-path="url(#pe04b31a34d)" d="M 187.08305 307.584 
L 188.724358 307.584 
L 188.724358 307.584 
L 187.08305 307.584 
z
" style="fill:#808080;"/>
   </g>
   <g id="patch_173">
    <path clip-path="url(#pe04b31a34d)" d="M 188.724358 307.584 
L 190.365667 307.584 
L 190.365667 268.467859 
L 188.724358 268.467859 
z
" style="fill:#808080;"/>
   </g>
   <g id="patch_174">
    <path clip-path="url(#pe04b31a34d)" d="M 190.365669 307.584 
L 192.006978 307.584 
L 192.006978 275.802135 
L 190.365669 275.802135 
z
" style="fill:#808080;"/>
   </g>
   <g id="patch_175">
    <path clip-path="url(#pe04b31a34d)" d="M 192.006978 307.584 
L 193.648286 307.584 
L 193.648286 282.321492 
L 192.006978 282.321492 
z
" style="fill:#808080;"/>
   </g>
   <g id="patch_176">
    <path clip-path="url(#pe04b31a34d)" d="M 193.648286 307.584 
L 195.289595 307.584 
L 195.289595 279.061814 
L 193.648286 279.061814 
z
" style="fill:#808080;"/>
   </g>
   <g id="patch_177">
    <path clip-path="url(#pe04b31a34d)" d="M 195.289595 307.584 
L 196.930904 307.584 
L 196.930904 307.584 
L 195.289595 307.584 
z
" style="fill:#808080;"/>
   </g>
   <g id="patch_178">
    <path clip-path="url(#pe04b31a34d)" d="M 196.930904 307.584 
L 198.572213 307.584 
L 198.572213 307.584 
L 196.930904 307.584 
z
" style="fill:#808080;"/>
   </g>
   <g id="patch_179">
    <path clip-path="url(#pe04b31a34d)" d="M 198.572213 307.584 
L 200.213521 307.584 
L 200.213521 307.584 
L 198.572213 307.584 
z
" style="fill:#808080;"/>
   </g>
   <g id="patch_180">
    <path clip-path="url(#pe04b31a34d)" d="M 200.213521 307.584 
L 201.85483 307.584 
L 201.85483 307.584 
L 200.213521 307.584 
z
" style="fill:#808080;"/>
   </g>
   <g id="patch_181">
    <path clip-path="url(#pe04b31a34d)" d="M 201.85483 307.584 
L 203.496139 307.584 
L 203.496139 307.584 
L 201.85483 307.584 
z
" style="fill:#808080;"/>
   </g>
   <g id="patch_182">
    <path clip-path="url(#pe04b31a34d)" d="M 203.496139 307.584 
L 205.137448 307.584 
L 205.137448 301.879563 
L 203.496139 301.879563 
z
" style="fill:#808080;"/>
   </g>
   <g id="patch_183">
    <path clip-path="url(#pe04b31a34d)" d="M 205.137448 307.584 
L 206.778756 307.584 
L 206.778756 300.249723 
L 205.137448 300.249723 
z
" style="fill:#808080;"/>
   </g>
   <g id="patch_184">
    <path clip-path="url(#pe04b31a34d)" d="M 206.778756 307.584 
L 208.420072 307.584 
L 208.420072 301.879563 
L 206.778756 301.879563 
z
" style="fill:#808080;"/>
   </g>
   <g id="patch_185">
    <path clip-path="url(#pe04b31a34d)" d="M 208.420069 307.584 
L 210.061377 307.584 
L 210.061377 300.249723 
L 208.420069 300.249723 
z
" style="fill:#808080;"/>
   </g>
   <g id="patch_186">
    <path clip-path="url(#pe04b31a34d)" d="M 210.061377 307.584 
L 211.702686 307.584 
L 211.702686 307.584 
L 210.061377 307.584 
z
" style="fill:#808080;"/>
   </g>
   <g id="patch_187">
    <path clip-path="url(#pe04b31a34d)" d="M 211.702686 307.584 
L 213.343995 307.584 
L 213.343995 307.584 
L 211.702686 307.584 
z
" style="fill:#808080;"/>
   </g>
   <g id="patch_188">
    <path clip-path="url(#pe04b31a34d)" d="M 213.343995 307.584 
L 214.985304 307.584 
L 214.985304 307.584 
L 213.343995 307.584 
z
" style="fill:#808080;"/>
   </g>
   <g id="patch_189">
    <path clip-path="url(#pe04b31a34d)" d="M 214.985304 307.584 
L 216.626612 307.584 
L 216.626612 307.584 
L 214.985304 307.584 
z
" style="fill:#808080;"/>
   </g>
   <g id="patch_190">
    <path clip-path="url(#pe04b31a34d)" d="M 216.626612 307.584 
L 218.267921 307.584 
L 218.267921 305.954161 
L 216.626612 305.954161 
z
" style="fill:#808080;"/>
   </g>
   <g id="patch_191">
    <path clip-path="url(#pe04b31a34d)" d="M 218.267921 307.584 
L 219.90923 307.584 
L 219.90923 307.584 
L 218.267921 307.584 
z
" style="fill:#808080;"/>
   </g>
   <g id="patch_192">
    <path clip-path="url(#pe04b31a34d)" d="M 219.90923 307.584 
L 221.550539 307.584 
L 221.550539 307.584 
L 219.90923 307.584 
z
" style="fill:#808080;"/>
   </g>
   <g id="patch_193">
    <path clip-path="url(#pe04b31a34d)" d="M 221.550539 307.584 
L 223.191847 307.584 
L 223.191847 306.76908 
L 221.550539 306.76908 
z
" style="fill:#808080;"/>
   </g>
   <g id="patch_194">
    <path clip-path="url(#pe04b31a34d)" d="M 223.191847 307.584 
L 224.833156 307.584 
L 224.833156 307.584 
L 223.191847 307.584 
z
" style="fill:#808080;"/>
   </g>
   <g id="patch_195">
    <path clip-path="url(#pe04b31a34d)" d="M 224.833153 307.584 
L 226.474468 307.584 
L 226.474468 307.584 
L 224.833153 307.584 
z
" style="fill:#808080;"/>
   </g>
   <g id="patch_196">
    <path clip-path="url(#pe04b31a34d)" d="M 226.474461 307.584 
L 228.11577 307.584 
L 228.11577 307.584 
L 226.474461 307.584 
z
" style="fill:#808080;"/>
   </g>
   <g id="patch_197">
    <path clip-path="url(#pe04b31a34d)" d="M 228.115777 307.584 
L 229.757086 307.584 
L 229.757086 307.584 
L 228.115777 307.584 
z
" style="fill:#808080;"/>
   </g>
   <g id="patch_198">
    <path clip-path="url(#pe04b31a34d)" d="M 229.757079 307.584 
L 231.398388 307.584 
L 231.398388 307.584 
L 229.757079 307.584 
z
" style="fill:#808080;"/>
   </g>
   <g id="patch_199">
    <path clip-path="url(#pe04b31a34d)" d="M 231.398394 307.584 
L 233.039703 307.584 
L 233.039703 307.584 
L 231.398394 307.584 
z
" style="fill:#808080;"/>
   </g>
   <g id="patch_200">
    <path clip-path="url(#pe04b31a34d)" d="M 233.039696 307.584 
L 234.681005 307.584 
L 234.681005 307.584 
L 233.039696 307.584 
z
" style="fill:#808080;"/>
   </g>
   <g id="patch_201">
    <path clip-path="url(#pe04b31a34d)" d="M 234.681012 307.584 
L 236.322321 307.584 
L 236.322321 307.584 
L 234.681012 307.584 
z
" style="fill:#808080;"/>
   </g>
   <g id="patch_202">
    <path clip-path="url(#pe04b31a34d)" d="M 236.322314 307.584 
L 237.963623 307.584 
L 237.963623 306.76908 
L 236.322314 306.76908 
z
" style="fill:#808080;"/>
   </g>
   <g id="matplotlib.axis_1">
    <g id="xtick_1">
     <g id="line2d_1">
      <defs>
       <path d="M 0 0 
L 0 3.5 
" id="m9fdcd850bc" style="stroke:#000000;stroke-width:0.8;"/>
      </defs>
      <g>
       <use style="stroke:#000000;stroke-width:0.8;" x="78.341818" xlink:href="#m9fdcd850bc" y="307.584"/>
      </g>
     </g>
     <g id="text_1">
      <!-- −100 -->
      <defs>
       <path d="M 10.59375 35.5 
L 73.1875 35.5 
L 73.1875 27.203125 
L 10.59375 27.203125 
z
" id="DejaVuSans-8722"/>
       <path d="M 12.40625 8.296875 
L 28.515625 8.296875 
L 28.515625 63.921875 
L 10.984375 60.40625 
L 10.984375 69.390625 
L 28.421875 72.90625 
L 38.28125 72.90625 
L 38.28125 8.296875 
L 54.390625 8.296875 
L 54.390625 0 
L 12.40625 0 
z
" id="DejaVuSans-49"/>
       <path d="M 31.78125 66.40625 
Q 24.171875 66.40625 20.328125 58.90625 
Q 16.5 51.421875 16.5 36.375 
Q 16.5 21.390625 20.328125 13.890625 
Q 24.171875 6.390625 31.78125 6.390625 
Q 39.453125 6.390625 43.28125 13.890625 
Q 47.125 21.390625 47.125 36.375 
Q 47.125 51.421875 43.28125 58.90625 
Q 39.453125 66.40625 31.78125 66.40625 
z
M 31.78125 74.21875 
Q 44.046875 74.21875 50.515625 64.515625 
Q 56.984375 54.828125 56.984375 36.375 
Q 56.984375 17.96875 50.515625 8.265625 
Q 44.046875 -1.421875 31.78125 -1.421875 
Q 19.53125 -1.421875 13.0625 8.265625 
Q 6.59375 17.96875 6.59375 36.375 
Q 6.59375 54.828125 13.0625 64.515625 
Q 19.53125 74.21875 31.78125 74.21875 
z
" id="DejaVuSans-48"/>
      </defs>
      <g transform="translate(64.608224 322.182437)scale(0.1 -0.1)">
       <use xlink:href="#DejaVuSans-8722"/>
       <use x="83.789062" xlink:href="#DejaVuSans-49"/>
       <use x="147.412109" xlink:href="#DejaVuSans-48"/>
       <use x="211.035156" xlink:href="#DejaVuSans-48"/>
      </g>
     </g>
    </g>
    <g id="xtick_2">
     <g id="line2d_2">
      <g>
       <use style="stroke:#000000;stroke-width:0.8;" x="123.432725" xlink:href="#m9fdcd850bc" y="307.584"/>
      </g>
     </g>
     <g id="text_2">
      <!-- −50 -->
      <defs>
       <path d="M 10.796875 72.90625 
L 49.515625 72.90625 
L 49.515625 64.59375 
L 19.828125 64.59375 
L 19.828125 46.734375 
Q 21.96875 47.46875 24.109375 47.828125 
Q 26.265625 48.1875 28.421875 48.1875 
Q 40.625 48.1875 47.75 41.5 
Q 54.890625 34.8125 54.890625 23.390625 
Q 54.890625 11.625 47.5625 5.09375 
Q 40.234375 -1.421875 26.90625 -1.421875 
Q 22.3125 -1.421875 17.546875 -0.640625 
Q 12.796875 0.140625 7.71875 1.703125 
L 7.71875 11.625 
Q 12.109375 9.234375 16.796875 8.0625 
Q 21.484375 6.890625 26.703125 6.890625 
Q 35.15625 6.890625 40.078125 11.328125 
Q 45.015625 15.765625 45.015625 23.390625 
Q 45.015625 31 40.078125 35.4375 
Q 35.15625 39.890625 26.703125 39.890625 
Q 22.75 39.890625 18.8125 39.015625 
Q 14.890625 38.140625 10.796875 36.28125 
z
" id="DejaVuSans-53"/>
      </defs>
      <g transform="translate(112.880381 322.182437)scale(0.1 -0.1)">
       <use xlink:href="#DejaVuSans-8722"/>
       <use x="83.789062" xlink:href="#DejaVuSans-53"/>
       <use x="147.412109" xlink:href="#DejaVuSans-48"/>
      </g>
     </g>
    </g>
    <g id="xtick_3">
     <g id="line2d_3">
      <g>
       <use style="stroke:#000000;stroke-width:0.8;" x="168.523632" xlink:href="#m9fdcd850bc" y="307.584"/>
      </g>
     </g>
     <g id="text_3">
      <!-- 0 -->
      <g transform="translate(165.342382 322.182437)scale(0.1 -0.1)">
       <use xlink:href="#DejaVuSans-48"/>
      </g>
     </g>
    </g>
    <g id="xtick_4">
     <g id="line2d_4">
      <g>
       <use style="stroke:#000000;stroke-width:0.8;" x="213.61454" xlink:href="#m9fdcd850bc" y="307.584"/>
      </g>
     </g>
     <g id="text_4">
      <!-- 50 -->
      <g transform="translate(207.25204 322.182437)scale(0.1 -0.1)">
       <use xlink:href="#DejaVuSans-53"/>
       <use x="63.623047" xlink:href="#DejaVuSans-48"/>
      </g>
     </g>
    </g>
    <g id="xtick_5">
     <g id="line2d_5">
      <g>
       <use style="stroke:#000000;stroke-width:0.8;" x="258.705447" xlink:href="#m9fdcd850bc" y="307.584"/>
      </g>
     </g>
     <g id="text_5">
      <!-- 100 -->
      <g transform="translate(249.161697 322.182437)scale(0.1 -0.1)">
       <use xlink:href="#DejaVuSans-49"/>
       <use x="63.623047" xlink:href="#DejaVuSans-48"/>
       <use x="127.246094" xlink:href="#DejaVuSans-48"/>
      </g>
     </g>
    </g>
    <g id="xtick_6">
     <g id="line2d_6">
      <g>
       <use style="stroke:#000000;stroke-width:0.8;" x="303.796354" xlink:href="#m9fdcd850bc" y="307.584"/>
      </g>
     </g>
     <g id="text_6">
      <!-- 150 -->
      <g transform="translate(294.252604 322.182437)scale(0.1 -0.1)">
       <use xlink:href="#DejaVuSans-49"/>
       <use x="63.623047" xlink:href="#DejaVuSans-53"/>
       <use x="127.246094" xlink:href="#DejaVuSans-48"/>
      </g>
     </g>
    </g>
    <g id="xtick_7">
     <g id="line2d_7">
      <g>
       <use style="stroke:#000000;stroke-width:0.8;" x="348.887261" xlink:href="#m9fdcd850bc" y="307.584"/>
      </g>
     </g>
     <g id="text_7">
      <!-- 200 -->
      <defs>
       <path d="M 19.1875 8.296875 
L 53.609375 8.296875 
L 53.609375 0 
L 7.328125 0 
L 7.328125 8.296875 
Q 12.9375 14.109375 22.625 23.890625 
Q 32.328125 33.6875 34.8125 36.53125 
Q 39.546875 41.84375 41.421875 45.53125 
Q 43.3125 49.21875 43.3125 52.78125 
Q 43.3125 58.59375 39.234375 62.25 
Q 35.15625 65.921875 28.609375 65.921875 
Q 23.96875 65.921875 18.8125 64.3125 
Q 13.671875 62.703125 7.8125 59.421875 
L 7.8125 69.390625 
Q 13.765625 71.78125 18.9375 73 
Q 24.125 74.21875 28.421875 74.21875 
Q 39.75 74.21875 46.484375 68.546875 
Q 53.21875 62.890625 53.21875 53.421875 
Q 53.21875 48.921875 51.53125 44.890625 
Q 49.859375 40.875 45.40625 35.40625 
Q 44.1875 33.984375 37.640625 27.21875 
Q 31.109375 20.453125 19.1875 8.296875 
z
" id="DejaVuSans-50"/>
      </defs>
      <g transform="translate(339.343511 322.182437)scale(0.1 -0.1)">
       <use xlink:href="#DejaVuSans-50"/>
       <use x="63.623047" xlink:href="#DejaVuSans-48"/>
       <use x="127.246094" xlink:href="#DejaVuSans-48"/>
      </g>
     </g>
    </g>
    <g id="xtick_8">
     <g id="line2d_8">
      <g>
       <use style="stroke:#000000;stroke-width:0.8;" x="393.978168" xlink:href="#m9fdcd850bc" y="307.584"/>
      </g>
     </g>
     <g id="text_8">
      <!-- 250 -->
      <g transform="translate(384.434418 322.182437)scale(0.1 -0.1)">
       <use xlink:href="#DejaVuSans-50"/>
       <use x="63.623047" xlink:href="#DejaVuSans-53"/>
       <use x="127.246094" xlink:href="#DejaVuSans-48"/>
      </g>
     </g>
    </g>
    <g id="text_9">
     <!-- Weight -->
     <defs>
      <path d="M 3.328125 72.90625 
L 13.28125 72.90625 
L 28.609375 11.28125 
L 43.890625 72.90625 
L 54.984375 72.90625 
L 70.3125 11.28125 
L 85.59375 72.90625 
L 95.609375 72.90625 
L 77.296875 0 
L 64.890625 0 
L 49.515625 63.28125 
L 33.984375 0 
L 21.578125 0 
z
" id="DejaVuSans-87"/>
      <path d="M 56.203125 29.59375 
L 56.203125 25.203125 
L 14.890625 25.203125 
Q 15.484375 15.921875 20.484375 11.0625 
Q 25.484375 6.203125 34.421875 6.203125 
Q 39.59375 6.203125 44.453125 7.46875 
Q 49.3125 8.734375 54.109375 11.28125 
L 54.109375 2.78125 
Q 49.265625 0.734375 44.1875 -0.34375 
Q 39.109375 -1.421875 33.890625 -1.421875 
Q 20.796875 -1.421875 13.15625 6.1875 
Q 5.515625 13.8125 5.515625 26.8125 
Q 5.515625 40.234375 12.765625 48.109375 
Q 20.015625 56 32.328125 56 
Q 43.359375 56 49.78125 48.890625 
Q 56.203125 41.796875 56.203125 29.59375 
z
M 47.21875 32.234375 
Q 47.125 39.59375 43.09375 43.984375 
Q 39.0625 48.390625 32.421875 48.390625 
Q 24.90625 48.390625 20.390625 44.140625 
Q 15.875 39.890625 15.1875 32.171875 
z
" id="DejaVuSans-101"/>
      <path d="M 9.421875 54.6875 
L 18.40625 54.6875 
L 18.40625 0 
L 9.421875 0 
z
M 9.421875 75.984375 
L 18.40625 75.984375 
L 18.40625 64.59375 
L 9.421875 64.59375 
z
" id="DejaVuSans-105"/>
      <path d="M 45.40625 27.984375 
Q 45.40625 37.75 41.375 43.109375 
Q 37.359375 48.484375 30.078125 48.484375 
Q 22.859375 48.484375 18.828125 43.109375 
Q 14.796875 37.75 14.796875 27.984375 
Q 14.796875 18.265625 18.828125 12.890625 
Q 22.859375 7.515625 30.078125 7.515625 
Q 37.359375 7.515625 41.375 12.890625 
Q 45.40625 18.265625 45.40625 27.984375 
z
M 54.390625 6.78125 
Q 54.390625 -7.171875 48.1875 -13.984375 
Q 42 -20.796875 29.203125 -20.796875 
Q 24.46875 -20.796875 20.265625 -20.09375 
Q 16.0625 -19.390625 12.109375 -17.921875 
L 12.109375 -9.1875 
Q 16.0625 -11.328125 19.921875 -12.34375 
Q 23.78125 -13.375 27.78125 -13.375 
Q 36.625 -13.375 41.015625 -8.765625 
Q 45.40625 -4.15625 45.40625 5.171875 
L 45.40625 9.625 
Q 42.625 4.78125 38.28125 2.390625 
Q 33.9375 0 27.875 0 
Q 17.828125 0 11.671875 7.65625 
Q 5.515625 15.328125 5.515625 27.984375 
Q 5.515625 40.671875 11.671875 48.328125 
Q 17.828125 56 27.875 56 
Q 33.9375 56 38.28125 53.609375 
Q 42.625 51.21875 45.40625 46.390625 
L 45.40625 54.6875 
L 54.390625 54.6875 
z
" id="DejaVuSans-103"/>
      <path d="M 54.890625 33.015625 
L 54.890625 0 
L 45.90625 0 
L 45.90625 32.71875 
Q 45.90625 40.484375 42.875 44.328125 
Q 39.84375 48.1875 33.796875 48.1875 
Q 26.515625 48.1875 22.3125 43.546875 
Q 18.109375 38.921875 18.109375 30.90625 
L 18.109375 0 
L 9.078125 0 
L 9.078125 75.984375 
L 18.109375 75.984375 
L 18.109375 46.1875 
Q 21.34375 51.125 25.703125 53.5625 
Q 30.078125 56 35.796875 56 
Q 45.21875 56 50.046875 50.171875 
Q 54.890625 44.34375 54.890625 33.015625 
z
" id="DejaVuSans-104"/>
      <path d="M 18.3125 70.21875 
L 18.3125 54.6875 
L 36.8125 54.6875 
L 36.8125 47.703125 
L 18.3125 47.703125 
L 18.3125 18.015625 
Q 18.3125 11.328125 20.140625 9.421875 
Q 21.96875 7.515625 27.59375 7.515625 
L 36.8125 7.515625 
L 36.8125 0 
L 27.59375 0 
Q 17.1875 0 13.234375 3.875 
Q 9.28125 7.765625 9.28125 18.015625 
L 9.28125 47.703125 
L 2.6875 47.703125 
L 2.6875 54.6875 
L 9.28125 54.6875 
L 9.28125 70.21875 
z
" id="DejaVuSans-116"/>
     </defs>
     <g transform="translate(218.451406 335.860562)scale(0.1 -0.1)">
      <use xlink:href="#DejaVuSans-87"/>
      <use x="98.798828" xlink:href="#DejaVuSans-101"/>
      <use x="160.322266" xlink:href="#DejaVuSans-105"/>
      <use x="188.105469" xlink:href="#DejaVuSans-103"/>
      <use x="251.582031" xlink:href="#DejaVuSans-104"/>
      <use x="314.960938" xlink:href="#DejaVuSans-116"/>
     </g>
    </g>
   </g>
   <g id="matplotlib.axis_2">
    <g id="ytick_1">
     <g id="line2d_9">
      <defs>
       <path d="M 0 0 
L -3.5 0 
" id="m5b28ef592d" style="stroke:#000000;stroke-width:0.8;"/>
      </defs>
      <g>
       <use style="stroke:#000000;stroke-width:0.8;" x="57.6" xlink:href="#m5b28ef592d" y="307.584"/>
      </g>
     </g>
     <g id="text_10">
      <!-- 0 -->
      <g transform="translate(44.2375 311.383219)scale(0.1 -0.1)">
       <use xlink:href="#DejaVuSans-48"/>
      </g>
     </g>
    </g>
    <g id="ytick_2">
     <g id="line2d_10">
      <g>
       <use style="stroke:#000000;stroke-width:0.8;" x="57.6" xlink:href="#m5b28ef592d" y="266.838019"/>
      </g>
     </g>
     <g id="text_11">
      <!-- 50 -->
      <g transform="translate(37.875 270.637238)scale(0.1 -0.1)">
       <use xlink:href="#DejaVuSans-53"/>
       <use x="63.623047" xlink:href="#DejaVuSans-48"/>
      </g>
     </g>
    </g>
    <g id="ytick_3">
     <g id="line2d_11">
      <g>
       <use style="stroke:#000000;stroke-width:0.8;" x="57.6" xlink:href="#m5b28ef592d" y="226.092039"/>
      </g>
     </g>
     <g id="text_12">
      <!-- 100 -->
      <g transform="translate(31.5125 229.891257)scale(0.1 -0.1)">
       <use xlink:href="#DejaVuSans-49"/>
       <use x="63.623047" xlink:href="#DejaVuSans-48"/>
       <use x="127.246094" xlink:href="#DejaVuSans-48"/>
      </g>
     </g>
    </g>
    <g id="ytick_4">
     <g id="line2d_12">
      <g>
       <use style="stroke:#000000;stroke-width:0.8;" x="57.6" xlink:href="#m5b28ef592d" y="185.346058"/>
      </g>
     </g>
     <g id="text_13">
      <!-- 150 -->
      <g transform="translate(31.5125 189.145277)scale(0.1 -0.1)">
       <use xlink:href="#DejaVuSans-49"/>
       <use x="63.623047" xlink:href="#DejaVuSans-53"/>
       <use x="127.246094" xlink:href="#DejaVuSans-48"/>
      </g>
     </g>
    </g>
    <g id="ytick_5">
     <g id="line2d_13">
      <g>
       <use style="stroke:#000000;stroke-width:0.8;" x="57.6" xlink:href="#m5b28ef592d" y="144.600077"/>
      </g>
     </g>
     <g id="text_14">
      <!-- 200 -->
      <g transform="translate(31.5125 148.399296)scale(0.1 -0.1)">
       <use xlink:href="#DejaVuSans-50"/>
       <use x="63.623047" xlink:href="#DejaVuSans-48"/>
       <use x="127.246094" xlink:href="#DejaVuSans-48"/>
      </g>
     </g>
    </g>
    <g id="ytick_6">
     <g id="line2d_14">
      <g>
       <use style="stroke:#000000;stroke-width:0.8;" x="57.6" xlink:href="#m5b28ef592d" y="103.854096"/>
      </g>
     </g>
     <g id="text_15">
      <!-- 250 -->
      <g transform="translate(31.5125 107.653315)scale(0.1 -0.1)">
       <use xlink:href="#DejaVuSans-50"/>
       <use x="63.623047" xlink:href="#DejaVuSans-53"/>
       <use x="127.246094" xlink:href="#DejaVuSans-48"/>
      </g>
     </g>
    </g>
    <g id="ytick_7">
     <g id="line2d_15">
      <g>
       <use style="stroke:#000000;stroke-width:0.8;" x="57.6" xlink:href="#m5b28ef592d" y="63.108116"/>
      </g>
     </g>
     <g id="text_16">
      <!-- 300 -->
      <defs>
       <path d="M 40.578125 39.3125 
Q 47.65625 37.796875 51.625 33 
Q 55.609375 28.21875 55.609375 21.1875 
Q 55.609375 10.40625 48.1875 4.484375 
Q 40.765625 -1.421875 27.09375 -1.421875 
Q 22.515625 -1.421875 17.65625 -0.515625 
Q 12.796875 0.390625 7.625 2.203125 
L 7.625 11.71875 
Q 11.71875 9.328125 16.59375 8.109375 
Q 21.484375 6.890625 26.8125 6.890625 
Q 36.078125 6.890625 40.9375 10.546875 
Q 45.796875 14.203125 45.796875 21.1875 
Q 45.796875 27.640625 41.28125 31.265625 
Q 36.765625 34.90625 28.71875 34.90625 
L 20.21875 34.90625 
L 20.21875 43.015625 
L 29.109375 43.015625 
Q 36.375 43.015625 40.234375 45.921875 
Q 44.09375 48.828125 44.09375 54.296875 
Q 44.09375 59.90625 40.109375 62.90625 
Q 36.140625 65.921875 28.71875 65.921875 
Q 24.65625 65.921875 20.015625 65.03125 
Q 15.375 64.15625 9.8125 62.3125 
L 9.8125 71.09375 
Q 15.4375 72.65625 20.34375 73.4375 
Q 25.25 74.21875 29.59375 74.21875 
Q 40.828125 74.21875 47.359375 69.109375 
Q 53.90625 64.015625 53.90625 55.328125 
Q 53.90625 49.265625 50.4375 45.09375 
Q 46.96875 40.921875 40.578125 39.3125 
z
" id="DejaVuSans-51"/>
      </defs>
      <g transform="translate(31.5125 66.907335)scale(0.1 -0.1)">
       <use xlink:href="#DejaVuSans-51"/>
       <use x="63.623047" xlink:href="#DejaVuSans-48"/>
       <use x="127.246094" xlink:href="#DejaVuSans-48"/>
      </g>
     </g>
    </g>
    <g id="text_17">
     <!-- Occurrencies -->
     <defs>
      <path d="M 39.40625 66.21875 
Q 28.65625 66.21875 22.328125 58.203125 
Q 16.015625 50.203125 16.015625 36.375 
Q 16.015625 22.609375 22.328125 14.59375 
Q 28.65625 6.59375 39.40625 6.59375 
Q 50.140625 6.59375 56.421875 14.59375 
Q 62.703125 22.609375 62.703125 36.375 
Q 62.703125 50.203125 56.421875 58.203125 
Q 50.140625 66.21875 39.40625 66.21875 
z
M 39.40625 74.21875 
Q 54.734375 74.21875 63.90625 63.9375 
Q 73.09375 53.65625 73.09375 36.375 
Q 73.09375 19.140625 63.90625 8.859375 
Q 54.734375 -1.421875 39.40625 -1.421875 
Q 24.03125 -1.421875 14.8125 8.828125 
Q 5.609375 19.09375 5.609375 36.375 
Q 5.609375 53.65625 14.8125 63.9375 
Q 24.03125 74.21875 39.40625 74.21875 
z
" id="DejaVuSans-79"/>
      <path d="M 48.78125 52.59375 
L 48.78125 44.1875 
Q 44.96875 46.296875 41.140625 47.34375 
Q 37.3125 48.390625 33.40625 48.390625 
Q 24.65625 48.390625 19.8125 42.84375 
Q 14.984375 37.3125 14.984375 27.296875 
Q 14.984375 17.28125 19.8125 11.734375 
Q 24.65625 6.203125 33.40625 6.203125 
Q 37.3125 6.203125 41.140625 7.25 
Q 44.96875 8.296875 48.78125 10.40625 
L 48.78125 2.09375 
Q 45.015625 0.34375 40.984375 -0.53125 
Q 36.96875 -1.421875 32.421875 -1.421875 
Q 20.0625 -1.421875 12.78125 6.34375 
Q 5.515625 14.109375 5.515625 27.296875 
Q 5.515625 40.671875 12.859375 48.328125 
Q 20.21875 56 33.015625 56 
Q 37.15625 56 41.109375 55.140625 
Q 45.0625 54.296875 48.78125 52.59375 
z
" id="DejaVuSans-99"/>
      <path d="M 8.5 21.578125 
L 8.5 54.6875 
L 17.484375 54.6875 
L 17.484375 21.921875 
Q 17.484375 14.15625 20.5 10.265625 
Q 23.53125 6.390625 29.59375 6.390625 
Q 36.859375 6.390625 41.078125 11.03125 
Q 45.3125 15.671875 45.3125 23.6875 
L 45.3125 54.6875 
L 54.296875 54.6875 
L 54.296875 0 
L 45.3125 0 
L 45.3125 8.40625 
Q 42.046875 3.421875 37.71875 1 
Q 33.40625 -1.421875 27.6875 -1.421875 
Q 18.265625 -1.421875 13.375 4.4375 
Q 8.5 10.296875 8.5 21.578125 
z
M 31.109375 56 
z
" id="DejaVuSans-117"/>
      <path d="M 41.109375 46.296875 
Q 39.59375 47.171875 37.8125 47.578125 
Q 36.03125 48 33.890625 48 
Q 26.265625 48 22.1875 43.046875 
Q 18.109375 38.09375 18.109375 28.8125 
L 18.109375 0 
L 9.078125 0 
L 9.078125 54.6875 
L 18.109375 54.6875 
L 18.109375 46.1875 
Q 20.953125 51.171875 25.484375 53.578125 
Q 30.03125 56 36.53125 56 
Q 37.453125 56 38.578125 55.875 
Q 39.703125 55.765625 41.0625 55.515625 
z
" id="DejaVuSans-114"/>
      <path d="M 54.890625 33.015625 
L 54.890625 0 
L 45.90625 0 
L 45.90625 32.71875 
Q 45.90625 40.484375 42.875 44.328125 
Q 39.84375 48.1875 33.796875 48.1875 
Q 26.515625 48.1875 22.3125 43.546875 
Q 18.109375 38.921875 18.109375 30.90625 
L 18.109375 0 
L 9.078125 0 
L 9.078125 54.6875 
L 18.109375 54.6875 
L 18.109375 46.1875 
Q 21.34375 51.125 25.703125 53.5625 
Q 30.078125 56 35.796875 56 
Q 45.21875 56 50.046875 50.171875 
Q 54.890625 44.34375 54.890625 33.015625 
z
" id="DejaVuSans-110"/>
      <path d="M 44.28125 53.078125 
L 44.28125 44.578125 
Q 40.484375 46.53125 36.375 47.5 
Q 32.28125 48.484375 27.875 48.484375 
Q 21.1875 48.484375 17.84375 46.4375 
Q 14.5 44.390625 14.5 40.28125 
Q 14.5 37.15625 16.890625 35.375 
Q 19.28125 33.59375 26.515625 31.984375 
L 29.59375 31.296875 
Q 39.15625 29.25 43.1875 25.515625 
Q 47.21875 21.78125 47.21875 15.09375 
Q 47.21875 7.46875 41.1875 3.015625 
Q 35.15625 -1.421875 24.609375 -1.421875 
Q 20.21875 -1.421875 15.453125 -0.5625 
Q 10.6875 0.296875 5.421875 2 
L 5.421875 11.28125 
Q 10.40625 8.6875 15.234375 7.390625 
Q 20.0625 6.109375 24.8125 6.109375 
Q 31.15625 6.109375 34.5625 8.28125 
Q 37.984375 10.453125 37.984375 14.40625 
Q 37.984375 18.0625 35.515625 20.015625 
Q 33.0625 21.96875 24.703125 23.78125 
L 21.578125 24.515625 
Q 13.234375 26.265625 9.515625 29.90625 
Q 5.8125 33.546875 5.8125 39.890625 
Q 5.8125 47.609375 11.28125 51.796875 
Q 16.75 56 26.8125 56 
Q 31.78125 56 36.171875 55.265625 
Q 40.578125 54.546875 44.28125 53.078125 
z
" id="DejaVuSans-115"/>
     </defs>
     <g transform="translate(25.432812 207.304563)rotate(-90)scale(0.1 -0.1)">
      <use xlink:href="#DejaVuSans-79"/>
      <use x="78.710938" xlink:href="#DejaVuSans-99"/>
      <use x="133.691406" xlink:href="#DejaVuSans-99"/>
      <use x="188.671875" xlink:href="#DejaVuSans-117"/>
      <use x="252.050781" xlink:href="#DejaVuSans-114"/>
      <use x="293.148438" xlink:href="#DejaVuSans-114"/>
      <use x="334.230469" xlink:href="#DejaVuSans-101"/>
      <use x="395.753906" xlink:href="#DejaVuSans-110"/>
      <use x="459.132812" xlink:href="#DejaVuSans-99"/>
      <use x="514.113281" xlink:href="#DejaVuSans-105"/>
      <use x="541.896484" xlink:href="#DejaVuSans-101"/>
      <use x="603.419922" xlink:href="#DejaVuSans-115"/>
     </g>
    </g>
   </g>
   <g id="patch_203">
    <path d="M 57.6 307.584 
L 57.6 41.472 
" style="fill:none;stroke:#000000;stroke-linecap:square;stroke-linejoin:miter;stroke-width:0.8;"/>
   </g>
   <g id="patch_204">
    <path d="M 414.72 307.584 
L 414.72 41.472 
" style="fill:none;stroke:#000000;stroke-linecap:square;stroke-linejoin:miter;stroke-width:0.8;"/>
   </g>
   <g id="patch_205">
    <path d="M 57.6 307.584 
L 414.72 307.584 
" style="fill:none;stroke:#000000;stroke-linecap:square;stroke-linejoin:miter;stroke-width:0.8;"/>
   </g>
   <g id="patch_206">
    <path d="M 57.6 41.472 
L 414.72 41.472 
" style="fill:none;stroke:#000000;stroke-linecap:square;stroke-linejoin:miter;stroke-width:0.8;"/>
   </g>
   <g id="text_18">
    <!-- Histogram of conv2 -->
    <defs>
     <path d="M 9.8125 72.90625 
L 19.671875 72.90625 
L 19.671875 43.015625 
L 55.515625 43.015625 
L 55.515625 72.90625 
L 65.375 72.90625 
L 65.375 0 
L 55.515625 0 
L 55.515625 34.71875 
L 19.671875 34.71875 
L 19.671875 0 
L 9.8125 0 
z
" id="DejaVuSans-72"/>
     <path d="M 30.609375 48.390625 
Q 23.390625 48.390625 19.1875 42.75 
Q 14.984375 37.109375 14.984375 27.296875 
Q 14.984375 17.484375 19.15625 11.84375 
Q 23.34375 6.203125 30.609375 6.203125 
Q 37.796875 6.203125 41.984375 11.859375 
Q 46.1875 17.53125 46.1875 27.296875 
Q 46.1875 37.015625 41.984375 42.703125 
Q 37.796875 48.390625 30.609375 48.390625 
z
M 30.609375 56 
Q 42.328125 56 49.015625 48.375 
Q 55.71875 40.765625 55.71875 27.296875 
Q 55.71875 13.875 49.015625 6.21875 
Q 42.328125 -1.421875 30.609375 -1.421875 
Q 18.84375 -1.421875 12.171875 6.21875 
Q 5.515625 13.875 5.515625 27.296875 
Q 5.515625 40.765625 12.171875 48.375 
Q 18.84375 56 30.609375 56 
z
" id="DejaVuSans-111"/>
     <path d="M 34.28125 27.484375 
Q 23.390625 27.484375 19.1875 25 
Q 14.984375 22.515625 14.984375 16.5 
Q 14.984375 11.71875 18.140625 8.90625 
Q 21.296875 6.109375 26.703125 6.109375 
Q 34.1875 6.109375 38.703125 11.40625 
Q 43.21875 16.703125 43.21875 25.484375 
L 43.21875 27.484375 
z
M 52.203125 31.203125 
L 52.203125 0 
L 43.21875 0 
L 43.21875 8.296875 
Q 40.140625 3.328125 35.546875 0.953125 
Q 30.953125 -1.421875 24.3125 -1.421875 
Q 15.921875 -1.421875 10.953125 3.296875 
Q 6 8.015625 6 15.921875 
Q 6 25.140625 12.171875 29.828125 
Q 18.359375 34.515625 30.609375 34.515625 
L 43.21875 34.515625 
L 43.21875 35.40625 
Q 43.21875 41.609375 39.140625 45 
Q 35.0625 48.390625 27.6875 48.390625 
Q 23 48.390625 18.546875 47.265625 
Q 14.109375 46.140625 10.015625 43.890625 
L 10.015625 52.203125 
Q 14.9375 54.109375 19.578125 55.046875 
Q 24.21875 56 28.609375 56 
Q 40.484375 56 46.34375 49.84375 
Q 52.203125 43.703125 52.203125 31.203125 
z
" id="DejaVuSans-97"/>
     <path d="M 52 44.1875 
Q 55.375 50.25 60.0625 53.125 
Q 64.75 56 71.09375 56 
Q 79.640625 56 84.28125 50.015625 
Q 88.921875 44.046875 88.921875 33.015625 
L 88.921875 0 
L 79.890625 0 
L 79.890625 32.71875 
Q 79.890625 40.578125 77.09375 44.375 
Q 74.3125 48.1875 68.609375 48.1875 
Q 61.625 48.1875 57.5625 43.546875 
Q 53.515625 38.921875 53.515625 30.90625 
L 53.515625 0 
L 44.484375 0 
L 44.484375 32.71875 
Q 44.484375 40.625 41.703125 44.40625 
Q 38.921875 48.1875 33.109375 48.1875 
Q 26.21875 48.1875 22.15625 43.53125 
Q 18.109375 38.875 18.109375 30.90625 
L 18.109375 0 
L 9.078125 0 
L 9.078125 54.6875 
L 18.109375 54.6875 
L 18.109375 46.1875 
Q 21.1875 51.21875 25.484375 53.609375 
Q 29.78125 56 35.6875 56 
Q 41.65625 56 45.828125 52.96875 
Q 50 49.953125 52 44.1875 
z
" id="DejaVuSans-109"/>
     <path id="DejaVuSans-32"/>
     <path d="M 37.109375 75.984375 
L 37.109375 68.5 
L 28.515625 68.5 
Q 23.6875 68.5 21.796875 66.546875 
Q 19.921875 64.59375 19.921875 59.515625 
L 19.921875 54.6875 
L 34.71875 54.6875 
L 34.71875 47.703125 
L 19.921875 47.703125 
L 19.921875 0 
L 10.890625 0 
L 10.890625 47.703125 
L 2.296875 47.703125 
L 2.296875 54.6875 
L 10.890625 54.6875 
L 10.890625 58.5 
Q 10.890625 67.625 15.140625 71.796875 
Q 19.390625 75.984375 28.609375 75.984375 
z
" id="DejaVuSans-102"/>
     <path d="M 2.984375 54.6875 
L 12.5 54.6875 
L 29.59375 8.796875 
L 46.6875 54.6875 
L 56.203125 54.6875 
L 35.6875 0 
L 23.484375 0 
z
" id="DejaVuSans-118"/>
    </defs>
    <g transform="translate(177.29625 35.472)scale(0.12 -0.12)">
     <use xlink:href="#DejaVuSans-72"/>
     <use x="75.195312" xlink:href="#DejaVuSans-105"/>
     <use x="102.978516" xlink:href="#DejaVuSans-115"/>
     <use x="155.078125" xlink:href="#DejaVuSans-116"/>
     <use x="194.287109" xlink:href="#DejaVuSans-111"/>
     <use x="255.46875" xlink:href="#DejaVuSans-103"/>
     <use x="318.945312" xlink:href="#DejaVuSans-114"/>
     <use x="360.058594" xlink:href="#DejaVuSans-97"/>
     <use x="421.337891" xlink:href="#DejaVuSans-109"/>
     <use x="518.75" xlink:href="#DejaVuSans-32"/>
     <use x="550.537109" xlink:href="#DejaVuSans-111"/>
     <use x="611.71875" xlink:href="#DejaVuSans-102"/>
     <use x="646.923828" xlink:href="#DejaVuSans-32"/>
     <use x="678.710938" xlink:href="#DejaVuSans-99"/>
     <use x="733.691406" xlink:href="#DejaVuSans-111"/>
     <use x="794.873047" xlink:href="#DejaVuSans-110"/>
     <use x="858.251953" xlink:href="#DejaVuSans-118"/>
     <use x="917.431641" xlink:href="#DejaVuSans-50"/>
    </g>
   </g>
   <g id="legend_1">
    <g id="patch_207">
     <path d="M 323.679375 78.82825 
L 407.72 78.82825 
Q 409.72 78.82825 409.72 76.82825 
L 409.72 48.472 
Q 409.72 46.472 407.72 46.472 
L 323.679375 46.472 
Q 321.679375 46.472 321.679375 48.472 
L 321.679375 76.82825 
Q 321.679375 78.82825 323.679375 78.82825 
z
" style="fill:#ffffff;opacity:0.8;stroke:#cccccc;stroke-linejoin:miter;"/>
    </g>
    <g id="patch_208">
     <path d="M 325.679375 58.070437 
L 345.679375 58.070437 
L 345.679375 51.070437 
L 325.679375 51.070437 
z
" style="fill:#0000ff;"/>
    </g>
    <g id="text_19">
     <!-- unmasked -->
     <defs>
      <path d="M 9.078125 75.984375 
L 18.109375 75.984375 
L 18.109375 31.109375 
L 44.921875 54.6875 
L 56.390625 54.6875 
L 27.390625 29.109375 
L 57.625 0 
L 45.90625 0 
L 18.109375 26.703125 
L 18.109375 0 
L 9.078125 0 
z
" id="DejaVuSans-107"/>
      <path d="M 45.40625 46.390625 
L 45.40625 75.984375 
L 54.390625 75.984375 
L 54.390625 0 
L 45.40625 0 
L 45.40625 8.203125 
Q 42.578125 3.328125 38.25 0.953125 
Q 33.9375 -1.421875 27.875 -1.421875 
Q 17.96875 -1.421875 11.734375 6.484375 
Q 5.515625 14.40625 5.515625 27.296875 
Q 5.515625 40.1875 11.734375 48.09375 
Q 17.96875 56 27.875 56 
Q 33.9375 56 38.25 53.625 
Q 42.578125 51.265625 45.40625 46.390625 
z
M 14.796875 27.296875 
Q 14.796875 17.390625 18.875 11.75 
Q 22.953125 6.109375 30.078125 6.109375 
Q 37.203125 6.109375 41.296875 11.75 
Q 45.40625 17.390625 45.40625 27.296875 
Q 45.40625 37.203125 41.296875 42.84375 
Q 37.203125 48.484375 30.078125 48.484375 
Q 22.953125 48.484375 18.875 42.84375 
Q 14.796875 37.203125 14.796875 27.296875 
z
" id="DejaVuSans-100"/>
     </defs>
     <g transform="translate(353.679375 58.070437)scale(0.1 -0.1)">
      <use xlink:href="#DejaVuSans-117"/>
      <use x="63.378906" xlink:href="#DejaVuSans-110"/>
      <use x="126.757812" xlink:href="#DejaVuSans-109"/>
      <use x="224.169922" xlink:href="#DejaVuSans-97"/>
      <use x="285.449219" xlink:href="#DejaVuSans-115"/>
      <use x="337.548828" xlink:href="#DejaVuSans-107"/>
      <use x="395.412109" xlink:href="#DejaVuSans-101"/>
      <use x="456.935547" xlink:href="#DejaVuSans-100"/>
     </g>
    </g>
    <g id="patch_209">
     <path d="M 325.679375 72.748562 
L 345.679375 72.748562 
L 345.679375 65.748562 
L 325.679375 65.748562 
z
" style="fill:#808080;"/>
    </g>
    <g id="text_20">
     <!-- masked -->
     <g transform="translate(353.679375 72.748562)scale(0.1 -0.1)">
      <use xlink:href="#DejaVuSans-109"/>
      <use x="97.412109" xlink:href="#DejaVuSans-97"/>
      <use x="158.691406" xlink:href="#DejaVuSans-115"/>
      <use x="210.791016" xlink:href="#DejaVuSans-107"/>
      <use x="268.654297" xlink:href="#DejaVuSans-101"/>
      <use x="330.177734" xlink:href="#DejaVuSans-100"/>
     </g>
    </g>
   </g>
  </g>
 </g>
 <defs>
  <clipPath id="pe04b31a34d">
   <rect height="266.112" width="357.12" x="57.6" y="41.472"/>
  </clipPath>
 </defs>
</svg>
