<?xml version="1.0" encoding="utf-8" standalone="no"?>
<!DOCTYPE svg PUBLIC "-//W3C//DTD SVG 1.1//EN"
  "http://www.w3.org/Graphics/SVG/1.1/DTD/svg11.dtd">
<!-- Created with matplotlib (https://matplotlib.org/) -->
<svg height="345.6pt" version="1.1" viewBox="0 0 460.8 345.6" width="460.8pt" xmlns="http://www.w3.org/2000/svg" xmlns:xlink="http://www.w3.org/1999/xlink">
 <defs>
  <style type="text/css">
*{stroke-linecap:butt;stroke-linejoin:round;}
  </style>
 </defs>
 <g id="figure_1">
  <g id="patch_1">
   <path d="M 0 345.6 
L 460.8 345.6 
L 460.8 0 
L 0 0 
z
" style="fill:#ffffff;"/>
  </g>
  <g id="axes_1">
   <g id="patch_2">
    <path d="M 57.6 307.584 
L 414.72 307.584 
L 414.72 41.472 
L 57.6 41.472 
z
" style="fill:#ffffff;"/>
   </g>
   <g id="patch_3">
    <path clip-path="url(#p86b64ff849)" d="M 185.118946 307.584 
L 187.252629 307.584 
L 187.252629 307.568623 
L 185.118946 307.568623 
z
" style="fill:#0000ff;"/>
   </g>
   <g id="patch_4">
    <path clip-path="url(#p86b64ff849)" d="M 187.252629 307.584 
L 189.386312 307.584 
L 189.386312 307.568623 
L 187.252629 307.568623 
z
" style="fill:#0000ff;"/>
   </g>
   <g id="patch_5">
    <path clip-path="url(#p86b64ff849)" d="M 189.386312 307.584 
L 191.519995 307.584 
L 191.519995 307.584 
L 189.386312 307.584 
z
" style="fill:#0000ff;"/>
   </g>
   <g id="patch_6">
    <path clip-path="url(#p86b64ff849)" d="M 191.519996 307.584 
L 193.653679 307.584 
L 193.653679 307.584 
L 191.519996 307.584 
z
" style="fill:#0000ff;"/>
   </g>
   <g id="patch_7">
    <path clip-path="url(#p86b64ff849)" d="M 193.653679 307.584 
L 195.787362 307.584 
L 195.787362 307.568623 
L 193.653679 307.568623 
z
" style="fill:#0000ff;"/>
   </g>
   <g id="patch_8">
    <path clip-path="url(#p86b64ff849)" d="M 195.787362 307.584 
L 197.921045 307.584 
L 197.921045 307.584 
L 195.787362 307.584 
z
" style="fill:#0000ff;"/>
   </g>
   <g id="patch_9">
    <path clip-path="url(#p86b64ff849)" d="M 197.921046 307.584 
L 200.05473 307.584 
L 200.05473 307.584 
L 197.921046 307.584 
z
" style="fill:#0000ff;"/>
   </g>
   <g id="patch_10">
    <path clip-path="url(#p86b64ff849)" d="M 200.054728 307.584 
L 202.188411 307.584 
L 202.188411 307.584 
L 200.054728 307.584 
z
" style="fill:#0000ff;"/>
   </g>
   <g id="patch_11">
    <path clip-path="url(#p86b64ff849)" d="M 202.188409 307.584 
L 204.322093 307.584 
L 204.322093 307.584 
L 202.188409 307.584 
z
" style="fill:#0000ff;"/>
   </g>
   <g id="patch_12">
    <path clip-path="url(#p86b64ff849)" d="M 204.322095 307.584 
L 206.455777 307.584 
L 206.455777 307.584 
L 204.322095 307.584 
z
" style="fill:#0000ff;"/>
   </g>
   <g id="patch_13">
    <path clip-path="url(#p86b64ff849)" d="M 206.455777 307.584 
L 208.58946 307.584 
L 208.58946 307.553246 
L 206.455777 307.553246 
z
" style="fill:#0000ff;"/>
   </g>
   <g id="patch_14">
    <path clip-path="url(#p86b64ff849)" d="M 208.58946 307.584 
L 210.723144 307.584 
L 210.723144 307.584 
L 208.58946 307.584 
z
" style="fill:#0000ff;"/>
   </g>
   <g id="patch_15">
    <path clip-path="url(#p86b64ff849)" d="M 210.723142 307.584 
L 212.856828 307.584 
L 212.856828 307.584 
L 210.723142 307.584 
z
" style="fill:#0000ff;"/>
   </g>
   <g id="patch_16">
    <path clip-path="url(#p86b64ff849)" d="M 212.856828 307.584 
L 214.990511 307.584 
L 214.990511 307.584 
L 212.856828 307.584 
z
" style="fill:#0000ff;"/>
   </g>
   <g id="patch_17">
    <path clip-path="url(#p86b64ff849)" d="M 214.990507 307.584 
L 217.12419 307.584 
L 217.12419 307.553246 
L 214.990507 307.553246 
z
" style="fill:#0000ff;"/>
   </g>
   <g id="patch_18">
    <path clip-path="url(#p86b64ff849)" d="M 217.124193 307.584 
L 219.257876 307.584 
L 219.257876 307.584 
L 217.124193 307.584 
z
" style="fill:#0000ff;"/>
   </g>
   <g id="patch_19">
    <path clip-path="url(#p86b64ff849)" d="M 219.257872 307.584 
L 221.391555 307.584 
L 221.391555 307.584 
L 219.257872 307.584 
z
" style="fill:#0000ff;"/>
   </g>
   <g id="patch_20">
    <path clip-path="url(#p86b64ff849)" d="M 221.391558 307.584 
L 223.525244 307.584 
L 223.525244 307.568623 
L 221.391558 307.568623 
z
" style="fill:#0000ff;"/>
   </g>
   <g id="patch_21">
    <path clip-path="url(#p86b64ff849)" d="M 223.525244 307.584 
L 225.658926 307.584 
L 225.658926 307.584 
L 223.525244 307.584 
z
" style="fill:#0000ff;"/>
   </g>
   <g id="patch_22">
    <path clip-path="url(#p86b64ff849)" d="M 225.658923 307.584 
L 227.792606 307.584 
L 227.792606 307.553246 
L 225.658923 307.553246 
z
" style="fill:#0000ff;"/>
   </g>
   <g id="patch_23">
    <path clip-path="url(#p86b64ff849)" d="M 227.792609 307.584 
L 229.926291 307.584 
L 229.926291 307.568623 
L 227.792609 307.568623 
z
" style="fill:#0000ff;"/>
   </g>
   <g id="patch_24">
    <path clip-path="url(#p86b64ff849)" d="M 229.926288 307.584 
L 232.059971 307.584 
L 232.059971 307.568623 
L 229.926288 307.568623 
z
" style="fill:#0000ff;"/>
   </g>
   <g id="patch_25">
    <path clip-path="url(#p86b64ff849)" d="M 232.059974 307.584 
L 234.193659 307.584 
L 234.193659 307.568623 
L 232.059974 307.568623 
z
" style="fill:#0000ff;"/>
   </g>
   <g id="patch_26">
    <path clip-path="url(#p86b64ff849)" d="M 234.193659 307.584 
L 236.327342 307.584 
L 236.327342 307.476363 
L 234.193659 307.476363 
z
" style="fill:#0000ff;"/>
   </g>
   <g id="patch_27">
    <path clip-path="url(#p86b64ff849)" d="M 236.327339 307.584 
L 238.461021 307.584 
L 238.461021 307.553246 
L 236.327339 307.553246 
z
" style="fill:#0000ff;"/>
   </g>
   <g id="patch_28">
    <path clip-path="url(#p86b64ff849)" d="M 238.461024 307.584 
L 240.59471 307.584 
L 240.59471 307.476363 
L 238.461024 307.476363 
z
" style="fill:#0000ff;"/>
   </g>
   <g id="patch_29">
    <path clip-path="url(#p86b64ff849)" d="M 240.59471 307.584 
L 242.728389 307.584 
L 242.728389 307.430232 
L 240.59471 307.430232 
z
" style="fill:#0000ff;"/>
   </g>
   <g id="patch_30">
    <path clip-path="url(#p86b64ff849)" d="M 242.728389 307.584 
L 244.862075 307.584 
L 244.862075 307.491739 
L 242.728389 307.491739 
z
" style="fill:#0000ff;"/>
   </g>
   <g id="patch_31">
    <path clip-path="url(#p86b64ff849)" d="M 244.862082 307.584 
L 246.995761 307.584 
L 246.995761 307.553246 
L 244.862082 307.553246 
z
" style="fill:#0000ff;"/>
   </g>
   <g id="patch_32">
    <path clip-path="url(#p86b64ff849)" d="M 246.995754 307.584 
L 249.12944 307.584 
L 249.12944 307.430232 
L 246.995754 307.430232 
z
" style="fill:#0000ff;"/>
   </g>
   <g id="patch_33">
    <path clip-path="url(#p86b64ff849)" d="M 249.12944 307.584 
L 251.263126 307.584 
L 251.263126 307.230334 
L 249.12944 307.230334 
z
" style="fill:#0000ff;"/>
   </g>
   <g id="patch_34">
    <path clip-path="url(#p86b64ff849)" d="M 251.263126 307.584 
L 253.396805 307.584 
L 253.396805 307.430232 
L 251.263126 307.430232 
z
" style="fill:#0000ff;"/>
   </g>
   <g id="patch_35">
    <path clip-path="url(#p86b64ff849)" d="M 253.396805 307.584 
L 255.530491 307.584 
L 255.530491 307.307218 
L 253.396805 307.307218 
z
" style="fill:#0000ff;"/>
   </g>
   <g id="patch_36">
    <path clip-path="url(#p86b64ff849)" d="M 255.530497 307.584 
L 257.664177 307.584 
L 257.664177 307.384102 
L 255.530497 307.384102 
z
" style="fill:#0000ff;"/>
   </g>
   <g id="patch_37">
    <path clip-path="url(#p86b64ff849)" d="M 257.66417 307.584 
L 259.797856 307.584 
L 259.797856 307.15345 
L 257.66417 307.15345 
z
" style="fill:#0000ff;"/>
   </g>
   <g id="patch_38">
    <path clip-path="url(#p86b64ff849)" d="M 259.797856 307.584 
L 261.931542 307.584 
L 261.931542 307.184204 
L 259.797856 307.184204 
z
" style="fill:#0000ff;"/>
   </g>
   <g id="patch_39">
    <path clip-path="url(#p86b64ff849)" d="M 261.931542 307.584 
L 264.065221 307.584 
L 264.065221 306.938175 
L 261.931542 306.938175 
z
" style="fill:#0000ff;"/>
   </g>
   <g id="patch_40">
    <path clip-path="url(#p86b64ff849)" d="M 264.065221 307.584 
L 266.198907 307.584 
L 266.198907 307.06119 
L 264.065221 307.06119 
z
" style="fill:#0000ff;"/>
   </g>
   <g id="patch_41">
    <path clip-path="url(#p86b64ff849)" d="M 266.198913 307.584 
L 268.332592 307.584 
L 268.332592 306.738277 
L 266.198913 306.738277 
z
" style="fill:#0000ff;"/>
   </g>
   <g id="patch_42">
    <path clip-path="url(#p86b64ff849)" d="M 268.332586 307.584 
L 270.466272 307.584 
L 270.466272 306.830538 
L 268.332586 306.830538 
z
" style="fill:#0000ff;"/>
   </g>
   <g id="patch_43">
    <path clip-path="url(#p86b64ff849)" d="M 270.466272 307.584 
L 272.599957 307.584 
L 272.599957 306.169337 
L 270.466272 306.169337 
z
" style="fill:#0000ff;"/>
   </g>
   <g id="patch_44">
    <path clip-path="url(#p86b64ff849)" d="M 272.599957 307.584 
L 274.733637 307.584 
L 274.733637 306.000192 
L 272.599957 306.000192 
z
" style="fill:#0000ff;"/>
   </g>
   <g id="patch_45">
    <path clip-path="url(#p86b64ff849)" d="M 274.733637 307.584 
L 276.867322 307.584 
L 276.867322 306.261597 
L 274.733637 306.261597 
z
" style="fill:#0000ff;"/>
   </g>
   <g id="patch_46">
    <path clip-path="url(#p86b64ff849)" d="M 276.867329 307.584 
L 279.001008 307.584 
L 279.001008 305.092963 
L 276.867329 305.092963 
z
" style="fill:#0000ff;"/>
   </g>
   <g id="patch_47">
    <path clip-path="url(#p86b64ff849)" d="M 279.001002 307.584 
L 281.134687 307.584 
L 281.134687 305.554266 
L 279.001002 305.554266 
z
" style="fill:#0000ff;"/>
   </g>
   <g id="patch_48">
    <path clip-path="url(#p86b64ff849)" d="M 281.134687 307.584 
L 283.268373 307.584 
L 283.268373 303.862821 
L 281.134687 303.862821 
z
" style="fill:#0000ff;"/>
   </g>
   <g id="patch_49">
    <path clip-path="url(#p86b64ff849)" d="M 283.268373 307.584 
L 285.402052 307.584 
L 285.402052 304.77005 
L 283.268373 304.77005 
z
" style="fill:#0000ff;"/>
   </g>
   <g id="patch_50">
    <path clip-path="url(#p86b64ff849)" d="M 285.402052 307.584 
L 287.535738 307.584 
L 287.535738 302.847953 
L 285.402052 302.847953 
z
" style="fill:#0000ff;"/>
   </g>
   <g id="patch_51">
    <path clip-path="url(#p86b64ff849)" d="M 287.535744 307.584 
L 289.669424 307.584 
L 289.669424 303.970458 
L 287.535744 303.970458 
z
" style="fill:#0000ff;"/>
   </g>
   <g id="patch_52">
    <path clip-path="url(#p86b64ff849)" d="M 289.669417 307.584 
L 291.803103 307.584 
L 291.803103 300.941233 
L 289.669417 300.941233 
z
" style="fill:#0000ff;"/>
   </g>
   <g id="patch_53">
    <path clip-path="url(#p86b64ff849)" d="M 291.803097 307.584 
L 293.936776 307.584 
L 293.936776 300.833596 
L 291.803097 300.833596 
z
" style="fill:#0000ff;"/>
   </g>
   <g id="patch_54">
    <path clip-path="url(#p86b64ff849)" d="M 293.936801 307.584 
L 296.070487 307.584 
L 296.070487 302.125245 
L 293.936801 302.125245 
z
" style="fill:#0000ff;"/>
   </g>
   <g id="patch_55">
    <path clip-path="url(#p86b64ff849)" d="M 296.070474 307.584 
L 298.204147 307.584 
L 298.204147 297.927386 
L 296.070474 297.927386 
z
" style="fill:#0000ff;"/>
   </g>
   <g id="patch_56">
    <path clip-path="url(#p86b64ff849)" d="M 298.204147 307.584 
L 300.337833 307.584 
L 300.337833 300.341539 
L 298.204147 300.341539 
z
" style="fill:#0000ff;"/>
   </g>
   <g id="patch_57">
    <path clip-path="url(#p86b64ff849)" d="M 300.337846 307.584 
L 302.471531 307.584 
L 302.471531 295.28258 
L 300.337846 295.28258 
z
" style="fill:#0000ff;"/>
   </g>
   <g id="patch_58">
    <path clip-path="url(#p86b64ff849)" d="M 302.471519 307.584 
L 304.605204 307.584 
L 304.605204 298.603964 
L 302.471519 298.603964 
z
" style="fill:#0000ff;"/>
   </g>
   <g id="patch_59">
    <path clip-path="url(#p86b64ff849)" d="M 304.605217 307.584 
L 306.738903 307.584 
L 306.738903 292.145718 
L 304.605217 292.145718 
z
" style="fill:#0000ff;"/>
   </g>
   <g id="patch_60">
    <path clip-path="url(#p86b64ff849)" d="M 306.73889 307.584 
L 308.872563 307.584 
L 308.872563 296.604983 
L 306.73889 296.604983 
z
" style="fill:#0000ff;"/>
   </g>
   <g id="patch_61">
    <path clip-path="url(#p86b64ff849)" d="M 308.872563 307.584 
L 311.006249 307.584 
L 311.006249 285.902748 
L 308.872563 285.902748 
z
" style="fill:#0000ff;"/>
   </g>
   <g id="patch_62">
    <path clip-path="url(#p86b64ff849)" d="M 311.006261 307.584 
L 313.139947 307.584 
L 313.139947 278.69104 
L 311.006261 278.69104 
z
" style="fill:#0000ff;"/>
   </g>
   <g id="patch_63">
    <path clip-path="url(#p86b64ff849)" d="M 313.139934 307.584 
L 315.27362 307.584 
L 315.27362 223.165507 
L 313.139934 223.165507 
z
" style="fill:#0000ff;"/>
   </g>
   <g id="patch_64">
    <path clip-path="url(#p86b64ff849)" d="M 315.273633 307.584 
L 317.407319 307.584 
L 317.407319 191.504728 
L 315.273633 191.504728 
z
" style="fill:#0000ff;"/>
   </g>
   <g id="patch_65">
    <path clip-path="url(#p86b64ff849)" d="M 317.407306 307.584 
L 319.540979 307.584 
L 319.540979 226.840556 
L 317.407306 226.840556 
z
" style="fill:#0000ff;"/>
   </g>
   <g id="patch_66">
    <path clip-path="url(#p86b64ff849)" d="M 319.540979 307.584 
L 321.674664 307.584 
L 321.674664 209.895351 
L 319.540979 209.895351 
z
" style="fill:#0000ff;"/>
   </g>
   <g id="patch_67">
    <path clip-path="url(#p86b64ff849)" d="M 321.674677 307.584 
L 323.808363 307.584 
L 323.808363 267.942675 
L 321.674677 267.942675 
z
" style="fill:#0000ff;"/>
   </g>
   <g id="patch_68">
    <path clip-path="url(#p86b64ff849)" d="M 323.80835 307.584 
L 325.942036 307.584 
L 325.942036 282.996537 
L 323.80835 282.996537 
z
" style="fill:#0000ff;"/>
   </g>
   <g id="patch_69">
    <path clip-path="url(#p86b64ff849)" d="M 325.942049 307.584 
L 328.075734 307.584 
L 328.075734 294.71364 
L 325.942049 294.71364 
z
" style="fill:#0000ff;"/>
   </g>
   <g id="patch_70">
    <path clip-path="url(#p86b64ff849)" d="M 328.075721 307.584 
L 330.209394 307.584 
L 330.209394 290.746432 
L 328.075721 290.746432 
z
" style="fill:#0000ff;"/>
   </g>
   <g id="patch_71">
    <path clip-path="url(#p86b64ff849)" d="M 330.209394 307.584 
L 332.34308 307.584 
L 332.34308 296.866388 
L 330.209394 296.866388 
z
" style="fill:#0000ff;"/>
   </g>
   <g id="patch_72">
    <path clip-path="url(#p86b64ff849)" d="M 332.343093 307.584 
L 334.476779 307.584 
L 334.476779 292.084211 
L 332.343093 292.084211 
z
" style="fill:#0000ff;"/>
   </g>
   <g id="patch_73">
    <path clip-path="url(#p86b64ff849)" d="M 334.476766 307.584 
L 336.610451 307.584 
L 336.610451 294.482988 
L 334.476766 294.482988 
z
" style="fill:#0000ff;"/>
   </g>
   <g id="patch_74">
    <path clip-path="url(#p86b64ff849)" d="M 336.610464 307.584 
L 338.74415 307.584 
L 338.74415 299.449686 
L 336.610464 299.449686 
z
" style="fill:#0000ff;"/>
   </g>
   <g id="patch_75">
    <path clip-path="url(#p86b64ff849)" d="M 338.744137 307.584 
L 340.87781 307.584 
L 340.87781 296.897142 
L 338.744137 296.897142 
z
" style="fill:#0000ff;"/>
   </g>
   <g id="patch_76">
    <path clip-path="url(#p86b64ff849)" d="M 340.87781 307.584 
L 343.011496 307.584 
L 343.011496 301.710072 
L 340.87781 301.710072 
z
" style="fill:#0000ff;"/>
   </g>
   <g id="patch_77">
    <path clip-path="url(#p86b64ff849)" d="M 343.011509 307.584 
L 345.145194 307.584 
L 345.145194 299.541947 
L 343.011509 299.541947 
z
" style="fill:#0000ff;"/>
   </g>
   <g id="patch_78">
    <path clip-path="url(#p86b64ff849)" d="M 345.145181 307.584 
L 347.278867 307.584 
L 347.278867 302.740316 
L 345.145181 302.740316 
z
" style="fill:#0000ff;"/>
   </g>
   <g id="patch_79">
    <path clip-path="url(#p86b64ff849)" d="M 347.27888 307.584 
L 349.412566 307.584 
L 349.412566 301.848463 
L 347.27888 301.848463 
z
" style="fill:#0000ff;"/>
   </g>
   <g id="patch_80">
    <path clip-path="url(#p86b64ff849)" d="M 349.412553 307.584 
L 351.546226 307.584 
L 351.546226 304.170356 
L 349.412553 304.170356 
z
" style="fill:#0000ff;"/>
   </g>
   <g id="patch_81">
    <path clip-path="url(#p86b64ff849)" d="M 351.546226 307.584 
L 353.679911 307.584 
L 353.679911 303.324633 
L 351.546226 303.324633 
z
" style="fill:#0000ff;"/>
   </g>
   <g id="patch_82">
    <path clip-path="url(#p86b64ff849)" d="M 353.679924 307.584 
L 355.81361 307.584 
L 355.81361 305.277484 
L 353.679924 305.277484 
z
" style="fill:#0000ff;"/>
   </g>
   <g id="patch_83">
    <path clip-path="url(#p86b64ff849)" d="M 355.813597 307.584 
L 357.947283 307.584 
L 357.947283 305.139093 
L 355.813597 305.139093 
z
" style="fill:#0000ff;"/>
   </g>
   <g id="patch_84">
    <path clip-path="url(#p86b64ff849)" d="M 357.947296 307.584 
L 360.080981 307.584 
L 360.080981 305.385121 
L 357.947296 305.385121 
z
" style="fill:#0000ff;"/>
   </g>
   <g id="patch_85">
    <path clip-path="url(#p86b64ff849)" d="M 360.080969 307.584 
L 362.214641 307.584 
L 362.214641 306.67677 
L 360.080969 306.67677 
z
" style="fill:#0000ff;"/>
   </g>
   <g id="patch_86">
    <path clip-path="url(#p86b64ff849)" d="M 362.214641 307.584 
L 364.348327 307.584 
L 364.348327 306.323104 
L 362.214641 306.323104 
z
" style="fill:#0000ff;"/>
   </g>
   <g id="patch_87">
    <path clip-path="url(#p86b64ff849)" d="M 364.34834 307.584 
L 366.482026 307.584 
L 366.482026 307.015059 
L 364.34834 307.015059 
z
" style="fill:#0000ff;"/>
   </g>
   <g id="patch_88">
    <path clip-path="url(#p86b64ff849)" d="M 366.482013 307.584 
L 368.615699 307.584 
L 368.615699 307.030436 
L 366.482013 307.030436 
z
" style="fill:#0000ff;"/>
   </g>
   <g id="patch_89">
    <path clip-path="url(#p86b64ff849)" d="M 368.615711 307.584 
L 370.749397 307.584 
L 370.749397 307.245711 
L 368.615711 307.245711 
z
" style="fill:#0000ff;"/>
   </g>
   <g id="patch_90">
    <path clip-path="url(#p86b64ff849)" d="M 370.749384 307.584 
L 372.883057 307.584 
L 372.883057 307.307218 
L 370.749384 307.307218 
z
" style="fill:#0000ff;"/>
   </g>
   <g id="patch_91">
    <path clip-path="url(#p86b64ff849)" d="M 372.883057 307.584 
L 375.016743 307.584 
L 375.016743 307.445609 
L 372.883057 307.445609 
z
" style="fill:#0000ff;"/>
   </g>
   <g id="patch_92">
    <path clip-path="url(#p86b64ff849)" d="M 375.016756 307.584 
L 377.150441 307.584 
L 377.150441 307.368725 
L 375.016756 307.368725 
z
" style="fill:#0000ff;"/>
   </g>
   <g id="patch_93">
    <path clip-path="url(#p86b64ff849)" d="M 377.150429 307.584 
L 379.284114 307.584 
L 379.284114 307.445609 
L 377.150429 307.445609 
z
" style="fill:#0000ff;"/>
   </g>
   <g id="patch_94">
    <path clip-path="url(#p86b64ff849)" d="M 379.284127 307.584 
L 381.417813 307.584 
L 381.417813 307.445609 
L 379.284127 307.445609 
z
" style="fill:#0000ff;"/>
   </g>
   <g id="patch_95">
    <path clip-path="url(#p86b64ff849)" d="M 381.4178 307.584 
L 383.551473 307.584 
L 383.551473 307.491739 
L 381.4178 307.491739 
z
" style="fill:#0000ff;"/>
   </g>
   <g id="patch_96">
    <path clip-path="url(#p86b64ff849)" d="M 383.551473 307.584 
L 385.685159 307.584 
L 385.685159 307.553246 
L 383.551473 307.553246 
z
" style="fill:#0000ff;"/>
   </g>
   <g id="patch_97">
    <path clip-path="url(#p86b64ff849)" d="M 385.685171 307.584 
L 387.818857 307.584 
L 387.818857 307.553246 
L 385.685171 307.553246 
z
" style="fill:#0000ff;"/>
   </g>
   <g id="patch_98">
    <path clip-path="url(#p86b64ff849)" d="M 387.818844 307.584 
L 389.95253 307.584 
L 389.95253 307.568623 
L 387.818844 307.568623 
z
" style="fill:#0000ff;"/>
   </g>
   <g id="patch_99">
    <path clip-path="url(#p86b64ff849)" d="M 389.952543 307.584 
L 392.086228 307.584 
L 392.086228 307.553246 
L 389.952543 307.553246 
z
" style="fill:#0000ff;"/>
   </g>
   <g id="patch_100">
    <path clip-path="url(#p86b64ff849)" d="M 392.086216 307.584 
L 394.219889 307.584 
L 394.219889 307.584 
L 392.086216 307.584 
z
" style="fill:#0000ff;"/>
   </g>
   <g id="patch_101">
    <path clip-path="url(#p86b64ff849)" d="M 394.219889 307.584 
L 396.353574 307.584 
L 396.353574 307.584 
L 394.219889 307.584 
z
" style="fill:#0000ff;"/>
   </g>
   <g id="patch_102">
    <path clip-path="url(#p86b64ff849)" d="M 396.353587 307.584 
L 398.487273 307.584 
L 398.487273 307.568623 
L 396.353587 307.568623 
z
" style="fill:#0000ff;"/>
   </g>
   <g id="patch_103">
    <path clip-path="url(#p86b64ff849)" d="M 73.832727 307.584 
L 75.614984 307.584 
L 75.614984 307.568623 
L 73.832727 307.568623 
z
" style="fill:#808080;"/>
   </g>
   <g id="patch_104">
    <path clip-path="url(#p86b64ff849)" d="M 75.614984 307.584 
L 77.397229 307.584 
L 77.397229 307.568623 
L 75.614984 307.568623 
z
" style="fill:#808080;"/>
   </g>
   <g id="patch_105">
    <path clip-path="url(#p86b64ff849)" d="M 77.397229 307.584 
L 79.179486 307.584 
L 79.179486 307.584 
L 77.397229 307.584 
z
" style="fill:#808080;"/>
   </g>
   <g id="patch_106">
    <path clip-path="url(#p86b64ff849)" d="M 79.179486 307.584 
L 80.961743 307.584 
L 80.961743 307.584 
L 79.179486 307.584 
z
" style="fill:#808080;"/>
   </g>
   <g id="patch_107">
    <path clip-path="url(#p86b64ff849)" d="M 80.961736 307.584 
L 82.743993 307.584 
L 82.743993 307.584 
L 80.961736 307.584 
z
" style="fill:#808080;"/>
   </g>
   <g id="patch_108">
    <path clip-path="url(#p86b64ff849)" d="M 82.743987 307.584 
L 84.526244 307.584 
L 84.526244 307.584 
L 82.743987 307.584 
z
" style="fill:#808080;"/>
   </g>
   <g id="patch_109">
    <path clip-path="url(#p86b64ff849)" d="M 84.526244 307.584 
L 86.308501 307.584 
L 86.308501 307.584 
L 84.526244 307.584 
z
" style="fill:#808080;"/>
   </g>
   <g id="patch_110">
    <path clip-path="url(#p86b64ff849)" d="M 86.308501 307.584 
L 88.090758 307.584 
L 88.090758 307.568623 
L 86.308501 307.568623 
z
" style="fill:#808080;"/>
   </g>
   <g id="patch_111">
    <path clip-path="url(#p86b64ff849)" d="M 88.090745 307.584 
L 89.873003 307.584 
L 89.873003 307.584 
L 88.090745 307.584 
z
" style="fill:#808080;"/>
   </g>
   <g id="patch_112">
    <path clip-path="url(#p86b64ff849)" d="M 89.873003 307.584 
L 91.65526 307.584 
L 91.65526 307.584 
L 89.873003 307.584 
z
" style="fill:#808080;"/>
   </g>
   <g id="patch_113">
    <path clip-path="url(#p86b64ff849)" d="M 91.65526 307.584 
L 93.437517 307.584 
L 93.437517 307.584 
L 91.65526 307.584 
z
" style="fill:#808080;"/>
   </g>
   <g id="patch_114">
    <path clip-path="url(#p86b64ff849)" d="M 93.437504 307.584 
L 95.219761 307.584 
L 95.219761 307.584 
L 93.437504 307.584 
z
" style="fill:#808080;"/>
   </g>
   <g id="patch_115">
    <path clip-path="url(#p86b64ff849)" d="M 95.219761 307.584 
L 97.002018 307.584 
L 97.002018 307.584 
L 95.219761 307.584 
z
" style="fill:#808080;"/>
   </g>
   <g id="patch_116">
    <path clip-path="url(#p86b64ff849)" d="M 97.002018 307.584 
L 98.784275 307.584 
L 98.784275 307.584 
L 97.002018 307.584 
z
" style="fill:#808080;"/>
   </g>
   <g id="patch_117">
    <path clip-path="url(#p86b64ff849)" d="M 98.784262 307.584 
L 100.566519 307.584 
L 100.566519 307.584 
L 98.784262 307.584 
z
" style="fill:#808080;"/>
   </g>
   <g id="patch_118">
    <path clip-path="url(#p86b64ff849)" d="M 100.566519 307.584 
L 102.348776 307.584 
L 102.348776 307.584 
L 100.566519 307.584 
z
" style="fill:#808080;"/>
   </g>
   <g id="patch_119">
    <path clip-path="url(#p86b64ff849)" d="M 102.348776 307.584 
L 104.131033 307.584 
L 104.131033 307.584 
L 102.348776 307.584 
z
" style="fill:#808080;"/>
   </g>
   <g id="patch_120">
    <path clip-path="url(#p86b64ff849)" d="M 104.131021 307.584 
L 105.913278 307.584 
L 105.913278 307.584 
L 104.131021 307.584 
z
" style="fill:#808080;"/>
   </g>
   <g id="patch_121">
    <path clip-path="url(#p86b64ff849)" d="M 105.913278 307.584 
L 107.695535 307.584 
L 107.695535 307.584 
L 105.913278 307.584 
z
" style="fill:#808080;"/>
   </g>
   <g id="patch_122">
    <path clip-path="url(#p86b64ff849)" d="M 107.695535 307.584 
L 109.477792 307.584 
L 109.477792 307.584 
L 107.695535 307.584 
z
" style="fill:#808080;"/>
   </g>
   <g id="patch_123">
    <path clip-path="url(#p86b64ff849)" d="M 109.477786 307.584 
L 111.260043 307.584 
L 111.260043 307.584 
L 109.477786 307.584 
z
" style="fill:#808080;"/>
   </g>
   <g id="patch_124">
    <path clip-path="url(#p86b64ff849)" d="M 111.260036 307.584 
L 113.042293 307.584 
L 113.042293 307.584 
L 111.260036 307.584 
z
" style="fill:#808080;"/>
   </g>
   <g id="patch_125">
    <path clip-path="url(#p86b64ff849)" d="M 113.042293 307.584 
L 114.82455 307.584 
L 114.82455 307.584 
L 113.042293 307.584 
z
" style="fill:#808080;"/>
   </g>
   <g id="patch_126">
    <path clip-path="url(#p86b64ff849)" d="M 114.824544 307.584 
L 116.606801 307.584 
L 116.606801 307.584 
L 114.824544 307.584 
z
" style="fill:#808080;"/>
   </g>
   <g id="patch_127">
    <path clip-path="url(#p86b64ff849)" d="M 116.606795 307.584 
L 118.389052 307.584 
L 118.389052 307.584 
L 116.606795 307.584 
z
" style="fill:#808080;"/>
   </g>
   <g id="patch_128">
    <path clip-path="url(#p86b64ff849)" d="M 118.389052 307.584 
L 120.171309 307.584 
L 120.171309 307.584 
L 118.389052 307.584 
z
" style="fill:#808080;"/>
   </g>
   <g id="patch_129">
    <path clip-path="url(#p86b64ff849)" d="M 120.171302 307.584 
L 121.953559 307.584 
L 121.953559 307.584 
L 120.171302 307.584 
z
" style="fill:#808080;"/>
   </g>
   <g id="patch_130">
    <path clip-path="url(#p86b64ff849)" d="M 121.953553 307.584 
L 123.73581 307.584 
L 123.73581 307.584 
L 121.953553 307.584 
z
" style="fill:#808080;"/>
   </g>
   <g id="patch_131">
    <path clip-path="url(#p86b64ff849)" d="M 123.73581 307.584 
L 125.518067 307.584 
L 125.518067 307.584 
L 123.73581 307.584 
z
" style="fill:#808080;"/>
   </g>
   <g id="patch_132">
    <path clip-path="url(#p86b64ff849)" d="M 125.518061 307.584 
L 127.300318 307.584 
L 127.300318 307.584 
L 125.518061 307.584 
z
" style="fill:#808080;"/>
   </g>
   <g id="patch_133">
    <path clip-path="url(#p86b64ff849)" d="M 127.300311 307.584 
L 129.082569 307.584 
L 129.082569 306.415365 
L 127.300311 306.415365 
z
" style="fill:#808080;"/>
   </g>
   <g id="patch_134">
    <path clip-path="url(#p86b64ff849)" d="M 129.082569 307.584 
L 130.864826 307.584 
L 130.864826 307.276465 
L 129.082569 307.276465 
z
" style="fill:#808080;"/>
   </g>
   <g id="patch_135">
    <path clip-path="url(#p86b64ff849)" d="M 130.864826 307.584 
L 132.647083 307.584 
L 132.647083 307.491739 
L 130.864826 307.491739 
z
" style="fill:#808080;"/>
   </g>
   <g id="patch_136">
    <path clip-path="url(#p86b64ff849)" d="M 132.647073 307.584 
L 134.42933 307.584 
L 134.42933 307.584 
L 132.647073 307.584 
z
" style="fill:#808080;"/>
   </g>
   <g id="patch_137">
    <path clip-path="url(#p86b64ff849)" d="M 134.429327 307.584 
L 136.211584 307.584 
L 136.211584 307.584 
L 134.429327 307.584 
z
" style="fill:#808080;"/>
   </g>
   <g id="patch_138">
    <path clip-path="url(#p86b64ff849)" d="M 136.211578 307.584 
L 137.993835 307.584 
L 137.993835 307.584 
L 136.211578 307.584 
z
" style="fill:#808080;"/>
   </g>
   <g id="patch_139">
    <path clip-path="url(#p86b64ff849)" d="M 137.993835 307.584 
L 139.776092 307.584 
L 139.776092 307.584 
L 137.993835 307.584 
z
" style="fill:#808080;"/>
   </g>
   <g id="patch_140">
    <path clip-path="url(#p86b64ff849)" d="M 139.776085 307.584 
L 141.558342 307.584 
L 141.558342 305.231353 
L 139.776085 305.231353 
z
" style="fill:#808080;"/>
   </g>
   <g id="patch_141">
    <path clip-path="url(#p86b64ff849)" d="M 141.558336 307.584 
L 143.340593 307.584 
L 143.340593 307.184204 
L 141.558336 307.184204 
z
" style="fill:#808080;"/>
   </g>
   <g id="patch_142">
    <path clip-path="url(#p86b64ff849)" d="M 143.340593 307.584 
L 145.12285 307.584 
L 145.12285 305.831048 
L 143.340593 305.831048 
z
" style="fill:#808080;"/>
   </g>
   <g id="patch_143">
    <path clip-path="url(#p86b64ff849)" d="M 145.122844 307.584 
L 146.905101 307.584 
L 146.905101 307.584 
L 145.122844 307.584 
z
" style="fill:#808080;"/>
   </g>
   <g id="patch_144">
    <path clip-path="url(#p86b64ff849)" d="M 146.905098 307.584 
L 148.687355 307.584 
L 148.687355 307.584 
L 146.905098 307.584 
z
" style="fill:#808080;"/>
   </g>
   <g id="patch_145">
    <path clip-path="url(#p86b64ff849)" d="M 148.687351 307.584 
L 150.469609 307.584 
L 150.469609 307.584 
L 148.687351 307.584 
z
" style="fill:#808080;"/>
   </g>
   <g id="patch_146">
    <path clip-path="url(#p86b64ff849)" d="M 150.469602 307.584 
L 152.251859 307.584 
L 152.251859 307.584 
L 150.469602 307.584 
z
" style="fill:#808080;"/>
   </g>
   <g id="patch_147">
    <path clip-path="url(#p86b64ff849)" d="M 152.251856 307.584 
L 154.034113 307.584 
L 154.034113 307.584 
L 152.251856 307.584 
z
" style="fill:#808080;"/>
   </g>
   <g id="patch_148">
    <path clip-path="url(#p86b64ff849)" d="M 154.03411 307.584 
L 155.816367 307.584 
L 155.816367 307.584 
L 154.03411 307.584 
z
" style="fill:#808080;"/>
   </g>
   <g id="patch_149">
    <path clip-path="url(#p86b64ff849)" d="M 155.816361 307.584 
L 157.598618 307.584 
L 157.598618 307.584 
L 155.816361 307.584 
z
" style="fill:#808080;"/>
   </g>
   <g id="patch_150">
    <path clip-path="url(#p86b64ff849)" d="M 157.598614 307.584 
L 159.380872 307.584 
L 159.380872 307.584 
L 157.598614 307.584 
z
" style="fill:#808080;"/>
   </g>
   <g id="patch_151">
    <path clip-path="url(#p86b64ff849)" d="M 159.380868 307.584 
L 161.163125 307.584 
L 161.163125 307.584 
L 159.380868 307.584 
z
" style="fill:#808080;"/>
   </g>
   <g id="patch_152">
    <path clip-path="url(#p86b64ff849)" d="M 161.163122 307.584 
L 162.945379 307.584 
L 162.945379 307.584 
L 161.163122 307.584 
z
" style="fill:#808080;"/>
   </g>
   <g id="patch_153">
    <path clip-path="url(#p86b64ff849)" d="M 162.945373 307.584 
L 164.72763 307.584 
L 164.72763 307.584 
L 162.945373 307.584 
z
" style="fill:#808080;"/>
   </g>
   <g id="patch_154">
    <path clip-path="url(#p86b64ff849)" d="M 164.727627 307.584 
L 166.509884 307.584 
L 166.509884 307.584 
L 164.727627 307.584 
z
" style="fill:#808080;"/>
   </g>
   <g id="patch_155">
    <path clip-path="url(#p86b64ff849)" d="M 166.509881 307.584 
L 168.292138 307.584 
L 168.292138 307.584 
L 166.509881 307.584 
z
" style="fill:#808080;"/>
   </g>
   <g id="patch_156">
    <path clip-path="url(#p86b64ff849)" d="M 168.292133 307.584 
L 170.07439 307.584 
L 170.07439 307.584 
L 168.292133 307.584 
z
" style="fill:#808080;"/>
   </g>
   <g id="patch_157">
    <path clip-path="url(#p86b64ff849)" d="M 170.074385 307.584 
L 171.856642 307.584 
L 171.856642 307.584 
L 170.074385 307.584 
z
" style="fill:#808080;"/>
   </g>
   <g id="patch_158">
    <path clip-path="url(#p86b64ff849)" d="M 171.856639 307.584 
L 173.638896 307.584 
L 173.638896 307.584 
L 171.856639 307.584 
z
" style="fill:#808080;"/>
   </g>
   <g id="patch_159">
    <path clip-path="url(#p86b64ff849)" d="M 173.638891 307.584 
L 175.421148 307.584 
L 175.421148 307.584 
L 173.638891 307.584 
z
" style="fill:#808080;"/>
   </g>
   <g id="patch_160">
    <path clip-path="url(#p86b64ff849)" d="M 175.421145 307.584 
L 177.203402 307.584 
L 177.203402 307.584 
L 175.421145 307.584 
z
" style="fill:#808080;"/>
   </g>
   <g id="patch_161">
    <path clip-path="url(#p86b64ff849)" d="M 177.203397 307.584 
L 178.985655 307.584 
L 178.985655 307.584 
L 177.203397 307.584 
z
" style="fill:#808080;"/>
   </g>
   <g id="patch_162">
    <path clip-path="url(#p86b64ff849)" d="M 178.985651 307.584 
L 180.767908 307.584 
L 180.767908 307.584 
L 178.985651 307.584 
z
" style="fill:#808080;"/>
   </g>
   <g id="patch_163">
    <path clip-path="url(#p86b64ff849)" d="M 180.767904 307.584 
L 182.550161 307.584 
L 182.550161 54.144 
L 180.767904 54.144 
z
" style="fill:#808080;"/>
   </g>
   <g id="patch_164">
    <path clip-path="url(#p86b64ff849)" d="M 182.550157 307.584 
L 184.332414 307.584 
L 184.332414 167.024903 
L 182.550157 167.024903 
z
" style="fill:#808080;"/>
   </g>
   <g id="patch_165">
    <path clip-path="url(#p86b64ff849)" d="M 184.33241 307.584 
L 186.114667 307.584 
L 186.114667 259.408565 
L 184.33241 259.408565 
z
" style="fill:#808080;"/>
   </g>
   <g id="patch_166">
    <path clip-path="url(#p86b64ff849)" d="M 186.114663 307.584 
L 187.89692 307.584 
L 187.89692 307.584 
L 186.114663 307.584 
z
" style="fill:#808080;"/>
   </g>
   <g id="patch_167">
    <path clip-path="url(#p86b64ff849)" d="M 187.896915 307.584 
L 189.679173 307.584 
L 189.679173 307.584 
L 187.896915 307.584 
z
" style="fill:#808080;"/>
   </g>
   <g id="patch_168">
    <path clip-path="url(#p86b64ff849)" d="M 189.679169 307.584 
L 191.461426 307.584 
L 191.461426 307.584 
L 189.679169 307.584 
z
" style="fill:#808080;"/>
   </g>
   <g id="patch_169">
    <path clip-path="url(#p86b64ff849)" d="M 191.461422 307.584 
L 193.243679 307.584 
L 193.243679 307.584 
L 191.461422 307.584 
z
" style="fill:#808080;"/>
   </g>
   <g id="patch_170">
    <path clip-path="url(#p86b64ff849)" d="M 193.243674 307.584 
L 195.025931 307.584 
L 195.025931 118.342034 
L 193.243674 118.342034 
z
" style="fill:#808080;"/>
   </g>
   <g id="patch_171">
    <path clip-path="url(#p86b64ff849)" d="M 195.025928 307.584 
L 196.808185 307.584 
L 196.808185 301.156508 
L 195.025928 301.156508 
z
" style="fill:#808080;"/>
   </g>
   <g id="patch_172">
    <path clip-path="url(#p86b64ff849)" d="M 196.80818 307.584 
L 198.590437 307.584 
L 198.590437 283.734622 
L 196.80818 283.734622 
z
" style="fill:#808080;"/>
   </g>
   <g id="patch_173">
    <path clip-path="url(#p86b64ff849)" d="M 198.590434 307.584 
L 200.372691 307.584 
L 200.372691 307.584 
L 198.590434 307.584 
z
" style="fill:#808080;"/>
   </g>
   <g id="patch_174">
    <path clip-path="url(#p86b64ff849)" d="M 200.372687 307.584 
L 202.154944 307.584 
L 202.154944 307.584 
L 200.372687 307.584 
z
" style="fill:#808080;"/>
   </g>
   <g id="patch_175">
    <path clip-path="url(#p86b64ff849)" d="M 202.154939 307.584 
L 203.937196 307.584 
L 203.937196 307.584 
L 202.154939 307.584 
z
" style="fill:#808080;"/>
   </g>
   <g id="patch_176">
    <path clip-path="url(#p86b64ff849)" d="M 203.937193 307.584 
L 205.71945 307.584 
L 205.71945 307.584 
L 203.937193 307.584 
z
" style="fill:#808080;"/>
   </g>
   <g id="patch_177">
    <path clip-path="url(#p86b64ff849)" d="M 205.719447 307.584 
L 207.501704 307.584 
L 207.501704 307.584 
L 205.719447 307.584 
z
" style="fill:#808080;"/>
   </g>
   <g id="patch_178">
    <path clip-path="url(#p86b64ff849)" d="M 207.501697 307.584 
L 209.283954 307.584 
L 209.283954 307.584 
L 207.501697 307.584 
z
" style="fill:#808080;"/>
   </g>
   <g id="patch_179">
    <path clip-path="url(#p86b64ff849)" d="M 209.283951 307.584 
L 211.066208 307.584 
L 211.066208 307.584 
L 209.283951 307.584 
z
" style="fill:#808080;"/>
   </g>
   <g id="patch_180">
    <path clip-path="url(#p86b64ff849)" d="M 211.066205 307.584 
L 212.848462 307.584 
L 212.848462 307.584 
L 211.066205 307.584 
z
" style="fill:#808080;"/>
   </g>
   <g id="patch_181">
    <path clip-path="url(#p86b64ff849)" d="M 212.848459 307.584 
L 214.630716 307.584 
L 214.630716 307.584 
L 212.848459 307.584 
z
" style="fill:#808080;"/>
   </g>
   <g id="patch_182">
    <path clip-path="url(#p86b64ff849)" d="M 214.63071 307.584 
L 216.412967 307.584 
L 216.412967 307.584 
L 214.63071 307.584 
z
" style="fill:#808080;"/>
   </g>
   <g id="patch_183">
    <path clip-path="url(#p86b64ff849)" d="M 216.412963 307.584 
L 218.19522 307.584 
L 218.19522 307.584 
L 216.412963 307.584 
z
" style="fill:#808080;"/>
   </g>
   <g id="patch_184">
    <path clip-path="url(#p86b64ff849)" d="M 218.195217 307.584 
L 219.977474 307.584 
L 219.977474 307.584 
L 218.195217 307.584 
z
" style="fill:#808080;"/>
   </g>
   <g id="patch_185">
    <path clip-path="url(#p86b64ff849)" d="M 219.977468 307.584 
L 221.759725 307.584 
L 221.759725 307.584 
L 219.977468 307.584 
z
" style="fill:#808080;"/>
   </g>
   <g id="patch_186">
    <path clip-path="url(#p86b64ff849)" d="M 221.759722 307.584 
L 223.541979 307.584 
L 223.541979 307.584 
L 221.759722 307.584 
z
" style="fill:#808080;"/>
   </g>
   <g id="patch_187">
    <path clip-path="url(#p86b64ff849)" d="M 223.541976 307.584 
L 225.324233 307.584 
L 225.324233 307.584 
L 223.541976 307.584 
z
" style="fill:#808080;"/>
   </g>
   <g id="patch_188">
    <path clip-path="url(#p86b64ff849)" d="M 225.324226 307.584 
L 227.106483 307.584 
L 227.106483 307.584 
L 225.324226 307.584 
z
" style="fill:#808080;"/>
   </g>
   <g id="patch_189">
    <path clip-path="url(#p86b64ff849)" d="M 227.106483 307.584 
L 228.888741 307.584 
L 228.888741 307.584 
L 227.106483 307.584 
z
" style="fill:#808080;"/>
   </g>
   <g id="patch_190">
    <path clip-path="url(#p86b64ff849)" d="M 228.888734 307.584 
L 230.670991 307.584 
L 230.670991 307.584 
L 228.888734 307.584 
z
" style="fill:#808080;"/>
   </g>
   <g id="patch_191">
    <path clip-path="url(#p86b64ff849)" d="M 230.670985 307.584 
L 232.453242 307.584 
L 232.453242 307.584 
L 230.670985 307.584 
z
" style="fill:#808080;"/>
   </g>
   <g id="patch_192">
    <path clip-path="url(#p86b64ff849)" d="M 232.453242 307.584 
L 234.235499 307.584 
L 234.235499 307.584 
L 232.453242 307.584 
z
" style="fill:#808080;"/>
   </g>
   <g id="patch_193">
    <path clip-path="url(#p86b64ff849)" d="M 234.235493 307.584 
L 236.01775 307.584 
L 236.01775 237.665806 
L 234.235493 237.665806 
z
" style="fill:#808080;"/>
   </g>
   <g id="patch_194">
    <path clip-path="url(#p86b64ff849)" d="M 236.017746 307.584 
L 237.800003 307.584 
L 237.800003 307.584 
L 236.017746 307.584 
z
" style="fill:#808080;"/>
   </g>
   <g id="patch_195">
    <path clip-path="url(#p86b64ff849)" d="M 237.799994 307.584 
L 239.582251 307.584 
L 239.582251 307.368725 
L 237.799994 307.368725 
z
" style="fill:#808080;"/>
   </g>
   <g id="patch_196">
    <path clip-path="url(#p86b64ff849)" d="M 239.582251 307.584 
L 241.364508 307.584 
L 241.364508 307.584 
L 239.582251 307.584 
z
" style="fill:#808080;"/>
   </g>
   <g id="patch_197">
    <path clip-path="url(#p86b64ff849)" d="M 241.364508 307.584 
L 243.146765 307.584 
L 243.146765 307.584 
L 241.364508 307.584 
z
" style="fill:#808080;"/>
   </g>
   <g id="patch_198">
    <path clip-path="url(#p86b64ff849)" d="M 243.146759 307.584 
L 244.929016 307.584 
L 244.929016 307.584 
L 243.146759 307.584 
z
" style="fill:#808080;"/>
   </g>
   <g id="patch_199">
    <path clip-path="url(#p86b64ff849)" d="M 244.929009 307.584 
L 246.711266 307.584 
L 246.711266 307.584 
L 244.929009 307.584 
z
" style="fill:#808080;"/>
   </g>
   <g id="patch_200">
    <path clip-path="url(#p86b64ff849)" d="M 246.711266 307.584 
L 248.493524 307.584 
L 248.493524 307.460986 
L 246.711266 307.460986 
z
" style="fill:#808080;"/>
   </g>
   <g id="patch_201">
    <path clip-path="url(#p86b64ff849)" d="M 248.493517 307.584 
L 250.275774 307.584 
L 250.275774 307.584 
L 248.493517 307.584 
z
" style="fill:#808080;"/>
   </g>
   <g id="patch_202">
    <path clip-path="url(#p86b64ff849)" d="M 250.275768 307.584 
L 252.058025 307.584 
L 252.058025 307.568623 
L 250.275768 307.568623 
z
" style="fill:#808080;"/>
   </g>
   <g id="matplotlib.axis_1">
    <g id="xtick_1">
     <g id="line2d_1">
      <defs>
       <path d="M 0 0 
L 0 3.5 
" id="m1757855570" style="stroke:#000000;stroke-width:0.8;"/>
      </defs>
      <g>
       <use style="stroke:#000000;stroke-width:0.8;" x="59.608173" xlink:href="#m1757855570" y="307.584"/>
      </g>
     </g>
     <g id="text_1">
      <!-- −150 -->
      <defs>
       <path d="M 10.59375 35.5 
L 73.1875 35.5 
L 73.1875 27.203125 
L 10.59375 27.203125 
z
" id="DejaVuSans-8722"/>
       <path d="M 12.40625 8.296875 
L 28.515625 8.296875 
L 28.515625 63.921875 
L 10.984375 60.40625 
L 10.984375 69.390625 
L 28.421875 72.90625 
L 38.28125 72.90625 
L 38.28125 8.296875 
L 54.390625 8.296875 
L 54.390625 0 
L 12.40625 0 
z
" id="DejaVuSans-49"/>
       <path d="M 10.796875 72.90625 
L 49.515625 72.90625 
L 49.515625 64.59375 
L 19.828125 64.59375 
L 19.828125 46.734375 
Q 21.96875 47.46875 24.109375 47.828125 
Q 26.265625 48.1875 28.421875 48.1875 
Q 40.625 48.1875 47.75 41.5 
Q 54.890625 34.8125 54.890625 23.390625 
Q 54.890625 11.625 47.5625 5.09375 
Q 40.234375 -1.421875 26.90625 -1.421875 
Q 22.3125 -1.421875 17.546875 -0.640625 
Q 12.796875 0.140625 7.71875 1.703125 
L 7.71875 11.625 
Q 12.109375 9.234375 16.796875 8.0625 
Q 21.484375 6.890625 26.703125 6.890625 
Q 35.15625 6.890625 40.078125 11.328125 
Q 45.015625 15.765625 45.015625 23.390625 
Q 45.015625 31 40.078125 35.4375 
Q 35.15625 39.890625 26.703125 39.890625 
Q 22.75 39.890625 18.8125 39.015625 
Q 14.890625 38.140625 10.796875 36.28125 
z
" id="DejaVuSans-53"/>
       <path d="M 31.78125 66.40625 
Q 24.171875 66.40625 20.328125 58.90625 
Q 16.5 51.421875 16.5 36.375 
Q 16.5 21.390625 20.328125 13.890625 
Q 24.171875 6.390625 31.78125 6.390625 
Q 39.453125 6.390625 43.28125 13.890625 
Q 47.125 21.390625 47.125 36.375 
Q 47.125 51.421875 43.28125 58.90625 
Q 39.453125 66.40625 31.78125 66.40625 
z
M 31.78125 74.21875 
Q 44.046875 74.21875 50.515625 64.515625 
Q 56.984375 54.828125 56.984375 36.375 
Q 56.984375 17.96875 50.515625 8.265625 
Q 44.046875 -1.421875 31.78125 -1.421875 
Q 19.53125 -1.421875 13.0625 8.265625 
Q 6.59375 17.96875 6.59375 36.375 
Q 6.59375 54.828125 13.0625 64.515625 
Q 19.53125 74.21875 31.78125 74.21875 
z
" id="DejaVuSans-48"/>
      </defs>
      <g transform="translate(45.874579 322.182437)scale(0.1 -0.1)">
       <use xlink:href="#DejaVuSans-8722"/>
       <use x="83.789062" xlink:href="#DejaVuSans-49"/>
       <use x="147.412109" xlink:href="#DejaVuSans-53"/>
       <use x="211.035156" xlink:href="#DejaVuSans-48"/>
      </g>
     </g>
    </g>
    <g id="xtick_2">
     <g id="line2d_2">
      <g>
       <use style="stroke:#000000;stroke-width:0.8;" x="101.445097" xlink:href="#m1757855570" y="307.584"/>
      </g>
     </g>
     <g id="text_2">
      <!-- −100 -->
      <g transform="translate(87.711504 322.182437)scale(0.1 -0.1)">
       <use xlink:href="#DejaVuSans-8722"/>
       <use x="83.789062" xlink:href="#DejaVuSans-49"/>
       <use x="147.412109" xlink:href="#DejaVuSans-48"/>
       <use x="211.035156" xlink:href="#DejaVuSans-48"/>
      </g>
     </g>
    </g>
    <g id="xtick_3">
     <g id="line2d_3">
      <g>
       <use style="stroke:#000000;stroke-width:0.8;" x="143.282022" xlink:href="#m1757855570" y="307.584"/>
      </g>
     </g>
     <g id="text_3">
      <!-- −50 -->
      <g transform="translate(132.729678 322.182437)scale(0.1 -0.1)">
       <use xlink:href="#DejaVuSans-8722"/>
       <use x="83.789062" xlink:href="#DejaVuSans-53"/>
       <use x="147.412109" xlink:href="#DejaVuSans-48"/>
      </g>
     </g>
    </g>
    <g id="xtick_4">
     <g id="line2d_4">
      <g>
       <use style="stroke:#000000;stroke-width:0.8;" x="185.118946" xlink:href="#m1757855570" y="307.584"/>
      </g>
     </g>
     <g id="text_4">
      <!-- 0 -->
      <g transform="translate(181.937696 322.182437)scale(0.1 -0.1)">
       <use xlink:href="#DejaVuSans-48"/>
      </g>
     </g>
    </g>
    <g id="xtick_5">
     <g id="line2d_5">
      <g>
       <use style="stroke:#000000;stroke-width:0.8;" x="226.95587" xlink:href="#m1757855570" y="307.584"/>
      </g>
     </g>
     <g id="text_5">
      <!-- 50 -->
      <g transform="translate(220.59337 322.182437)scale(0.1 -0.1)">
       <use xlink:href="#DejaVuSans-53"/>
       <use x="63.623047" xlink:href="#DejaVuSans-48"/>
      </g>
     </g>
    </g>
    <g id="xtick_6">
     <g id="line2d_6">
      <g>
       <use style="stroke:#000000;stroke-width:0.8;" x="268.792795" xlink:href="#m1757855570" y="307.584"/>
      </g>
     </g>
     <g id="text_6">
      <!-- 100 -->
      <g transform="translate(259.249045 322.182437)scale(0.1 -0.1)">
       <use xlink:href="#DejaVuSans-49"/>
       <use x="63.623047" xlink:href="#DejaVuSans-48"/>
       <use x="127.246094" xlink:href="#DejaVuSans-48"/>
      </g>
     </g>
    </g>
    <g id="xtick_7">
     <g id="line2d_7">
      <g>
       <use style="stroke:#000000;stroke-width:0.8;" x="310.629719" xlink:href="#m1757855570" y="307.584"/>
      </g>
     </g>
     <g id="text_7">
      <!-- 150 -->
      <g transform="translate(301.085969 322.182437)scale(0.1 -0.1)">
       <use xlink:href="#DejaVuSans-49"/>
       <use x="63.623047" xlink:href="#DejaVuSans-53"/>
       <use x="127.246094" xlink:href="#DejaVuSans-48"/>
      </g>
     </g>
    </g>
    <g id="xtick_8">
     <g id="line2d_8">
      <g>
       <use style="stroke:#000000;stroke-width:0.8;" x="352.466643" xlink:href="#m1757855570" y="307.584"/>
      </g>
     </g>
     <g id="text_8">
      <!-- 200 -->
      <defs>
       <path d="M 19.1875 8.296875 
L 53.609375 8.296875 
L 53.609375 0 
L 7.328125 0 
L 7.328125 8.296875 
Q 12.9375 14.109375 22.625 23.890625 
Q 32.328125 33.6875 34.8125 36.53125 
Q 39.546875 41.84375 41.421875 45.53125 
Q 43.3125 49.21875 43.3125 52.78125 
Q 43.3125 58.59375 39.234375 62.25 
Q 35.15625 65.921875 28.609375 65.921875 
Q 23.96875 65.921875 18.8125 64.3125 
Q 13.671875 62.703125 7.8125 59.421875 
L 7.8125 69.390625 
Q 13.765625 71.78125 18.9375 73 
Q 24.125 74.21875 28.421875 74.21875 
Q 39.75 74.21875 46.484375 68.546875 
Q 53.21875 62.890625 53.21875 53.421875 
Q 53.21875 48.921875 51.53125 44.890625 
Q 49.859375 40.875 45.40625 35.40625 
Q 44.1875 33.984375 37.640625 27.21875 
Q 31.109375 20.453125 19.1875 8.296875 
z
" id="DejaVuSans-50"/>
      </defs>
      <g transform="translate(342.922893 322.182437)scale(0.1 -0.1)">
       <use xlink:href="#DejaVuSans-50"/>
       <use x="63.623047" xlink:href="#DejaVuSans-48"/>
       <use x="127.246094" xlink:href="#DejaVuSans-48"/>
      </g>
     </g>
    </g>
    <g id="xtick_9">
     <g id="line2d_9">
      <g>
       <use style="stroke:#000000;stroke-width:0.8;" x="394.303568" xlink:href="#m1757855570" y="307.584"/>
      </g>
     </g>
     <g id="text_9">
      <!-- 250 -->
      <g transform="translate(384.759818 322.182437)scale(0.1 -0.1)">
       <use xlink:href="#DejaVuSans-50"/>
       <use x="63.623047" xlink:href="#DejaVuSans-53"/>
       <use x="127.246094" xlink:href="#DejaVuSans-48"/>
      </g>
     </g>
    </g>
    <g id="text_10">
     <!-- Weight -->
     <defs>
      <path d="M 3.328125 72.90625 
L 13.28125 72.90625 
L 28.609375 11.28125 
L 43.890625 72.90625 
L 54.984375 72.90625 
L 70.3125 11.28125 
L 85.59375 72.90625 
L 95.609375 72.90625 
L 77.296875 0 
L 64.890625 0 
L 49.515625 63.28125 
L 33.984375 0 
L 21.578125 0 
z
" id="DejaVuSans-87"/>
      <path d="M 56.203125 29.59375 
L 56.203125 25.203125 
L 14.890625 25.203125 
Q 15.484375 15.921875 20.484375 11.0625 
Q 25.484375 6.203125 34.421875 6.203125 
Q 39.59375 6.203125 44.453125 7.46875 
Q 49.3125 8.734375 54.109375 11.28125 
L 54.109375 2.78125 
Q 49.265625 0.734375 44.1875 -0.34375 
Q 39.109375 -1.421875 33.890625 -1.421875 
Q 20.796875 -1.421875 13.15625 6.1875 
Q 5.515625 13.8125 5.515625 26.8125 
Q 5.515625 40.234375 12.765625 48.109375 
Q 20.015625 56 32.328125 56 
Q 43.359375 56 49.78125 48.890625 
Q 56.203125 41.796875 56.203125 29.59375 
z
M 47.21875 32.234375 
Q 47.125 39.59375 43.09375 43.984375 
Q 39.0625 48.390625 32.421875 48.390625 
Q 24.90625 48.390625 20.390625 44.140625 
Q 15.875 39.890625 15.1875 32.171875 
z
" id="DejaVuSans-101"/>
      <path d="M 9.421875 54.6875 
L 18.40625 54.6875 
L 18.40625 0 
L 9.421875 0 
z
M 9.421875 75.984375 
L 18.40625 75.984375 
L 18.40625 64.59375 
L 9.421875 64.59375 
z
" id="DejaVuSans-105"/>
      <path d="M 45.40625 27.984375 
Q 45.40625 37.75 41.375 43.109375 
Q 37.359375 48.484375 30.078125 48.484375 
Q 22.859375 48.484375 18.828125 43.109375 
Q 14.796875 37.75 14.796875 27.984375 
Q 14.796875 18.265625 18.828125 12.890625 
Q 22.859375 7.515625 30.078125 7.515625 
Q 37.359375 7.515625 41.375 12.890625 
Q 45.40625 18.265625 45.40625 27.984375 
z
M 54.390625 6.78125 
Q 54.390625 -7.171875 48.1875 -13.984375 
Q 42 -20.796875 29.203125 -20.796875 
Q 24.46875 -20.796875 20.265625 -20.09375 
Q 16.0625 -19.390625 12.109375 -17.921875 
L 12.109375 -9.1875 
Q 16.0625 -11.328125 19.921875 -12.34375 
Q 23.78125 -13.375 27.78125 -13.375 
Q 36.625 -13.375 41.015625 -8.765625 
Q 45.40625 -4.15625 45.40625 5.171875 
L 45.40625 9.625 
Q 42.625 4.78125 38.28125 2.390625 
Q 33.9375 0 27.875 0 
Q 17.828125 0 11.671875 7.65625 
Q 5.515625 15.328125 5.515625 27.984375 
Q 5.515625 40.671875 11.671875 48.328125 
Q 17.828125 56 27.875 56 
Q 33.9375 56 38.28125 53.609375 
Q 42.625 51.21875 45.40625 46.390625 
L 45.40625 54.6875 
L 54.390625 54.6875 
z
" id="DejaVuSans-103"/>
      <path d="M 54.890625 33.015625 
L 54.890625 0 
L 45.90625 0 
L 45.90625 32.71875 
Q 45.90625 40.484375 42.875 44.328125 
Q 39.84375 48.1875 33.796875 48.1875 
Q 26.515625 48.1875 22.3125 43.546875 
Q 18.109375 38.921875 18.109375 30.90625 
L 18.109375 0 
L 9.078125 0 
L 9.078125 75.984375 
L 18.109375 75.984375 
L 18.109375 46.1875 
Q 21.34375 51.125 25.703125 53.5625 
Q 30.078125 56 35.796875 56 
Q 45.21875 56 50.046875 50.171875 
Q 54.890625 44.34375 54.890625 33.015625 
z
" id="DejaVuSans-104"/>
      <path d="M 18.3125 70.21875 
L 18.3125 54.6875 
L 36.8125 54.6875 
L 36.8125 47.703125 
L 18.3125 47.703125 
L 18.3125 18.015625 
Q 18.3125 11.328125 20.140625 9.421875 
Q 21.96875 7.515625 27.59375 7.515625 
L 36.8125 7.515625 
L 36.8125 0 
L 27.59375 0 
Q 17.1875 0 13.234375 3.875 
Q 9.28125 7.765625 9.28125 18.015625 
L 9.28125 47.703125 
L 2.6875 47.703125 
L 2.6875 54.6875 
L 9.28125 54.6875 
L 9.28125 70.21875 
z
" id="DejaVuSans-116"/>
     </defs>
     <g transform="translate(218.451406 335.860562)scale(0.1 -0.1)">
      <use xlink:href="#DejaVuSans-87"/>
      <use x="98.798828" xlink:href="#DejaVuSans-101"/>
      <use x="160.322266" xlink:href="#DejaVuSans-105"/>
      <use x="188.105469" xlink:href="#DejaVuSans-103"/>
      <use x="251.582031" xlink:href="#DejaVuSans-104"/>
      <use x="314.960938" xlink:href="#DejaVuSans-116"/>
     </g>
    </g>
   </g>
   <g id="matplotlib.axis_2">
    <g id="ytick_1">
     <g id="line2d_10">
      <defs>
       <path d="M 0 0 
L -3.5 0 
" id="m1203b9de4e" style="stroke:#000000;stroke-width:0.8;"/>
      </defs>
      <g>
       <use style="stroke:#000000;stroke-width:0.8;" x="57.6" xlink:href="#m1203b9de4e" y="307.584"/>
      </g>
     </g>
     <g id="text_11">
      <!-- 0 -->
      <g transform="translate(44.2375 311.383219)scale(0.1 -0.1)">
       <use xlink:href="#DejaVuSans-48"/>
      </g>
     </g>
    </g>
    <g id="ytick_2">
     <g id="line2d_11">
      <g>
       <use style="stroke:#000000;stroke-width:0.8;" x="57.6" xlink:href="#m1203b9de4e" y="276.830451"/>
      </g>
     </g>
     <g id="text_12">
      <!-- 2000 -->
      <g transform="translate(25.15 280.629669)scale(0.1 -0.1)">
       <use xlink:href="#DejaVuSans-50"/>
       <use x="63.623047" xlink:href="#DejaVuSans-48"/>
       <use x="127.246094" xlink:href="#DejaVuSans-48"/>
       <use x="190.869141" xlink:href="#DejaVuSans-48"/>
      </g>
     </g>
    </g>
    <g id="ytick_3">
     <g id="line2d_12">
      <g>
       <use style="stroke:#000000;stroke-width:0.8;" x="57.6" xlink:href="#m1203b9de4e" y="246.076901"/>
      </g>
     </g>
     <g id="text_13">
      <!-- 4000 -->
      <defs>
       <path d="M 37.796875 64.3125 
L 12.890625 25.390625 
L 37.796875 25.390625 
z
M 35.203125 72.90625 
L 47.609375 72.90625 
L 47.609375 25.390625 
L 58.015625 25.390625 
L 58.015625 17.1875 
L 47.609375 17.1875 
L 47.609375 0 
L 37.796875 0 
L 37.796875 17.1875 
L 4.890625 17.1875 
L 4.890625 26.703125 
z
" id="DejaVuSans-52"/>
      </defs>
      <g transform="translate(25.15 249.87612)scale(0.1 -0.1)">
       <use xlink:href="#DejaVuSans-52"/>
       <use x="63.623047" xlink:href="#DejaVuSans-48"/>
       <use x="127.246094" xlink:href="#DejaVuSans-48"/>
       <use x="190.869141" xlink:href="#DejaVuSans-48"/>
      </g>
     </g>
    </g>
    <g id="ytick_4">
     <g id="line2d_13">
      <g>
       <use style="stroke:#000000;stroke-width:0.8;" x="57.6" xlink:href="#m1203b9de4e" y="215.323352"/>
      </g>
     </g>
     <g id="text_14">
      <!-- 6000 -->
      <defs>
       <path d="M 33.015625 40.375 
Q 26.375 40.375 22.484375 35.828125 
Q 18.609375 31.296875 18.609375 23.390625 
Q 18.609375 15.53125 22.484375 10.953125 
Q 26.375 6.390625 33.015625 6.390625 
Q 39.65625 6.390625 43.53125 10.953125 
Q 47.40625 15.53125 47.40625 23.390625 
Q 47.40625 31.296875 43.53125 35.828125 
Q 39.65625 40.375 33.015625 40.375 
z
M 52.59375 71.296875 
L 52.59375 62.3125 
Q 48.875 64.0625 45.09375 64.984375 
Q 41.3125 65.921875 37.59375 65.921875 
Q 27.828125 65.921875 22.671875 59.328125 
Q 17.53125 52.734375 16.796875 39.40625 
Q 19.671875 43.65625 24.015625 45.921875 
Q 28.375 48.1875 33.59375 48.1875 
Q 44.578125 48.1875 50.953125 41.515625 
Q 57.328125 34.859375 57.328125 23.390625 
Q 57.328125 12.15625 50.6875 5.359375 
Q 44.046875 -1.421875 33.015625 -1.421875 
Q 20.359375 -1.421875 13.671875 8.265625 
Q 6.984375 17.96875 6.984375 36.375 
Q 6.984375 53.65625 15.1875 63.9375 
Q 23.390625 74.21875 37.203125 74.21875 
Q 40.921875 74.21875 44.703125 73.484375 
Q 48.484375 72.75 52.59375 71.296875 
z
" id="DejaVuSans-54"/>
      </defs>
      <g transform="translate(25.15 219.122571)scale(0.1 -0.1)">
       <use xlink:href="#DejaVuSans-54"/>
       <use x="63.623047" xlink:href="#DejaVuSans-48"/>
       <use x="127.246094" xlink:href="#DejaVuSans-48"/>
       <use x="190.869141" xlink:href="#DejaVuSans-48"/>
      </g>
     </g>
    </g>
    <g id="ytick_5">
     <g id="line2d_14">
      <g>
       <use style="stroke:#000000;stroke-width:0.8;" x="57.6" xlink:href="#m1203b9de4e" y="184.569803"/>
      </g>
     </g>
     <g id="text_15">
      <!-- 8000 -->
      <defs>
       <path d="M 31.78125 34.625 
Q 24.75 34.625 20.71875 30.859375 
Q 16.703125 27.09375 16.703125 20.515625 
Q 16.703125 13.921875 20.71875 10.15625 
Q 24.75 6.390625 31.78125 6.390625 
Q 38.8125 6.390625 42.859375 10.171875 
Q 46.921875 13.96875 46.921875 20.515625 
Q 46.921875 27.09375 42.890625 30.859375 
Q 38.875 34.625 31.78125 34.625 
z
M 21.921875 38.8125 
Q 15.578125 40.375 12.03125 44.71875 
Q 8.5 49.078125 8.5 55.328125 
Q 8.5 64.0625 14.71875 69.140625 
Q 20.953125 74.21875 31.78125 74.21875 
Q 42.671875 74.21875 48.875 69.140625 
Q 55.078125 64.0625 55.078125 55.328125 
Q 55.078125 49.078125 51.53125 44.71875 
Q 48 40.375 41.703125 38.8125 
Q 48.828125 37.15625 52.796875 32.3125 
Q 56.78125 27.484375 56.78125 20.515625 
Q 56.78125 9.90625 50.3125 4.234375 
Q 43.84375 -1.421875 31.78125 -1.421875 
Q 19.734375 -1.421875 13.25 4.234375 
Q 6.78125 9.90625 6.78125 20.515625 
Q 6.78125 27.484375 10.78125 32.3125 
Q 14.796875 37.15625 21.921875 38.8125 
z
M 18.3125 54.390625 
Q 18.3125 48.734375 21.84375 45.5625 
Q 25.390625 42.390625 31.78125 42.390625 
Q 38.140625 42.390625 41.71875 45.5625 
Q 45.3125 48.734375 45.3125 54.390625 
Q 45.3125 60.0625 41.71875 63.234375 
Q 38.140625 66.40625 31.78125 66.40625 
Q 25.390625 66.40625 21.84375 63.234375 
Q 18.3125 60.0625 18.3125 54.390625 
z
" id="DejaVuSans-56"/>
      </defs>
      <g transform="translate(25.15 188.369021)scale(0.1 -0.1)">
       <use xlink:href="#DejaVuSans-56"/>
       <use x="63.623047" xlink:href="#DejaVuSans-48"/>
       <use x="127.246094" xlink:href="#DejaVuSans-48"/>
       <use x="190.869141" xlink:href="#DejaVuSans-48"/>
      </g>
     </g>
    </g>
    <g id="ytick_6">
     <g id="line2d_15">
      <g>
       <use style="stroke:#000000;stroke-width:0.8;" x="57.6" xlink:href="#m1203b9de4e" y="153.816253"/>
      </g>
     </g>
     <g id="text_16">
      <!-- 10000 -->
      <g transform="translate(18.7875 157.615472)scale(0.1 -0.1)">
       <use xlink:href="#DejaVuSans-49"/>
       <use x="63.623047" xlink:href="#DejaVuSans-48"/>
       <use x="127.246094" xlink:href="#DejaVuSans-48"/>
       <use x="190.869141" xlink:href="#DejaVuSans-48"/>
       <use x="254.492188" xlink:href="#DejaVuSans-48"/>
      </g>
     </g>
    </g>
    <g id="ytick_7">
     <g id="line2d_16">
      <g>
       <use style="stroke:#000000;stroke-width:0.8;" x="57.6" xlink:href="#m1203b9de4e" y="123.062704"/>
      </g>
     </g>
     <g id="text_17">
      <!-- 12000 -->
      <g transform="translate(18.7875 126.861923)scale(0.1 -0.1)">
       <use xlink:href="#DejaVuSans-49"/>
       <use x="63.623047" xlink:href="#DejaVuSans-50"/>
       <use x="127.246094" xlink:href="#DejaVuSans-48"/>
       <use x="190.869141" xlink:href="#DejaVuSans-48"/>
       <use x="254.492188" xlink:href="#DejaVuSans-48"/>
      </g>
     </g>
    </g>
    <g id="ytick_8">
     <g id="line2d_17">
      <g>
       <use style="stroke:#000000;stroke-width:0.8;" x="57.6" xlink:href="#m1203b9de4e" y="92.309155"/>
      </g>
     </g>
     <g id="text_18">
      <!-- 14000 -->
      <g transform="translate(18.7875 96.108373)scale(0.1 -0.1)">
       <use xlink:href="#DejaVuSans-49"/>
       <use x="63.623047" xlink:href="#DejaVuSans-52"/>
       <use x="127.246094" xlink:href="#DejaVuSans-48"/>
       <use x="190.869141" xlink:href="#DejaVuSans-48"/>
       <use x="254.492188" xlink:href="#DejaVuSans-48"/>
      </g>
     </g>
    </g>
    <g id="ytick_9">
     <g id="line2d_18">
      <g>
       <use style="stroke:#000000;stroke-width:0.8;" x="57.6" xlink:href="#m1203b9de4e" y="61.555605"/>
      </g>
     </g>
     <g id="text_19">
      <!-- 16000 -->
      <g transform="translate(18.7875 65.354824)scale(0.1 -0.1)">
       <use xlink:href="#DejaVuSans-49"/>
       <use x="63.623047" xlink:href="#DejaVuSans-54"/>
       <use x="127.246094" xlink:href="#DejaVuSans-48"/>
       <use x="190.869141" xlink:href="#DejaVuSans-48"/>
       <use x="254.492188" xlink:href="#DejaVuSans-48"/>
      </g>
     </g>
    </g>
    <g id="text_20">
     <!-- Occurrencies -->
     <defs>
      <path d="M 39.40625 66.21875 
Q 28.65625 66.21875 22.328125 58.203125 
Q 16.015625 50.203125 16.015625 36.375 
Q 16.015625 22.609375 22.328125 14.59375 
Q 28.65625 6.59375 39.40625 6.59375 
Q 50.140625 6.59375 56.421875 14.59375 
Q 62.703125 22.609375 62.703125 36.375 
Q 62.703125 50.203125 56.421875 58.203125 
Q 50.140625 66.21875 39.40625 66.21875 
z
M 39.40625 74.21875 
Q 54.734375 74.21875 63.90625 63.9375 
Q 73.09375 53.65625 73.09375 36.375 
Q 73.09375 19.140625 63.90625 8.859375 
Q 54.734375 -1.421875 39.40625 -1.421875 
Q 24.03125 -1.421875 14.8125 8.828125 
Q 5.609375 19.09375 5.609375 36.375 
Q 5.609375 53.65625 14.8125 63.9375 
Q 24.03125 74.21875 39.40625 74.21875 
z
" id="DejaVuSans-79"/>
      <path d="M 48.78125 52.59375 
L 48.78125 44.1875 
Q 44.96875 46.296875 41.140625 47.34375 
Q 37.3125 48.390625 33.40625 48.390625 
Q 24.65625 48.390625 19.8125 42.84375 
Q 14.984375 37.3125 14.984375 27.296875 
Q 14.984375 17.28125 19.8125 11.734375 
Q 24.65625 6.203125 33.40625 6.203125 
Q 37.3125 6.203125 41.140625 7.25 
Q 44.96875 8.296875 48.78125 10.40625 
L 48.78125 2.09375 
Q 45.015625 0.34375 40.984375 -0.53125 
Q 36.96875 -1.421875 32.421875 -1.421875 
Q 20.0625 -1.421875 12.78125 6.34375 
Q 5.515625 14.109375 5.515625 27.296875 
Q 5.515625 40.671875 12.859375 48.328125 
Q 20.21875 56 33.015625 56 
Q 37.15625 56 41.109375 55.140625 
Q 45.0625 54.296875 48.78125 52.59375 
z
" id="DejaVuSans-99"/>
      <path d="M 8.5 21.578125 
L 8.5 54.6875 
L 17.484375 54.6875 
L 17.484375 21.921875 
Q 17.484375 14.15625 20.5 10.265625 
Q 23.53125 6.390625 29.59375 6.390625 
Q 36.859375 6.390625 41.078125 11.03125 
Q 45.3125 15.671875 45.3125 23.6875 
L 45.3125 54.6875 
L 54.296875 54.6875 
L 54.296875 0 
L 45.3125 0 
L 45.3125 8.40625 
Q 42.046875 3.421875 37.71875 1 
Q 33.40625 -1.421875 27.6875 -1.421875 
Q 18.265625 -1.421875 13.375 4.4375 
Q 8.5 10.296875 8.5 21.578125 
z
M 31.109375 56 
z
" id="DejaVuSans-117"/>
      <path d="M 41.109375 46.296875 
Q 39.59375 47.171875 37.8125 47.578125 
Q 36.03125 48 33.890625 48 
Q 26.265625 48 22.1875 43.046875 
Q 18.109375 38.09375 18.109375 28.8125 
L 18.109375 0 
L 9.078125 0 
L 9.078125 54.6875 
L 18.109375 54.6875 
L 18.109375 46.1875 
Q 20.953125 51.171875 25.484375 53.578125 
Q 30.03125 56 36.53125 56 
Q 37.453125 56 38.578125 55.875 
Q 39.703125 55.765625 41.0625 55.515625 
z
" id="DejaVuSans-114"/>
      <path d="M 54.890625 33.015625 
L 54.890625 0 
L 45.90625 0 
L 45.90625 32.71875 
Q 45.90625 40.484375 42.875 44.328125 
Q 39.84375 48.1875 33.796875 48.1875 
Q 26.515625 48.1875 22.3125 43.546875 
Q 18.109375 38.921875 18.109375 30.90625 
L 18.109375 0 
L 9.078125 0 
L 9.078125 54.6875 
L 18.109375 54.6875 
L 18.109375 46.1875 
Q 21.34375 51.125 25.703125 53.5625 
Q 30.078125 56 35.796875 56 
Q 45.21875 56 50.046875 50.171875 
Q 54.890625 44.34375 54.890625 33.015625 
z
" id="DejaVuSans-110"/>
      <path d="M 44.28125 53.078125 
L 44.28125 44.578125 
Q 40.484375 46.53125 36.375 47.5 
Q 32.28125 48.484375 27.875 48.484375 
Q 21.1875 48.484375 17.84375 46.4375 
Q 14.5 44.390625 14.5 40.28125 
Q 14.5 37.15625 16.890625 35.375 
Q 19.28125 33.59375 26.515625 31.984375 
L 29.59375 31.296875 
Q 39.15625 29.25 43.1875 25.515625 
Q 47.21875 21.78125 47.21875 15.09375 
Q 47.21875 7.46875 41.1875 3.015625 
Q 35.15625 -1.421875 24.609375 -1.421875 
Q 20.21875 -1.421875 15.453125 -0.5625 
Q 10.6875 0.296875 5.421875 2 
L 5.421875 11.28125 
Q 10.40625 8.6875 15.234375 7.390625 
Q 20.0625 6.109375 24.8125 6.109375 
Q 31.15625 6.109375 34.5625 8.28125 
Q 37.984375 10.453125 37.984375 14.40625 
Q 37.984375 18.0625 35.515625 20.015625 
Q 33.0625 21.96875 24.703125 23.78125 
L 21.578125 24.515625 
Q 13.234375 26.265625 9.515625 29.90625 
Q 5.8125 33.546875 5.8125 39.890625 
Q 5.8125 47.609375 11.28125 51.796875 
Q 16.75 56 26.8125 56 
Q 31.78125 56 36.171875 55.265625 
Q 40.578125 54.546875 44.28125 53.078125 
z
" id="DejaVuSans-115"/>
     </defs>
     <g transform="translate(12.707812 207.304563)rotate(-90)scale(0.1 -0.1)">
      <use xlink:href="#DejaVuSans-79"/>
      <use x="78.710938" xlink:href="#DejaVuSans-99"/>
      <use x="133.691406" xlink:href="#DejaVuSans-99"/>
      <use x="188.671875" xlink:href="#DejaVuSans-117"/>
      <use x="252.050781" xlink:href="#DejaVuSans-114"/>
      <use x="293.148438" xlink:href="#DejaVuSans-114"/>
      <use x="334.230469" xlink:href="#DejaVuSans-101"/>
      <use x="395.753906" xlink:href="#DejaVuSans-110"/>
      <use x="459.132812" xlink:href="#DejaVuSans-99"/>
      <use x="514.113281" xlink:href="#DejaVuSans-105"/>
      <use x="541.896484" xlink:href="#DejaVuSans-101"/>
      <use x="603.419922" xlink:href="#DejaVuSans-115"/>
     </g>
    </g>
   </g>
   <g id="patch_203">
    <path d="M 57.6 307.584 
L 57.6 41.472 
" style="fill:none;stroke:#000000;stroke-linecap:square;stroke-linejoin:miter;stroke-width:0.8;"/>
   </g>
   <g id="patch_204">
    <path d="M 414.72 307.584 
L 414.72 41.472 
" style="fill:none;stroke:#000000;stroke-linecap:square;stroke-linejoin:miter;stroke-width:0.8;"/>
   </g>
   <g id="patch_205">
    <path d="M 57.6 307.584 
L 414.72 307.584 
" style="fill:none;stroke:#000000;stroke-linecap:square;stroke-linejoin:miter;stroke-width:0.8;"/>
   </g>
   <g id="patch_206">
    <path d="M 57.6 41.472 
L 414.72 41.472 
" style="fill:none;stroke:#000000;stroke-linecap:square;stroke-linejoin:miter;stroke-width:0.8;"/>
   </g>
   <g id="text_21">
    <!-- Histogram of fc1 -->
    <defs>
     <path d="M 9.8125 72.90625 
L 19.671875 72.90625 
L 19.671875 43.015625 
L 55.515625 43.015625 
L 55.515625 72.90625 
L 65.375 72.90625 
L 65.375 0 
L 55.515625 0 
L 55.515625 34.71875 
L 19.671875 34.71875 
L 19.671875 0 
L 9.8125 0 
z
" id="DejaVuSans-72"/>
     <path d="M 30.609375 48.390625 
Q 23.390625 48.390625 19.1875 42.75 
Q 14.984375 37.109375 14.984375 27.296875 
Q 14.984375 17.484375 19.15625 11.84375 
Q 23.34375 6.203125 30.609375 6.203125 
Q 37.796875 6.203125 41.984375 11.859375 
Q 46.1875 17.53125 46.1875 27.296875 
Q 46.1875 37.015625 41.984375 42.703125 
Q 37.796875 48.390625 30.609375 48.390625 
z
M 30.609375 56 
Q 42.328125 56 49.015625 48.375 
Q 55.71875 40.765625 55.71875 27.296875 
Q 55.71875 13.875 49.015625 6.21875 
Q 42.328125 -1.421875 30.609375 -1.421875 
Q 18.84375 -1.421875 12.171875 6.21875 
Q 5.515625 13.875 5.515625 27.296875 
Q 5.515625 40.765625 12.171875 48.375 
Q 18.84375 56 30.609375 56 
z
" id="DejaVuSans-111"/>
     <path d="M 34.28125 27.484375 
Q 23.390625 27.484375 19.1875 25 
Q 14.984375 22.515625 14.984375 16.5 
Q 14.984375 11.71875 18.140625 8.90625 
Q 21.296875 6.109375 26.703125 6.109375 
Q 34.1875 6.109375 38.703125 11.40625 
Q 43.21875 16.703125 43.21875 25.484375 
L 43.21875 27.484375 
z
M 52.203125 31.203125 
L 52.203125 0 
L 43.21875 0 
L 43.21875 8.296875 
Q 40.140625 3.328125 35.546875 0.953125 
Q 30.953125 -1.421875 24.3125 -1.421875 
Q 15.921875 -1.421875 10.953125 3.296875 
Q 6 8.015625 6 15.921875 
Q 6 25.140625 12.171875 29.828125 
Q 18.359375 34.515625 30.609375 34.515625 
L 43.21875 34.515625 
L 43.21875 35.40625 
Q 43.21875 41.609375 39.140625 45 
Q 35.0625 48.390625 27.6875 48.390625 
Q 23 48.390625 18.546875 47.265625 
Q 14.109375 46.140625 10.015625 43.890625 
L 10.015625 52.203125 
Q 14.9375 54.109375 19.578125 55.046875 
Q 24.21875 56 28.609375 56 
Q 40.484375 56 46.34375 49.84375 
Q 52.203125 43.703125 52.203125 31.203125 
z
" id="DejaVuSans-97"/>
     <path d="M 52 44.1875 
Q 55.375 50.25 60.0625 53.125 
Q 64.75 56 71.09375 56 
Q 79.640625 56 84.28125 50.015625 
Q 88.921875 44.046875 88.921875 33.015625 
L 88.921875 0 
L 79.890625 0 
L 79.890625 32.71875 
Q 79.890625 40.578125 77.09375 44.375 
Q 74.3125 48.1875 68.609375 48.1875 
Q 61.625 48.1875 57.5625 43.546875 
Q 53.515625 38.921875 53.515625 30.90625 
L 53.515625 0 
L 44.484375 0 
L 44.484375 32.71875 
Q 44.484375 40.625 41.703125 44.40625 
Q 38.921875 48.1875 33.109375 48.1875 
Q 26.21875 48.1875 22.15625 43.53125 
Q 18.109375 38.875 18.109375 30.90625 
L 18.109375 0 
L 9.078125 0 
L 9.078125 54.6875 
L 18.109375 54.6875 
L 18.109375 46.1875 
Q 21.1875 51.21875 25.484375 53.609375 
Q 29.78125 56 35.6875 56 
Q 41.65625 56 45.828125 52.96875 
Q 50 49.953125 52 44.1875 
z
" id="DejaVuSans-109"/>
     <path id="DejaVuSans-32"/>
     <path d="M 37.109375 75.984375 
L 37.109375 68.5 
L 28.515625 68.5 
Q 23.6875 68.5 21.796875 66.546875 
Q 19.921875 64.59375 19.921875 59.515625 
L 19.921875 54.6875 
L 34.71875 54.6875 
L 34.71875 47.703125 
L 19.921875 47.703125 
L 19.921875 0 
L 10.890625 0 
L 10.890625 47.703125 
L 2.296875 47.703125 
L 2.296875 54.6875 
L 10.890625 54.6875 
L 10.890625 58.5 
Q 10.890625 67.625 15.140625 71.796875 
Q 19.390625 75.984375 28.609375 75.984375 
z
" id="DejaVuSans-102"/>
    </defs>
    <g transform="translate(186.209063 35.472)scale(0.12 -0.12)">
     <use xlink:href="#DejaVuSans-72"/>
     <use x="75.195312" xlink:href="#DejaVuSans-105"/>
     <use x="102.978516" xlink:href="#DejaVuSans-115"/>
     <use x="155.078125" xlink:href="#DejaVuSans-116"/>
     <use x="194.287109" xlink:href="#DejaVuSans-111"/>
     <use x="255.46875" xlink:href="#DejaVuSans-103"/>
     <use x="318.945312" xlink:href="#DejaVuSans-114"/>
     <use x="360.058594" xlink:href="#DejaVuSans-97"/>
     <use x="421.337891" xlink:href="#DejaVuSans-109"/>
     <use x="518.75" xlink:href="#DejaVuSans-32"/>
     <use x="550.537109" xlink:href="#DejaVuSans-111"/>
     <use x="611.71875" xlink:href="#DejaVuSans-102"/>
     <use x="646.923828" xlink:href="#DejaVuSans-32"/>
     <use x="678.710938" xlink:href="#DejaVuSans-102"/>
     <use x="713.916016" xlink:href="#DejaVuSans-99"/>
     <use x="768.896484" xlink:href="#DejaVuSans-49"/>
    </g>
   </g>
   <g id="legend_1">
    <g id="patch_207">
     <path d="M 323.679375 78.82825 
L 407.72 78.82825 
Q 409.72 78.82825 409.72 76.82825 
L 409.72 48.472 
Q 409.72 46.472 407.72 46.472 
L 323.679375 46.472 
Q 321.679375 46.472 321.679375 48.472 
L 321.679375 76.82825 
Q 321.679375 78.82825 323.679375 78.82825 
z
" style="fill:#ffffff;opacity:0.8;stroke:#cccccc;stroke-linejoin:miter;"/>
    </g>
    <g id="patch_208">
     <path d="M 325.679375 58.070437 
L 345.679375 58.070437 
L 345.679375 51.070437 
L 325.679375 51.070437 
z
" style="fill:#0000ff;"/>
    </g>
    <g id="text_22">
     <!-- unmasked -->
     <defs>
      <path d="M 9.078125 75.984375 
L 18.109375 75.984375 
L 18.109375 31.109375 
L 44.921875 54.6875 
L 56.390625 54.6875 
L 27.390625 29.109375 
L 57.625 0 
L 45.90625 0 
L 18.109375 26.703125 
L 18.109375 0 
L 9.078125 0 
z
" id="DejaVuSans-107"/>
      <path d="M 45.40625 46.390625 
L 45.40625 75.984375 
L 54.390625 75.984375 
L 54.390625 0 
L 45.40625 0 
L 45.40625 8.203125 
Q 42.578125 3.328125 38.25 0.953125 
Q 33.9375 -1.421875 27.875 -1.421875 
Q 17.96875 -1.421875 11.734375 6.484375 
Q 5.515625 14.40625 5.515625 27.296875 
Q 5.515625 40.1875 11.734375 48.09375 
Q 17.96875 56 27.875 56 
Q 33.9375 56 38.25 53.625 
Q 42.578125 51.265625 45.40625 46.390625 
z
M 14.796875 27.296875 
Q 14.796875 17.390625 18.875 11.75 
Q 22.953125 6.109375 30.078125 6.109375 
Q 37.203125 6.109375 41.296875 11.75 
Q 45.40625 17.390625 45.40625 27.296875 
Q 45.40625 37.203125 41.296875 42.84375 
Q 37.203125 48.484375 30.078125 48.484375 
Q 22.953125 48.484375 18.875 42.84375 
Q 14.796875 37.203125 14.796875 27.296875 
z
" id="DejaVuSans-100"/>
     </defs>
     <g transform="translate(353.679375 58.070437)scale(0.1 -0.1)">
      <use xlink:href="#DejaVuSans-117"/>
      <use x="63.378906" xlink:href="#DejaVuSans-110"/>
      <use x="126.757812" xlink:href="#DejaVuSans-109"/>
      <use x="224.169922" xlink:href="#DejaVuSans-97"/>
      <use x="285.449219" xlink:href="#DejaVuSans-115"/>
      <use x="337.548828" xlink:href="#DejaVuSans-107"/>
      <use x="395.412109" xlink:href="#DejaVuSans-101"/>
      <use x="456.935547" xlink:href="#DejaVuSans-100"/>
     </g>
    </g>
    <g id="patch_209">
     <path d="M 325.679375 72.748562 
L 345.679375 72.748562 
L 345.679375 65.748562 
L 325.679375 65.748562 
z
" style="fill:#808080;"/>
    </g>
    <g id="text_23">
     <!-- masked -->
     <g transform="translate(353.679375 72.748562)scale(0.1 -0.1)">
      <use xlink:href="#DejaVuSans-109"/>
      <use x="97.412109" xlink:href="#DejaVuSans-97"/>
      <use x="158.691406" xlink:href="#DejaVuSans-115"/>
      <use x="210.791016" xlink:href="#DejaVuSans-107"/>
      <use x="268.654297" xlink:href="#DejaVuSans-101"/>
      <use x="330.177734" xlink:href="#DejaVuSans-100"/>
     </g>
    </g>
   </g>
  </g>
 </g>
 <defs>
  <clipPath id="p86b64ff849">
   <rect height="266.112" width="357.12" x="57.6" y="41.472"/>
  </clipPath>
 </defs>
</svg>
