<?xml version="1.0" encoding="utf-8" standalone="no"?>
<!DOCTYPE svg PUBLIC "-//W3C//DTD SVG 1.1//EN"
  "http://www.w3.org/Graphics/SVG/1.1/DTD/svg11.dtd">
<!-- Created with matplotlib (https://matplotlib.org/) -->
<svg height="345.6pt" version="1.1" viewBox="0 0 460.8 345.6" width="460.8pt" xmlns="http://www.w3.org/2000/svg" xmlns:xlink="http://www.w3.org/1999/xlink">
 <defs>
  <style type="text/css">
*{stroke-linecap:butt;stroke-linejoin:round;}
  </style>
 </defs>
 <g id="figure_1">
  <g id="patch_1">
   <path d="M 0 345.6 
L 460.8 345.6 
L 460.8 0 
L 0 0 
z
" style="fill:#ffffff;"/>
  </g>
  <g id="axes_1">
   <g id="patch_2">
    <path d="M 57.6 307.584 
L 414.72 307.584 
L 414.72 41.472 
L 57.6 41.472 
z
" style="fill:#ffffff;"/>
   </g>
   <g id="patch_3">
    <path clip-path="url(#paa70a717e3)" d="M 110.031142 307.584 
L 112.915702 307.584 
L 112.915702 304.249263 
L 110.031142 304.249263 
z
" style="fill:#0000ff;"/>
   </g>
   <g id="patch_4">
    <path clip-path="url(#paa70a717e3)" d="M 112.915703 307.584 
L 115.800263 307.584 
L 115.800263 307.584 
L 112.915703 307.584 
z
" style="fill:#0000ff;"/>
   </g>
   <g id="patch_5">
    <path clip-path="url(#paa70a717e3)" d="M 115.800264 307.584 
L 118.684825 307.584 
L 118.684825 307.584 
L 115.800264 307.584 
z
" style="fill:#0000ff;"/>
   </g>
   <g id="patch_6">
    <path clip-path="url(#paa70a717e3)" d="M 118.684826 307.584 
L 121.569387 307.584 
L 121.569387 307.584 
L 118.684826 307.584 
z
" style="fill:#0000ff;"/>
   </g>
   <g id="patch_7">
    <path clip-path="url(#paa70a717e3)" d="M 121.569387 307.584 
L 124.453948 307.584 
L 124.453948 307.584 
L 121.569387 307.584 
z
" style="fill:#0000ff;"/>
   </g>
   <g id="patch_8">
    <path clip-path="url(#paa70a717e3)" d="M 124.453947 307.584 
L 127.338509 307.584 
L 127.338509 304.249263 
L 124.453947 304.249263 
z
" style="fill:#0000ff;"/>
   </g>
   <g id="patch_9">
    <path clip-path="url(#paa70a717e3)" d="M 127.33851 307.584 
L 130.223072 307.584 
L 130.223072 307.584 
L 127.33851 307.584 
z
" style="fill:#0000ff;"/>
   </g>
   <g id="patch_10">
    <path clip-path="url(#paa70a717e3)" d="M 130.22307 307.584 
L 133.10763 307.584 
L 133.10763 307.584 
L 130.22307 307.584 
z
" style="fill:#0000ff;"/>
   </g>
   <g id="patch_11">
    <path clip-path="url(#paa70a717e3)" d="M 133.107628 307.584 
L 135.992191 307.584 
L 135.992191 307.584 
L 133.107628 307.584 
z
" style="fill:#0000ff;"/>
   </g>
   <g id="patch_12">
    <path clip-path="url(#paa70a717e3)" d="M 135.992193 307.584 
L 138.876753 307.584 
L 138.876753 304.249263 
L 135.992193 304.249263 
z
" style="fill:#0000ff;"/>
   </g>
   <g id="patch_13">
    <path clip-path="url(#paa70a717e3)" d="M 138.876753 307.584 
L 141.761313 307.584 
L 141.761313 307.584 
L 138.876753 307.584 
z
" style="fill:#0000ff;"/>
   </g>
   <g id="patch_14">
    <path clip-path="url(#paa70a717e3)" d="M 141.761313 307.584 
L 144.645876 307.584 
L 144.645876 304.249263 
L 141.761313 304.249263 
z
" style="fill:#0000ff;"/>
   </g>
   <g id="patch_15">
    <path clip-path="url(#paa70a717e3)" d="M 144.645874 307.584 
L 147.530438 307.584 
L 147.530438 307.584 
L 144.645874 307.584 
z
" style="fill:#0000ff;"/>
   </g>
   <g id="patch_16">
    <path clip-path="url(#paa70a717e3)" d="M 147.530438 307.584 
L 150.414998 307.584 
L 150.414998 307.584 
L 147.530438 307.584 
z
" style="fill:#0000ff;"/>
   </g>
   <g id="patch_17">
    <path clip-path="url(#paa70a717e3)" d="M 150.414994 307.584 
L 153.299554 307.584 
L 153.299554 307.584 
L 150.414994 307.584 
z
" style="fill:#0000ff;"/>
   </g>
   <g id="patch_18">
    <path clip-path="url(#paa70a717e3)" d="M 153.299559 307.584 
L 156.184119 307.584 
L 156.184119 307.584 
L 153.299559 307.584 
z
" style="fill:#0000ff;"/>
   </g>
   <g id="patch_19">
    <path clip-path="url(#paa70a717e3)" d="M 156.184115 307.584 
L 159.068675 307.584 
L 159.068675 307.584 
L 156.184115 307.584 
z
" style="fill:#0000ff;"/>
   </g>
   <g id="patch_20">
    <path clip-path="url(#paa70a717e3)" d="M 159.068679 307.584 
L 161.953244 307.584 
L 161.953244 307.584 
L 159.068679 307.584 
z
" style="fill:#0000ff;"/>
   </g>
   <g id="patch_21">
    <path clip-path="url(#paa70a717e3)" d="M 161.953244 307.584 
L 164.837804 307.584 
L 164.837804 307.584 
L 161.953244 307.584 
z
" style="fill:#0000ff;"/>
   </g>
   <g id="patch_22">
    <path clip-path="url(#paa70a717e3)" d="M 164.8378 307.584 
L 167.72236 307.584 
L 167.72236 300.914526 
L 164.8378 300.914526 
z
" style="fill:#0000ff;"/>
   </g>
   <g id="patch_23">
    <path clip-path="url(#paa70a717e3)" d="M 167.722364 307.584 
L 170.606925 307.584 
L 170.606925 307.584 
L 167.722364 307.584 
z
" style="fill:#0000ff;"/>
   </g>
   <g id="patch_24">
    <path clip-path="url(#paa70a717e3)" d="M 170.60692 307.584 
L 173.491481 307.584 
L 173.491481 300.914526 
L 170.60692 300.914526 
z
" style="fill:#0000ff;"/>
   </g>
   <g id="patch_25">
    <path clip-path="url(#paa70a717e3)" d="M 173.491485 307.584 
L 176.376049 307.584 
L 176.376049 304.249263 
L 173.491485 304.249263 
z
" style="fill:#0000ff;"/>
   </g>
   <g id="patch_26">
    <path clip-path="url(#paa70a717e3)" d="M 176.376049 307.584 
L 179.26061 307.584 
L 179.26061 304.249263 
L 176.376049 304.249263 
z
" style="fill:#0000ff;"/>
   </g>
   <g id="patch_27">
    <path clip-path="url(#paa70a717e3)" d="M 179.260605 307.584 
L 182.145166 307.584 
L 182.145166 304.249263 
L 179.260605 304.249263 
z
" style="fill:#0000ff;"/>
   </g>
   <g id="patch_28">
    <path clip-path="url(#paa70a717e3)" d="M 182.14517 307.584 
L 185.029735 307.584 
L 185.029735 307.584 
L 182.14517 307.584 
z
" style="fill:#0000ff;"/>
   </g>
   <g id="patch_29">
    <path clip-path="url(#paa70a717e3)" d="M 185.029735 307.584 
L 187.914291 307.584 
L 187.914291 304.249263 
L 185.029735 304.249263 
z
" style="fill:#0000ff;"/>
   </g>
   <g id="patch_30">
    <path clip-path="url(#paa70a717e3)" d="M 187.914291 307.584 
L 190.798855 307.584 
L 190.798855 307.584 
L 187.914291 307.584 
z
" style="fill:#0000ff;"/>
   </g>
   <g id="patch_31">
    <path clip-path="url(#paa70a717e3)" d="M 190.798864 307.584 
L 193.68342 307.584 
L 193.68342 304.249263 
L 190.798864 304.249263 
z
" style="fill:#0000ff;"/>
   </g>
   <g id="patch_32">
    <path clip-path="url(#paa70a717e3)" d="M 193.683411 307.584 
L 196.567976 307.584 
L 196.567976 307.584 
L 193.683411 307.584 
z
" style="fill:#0000ff;"/>
   </g>
   <g id="patch_33">
    <path clip-path="url(#paa70a717e3)" d="M 196.567976 307.584 
L 199.45254 307.584 
L 199.45254 294.245053 
L 196.567976 294.245053 
z
" style="fill:#0000ff;"/>
   </g>
   <g id="patch_34">
    <path clip-path="url(#paa70a717e3)" d="M 199.45254 307.584 
L 202.337096 307.584 
L 202.337096 307.584 
L 199.45254 307.584 
z
" style="fill:#0000ff;"/>
   </g>
   <g id="patch_35">
    <path clip-path="url(#paa70a717e3)" d="M 202.337096 307.584 
L 205.221661 307.584 
L 205.221661 297.579789 
L 202.337096 297.579789 
z
" style="fill:#0000ff;"/>
   </g>
   <g id="patch_36">
    <path clip-path="url(#paa70a717e3)" d="M 205.22167 307.584 
L 208.106225 307.584 
L 208.106225 304.249263 
L 205.22167 304.249263 
z
" style="fill:#0000ff;"/>
   </g>
   <g id="patch_37">
    <path clip-path="url(#paa70a717e3)" d="M 208.106217 307.584 
L 210.990781 307.584 
L 210.990781 300.914526 
L 208.106217 300.914526 
z
" style="fill:#0000ff;"/>
   </g>
   <g id="patch_38">
    <path clip-path="url(#paa70a717e3)" d="M 210.990781 307.584 
L 213.875346 307.584 
L 213.875346 304.249263 
L 210.990781 304.249263 
z
" style="fill:#0000ff;"/>
   </g>
   <g id="patch_39">
    <path clip-path="url(#paa70a717e3)" d="M 213.875346 307.584 
L 216.759902 307.584 
L 216.759902 284.240842 
L 213.875346 284.240842 
z
" style="fill:#0000ff;"/>
   </g>
   <g id="patch_40">
    <path clip-path="url(#paa70a717e3)" d="M 216.759902 307.584 
L 219.644467 307.584 
L 219.644467 300.914526 
L 216.759902 300.914526 
z
" style="fill:#0000ff;"/>
   </g>
   <g id="patch_41">
    <path clip-path="url(#paa70a717e3)" d="M 219.644475 307.584 
L 222.529031 307.584 
L 222.529031 284.240842 
L 219.644475 284.240842 
z
" style="fill:#0000ff;"/>
   </g>
   <g id="patch_42">
    <path clip-path="url(#paa70a717e3)" d="M 222.529023 307.584 
L 225.413587 307.584 
L 225.413587 290.910316 
L 222.529023 290.910316 
z
" style="fill:#0000ff;"/>
   </g>
   <g id="patch_43">
    <path clip-path="url(#paa70a717e3)" d="M 225.413587 307.584 
L 228.298152 307.584 
L 228.298152 274.236632 
L 225.413587 274.236632 
z
" style="fill:#0000ff;"/>
   </g>
   <g id="patch_44">
    <path clip-path="url(#paa70a717e3)" d="M 228.298152 307.584 
L 231.182708 307.584 
L 231.182708 284.240842 
L 228.298152 284.240842 
z
" style="fill:#0000ff;"/>
   </g>
   <g id="patch_45">
    <path clip-path="url(#paa70a717e3)" d="M 231.182708 307.584 
L 234.067272 307.584 
L 234.067272 290.910316 
L 231.182708 290.910316 
z
" style="fill:#0000ff;"/>
   </g>
   <g id="patch_46">
    <path clip-path="url(#paa70a717e3)" d="M 234.067281 307.584 
L 236.951837 307.584 
L 236.951837 284.240842 
L 234.067281 284.240842 
z
" style="fill:#0000ff;"/>
   </g>
   <g id="patch_47">
    <path clip-path="url(#paa70a717e3)" d="M 236.951828 307.584 
L 239.836393 307.584 
L 239.836393 287.575579 
L 236.951828 287.575579 
z
" style="fill:#0000ff;"/>
   </g>
   <g id="patch_48">
    <path clip-path="url(#paa70a717e3)" d="M 239.836393 307.584 
L 242.720957 307.584 
L 242.720957 264.232421 
L 239.836393 264.232421 
z
" style="fill:#0000ff;"/>
   </g>
   <g id="patch_49">
    <path clip-path="url(#paa70a717e3)" d="M 242.720957 307.584 
L 245.605513 307.584 
L 245.605513 287.575579 
L 242.720957 287.575579 
z
" style="fill:#0000ff;"/>
   </g>
   <g id="patch_50">
    <path clip-path="url(#paa70a717e3)" d="M 245.605513 307.584 
L 248.490078 307.584 
L 248.490078 260.897684 
L 245.605513 260.897684 
z
" style="fill:#0000ff;"/>
   </g>
   <g id="patch_51">
    <path clip-path="url(#paa70a717e3)" d="M 248.490087 307.584 
L 251.374643 307.584 
L 251.374643 284.240842 
L 248.490087 284.240842 
z
" style="fill:#0000ff;"/>
   </g>
   <g id="patch_52">
    <path clip-path="url(#paa70a717e3)" d="M 251.374634 307.584 
L 254.259199 307.584 
L 254.259199 267.567158 
L 251.374634 267.567158 
z
" style="fill:#0000ff;"/>
   </g>
   <g id="patch_53">
    <path clip-path="url(#paa70a717e3)" d="M 254.25919 307.584 
L 257.143746 307.584 
L 257.143746 274.236632 
L 254.25919 274.236632 
z
" style="fill:#0000ff;"/>
   </g>
   <g id="patch_54">
    <path clip-path="url(#paa70a717e3)" d="M 257.14378 307.584 
L 260.028345 307.584 
L 260.028345 280.906105 
L 257.14378 280.906105 
z
" style="fill:#0000ff;"/>
   </g>
   <g id="patch_55">
    <path clip-path="url(#paa70a717e3)" d="M 260.028328 307.584 
L 262.912875 307.584 
L 262.912875 270.901895 
L 260.028328 270.901895 
z
" style="fill:#0000ff;"/>
   </g>
   <g id="patch_56">
    <path clip-path="url(#paa70a717e3)" d="M 262.912875 307.584 
L 265.79744 307.584 
L 265.79744 277.571368 
L 262.912875 277.571368 
z
" style="fill:#0000ff;"/>
   </g>
   <g id="patch_57">
    <path clip-path="url(#paa70a717e3)" d="M 265.797457 307.584 
L 268.682021 307.584 
L 268.682021 244.224 
L 265.797457 244.224 
z
" style="fill:#0000ff;"/>
   </g>
   <g id="patch_58">
    <path clip-path="url(#paa70a717e3)" d="M 268.682004 307.584 
L 271.566569 307.584 
L 271.566569 277.571368 
L 268.682004 277.571368 
z
" style="fill:#0000ff;"/>
   </g>
   <g id="patch_59">
    <path clip-path="url(#paa70a717e3)" d="M 271.566586 307.584 
L 274.451151 307.584 
L 274.451151 260.897684 
L 271.566586 260.897684 
z
" style="fill:#0000ff;"/>
   </g>
   <g id="patch_60">
    <path clip-path="url(#paa70a717e3)" d="M 274.451133 307.584 
L 277.335681 307.584 
L 277.335681 277.571368 
L 274.451133 277.571368 
z
" style="fill:#0000ff;"/>
   </g>
   <g id="patch_61">
    <path clip-path="url(#paa70a717e3)" d="M 277.335681 307.584 
L 280.220245 307.584 
L 280.220245 227.550316 
L 277.335681 227.550316 
z
" style="fill:#0000ff;"/>
   </g>
   <g id="patch_62">
    <path clip-path="url(#paa70a717e3)" d="M 280.220263 307.584 
L 283.104827 307.584 
L 283.104827 254.228211 
L 280.220263 254.228211 
z
" style="fill:#0000ff;"/>
   </g>
   <g id="patch_63">
    <path clip-path="url(#paa70a717e3)" d="M 283.10481 307.584 
L 285.989374 307.584 
L 285.989374 200.872421 
L 283.10481 200.872421 
z
" style="fill:#0000ff;"/>
   </g>
   <g id="patch_64">
    <path clip-path="url(#paa70a717e3)" d="M 285.989392 307.584 
L 288.873956 307.584 
L 288.873956 227.550316 
L 285.989392 227.550316 
z
" style="fill:#0000ff;"/>
   </g>
   <g id="patch_65">
    <path clip-path="url(#paa70a717e3)" d="M 288.873939 307.584 
L 291.758486 307.584 
L 291.758486 234.219789 
L 288.873939 234.219789 
z
" style="fill:#0000ff;"/>
   </g>
   <g id="patch_66">
    <path clip-path="url(#paa70a717e3)" d="M 291.758486 307.584 
L 294.643051 307.584 
L 294.643051 227.550316 
L 291.758486 227.550316 
z
" style="fill:#0000ff;"/>
   </g>
   <g id="patch_67">
    <path clip-path="url(#paa70a717e3)" d="M 294.643068 307.584 
L 297.527633 307.584 
L 297.527633 220.880842 
L 294.643068 220.880842 
z
" style="fill:#0000ff;"/>
   </g>
   <g id="patch_68">
    <path clip-path="url(#paa70a717e3)" d="M 297.527616 307.584 
L 300.41218 307.584 
L 300.41218 197.537684 
L 297.527616 197.537684 
z
" style="fill:#0000ff;"/>
   </g>
   <g id="patch_69">
    <path clip-path="url(#paa70a717e3)" d="M 300.412197 307.584 
L 303.296762 307.584 
L 303.296762 200.872421 
L 300.412197 200.872421 
z
" style="fill:#0000ff;"/>
   </g>
   <g id="patch_70">
    <path clip-path="url(#paa70a717e3)" d="M 303.296745 307.584 
L 306.181292 307.584 
L 306.181292 177.529263 
L 303.296745 177.529263 
z
" style="fill:#0000ff;"/>
   </g>
   <g id="patch_71">
    <path clip-path="url(#paa70a717e3)" d="M 306.181292 307.584 
L 309.065857 307.584 
L 309.065857 224.215579 
L 306.181292 224.215579 
z
" style="fill:#0000ff;"/>
   </g>
   <g id="patch_72">
    <path clip-path="url(#paa70a717e3)" d="M 309.065874 307.584 
L 311.950439 307.584 
L 311.950439 190.868211 
L 309.065874 190.868211 
z
" style="fill:#0000ff;"/>
   </g>
   <g id="patch_73">
    <path clip-path="url(#paa70a717e3)" d="M 311.950421 307.584 
L 314.834986 307.584 
L 314.834986 217.546105 
L 311.950421 217.546105 
z
" style="fill:#0000ff;"/>
   </g>
   <g id="patch_74">
    <path clip-path="url(#paa70a717e3)" d="M 314.835003 307.584 
L 317.719568 307.584 
L 317.719568 227.550316 
L 314.835003 227.550316 
z
" style="fill:#0000ff;"/>
   </g>
   <g id="patch_75">
    <path clip-path="url(#paa70a717e3)" d="M 317.71955 307.584 
L 320.604098 307.584 
L 320.604098 217.546105 
L 317.71955 217.546105 
z
" style="fill:#0000ff;"/>
   </g>
   <g id="patch_76">
    <path clip-path="url(#paa70a717e3)" d="M 320.604098 307.584 
L 323.488662 307.584 
L 323.488662 234.219789 
L 320.604098 234.219789 
z
" style="fill:#0000ff;"/>
   </g>
   <g id="patch_77">
    <path clip-path="url(#paa70a717e3)" d="M 323.48868 307.584 
L 326.373244 307.584 
L 326.373244 220.880842 
L 323.48868 220.880842 
z
" style="fill:#0000ff;"/>
   </g>
   <g id="patch_78">
    <path clip-path="url(#paa70a717e3)" d="M 326.373227 307.584 
L 329.257792 307.584 
L 329.257792 247.558737 
L 326.373227 247.558737 
z
" style="fill:#0000ff;"/>
   </g>
   <g id="patch_79">
    <path clip-path="url(#paa70a717e3)" d="M 329.257809 307.584 
L 332.142373 307.584 
L 332.142373 207.541895 
L 329.257809 207.541895 
z
" style="fill:#0000ff;"/>
   </g>
   <g id="patch_80">
    <path clip-path="url(#paa70a717e3)" d="M 332.142356 307.584 
L 335.026904 307.584 
L 335.026904 267.567158 
L 332.142356 267.567158 
z
" style="fill:#0000ff;"/>
   </g>
   <g id="patch_81">
    <path clip-path="url(#paa70a717e3)" d="M 335.026904 307.584 
L 337.911468 307.584 
L 337.911468 254.228211 
L 335.026904 254.228211 
z
" style="fill:#0000ff;"/>
   </g>
   <g id="patch_82">
    <path clip-path="url(#paa70a717e3)" d="M 337.911485 307.584 
L 340.79605 307.584 
L 340.79605 270.901895 
L 337.911485 270.901895 
z
" style="fill:#0000ff;"/>
   </g>
   <g id="patch_83">
    <path clip-path="url(#paa70a717e3)" d="M 340.796033 307.584 
L 343.680597 307.584 
L 343.680597 274.236632 
L 340.796033 274.236632 
z
" style="fill:#0000ff;"/>
   </g>
   <g id="patch_84">
    <path clip-path="url(#paa70a717e3)" d="M 343.680615 307.584 
L 346.565179 307.584 
L 346.565179 264.232421 
L 343.680615 264.232421 
z
" style="fill:#0000ff;"/>
   </g>
   <g id="patch_85">
    <path clip-path="url(#paa70a717e3)" d="M 346.565162 307.584 
L 349.449709 307.584 
L 349.449709 280.906105 
L 346.565162 280.906105 
z
" style="fill:#0000ff;"/>
   </g>
   <g id="patch_86">
    <path clip-path="url(#paa70a717e3)" d="M 349.449709 307.584 
L 352.334274 307.584 
L 352.334274 274.236632 
L 349.449709 274.236632 
z
" style="fill:#0000ff;"/>
   </g>
   <g id="patch_87">
    <path clip-path="url(#paa70a717e3)" d="M 352.334291 307.584 
L 355.218856 307.584 
L 355.218856 284.240842 
L 352.334291 284.240842 
z
" style="fill:#0000ff;"/>
   </g>
   <g id="patch_88">
    <path clip-path="url(#paa70a717e3)" d="M 355.218838 307.584 
L 358.103403 307.584 
L 358.103403 280.906105 
L 355.218838 280.906105 
z
" style="fill:#0000ff;"/>
   </g>
   <g id="patch_89">
    <path clip-path="url(#paa70a717e3)" d="M 358.10342 307.584 
L 360.987985 307.584 
L 360.987985 294.245053 
L 358.10342 294.245053 
z
" style="fill:#0000ff;"/>
   </g>
   <g id="patch_90">
    <path clip-path="url(#paa70a717e3)" d="M 360.987968 307.584 
L 363.872515 307.584 
L 363.872515 297.579789 
L 360.987968 297.579789 
z
" style="fill:#0000ff;"/>
   </g>
   <g id="patch_91">
    <path clip-path="url(#paa70a717e3)" d="M 363.872515 307.584 
L 366.757079 307.584 
L 366.757079 297.579789 
L 363.872515 297.579789 
z
" style="fill:#0000ff;"/>
   </g>
   <g id="patch_92">
    <path clip-path="url(#paa70a717e3)" d="M 366.757097 307.584 
L 369.641661 307.584 
L 369.641661 300.914526 
L 366.757097 300.914526 
z
" style="fill:#0000ff;"/>
   </g>
   <g id="patch_93">
    <path clip-path="url(#paa70a717e3)" d="M 369.641644 307.584 
L 372.526209 307.584 
L 372.526209 307.584 
L 369.641644 307.584 
z
" style="fill:#0000ff;"/>
   </g>
   <g id="patch_94">
    <path clip-path="url(#paa70a717e3)" d="M 372.526226 307.584 
L 375.410791 307.584 
L 375.410791 304.249263 
L 372.526226 304.249263 
z
" style="fill:#0000ff;"/>
   </g>
   <g id="patch_95">
    <path clip-path="url(#paa70a717e3)" d="M 375.410773 307.584 
L 378.295321 307.584 
L 378.295321 304.249263 
L 375.410773 304.249263 
z
" style="fill:#0000ff;"/>
   </g>
   <g id="patch_96">
    <path clip-path="url(#paa70a717e3)" d="M 378.295321 307.584 
L 381.179885 307.584 
L 381.179885 300.914526 
L 378.295321 300.914526 
z
" style="fill:#0000ff;"/>
   </g>
   <g id="patch_97">
    <path clip-path="url(#paa70a717e3)" d="M 381.179902 307.584 
L 384.064467 307.584 
L 384.064467 307.584 
L 381.179902 307.584 
z
" style="fill:#0000ff;"/>
   </g>
   <g id="patch_98">
    <path clip-path="url(#paa70a717e3)" d="M 384.06445 307.584 
L 386.949014 307.584 
L 386.949014 307.584 
L 384.06445 307.584 
z
" style="fill:#0000ff;"/>
   </g>
   <g id="patch_99">
    <path clip-path="url(#paa70a717e3)" d="M 386.949032 307.584 
L 389.833596 307.584 
L 389.833596 307.584 
L 386.949032 307.584 
z
" style="fill:#0000ff;"/>
   </g>
   <g id="patch_100">
    <path clip-path="url(#paa70a717e3)" d="M 389.833579 307.584 
L 392.718126 307.584 
L 392.718126 304.249263 
L 389.833579 304.249263 
z
" style="fill:#0000ff;"/>
   </g>
   <g id="patch_101">
    <path clip-path="url(#paa70a717e3)" d="M 392.718126 307.584 
L 395.602691 307.584 
L 395.602691 307.584 
L 392.718126 307.584 
z
" style="fill:#0000ff;"/>
   </g>
   <g id="patch_102">
    <path clip-path="url(#paa70a717e3)" d="M 395.602708 307.584 
L 398.487273 307.584 
L 398.487273 304.249263 
L 395.602708 304.249263 
z
" style="fill:#0000ff;"/>
   </g>
   <g id="patch_103">
    <path clip-path="url(#paa70a717e3)" d="M 73.832727 307.584 
L 74.364391 307.584 
L 74.364391 287.575579 
L 73.832727 287.575579 
z
" style="fill:#808080;"/>
   </g>
   <g id="patch_104">
    <path clip-path="url(#paa70a717e3)" d="M 74.364391 307.584 
L 74.896056 307.584 
L 74.896056 307.584 
L 74.364391 307.584 
z
" style="fill:#808080;"/>
   </g>
   <g id="patch_105">
    <path clip-path="url(#paa70a717e3)" d="M 74.896054 307.584 
L 75.427718 307.584 
L 75.427718 290.910316 
L 74.896054 290.910316 
z
" style="fill:#808080;"/>
   </g>
   <g id="patch_106">
    <path clip-path="url(#paa70a717e3)" d="M 75.42772 307.584 
L 75.959383 307.584 
L 75.959383 307.584 
L 75.42772 307.584 
z
" style="fill:#808080;"/>
   </g>
   <g id="patch_107">
    <path clip-path="url(#paa70a717e3)" d="M 75.959383 307.584 
L 76.491049 307.584 
L 76.491049 280.906105 
L 75.959383 280.906105 
z
" style="fill:#808080;"/>
   </g>
   <g id="patch_108">
    <path clip-path="url(#paa70a717e3)" d="M 76.491047 307.584 
L 77.02271 307.584 
L 77.02271 307.584 
L 76.491047 307.584 
z
" style="fill:#808080;"/>
   </g>
   <g id="patch_109">
    <path clip-path="url(#paa70a717e3)" d="M 77.022712 307.584 
L 77.554378 307.584 
L 77.554378 254.228211 
L 77.022712 254.228211 
z
" style="fill:#808080;"/>
   </g>
   <g id="patch_110">
    <path clip-path="url(#paa70a717e3)" d="M 77.554378 307.584 
L 78.086041 307.584 
L 78.086041 307.584 
L 77.554378 307.584 
z
" style="fill:#808080;"/>
   </g>
   <g id="patch_111">
    <path clip-path="url(#paa70a717e3)" d="M 78.086039 307.584 
L 78.617702 307.584 
L 78.617702 254.228211 
L 78.086039 254.228211 
z
" style="fill:#808080;"/>
   </g>
   <g id="patch_112">
    <path clip-path="url(#paa70a717e3)" d="M 78.617705 307.584 
L 79.14937 307.584 
L 79.14937 307.584 
L 78.617705 307.584 
z
" style="fill:#808080;"/>
   </g>
   <g id="patch_113">
    <path clip-path="url(#paa70a717e3)" d="M 79.14937 307.584 
L 79.681034 307.584 
L 79.681034 257.562947 
L 79.14937 257.562947 
z
" style="fill:#808080;"/>
   </g>
   <g id="patch_114">
    <path clip-path="url(#paa70a717e3)" d="M 79.681032 307.584 
L 80.212695 307.584 
L 80.212695 307.584 
L 79.681032 307.584 
z
" style="fill:#808080;"/>
   </g>
   <g id="patch_115">
    <path clip-path="url(#paa70a717e3)" d="M 80.212697 307.584 
L 80.744363 307.584 
L 80.744363 240.889263 
L 80.212697 240.889263 
z
" style="fill:#808080;"/>
   </g>
   <g id="patch_116">
    <path clip-path="url(#paa70a717e3)" d="M 80.744363 307.584 
L 81.276026 307.584 
L 81.276026 307.584 
L 80.744363 307.584 
z
" style="fill:#808080;"/>
   </g>
   <g id="patch_117">
    <path clip-path="url(#paa70a717e3)" d="M 81.276024 307.584 
L 81.807687 307.584 
L 81.807687 230.885053 
L 81.276024 230.885053 
z
" style="fill:#808080;"/>
   </g>
   <g id="patch_118">
    <path clip-path="url(#paa70a717e3)" d="M 81.80769 307.584 
L 82.339355 307.584 
L 82.339355 307.584 
L 81.80769 307.584 
z
" style="fill:#808080;"/>
   </g>
   <g id="patch_119">
    <path clip-path="url(#paa70a717e3)" d="M 82.339355 307.584 
L 82.871019 307.584 
L 82.871019 307.584 
L 82.339355 307.584 
z
" style="fill:#808080;"/>
   </g>
   <g id="patch_120">
    <path clip-path="url(#paa70a717e3)" d="M 82.871016 307.584 
L 83.40268 307.584 
L 83.40268 244.224 
L 82.871016 244.224 
z
" style="fill:#808080;"/>
   </g>
   <g id="patch_121">
    <path clip-path="url(#paa70a717e3)" d="M 83.402682 307.584 
L 83.934348 307.584 
L 83.934348 307.584 
L 83.402682 307.584 
z
" style="fill:#808080;"/>
   </g>
   <g id="patch_122">
    <path clip-path="url(#paa70a717e3)" d="M 83.934348 307.584 
L 84.466011 307.584 
L 84.466011 237.554526 
L 83.934348 237.554526 
z
" style="fill:#808080;"/>
   </g>
   <g id="patch_123">
    <path clip-path="url(#paa70a717e3)" d="M 84.466011 307.584 
L 84.997677 307.584 
L 84.997677 307.584 
L 84.466011 307.584 
z
" style="fill:#808080;"/>
   </g>
   <g id="patch_124">
    <path clip-path="url(#paa70a717e3)" d="M 84.997674 307.584 
L 85.529338 307.584 
L 85.529338 190.868211 
L 84.997674 190.868211 
z
" style="fill:#808080;"/>
   </g>
   <g id="patch_125">
    <path clip-path="url(#paa70a717e3)" d="M 85.52934 307.584 
L 86.061003 307.584 
L 86.061003 307.584 
L 85.52934 307.584 
z
" style="fill:#808080;"/>
   </g>
   <g id="patch_126">
    <path clip-path="url(#paa70a717e3)" d="M 86.061003 307.584 
L 86.592669 307.584 
L 86.592669 230.885053 
L 86.061003 230.885053 
z
" style="fill:#808080;"/>
   </g>
   <g id="patch_127">
    <path clip-path="url(#paa70a717e3)" d="M 86.592667 307.584 
L 87.12433 307.584 
L 87.12433 307.584 
L 86.592667 307.584 
z
" style="fill:#808080;"/>
   </g>
   <g id="patch_128">
    <path clip-path="url(#paa70a717e3)" d="M 87.124333 307.584 
L 87.655996 307.584 
L 87.655996 154.186105 
L 87.124333 154.186105 
z
" style="fill:#808080;"/>
   </g>
   <g id="patch_129">
    <path clip-path="url(#paa70a717e3)" d="M 87.655996 307.584 
L 88.187662 307.584 
L 88.187662 307.584 
L 87.655996 307.584 
z
" style="fill:#808080;"/>
   </g>
   <g id="patch_130">
    <path clip-path="url(#paa70a717e3)" d="M 88.187659 307.584 
L 88.719323 307.584 
L 88.719323 134.177684 
L 88.187659 134.177684 
z
" style="fill:#808080;"/>
   </g>
   <g id="patch_131">
    <path clip-path="url(#paa70a717e3)" d="M 88.719325 307.584 
L 89.250988 307.584 
L 89.250988 307.584 
L 88.719325 307.584 
z
" style="fill:#808080;"/>
   </g>
   <g id="patch_132">
    <path clip-path="url(#paa70a717e3)" d="M 89.250988 307.584 
L 89.782654 307.584 
L 89.782654 147.516632 
L 89.250988 147.516632 
z
" style="fill:#808080;"/>
   </g>
   <g id="patch_133">
    <path clip-path="url(#paa70a717e3)" d="M 89.782652 307.584 
L 90.314315 307.584 
L 90.314315 307.584 
L 89.782652 307.584 
z
" style="fill:#808080;"/>
   </g>
   <g id="patch_134">
    <path clip-path="url(#paa70a717e3)" d="M 90.314317 307.584 
L 90.845983 307.584 
L 90.845983 90.826105 
L 90.314317 90.826105 
z
" style="fill:#808080;"/>
   </g>
   <g id="patch_135">
    <path clip-path="url(#paa70a717e3)" d="M 90.845983 307.584 
L 91.377646 307.584 
L 91.377646 307.584 
L 90.845983 307.584 
z
" style="fill:#808080;"/>
   </g>
   <g id="patch_136">
    <path clip-path="url(#paa70a717e3)" d="M 91.377644 307.584 
L 91.909308 307.584 
L 91.909308 307.584 
L 91.377644 307.584 
z
" style="fill:#808080;"/>
   </g>
   <g id="patch_137">
    <path clip-path="url(#paa70a717e3)" d="M 91.90931 307.584 
L 92.440975 307.584 
L 92.440975 307.584 
L 91.90931 307.584 
z
" style="fill:#808080;"/>
   </g>
   <g id="patch_138">
    <path clip-path="url(#paa70a717e3)" d="M 92.440973 307.584 
L 92.972639 307.584 
L 92.972639 307.584 
L 92.440973 307.584 
z
" style="fill:#808080;"/>
   </g>
   <g id="patch_139">
    <path clip-path="url(#paa70a717e3)" d="M 92.972639 307.584 
L 93.504305 307.584 
L 93.504305 307.584 
L 92.972639 307.584 
z
" style="fill:#808080;"/>
   </g>
   <g id="patch_140">
    <path clip-path="url(#paa70a717e3)" d="M 93.504303 307.584 
L 94.035967 307.584 
L 94.035967 307.584 
L 93.504303 307.584 
z
" style="fill:#808080;"/>
   </g>
   <g id="patch_141">
    <path clip-path="url(#paa70a717e3)" d="M 94.035966 307.584 
L 94.567631 307.584 
L 94.567631 307.584 
L 94.035966 307.584 
z
" style="fill:#808080;"/>
   </g>
   <g id="patch_142">
    <path clip-path="url(#paa70a717e3)" d="M 94.567631 307.584 
L 95.099297 307.584 
L 95.099297 307.584 
L 94.567631 307.584 
z
" style="fill:#808080;"/>
   </g>
   <g id="patch_143">
    <path clip-path="url(#paa70a717e3)" d="M 95.099295 307.584 
L 95.63096 307.584 
L 95.63096 307.584 
L 95.099295 307.584 
z
" style="fill:#808080;"/>
   </g>
   <g id="patch_144">
    <path clip-path="url(#paa70a717e3)" d="M 95.63096 307.584 
L 96.162624 307.584 
L 96.162624 307.584 
L 95.63096 307.584 
z
" style="fill:#808080;"/>
   </g>
   <g id="patch_145">
    <path clip-path="url(#paa70a717e3)" d="M 96.162624 307.584 
L 96.694289 307.584 
L 96.694289 307.584 
L 96.162624 307.584 
z
" style="fill:#808080;"/>
   </g>
   <g id="patch_146">
    <path clip-path="url(#paa70a717e3)" d="M 96.694287 307.584 
L 97.225953 307.584 
L 97.225953 307.584 
L 96.694287 307.584 
z
" style="fill:#808080;"/>
   </g>
   <g id="patch_147">
    <path clip-path="url(#paa70a717e3)" d="M 97.225953 307.584 
L 97.757616 307.584 
L 97.757616 307.584 
L 97.225953 307.584 
z
" style="fill:#808080;"/>
   </g>
   <g id="patch_148">
    <path clip-path="url(#paa70a717e3)" d="M 97.757616 307.584 
L 98.289282 307.584 
L 98.289282 307.584 
L 97.757616 307.584 
z
" style="fill:#808080;"/>
   </g>
   <g id="patch_149">
    <path clip-path="url(#paa70a717e3)" d="M 98.28928 307.584 
L 98.820945 307.584 
L 98.820945 307.584 
L 98.28928 307.584 
z
" style="fill:#808080;"/>
   </g>
   <g id="patch_150">
    <path clip-path="url(#paa70a717e3)" d="M 98.820945 307.584 
L 99.352611 307.584 
L 99.352611 307.584 
L 98.820945 307.584 
z
" style="fill:#808080;"/>
   </g>
   <g id="patch_151">
    <path clip-path="url(#paa70a717e3)" d="M 99.35261 307.584 
L 99.884273 307.584 
L 99.884273 307.584 
L 99.35261 307.584 
z
" style="fill:#808080;"/>
   </g>
   <g id="patch_152">
    <path clip-path="url(#paa70a717e3)" d="M 99.884272 307.584 
L 100.415938 307.584 
L 100.415938 307.584 
L 99.884272 307.584 
z
" style="fill:#808080;"/>
   </g>
   <g id="patch_153">
    <path clip-path="url(#paa70a717e3)" d="M 100.415938 307.584 
L 100.947603 307.584 
L 100.947603 307.584 
L 100.415938 307.584 
z
" style="fill:#808080;"/>
   </g>
   <g id="patch_154">
    <path clip-path="url(#paa70a717e3)" d="M 100.947602 307.584 
L 101.479266 307.584 
L 101.479266 307.584 
L 100.947602 307.584 
z
" style="fill:#808080;"/>
   </g>
   <g id="patch_155">
    <path clip-path="url(#paa70a717e3)" d="M 101.479267 307.584 
L 102.01093 307.584 
L 102.01093 307.584 
L 101.479267 307.584 
z
" style="fill:#808080;"/>
   </g>
   <g id="patch_156">
    <path clip-path="url(#paa70a717e3)" d="M 102.01093 307.584 
L 102.542595 307.584 
L 102.542595 307.584 
L 102.01093 307.584 
z
" style="fill:#808080;"/>
   </g>
   <g id="patch_157">
    <path clip-path="url(#paa70a717e3)" d="M 102.542595 307.584 
L 103.074258 307.584 
L 103.074258 307.584 
L 102.542595 307.584 
z
" style="fill:#808080;"/>
   </g>
   <g id="patch_158">
    <path clip-path="url(#paa70a717e3)" d="M 103.074258 307.584 
L 103.605924 307.584 
L 103.605924 307.584 
L 103.074258 307.584 
z
" style="fill:#808080;"/>
   </g>
   <g id="patch_159">
    <path clip-path="url(#paa70a717e3)" d="M 103.605924 307.584 
L 104.137587 307.584 
L 104.137587 307.584 
L 103.605924 307.584 
z
" style="fill:#808080;"/>
   </g>
   <g id="patch_160">
    <path clip-path="url(#paa70a717e3)" d="M 104.137587 307.584 
L 104.669252 307.584 
L 104.669252 307.584 
L 104.137587 307.584 
z
" style="fill:#808080;"/>
   </g>
   <g id="patch_161">
    <path clip-path="url(#paa70a717e3)" d="M 104.669252 307.584 
L 105.200915 307.584 
L 105.200915 307.584 
L 104.669252 307.584 
z
" style="fill:#808080;"/>
   </g>
   <g id="patch_162">
    <path clip-path="url(#paa70a717e3)" d="M 105.200916 307.584 
L 105.73258 307.584 
L 105.73258 307.584 
L 105.200916 307.584 
z
" style="fill:#808080;"/>
   </g>
   <g id="patch_163">
    <path clip-path="url(#paa70a717e3)" d="M 105.73258 307.584 
L 106.264244 307.584 
L 106.264244 307.584 
L 105.73258 307.584 
z
" style="fill:#808080;"/>
   </g>
   <g id="patch_164">
    <path clip-path="url(#paa70a717e3)" d="M 106.264245 307.584 
L 106.795908 307.584 
L 106.795908 307.584 
L 106.264245 307.584 
z
" style="fill:#808080;"/>
   </g>
   <g id="patch_165">
    <path clip-path="url(#paa70a717e3)" d="M 106.795909 307.584 
L 107.327572 307.584 
L 107.327572 307.584 
L 106.795909 307.584 
z
" style="fill:#808080;"/>
   </g>
   <g id="patch_166">
    <path clip-path="url(#paa70a717e3)" d="M 107.327573 307.584 
L 107.859236 307.584 
L 107.859236 307.584 
L 107.327573 307.584 
z
" style="fill:#808080;"/>
   </g>
   <g id="patch_167">
    <path clip-path="url(#paa70a717e3)" d="M 107.859237 307.584 
L 108.390901 307.584 
L 108.390901 307.584 
L 107.859237 307.584 
z
" style="fill:#808080;"/>
   </g>
   <g id="patch_168">
    <path clip-path="url(#paa70a717e3)" d="M 108.390901 307.584 
L 108.922565 307.584 
L 108.922565 307.584 
L 108.390901 307.584 
z
" style="fill:#808080;"/>
   </g>
   <g id="patch_169">
    <path clip-path="url(#paa70a717e3)" d="M 108.922566 307.584 
L 109.454229 307.584 
L 109.454229 307.584 
L 108.922566 307.584 
z
" style="fill:#808080;"/>
   </g>
   <g id="patch_170">
    <path clip-path="url(#paa70a717e3)" d="M 109.45423 307.584 
L 109.985893 307.584 
L 109.985893 307.584 
L 109.45423 307.584 
z
" style="fill:#808080;"/>
   </g>
   <g id="patch_171">
    <path clip-path="url(#paa70a717e3)" d="M 109.985894 307.584 
L 110.517557 307.584 
L 110.517557 54.144 
L 109.985894 54.144 
z
" style="fill:#808080;"/>
   </g>
   <g id="patch_172">
    <path clip-path="url(#paa70a717e3)" d="M 110.517558 307.584 
L 111.049222 307.584 
L 111.049222 307.584 
L 110.517558 307.584 
z
" style="fill:#808080;"/>
   </g>
   <g id="patch_173">
    <path clip-path="url(#paa70a717e3)" d="M 111.049222 307.584 
L 111.580886 307.584 
L 111.580886 84.156632 
L 111.049222 84.156632 
z
" style="fill:#808080;"/>
   </g>
   <g id="patch_174">
    <path clip-path="url(#paa70a717e3)" d="M 111.580887 307.584 
L 112.11255 307.584 
L 112.11255 307.584 
L 111.580887 307.584 
z
" style="fill:#808080;"/>
   </g>
   <g id="patch_175">
    <path clip-path="url(#paa70a717e3)" d="M 112.112551 307.584 
L 112.644214 307.584 
L 112.644214 127.508211 
L 112.112551 127.508211 
z
" style="fill:#808080;"/>
   </g>
   <g id="patch_176">
    <path clip-path="url(#paa70a717e3)" d="M 112.644215 307.584 
L 113.175879 307.584 
L 113.175879 307.584 
L 112.644215 307.584 
z
" style="fill:#808080;"/>
   </g>
   <g id="patch_177">
    <path clip-path="url(#paa70a717e3)" d="M 113.175879 307.584 
L 113.707542 307.584 
L 113.707542 124.173474 
L 113.175879 124.173474 
z
" style="fill:#808080;"/>
   </g>
   <g id="patch_178">
    <path clip-path="url(#paa70a717e3)" d="M 113.707544 307.584 
L 114.239207 307.584 
L 114.239207 307.584 
L 113.707544 307.584 
z
" style="fill:#808080;"/>
   </g>
   <g id="patch_179">
    <path clip-path="url(#paa70a717e3)" d="M 114.239208 307.584 
L 114.770871 307.584 
L 114.770871 160.855579 
L 114.239208 160.855579 
z
" style="fill:#808080;"/>
   </g>
   <g id="patch_180">
    <path clip-path="url(#paa70a717e3)" d="M 114.770872 307.584 
L 115.302535 307.584 
L 115.302535 307.584 
L 114.770872 307.584 
z
" style="fill:#808080;"/>
   </g>
   <g id="patch_181">
    <path clip-path="url(#paa70a717e3)" d="M 115.302535 307.584 
L 115.834201 307.584 
L 115.834201 177.529263 
L 115.302535 177.529263 
z
" style="fill:#808080;"/>
   </g>
   <g id="patch_182">
    <path clip-path="url(#paa70a717e3)" d="M 115.8342 307.584 
L 116.365863 307.584 
L 116.365863 307.584 
L 115.8342 307.584 
z
" style="fill:#808080;"/>
   </g>
   <g id="patch_183">
    <path clip-path="url(#paa70a717e3)" d="M 116.365863 307.584 
L 116.897529 307.584 
L 116.897529 230.885053 
L 116.365863 230.885053 
z
" style="fill:#808080;"/>
   </g>
   <g id="patch_184">
    <path clip-path="url(#paa70a717e3)" d="M 116.897529 307.584 
L 117.429192 307.584 
L 117.429192 307.584 
L 116.897529 307.584 
z
" style="fill:#808080;"/>
   </g>
   <g id="patch_185">
    <path clip-path="url(#paa70a717e3)" d="M 117.429192 307.584 
L 117.960857 307.584 
L 117.960857 234.219789 
L 117.429192 234.219789 
z
" style="fill:#808080;"/>
   </g>
   <g id="patch_186">
    <path clip-path="url(#paa70a717e3)" d="M 117.960857 307.584 
L 118.49252 307.584 
L 118.49252 307.584 
L 117.960857 307.584 
z
" style="fill:#808080;"/>
   </g>
   <g id="patch_187">
    <path clip-path="url(#paa70a717e3)" d="M 118.492521 307.584 
L 119.024185 307.584 
L 119.024185 307.584 
L 118.492521 307.584 
z
" style="fill:#808080;"/>
   </g>
   <g id="patch_188">
    <path clip-path="url(#paa70a717e3)" d="M 119.024184 307.584 
L 119.555849 307.584 
L 119.555849 254.228211 
L 119.024184 254.228211 
z
" style="fill:#808080;"/>
   </g>
   <g id="patch_189">
    <path clip-path="url(#paa70a717e3)" d="M 119.555849 307.584 
L 120.087515 307.584 
L 120.087515 307.584 
L 119.555849 307.584 
z
" style="fill:#808080;"/>
   </g>
   <g id="patch_190">
    <path clip-path="url(#paa70a717e3)" d="M 120.087514 307.584 
L 120.619177 307.584 
L 120.619177 257.562947 
L 120.087514 257.562947 
z
" style="fill:#808080;"/>
   </g>
   <g id="patch_191">
    <path clip-path="url(#paa70a717e3)" d="M 120.619176 307.584 
L 121.150842 307.584 
L 121.150842 307.584 
L 120.619176 307.584 
z
" style="fill:#808080;"/>
   </g>
   <g id="patch_192">
    <path clip-path="url(#paa70a717e3)" d="M 121.150842 307.584 
L 121.682507 307.584 
L 121.682507 294.245053 
L 121.150842 294.245053 
z
" style="fill:#808080;"/>
   </g>
   <g id="patch_193">
    <path clip-path="url(#paa70a717e3)" d="M 121.682505 307.584 
L 122.214171 307.584 
L 122.214171 307.584 
L 121.682505 307.584 
z
" style="fill:#808080;"/>
   </g>
   <g id="patch_194">
    <path clip-path="url(#paa70a717e3)" d="M 122.214171 307.584 
L 122.745834 307.584 
L 122.745834 304.249263 
L 122.214171 304.249263 
z
" style="fill:#808080;"/>
   </g>
   <g id="patch_195">
    <path clip-path="url(#paa70a717e3)" d="M 122.745834 307.584 
L 123.2775 307.584 
L 123.2775 307.584 
L 122.745834 307.584 
z
" style="fill:#808080;"/>
   </g>
   <g id="patch_196">
    <path clip-path="url(#paa70a717e3)" d="M 123.277498 307.584 
L 123.809163 307.584 
L 123.809163 294.245053 
L 123.277498 294.245053 
z
" style="fill:#808080;"/>
   </g>
   <g id="patch_197">
    <path clip-path="url(#paa70a717e3)" d="M 123.809163 307.584 
L 124.340827 307.584 
L 124.340827 307.584 
L 123.809163 307.584 
z
" style="fill:#808080;"/>
   </g>
   <g id="patch_198">
    <path clip-path="url(#paa70a717e3)" d="M 124.340827 307.584 
L 124.872492 307.584 
L 124.872492 307.584 
L 124.340827 307.584 
z
" style="fill:#808080;"/>
   </g>
   <g id="patch_199">
    <path clip-path="url(#paa70a717e3)" d="M 124.87249 307.584 
L 125.404156 307.584 
L 125.404156 307.584 
L 124.87249 307.584 
z
" style="fill:#808080;"/>
   </g>
   <g id="patch_200">
    <path clip-path="url(#paa70a717e3)" d="M 125.404156 307.584 
L 125.935821 307.584 
L 125.935821 304.249263 
L 125.404156 304.249263 
z
" style="fill:#808080;"/>
   </g>
   <g id="patch_201">
    <path clip-path="url(#paa70a717e3)" d="M 125.93582 307.584 
L 126.467484 307.584 
L 126.467484 307.584 
L 125.93582 307.584 
z
" style="fill:#808080;"/>
   </g>
   <g id="patch_202">
    <path clip-path="url(#paa70a717e3)" d="M 126.467483 307.584 
L 126.999148 307.584 
L 126.999148 304.249263 
L 126.467483 304.249263 
z
" style="fill:#808080;"/>
   </g>
   <g id="matplotlib.axis_1">
    <g id="xtick_1">
     <g id="line2d_1">
      <defs>
       <path d="M 0 0 
L 0 3.5 
" id="mcf92d98b06" style="stroke:#000000;stroke-width:0.8;"/>
      </defs>
      <g>
       <use style="stroke:#000000;stroke-width:0.8;" x="110.031142" xlink:href="#mcf92d98b06" y="307.584"/>
      </g>
     </g>
     <g id="text_1">
      <!-- 0 -->
      <defs>
       <path d="M 31.78125 66.40625 
Q 24.171875 66.40625 20.328125 58.90625 
Q 16.5 51.421875 16.5 36.375 
Q 16.5 21.390625 20.328125 13.890625 
Q 24.171875 6.390625 31.78125 6.390625 
Q 39.453125 6.390625 43.28125 13.890625 
Q 47.125 21.390625 47.125 36.375 
Q 47.125 51.421875 43.28125 58.90625 
Q 39.453125 66.40625 31.78125 66.40625 
z
M 31.78125 74.21875 
Q 44.046875 74.21875 50.515625 64.515625 
Q 56.984375 54.828125 56.984375 36.375 
Q 56.984375 17.96875 50.515625 8.265625 
Q 44.046875 -1.421875 31.78125 -1.421875 
Q 19.53125 -1.421875 13.0625 8.265625 
Q 6.59375 17.96875 6.59375 36.375 
Q 6.59375 54.828125 13.0625 64.515625 
Q 19.53125 74.21875 31.78125 74.21875 
z
" id="DejaVuSans-48"/>
      </defs>
      <g transform="translate(106.849892 322.182437)scale(0.1 -0.1)">
       <use xlink:href="#DejaVuSans-48"/>
      </g>
     </g>
    </g>
    <g id="xtick_2">
     <g id="line2d_2">
      <g>
       <use style="stroke:#000000;stroke-width:0.8;" x="166.591164" xlink:href="#mcf92d98b06" y="307.584"/>
      </g>
     </g>
     <g id="text_2">
      <!-- 50 -->
      <defs>
       <path d="M 10.796875 72.90625 
L 49.515625 72.90625 
L 49.515625 64.59375 
L 19.828125 64.59375 
L 19.828125 46.734375 
Q 21.96875 47.46875 24.109375 47.828125 
Q 26.265625 48.1875 28.421875 48.1875 
Q 40.625 48.1875 47.75 41.5 
Q 54.890625 34.8125 54.890625 23.390625 
Q 54.890625 11.625 47.5625 5.09375 
Q 40.234375 -1.421875 26.90625 -1.421875 
Q 22.3125 -1.421875 17.546875 -0.640625 
Q 12.796875 0.140625 7.71875 1.703125 
L 7.71875 11.625 
Q 12.109375 9.234375 16.796875 8.0625 
Q 21.484375 6.890625 26.703125 6.890625 
Q 35.15625 6.890625 40.078125 11.328125 
Q 45.015625 15.765625 45.015625 23.390625 
Q 45.015625 31 40.078125 35.4375 
Q 35.15625 39.890625 26.703125 39.890625 
Q 22.75 39.890625 18.8125 39.015625 
Q 14.890625 38.140625 10.796875 36.28125 
z
" id="DejaVuSans-53"/>
      </defs>
      <g transform="translate(160.228664 322.182437)scale(0.1 -0.1)">
       <use xlink:href="#DejaVuSans-53"/>
       <use x="63.623047" xlink:href="#DejaVuSans-48"/>
      </g>
     </g>
    </g>
    <g id="xtick_3">
     <g id="line2d_3">
      <g>
       <use style="stroke:#000000;stroke-width:0.8;" x="223.151186" xlink:href="#mcf92d98b06" y="307.584"/>
      </g>
     </g>
     <g id="text_3">
      <!-- 100 -->
      <defs>
       <path d="M 12.40625 8.296875 
L 28.515625 8.296875 
L 28.515625 63.921875 
L 10.984375 60.40625 
L 10.984375 69.390625 
L 28.421875 72.90625 
L 38.28125 72.90625 
L 38.28125 8.296875 
L 54.390625 8.296875 
L 54.390625 0 
L 12.40625 0 
z
" id="DejaVuSans-49"/>
      </defs>
      <g transform="translate(213.607436 322.182437)scale(0.1 -0.1)">
       <use xlink:href="#DejaVuSans-49"/>
       <use x="63.623047" xlink:href="#DejaVuSans-48"/>
       <use x="127.246094" xlink:href="#DejaVuSans-48"/>
      </g>
     </g>
    </g>
    <g id="xtick_4">
     <g id="line2d_4">
      <g>
       <use style="stroke:#000000;stroke-width:0.8;" x="279.711209" xlink:href="#mcf92d98b06" y="307.584"/>
      </g>
     </g>
     <g id="text_4">
      <!-- 150 -->
      <g transform="translate(270.167459 322.182437)scale(0.1 -0.1)">
       <use xlink:href="#DejaVuSans-49"/>
       <use x="63.623047" xlink:href="#DejaVuSans-53"/>
       <use x="127.246094" xlink:href="#DejaVuSans-48"/>
      </g>
     </g>
    </g>
    <g id="xtick_5">
     <g id="line2d_5">
      <g>
       <use style="stroke:#000000;stroke-width:0.8;" x="336.271231" xlink:href="#mcf92d98b06" y="307.584"/>
      </g>
     </g>
     <g id="text_5">
      <!-- 200 -->
      <defs>
       <path d="M 19.1875 8.296875 
L 53.609375 8.296875 
L 53.609375 0 
L 7.328125 0 
L 7.328125 8.296875 
Q 12.9375 14.109375 22.625 23.890625 
Q 32.328125 33.6875 34.8125 36.53125 
Q 39.546875 41.84375 41.421875 45.53125 
Q 43.3125 49.21875 43.3125 52.78125 
Q 43.3125 58.59375 39.234375 62.25 
Q 35.15625 65.921875 28.609375 65.921875 
Q 23.96875 65.921875 18.8125 64.3125 
Q 13.671875 62.703125 7.8125 59.421875 
L 7.8125 69.390625 
Q 13.765625 71.78125 18.9375 73 
Q 24.125 74.21875 28.421875 74.21875 
Q 39.75 74.21875 46.484375 68.546875 
Q 53.21875 62.890625 53.21875 53.421875 
Q 53.21875 48.921875 51.53125 44.890625 
Q 49.859375 40.875 45.40625 35.40625 
Q 44.1875 33.984375 37.640625 27.21875 
Q 31.109375 20.453125 19.1875 8.296875 
z
" id="DejaVuSans-50"/>
      </defs>
      <g transform="translate(326.727481 322.182437)scale(0.1 -0.1)">
       <use xlink:href="#DejaVuSans-50"/>
       <use x="63.623047" xlink:href="#DejaVuSans-48"/>
       <use x="127.246094" xlink:href="#DejaVuSans-48"/>
      </g>
     </g>
    </g>
    <g id="xtick_6">
     <g id="line2d_6">
      <g>
       <use style="stroke:#000000;stroke-width:0.8;" x="392.831253" xlink:href="#mcf92d98b06" y="307.584"/>
      </g>
     </g>
     <g id="text_6">
      <!-- 250 -->
      <g transform="translate(383.287503 322.182437)scale(0.1 -0.1)">
       <use xlink:href="#DejaVuSans-50"/>
       <use x="63.623047" xlink:href="#DejaVuSans-53"/>
       <use x="127.246094" xlink:href="#DejaVuSans-48"/>
      </g>
     </g>
    </g>
    <g id="text_7">
     <!-- Weight -->
     <defs>
      <path d="M 3.328125 72.90625 
L 13.28125 72.90625 
L 28.609375 11.28125 
L 43.890625 72.90625 
L 54.984375 72.90625 
L 70.3125 11.28125 
L 85.59375 72.90625 
L 95.609375 72.90625 
L 77.296875 0 
L 64.890625 0 
L 49.515625 63.28125 
L 33.984375 0 
L 21.578125 0 
z
" id="DejaVuSans-87"/>
      <path d="M 56.203125 29.59375 
L 56.203125 25.203125 
L 14.890625 25.203125 
Q 15.484375 15.921875 20.484375 11.0625 
Q 25.484375 6.203125 34.421875 6.203125 
Q 39.59375 6.203125 44.453125 7.46875 
Q 49.3125 8.734375 54.109375 11.28125 
L 54.109375 2.78125 
Q 49.265625 0.734375 44.1875 -0.34375 
Q 39.109375 -1.421875 33.890625 -1.421875 
Q 20.796875 -1.421875 13.15625 6.1875 
Q 5.515625 13.8125 5.515625 26.8125 
Q 5.515625 40.234375 12.765625 48.109375 
Q 20.015625 56 32.328125 56 
Q 43.359375 56 49.78125 48.890625 
Q 56.203125 41.796875 56.203125 29.59375 
z
M 47.21875 32.234375 
Q 47.125 39.59375 43.09375 43.984375 
Q 39.0625 48.390625 32.421875 48.390625 
Q 24.90625 48.390625 20.390625 44.140625 
Q 15.875 39.890625 15.1875 32.171875 
z
" id="DejaVuSans-101"/>
      <path d="M 9.421875 54.6875 
L 18.40625 54.6875 
L 18.40625 0 
L 9.421875 0 
z
M 9.421875 75.984375 
L 18.40625 75.984375 
L 18.40625 64.59375 
L 9.421875 64.59375 
z
" id="DejaVuSans-105"/>
      <path d="M 45.40625 27.984375 
Q 45.40625 37.75 41.375 43.109375 
Q 37.359375 48.484375 30.078125 48.484375 
Q 22.859375 48.484375 18.828125 43.109375 
Q 14.796875 37.75 14.796875 27.984375 
Q 14.796875 18.265625 18.828125 12.890625 
Q 22.859375 7.515625 30.078125 7.515625 
Q 37.359375 7.515625 41.375 12.890625 
Q 45.40625 18.265625 45.40625 27.984375 
z
M 54.390625 6.78125 
Q 54.390625 -7.171875 48.1875 -13.984375 
Q 42 -20.796875 29.203125 -20.796875 
Q 24.46875 -20.796875 20.265625 -20.09375 
Q 16.0625 -19.390625 12.109375 -17.921875 
L 12.109375 -9.1875 
Q 16.0625 -11.328125 19.921875 -12.34375 
Q 23.78125 -13.375 27.78125 -13.375 
Q 36.625 -13.375 41.015625 -8.765625 
Q 45.40625 -4.15625 45.40625 5.171875 
L 45.40625 9.625 
Q 42.625 4.78125 38.28125 2.390625 
Q 33.9375 0 27.875 0 
Q 17.828125 0 11.671875 7.65625 
Q 5.515625 15.328125 5.515625 27.984375 
Q 5.515625 40.671875 11.671875 48.328125 
Q 17.828125 56 27.875 56 
Q 33.9375 56 38.28125 53.609375 
Q 42.625 51.21875 45.40625 46.390625 
L 45.40625 54.6875 
L 54.390625 54.6875 
z
" id="DejaVuSans-103"/>
      <path d="M 54.890625 33.015625 
L 54.890625 0 
L 45.90625 0 
L 45.90625 32.71875 
Q 45.90625 40.484375 42.875 44.328125 
Q 39.84375 48.1875 33.796875 48.1875 
Q 26.515625 48.1875 22.3125 43.546875 
Q 18.109375 38.921875 18.109375 30.90625 
L 18.109375 0 
L 9.078125 0 
L 9.078125 75.984375 
L 18.109375 75.984375 
L 18.109375 46.1875 
Q 21.34375 51.125 25.703125 53.5625 
Q 30.078125 56 35.796875 56 
Q 45.21875 56 50.046875 50.171875 
Q 54.890625 44.34375 54.890625 33.015625 
z
" id="DejaVuSans-104"/>
      <path d="M 18.3125 70.21875 
L 18.3125 54.6875 
L 36.8125 54.6875 
L 36.8125 47.703125 
L 18.3125 47.703125 
L 18.3125 18.015625 
Q 18.3125 11.328125 20.140625 9.421875 
Q 21.96875 7.515625 27.59375 7.515625 
L 36.8125 7.515625 
L 36.8125 0 
L 27.59375 0 
Q 17.1875 0 13.234375 3.875 
Q 9.28125 7.765625 9.28125 18.015625 
L 9.28125 47.703125 
L 2.6875 47.703125 
L 2.6875 54.6875 
L 9.28125 54.6875 
L 9.28125 70.21875 
z
" id="DejaVuSans-116"/>
     </defs>
     <g transform="translate(218.451406 335.860562)scale(0.1 -0.1)">
      <use xlink:href="#DejaVuSans-87"/>
      <use x="98.798828" xlink:href="#DejaVuSans-101"/>
      <use x="160.322266" xlink:href="#DejaVuSans-105"/>
      <use x="188.105469" xlink:href="#DejaVuSans-103"/>
      <use x="251.582031" xlink:href="#DejaVuSans-104"/>
      <use x="314.960938" xlink:href="#DejaVuSans-116"/>
     </g>
    </g>
   </g>
   <g id="matplotlib.axis_2">
    <g id="ytick_1">
     <g id="line2d_7">
      <defs>
       <path d="M 0 0 
L -3.5 0 
" id="m9fd68eb4e8" style="stroke:#000000;stroke-width:0.8;"/>
      </defs>
      <g>
       <use style="stroke:#000000;stroke-width:0.8;" x="57.6" xlink:href="#m9fd68eb4e8" y="307.584"/>
      </g>
     </g>
     <g id="text_8">
      <!-- 0 -->
      <g transform="translate(44.2375 311.383219)scale(0.1 -0.1)">
       <use xlink:href="#DejaVuSans-48"/>
      </g>
     </g>
    </g>
    <g id="ytick_2">
     <g id="line2d_8">
      <g>
       <use style="stroke:#000000;stroke-width:0.8;" x="57.6" xlink:href="#m9fd68eb4e8" y="274.236632"/>
      </g>
     </g>
     <g id="text_9">
      <!-- 10 -->
      <g transform="translate(37.875 278.03585)scale(0.1 -0.1)">
       <use xlink:href="#DejaVuSans-49"/>
       <use x="63.623047" xlink:href="#DejaVuSans-48"/>
      </g>
     </g>
    </g>
    <g id="ytick_3">
     <g id="line2d_9">
      <g>
       <use style="stroke:#000000;stroke-width:0.8;" x="57.6" xlink:href="#m9fd68eb4e8" y="240.889263"/>
      </g>
     </g>
     <g id="text_10">
      <!-- 20 -->
      <g transform="translate(37.875 244.688482)scale(0.1 -0.1)">
       <use xlink:href="#DejaVuSans-50"/>
       <use x="63.623047" xlink:href="#DejaVuSans-48"/>
      </g>
     </g>
    </g>
    <g id="ytick_4">
     <g id="line2d_10">
      <g>
       <use style="stroke:#000000;stroke-width:0.8;" x="57.6" xlink:href="#m9fd68eb4e8" y="207.541895"/>
      </g>
     </g>
     <g id="text_11">
      <!-- 30 -->
      <defs>
       <path d="M 40.578125 39.3125 
Q 47.65625 37.796875 51.625 33 
Q 55.609375 28.21875 55.609375 21.1875 
Q 55.609375 10.40625 48.1875 4.484375 
Q 40.765625 -1.421875 27.09375 -1.421875 
Q 22.515625 -1.421875 17.65625 -0.515625 
Q 12.796875 0.390625 7.625 2.203125 
L 7.625 11.71875 
Q 11.71875 9.328125 16.59375 8.109375 
Q 21.484375 6.890625 26.8125 6.890625 
Q 36.078125 6.890625 40.9375 10.546875 
Q 45.796875 14.203125 45.796875 21.1875 
Q 45.796875 27.640625 41.28125 31.265625 
Q 36.765625 34.90625 28.71875 34.90625 
L 20.21875 34.90625 
L 20.21875 43.015625 
L 29.109375 43.015625 
Q 36.375 43.015625 40.234375 45.921875 
Q 44.09375 48.828125 44.09375 54.296875 
Q 44.09375 59.90625 40.109375 62.90625 
Q 36.140625 65.921875 28.71875 65.921875 
Q 24.65625 65.921875 20.015625 65.03125 
Q 15.375 64.15625 9.8125 62.3125 
L 9.8125 71.09375 
Q 15.4375 72.65625 20.34375 73.4375 
Q 25.25 74.21875 29.59375 74.21875 
Q 40.828125 74.21875 47.359375 69.109375 
Q 53.90625 64.015625 53.90625 55.328125 
Q 53.90625 49.265625 50.4375 45.09375 
Q 46.96875 40.921875 40.578125 39.3125 
z
" id="DejaVuSans-51"/>
      </defs>
      <g transform="translate(37.875 211.341113)scale(0.1 -0.1)">
       <use xlink:href="#DejaVuSans-51"/>
       <use x="63.623047" xlink:href="#DejaVuSans-48"/>
      </g>
     </g>
    </g>
    <g id="ytick_5">
     <g id="line2d_11">
      <g>
       <use style="stroke:#000000;stroke-width:0.8;" x="57.6" xlink:href="#m9fd68eb4e8" y="174.194526"/>
      </g>
     </g>
     <g id="text_12">
      <!-- 40 -->
      <defs>
       <path d="M 37.796875 64.3125 
L 12.890625 25.390625 
L 37.796875 25.390625 
z
M 35.203125 72.90625 
L 47.609375 72.90625 
L 47.609375 25.390625 
L 58.015625 25.390625 
L 58.015625 17.1875 
L 47.609375 17.1875 
L 47.609375 0 
L 37.796875 0 
L 37.796875 17.1875 
L 4.890625 17.1875 
L 4.890625 26.703125 
z
" id="DejaVuSans-52"/>
      </defs>
      <g transform="translate(37.875 177.993745)scale(0.1 -0.1)">
       <use xlink:href="#DejaVuSans-52"/>
       <use x="63.623047" xlink:href="#DejaVuSans-48"/>
      </g>
     </g>
    </g>
    <g id="ytick_6">
     <g id="line2d_12">
      <g>
       <use style="stroke:#000000;stroke-width:0.8;" x="57.6" xlink:href="#m9fd68eb4e8" y="140.847158"/>
      </g>
     </g>
     <g id="text_13">
      <!-- 50 -->
      <g transform="translate(37.875 144.646377)scale(0.1 -0.1)">
       <use xlink:href="#DejaVuSans-53"/>
       <use x="63.623047" xlink:href="#DejaVuSans-48"/>
      </g>
     </g>
    </g>
    <g id="ytick_7">
     <g id="line2d_13">
      <g>
       <use style="stroke:#000000;stroke-width:0.8;" x="57.6" xlink:href="#m9fd68eb4e8" y="107.499789"/>
      </g>
     </g>
     <g id="text_14">
      <!-- 60 -->
      <defs>
       <path d="M 33.015625 40.375 
Q 26.375 40.375 22.484375 35.828125 
Q 18.609375 31.296875 18.609375 23.390625 
Q 18.609375 15.53125 22.484375 10.953125 
Q 26.375 6.390625 33.015625 6.390625 
Q 39.65625 6.390625 43.53125 10.953125 
Q 47.40625 15.53125 47.40625 23.390625 
Q 47.40625 31.296875 43.53125 35.828125 
Q 39.65625 40.375 33.015625 40.375 
z
M 52.59375 71.296875 
L 52.59375 62.3125 
Q 48.875 64.0625 45.09375 64.984375 
Q 41.3125 65.921875 37.59375 65.921875 
Q 27.828125 65.921875 22.671875 59.328125 
Q 17.53125 52.734375 16.796875 39.40625 
Q 19.671875 43.65625 24.015625 45.921875 
Q 28.375 48.1875 33.59375 48.1875 
Q 44.578125 48.1875 50.953125 41.515625 
Q 57.328125 34.859375 57.328125 23.390625 
Q 57.328125 12.15625 50.6875 5.359375 
Q 44.046875 -1.421875 33.015625 -1.421875 
Q 20.359375 -1.421875 13.671875 8.265625 
Q 6.984375 17.96875 6.984375 36.375 
Q 6.984375 53.65625 15.1875 63.9375 
Q 23.390625 74.21875 37.203125 74.21875 
Q 40.921875 74.21875 44.703125 73.484375 
Q 48.484375 72.75 52.59375 71.296875 
z
" id="DejaVuSans-54"/>
      </defs>
      <g transform="translate(37.875 111.299008)scale(0.1 -0.1)">
       <use xlink:href="#DejaVuSans-54"/>
       <use x="63.623047" xlink:href="#DejaVuSans-48"/>
      </g>
     </g>
    </g>
    <g id="ytick_8">
     <g id="line2d_14">
      <g>
       <use style="stroke:#000000;stroke-width:0.8;" x="57.6" xlink:href="#m9fd68eb4e8" y="74.152421"/>
      </g>
     </g>
     <g id="text_15">
      <!-- 70 -->
      <defs>
       <path d="M 8.203125 72.90625 
L 55.078125 72.90625 
L 55.078125 68.703125 
L 28.609375 0 
L 18.3125 0 
L 43.21875 64.59375 
L 8.203125 64.59375 
z
" id="DejaVuSans-55"/>
      </defs>
      <g transform="translate(37.875 77.95164)scale(0.1 -0.1)">
       <use xlink:href="#DejaVuSans-55"/>
       <use x="63.623047" xlink:href="#DejaVuSans-48"/>
      </g>
     </g>
    </g>
    <g id="text_16">
     <!-- Occurrencies -->
     <defs>
      <path d="M 39.40625 66.21875 
Q 28.65625 66.21875 22.328125 58.203125 
Q 16.015625 50.203125 16.015625 36.375 
Q 16.015625 22.609375 22.328125 14.59375 
Q 28.65625 6.59375 39.40625 6.59375 
Q 50.140625 6.59375 56.421875 14.59375 
Q 62.703125 22.609375 62.703125 36.375 
Q 62.703125 50.203125 56.421875 58.203125 
Q 50.140625 66.21875 39.40625 66.21875 
z
M 39.40625 74.21875 
Q 54.734375 74.21875 63.90625 63.9375 
Q 73.09375 53.65625 73.09375 36.375 
Q 73.09375 19.140625 63.90625 8.859375 
Q 54.734375 -1.421875 39.40625 -1.421875 
Q 24.03125 -1.421875 14.8125 8.828125 
Q 5.609375 19.09375 5.609375 36.375 
Q 5.609375 53.65625 14.8125 63.9375 
Q 24.03125 74.21875 39.40625 74.21875 
z
" id="DejaVuSans-79"/>
      <path d="M 48.78125 52.59375 
L 48.78125 44.1875 
Q 44.96875 46.296875 41.140625 47.34375 
Q 37.3125 48.390625 33.40625 48.390625 
Q 24.65625 48.390625 19.8125 42.84375 
Q 14.984375 37.3125 14.984375 27.296875 
Q 14.984375 17.28125 19.8125 11.734375 
Q 24.65625 6.203125 33.40625 6.203125 
Q 37.3125 6.203125 41.140625 7.25 
Q 44.96875 8.296875 48.78125 10.40625 
L 48.78125 2.09375 
Q 45.015625 0.34375 40.984375 -0.53125 
Q 36.96875 -1.421875 32.421875 -1.421875 
Q 20.0625 -1.421875 12.78125 6.34375 
Q 5.515625 14.109375 5.515625 27.296875 
Q 5.515625 40.671875 12.859375 48.328125 
Q 20.21875 56 33.015625 56 
Q 37.15625 56 41.109375 55.140625 
Q 45.0625 54.296875 48.78125 52.59375 
z
" id="DejaVuSans-99"/>
      <path d="M 8.5 21.578125 
L 8.5 54.6875 
L 17.484375 54.6875 
L 17.484375 21.921875 
Q 17.484375 14.15625 20.5 10.265625 
Q 23.53125 6.390625 29.59375 6.390625 
Q 36.859375 6.390625 41.078125 11.03125 
Q 45.3125 15.671875 45.3125 23.6875 
L 45.3125 54.6875 
L 54.296875 54.6875 
L 54.296875 0 
L 45.3125 0 
L 45.3125 8.40625 
Q 42.046875 3.421875 37.71875 1 
Q 33.40625 -1.421875 27.6875 -1.421875 
Q 18.265625 -1.421875 13.375 4.4375 
Q 8.5 10.296875 8.5 21.578125 
z
M 31.109375 56 
z
" id="DejaVuSans-117"/>
      <path d="M 41.109375 46.296875 
Q 39.59375 47.171875 37.8125 47.578125 
Q 36.03125 48 33.890625 48 
Q 26.265625 48 22.1875 43.046875 
Q 18.109375 38.09375 18.109375 28.8125 
L 18.109375 0 
L 9.078125 0 
L 9.078125 54.6875 
L 18.109375 54.6875 
L 18.109375 46.1875 
Q 20.953125 51.171875 25.484375 53.578125 
Q 30.03125 56 36.53125 56 
Q 37.453125 56 38.578125 55.875 
Q 39.703125 55.765625 41.0625 55.515625 
z
" id="DejaVuSans-114"/>
      <path d="M 54.890625 33.015625 
L 54.890625 0 
L 45.90625 0 
L 45.90625 32.71875 
Q 45.90625 40.484375 42.875 44.328125 
Q 39.84375 48.1875 33.796875 48.1875 
Q 26.515625 48.1875 22.3125 43.546875 
Q 18.109375 38.921875 18.109375 30.90625 
L 18.109375 0 
L 9.078125 0 
L 9.078125 54.6875 
L 18.109375 54.6875 
L 18.109375 46.1875 
Q 21.34375 51.125 25.703125 53.5625 
Q 30.078125 56 35.796875 56 
Q 45.21875 56 50.046875 50.171875 
Q 54.890625 44.34375 54.890625 33.015625 
z
" id="DejaVuSans-110"/>
      <path d="M 44.28125 53.078125 
L 44.28125 44.578125 
Q 40.484375 46.53125 36.375 47.5 
Q 32.28125 48.484375 27.875 48.484375 
Q 21.1875 48.484375 17.84375 46.4375 
Q 14.5 44.390625 14.5 40.28125 
Q 14.5 37.15625 16.890625 35.375 
Q 19.28125 33.59375 26.515625 31.984375 
L 29.59375 31.296875 
Q 39.15625 29.25 43.1875 25.515625 
Q 47.21875 21.78125 47.21875 15.09375 
Q 47.21875 7.46875 41.1875 3.015625 
Q 35.15625 -1.421875 24.609375 -1.421875 
Q 20.21875 -1.421875 15.453125 -0.5625 
Q 10.6875 0.296875 5.421875 2 
L 5.421875 11.28125 
Q 10.40625 8.6875 15.234375 7.390625 
Q 20.0625 6.109375 24.8125 6.109375 
Q 31.15625 6.109375 34.5625 8.28125 
Q 37.984375 10.453125 37.984375 14.40625 
Q 37.984375 18.0625 35.515625 20.015625 
Q 33.0625 21.96875 24.703125 23.78125 
L 21.578125 24.515625 
Q 13.234375 26.265625 9.515625 29.90625 
Q 5.8125 33.546875 5.8125 39.890625 
Q 5.8125 47.609375 11.28125 51.796875 
Q 16.75 56 26.8125 56 
Q 31.78125 56 36.171875 55.265625 
Q 40.578125 54.546875 44.28125 53.078125 
z
" id="DejaVuSans-115"/>
     </defs>
     <g transform="translate(31.795312 207.304563)rotate(-90)scale(0.1 -0.1)">
      <use xlink:href="#DejaVuSans-79"/>
      <use x="78.710938" xlink:href="#DejaVuSans-99"/>
      <use x="133.691406" xlink:href="#DejaVuSans-99"/>
      <use x="188.671875" xlink:href="#DejaVuSans-117"/>
      <use x="252.050781" xlink:href="#DejaVuSans-114"/>
      <use x="293.148438" xlink:href="#DejaVuSans-114"/>
      <use x="334.230469" xlink:href="#DejaVuSans-101"/>
      <use x="395.753906" xlink:href="#DejaVuSans-110"/>
      <use x="459.132812" xlink:href="#DejaVuSans-99"/>
      <use x="514.113281" xlink:href="#DejaVuSans-105"/>
      <use x="541.896484" xlink:href="#DejaVuSans-101"/>
      <use x="603.419922" xlink:href="#DejaVuSans-115"/>
     </g>
    </g>
   </g>
   <g id="patch_203">
    <path d="M 57.6 307.584 
L 57.6 41.472 
" style="fill:none;stroke:#000000;stroke-linecap:square;stroke-linejoin:miter;stroke-width:0.8;"/>
   </g>
   <g id="patch_204">
    <path d="M 414.72 307.584 
L 414.72 41.472 
" style="fill:none;stroke:#000000;stroke-linecap:square;stroke-linejoin:miter;stroke-width:0.8;"/>
   </g>
   <g id="patch_205">
    <path d="M 57.6 307.584 
L 414.72 307.584 
" style="fill:none;stroke:#000000;stroke-linecap:square;stroke-linejoin:miter;stroke-width:0.8;"/>
   </g>
   <g id="patch_206">
    <path d="M 57.6 41.472 
L 414.72 41.472 
" style="fill:none;stroke:#000000;stroke-linecap:square;stroke-linejoin:miter;stroke-width:0.8;"/>
   </g>
   <g id="text_17">
    <!-- Histogram of fc3 -->
    <defs>
     <path d="M 9.8125 72.90625 
L 19.671875 72.90625 
L 19.671875 43.015625 
L 55.515625 43.015625 
L 55.515625 72.90625 
L 65.375 72.90625 
L 65.375 0 
L 55.515625 0 
L 55.515625 34.71875 
L 19.671875 34.71875 
L 19.671875 0 
L 9.8125 0 
z
" id="DejaVuSans-72"/>
     <path d="M 30.609375 48.390625 
Q 23.390625 48.390625 19.1875 42.75 
Q 14.984375 37.109375 14.984375 27.296875 
Q 14.984375 17.484375 19.15625 11.84375 
Q 23.34375 6.203125 30.609375 6.203125 
Q 37.796875 6.203125 41.984375 11.859375 
Q 46.1875 17.53125 46.1875 27.296875 
Q 46.1875 37.015625 41.984375 42.703125 
Q 37.796875 48.390625 30.609375 48.390625 
z
M 30.609375 56 
Q 42.328125 56 49.015625 48.375 
Q 55.71875 40.765625 55.71875 27.296875 
Q 55.71875 13.875 49.015625 6.21875 
Q 42.328125 -1.421875 30.609375 -1.421875 
Q 18.84375 -1.421875 12.171875 6.21875 
Q 5.515625 13.875 5.515625 27.296875 
Q 5.515625 40.765625 12.171875 48.375 
Q 18.84375 56 30.609375 56 
z
" id="DejaVuSans-111"/>
     <path d="M 34.28125 27.484375 
Q 23.390625 27.484375 19.1875 25 
Q 14.984375 22.515625 14.984375 16.5 
Q 14.984375 11.71875 18.140625 8.90625 
Q 21.296875 6.109375 26.703125 6.109375 
Q 34.1875 6.109375 38.703125 11.40625 
Q 43.21875 16.703125 43.21875 25.484375 
L 43.21875 27.484375 
z
M 52.203125 31.203125 
L 52.203125 0 
L 43.21875 0 
L 43.21875 8.296875 
Q 40.140625 3.328125 35.546875 0.953125 
Q 30.953125 -1.421875 24.3125 -1.421875 
Q 15.921875 -1.421875 10.953125 3.296875 
Q 6 8.015625 6 15.921875 
Q 6 25.140625 12.171875 29.828125 
Q 18.359375 34.515625 30.609375 34.515625 
L 43.21875 34.515625 
L 43.21875 35.40625 
Q 43.21875 41.609375 39.140625 45 
Q 35.0625 48.390625 27.6875 48.390625 
Q 23 48.390625 18.546875 47.265625 
Q 14.109375 46.140625 10.015625 43.890625 
L 10.015625 52.203125 
Q 14.9375 54.109375 19.578125 55.046875 
Q 24.21875 56 28.609375 56 
Q 40.484375 56 46.34375 49.84375 
Q 52.203125 43.703125 52.203125 31.203125 
z
" id="DejaVuSans-97"/>
     <path d="M 52 44.1875 
Q 55.375 50.25 60.0625 53.125 
Q 64.75 56 71.09375 56 
Q 79.640625 56 84.28125 50.015625 
Q 88.921875 44.046875 88.921875 33.015625 
L 88.921875 0 
L 79.890625 0 
L 79.890625 32.71875 
Q 79.890625 40.578125 77.09375 44.375 
Q 74.3125 48.1875 68.609375 48.1875 
Q 61.625 48.1875 57.5625 43.546875 
Q 53.515625 38.921875 53.515625 30.90625 
L 53.515625 0 
L 44.484375 0 
L 44.484375 32.71875 
Q 44.484375 40.625 41.703125 44.40625 
Q 38.921875 48.1875 33.109375 48.1875 
Q 26.21875 48.1875 22.15625 43.53125 
Q 18.109375 38.875 18.109375 30.90625 
L 18.109375 0 
L 9.078125 0 
L 9.078125 54.6875 
L 18.109375 54.6875 
L 18.109375 46.1875 
Q 21.1875 51.21875 25.484375 53.609375 
Q 29.78125 56 35.6875 56 
Q 41.65625 56 45.828125 52.96875 
Q 50 49.953125 52 44.1875 
z
" id="DejaVuSans-109"/>
     <path id="DejaVuSans-32"/>
     <path d="M 37.109375 75.984375 
L 37.109375 68.5 
L 28.515625 68.5 
Q 23.6875 68.5 21.796875 66.546875 
Q 19.921875 64.59375 19.921875 59.515625 
L 19.921875 54.6875 
L 34.71875 54.6875 
L 34.71875 47.703125 
L 19.921875 47.703125 
L 19.921875 0 
L 10.890625 0 
L 10.890625 47.703125 
L 2.296875 47.703125 
L 2.296875 54.6875 
L 10.890625 54.6875 
L 10.890625 58.5 
Q 10.890625 67.625 15.140625 71.796875 
Q 19.390625 75.984375 28.609375 75.984375 
z
" id="DejaVuSans-102"/>
    </defs>
    <g transform="translate(186.209063 35.472)scale(0.12 -0.12)">
     <use xlink:href="#DejaVuSans-72"/>
     <use x="75.195312" xlink:href="#DejaVuSans-105"/>
     <use x="102.978516" xlink:href="#DejaVuSans-115"/>
     <use x="155.078125" xlink:href="#DejaVuSans-116"/>
     <use x="194.287109" xlink:href="#DejaVuSans-111"/>
     <use x="255.46875" xlink:href="#DejaVuSans-103"/>
     <use x="318.945312" xlink:href="#DejaVuSans-114"/>
     <use x="360.058594" xlink:href="#DejaVuSans-97"/>
     <use x="421.337891" xlink:href="#DejaVuSans-109"/>
     <use x="518.75" xlink:href="#DejaVuSans-32"/>
     <use x="550.537109" xlink:href="#DejaVuSans-111"/>
     <use x="611.71875" xlink:href="#DejaVuSans-102"/>
     <use x="646.923828" xlink:href="#DejaVuSans-32"/>
     <use x="678.710938" xlink:href="#DejaVuSans-102"/>
     <use x="713.916016" xlink:href="#DejaVuSans-99"/>
     <use x="768.896484" xlink:href="#DejaVuSans-51"/>
    </g>
   </g>
   <g id="legend_1">
    <g id="patch_207">
     <path d="M 323.679375 78.82825 
L 407.72 78.82825 
Q 409.72 78.82825 409.72 76.82825 
L 409.72 48.472 
Q 409.72 46.472 407.72 46.472 
L 323.679375 46.472 
Q 321.679375 46.472 321.679375 48.472 
L 321.679375 76.82825 
Q 321.679375 78.82825 323.679375 78.82825 
z
" style="fill:#ffffff;opacity:0.8;stroke:#cccccc;stroke-linejoin:miter;"/>
    </g>
    <g id="patch_208">
     <path d="M 325.679375 58.070437 
L 345.679375 58.070437 
L 345.679375 51.070437 
L 325.679375 51.070437 
z
" style="fill:#0000ff;"/>
    </g>
    <g id="text_18">
     <!-- unmasked -->
     <defs>
      <path d="M 9.078125 75.984375 
L 18.109375 75.984375 
L 18.109375 31.109375 
L 44.921875 54.6875 
L 56.390625 54.6875 
L 27.390625 29.109375 
L 57.625 0 
L 45.90625 0 
L 18.109375 26.703125 
L 18.109375 0 
L 9.078125 0 
z
" id="DejaVuSans-107"/>
      <path d="M 45.40625 46.390625 
L 45.40625 75.984375 
L 54.390625 75.984375 
L 54.390625 0 
L 45.40625 0 
L 45.40625 8.203125 
Q 42.578125 3.328125 38.25 0.953125 
Q 33.9375 -1.421875 27.875 -1.421875 
Q 17.96875 -1.421875 11.734375 6.484375 
Q 5.515625 14.40625 5.515625 27.296875 
Q 5.515625 40.1875 11.734375 48.09375 
Q 17.96875 56 27.875 56 
Q 33.9375 56 38.25 53.625 
Q 42.578125 51.265625 45.40625 46.390625 
z
M 14.796875 27.296875 
Q 14.796875 17.390625 18.875 11.75 
Q 22.953125 6.109375 30.078125 6.109375 
Q 37.203125 6.109375 41.296875 11.75 
Q 45.40625 17.390625 45.40625 27.296875 
Q 45.40625 37.203125 41.296875 42.84375 
Q 37.203125 48.484375 30.078125 48.484375 
Q 22.953125 48.484375 18.875 42.84375 
Q 14.796875 37.203125 14.796875 27.296875 
z
" id="DejaVuSans-100"/>
     </defs>
     <g transform="translate(353.679375 58.070437)scale(0.1 -0.1)">
      <use xlink:href="#DejaVuSans-117"/>
      <use x="63.378906" xlink:href="#DejaVuSans-110"/>
      <use x="126.757812" xlink:href="#DejaVuSans-109"/>
      <use x="224.169922" xlink:href="#DejaVuSans-97"/>
      <use x="285.449219" xlink:href="#DejaVuSans-115"/>
      <use x="337.548828" xlink:href="#DejaVuSans-107"/>
      <use x="395.412109" xlink:href="#DejaVuSans-101"/>
      <use x="456.935547" xlink:href="#DejaVuSans-100"/>
     </g>
    </g>
    <g id="patch_209">
     <path d="M 325.679375 72.748562 
L 345.679375 72.748562 
L 345.679375 65.748562 
L 325.679375 65.748562 
z
" style="fill:#808080;"/>
    </g>
    <g id="text_19">
     <!-- masked -->
     <g transform="translate(353.679375 72.748562)scale(0.1 -0.1)">
      <use xlink:href="#DejaVuSans-109"/>
      <use x="97.412109" xlink:href="#DejaVuSans-97"/>
      <use x="158.691406" xlink:href="#DejaVuSans-115"/>
      <use x="210.791016" xlink:href="#DejaVuSans-107"/>
      <use x="268.654297" xlink:href="#DejaVuSans-101"/>
      <use x="330.177734" xlink:href="#DejaVuSans-100"/>
     </g>
    </g>
   </g>
  </g>
 </g>
 <defs>
  <clipPath id="paa70a717e3">
   <rect height="266.112" width="357.12" x="57.6" y="41.472"/>
  </clipPath>
 </defs>
</svg>
