<?xml version="1.0" encoding="utf-8" standalone="no"?>
<!DOCTYPE svg PUBLIC "-//W3C//DTD SVG 1.1//EN"
  "http://www.w3.org/Graphics/SVG/1.1/DTD/svg11.dtd">
<!-- Created with matplotlib (https://matplotlib.org/) -->
<svg height="345.6pt" version="1.1" viewBox="0 0 460.8 345.6" width="460.8pt" xmlns="http://www.w3.org/2000/svg" xmlns:xlink="http://www.w3.org/1999/xlink">
 <defs>
  <style type="text/css">
*{stroke-linecap:butt;stroke-linejoin:round;}
  </style>
 </defs>
 <g id="figure_1">
  <g id="patch_1">
   <path d="M 0 345.6 
L 460.8 345.6 
L 460.8 0 
L 0 0 
z
" style="fill:#ffffff;"/>
  </g>
  <g id="axes_1">
   <g id="patch_2">
    <path d="M 57.6 307.584 
L 414.72 307.584 
L 414.72 41.472 
L 57.6 41.472 
z
" style="fill:#ffffff;"/>
   </g>
   <g id="patch_3">
    <path clip-path="url(#pa28a0bd16c)" d="M 193.060695 307.584 
L 195.11496 307.584 
L 195.11496 306.442378 
L 193.060695 306.442378 
z
" style="fill:#0000ff;"/>
   </g>
   <g id="patch_4">
    <path clip-path="url(#pa28a0bd16c)" d="M 195.11496 307.584 
L 197.169226 307.584 
L 197.169226 307.584 
L 195.11496 307.584 
z
" style="fill:#0000ff;"/>
   </g>
   <g id="patch_5">
    <path clip-path="url(#pa28a0bd16c)" d="M 197.169226 307.584 
L 199.223492 307.584 
L 199.223492 307.584 
L 197.169226 307.584 
z
" style="fill:#0000ff;"/>
   </g>
   <g id="patch_6">
    <path clip-path="url(#pa28a0bd16c)" d="M 199.223492 307.584 
L 201.277758 307.584 
L 201.277758 307.584 
L 199.223492 307.584 
z
" style="fill:#0000ff;"/>
   </g>
   <g id="patch_7">
    <path clip-path="url(#pa28a0bd16c)" d="M 201.277758 307.584 
L 203.332024 307.584 
L 203.332024 307.584 
L 201.277758 307.584 
z
" style="fill:#0000ff;"/>
   </g>
   <g id="patch_8">
    <path clip-path="url(#pa28a0bd16c)" d="M 203.332023 307.584 
L 205.386289 307.584 
L 205.386289 306.442378 
L 203.332023 306.442378 
z
" style="fill:#0000ff;"/>
   </g>
   <g id="patch_9">
    <path clip-path="url(#pa28a0bd16c)" d="M 205.38629 307.584 
L 207.440556 307.584 
L 207.440556 307.584 
L 205.38629 307.584 
z
" style="fill:#0000ff;"/>
   </g>
   <g id="patch_10">
    <path clip-path="url(#pa28a0bd16c)" d="M 207.440555 307.584 
L 209.49482 307.584 
L 209.49482 306.442378 
L 207.440555 306.442378 
z
" style="fill:#0000ff;"/>
   </g>
   <g id="patch_11">
    <path clip-path="url(#pa28a0bd16c)" d="M 209.494818 307.584 
L 211.549085 307.584 
L 211.549085 307.584 
L 209.494818 307.584 
z
" style="fill:#0000ff;"/>
   </g>
   <g id="patch_12">
    <path clip-path="url(#pa28a0bd16c)" d="M 211.549086 307.584 
L 213.603351 307.584 
L 213.603351 306.442378 
L 211.549086 306.442378 
z
" style="fill:#0000ff;"/>
   </g>
   <g id="patch_13">
    <path clip-path="url(#pa28a0bd16c)" d="M 213.603351 307.584 
L 215.657616 307.584 
L 215.657616 306.442378 
L 213.603351 306.442378 
z
" style="fill:#0000ff;"/>
   </g>
   <g id="patch_14">
    <path clip-path="url(#pa28a0bd16c)" d="M 215.657616 307.584 
L 217.711883 307.584 
L 217.711883 306.442378 
L 215.657616 306.442378 
z
" style="fill:#0000ff;"/>
   </g>
   <g id="patch_15">
    <path clip-path="url(#pa28a0bd16c)" d="M 217.711881 307.584 
L 219.76615 307.584 
L 219.76615 307.584 
L 217.711881 307.584 
z
" style="fill:#0000ff;"/>
   </g>
   <g id="patch_16">
    <path clip-path="url(#pa28a0bd16c)" d="M 219.76615 307.584 
L 221.820415 307.584 
L 221.820415 307.584 
L 219.76615 307.584 
z
" style="fill:#0000ff;"/>
   </g>
   <g id="patch_17">
    <path clip-path="url(#pa28a0bd16c)" d="M 221.820412 307.584 
L 223.874677 307.584 
L 223.874677 306.442378 
L 221.820412 306.442378 
z
" style="fill:#0000ff;"/>
   </g>
   <g id="patch_18">
    <path clip-path="url(#pa28a0bd16c)" d="M 223.87468 307.584 
L 225.928945 307.584 
L 225.928945 305.300757 
L 223.87468 305.300757 
z
" style="fill:#0000ff;"/>
   </g>
   <g id="patch_19">
    <path clip-path="url(#pa28a0bd16c)" d="M 225.928942 307.584 
L 227.983207 307.584 
L 227.983207 305.300757 
L 225.928942 305.300757 
z
" style="fill:#0000ff;"/>
   </g>
   <g id="patch_20">
    <path clip-path="url(#pa28a0bd16c)" d="M 227.98321 307.584 
L 230.037478 307.584 
L 230.037478 306.442378 
L 227.98321 306.442378 
z
" style="fill:#0000ff;"/>
   </g>
   <g id="patch_21">
    <path clip-path="url(#pa28a0bd16c)" d="M 230.037478 307.584 
L 232.091743 307.584 
L 232.091743 307.584 
L 230.037478 307.584 
z
" style="fill:#0000ff;"/>
   </g>
   <g id="patch_22">
    <path clip-path="url(#pa28a0bd16c)" d="M 232.09174 307.584 
L 234.146005 307.584 
L 234.146005 306.442378 
L 232.09174 306.442378 
z
" style="fill:#0000ff;"/>
   </g>
   <g id="patch_23">
    <path clip-path="url(#pa28a0bd16c)" d="M 234.146008 307.584 
L 236.200273 307.584 
L 236.200273 306.442378 
L 234.146008 306.442378 
z
" style="fill:#0000ff;"/>
   </g>
   <g id="patch_24">
    <path clip-path="url(#pa28a0bd16c)" d="M 236.20027 307.584 
L 238.254535 307.584 
L 238.254535 305.300757 
L 236.20027 305.300757 
z
" style="fill:#0000ff;"/>
   </g>
   <g id="patch_25">
    <path clip-path="url(#pa28a0bd16c)" d="M 238.254538 307.584 
L 240.308806 307.584 
L 240.308806 306.442378 
L 238.254538 306.442378 
z
" style="fill:#0000ff;"/>
   </g>
   <g id="patch_26">
    <path clip-path="url(#pa28a0bd16c)" d="M 240.308806 307.584 
L 242.363071 307.584 
L 242.363071 303.017514 
L 240.308806 303.017514 
z
" style="fill:#0000ff;"/>
   </g>
   <g id="patch_27">
    <path clip-path="url(#pa28a0bd16c)" d="M 242.363068 307.584 
L 244.417333 307.584 
L 244.417333 306.442378 
L 242.363068 306.442378 
z
" style="fill:#0000ff;"/>
   </g>
   <g id="patch_28">
    <path clip-path="url(#pa28a0bd16c)" d="M 244.417336 307.584 
L 246.471604 307.584 
L 246.471604 306.442378 
L 244.417336 306.442378 
z
" style="fill:#0000ff;"/>
   </g>
   <g id="patch_29">
    <path clip-path="url(#pa28a0bd16c)" d="M 246.471604 307.584 
L 248.525866 307.584 
L 248.525866 305.300757 
L 246.471604 305.300757 
z
" style="fill:#0000ff;"/>
   </g>
   <g id="patch_30">
    <path clip-path="url(#pa28a0bd16c)" d="M 248.525866 307.584 
L 250.580134 307.584 
L 250.580134 305.300757 
L 248.525866 305.300757 
z
" style="fill:#0000ff;"/>
   </g>
   <g id="patch_31">
    <path clip-path="url(#pa28a0bd16c)" d="M 250.580141 307.584 
L 252.634403 307.584 
L 252.634403 301.875892 
L 250.580141 301.875892 
z
" style="fill:#0000ff;"/>
   </g>
   <g id="patch_32">
    <path clip-path="url(#pa28a0bd16c)" d="M 252.634396 307.584 
L 254.688664 307.584 
L 254.688664 296.167784 
L 252.634396 296.167784 
z
" style="fill:#0000ff;"/>
   </g>
   <g id="patch_33">
    <path clip-path="url(#pa28a0bd16c)" d="M 254.688664 307.584 
L 256.742933 307.584 
L 256.742933 301.875892 
L 254.688664 301.875892 
z
" style="fill:#0000ff;"/>
   </g>
   <g id="patch_34">
    <path clip-path="url(#pa28a0bd16c)" d="M 256.742933 307.584 
L 258.797195 307.584 
L 258.797195 305.300757 
L 256.742933 305.300757 
z
" style="fill:#0000ff;"/>
   </g>
   <g id="patch_35">
    <path clip-path="url(#pa28a0bd16c)" d="M 258.797195 307.584 
L 260.851463 307.584 
L 260.851463 301.875892 
L 258.797195 301.875892 
z
" style="fill:#0000ff;"/>
   </g>
   <g id="patch_36">
    <path clip-path="url(#pa28a0bd16c)" d="M 260.851469 307.584 
L 262.905731 307.584 
L 262.905731 303.017514 
L 260.851469 303.017514 
z
" style="fill:#0000ff;"/>
   </g>
   <g id="patch_37">
    <path clip-path="url(#pa28a0bd16c)" d="M 262.905725 307.584 
L 264.959993 307.584 
L 264.959993 299.592649 
L 262.905725 299.592649 
z
" style="fill:#0000ff;"/>
   </g>
   <g id="patch_38">
    <path clip-path="url(#pa28a0bd16c)" d="M 264.959993 307.584 
L 267.014261 307.584 
L 267.014261 297.309405 
L 264.959993 297.309405 
z
" style="fill:#0000ff;"/>
   </g>
   <g id="patch_39">
    <path clip-path="url(#pa28a0bd16c)" d="M 267.014261 307.584 
L 269.068523 307.584 
L 269.068523 291.601297 
L 267.014261 291.601297 
z
" style="fill:#0000ff;"/>
   </g>
   <g id="patch_40">
    <path clip-path="url(#pa28a0bd16c)" d="M 269.068523 307.584 
L 271.122791 307.584 
L 271.122791 304.159135 
L 269.068523 304.159135 
z
" style="fill:#0000ff;"/>
   </g>
   <g id="patch_41">
    <path clip-path="url(#pa28a0bd16c)" d="M 271.122797 307.584 
L 273.177059 307.584 
L 273.177059 281.326703 
L 271.122797 281.326703 
z
" style="fill:#0000ff;"/>
   </g>
   <g id="patch_42">
    <path clip-path="url(#pa28a0bd16c)" d="M 273.177053 307.584 
L 275.231321 307.584 
L 275.231321 296.167784 
L 273.177053 296.167784 
z
" style="fill:#0000ff;"/>
   </g>
   <g id="patch_43">
    <path clip-path="url(#pa28a0bd16c)" d="M 275.231321 307.584 
L 277.285589 307.584 
L 277.285589 279.043459 
L 275.231321 279.043459 
z
" style="fill:#0000ff;"/>
   </g>
   <g id="patch_44">
    <path clip-path="url(#pa28a0bd16c)" d="M 277.285589 307.584 
L 279.339851 307.584 
L 279.339851 280.185081 
L 277.285589 280.185081 
z
" style="fill:#0000ff;"/>
   </g>
   <g id="patch_45">
    <path clip-path="url(#pa28a0bd16c)" d="M 279.339851 307.584 
L 281.394119 307.584 
L 281.394119 288.176432 
L 279.339851 288.176432 
z
" style="fill:#0000ff;"/>
   </g>
   <g id="patch_46">
    <path clip-path="url(#pa28a0bd16c)" d="M 281.394125 307.584 
L 283.448387 307.584 
L 283.448387 272.19373 
L 281.394125 272.19373 
z
" style="fill:#0000ff;"/>
   </g>
   <g id="patch_47">
    <path clip-path="url(#pa28a0bd16c)" d="M 283.448381 307.584 
L 285.502649 307.584 
L 285.502649 292.742919 
L 283.448381 292.742919 
z
" style="fill:#0000ff;"/>
   </g>
   <g id="patch_48">
    <path clip-path="url(#pa28a0bd16c)" d="M 285.502649 307.584 
L 287.556917 307.584 
L 287.556917 280.185081 
L 285.502649 280.185081 
z
" style="fill:#0000ff;"/>
   </g>
   <g id="patch_49">
    <path clip-path="url(#pa28a0bd16c)" d="M 287.556917 307.584 
L 289.611179 307.584 
L 289.611179 279.043459 
L 287.556917 279.043459 
z
" style="fill:#0000ff;"/>
   </g>
   <g id="patch_50">
    <path clip-path="url(#pa28a0bd16c)" d="M 289.611179 307.584 
L 291.665448 307.584 
L 291.665448 273.335351 
L 289.611179 273.335351 
z
" style="fill:#0000ff;"/>
   </g>
   <g id="patch_51">
    <path clip-path="url(#pa28a0bd16c)" d="M 291.665454 307.584 
L 293.719716 307.584 
L 293.719716 269.910486 
L 291.665454 269.910486 
z
" style="fill:#0000ff;"/>
   </g>
   <g id="patch_52">
    <path clip-path="url(#pa28a0bd16c)" d="M 293.719709 307.584 
L 295.773978 307.584 
L 295.773978 235.661838 
L 293.719709 235.661838 
z
" style="fill:#0000ff;"/>
   </g>
   <g id="patch_53">
    <path clip-path="url(#pa28a0bd16c)" d="M 295.773971 307.584 
L 297.828233 307.584 
L 297.828233 250.502919 
L 295.773971 250.502919 
z
" style="fill:#0000ff;"/>
   </g>
   <g id="patch_54">
    <path clip-path="url(#pa28a0bd16c)" d="M 297.828258 307.584 
L 299.882526 307.584 
L 299.882526 259.635892 
L 297.828258 259.635892 
z
" style="fill:#0000ff;"/>
   </g>
   <g id="patch_55">
    <path clip-path="url(#pa28a0bd16c)" d="M 299.882514 307.584 
L 301.93677 307.584 
L 301.93677 204.838054 
L 299.882514 204.838054 
z
" style="fill:#0000ff;"/>
   </g>
   <g id="patch_56">
    <path clip-path="url(#pa28a0bd16c)" d="M 301.93677 307.584 
L 303.991038 307.584 
L 303.991038 212.829405 
L 301.93677 212.829405 
z
" style="fill:#0000ff;"/>
   </g>
   <g id="patch_57">
    <path clip-path="url(#pa28a0bd16c)" d="M 303.99105 307.584 
L 306.045318 307.584 
L 306.045318 132.915892 
L 303.99105 132.915892 
z
" style="fill:#0000ff;"/>
   </g>
   <g id="patch_58">
    <path clip-path="url(#pa28a0bd16c)" d="M 306.045306 307.584 
L 308.099574 307.584 
L 308.099574 186.572108 
L 306.045306 186.572108 
z
" style="fill:#0000ff;"/>
   </g>
   <g id="patch_59">
    <path clip-path="url(#pa28a0bd16c)" d="M 308.099586 307.584 
L 310.153854 307.584 
L 310.153854 113.508324 
L 308.099586 113.508324 
z
" style="fill:#0000ff;"/>
   </g>
   <g id="patch_60">
    <path clip-path="url(#pa28a0bd16c)" d="M 310.153842 307.584 
L 312.208098 307.584 
L 312.208098 169.447784 
L 310.153842 169.447784 
z
" style="fill:#0000ff;"/>
   </g>
   <g id="patch_61">
    <path clip-path="url(#pa28a0bd16c)" d="M 312.208098 307.584 
L 314.262366 307.584 
L 314.262366 118.074811 
L 312.208098 118.074811 
z
" style="fill:#0000ff;"/>
   </g>
   <g id="patch_62">
    <path clip-path="url(#pa28a0bd16c)" d="M 314.262378 307.584 
L 316.316646 307.584 
L 316.316646 174.01427 
L 314.262378 174.01427 
z
" style="fill:#0000ff;"/>
   </g>
   <g id="patch_63">
    <path clip-path="url(#pa28a0bd16c)" d="M 316.316634 307.584 
L 318.370902 307.584 
L 318.370902 138.624 
L 316.316634 138.624 
z
" style="fill:#0000ff;"/>
   </g>
   <g id="patch_64">
    <path clip-path="url(#pa28a0bd16c)" d="M 318.370915 307.584 
L 320.425183 307.584 
L 320.425183 153.465081 
L 318.370915 153.465081 
z
" style="fill:#0000ff;"/>
   </g>
   <g id="patch_65">
    <path clip-path="url(#pa28a0bd16c)" d="M 320.42517 307.584 
L 322.479426 307.584 
L 322.479426 229.95373 
L 320.42517 229.95373 
z
" style="fill:#0000ff;"/>
   </g>
   <g id="patch_66">
    <path clip-path="url(#pa28a0bd16c)" d="M 322.479426 307.584 
L 324.533694 307.584 
L 324.533694 205.979676 
L 322.479426 205.979676 
z
" style="fill:#0000ff;"/>
   </g>
   <g id="patch_67">
    <path clip-path="url(#pa28a0bd16c)" d="M 324.533707 307.584 
L 326.587975 307.584 
L 326.587975 258.49427 
L 324.533707 258.49427 
z
" style="fill:#0000ff;"/>
   </g>
   <g id="patch_68">
    <path clip-path="url(#pa28a0bd16c)" d="M 326.587962 307.584 
L 328.642231 307.584 
L 328.642231 240.228324 
L 326.587962 240.228324 
z
" style="fill:#0000ff;"/>
   </g>
   <g id="patch_69">
    <path clip-path="url(#pa28a0bd16c)" d="M 328.642243 307.584 
L 330.696511 307.584 
L 330.696511 273.335351 
L 328.642243 273.335351 
z
" style="fill:#0000ff;"/>
   </g>
   <g id="patch_70">
    <path clip-path="url(#pa28a0bd16c)" d="M 330.696499 307.584 
L 332.750755 307.584 
L 332.750755 250.502919 
L 330.696499 250.502919 
z
" style="fill:#0000ff;"/>
   </g>
   <g id="patch_71">
    <path clip-path="url(#pa28a0bd16c)" d="M 332.750755 307.584 
L 334.805023 307.584 
L 334.805023 271.052108 
L 332.750755 271.052108 
z
" style="fill:#0000ff;"/>
   </g>
   <g id="patch_72">
    <path clip-path="url(#pa28a0bd16c)" d="M 334.805035 307.584 
L 336.859303 307.584 
L 336.859303 260.777514 
L 334.805035 260.777514 
z
" style="fill:#0000ff;"/>
   </g>
   <g id="patch_73">
    <path clip-path="url(#pa28a0bd16c)" d="M 336.859291 307.584 
L 338.913559 307.584 
L 338.913559 269.910486 
L 336.859291 269.910486 
z
" style="fill:#0000ff;"/>
   </g>
   <g id="patch_74">
    <path clip-path="url(#pa28a0bd16c)" d="M 338.913571 307.584 
L 340.967839 307.584 
L 340.967839 293.884541 
L 338.913571 293.884541 
z
" style="fill:#0000ff;"/>
   </g>
   <g id="patch_75">
    <path clip-path="url(#pa28a0bd16c)" d="M 340.967827 307.584 
L 343.022083 307.584 
L 343.022083 267.627243 
L 340.967827 267.627243 
z
" style="fill:#0000ff;"/>
   </g>
   <g id="patch_76">
    <path clip-path="url(#pa28a0bd16c)" d="M 343.022083 307.584 
L 345.076351 307.584 
L 345.076351 295.026162 
L 343.022083 295.026162 
z
" style="fill:#0000ff;"/>
   </g>
   <g id="patch_77">
    <path clip-path="url(#pa28a0bd16c)" d="M 345.076363 307.584 
L 347.130631 307.584 
L 347.130631 277.901838 
L 345.076363 277.901838 
z
" style="fill:#0000ff;"/>
   </g>
   <g id="patch_78">
    <path clip-path="url(#pa28a0bd16c)" d="M 347.130619 307.584 
L 349.184887 307.584 
L 349.184887 297.309405 
L 347.130619 297.309405 
z
" style="fill:#0000ff;"/>
   </g>
   <g id="patch_79">
    <path clip-path="url(#pa28a0bd16c)" d="M 349.184899 307.584 
L 351.239168 307.584 
L 351.239168 288.176432 
L 349.184899 288.176432 
z
" style="fill:#0000ff;"/>
   </g>
   <g id="patch_80">
    <path clip-path="url(#pa28a0bd16c)" d="M 351.239155 307.584 
L 353.293411 307.584 
L 353.293411 303.017514 
L 351.239155 303.017514 
z
" style="fill:#0000ff;"/>
   </g>
   <g id="patch_81">
    <path clip-path="url(#pa28a0bd16c)" d="M 353.293411 307.584 
L 355.347679 307.584 
L 355.347679 295.026162 
L 353.293411 295.026162 
z
" style="fill:#0000ff;"/>
   </g>
   <g id="patch_82">
    <path clip-path="url(#pa28a0bd16c)" d="M 355.347691 307.584 
L 357.40196 307.584 
L 357.40196 300.73427 
L 355.347691 300.73427 
z
" style="fill:#0000ff;"/>
   </g>
   <g id="patch_83">
    <path clip-path="url(#pa28a0bd16c)" d="M 357.401947 307.584 
L 359.456215 307.584 
L 359.456215 297.309405 
L 357.401947 297.309405 
z
" style="fill:#0000ff;"/>
   </g>
   <g id="patch_84">
    <path clip-path="url(#pa28a0bd16c)" d="M 359.456228 307.584 
L 361.510496 307.584 
L 361.510496 300.73427 
L 359.456228 300.73427 
z
" style="fill:#0000ff;"/>
   </g>
   <g id="patch_85">
    <path clip-path="url(#pa28a0bd16c)" d="M 361.510484 307.584 
L 363.564739 307.584 
L 363.564739 303.017514 
L 361.510484 303.017514 
z
" style="fill:#0000ff;"/>
   </g>
   <g id="patch_86">
    <path clip-path="url(#pa28a0bd16c)" d="M 363.564739 307.584 
L 365.619007 307.584 
L 365.619007 304.159135 
L 363.564739 304.159135 
z
" style="fill:#0000ff;"/>
   </g>
   <g id="patch_87">
    <path clip-path="url(#pa28a0bd16c)" d="M 365.61902 307.584 
L 367.673288 307.584 
L 367.673288 306.442378 
L 365.61902 306.442378 
z
" style="fill:#0000ff;"/>
   </g>
   <g id="patch_88">
    <path clip-path="url(#pa28a0bd16c)" d="M 367.673276 307.584 
L 369.727544 307.584 
L 369.727544 304.159135 
L 367.673276 304.159135 
z
" style="fill:#0000ff;"/>
   </g>
   <g id="patch_89">
    <path clip-path="url(#pa28a0bd16c)" d="M 369.727556 307.584 
L 371.781824 307.584 
L 371.781824 306.442378 
L 369.727556 306.442378 
z
" style="fill:#0000ff;"/>
   </g>
   <g id="patch_90">
    <path clip-path="url(#pa28a0bd16c)" d="M 371.781812 307.584 
L 373.836068 307.584 
L 373.836068 304.159135 
L 371.781812 304.159135 
z
" style="fill:#0000ff;"/>
   </g>
   <g id="patch_91">
    <path clip-path="url(#pa28a0bd16c)" d="M 373.836068 307.584 
L 375.890336 307.584 
L 375.890336 306.442378 
L 373.836068 306.442378 
z
" style="fill:#0000ff;"/>
   </g>
   <g id="patch_92">
    <path clip-path="url(#pa28a0bd16c)" d="M 375.890348 307.584 
L 377.944616 307.584 
L 377.944616 307.584 
L 375.890348 307.584 
z
" style="fill:#0000ff;"/>
   </g>
   <g id="patch_93">
    <path clip-path="url(#pa28a0bd16c)" d="M 377.944604 307.584 
L 379.998872 307.584 
L 379.998872 306.442378 
L 377.944604 306.442378 
z
" style="fill:#0000ff;"/>
   </g>
   <g id="patch_94">
    <path clip-path="url(#pa28a0bd16c)" d="M 379.998884 307.584 
L 382.053152 307.584 
L 382.053152 307.584 
L 379.998884 307.584 
z
" style="fill:#0000ff;"/>
   </g>
   <g id="patch_95">
    <path clip-path="url(#pa28a0bd16c)" d="M 382.05314 307.584 
L 384.107396 307.584 
L 384.107396 307.584 
L 382.05314 307.584 
z
" style="fill:#0000ff;"/>
   </g>
   <g id="patch_96">
    <path clip-path="url(#pa28a0bd16c)" d="M 384.107396 307.584 
L 386.161664 307.584 
L 386.161664 306.442378 
L 384.107396 306.442378 
z
" style="fill:#0000ff;"/>
   </g>
   <g id="patch_97">
    <path clip-path="url(#pa28a0bd16c)" d="M 386.161676 307.584 
L 388.215944 307.584 
L 388.215944 307.584 
L 386.161676 307.584 
z
" style="fill:#0000ff;"/>
   </g>
   <g id="patch_98">
    <path clip-path="url(#pa28a0bd16c)" d="M 388.215932 307.584 
L 390.2702 307.584 
L 390.2702 307.584 
L 388.215932 307.584 
z
" style="fill:#0000ff;"/>
   </g>
   <g id="patch_99">
    <path clip-path="url(#pa28a0bd16c)" d="M 390.270213 307.584 
L 392.324481 307.584 
L 392.324481 307.584 
L 390.270213 307.584 
z
" style="fill:#0000ff;"/>
   </g>
   <g id="patch_100">
    <path clip-path="url(#pa28a0bd16c)" d="M 392.324468 307.584 
L 394.378724 307.584 
L 394.378724 307.584 
L 392.324468 307.584 
z
" style="fill:#0000ff;"/>
   </g>
   <g id="patch_101">
    <path clip-path="url(#pa28a0bd16c)" d="M 394.378724 307.584 
L 396.432992 307.584 
L 396.432992 307.584 
L 394.378724 307.584 
z
" style="fill:#0000ff;"/>
   </g>
   <g id="patch_102">
    <path clip-path="url(#pa28a0bd16c)" d="M 396.433005 307.584 
L 398.487273 307.584 
L 398.487273 306.442378 
L 396.433005 306.442378 
z
" style="fill:#0000ff;"/>
   </g>
   <g id="patch_103">
    <path clip-path="url(#pa28a0bd16c)" d="M 73.832727 307.584 
L 75.290851 307.584 
L 75.290851 287.034811 
L 73.832727 287.034811 
z
" style="fill:#808080;"/>
   </g>
   <g id="patch_104">
    <path clip-path="url(#pa28a0bd16c)" d="M 75.290851 307.584 
L 76.748975 307.584 
L 76.748975 307.584 
L 75.290851 307.584 
z
" style="fill:#808080;"/>
   </g>
   <g id="patch_105">
    <path clip-path="url(#pa28a0bd16c)" d="M 76.748975 307.584 
L 78.207099 307.584 
L 78.207099 297.309405 
L 76.748975 297.309405 
z
" style="fill:#808080;"/>
   </g>
   <g id="patch_106">
    <path clip-path="url(#pa28a0bd16c)" d="M 78.207099 307.584 
L 79.665235 307.584 
L 79.665235 307.584 
L 78.207099 307.584 
z
" style="fill:#808080;"/>
   </g>
   <g id="patch_107">
    <path clip-path="url(#pa28a0bd16c)" d="M 79.665235 307.584 
L 81.123359 307.584 
L 81.123359 307.584 
L 79.665235 307.584 
z
" style="fill:#808080;"/>
   </g>
   <g id="patch_108">
    <path clip-path="url(#pa28a0bd16c)" d="M 81.123359 307.584 
L 82.581483 307.584 
L 82.581483 307.584 
L 81.123359 307.584 
z
" style="fill:#808080;"/>
   </g>
   <g id="patch_109">
    <path clip-path="url(#pa28a0bd16c)" d="M 82.581483 307.584 
L 84.039607 307.584 
L 84.039607 307.584 
L 82.581483 307.584 
z
" style="fill:#808080;"/>
   </g>
   <g id="patch_110">
    <path clip-path="url(#pa28a0bd16c)" d="M 84.039607 307.584 
L 85.49773 307.584 
L 85.49773 307.584 
L 84.039607 307.584 
z
" style="fill:#808080;"/>
   </g>
   <g id="patch_111">
    <path clip-path="url(#pa28a0bd16c)" d="M 85.49773 307.584 
L 86.955854 307.584 
L 86.955854 296.167784 
L 85.49773 296.167784 
z
" style="fill:#808080;"/>
   </g>
   <g id="patch_112">
    <path clip-path="url(#pa28a0bd16c)" d="M 86.955867 307.584 
L 88.414003 307.584 
L 88.414003 298.451027 
L 86.955867 298.451027 
z
" style="fill:#808080;"/>
   </g>
   <g id="patch_113">
    <path clip-path="url(#pa28a0bd16c)" d="M 88.41399 307.584 
L 89.872114 307.584 
L 89.872114 307.584 
L 88.41399 307.584 
z
" style="fill:#808080;"/>
   </g>
   <g id="patch_114">
    <path clip-path="url(#pa28a0bd16c)" d="M 89.872114 307.584 
L 91.330238 307.584 
L 91.330238 276.760216 
L 89.872114 276.760216 
z
" style="fill:#808080;"/>
   </g>
   <g id="patch_115">
    <path clip-path="url(#pa28a0bd16c)" d="M 91.330238 307.584 
L 92.788362 307.584 
L 92.788362 307.584 
L 91.330238 307.584 
z
" style="fill:#808080;"/>
   </g>
   <g id="patch_116">
    <path clip-path="url(#pa28a0bd16c)" d="M 92.788362 307.584 
L 94.246486 307.584 
L 94.246486 307.584 
L 92.788362 307.584 
z
" style="fill:#808080;"/>
   </g>
   <g id="patch_117">
    <path clip-path="url(#pa28a0bd16c)" d="M 94.246486 307.584 
L 95.70461 307.584 
L 95.70461 307.584 
L 94.246486 307.584 
z
" style="fill:#808080;"/>
   </g>
   <g id="patch_118">
    <path clip-path="url(#pa28a0bd16c)" d="M 95.704616 307.584 
L 97.16274 307.584 
L 97.16274 307.584 
L 95.704616 307.584 
z
" style="fill:#808080;"/>
   </g>
   <g id="patch_119">
    <path clip-path="url(#pa28a0bd16c)" d="M 97.16274 307.584 
L 98.620863 307.584 
L 98.620863 307.584 
L 97.16274 307.584 
z
" style="fill:#808080;"/>
   </g>
   <g id="patch_120">
    <path clip-path="url(#pa28a0bd16c)" d="M 98.62087 307.584 
L 100.078993 307.584 
L 100.078993 272.19373 
L 98.62087 272.19373 
z
" style="fill:#808080;"/>
   </g>
   <g id="patch_121">
    <path clip-path="url(#pa28a0bd16c)" d="M 100.078993 307.584 
L 101.537117 307.584 
L 101.537117 275.618595 
L 100.078993 275.618595 
z
" style="fill:#808080;"/>
   </g>
   <g id="patch_122">
    <path clip-path="url(#pa28a0bd16c)" d="M 101.537117 307.584 
L 102.995241 307.584 
L 102.995241 264.202378 
L 101.537117 264.202378 
z
" style="fill:#808080;"/>
   </g>
   <g id="patch_123">
    <path clip-path="url(#pa28a0bd16c)" d="M 102.995241 307.584 
L 104.453365 307.584 
L 104.453365 276.760216 
L 102.995241 276.760216 
z
" style="fill:#808080;"/>
   </g>
   <g id="patch_124">
    <path clip-path="url(#pa28a0bd16c)" d="M 104.453371 307.584 
L 105.911495 307.584 
L 105.911495 307.584 
L 104.453371 307.584 
z
" style="fill:#808080;"/>
   </g>
   <g id="patch_125">
    <path clip-path="url(#pa28a0bd16c)" d="M 105.911495 307.584 
L 107.369619 307.584 
L 107.369619 307.584 
L 105.911495 307.584 
z
" style="fill:#808080;"/>
   </g>
   <g id="patch_126">
    <path clip-path="url(#pa28a0bd16c)" d="M 107.369625 307.584 
L 108.827749 307.584 
L 108.827749 307.584 
L 107.369625 307.584 
z
" style="fill:#808080;"/>
   </g>
   <g id="patch_127">
    <path clip-path="url(#pa28a0bd16c)" d="M 108.827749 307.584 
L 110.285873 307.584 
L 110.285873 307.584 
L 108.827749 307.584 
z
" style="fill:#808080;"/>
   </g>
   <g id="patch_128">
    <path clip-path="url(#pa28a0bd16c)" d="M 110.285873 307.584 
L 111.743997 307.584 
L 111.743997 307.584 
L 110.285873 307.584 
z
" style="fill:#808080;"/>
   </g>
   <g id="patch_129">
    <path clip-path="url(#pa28a0bd16c)" d="M 111.743997 307.584 
L 113.20212 307.584 
L 113.20212 257.352649 
L 111.743997 257.352649 
z
" style="fill:#808080;"/>
   </g>
   <g id="patch_130">
    <path clip-path="url(#pa28a0bd16c)" d="M 113.202127 307.584 
L 114.66025 307.584 
L 114.66025 267.627243 
L 113.202127 267.627243 
z
" style="fill:#808080;"/>
   </g>
   <g id="patch_131">
    <path clip-path="url(#pa28a0bd16c)" d="M 114.66025 307.584 
L 116.118374 307.584 
L 116.118374 235.661838 
L 114.66025 235.661838 
z
" style="fill:#808080;"/>
   </g>
   <g id="patch_132">
    <path clip-path="url(#pa28a0bd16c)" d="M 116.11838 307.584 
L 117.576504 307.584 
L 117.576504 226.528865 
L 116.11838 226.528865 
z
" style="fill:#808080;"/>
   </g>
   <g id="patch_133">
    <path clip-path="url(#pa28a0bd16c)" d="M 117.576504 307.584 
L 119.034628 307.584 
L 119.034628 307.584 
L 117.576504 307.584 
z
" style="fill:#808080;"/>
   </g>
   <g id="patch_134">
    <path clip-path="url(#pa28a0bd16c)" d="M 119.034628 307.584 
L 120.492752 307.584 
L 120.492752 307.584 
L 119.034628 307.584 
z
" style="fill:#808080;"/>
   </g>
   <g id="patch_135">
    <path clip-path="url(#pa28a0bd16c)" d="M 120.492752 307.584 
L 121.950876 307.584 
L 121.950876 307.584 
L 120.492752 307.584 
z
" style="fill:#808080;"/>
   </g>
   <g id="patch_136">
    <path clip-path="url(#pa28a0bd16c)" d="M 121.950882 307.584 
L 123.409006 307.584 
L 123.409006 307.584 
L 121.950882 307.584 
z
" style="fill:#808080;"/>
   </g>
   <g id="patch_137">
    <path clip-path="url(#pa28a0bd16c)" d="M 123.409006 307.584 
L 124.86713 307.584 
L 124.86713 307.584 
L 123.409006 307.584 
z
" style="fill:#808080;"/>
   </g>
   <g id="patch_138">
    <path clip-path="url(#pa28a0bd16c)" d="M 124.867136 307.584 
L 126.32526 307.584 
L 126.32526 307.584 
L 124.867136 307.584 
z
" style="fill:#808080;"/>
   </g>
   <g id="patch_139">
    <path clip-path="url(#pa28a0bd16c)" d="M 126.32526 307.584 
L 127.783384 307.584 
L 127.783384 307.584 
L 126.32526 307.584 
z
" style="fill:#808080;"/>
   </g>
   <g id="patch_140">
    <path clip-path="url(#pa28a0bd16c)" d="M 127.783384 307.584 
L 129.241507 307.584 
L 129.241507 307.584 
L 127.783384 307.584 
z
" style="fill:#808080;"/>
   </g>
   <g id="patch_141">
    <path clip-path="url(#pa28a0bd16c)" d="M 129.241507 307.584 
L 130.699631 307.584 
L 130.699631 307.584 
L 129.241507 307.584 
z
" style="fill:#808080;"/>
   </g>
   <g id="patch_142">
    <path clip-path="url(#pa28a0bd16c)" d="M 130.699631 307.584 
L 132.157755 307.584 
L 132.157755 307.584 
L 130.699631 307.584 
z
" style="fill:#808080;"/>
   </g>
   <g id="patch_143">
    <path clip-path="url(#pa28a0bd16c)" d="M 132.157761 307.584 
L 133.615885 307.584 
L 133.615885 307.584 
L 132.157761 307.584 
z
" style="fill:#808080;"/>
   </g>
   <g id="patch_144">
    <path clip-path="url(#pa28a0bd16c)" d="M 133.615885 307.584 
L 135.074009 307.584 
L 135.074009 307.584 
L 133.615885 307.584 
z
" style="fill:#808080;"/>
   </g>
   <g id="patch_145">
    <path clip-path="url(#pa28a0bd16c)" d="M 135.074015 307.584 
L 136.532139 307.584 
L 136.532139 307.584 
L 135.074015 307.584 
z
" style="fill:#808080;"/>
   </g>
   <g id="patch_146">
    <path clip-path="url(#pa28a0bd16c)" d="M 136.532139 307.584 
L 137.990263 307.584 
L 137.990263 307.584 
L 136.532139 307.584 
z
" style="fill:#808080;"/>
   </g>
   <g id="patch_147">
    <path clip-path="url(#pa28a0bd16c)" d="M 137.990263 307.584 
L 139.448387 307.584 
L 139.448387 307.584 
L 137.990263 307.584 
z
" style="fill:#808080;"/>
   </g>
   <g id="patch_148">
    <path clip-path="url(#pa28a0bd16c)" d="M 139.448387 307.584 
L 140.906511 307.584 
L 140.906511 307.584 
L 139.448387 307.584 
z
" style="fill:#808080;"/>
   </g>
   <g id="patch_149">
    <path clip-path="url(#pa28a0bd16c)" d="M 140.906517 307.584 
L 142.364641 307.584 
L 142.364641 307.584 
L 140.906517 307.584 
z
" style="fill:#808080;"/>
   </g>
   <g id="patch_150">
    <path clip-path="url(#pa28a0bd16c)" d="M 142.364641 307.584 
L 143.822764 307.584 
L 143.822764 307.584 
L 142.364641 307.584 
z
" style="fill:#808080;"/>
   </g>
   <g id="patch_151">
    <path clip-path="url(#pa28a0bd16c)" d="M 143.822767 307.584 
L 145.280891 307.584 
L 145.280891 307.584 
L 143.822767 307.584 
z
" style="fill:#808080;"/>
   </g>
   <g id="patch_152">
    <path clip-path="url(#pa28a0bd16c)" d="M 145.280894 307.584 
L 146.739018 307.584 
L 146.739018 307.584 
L 145.280894 307.584 
z
" style="fill:#808080;"/>
   </g>
   <g id="patch_153">
    <path clip-path="url(#pa28a0bd16c)" d="M 146.739018 307.584 
L 148.197142 307.584 
L 148.197142 307.584 
L 146.739018 307.584 
z
" style="fill:#808080;"/>
   </g>
   <g id="patch_154">
    <path clip-path="url(#pa28a0bd16c)" d="M 148.197145 307.584 
L 149.655269 307.584 
L 149.655269 307.584 
L 148.197145 307.584 
z
" style="fill:#808080;"/>
   </g>
   <g id="patch_155">
    <path clip-path="url(#pa28a0bd16c)" d="M 149.655272 307.584 
L 151.113396 307.584 
L 151.113396 307.584 
L 149.655272 307.584 
z
" style="fill:#808080;"/>
   </g>
   <g id="patch_156">
    <path clip-path="url(#pa28a0bd16c)" d="M 151.113396 307.584 
L 152.57152 307.584 
L 152.57152 307.584 
L 151.113396 307.584 
z
" style="fill:#808080;"/>
   </g>
   <g id="patch_157">
    <path clip-path="url(#pa28a0bd16c)" d="M 152.571523 307.584 
L 154.029647 307.584 
L 154.029647 307.584 
L 152.571523 307.584 
z
" style="fill:#808080;"/>
   </g>
   <g id="patch_158">
    <path clip-path="url(#pa28a0bd16c)" d="M 154.02965 307.584 
L 155.487774 307.584 
L 155.487774 307.584 
L 154.02965 307.584 
z
" style="fill:#808080;"/>
   </g>
   <g id="patch_159">
    <path clip-path="url(#pa28a0bd16c)" d="M 155.487774 307.584 
L 156.945897 307.584 
L 156.945897 307.584 
L 155.487774 307.584 
z
" style="fill:#808080;"/>
   </g>
   <g id="patch_160">
    <path clip-path="url(#pa28a0bd16c)" d="M 156.945897 307.584 
L 158.404021 307.584 
L 158.404021 307.584 
L 156.945897 307.584 
z
" style="fill:#808080;"/>
   </g>
   <g id="patch_161">
    <path clip-path="url(#pa28a0bd16c)" d="M 158.404027 307.584 
L 159.862151 307.584 
L 159.862151 307.584 
L 158.404027 307.584 
z
" style="fill:#808080;"/>
   </g>
   <g id="patch_162">
    <path clip-path="url(#pa28a0bd16c)" d="M 159.862151 307.584 
L 161.320275 307.584 
L 161.320275 307.584 
L 159.862151 307.584 
z
" style="fill:#808080;"/>
   </g>
   <g id="patch_163">
    <path clip-path="url(#pa28a0bd16c)" d="M 161.320275 307.584 
L 162.778399 307.584 
L 162.778399 307.584 
L 161.320275 307.584 
z
" style="fill:#808080;"/>
   </g>
   <g id="patch_164">
    <path clip-path="url(#pa28a0bd16c)" d="M 162.778405 307.584 
L 164.236529 307.584 
L 164.236529 307.584 
L 162.778405 307.584 
z
" style="fill:#808080;"/>
   </g>
   <g id="patch_165">
    <path clip-path="url(#pa28a0bd16c)" d="M 164.236529 307.584 
L 165.694653 307.584 
L 165.694653 307.584 
L 164.236529 307.584 
z
" style="fill:#808080;"/>
   </g>
   <g id="patch_166">
    <path clip-path="url(#pa28a0bd16c)" d="M 165.694653 307.584 
L 167.152777 307.584 
L 167.152777 307.584 
L 165.694653 307.584 
z
" style="fill:#808080;"/>
   </g>
   <g id="patch_167">
    <path clip-path="url(#pa28a0bd16c)" d="M 167.15278 307.584 
L 168.610904 307.584 
L 168.610904 307.584 
L 167.15278 307.584 
z
" style="fill:#808080;"/>
   </g>
   <g id="patch_168">
    <path clip-path="url(#pa28a0bd16c)" d="M 168.610907 307.584 
L 170.069031 307.584 
L 170.069031 307.584 
L 168.610907 307.584 
z
" style="fill:#808080;"/>
   </g>
   <g id="patch_169">
    <path clip-path="url(#pa28a0bd16c)" d="M 170.069032 307.584 
L 171.527156 307.584 
L 171.527156 307.584 
L 170.069032 307.584 
z
" style="fill:#808080;"/>
   </g>
   <g id="patch_170">
    <path clip-path="url(#pa28a0bd16c)" d="M 171.527158 307.584 
L 172.985281 307.584 
L 172.985281 307.584 
L 171.527158 307.584 
z
" style="fill:#808080;"/>
   </g>
   <g id="patch_171">
    <path clip-path="url(#pa28a0bd16c)" d="M 172.985284 307.584 
L 174.443408 307.584 
L 174.443408 307.584 
L 172.985284 307.584 
z
" style="fill:#808080;"/>
   </g>
   <g id="patch_172">
    <path clip-path="url(#pa28a0bd16c)" d="M 174.44341 307.584 
L 175.901534 307.584 
L 175.901534 307.584 
L 174.44341 307.584 
z
" style="fill:#808080;"/>
   </g>
   <g id="patch_173">
    <path clip-path="url(#pa28a0bd16c)" d="M 175.901535 307.584 
L 177.359659 307.584 
L 177.359659 153.465081 
L 175.901535 153.465081 
z
" style="fill:#808080;"/>
   </g>
   <g id="patch_174">
    <path clip-path="url(#pa28a0bd16c)" d="M 177.359662 307.584 
L 178.817786 307.584 
L 178.817786 122.641297 
L 177.359662 122.641297 
z
" style="fill:#808080;"/>
   </g>
   <g id="patch_175">
    <path clip-path="url(#pa28a0bd16c)" d="M 178.817788 307.584 
L 180.275911 307.584 
L 180.275911 118.074811 
L 178.817788 118.074811 
z
" style="fill:#808080;"/>
   </g>
   <g id="patch_176">
    <path clip-path="url(#pa28a0bd16c)" d="M 180.275913 307.584 
L 181.734037 307.584 
L 181.734037 104.375351 
L 180.275913 104.375351 
z
" style="fill:#808080;"/>
   </g>
   <g id="patch_177">
    <path clip-path="url(#pa28a0bd16c)" d="M 181.734038 307.584 
L 183.192162 307.584 
L 183.192162 307.584 
L 181.734038 307.584 
z
" style="fill:#808080;"/>
   </g>
   <g id="patch_178">
    <path clip-path="url(#pa28a0bd16c)" d="M 183.192165 307.584 
L 184.650289 307.584 
L 184.650289 307.584 
L 183.192165 307.584 
z
" style="fill:#808080;"/>
   </g>
   <g id="patch_179">
    <path clip-path="url(#pa28a0bd16c)" d="M 184.650291 307.584 
L 186.108414 307.584 
L 186.108414 307.584 
L 184.650291 307.584 
z
" style="fill:#808080;"/>
   </g>
   <g id="patch_180">
    <path clip-path="url(#pa28a0bd16c)" d="M 186.108416 307.584 
L 187.56654 307.584 
L 187.56654 307.584 
L 186.108416 307.584 
z
" style="fill:#808080;"/>
   </g>
   <g id="patch_181">
    <path clip-path="url(#pa28a0bd16c)" d="M 187.566542 307.584 
L 189.024666 307.584 
L 189.024666 307.584 
L 187.566542 307.584 
z
" style="fill:#808080;"/>
   </g>
   <g id="patch_182">
    <path clip-path="url(#pa28a0bd16c)" d="M 189.024668 307.584 
L 190.482792 307.584 
L 190.482792 54.144 
L 189.024668 54.144 
z
" style="fill:#808080;"/>
   </g>
   <g id="patch_183">
    <path clip-path="url(#pa28a0bd16c)" d="M 190.482794 307.584 
L 191.940918 307.584 
L 191.940918 54.144 
L 190.482794 54.144 
z
" style="fill:#808080;"/>
   </g>
   <g id="patch_184">
    <path clip-path="url(#pa28a0bd16c)" d="M 191.94092 307.584 
L 193.399043 307.584 
L 193.399043 83.826162 
L 191.94092 83.826162 
z
" style="fill:#808080;"/>
   </g>
   <g id="patch_185">
    <path clip-path="url(#pa28a0bd16c)" d="M 193.399045 307.584 
L 194.857169 307.584 
L 194.857169 54.144 
L 193.399045 54.144 
z
" style="fill:#808080;"/>
   </g>
   <g id="patch_186">
    <path clip-path="url(#pa28a0bd16c)" d="M 194.857171 307.584 
L 196.315295 307.584 
L 196.315295 307.584 
L 194.857171 307.584 
z
" style="fill:#808080;"/>
   </g>
   <g id="patch_187">
    <path clip-path="url(#pa28a0bd16c)" d="M 196.315297 307.584 
L 197.773421 307.584 
L 197.773421 307.584 
L 196.315297 307.584 
z
" style="fill:#808080;"/>
   </g>
   <g id="patch_188">
    <path clip-path="url(#pa28a0bd16c)" d="M 197.773423 307.584 
L 199.231547 307.584 
L 199.231547 307.584 
L 197.773423 307.584 
z
" style="fill:#808080;"/>
   </g>
   <g id="patch_189">
    <path clip-path="url(#pa28a0bd16c)" d="M 199.231549 307.584 
L 200.689673 307.584 
L 200.689673 307.584 
L 199.231549 307.584 
z
" style="fill:#808080;"/>
   </g>
   <g id="patch_190">
    <path clip-path="url(#pa28a0bd16c)" d="M 200.689675 307.584 
L 202.147798 307.584 
L 202.147798 307.584 
L 200.689675 307.584 
z
" style="fill:#808080;"/>
   </g>
   <g id="patch_191">
    <path clip-path="url(#pa28a0bd16c)" d="M 202.1478 307.584 
L 203.605924 307.584 
L 203.605924 103.23373 
L 202.1478 103.23373 
z
" style="fill:#808080;"/>
   </g>
   <g id="patch_192">
    <path clip-path="url(#pa28a0bd16c)" d="M 203.605926 307.584 
L 205.06405 307.584 
L 205.06405 307.584 
L 203.605926 307.584 
z
" style="fill:#808080;"/>
   </g>
   <g id="patch_193">
    <path clip-path="url(#pa28a0bd16c)" d="M 205.064051 307.584 
L 206.522176 307.584 
L 206.522176 224.245622 
L 205.064051 224.245622 
z
" style="fill:#808080;"/>
   </g>
   <g id="patch_194">
    <path clip-path="url(#pa28a0bd16c)" d="M 206.522178 307.584 
L 207.980301 307.584 
L 207.980301 219.679135 
L 206.522178 219.679135 
z
" style="fill:#808080;"/>
   </g>
   <g id="patch_195">
    <path clip-path="url(#pa28a0bd16c)" d="M 207.980303 307.584 
L 209.438427 307.584 
L 209.438427 307.584 
L 207.980303 307.584 
z
" style="fill:#808080;"/>
   </g>
   <g id="patch_196">
    <path clip-path="url(#pa28a0bd16c)" d="M 209.43843 307.584 
L 210.896554 307.584 
L 210.896554 307.584 
L 209.43843 307.584 
z
" style="fill:#808080;"/>
   </g>
   <g id="patch_197">
    <path clip-path="url(#pa28a0bd16c)" d="M 210.896555 307.584 
L 212.354679 307.584 
L 212.354679 307.584 
L 210.896555 307.584 
z
" style="fill:#808080;"/>
   </g>
   <g id="patch_198">
    <path clip-path="url(#pa28a0bd16c)" d="M 212.354681 307.584 
L 213.812805 307.584 
L 213.812805 307.584 
L 212.354681 307.584 
z
" style="fill:#808080;"/>
   </g>
   <g id="patch_199">
    <path clip-path="url(#pa28a0bd16c)" d="M 213.812808 307.584 
L 215.270931 307.584 
L 215.270931 307.584 
L 213.812808 307.584 
z
" style="fill:#808080;"/>
   </g>
   <g id="patch_200">
    <path clip-path="url(#pa28a0bd16c)" d="M 215.270931 307.584 
L 216.729055 307.584 
L 216.729055 203.696432 
L 215.270931 203.696432 
z
" style="fill:#808080;"/>
   </g>
   <g id="patch_201">
    <path clip-path="url(#pa28a0bd16c)" d="M 216.729058 307.584 
L 218.187182 307.584 
L 218.187182 307.584 
L 216.729058 307.584 
z
" style="fill:#808080;"/>
   </g>
   <g id="patch_202">
    <path clip-path="url(#pa28a0bd16c)" d="M 218.187185 307.584 
L 219.645309 307.584 
L 219.645309 229.95373 
L 218.187185 229.95373 
z
" style="fill:#808080;"/>
   </g>
   <g id="matplotlib.axis_1">
    <g id="xtick_1">
     <g id="line2d_1">
      <defs>
       <path d="M 0 0 
L 0 3.5 
" id="m8e3f71f6e1" style="stroke:#000000;stroke-width:0.8;"/>
      </defs>
      <g>
       <use style="stroke:#000000;stroke-width:0.8;" x="72.221539" xlink:href="#m8e3f71f6e1" y="307.584"/>
      </g>
     </g>
     <g id="text_1">
      <!-- −150 -->
      <defs>
       <path d="M 10.59375 35.5 
L 73.1875 35.5 
L 73.1875 27.203125 
L 10.59375 27.203125 
z
" id="DejaVuSans-8722"/>
       <path d="M 12.40625 8.296875 
L 28.515625 8.296875 
L 28.515625 63.921875 
L 10.984375 60.40625 
L 10.984375 69.390625 
L 28.421875 72.90625 
L 38.28125 72.90625 
L 38.28125 8.296875 
L 54.390625 8.296875 
L 54.390625 0 
L 12.40625 0 
z
" id="DejaVuSans-49"/>
       <path d="M 10.796875 72.90625 
L 49.515625 72.90625 
L 49.515625 64.59375 
L 19.828125 64.59375 
L 19.828125 46.734375 
Q 21.96875 47.46875 24.109375 47.828125 
Q 26.265625 48.1875 28.421875 48.1875 
Q 40.625 48.1875 47.75 41.5 
Q 54.890625 34.8125 54.890625 23.390625 
Q 54.890625 11.625 47.5625 5.09375 
Q 40.234375 -1.421875 26.90625 -1.421875 
Q 22.3125 -1.421875 17.546875 -0.640625 
Q 12.796875 0.140625 7.71875 1.703125 
L 7.71875 11.625 
Q 12.109375 9.234375 16.796875 8.0625 
Q 21.484375 6.890625 26.703125 6.890625 
Q 35.15625 6.890625 40.078125 11.328125 
Q 45.015625 15.765625 45.015625 23.390625 
Q 45.015625 31 40.078125 35.4375 
Q 35.15625 39.890625 26.703125 39.890625 
Q 22.75 39.890625 18.8125 39.015625 
Q 14.890625 38.140625 10.796875 36.28125 
z
" id="DejaVuSans-53"/>
       <path d="M 31.78125 66.40625 
Q 24.171875 66.40625 20.328125 58.90625 
Q 16.5 51.421875 16.5 36.375 
Q 16.5 21.390625 20.328125 13.890625 
Q 24.171875 6.390625 31.78125 6.390625 
Q 39.453125 6.390625 43.28125 13.890625 
Q 47.125 21.390625 47.125 36.375 
Q 47.125 51.421875 43.28125 58.90625 
Q 39.453125 66.40625 31.78125 66.40625 
z
M 31.78125 74.21875 
Q 44.046875 74.21875 50.515625 64.515625 
Q 56.984375 54.828125 56.984375 36.375 
Q 56.984375 17.96875 50.515625 8.265625 
Q 44.046875 -1.421875 31.78125 -1.421875 
Q 19.53125 -1.421875 13.0625 8.265625 
Q 6.59375 17.96875 6.59375 36.375 
Q 6.59375 54.828125 13.0625 64.515625 
Q 19.53125 74.21875 31.78125 74.21875 
z
" id="DejaVuSans-48"/>
      </defs>
      <g transform="translate(58.487945 322.182437)scale(0.1 -0.1)">
       <use xlink:href="#DejaVuSans-8722"/>
       <use x="83.789062" xlink:href="#DejaVuSans-49"/>
       <use x="147.412109" xlink:href="#DejaVuSans-53"/>
       <use x="211.035156" xlink:href="#DejaVuSans-48"/>
      </g>
     </g>
    </g>
    <g id="xtick_2">
     <g id="line2d_2">
      <g>
       <use style="stroke:#000000;stroke-width:0.8;" x="112.501257" xlink:href="#m8e3f71f6e1" y="307.584"/>
      </g>
     </g>
     <g id="text_2">
      <!-- −100 -->
      <g transform="translate(98.767664 322.182437)scale(0.1 -0.1)">
       <use xlink:href="#DejaVuSans-8722"/>
       <use x="83.789062" xlink:href="#DejaVuSans-49"/>
       <use x="147.412109" xlink:href="#DejaVuSans-48"/>
       <use x="211.035156" xlink:href="#DejaVuSans-48"/>
      </g>
     </g>
    </g>
    <g id="xtick_3">
     <g id="line2d_3">
      <g>
       <use style="stroke:#000000;stroke-width:0.8;" x="152.780976" xlink:href="#m8e3f71f6e1" y="307.584"/>
      </g>
     </g>
     <g id="text_3">
      <!-- −50 -->
      <g transform="translate(142.228632 322.182437)scale(0.1 -0.1)">
       <use xlink:href="#DejaVuSans-8722"/>
       <use x="83.789062" xlink:href="#DejaVuSans-53"/>
       <use x="147.412109" xlink:href="#DejaVuSans-48"/>
      </g>
     </g>
    </g>
    <g id="xtick_4">
     <g id="line2d_4">
      <g>
       <use style="stroke:#000000;stroke-width:0.8;" x="193.060695" xlink:href="#m8e3f71f6e1" y="307.584"/>
      </g>
     </g>
     <g id="text_4">
      <!-- 0 -->
      <g transform="translate(189.879445 322.182437)scale(0.1 -0.1)">
       <use xlink:href="#DejaVuSans-48"/>
      </g>
     </g>
    </g>
    <g id="xtick_5">
     <g id="line2d_5">
      <g>
       <use style="stroke:#000000;stroke-width:0.8;" x="233.340414" xlink:href="#m8e3f71f6e1" y="307.584"/>
      </g>
     </g>
     <g id="text_5">
      <!-- 50 -->
      <g transform="translate(226.977914 322.182437)scale(0.1 -0.1)">
       <use xlink:href="#DejaVuSans-53"/>
       <use x="63.623047" xlink:href="#DejaVuSans-48"/>
      </g>
     </g>
    </g>
    <g id="xtick_6">
     <g id="line2d_6">
      <g>
       <use style="stroke:#000000;stroke-width:0.8;" x="273.620132" xlink:href="#m8e3f71f6e1" y="307.584"/>
      </g>
     </g>
     <g id="text_6">
      <!-- 100 -->
      <g transform="translate(264.076382 322.182437)scale(0.1 -0.1)">
       <use xlink:href="#DejaVuSans-49"/>
       <use x="63.623047" xlink:href="#DejaVuSans-48"/>
       <use x="127.246094" xlink:href="#DejaVuSans-48"/>
      </g>
     </g>
    </g>
    <g id="xtick_7">
     <g id="line2d_7">
      <g>
       <use style="stroke:#000000;stroke-width:0.8;" x="313.899851" xlink:href="#m8e3f71f6e1" y="307.584"/>
      </g>
     </g>
     <g id="text_7">
      <!-- 150 -->
      <g transform="translate(304.356101 322.182437)scale(0.1 -0.1)">
       <use xlink:href="#DejaVuSans-49"/>
       <use x="63.623047" xlink:href="#DejaVuSans-53"/>
       <use x="127.246094" xlink:href="#DejaVuSans-48"/>
      </g>
     </g>
    </g>
    <g id="xtick_8">
     <g id="line2d_8">
      <g>
       <use style="stroke:#000000;stroke-width:0.8;" x="354.17957" xlink:href="#m8e3f71f6e1" y="307.584"/>
      </g>
     </g>
     <g id="text_8">
      <!-- 200 -->
      <defs>
       <path d="M 19.1875 8.296875 
L 53.609375 8.296875 
L 53.609375 0 
L 7.328125 0 
L 7.328125 8.296875 
Q 12.9375 14.109375 22.625 23.890625 
Q 32.328125 33.6875 34.8125 36.53125 
Q 39.546875 41.84375 41.421875 45.53125 
Q 43.3125 49.21875 43.3125 52.78125 
Q 43.3125 58.59375 39.234375 62.25 
Q 35.15625 65.921875 28.609375 65.921875 
Q 23.96875 65.921875 18.8125 64.3125 
Q 13.671875 62.703125 7.8125 59.421875 
L 7.8125 69.390625 
Q 13.765625 71.78125 18.9375 73 
Q 24.125 74.21875 28.421875 74.21875 
Q 39.75 74.21875 46.484375 68.546875 
Q 53.21875 62.890625 53.21875 53.421875 
Q 53.21875 48.921875 51.53125 44.890625 
Q 49.859375 40.875 45.40625 35.40625 
Q 44.1875 33.984375 37.640625 27.21875 
Q 31.109375 20.453125 19.1875 8.296875 
z
" id="DejaVuSans-50"/>
      </defs>
      <g transform="translate(344.63582 322.182437)scale(0.1 -0.1)">
       <use xlink:href="#DejaVuSans-50"/>
       <use x="63.623047" xlink:href="#DejaVuSans-48"/>
       <use x="127.246094" xlink:href="#DejaVuSans-48"/>
      </g>
     </g>
    </g>
    <g id="xtick_9">
     <g id="line2d_9">
      <g>
       <use style="stroke:#000000;stroke-width:0.8;" x="394.459289" xlink:href="#m8e3f71f6e1" y="307.584"/>
      </g>
     </g>
     <g id="text_9">
      <!-- 250 -->
      <g transform="translate(384.915539 322.182437)scale(0.1 -0.1)">
       <use xlink:href="#DejaVuSans-50"/>
       <use x="63.623047" xlink:href="#DejaVuSans-53"/>
       <use x="127.246094" xlink:href="#DejaVuSans-48"/>
      </g>
     </g>
    </g>
    <g id="text_10">
     <!-- Weight -->
     <defs>
      <path d="M 3.328125 72.90625 
L 13.28125 72.90625 
L 28.609375 11.28125 
L 43.890625 72.90625 
L 54.984375 72.90625 
L 70.3125 11.28125 
L 85.59375 72.90625 
L 95.609375 72.90625 
L 77.296875 0 
L 64.890625 0 
L 49.515625 63.28125 
L 33.984375 0 
L 21.578125 0 
z
" id="DejaVuSans-87"/>
      <path d="M 56.203125 29.59375 
L 56.203125 25.203125 
L 14.890625 25.203125 
Q 15.484375 15.921875 20.484375 11.0625 
Q 25.484375 6.203125 34.421875 6.203125 
Q 39.59375 6.203125 44.453125 7.46875 
Q 49.3125 8.734375 54.109375 11.28125 
L 54.109375 2.78125 
Q 49.265625 0.734375 44.1875 -0.34375 
Q 39.109375 -1.421875 33.890625 -1.421875 
Q 20.796875 -1.421875 13.15625 6.1875 
Q 5.515625 13.8125 5.515625 26.8125 
Q 5.515625 40.234375 12.765625 48.109375 
Q 20.015625 56 32.328125 56 
Q 43.359375 56 49.78125 48.890625 
Q 56.203125 41.796875 56.203125 29.59375 
z
M 47.21875 32.234375 
Q 47.125 39.59375 43.09375 43.984375 
Q 39.0625 48.390625 32.421875 48.390625 
Q 24.90625 48.390625 20.390625 44.140625 
Q 15.875 39.890625 15.1875 32.171875 
z
" id="DejaVuSans-101"/>
      <path d="M 9.421875 54.6875 
L 18.40625 54.6875 
L 18.40625 0 
L 9.421875 0 
z
M 9.421875 75.984375 
L 18.40625 75.984375 
L 18.40625 64.59375 
L 9.421875 64.59375 
z
" id="DejaVuSans-105"/>
      <path d="M 45.40625 27.984375 
Q 45.40625 37.75 41.375 43.109375 
Q 37.359375 48.484375 30.078125 48.484375 
Q 22.859375 48.484375 18.828125 43.109375 
Q 14.796875 37.75 14.796875 27.984375 
Q 14.796875 18.265625 18.828125 12.890625 
Q 22.859375 7.515625 30.078125 7.515625 
Q 37.359375 7.515625 41.375 12.890625 
Q 45.40625 18.265625 45.40625 27.984375 
z
M 54.390625 6.78125 
Q 54.390625 -7.171875 48.1875 -13.984375 
Q 42 -20.796875 29.203125 -20.796875 
Q 24.46875 -20.796875 20.265625 -20.09375 
Q 16.0625 -19.390625 12.109375 -17.921875 
L 12.109375 -9.1875 
Q 16.0625 -11.328125 19.921875 -12.34375 
Q 23.78125 -13.375 27.78125 -13.375 
Q 36.625 -13.375 41.015625 -8.765625 
Q 45.40625 -4.15625 45.40625 5.171875 
L 45.40625 9.625 
Q 42.625 4.78125 38.28125 2.390625 
Q 33.9375 0 27.875 0 
Q 17.828125 0 11.671875 7.65625 
Q 5.515625 15.328125 5.515625 27.984375 
Q 5.515625 40.671875 11.671875 48.328125 
Q 17.828125 56 27.875 56 
Q 33.9375 56 38.28125 53.609375 
Q 42.625 51.21875 45.40625 46.390625 
L 45.40625 54.6875 
L 54.390625 54.6875 
z
" id="DejaVuSans-103"/>
      <path d="M 54.890625 33.015625 
L 54.890625 0 
L 45.90625 0 
L 45.90625 32.71875 
Q 45.90625 40.484375 42.875 44.328125 
Q 39.84375 48.1875 33.796875 48.1875 
Q 26.515625 48.1875 22.3125 43.546875 
Q 18.109375 38.921875 18.109375 30.90625 
L 18.109375 0 
L 9.078125 0 
L 9.078125 75.984375 
L 18.109375 75.984375 
L 18.109375 46.1875 
Q 21.34375 51.125 25.703125 53.5625 
Q 30.078125 56 35.796875 56 
Q 45.21875 56 50.046875 50.171875 
Q 54.890625 44.34375 54.890625 33.015625 
z
" id="DejaVuSans-104"/>
      <path d="M 18.3125 70.21875 
L 18.3125 54.6875 
L 36.8125 54.6875 
L 36.8125 47.703125 
L 18.3125 47.703125 
L 18.3125 18.015625 
Q 18.3125 11.328125 20.140625 9.421875 
Q 21.96875 7.515625 27.59375 7.515625 
L 36.8125 7.515625 
L 36.8125 0 
L 27.59375 0 
Q 17.1875 0 13.234375 3.875 
Q 9.28125 7.765625 9.28125 18.015625 
L 9.28125 47.703125 
L 2.6875 47.703125 
L 2.6875 54.6875 
L 9.28125 54.6875 
L 9.28125 70.21875 
z
" id="DejaVuSans-116"/>
     </defs>
     <g transform="translate(218.451406 335.860562)scale(0.1 -0.1)">
      <use xlink:href="#DejaVuSans-87"/>
      <use x="98.798828" xlink:href="#DejaVuSans-101"/>
      <use x="160.322266" xlink:href="#DejaVuSans-105"/>
      <use x="188.105469" xlink:href="#DejaVuSans-103"/>
      <use x="251.582031" xlink:href="#DejaVuSans-104"/>
      <use x="314.960938" xlink:href="#DejaVuSans-116"/>
     </g>
    </g>
   </g>
   <g id="matplotlib.axis_2">
    <g id="ytick_1">
     <g id="line2d_10">
      <defs>
       <path d="M 0 0 
L -3.5 0 
" id="m30acf8e1ff" style="stroke:#000000;stroke-width:0.8;"/>
      </defs>
      <g>
       <use style="stroke:#000000;stroke-width:0.8;" x="57.6" xlink:href="#m30acf8e1ff" y="307.584"/>
      </g>
     </g>
     <g id="text_11">
      <!-- 0 -->
      <g transform="translate(44.2375 311.383219)scale(0.1 -0.1)">
       <use xlink:href="#DejaVuSans-48"/>
      </g>
     </g>
    </g>
    <g id="ytick_2">
     <g id="line2d_11">
      <g>
       <use style="stroke:#000000;stroke-width:0.8;" x="57.6" xlink:href="#m30acf8e1ff" y="250.502919"/>
      </g>
     </g>
     <g id="text_12">
      <!-- 50 -->
      <g transform="translate(37.875 254.302138)scale(0.1 -0.1)">
       <use xlink:href="#DejaVuSans-53"/>
       <use x="63.623047" xlink:href="#DejaVuSans-48"/>
      </g>
     </g>
    </g>
    <g id="ytick_3">
     <g id="line2d_12">
      <g>
       <use style="stroke:#000000;stroke-width:0.8;" x="57.6" xlink:href="#m30acf8e1ff" y="193.421838"/>
      </g>
     </g>
     <g id="text_13">
      <!-- 100 -->
      <g transform="translate(31.5125 197.221057)scale(0.1 -0.1)">
       <use xlink:href="#DejaVuSans-49"/>
       <use x="63.623047" xlink:href="#DejaVuSans-48"/>
       <use x="127.246094" xlink:href="#DejaVuSans-48"/>
      </g>
     </g>
    </g>
    <g id="ytick_4">
     <g id="line2d_13">
      <g>
       <use style="stroke:#000000;stroke-width:0.8;" x="57.6" xlink:href="#m30acf8e1ff" y="136.340757"/>
      </g>
     </g>
     <g id="text_14">
      <!-- 150 -->
      <g transform="translate(31.5125 140.139976)scale(0.1 -0.1)">
       <use xlink:href="#DejaVuSans-49"/>
       <use x="63.623047" xlink:href="#DejaVuSans-53"/>
       <use x="127.246094" xlink:href="#DejaVuSans-48"/>
      </g>
     </g>
    </g>
    <g id="ytick_5">
     <g id="line2d_14">
      <g>
       <use style="stroke:#000000;stroke-width:0.8;" x="57.6" xlink:href="#m30acf8e1ff" y="79.259676"/>
      </g>
     </g>
     <g id="text_15">
      <!-- 200 -->
      <g transform="translate(31.5125 83.058894)scale(0.1 -0.1)">
       <use xlink:href="#DejaVuSans-50"/>
       <use x="63.623047" xlink:href="#DejaVuSans-48"/>
       <use x="127.246094" xlink:href="#DejaVuSans-48"/>
      </g>
     </g>
    </g>
    <g id="text_16">
     <!-- Occurrencies -->
     <defs>
      <path d="M 39.40625 66.21875 
Q 28.65625 66.21875 22.328125 58.203125 
Q 16.015625 50.203125 16.015625 36.375 
Q 16.015625 22.609375 22.328125 14.59375 
Q 28.65625 6.59375 39.40625 6.59375 
Q 50.140625 6.59375 56.421875 14.59375 
Q 62.703125 22.609375 62.703125 36.375 
Q 62.703125 50.203125 56.421875 58.203125 
Q 50.140625 66.21875 39.40625 66.21875 
z
M 39.40625 74.21875 
Q 54.734375 74.21875 63.90625 63.9375 
Q 73.09375 53.65625 73.09375 36.375 
Q 73.09375 19.140625 63.90625 8.859375 
Q 54.734375 -1.421875 39.40625 -1.421875 
Q 24.03125 -1.421875 14.8125 8.828125 
Q 5.609375 19.09375 5.609375 36.375 
Q 5.609375 53.65625 14.8125 63.9375 
Q 24.03125 74.21875 39.40625 74.21875 
z
" id="DejaVuSans-79"/>
      <path d="M 48.78125 52.59375 
L 48.78125 44.1875 
Q 44.96875 46.296875 41.140625 47.34375 
Q 37.3125 48.390625 33.40625 48.390625 
Q 24.65625 48.390625 19.8125 42.84375 
Q 14.984375 37.3125 14.984375 27.296875 
Q 14.984375 17.28125 19.8125 11.734375 
Q 24.65625 6.203125 33.40625 6.203125 
Q 37.3125 6.203125 41.140625 7.25 
Q 44.96875 8.296875 48.78125 10.40625 
L 48.78125 2.09375 
Q 45.015625 0.34375 40.984375 -0.53125 
Q 36.96875 -1.421875 32.421875 -1.421875 
Q 20.0625 -1.421875 12.78125 6.34375 
Q 5.515625 14.109375 5.515625 27.296875 
Q 5.515625 40.671875 12.859375 48.328125 
Q 20.21875 56 33.015625 56 
Q 37.15625 56 41.109375 55.140625 
Q 45.0625 54.296875 48.78125 52.59375 
z
" id="DejaVuSans-99"/>
      <path d="M 8.5 21.578125 
L 8.5 54.6875 
L 17.484375 54.6875 
L 17.484375 21.921875 
Q 17.484375 14.15625 20.5 10.265625 
Q 23.53125 6.390625 29.59375 6.390625 
Q 36.859375 6.390625 41.078125 11.03125 
Q 45.3125 15.671875 45.3125 23.6875 
L 45.3125 54.6875 
L 54.296875 54.6875 
L 54.296875 0 
L 45.3125 0 
L 45.3125 8.40625 
Q 42.046875 3.421875 37.71875 1 
Q 33.40625 -1.421875 27.6875 -1.421875 
Q 18.265625 -1.421875 13.375 4.4375 
Q 8.5 10.296875 8.5 21.578125 
z
M 31.109375 56 
z
" id="DejaVuSans-117"/>
      <path d="M 41.109375 46.296875 
Q 39.59375 47.171875 37.8125 47.578125 
Q 36.03125 48 33.890625 48 
Q 26.265625 48 22.1875 43.046875 
Q 18.109375 38.09375 18.109375 28.8125 
L 18.109375 0 
L 9.078125 0 
L 9.078125 54.6875 
L 18.109375 54.6875 
L 18.109375 46.1875 
Q 20.953125 51.171875 25.484375 53.578125 
Q 30.03125 56 36.53125 56 
Q 37.453125 56 38.578125 55.875 
Q 39.703125 55.765625 41.0625 55.515625 
z
" id="DejaVuSans-114"/>
      <path d="M 54.890625 33.015625 
L 54.890625 0 
L 45.90625 0 
L 45.90625 32.71875 
Q 45.90625 40.484375 42.875 44.328125 
Q 39.84375 48.1875 33.796875 48.1875 
Q 26.515625 48.1875 22.3125 43.546875 
Q 18.109375 38.921875 18.109375 30.90625 
L 18.109375 0 
L 9.078125 0 
L 9.078125 54.6875 
L 18.109375 54.6875 
L 18.109375 46.1875 
Q 21.34375 51.125 25.703125 53.5625 
Q 30.078125 56 35.796875 56 
Q 45.21875 56 50.046875 50.171875 
Q 54.890625 44.34375 54.890625 33.015625 
z
" id="DejaVuSans-110"/>
      <path d="M 44.28125 53.078125 
L 44.28125 44.578125 
Q 40.484375 46.53125 36.375 47.5 
Q 32.28125 48.484375 27.875 48.484375 
Q 21.1875 48.484375 17.84375 46.4375 
Q 14.5 44.390625 14.5 40.28125 
Q 14.5 37.15625 16.890625 35.375 
Q 19.28125 33.59375 26.515625 31.984375 
L 29.59375 31.296875 
Q 39.15625 29.25 43.1875 25.515625 
Q 47.21875 21.78125 47.21875 15.09375 
Q 47.21875 7.46875 41.1875 3.015625 
Q 35.15625 -1.421875 24.609375 -1.421875 
Q 20.21875 -1.421875 15.453125 -0.5625 
Q 10.6875 0.296875 5.421875 2 
L 5.421875 11.28125 
Q 10.40625 8.6875 15.234375 7.390625 
Q 20.0625 6.109375 24.8125 6.109375 
Q 31.15625 6.109375 34.5625 8.28125 
Q 37.984375 10.453125 37.984375 14.40625 
Q 37.984375 18.0625 35.515625 20.015625 
Q 33.0625 21.96875 24.703125 23.78125 
L 21.578125 24.515625 
Q 13.234375 26.265625 9.515625 29.90625 
Q 5.8125 33.546875 5.8125 39.890625 
Q 5.8125 47.609375 11.28125 51.796875 
Q 16.75 56 26.8125 56 
Q 31.78125 56 36.171875 55.265625 
Q 40.578125 54.546875 44.28125 53.078125 
z
" id="DejaVuSans-115"/>
     </defs>
     <g transform="translate(25.432812 207.304563)rotate(-90)scale(0.1 -0.1)">
      <use xlink:href="#DejaVuSans-79"/>
      <use x="78.710938" xlink:href="#DejaVuSans-99"/>
      <use x="133.691406" xlink:href="#DejaVuSans-99"/>
      <use x="188.671875" xlink:href="#DejaVuSans-117"/>
      <use x="252.050781" xlink:href="#DejaVuSans-114"/>
      <use x="293.148438" xlink:href="#DejaVuSans-114"/>
      <use x="334.230469" xlink:href="#DejaVuSans-101"/>
      <use x="395.753906" xlink:href="#DejaVuSans-110"/>
      <use x="459.132812" xlink:href="#DejaVuSans-99"/>
      <use x="514.113281" xlink:href="#DejaVuSans-105"/>
      <use x="541.896484" xlink:href="#DejaVuSans-101"/>
      <use x="603.419922" xlink:href="#DejaVuSans-115"/>
     </g>
    </g>
   </g>
   <g id="patch_203">
    <path d="M 57.6 307.584 
L 57.6 41.472 
" style="fill:none;stroke:#000000;stroke-linecap:square;stroke-linejoin:miter;stroke-width:0.8;"/>
   </g>
   <g id="patch_204">
    <path d="M 414.72 307.584 
L 414.72 41.472 
" style="fill:none;stroke:#000000;stroke-linecap:square;stroke-linejoin:miter;stroke-width:0.8;"/>
   </g>
   <g id="patch_205">
    <path d="M 57.6 307.584 
L 414.72 307.584 
" style="fill:none;stroke:#000000;stroke-linecap:square;stroke-linejoin:miter;stroke-width:0.8;"/>
   </g>
   <g id="patch_206">
    <path d="M 57.6 41.472 
L 414.72 41.472 
" style="fill:none;stroke:#000000;stroke-linecap:square;stroke-linejoin:miter;stroke-width:0.8;"/>
   </g>
   <g id="text_17">
    <!-- Histogram of conv2 -->
    <defs>
     <path d="M 9.8125 72.90625 
L 19.671875 72.90625 
L 19.671875 43.015625 
L 55.515625 43.015625 
L 55.515625 72.90625 
L 65.375 72.90625 
L 65.375 0 
L 55.515625 0 
L 55.515625 34.71875 
L 19.671875 34.71875 
L 19.671875 0 
L 9.8125 0 
z
" id="DejaVuSans-72"/>
     <path d="M 30.609375 48.390625 
Q 23.390625 48.390625 19.1875 42.75 
Q 14.984375 37.109375 14.984375 27.296875 
Q 14.984375 17.484375 19.15625 11.84375 
Q 23.34375 6.203125 30.609375 6.203125 
Q 37.796875 6.203125 41.984375 11.859375 
Q 46.1875 17.53125 46.1875 27.296875 
Q 46.1875 37.015625 41.984375 42.703125 
Q 37.796875 48.390625 30.609375 48.390625 
z
M 30.609375 56 
Q 42.328125 56 49.015625 48.375 
Q 55.71875 40.765625 55.71875 27.296875 
Q 55.71875 13.875 49.015625 6.21875 
Q 42.328125 -1.421875 30.609375 -1.421875 
Q 18.84375 -1.421875 12.171875 6.21875 
Q 5.515625 13.875 5.515625 27.296875 
Q 5.515625 40.765625 12.171875 48.375 
Q 18.84375 56 30.609375 56 
z
" id="DejaVuSans-111"/>
     <path d="M 34.28125 27.484375 
Q 23.390625 27.484375 19.1875 25 
Q 14.984375 22.515625 14.984375 16.5 
Q 14.984375 11.71875 18.140625 8.90625 
Q 21.296875 6.109375 26.703125 6.109375 
Q 34.1875 6.109375 38.703125 11.40625 
Q 43.21875 16.703125 43.21875 25.484375 
L 43.21875 27.484375 
z
M 52.203125 31.203125 
L 52.203125 0 
L 43.21875 0 
L 43.21875 8.296875 
Q 40.140625 3.328125 35.546875 0.953125 
Q 30.953125 -1.421875 24.3125 -1.421875 
Q 15.921875 -1.421875 10.953125 3.296875 
Q 6 8.015625 6 15.921875 
Q 6 25.140625 12.171875 29.828125 
Q 18.359375 34.515625 30.609375 34.515625 
L 43.21875 34.515625 
L 43.21875 35.40625 
Q 43.21875 41.609375 39.140625 45 
Q 35.0625 48.390625 27.6875 48.390625 
Q 23 48.390625 18.546875 47.265625 
Q 14.109375 46.140625 10.015625 43.890625 
L 10.015625 52.203125 
Q 14.9375 54.109375 19.578125 55.046875 
Q 24.21875 56 28.609375 56 
Q 40.484375 56 46.34375 49.84375 
Q 52.203125 43.703125 52.203125 31.203125 
z
" id="DejaVuSans-97"/>
     <path d="M 52 44.1875 
Q 55.375 50.25 60.0625 53.125 
Q 64.75 56 71.09375 56 
Q 79.640625 56 84.28125 50.015625 
Q 88.921875 44.046875 88.921875 33.015625 
L 88.921875 0 
L 79.890625 0 
L 79.890625 32.71875 
Q 79.890625 40.578125 77.09375 44.375 
Q 74.3125 48.1875 68.609375 48.1875 
Q 61.625 48.1875 57.5625 43.546875 
Q 53.515625 38.921875 53.515625 30.90625 
L 53.515625 0 
L 44.484375 0 
L 44.484375 32.71875 
Q 44.484375 40.625 41.703125 44.40625 
Q 38.921875 48.1875 33.109375 48.1875 
Q 26.21875 48.1875 22.15625 43.53125 
Q 18.109375 38.875 18.109375 30.90625 
L 18.109375 0 
L 9.078125 0 
L 9.078125 54.6875 
L 18.109375 54.6875 
L 18.109375 46.1875 
Q 21.1875 51.21875 25.484375 53.609375 
Q 29.78125 56 35.6875 56 
Q 41.65625 56 45.828125 52.96875 
Q 50 49.953125 52 44.1875 
z
" id="DejaVuSans-109"/>
     <path id="DejaVuSans-32"/>
     <path d="M 37.109375 75.984375 
L 37.109375 68.5 
L 28.515625 68.5 
Q 23.6875 68.5 21.796875 66.546875 
Q 19.921875 64.59375 19.921875 59.515625 
L 19.921875 54.6875 
L 34.71875 54.6875 
L 34.71875 47.703125 
L 19.921875 47.703125 
L 19.921875 0 
L 10.890625 0 
L 10.890625 47.703125 
L 2.296875 47.703125 
L 2.296875 54.6875 
L 10.890625 54.6875 
L 10.890625 58.5 
Q 10.890625 67.625 15.140625 71.796875 
Q 19.390625 75.984375 28.609375 75.984375 
z
" id="DejaVuSans-102"/>
     <path d="M 2.984375 54.6875 
L 12.5 54.6875 
L 29.59375 8.796875 
L 46.6875 54.6875 
L 56.203125 54.6875 
L 35.6875 0 
L 23.484375 0 
z
" id="DejaVuSans-118"/>
    </defs>
    <g transform="translate(177.29625 35.472)scale(0.12 -0.12)">
     <use xlink:href="#DejaVuSans-72"/>
     <use x="75.195312" xlink:href="#DejaVuSans-105"/>
     <use x="102.978516" xlink:href="#DejaVuSans-115"/>
     <use x="155.078125" xlink:href="#DejaVuSans-116"/>
     <use x="194.287109" xlink:href="#DejaVuSans-111"/>
     <use x="255.46875" xlink:href="#DejaVuSans-103"/>
     <use x="318.945312" xlink:href="#DejaVuSans-114"/>
     <use x="360.058594" xlink:href="#DejaVuSans-97"/>
     <use x="421.337891" xlink:href="#DejaVuSans-109"/>
     <use x="518.75" xlink:href="#DejaVuSans-32"/>
     <use x="550.537109" xlink:href="#DejaVuSans-111"/>
     <use x="611.71875" xlink:href="#DejaVuSans-102"/>
     <use x="646.923828" xlink:href="#DejaVuSans-32"/>
     <use x="678.710938" xlink:href="#DejaVuSans-99"/>
     <use x="733.691406" xlink:href="#DejaVuSans-111"/>
     <use x="794.873047" xlink:href="#DejaVuSans-110"/>
     <use x="858.251953" xlink:href="#DejaVuSans-118"/>
     <use x="917.431641" xlink:href="#DejaVuSans-50"/>
    </g>
   </g>
   <g id="legend_1">
    <g id="patch_207">
     <path d="M 323.679375 78.82825 
L 407.72 78.82825 
Q 409.72 78.82825 409.72 76.82825 
L 409.72 48.472 
Q 409.72 46.472 407.72 46.472 
L 323.679375 46.472 
Q 321.679375 46.472 321.679375 48.472 
L 321.679375 76.82825 
Q 321.679375 78.82825 323.679375 78.82825 
z
" style="fill:#ffffff;opacity:0.8;stroke:#cccccc;stroke-linejoin:miter;"/>
    </g>
    <g id="patch_208">
     <path d="M 325.679375 58.070437 
L 345.679375 58.070437 
L 345.679375 51.070437 
L 325.679375 51.070437 
z
" style="fill:#0000ff;"/>
    </g>
    <g id="text_18">
     <!-- unmasked -->
     <defs>
      <path d="M 9.078125 75.984375 
L 18.109375 75.984375 
L 18.109375 31.109375 
L 44.921875 54.6875 
L 56.390625 54.6875 
L 27.390625 29.109375 
L 57.625 0 
L 45.90625 0 
L 18.109375 26.703125 
L 18.109375 0 
L 9.078125 0 
z
" id="DejaVuSans-107"/>
      <path d="M 45.40625 46.390625 
L 45.40625 75.984375 
L 54.390625 75.984375 
L 54.390625 0 
L 45.40625 0 
L 45.40625 8.203125 
Q 42.578125 3.328125 38.25 0.953125 
Q 33.9375 -1.421875 27.875 -1.421875 
Q 17.96875 -1.421875 11.734375 6.484375 
Q 5.515625 14.40625 5.515625 27.296875 
Q 5.515625 40.1875 11.734375 48.09375 
Q 17.96875 56 27.875 56 
Q 33.9375 56 38.25 53.625 
Q 42.578125 51.265625 45.40625 46.390625 
z
M 14.796875 27.296875 
Q 14.796875 17.390625 18.875 11.75 
Q 22.953125 6.109375 30.078125 6.109375 
Q 37.203125 6.109375 41.296875 11.75 
Q 45.40625 17.390625 45.40625 27.296875 
Q 45.40625 37.203125 41.296875 42.84375 
Q 37.203125 48.484375 30.078125 48.484375 
Q 22.953125 48.484375 18.875 42.84375 
Q 14.796875 37.203125 14.796875 27.296875 
z
" id="DejaVuSans-100"/>
     </defs>
     <g transform="translate(353.679375 58.070437)scale(0.1 -0.1)">
      <use xlink:href="#DejaVuSans-117"/>
      <use x="63.378906" xlink:href="#DejaVuSans-110"/>
      <use x="126.757812" xlink:href="#DejaVuSans-109"/>
      <use x="224.169922" xlink:href="#DejaVuSans-97"/>
      <use x="285.449219" xlink:href="#DejaVuSans-115"/>
      <use x="337.548828" xlink:href="#DejaVuSans-107"/>
      <use x="395.412109" xlink:href="#DejaVuSans-101"/>
      <use x="456.935547" xlink:href="#DejaVuSans-100"/>
     </g>
    </g>
    <g id="patch_209">
     <path d="M 325.679375 72.748562 
L 345.679375 72.748562 
L 345.679375 65.748562 
L 325.679375 65.748562 
z
" style="fill:#808080;"/>
    </g>
    <g id="text_19">
     <!-- masked -->
     <g transform="translate(353.679375 72.748562)scale(0.1 -0.1)">
      <use xlink:href="#DejaVuSans-109"/>
      <use x="97.412109" xlink:href="#DejaVuSans-97"/>
      <use x="158.691406" xlink:href="#DejaVuSans-115"/>
      <use x="210.791016" xlink:href="#DejaVuSans-107"/>
      <use x="268.654297" xlink:href="#DejaVuSans-101"/>
      <use x="330.177734" xlink:href="#DejaVuSans-100"/>
     </g>
    </g>
   </g>
  </g>
 </g>
 <defs>
  <clipPath id="pa28a0bd16c">
   <rect height="266.112" width="357.12" x="57.6" y="41.472"/>
  </clipPath>
 </defs>
</svg>
