<?xml version="1.0" encoding="utf-8" standalone="no"?>
<!DOCTYPE svg PUBLIC "-//W3C//DTD SVG 1.1//EN"
  "http://www.w3.org/Graphics/SVG/1.1/DTD/svg11.dtd">
<!-- Created with matplotlib (https://matplotlib.org/) -->
<svg height="345.6pt" version="1.1" viewBox="0 0 460.8 345.6" width="460.8pt" xmlns="http://www.w3.org/2000/svg" xmlns:xlink="http://www.w3.org/1999/xlink">
 <defs>
  <style type="text/css">
*{stroke-linecap:butt;stroke-linejoin:round;}
  </style>
 </defs>
 <g id="figure_1">
  <g id="patch_1">
   <path d="M 0 345.6 
L 460.8 345.6 
L 460.8 0 
L 0 0 
z
" style="fill:#ffffff;"/>
  </g>
  <g id="axes_1">
   <g id="patch_2">
    <path d="M 57.6 307.584 
L 414.72 307.584 
L 414.72 41.472 
L 57.6 41.472 
z
" style="fill:#ffffff;"/>
   </g>
   <g id="patch_3">
    <path clip-path="url(#p948fb81e91)" d="M 73.832727 307.584 
L 76.986068 307.584 
L 76.986068 307.56528 
L 73.832727 307.56528 
z
" style="fill:#0000ff;"/>
   </g>
   <g id="patch_4">
    <path clip-path="url(#p948fb81e91)" d="M 76.986068 307.584 
L 80.13941 307.584 
L 80.13941 307.584 
L 76.986068 307.584 
z
" style="fill:#0000ff;"/>
   </g>
   <g id="patch_5">
    <path clip-path="url(#p948fb81e91)" d="M 80.13941 307.584 
L 83.292751 307.584 
L 83.292751 307.584 
L 80.13941 307.584 
z
" style="fill:#0000ff;"/>
   </g>
   <g id="patch_6">
    <path clip-path="url(#p948fb81e91)" d="M 83.292751 307.584 
L 86.446104 307.584 
L 86.446104 307.584 
L 83.292751 307.584 
z
" style="fill:#0000ff;"/>
   </g>
   <g id="patch_7">
    <path clip-path="url(#p948fb81e91)" d="M 86.446104 307.584 
L 89.599445 307.584 
L 89.599445 307.57464 
L 86.446104 307.57464 
z
" style="fill:#0000ff;"/>
   </g>
   <g id="patch_8">
    <path clip-path="url(#p948fb81e91)" d="M 89.599445 307.584 
L 92.752786 307.584 
L 92.752786 307.584 
L 89.599445 307.584 
z
" style="fill:#0000ff;"/>
   </g>
   <g id="patch_9">
    <path clip-path="url(#p948fb81e91)" d="M 92.752786 307.584 
L 95.906127 307.584 
L 95.906127 307.584 
L 92.752786 307.584 
z
" style="fill:#0000ff;"/>
   </g>
   <g id="patch_10">
    <path clip-path="url(#p948fb81e91)" d="M 95.906127 307.584 
L 99.059469 307.584 
L 99.059469 307.584 
L 95.906127 307.584 
z
" style="fill:#0000ff;"/>
   </g>
   <g id="patch_11">
    <path clip-path="url(#p948fb81e91)" d="M 99.059469 307.584 
L 102.21281 307.584 
L 102.21281 307.584 
L 99.059469 307.584 
z
" style="fill:#0000ff;"/>
   </g>
   <g id="patch_12">
    <path clip-path="url(#p948fb81e91)" d="M 102.212822 307.584 
L 105.366175 307.584 
L 105.366175 307.584 
L 102.212822 307.584 
z
" style="fill:#0000ff;"/>
   </g>
   <g id="patch_13">
    <path clip-path="url(#p948fb81e91)" d="M 105.366163 307.584 
L 108.519504 307.584 
L 108.519504 307.56528 
L 105.366163 307.56528 
z
" style="fill:#0000ff;"/>
   </g>
   <g id="patch_14">
    <path clip-path="url(#p948fb81e91)" d="M 108.519504 307.584 
L 111.672845 307.584 
L 111.672845 307.584 
L 108.519504 307.584 
z
" style="fill:#0000ff;"/>
   </g>
   <g id="patch_15">
    <path clip-path="url(#p948fb81e91)" d="M 111.672845 307.584 
L 114.826186 307.584 
L 114.826186 307.584 
L 111.672845 307.584 
z
" style="fill:#0000ff;"/>
   </g>
   <g id="patch_16">
    <path clip-path="url(#p948fb81e91)" d="M 114.826186 307.584 
L 117.979528 307.584 
L 117.979528 307.584 
L 114.826186 307.584 
z
" style="fill:#0000ff;"/>
   </g>
   <g id="patch_17">
    <path clip-path="url(#p948fb81e91)" d="M 117.979528 307.584 
L 121.132869 307.584 
L 121.132869 307.56528 
L 117.979528 307.56528 
z
" style="fill:#0000ff;"/>
   </g>
   <g id="patch_18">
    <path clip-path="url(#p948fb81e91)" d="M 121.132869 307.584 
L 124.286222 307.584 
L 124.286222 307.584 
L 121.132869 307.584 
z
" style="fill:#0000ff;"/>
   </g>
   <g id="patch_19">
    <path clip-path="url(#p948fb81e91)" d="M 124.286222 307.584 
L 127.439563 307.584 
L 127.439563 307.584 
L 124.286222 307.584 
z
" style="fill:#0000ff;"/>
   </g>
   <g id="patch_20">
    <path clip-path="url(#p948fb81e91)" d="M 127.439563 307.584 
L 130.592904 307.584 
L 130.592904 307.57464 
L 127.439563 307.57464 
z
" style="fill:#0000ff;"/>
   </g>
   <g id="patch_21">
    <path clip-path="url(#p948fb81e91)" d="M 130.592904 307.584 
L 133.746245 307.584 
L 133.746245 307.584 
L 130.592904 307.584 
z
" style="fill:#0000ff;"/>
   </g>
   <g id="patch_22">
    <path clip-path="url(#p948fb81e91)" d="M 133.746245 307.584 
L 136.899586 307.584 
L 136.899586 307.56528 
L 133.746245 307.56528 
z
" style="fill:#0000ff;"/>
   </g>
   <g id="patch_23">
    <path clip-path="url(#p948fb81e91)" d="M 136.899586 307.584 
L 140.052928 307.584 
L 140.052928 307.57464 
L 136.899586 307.57464 
z
" style="fill:#0000ff;"/>
   </g>
   <g id="patch_24">
    <path clip-path="url(#p948fb81e91)" d="M 140.052939 307.584 
L 143.206293 307.584 
L 143.206293 307.57464 
L 140.052939 307.57464 
z
" style="fill:#0000ff;"/>
   </g>
   <g id="patch_25">
    <path clip-path="url(#p948fb81e91)" d="M 143.206281 307.584 
L 146.359622 307.584 
L 146.359622 307.56528 
L 143.206281 307.56528 
z
" style="fill:#0000ff;"/>
   </g>
   <g id="patch_26">
    <path clip-path="url(#p948fb81e91)" d="M 146.359622 307.584 
L 149.512963 307.584 
L 149.512963 307.52784 
L 146.359622 307.52784 
z
" style="fill:#0000ff;"/>
   </g>
   <g id="patch_27">
    <path clip-path="url(#p948fb81e91)" d="M 149.512963 307.584 
L 152.666304 307.584 
L 152.666304 307.54656 
L 149.512963 307.54656 
z
" style="fill:#0000ff;"/>
   </g>
   <g id="patch_28">
    <path clip-path="url(#p948fb81e91)" d="M 152.666304 307.584 
L 155.819645 307.584 
L 155.819645 307.5372 
L 152.666304 307.5372 
z
" style="fill:#0000ff;"/>
   </g>
   <g id="patch_29">
    <path clip-path="url(#p948fb81e91)" d="M 155.819645 307.584 
L 158.972987 307.584 
L 158.972987 307.48104 
L 155.819645 307.48104 
z
" style="fill:#0000ff;"/>
   </g>
   <g id="patch_30">
    <path clip-path="url(#p948fb81e91)" d="M 158.972987 307.584 
L 162.126328 307.584 
L 162.126328 307.54656 
L 158.972987 307.54656 
z
" style="fill:#0000ff;"/>
   </g>
   <g id="patch_31">
    <path clip-path="url(#p948fb81e91)" d="M 162.126328 307.584 
L 165.279681 307.584 
L 165.279681 307.55592 
L 162.126328 307.55592 
z
" style="fill:#0000ff;"/>
   </g>
   <g id="patch_32">
    <path clip-path="url(#p948fb81e91)" d="M 165.279681 307.584 
L 168.433022 307.584 
L 168.433022 307.4904 
L 165.279681 307.4904 
z
" style="fill:#0000ff;"/>
   </g>
   <g id="patch_33">
    <path clip-path="url(#p948fb81e91)" d="M 168.433022 307.584 
L 171.586363 307.584 
L 171.586363 307.396801 
L 168.433022 307.396801 
z
" style="fill:#0000ff;"/>
   </g>
   <g id="patch_34">
    <path clip-path="url(#p948fb81e91)" d="M 171.586363 307.584 
L 174.739704 307.584 
L 174.739704 307.46232 
L 171.586363 307.46232 
z
" style="fill:#0000ff;"/>
   </g>
   <g id="patch_35">
    <path clip-path="url(#p948fb81e91)" d="M 174.739704 307.584 
L 177.893046 307.584 
L 177.893046 307.4436 
L 174.739704 307.4436 
z
" style="fill:#0000ff;"/>
   </g>
   <g id="patch_36">
    <path clip-path="url(#p948fb81e91)" d="M 177.893051 307.584 
L 181.046393 307.584 
L 181.046393 307.340641 
L 177.893051 307.340641 
z
" style="fill:#0000ff;"/>
   </g>
   <g id="patch_37">
    <path clip-path="url(#p948fb81e91)" d="M 181.046393 307.584 
L 184.199734 307.584 
L 184.199734 307.312561 
L 181.046393 307.312561 
z
" style="fill:#0000ff;"/>
   </g>
   <g id="patch_38">
    <path clip-path="url(#p948fb81e91)" d="M 184.19974 307.584 
L 187.353081 307.584 
L 187.353081 307.321921 
L 184.19974 307.321921 
z
" style="fill:#0000ff;"/>
   </g>
   <g id="patch_39">
    <path clip-path="url(#p948fb81e91)" d="M 187.353081 307.584 
L 190.506422 307.584 
L 190.506422 307.172161 
L 187.353081 307.172161 
z
" style="fill:#0000ff;"/>
   </g>
   <g id="patch_40">
    <path clip-path="url(#p948fb81e91)" d="M 190.506422 307.584 
L 193.659763 307.584 
L 193.659763 307.209601 
L 190.506422 307.209601 
z
" style="fill:#0000ff;"/>
   </g>
   <g id="patch_41">
    <path clip-path="url(#p948fb81e91)" d="M 193.659763 307.584 
L 196.813104 307.584 
L 196.813104 307.087921 
L 193.659763 307.087921 
z
" style="fill:#0000ff;"/>
   </g>
   <g id="patch_42">
    <path clip-path="url(#p948fb81e91)" d="M 196.813104 307.584 
L 199.966446 307.584 
L 199.966446 306.947522 
L 196.813104 306.947522 
z
" style="fill:#0000ff;"/>
   </g>
   <g id="patch_43">
    <path clip-path="url(#p948fb81e91)" d="M 199.966452 307.584 
L 203.119793 307.584 
L 203.119793 306.825842 
L 199.966452 306.825842 
z
" style="fill:#0000ff;"/>
   </g>
   <g id="patch_44">
    <path clip-path="url(#p948fb81e91)" d="M 203.119793 307.584 
L 206.273134 307.584 
L 206.273134 306.769682 
L 203.119793 306.769682 
z
" style="fill:#0000ff;"/>
   </g>
   <g id="patch_45">
    <path clip-path="url(#p948fb81e91)" d="M 206.27314 307.584 
L 209.426481 307.584 
L 209.426481 306.320404 
L 206.27314 306.320404 
z
" style="fill:#0000ff;"/>
   </g>
   <g id="patch_46">
    <path clip-path="url(#p948fb81e91)" d="M 209.426481 307.584 
L 212.579822 307.584 
L 212.579822 306.385923 
L 209.426481 306.385923 
z
" style="fill:#0000ff;"/>
   </g>
   <g id="patch_47">
    <path clip-path="url(#p948fb81e91)" d="M 212.579822 307.584 
L 215.733163 307.584 
L 215.733163 305.992805 
L 212.579822 305.992805 
z
" style="fill:#0000ff;"/>
   </g>
   <g id="patch_48">
    <path clip-path="url(#p948fb81e91)" d="M 215.733163 307.584 
L 218.886505 307.584 
L 218.886505 305.552886 
L 215.733163 305.552886 
z
" style="fill:#0000ff;"/>
   </g>
   <g id="patch_49">
    <path clip-path="url(#p948fb81e91)" d="M 218.886511 307.584 
L 222.039852 307.584 
L 222.039852 305.487366 
L 218.886511 305.487366 
z
" style="fill:#0000ff;"/>
   </g>
   <g id="patch_50">
    <path clip-path="url(#p948fb81e91)" d="M 222.039852 307.584 
L 225.193193 307.584 
L 225.193193 305.028727 
L 222.039852 305.028727 
z
" style="fill:#0000ff;"/>
   </g>
   <g id="patch_51">
    <path clip-path="url(#p948fb81e91)" d="M 225.193196 307.584 
L 228.346537 307.584 
L 228.346537 304.635608 
L 225.193196 304.635608 
z
" style="fill:#0000ff;"/>
   </g>
   <g id="patch_52">
    <path clip-path="url(#p948fb81e91)" d="M 228.34654 307.584 
L 231.499881 307.584 
L 231.499881 304.00849 
L 228.34654 304.00849 
z
" style="fill:#0000ff;"/>
   </g>
   <g id="patch_53">
    <path clip-path="url(#p948fb81e91)" d="M 231.499881 307.584 
L 234.653222 307.584 
L 234.653222 304.21441 
L 231.499881 304.21441 
z
" style="fill:#0000ff;"/>
   </g>
   <g id="patch_54">
    <path clip-path="url(#p948fb81e91)" d="M 234.653225 307.584 
L 237.806566 307.584 
L 237.806566 303.315852 
L 234.653225 303.315852 
z
" style="fill:#0000ff;"/>
   </g>
   <g id="patch_55">
    <path clip-path="url(#p948fb81e91)" d="M 237.806569 307.584 
L 240.959911 307.584 
L 240.959911 302.613854 
L 237.806569 302.613854 
z
" style="fill:#0000ff;"/>
   </g>
   <g id="patch_56">
    <path clip-path="url(#p948fb81e91)" d="M 240.959911 307.584 
L 244.113252 307.584 
L 244.113252 301.949296 
L 240.959911 301.949296 
z
" style="fill:#0000ff;"/>
   </g>
   <g id="patch_57">
    <path clip-path="url(#p948fb81e91)" d="M 244.113255 307.584 
L 247.266596 307.584 
L 247.266596 301.303458 
L 244.113255 301.303458 
z
" style="fill:#0000ff;"/>
   </g>
   <g id="patch_58">
    <path clip-path="url(#p948fb81e91)" d="M 247.266597 307.584 
L 250.419939 307.584 
L 250.419939 300.55466 
L 247.266597 300.55466 
z
" style="fill:#0000ff;"/>
   </g>
   <g id="patch_59">
    <path clip-path="url(#p948fb81e91)" d="M 250.41994 307.584 
L 253.573281 307.584 
L 253.573281 299.665462 
L 250.41994 299.665462 
z
" style="fill:#0000ff;"/>
   </g>
   <g id="patch_60">
    <path clip-path="url(#p948fb81e91)" d="M 253.573284 307.584 
L 256.726625 307.584 
L 256.726625 298.954105 
L 253.573284 298.954105 
z
" style="fill:#0000ff;"/>
   </g>
   <g id="patch_61">
    <path clip-path="url(#p948fb81e91)" d="M 256.726627 307.584 
L 259.879968 307.584 
L 259.879968 296.061873 
L 256.726627 296.061873 
z
" style="fill:#0000ff;"/>
   </g>
   <g id="patch_62">
    <path clip-path="url(#p948fb81e91)" d="M 259.87997 307.584 
L 263.033311 307.584 
L 263.033311 283.11703 
L 259.87997 283.11703 
z
" style="fill:#0000ff;"/>
   </g>
   <g id="patch_63">
    <path clip-path="url(#p948fb81e91)" d="M 263.033313 307.584 
L 266.186654 307.584 
L 266.186654 260.980692 
L 263.033313 260.980692 
z
" style="fill:#0000ff;"/>
   </g>
   <g id="patch_64">
    <path clip-path="url(#p948fb81e91)" d="M 266.186656 307.584 
L 269.339997 307.584 
L 269.339997 248.485128 
L 266.186656 248.485128 
z
" style="fill:#0000ff;"/>
   </g>
   <g id="patch_65">
    <path clip-path="url(#p948fb81e91)" d="M 269.339999 307.584 
L 272.49334 307.584 
L 272.49334 246.266814 
L 269.339999 246.266814 
z
" style="fill:#0000ff;"/>
   </g>
   <g id="patch_66">
    <path clip-path="url(#p948fb81e91)" d="M 272.493342 307.584 
L 275.646684 307.584 
L 275.646684 257.152463 
L 272.493342 257.152463 
z
" style="fill:#0000ff;"/>
   </g>
   <g id="patch_67">
    <path clip-path="url(#p948fb81e91)" d="M 275.646685 307.584 
L 278.800026 307.584 
L 278.800026 276.415289 
L 275.646685 276.415289 
z
" style="fill:#0000ff;"/>
   </g>
   <g id="patch_68">
    <path clip-path="url(#p948fb81e91)" d="M 278.800029 307.584 
L 281.95337 307.584 
L 281.95337 295.013556 
L 278.800029 295.013556 
z
" style="fill:#0000ff;"/>
   </g>
   <g id="patch_69">
    <path clip-path="url(#p948fb81e91)" d="M 281.953371 307.584 
L 285.106712 307.584 
L 285.106712 293.272601 
L 281.953371 293.272601 
z
" style="fill:#0000ff;"/>
   </g>
   <g id="patch_70">
    <path clip-path="url(#p948fb81e91)" d="M 285.106714 307.584 
L 288.260055 307.584 
L 288.260055 299.309784 
L 285.106714 299.309784 
z
" style="fill:#0000ff;"/>
   </g>
   <g id="patch_71">
    <path clip-path="url(#p948fb81e91)" d="M 288.260058 307.584 
L 291.413399 307.584 
L 291.413399 299.534423 
L 288.260058 299.534423 
z
" style="fill:#0000ff;"/>
   </g>
   <g id="patch_72">
    <path clip-path="url(#p948fb81e91)" d="M 291.413401 307.584 
L 294.566742 307.584 
L 294.566742 300.161541 
L 291.413401 300.161541 
z
" style="fill:#0000ff;"/>
   </g>
   <g id="patch_73">
    <path clip-path="url(#p948fb81e91)" d="M 294.566743 307.584 
L 297.720084 307.584 
L 297.720084 301.088178 
L 294.566743 301.088178 
z
" style="fill:#0000ff;"/>
   </g>
   <g id="patch_74">
    <path clip-path="url(#p948fb81e91)" d="M 297.720087 307.584 
L 300.873429 307.584 
L 300.873429 301.500017 
L 297.720087 301.500017 
z
" style="fill:#0000ff;"/>
   </g>
   <g id="patch_75">
    <path clip-path="url(#p948fb81e91)" d="M 300.873429 307.584 
L 304.02677 307.584 
L 304.02677 302.510894 
L 300.873429 302.510894 
z
" style="fill:#0000ff;"/>
   </g>
   <g id="patch_76">
    <path clip-path="url(#p948fb81e91)" d="M 304.026773 307.584 
L 307.180114 307.584 
L 307.180114 302.950813 
L 304.026773 302.950813 
z
" style="fill:#0000ff;"/>
   </g>
   <g id="patch_77">
    <path clip-path="url(#p948fb81e91)" d="M 307.180117 307.584 
L 310.333458 307.584 
L 310.333458 303.830651 
L 307.180117 303.830651 
z
" style="fill:#0000ff;"/>
   </g>
   <g id="patch_78">
    <path clip-path="url(#p948fb81e91)" d="M 310.333458 307.584 
L 313.486799 307.584 
L 313.486799 304.16761 
L 310.333458 304.16761 
z
" style="fill:#0000ff;"/>
   </g>
   <g id="patch_79">
    <path clip-path="url(#p948fb81e91)" d="M 313.486802 307.584 
L 316.640143 307.584 
L 316.640143 304.701128 
L 313.486802 304.701128 
z
" style="fill:#0000ff;"/>
   </g>
   <g id="patch_80">
    <path clip-path="url(#p948fb81e91)" d="M 316.640146 307.584 
L 319.793488 307.584 
L 319.793488 305.187847 
L 316.640146 305.187847 
z
" style="fill:#0000ff;"/>
   </g>
   <g id="patch_81">
    <path clip-path="url(#p948fb81e91)" d="M 319.793488 307.584 
L 322.946829 307.584 
L 322.946829 305.515446 
L 319.793488 305.515446 
z
" style="fill:#0000ff;"/>
   </g>
   <g id="patch_82">
    <path clip-path="url(#p948fb81e91)" d="M 322.946835 307.584 
L 326.100176 307.584 
L 326.100176 306.067684 
L 322.946835 306.067684 
z
" style="fill:#0000ff;"/>
   </g>
   <g id="patch_83">
    <path clip-path="url(#p948fb81e91)" d="M 326.100176 307.584 
L 329.253517 307.584 
L 329.253517 306.367203 
L 326.100176 306.367203 
z
" style="fill:#0000ff;"/>
   </g>
   <g id="patch_84">
    <path clip-path="url(#p948fb81e91)" d="M 329.253517 307.584 
L 332.406858 307.584 
L 332.406858 306.554403 
L 329.253517 306.554403 
z
" style="fill:#0000ff;"/>
   </g>
   <g id="patch_85">
    <path clip-path="url(#p948fb81e91)" d="M 332.406858 307.584 
L 335.560199 307.584 
L 335.560199 306.900722 
L 332.406858 306.900722 
z
" style="fill:#0000ff;"/>
   </g>
   <g id="patch_86">
    <path clip-path="url(#p948fb81e91)" d="M 335.560205 307.584 
L 338.713547 307.584 
L 338.713547 306.919442 
L 335.560205 306.919442 
z
" style="fill:#0000ff;"/>
   </g>
   <g id="patch_87">
    <path clip-path="url(#p948fb81e91)" d="M 338.713547 307.584 
L 341.866888 307.584 
L 341.866888 307.200241 
L 338.713547 307.200241 
z
" style="fill:#0000ff;"/>
   </g>
   <g id="patch_88">
    <path clip-path="url(#p948fb81e91)" d="M 341.866894 307.584 
L 345.020235 307.584 
L 345.020235 307.284481 
L 341.866894 307.284481 
z
" style="fill:#0000ff;"/>
   </g>
   <g id="patch_89">
    <path clip-path="url(#p948fb81e91)" d="M 345.020235 307.584 
L 348.173576 307.584 
L 348.173576 307.396801 
L 345.020235 307.396801 
z
" style="fill:#0000ff;"/>
   </g>
   <g id="patch_90">
    <path clip-path="url(#p948fb81e91)" d="M 348.173576 307.584 
L 351.326917 307.584 
L 351.326917 307.42488 
L 348.173576 307.42488 
z
" style="fill:#0000ff;"/>
   </g>
   <g id="patch_91">
    <path clip-path="url(#p948fb81e91)" d="M 351.326917 307.584 
L 354.480258 307.584 
L 354.480258 307.49976 
L 351.326917 307.49976 
z
" style="fill:#0000ff;"/>
   </g>
   <g id="patch_92">
    <path clip-path="url(#p948fb81e91)" d="M 354.480258 307.584 
L 357.6336 307.584 
L 357.6336 307.47168 
L 354.480258 307.47168 
z
" style="fill:#0000ff;"/>
   </g>
   <g id="patch_93">
    <path clip-path="url(#p948fb81e91)" d="M 357.633605 307.584 
L 360.786947 307.584 
L 360.786947 307.50912 
L 357.633605 307.50912 
z
" style="fill:#0000ff;"/>
   </g>
   <g id="patch_94">
    <path clip-path="url(#p948fb81e91)" d="M 360.786947 307.584 
L 363.940288 307.584 
L 363.940288 307.49976 
L 360.786947 307.49976 
z
" style="fill:#0000ff;"/>
   </g>
   <g id="patch_95">
    <path clip-path="url(#p948fb81e91)" d="M 363.940294 307.584 
L 367.093635 307.584 
L 367.093635 307.5372 
L 363.940294 307.5372 
z
" style="fill:#0000ff;"/>
   </g>
   <g id="patch_96">
    <path clip-path="url(#p948fb81e91)" d="M 367.093635 307.584 
L 370.246976 307.584 
L 370.246976 307.55592 
L 367.093635 307.55592 
z
" style="fill:#0000ff;"/>
   </g>
   <g id="patch_97">
    <path clip-path="url(#p948fb81e91)" d="M 370.246976 307.584 
L 373.400317 307.584 
L 373.400317 307.56528 
L 370.246976 307.56528 
z
" style="fill:#0000ff;"/>
   </g>
   <g id="patch_98">
    <path clip-path="url(#p948fb81e91)" d="M 373.400317 307.584 
L 376.553658 307.584 
L 376.553658 307.57464 
L 373.400317 307.57464 
z
" style="fill:#0000ff;"/>
   </g>
   <g id="patch_99">
    <path clip-path="url(#p948fb81e91)" d="M 376.55367 307.584 
L 379.707023 307.584 
L 379.707023 307.56528 
L 376.55367 307.56528 
z
" style="fill:#0000ff;"/>
   </g>
   <g id="patch_100">
    <path clip-path="url(#p948fb81e91)" d="M 379.707011 307.584 
L 382.860353 307.584 
L 382.860353 307.584 
L 379.707011 307.584 
z
" style="fill:#0000ff;"/>
   </g>
   <g id="patch_101">
    <path clip-path="url(#p948fb81e91)" d="M 382.860353 307.584 
L 386.013694 307.584 
L 386.013694 307.584 
L 382.860353 307.584 
z
" style="fill:#0000ff;"/>
   </g>
   <g id="patch_102">
    <path clip-path="url(#p948fb81e91)" d="M 386.013694 307.584 
L 389.167035 307.584 
L 389.167035 307.57464 
L 386.013694 307.57464 
z
" style="fill:#0000ff;"/>
   </g>
   <g id="patch_103">
    <path clip-path="url(#p948fb81e91)" d="M 171.695099 307.584 
L 173.963019 307.584 
L 173.963019 307.5372 
L 171.695099 307.5372 
z
" style="fill:#808080;"/>
   </g>
   <g id="patch_104">
    <path clip-path="url(#p948fb81e91)" d="M 173.963019 307.584 
L 176.230939 307.584 
L 176.230939 307.56528 
L 173.963019 307.56528 
z
" style="fill:#808080;"/>
   </g>
   <g id="patch_105">
    <path clip-path="url(#p948fb81e91)" d="M 176.230939 307.584 
L 178.498865 307.584 
L 178.498865 307.584 
L 176.230939 307.584 
z
" style="fill:#808080;"/>
   </g>
   <g id="patch_106">
    <path clip-path="url(#p948fb81e91)" d="M 178.498865 307.584 
L 180.766785 307.584 
L 180.766785 307.584 
L 178.498865 307.584 
z
" style="fill:#808080;"/>
   </g>
   <g id="patch_107">
    <path clip-path="url(#p948fb81e91)" d="M 180.766785 307.584 
L 183.034706 307.584 
L 183.034706 307.584 
L 180.766785 307.584 
z
" style="fill:#808080;"/>
   </g>
   <g id="patch_108">
    <path clip-path="url(#p948fb81e91)" d="M 183.034706 307.584 
L 185.302626 307.584 
L 185.302626 307.48104 
L 183.034706 307.48104 
z
" style="fill:#808080;"/>
   </g>
   <g id="patch_109">
    <path clip-path="url(#p948fb81e91)" d="M 185.30262 307.584 
L 187.570546 307.584 
L 187.570546 307.4904 
L 185.30262 307.4904 
z
" style="fill:#808080;"/>
   </g>
   <g id="patch_110">
    <path clip-path="url(#p948fb81e91)" d="M 187.570552 307.584 
L 189.838472 307.584 
L 189.838472 307.584 
L 187.570552 307.584 
z
" style="fill:#808080;"/>
   </g>
   <g id="patch_111">
    <path clip-path="url(#p948fb81e91)" d="M 189.838472 307.584 
L 192.106392 307.584 
L 192.106392 307.584 
L 189.838472 307.584 
z
" style="fill:#808080;"/>
   </g>
   <g id="patch_112">
    <path clip-path="url(#p948fb81e91)" d="M 192.106392 307.584 
L 194.374312 307.584 
L 194.374312 307.584 
L 192.106392 307.584 
z
" style="fill:#808080;"/>
   </g>
   <g id="patch_113">
    <path clip-path="url(#p948fb81e91)" d="M 194.374312 307.584 
L 196.642239 307.584 
L 196.642239 307.387441 
L 194.374312 307.387441 
z
" style="fill:#808080;"/>
   </g>
   <g id="patch_114">
    <path clip-path="url(#p948fb81e91)" d="M 196.642239 307.584 
L 198.910159 307.584 
L 198.910159 307.584 
L 196.642239 307.584 
z
" style="fill:#808080;"/>
   </g>
   <g id="patch_115">
    <path clip-path="url(#p948fb81e91)" d="M 198.910159 307.584 
L 201.178079 307.584 
L 201.178079 307.228321 
L 198.910159 307.228321 
z
" style="fill:#808080;"/>
   </g>
   <g id="patch_116">
    <path clip-path="url(#p948fb81e91)" d="M 201.178079 307.584 
L 203.445999 307.584 
L 203.445999 307.584 
L 201.178079 307.584 
z
" style="fill:#808080;"/>
   </g>
   <g id="patch_117">
    <path clip-path="url(#p948fb81e91)" d="M 203.445993 307.584 
L 205.713919 307.584 
L 205.713919 307.584 
L 203.445993 307.584 
z
" style="fill:#808080;"/>
   </g>
   <g id="patch_118">
    <path clip-path="url(#p948fb81e91)" d="M 205.713925 307.584 
L 207.981846 307.584 
L 207.981846 307.584 
L 205.713925 307.584 
z
" style="fill:#808080;"/>
   </g>
   <g id="patch_119">
    <path clip-path="url(#p948fb81e91)" d="M 207.981846 307.584 
L 210.249766 307.584 
L 210.249766 307.013042 
L 207.981846 307.013042 
z
" style="fill:#808080;"/>
   </g>
   <g id="patch_120">
    <path clip-path="url(#p948fb81e91)" d="M 210.249766 307.584 
L 212.517686 307.584 
L 212.517686 305.431206 
L 210.249766 305.431206 
z
" style="fill:#808080;"/>
   </g>
   <g id="patch_121">
    <path clip-path="url(#p948fb81e91)" d="M 212.517686 307.584 
L 214.785612 307.584 
L 214.785612 307.584 
L 212.517686 307.584 
z
" style="fill:#808080;"/>
   </g>
   <g id="patch_122">
    <path clip-path="url(#p948fb81e91)" d="M 214.785612 307.584 
L 217.053532 307.584 
L 217.053532 307.584 
L 214.785612 307.584 
z
" style="fill:#808080;"/>
   </g>
   <g id="patch_123">
    <path clip-path="url(#p948fb81e91)" d="M 217.053532 307.584 
L 219.321452 307.584 
L 219.321452 307.584 
L 217.053532 307.584 
z
" style="fill:#808080;"/>
   </g>
   <g id="patch_124">
    <path clip-path="url(#p948fb81e91)" d="M 219.321447 307.584 
L 221.589373 307.584 
L 221.589373 307.584 
L 219.321447 307.584 
z
" style="fill:#808080;"/>
   </g>
   <g id="patch_125">
    <path clip-path="url(#p948fb81e91)" d="M 221.589376 307.584 
L 223.857296 307.584 
L 223.857296 307.584 
L 221.589376 307.584 
z
" style="fill:#808080;"/>
   </g>
   <g id="patch_126">
    <path clip-path="url(#p948fb81e91)" d="M 223.857296 307.584 
L 226.125222 307.584 
L 226.125222 307.584 
L 223.857296 307.584 
z
" style="fill:#808080;"/>
   </g>
   <g id="patch_127">
    <path clip-path="url(#p948fb81e91)" d="M 226.125219 307.584 
L 228.393139 307.584 
L 228.393139 307.584 
L 226.125219 307.584 
z
" style="fill:#808080;"/>
   </g>
   <g id="patch_128">
    <path clip-path="url(#p948fb81e91)" d="M 228.393139 307.584 
L 230.661059 307.584 
L 230.661059 307.584 
L 228.393139 307.584 
z
" style="fill:#808080;"/>
   </g>
   <g id="patch_129">
    <path clip-path="url(#p948fb81e91)" d="M 230.661056 307.584 
L 232.928983 307.584 
L 232.928983 307.584 
L 230.661056 307.584 
z
" style="fill:#808080;"/>
   </g>
   <g id="patch_130">
    <path clip-path="url(#p948fb81e91)" d="M 232.928983 307.584 
L 235.196903 307.584 
L 235.196903 307.584 
L 232.928983 307.584 
z
" style="fill:#808080;"/>
   </g>
   <g id="patch_131">
    <path clip-path="url(#p948fb81e91)" d="M 235.196903 307.584 
L 237.464829 307.584 
L 237.464829 307.584 
L 235.196903 307.584 
z
" style="fill:#808080;"/>
   </g>
   <g id="patch_132">
    <path clip-path="url(#p948fb81e91)" d="M 237.464826 307.584 
L 239.732746 307.584 
L 239.732746 307.584 
L 237.464826 307.584 
z
" style="fill:#808080;"/>
   </g>
   <g id="patch_133">
    <path clip-path="url(#p948fb81e91)" d="M 239.732743 307.584 
L 242.000669 307.584 
L 242.000669 307.584 
L 239.732743 307.584 
z
" style="fill:#808080;"/>
   </g>
   <g id="patch_134">
    <path clip-path="url(#p948fb81e91)" d="M 242.000669 307.584 
L 244.268589 307.584 
L 244.268589 307.584 
L 242.000669 307.584 
z
" style="fill:#808080;"/>
   </g>
   <g id="patch_135">
    <path clip-path="url(#p948fb81e91)" d="M 244.268589 307.584 
L 246.536516 307.584 
L 246.536516 307.584 
L 244.268589 307.584 
z
" style="fill:#808080;"/>
   </g>
   <g id="patch_136">
    <path clip-path="url(#p948fb81e91)" d="M 246.536513 307.584 
L 248.804433 307.584 
L 248.804433 307.584 
L 246.536513 307.584 
z
" style="fill:#808080;"/>
   </g>
   <g id="patch_137">
    <path clip-path="url(#p948fb81e91)" d="M 248.804436 307.584 
L 251.072356 307.584 
L 251.072356 307.584 
L 248.804436 307.584 
z
" style="fill:#808080;"/>
   </g>
   <g id="patch_138">
    <path clip-path="url(#p948fb81e91)" d="M 251.072356 307.584 
L 253.340276 307.584 
L 253.340276 307.584 
L 251.072356 307.584 
z
" style="fill:#808080;"/>
   </g>
   <g id="patch_139">
    <path clip-path="url(#p948fb81e91)" d="M 253.340279 307.584 
L 255.608199 307.584 
L 255.608199 307.584 
L 253.340279 307.584 
z
" style="fill:#808080;"/>
   </g>
   <g id="patch_140">
    <path clip-path="url(#p948fb81e91)" d="M 255.608199 307.584 
L 257.87612 307.584 
L 257.87612 307.584 
L 255.608199 307.584 
z
" style="fill:#808080;"/>
   </g>
   <g id="patch_141">
    <path clip-path="url(#p948fb81e91)" d="M 257.876121 307.584 
L 260.144041 307.584 
L 260.144041 307.584 
L 257.876121 307.584 
z
" style="fill:#808080;"/>
   </g>
   <g id="patch_142">
    <path clip-path="url(#p948fb81e91)" d="M 260.144043 307.584 
L 262.411963 307.584 
L 262.411963 307.584 
L 260.144043 307.584 
z
" style="fill:#808080;"/>
   </g>
   <g id="patch_143">
    <path clip-path="url(#p948fb81e91)" d="M 262.411964 307.584 
L 264.679885 307.584 
L 264.679885 307.584 
L 262.411964 307.584 
z
" style="fill:#808080;"/>
   </g>
   <g id="patch_144">
    <path clip-path="url(#p948fb81e91)" d="M 264.679886 307.584 
L 266.947806 307.584 
L 266.947806 307.584 
L 264.679886 307.584 
z
" style="fill:#808080;"/>
   </g>
   <g id="patch_145">
    <path clip-path="url(#p948fb81e91)" d="M 266.947807 307.584 
L 269.215728 307.584 
L 269.215728 307.584 
L 266.947807 307.584 
z
" style="fill:#808080;"/>
   </g>
   <g id="patch_146">
    <path clip-path="url(#p948fb81e91)" d="M 269.215729 307.584 
L 271.483649 307.584 
L 271.483649 54.144 
L 269.215729 54.144 
z
" style="fill:#808080;"/>
   </g>
   <g id="patch_147">
    <path clip-path="url(#p948fb81e91)" d="M 271.483651 307.584 
L 273.751571 307.584 
L 273.751571 307.584 
L 271.483651 307.584 
z
" style="fill:#808080;"/>
   </g>
   <g id="patch_148">
    <path clip-path="url(#p948fb81e91)" d="M 273.751572 307.584 
L 276.019493 307.584 
L 276.019493 226.854229 
L 273.751572 226.854229 
z
" style="fill:#808080;"/>
   </g>
   <g id="patch_149">
    <path clip-path="url(#p948fb81e91)" d="M 276.019494 307.584 
L 278.287414 307.584 
L 278.287414 307.584 
L 276.019494 307.584 
z
" style="fill:#808080;"/>
   </g>
   <g id="patch_150">
    <path clip-path="url(#p948fb81e91)" d="M 278.287415 307.584 
L 280.555336 307.584 
L 280.555336 307.584 
L 278.287415 307.584 
z
" style="fill:#808080;"/>
   </g>
   <g id="patch_151">
    <path clip-path="url(#p948fb81e91)" d="M 280.555337 307.584 
L 282.823257 307.584 
L 282.823257 307.584 
L 280.555337 307.584 
z
" style="fill:#808080;"/>
   </g>
   <g id="patch_152">
    <path clip-path="url(#p948fb81e91)" d="M 282.82326 307.584 
L 285.09118 307.584 
L 285.09118 275.76945 
L 282.82326 275.76945 
z
" style="fill:#808080;"/>
   </g>
   <g id="patch_153">
    <path clip-path="url(#p948fb81e91)" d="M 285.09118 307.584 
L 287.3591 307.584 
L 287.3591 278.530643 
L 285.09118 278.530643 
z
" style="fill:#808080;"/>
   </g>
   <g id="patch_154">
    <path clip-path="url(#p948fb81e91)" d="M 287.359103 307.584 
L 289.627023 307.584 
L 289.627023 307.584 
L 287.359103 307.584 
z
" style="fill:#808080;"/>
   </g>
   <g id="patch_155">
    <path clip-path="url(#p948fb81e91)" d="M 289.627023 307.584 
L 291.894943 307.584 
L 291.894943 307.584 
L 289.627023 307.584 
z
" style="fill:#808080;"/>
   </g>
   <g id="patch_156">
    <path clip-path="url(#p948fb81e91)" d="M 291.894946 307.584 
L 294.162866 307.584 
L 294.162866 307.584 
L 291.894946 307.584 
z
" style="fill:#808080;"/>
   </g>
   <g id="patch_157">
    <path clip-path="url(#p948fb81e91)" d="M 294.162866 307.584 
L 296.430787 307.584 
L 296.430787 285.269823 
L 294.162866 285.269823 
z
" style="fill:#808080;"/>
   </g>
   <g id="patch_158">
    <path clip-path="url(#p948fb81e91)" d="M 296.430784 307.584 
L 298.69871 307.584 
L 298.69871 307.584 
L 296.430784 307.584 
z
" style="fill:#808080;"/>
   </g>
   <g id="patch_159">
    <path clip-path="url(#p948fb81e91)" d="M 298.69871 307.584 
L 300.96663 307.584 
L 300.96663 293.141561 
L 298.69871 293.141561 
z
" style="fill:#808080;"/>
   </g>
   <g id="patch_160">
    <path clip-path="url(#p948fb81e91)" d="M 300.96663 307.584 
L 303.234556 307.584 
L 303.234556 307.584 
L 300.96663 307.584 
z
" style="fill:#808080;"/>
   </g>
   <g id="patch_161">
    <path clip-path="url(#p948fb81e91)" d="M 303.234553 307.584 
L 305.502473 307.584 
L 305.502473 307.584 
L 303.234553 307.584 
z
" style="fill:#808080;"/>
   </g>
   <g id="patch_162">
    <path clip-path="url(#p948fb81e91)" d="M 305.50247 307.584 
L 307.770397 307.584 
L 307.770397 307.584 
L 305.50247 307.584 
z
" style="fill:#808080;"/>
   </g>
   <g id="patch_163">
    <path clip-path="url(#p948fb81e91)" d="M 307.770397 307.584 
L 310.038317 307.584 
L 310.038317 301.266018 
L 307.770397 301.266018 
z
" style="fill:#808080;"/>
   </g>
   <g id="patch_164">
    <path clip-path="url(#p948fb81e91)" d="M 310.038317 307.584 
L 312.306243 307.584 
L 312.306243 301.275378 
L 310.038317 301.275378 
z
" style="fill:#808080;"/>
   </g>
   <g id="patch_165">
    <path clip-path="url(#p948fb81e91)" d="M 312.30624 307.584 
L 314.57416 307.584 
L 314.57416 307.584 
L 312.30624 307.584 
z
" style="fill:#808080;"/>
   </g>
   <g id="patch_166">
    <path clip-path="url(#p948fb81e91)" d="M 314.574157 307.584 
L 316.842083 307.584 
L 316.842083 307.584 
L 314.574157 307.584 
z
" style="fill:#808080;"/>
   </g>
   <g id="patch_167">
    <path clip-path="url(#p948fb81e91)" d="M 316.842083 307.584 
L 319.110004 307.584 
L 319.110004 307.584 
L 316.842083 307.584 
z
" style="fill:#808080;"/>
   </g>
   <g id="patch_168">
    <path clip-path="url(#p948fb81e91)" d="M 319.110004 307.584 
L 321.377927 307.584 
L 321.377927 307.584 
L 319.110004 307.584 
z
" style="fill:#808080;"/>
   </g>
   <g id="patch_169">
    <path clip-path="url(#p948fb81e91)" d="M 321.377927 307.584 
L 323.645847 307.584 
L 323.645847 307.584 
L 321.377927 307.584 
z
" style="fill:#808080;"/>
   </g>
   <g id="patch_170">
    <path clip-path="url(#p948fb81e91)" d="M 323.645847 307.584 
L 325.913767 307.584 
L 325.913767 307.584 
L 323.645847 307.584 
z
" style="fill:#808080;"/>
   </g>
   <g id="patch_171">
    <path clip-path="url(#p948fb81e91)" d="M 325.913767 307.584 
L 328.181693 307.584 
L 328.181693 307.584 
L 325.913767 307.584 
z
" style="fill:#808080;"/>
   </g>
   <g id="patch_172">
    <path clip-path="url(#p948fb81e91)" d="M 328.181693 307.584 
L 330.449613 307.584 
L 330.449613 307.584 
L 328.181693 307.584 
z
" style="fill:#808080;"/>
   </g>
   <g id="patch_173">
    <path clip-path="url(#p948fb81e91)" d="M 330.449613 307.584 
L 332.717534 307.584 
L 332.717534 307.584 
L 330.449613 307.584 
z
" style="fill:#808080;"/>
   </g>
   <g id="patch_174">
    <path clip-path="url(#p948fb81e91)" d="M 332.717534 307.584 
L 334.985454 307.584 
L 334.985454 307.584 
L 332.717534 307.584 
z
" style="fill:#808080;"/>
   </g>
   <g id="patch_175">
    <path clip-path="url(#p948fb81e91)" d="M 334.985448 307.584 
L 337.253374 307.584 
L 337.253374 307.584 
L 334.985448 307.584 
z
" style="fill:#808080;"/>
   </g>
   <g id="patch_176">
    <path clip-path="url(#p948fb81e91)" d="M 337.25338 307.584 
L 339.5213 307.584 
L 339.5213 307.584 
L 337.25338 307.584 
z
" style="fill:#808080;"/>
   </g>
   <g id="patch_177">
    <path clip-path="url(#p948fb81e91)" d="M 339.5213 307.584 
L 341.78922 307.584 
L 341.78922 307.584 
L 339.5213 307.584 
z
" style="fill:#808080;"/>
   </g>
   <g id="patch_178">
    <path clip-path="url(#p948fb81e91)" d="M 341.78922 307.584 
L 344.057141 307.584 
L 344.057141 307.584 
L 341.78922 307.584 
z
" style="fill:#808080;"/>
   </g>
   <g id="patch_179">
    <path clip-path="url(#p948fb81e91)" d="M 344.057141 307.584 
L 346.325061 307.584 
L 346.325061 307.584 
L 344.057141 307.584 
z
" style="fill:#808080;"/>
   </g>
   <g id="patch_180">
    <path clip-path="url(#p948fb81e91)" d="M 346.325061 307.584 
L 348.592987 307.584 
L 348.592987 307.584 
L 346.325061 307.584 
z
" style="fill:#808080;"/>
   </g>
   <g id="patch_181">
    <path clip-path="url(#p948fb81e91)" d="M 348.592987 307.584 
L 350.860907 307.584 
L 350.860907 307.584 
L 348.592987 307.584 
z
" style="fill:#808080;"/>
   </g>
   <g id="patch_182">
    <path clip-path="url(#p948fb81e91)" d="M 350.860907 307.584 
L 353.128827 307.584 
L 353.128827 307.584 
L 350.860907 307.584 
z
" style="fill:#808080;"/>
   </g>
   <g id="patch_183">
    <path clip-path="url(#p948fb81e91)" d="M 353.128827 307.584 
L 355.396747 307.584 
L 355.396747 307.584 
L 353.128827 307.584 
z
" style="fill:#808080;"/>
   </g>
   <g id="patch_184">
    <path clip-path="url(#p948fb81e91)" d="M 355.396742 307.584 
L 357.664668 307.584 
L 357.664668 307.584 
L 355.396742 307.584 
z
" style="fill:#808080;"/>
   </g>
   <g id="patch_185">
    <path clip-path="url(#p948fb81e91)" d="M 357.664674 307.584 
L 359.932594 307.584 
L 359.932594 307.584 
L 357.664674 307.584 
z
" style="fill:#808080;"/>
   </g>
   <g id="patch_186">
    <path clip-path="url(#p948fb81e91)" d="M 359.932594 307.584 
L 362.200514 307.584 
L 362.200514 307.584 
L 359.932594 307.584 
z
" style="fill:#808080;"/>
   </g>
   <g id="patch_187">
    <path clip-path="url(#p948fb81e91)" d="M 362.200514 307.584 
L 364.468434 307.584 
L 364.468434 307.584 
L 362.200514 307.584 
z
" style="fill:#808080;"/>
   </g>
   <g id="patch_188">
    <path clip-path="url(#p948fb81e91)" d="M 364.468434 307.584 
L 366.73636 307.584 
L 366.73636 307.584 
L 364.468434 307.584 
z
" style="fill:#808080;"/>
   </g>
   <g id="patch_189">
    <path clip-path="url(#p948fb81e91)" d="M 366.73636 307.584 
L 369.00428 307.584 
L 369.00428 307.584 
L 366.73636 307.584 
z
" style="fill:#808080;"/>
   </g>
   <g id="patch_190">
    <path clip-path="url(#p948fb81e91)" d="M 369.004275 307.584 
L 371.272195 307.584 
L 371.272195 307.321921 
L 369.004275 307.321921 
z
" style="fill:#808080;"/>
   </g>
   <g id="patch_191">
    <path clip-path="url(#p948fb81e91)" d="M 371.272218 307.584 
L 373.540139 307.584 
L 373.540139 307.584 
L 371.272218 307.584 
z
" style="fill:#808080;"/>
   </g>
   <g id="patch_192">
    <path clip-path="url(#p948fb81e91)" d="M 373.540127 307.584 
L 375.808047 307.584 
L 375.808047 307.106641 
L 373.540127 307.106641 
z
" style="fill:#808080;"/>
   </g>
   <g id="patch_193">
    <path clip-path="url(#p948fb81e91)" d="M 375.808059 307.584 
L 378.075979 307.584 
L 378.075979 307.584 
L 375.808059 307.584 
z
" style="fill:#808080;"/>
   </g>
   <g id="patch_194">
    <path clip-path="url(#p948fb81e91)" d="M 378.075967 307.584 
L 380.343887 307.584 
L 380.343887 307.584 
L 378.075967 307.584 
z
" style="fill:#808080;"/>
   </g>
   <g id="patch_195">
    <path clip-path="url(#p948fb81e91)" d="M 380.343899 307.584 
L 382.611819 307.584 
L 382.611819 307.584 
L 380.343899 307.584 
z
" style="fill:#808080;"/>
   </g>
   <g id="patch_196">
    <path clip-path="url(#p948fb81e91)" d="M 382.611808 307.584 
L 384.879728 307.584 
L 384.879728 307.256401 
L 382.611808 307.256401 
z
" style="fill:#808080;"/>
   </g>
   <g id="patch_197">
    <path clip-path="url(#p948fb81e91)" d="M 384.87974 307.584 
L 387.14766 307.584 
L 387.14766 307.387441 
L 384.87974 307.387441 
z
" style="fill:#808080;"/>
   </g>
   <g id="patch_198">
    <path clip-path="url(#p948fb81e91)" d="M 387.147648 307.584 
L 389.41558 307.584 
L 389.41558 307.584 
L 387.147648 307.584 
z
" style="fill:#808080;"/>
   </g>
   <g id="patch_199">
    <path clip-path="url(#p948fb81e91)" d="M 389.41558 307.584 
L 391.6835 307.584 
L 391.6835 307.584 
L 389.41558 307.584 
z
" style="fill:#808080;"/>
   </g>
   <g id="patch_200">
    <path clip-path="url(#p948fb81e91)" d="M 391.683512 307.584 
L 393.951432 307.584 
L 393.951432 307.584 
L 391.683512 307.584 
z
" style="fill:#808080;"/>
   </g>
   <g id="patch_201">
    <path clip-path="url(#p948fb81e91)" d="M 393.95142 307.584 
L 396.219341 307.584 
L 396.219341 307.55592 
L 393.95142 307.55592 
z
" style="fill:#808080;"/>
   </g>
   <g id="patch_202">
    <path clip-path="url(#p948fb81e91)" d="M 396.219353 307.584 
L 398.487273 307.584 
L 398.487273 307.55592 
L 396.219353 307.55592 
z
" style="fill:#808080;"/>
   </g>
   <g id="matplotlib.axis_1">
    <g id="xtick_1">
     <g id="line2d_1">
      <defs>
       <path d="M 0 0 
L 0 3.5 
" id="m3bf607e737" style="stroke:#000000;stroke-width:0.8;"/>
      </defs>
      <g>
       <use style="stroke:#000000;stroke-width:0.8;" x="115.773744" xlink:href="#m3bf607e737" y="307.584"/>
      </g>
     </g>
     <g id="text_1">
      <!-- −100 -->
      <defs>
       <path d="M 10.59375 35.5 
L 73.1875 35.5 
L 73.1875 27.203125 
L 10.59375 27.203125 
z
" id="DejaVuSans-8722"/>
       <path d="M 12.40625 8.296875 
L 28.515625 8.296875 
L 28.515625 63.921875 
L 10.984375 60.40625 
L 10.984375 69.390625 
L 28.421875 72.90625 
L 38.28125 72.90625 
L 38.28125 8.296875 
L 54.390625 8.296875 
L 54.390625 0 
L 12.40625 0 
z
" id="DejaVuSans-49"/>
       <path d="M 31.78125 66.40625 
Q 24.171875 66.40625 20.328125 58.90625 
Q 16.5 51.421875 16.5 36.375 
Q 16.5 21.390625 20.328125 13.890625 
Q 24.171875 6.390625 31.78125 6.390625 
Q 39.453125 6.390625 43.28125 13.890625 
Q 47.125 21.390625 47.125 36.375 
Q 47.125 51.421875 43.28125 58.90625 
Q 39.453125 66.40625 31.78125 66.40625 
z
M 31.78125 74.21875 
Q 44.046875 74.21875 50.515625 64.515625 
Q 56.984375 54.828125 56.984375 36.375 
Q 56.984375 17.96875 50.515625 8.265625 
Q 44.046875 -1.421875 31.78125 -1.421875 
Q 19.53125 -1.421875 13.0625 8.265625 
Q 6.59375 17.96875 6.59375 36.375 
Q 6.59375 54.828125 13.0625 64.515625 
Q 19.53125 74.21875 31.78125 74.21875 
z
" id="DejaVuSans-48"/>
      </defs>
      <g transform="translate(102.04015 322.182437)scale(0.1 -0.1)">
       <use xlink:href="#DejaVuSans-8722"/>
       <use x="83.789062" xlink:href="#DejaVuSans-49"/>
       <use x="147.412109" xlink:href="#DejaVuSans-48"/>
       <use x="211.035156" xlink:href="#DejaVuSans-48"/>
      </g>
     </g>
    </g>
    <g id="xtick_2">
     <g id="line2d_2">
      <g>
       <use style="stroke:#000000;stroke-width:0.8;" x="193.442292" xlink:href="#m3bf607e737" y="307.584"/>
      </g>
     </g>
     <g id="text_2">
      <!-- −50 -->
      <defs>
       <path d="M 10.796875 72.90625 
L 49.515625 72.90625 
L 49.515625 64.59375 
L 19.828125 64.59375 
L 19.828125 46.734375 
Q 21.96875 47.46875 24.109375 47.828125 
Q 26.265625 48.1875 28.421875 48.1875 
Q 40.625 48.1875 47.75 41.5 
Q 54.890625 34.8125 54.890625 23.390625 
Q 54.890625 11.625 47.5625 5.09375 
Q 40.234375 -1.421875 26.90625 -1.421875 
Q 22.3125 -1.421875 17.546875 -0.640625 
Q 12.796875 0.140625 7.71875 1.703125 
L 7.71875 11.625 
Q 12.109375 9.234375 16.796875 8.0625 
Q 21.484375 6.890625 26.703125 6.890625 
Q 35.15625 6.890625 40.078125 11.328125 
Q 45.015625 15.765625 45.015625 23.390625 
Q 45.015625 31 40.078125 35.4375 
Q 35.15625 39.890625 26.703125 39.890625 
Q 22.75 39.890625 18.8125 39.015625 
Q 14.890625 38.140625 10.796875 36.28125 
z
" id="DejaVuSans-53"/>
      </defs>
      <g transform="translate(182.889949 322.182437)scale(0.1 -0.1)">
       <use xlink:href="#DejaVuSans-8722"/>
       <use x="83.789062" xlink:href="#DejaVuSans-53"/>
       <use x="147.412109" xlink:href="#DejaVuSans-48"/>
      </g>
     </g>
    </g>
    <g id="xtick_3">
     <g id="line2d_3">
      <g>
       <use style="stroke:#000000;stroke-width:0.8;" x="271.110841" xlink:href="#m3bf607e737" y="307.584"/>
      </g>
     </g>
     <g id="text_3">
      <!-- 0 -->
      <g transform="translate(267.929591 322.182437)scale(0.1 -0.1)">
       <use xlink:href="#DejaVuSans-48"/>
      </g>
     </g>
    </g>
    <g id="xtick_4">
     <g id="line2d_4">
      <g>
       <use style="stroke:#000000;stroke-width:0.8;" x="348.77939" xlink:href="#m3bf607e737" y="307.584"/>
      </g>
     </g>
     <g id="text_4">
      <!-- 50 -->
      <g transform="translate(342.41689 322.182437)scale(0.1 -0.1)">
       <use xlink:href="#DejaVuSans-53"/>
       <use x="63.623047" xlink:href="#DejaVuSans-48"/>
      </g>
     </g>
    </g>
    <g id="text_5">
     <!-- Weight -->
     <defs>
      <path d="M 3.328125 72.90625 
L 13.28125 72.90625 
L 28.609375 11.28125 
L 43.890625 72.90625 
L 54.984375 72.90625 
L 70.3125 11.28125 
L 85.59375 72.90625 
L 95.609375 72.90625 
L 77.296875 0 
L 64.890625 0 
L 49.515625 63.28125 
L 33.984375 0 
L 21.578125 0 
z
" id="DejaVuSans-87"/>
      <path d="M 56.203125 29.59375 
L 56.203125 25.203125 
L 14.890625 25.203125 
Q 15.484375 15.921875 20.484375 11.0625 
Q 25.484375 6.203125 34.421875 6.203125 
Q 39.59375 6.203125 44.453125 7.46875 
Q 49.3125 8.734375 54.109375 11.28125 
L 54.109375 2.78125 
Q 49.265625 0.734375 44.1875 -0.34375 
Q 39.109375 -1.421875 33.890625 -1.421875 
Q 20.796875 -1.421875 13.15625 6.1875 
Q 5.515625 13.8125 5.515625 26.8125 
Q 5.515625 40.234375 12.765625 48.109375 
Q 20.015625 56 32.328125 56 
Q 43.359375 56 49.78125 48.890625 
Q 56.203125 41.796875 56.203125 29.59375 
z
M 47.21875 32.234375 
Q 47.125 39.59375 43.09375 43.984375 
Q 39.0625 48.390625 32.421875 48.390625 
Q 24.90625 48.390625 20.390625 44.140625 
Q 15.875 39.890625 15.1875 32.171875 
z
" id="DejaVuSans-101"/>
      <path d="M 9.421875 54.6875 
L 18.40625 54.6875 
L 18.40625 0 
L 9.421875 0 
z
M 9.421875 75.984375 
L 18.40625 75.984375 
L 18.40625 64.59375 
L 9.421875 64.59375 
z
" id="DejaVuSans-105"/>
      <path d="M 45.40625 27.984375 
Q 45.40625 37.75 41.375 43.109375 
Q 37.359375 48.484375 30.078125 48.484375 
Q 22.859375 48.484375 18.828125 43.109375 
Q 14.796875 37.75 14.796875 27.984375 
Q 14.796875 18.265625 18.828125 12.890625 
Q 22.859375 7.515625 30.078125 7.515625 
Q 37.359375 7.515625 41.375 12.890625 
Q 45.40625 18.265625 45.40625 27.984375 
z
M 54.390625 6.78125 
Q 54.390625 -7.171875 48.1875 -13.984375 
Q 42 -20.796875 29.203125 -20.796875 
Q 24.46875 -20.796875 20.265625 -20.09375 
Q 16.0625 -19.390625 12.109375 -17.921875 
L 12.109375 -9.1875 
Q 16.0625 -11.328125 19.921875 -12.34375 
Q 23.78125 -13.375 27.78125 -13.375 
Q 36.625 -13.375 41.015625 -8.765625 
Q 45.40625 -4.15625 45.40625 5.171875 
L 45.40625 9.625 
Q 42.625 4.78125 38.28125 2.390625 
Q 33.9375 0 27.875 0 
Q 17.828125 0 11.671875 7.65625 
Q 5.515625 15.328125 5.515625 27.984375 
Q 5.515625 40.671875 11.671875 48.328125 
Q 17.828125 56 27.875 56 
Q 33.9375 56 38.28125 53.609375 
Q 42.625 51.21875 45.40625 46.390625 
L 45.40625 54.6875 
L 54.390625 54.6875 
z
" id="DejaVuSans-103"/>
      <path d="M 54.890625 33.015625 
L 54.890625 0 
L 45.90625 0 
L 45.90625 32.71875 
Q 45.90625 40.484375 42.875 44.328125 
Q 39.84375 48.1875 33.796875 48.1875 
Q 26.515625 48.1875 22.3125 43.546875 
Q 18.109375 38.921875 18.109375 30.90625 
L 18.109375 0 
L 9.078125 0 
L 9.078125 75.984375 
L 18.109375 75.984375 
L 18.109375 46.1875 
Q 21.34375 51.125 25.703125 53.5625 
Q 30.078125 56 35.796875 56 
Q 45.21875 56 50.046875 50.171875 
Q 54.890625 44.34375 54.890625 33.015625 
z
" id="DejaVuSans-104"/>
      <path d="M 18.3125 70.21875 
L 18.3125 54.6875 
L 36.8125 54.6875 
L 36.8125 47.703125 
L 18.3125 47.703125 
L 18.3125 18.015625 
Q 18.3125 11.328125 20.140625 9.421875 
Q 21.96875 7.515625 27.59375 7.515625 
L 36.8125 7.515625 
L 36.8125 0 
L 27.59375 0 
Q 17.1875 0 13.234375 3.875 
Q 9.28125 7.765625 9.28125 18.015625 
L 9.28125 47.703125 
L 2.6875 47.703125 
L 2.6875 54.6875 
L 9.28125 54.6875 
L 9.28125 70.21875 
z
" id="DejaVuSans-116"/>
     </defs>
     <g transform="translate(218.451406 335.860562)scale(0.1 -0.1)">
      <use xlink:href="#DejaVuSans-87"/>
      <use x="98.798828" xlink:href="#DejaVuSans-101"/>
      <use x="160.322266" xlink:href="#DejaVuSans-105"/>
      <use x="188.105469" xlink:href="#DejaVuSans-103"/>
      <use x="251.582031" xlink:href="#DejaVuSans-104"/>
      <use x="314.960938" xlink:href="#DejaVuSans-116"/>
     </g>
    </g>
   </g>
   <g id="matplotlib.axis_2">
    <g id="ytick_1">
     <g id="line2d_5">
      <defs>
       <path d="M 0 0 
L -3.5 0 
" id="m3738ce5dad" style="stroke:#000000;stroke-width:0.8;"/>
      </defs>
      <g>
       <use style="stroke:#000000;stroke-width:0.8;" x="57.6" xlink:href="#m3738ce5dad" y="307.584"/>
      </g>
     </g>
     <g id="text_6">
      <!-- 0 -->
      <g transform="translate(44.2375 311.383219)scale(0.1 -0.1)">
       <use xlink:href="#DejaVuSans-48"/>
      </g>
     </g>
    </g>
    <g id="ytick_2">
     <g id="line2d_6">
      <g>
       <use style="stroke:#000000;stroke-width:0.8;" x="57.6" xlink:href="#m3738ce5dad" y="260.784133"/>
      </g>
     </g>
     <g id="text_7">
      <!-- 5000 -->
      <g transform="translate(25.15 264.583352)scale(0.1 -0.1)">
       <use xlink:href="#DejaVuSans-53"/>
       <use x="63.623047" xlink:href="#DejaVuSans-48"/>
       <use x="127.246094" xlink:href="#DejaVuSans-48"/>
       <use x="190.869141" xlink:href="#DejaVuSans-48"/>
      </g>
     </g>
    </g>
    <g id="ytick_3">
     <g id="line2d_7">
      <g>
       <use style="stroke:#000000;stroke-width:0.8;" x="57.6" xlink:href="#m3738ce5dad" y="213.984266"/>
      </g>
     </g>
     <g id="text_8">
      <!-- 10000 -->
      <g transform="translate(18.7875 217.783485)scale(0.1 -0.1)">
       <use xlink:href="#DejaVuSans-49"/>
       <use x="63.623047" xlink:href="#DejaVuSans-48"/>
       <use x="127.246094" xlink:href="#DejaVuSans-48"/>
       <use x="190.869141" xlink:href="#DejaVuSans-48"/>
       <use x="254.492188" xlink:href="#DejaVuSans-48"/>
      </g>
     </g>
    </g>
    <g id="ytick_4">
     <g id="line2d_8">
      <g>
       <use style="stroke:#000000;stroke-width:0.8;" x="57.6" xlink:href="#m3738ce5dad" y="167.184399"/>
      </g>
     </g>
     <g id="text_9">
      <!-- 15000 -->
      <g transform="translate(18.7875 170.983618)scale(0.1 -0.1)">
       <use xlink:href="#DejaVuSans-49"/>
       <use x="63.623047" xlink:href="#DejaVuSans-53"/>
       <use x="127.246094" xlink:href="#DejaVuSans-48"/>
       <use x="190.869141" xlink:href="#DejaVuSans-48"/>
       <use x="254.492188" xlink:href="#DejaVuSans-48"/>
      </g>
     </g>
    </g>
    <g id="ytick_5">
     <g id="line2d_9">
      <g>
       <use style="stroke:#000000;stroke-width:0.8;" x="57.6" xlink:href="#m3738ce5dad" y="120.384532"/>
      </g>
     </g>
     <g id="text_10">
      <!-- 20000 -->
      <defs>
       <path d="M 19.1875 8.296875 
L 53.609375 8.296875 
L 53.609375 0 
L 7.328125 0 
L 7.328125 8.296875 
Q 12.9375 14.109375 22.625 23.890625 
Q 32.328125 33.6875 34.8125 36.53125 
Q 39.546875 41.84375 41.421875 45.53125 
Q 43.3125 49.21875 43.3125 52.78125 
Q 43.3125 58.59375 39.234375 62.25 
Q 35.15625 65.921875 28.609375 65.921875 
Q 23.96875 65.921875 18.8125 64.3125 
Q 13.671875 62.703125 7.8125 59.421875 
L 7.8125 69.390625 
Q 13.765625 71.78125 18.9375 73 
Q 24.125 74.21875 28.421875 74.21875 
Q 39.75 74.21875 46.484375 68.546875 
Q 53.21875 62.890625 53.21875 53.421875 
Q 53.21875 48.921875 51.53125 44.890625 
Q 49.859375 40.875 45.40625 35.40625 
Q 44.1875 33.984375 37.640625 27.21875 
Q 31.109375 20.453125 19.1875 8.296875 
z
" id="DejaVuSans-50"/>
      </defs>
      <g transform="translate(18.7875 124.183751)scale(0.1 -0.1)">
       <use xlink:href="#DejaVuSans-50"/>
       <use x="63.623047" xlink:href="#DejaVuSans-48"/>
       <use x="127.246094" xlink:href="#DejaVuSans-48"/>
       <use x="190.869141" xlink:href="#DejaVuSans-48"/>
       <use x="254.492188" xlink:href="#DejaVuSans-48"/>
      </g>
     </g>
    </g>
    <g id="ytick_6">
     <g id="line2d_10">
      <g>
       <use style="stroke:#000000;stroke-width:0.8;" x="57.6" xlink:href="#m3738ce5dad" y="73.584665"/>
      </g>
     </g>
     <g id="text_11">
      <!-- 25000 -->
      <g transform="translate(18.7875 77.383884)scale(0.1 -0.1)">
       <use xlink:href="#DejaVuSans-50"/>
       <use x="63.623047" xlink:href="#DejaVuSans-53"/>
       <use x="127.246094" xlink:href="#DejaVuSans-48"/>
       <use x="190.869141" xlink:href="#DejaVuSans-48"/>
       <use x="254.492188" xlink:href="#DejaVuSans-48"/>
      </g>
     </g>
    </g>
    <g id="text_12">
     <!-- Occurrencies -->
     <defs>
      <path d="M 39.40625 66.21875 
Q 28.65625 66.21875 22.328125 58.203125 
Q 16.015625 50.203125 16.015625 36.375 
Q 16.015625 22.609375 22.328125 14.59375 
Q 28.65625 6.59375 39.40625 6.59375 
Q 50.140625 6.59375 56.421875 14.59375 
Q 62.703125 22.609375 62.703125 36.375 
Q 62.703125 50.203125 56.421875 58.203125 
Q 50.140625 66.21875 39.40625 66.21875 
z
M 39.40625 74.21875 
Q 54.734375 74.21875 63.90625 63.9375 
Q 73.09375 53.65625 73.09375 36.375 
Q 73.09375 19.140625 63.90625 8.859375 
Q 54.734375 -1.421875 39.40625 -1.421875 
Q 24.03125 -1.421875 14.8125 8.828125 
Q 5.609375 19.09375 5.609375 36.375 
Q 5.609375 53.65625 14.8125 63.9375 
Q 24.03125 74.21875 39.40625 74.21875 
z
" id="DejaVuSans-79"/>
      <path d="M 48.78125 52.59375 
L 48.78125 44.1875 
Q 44.96875 46.296875 41.140625 47.34375 
Q 37.3125 48.390625 33.40625 48.390625 
Q 24.65625 48.390625 19.8125 42.84375 
Q 14.984375 37.3125 14.984375 27.296875 
Q 14.984375 17.28125 19.8125 11.734375 
Q 24.65625 6.203125 33.40625 6.203125 
Q 37.3125 6.203125 41.140625 7.25 
Q 44.96875 8.296875 48.78125 10.40625 
L 48.78125 2.09375 
Q 45.015625 0.34375 40.984375 -0.53125 
Q 36.96875 -1.421875 32.421875 -1.421875 
Q 20.0625 -1.421875 12.78125 6.34375 
Q 5.515625 14.109375 5.515625 27.296875 
Q 5.515625 40.671875 12.859375 48.328125 
Q 20.21875 56 33.015625 56 
Q 37.15625 56 41.109375 55.140625 
Q 45.0625 54.296875 48.78125 52.59375 
z
" id="DejaVuSans-99"/>
      <path d="M 8.5 21.578125 
L 8.5 54.6875 
L 17.484375 54.6875 
L 17.484375 21.921875 
Q 17.484375 14.15625 20.5 10.265625 
Q 23.53125 6.390625 29.59375 6.390625 
Q 36.859375 6.390625 41.078125 11.03125 
Q 45.3125 15.671875 45.3125 23.6875 
L 45.3125 54.6875 
L 54.296875 54.6875 
L 54.296875 0 
L 45.3125 0 
L 45.3125 8.40625 
Q 42.046875 3.421875 37.71875 1 
Q 33.40625 -1.421875 27.6875 -1.421875 
Q 18.265625 -1.421875 13.375 4.4375 
Q 8.5 10.296875 8.5 21.578125 
z
M 31.109375 56 
z
" id="DejaVuSans-117"/>
      <path d="M 41.109375 46.296875 
Q 39.59375 47.171875 37.8125 47.578125 
Q 36.03125 48 33.890625 48 
Q 26.265625 48 22.1875 43.046875 
Q 18.109375 38.09375 18.109375 28.8125 
L 18.109375 0 
L 9.078125 0 
L 9.078125 54.6875 
L 18.109375 54.6875 
L 18.109375 46.1875 
Q 20.953125 51.171875 25.484375 53.578125 
Q 30.03125 56 36.53125 56 
Q 37.453125 56 38.578125 55.875 
Q 39.703125 55.765625 41.0625 55.515625 
z
" id="DejaVuSans-114"/>
      <path d="M 54.890625 33.015625 
L 54.890625 0 
L 45.90625 0 
L 45.90625 32.71875 
Q 45.90625 40.484375 42.875 44.328125 
Q 39.84375 48.1875 33.796875 48.1875 
Q 26.515625 48.1875 22.3125 43.546875 
Q 18.109375 38.921875 18.109375 30.90625 
L 18.109375 0 
L 9.078125 0 
L 9.078125 54.6875 
L 18.109375 54.6875 
L 18.109375 46.1875 
Q 21.34375 51.125 25.703125 53.5625 
Q 30.078125 56 35.796875 56 
Q 45.21875 56 50.046875 50.171875 
Q 54.890625 44.34375 54.890625 33.015625 
z
" id="DejaVuSans-110"/>
      <path d="M 44.28125 53.078125 
L 44.28125 44.578125 
Q 40.484375 46.53125 36.375 47.5 
Q 32.28125 48.484375 27.875 48.484375 
Q 21.1875 48.484375 17.84375 46.4375 
Q 14.5 44.390625 14.5 40.28125 
Q 14.5 37.15625 16.890625 35.375 
Q 19.28125 33.59375 26.515625 31.984375 
L 29.59375 31.296875 
Q 39.15625 29.25 43.1875 25.515625 
Q 47.21875 21.78125 47.21875 15.09375 
Q 47.21875 7.46875 41.1875 3.015625 
Q 35.15625 -1.421875 24.609375 -1.421875 
Q 20.21875 -1.421875 15.453125 -0.5625 
Q 10.6875 0.296875 5.421875 2 
L 5.421875 11.28125 
Q 10.40625 8.6875 15.234375 7.390625 
Q 20.0625 6.109375 24.8125 6.109375 
Q 31.15625 6.109375 34.5625 8.28125 
Q 37.984375 10.453125 37.984375 14.40625 
Q 37.984375 18.0625 35.515625 20.015625 
Q 33.0625 21.96875 24.703125 23.78125 
L 21.578125 24.515625 
Q 13.234375 26.265625 9.515625 29.90625 
Q 5.8125 33.546875 5.8125 39.890625 
Q 5.8125 47.609375 11.28125 51.796875 
Q 16.75 56 26.8125 56 
Q 31.78125 56 36.171875 55.265625 
Q 40.578125 54.546875 44.28125 53.078125 
z
" id="DejaVuSans-115"/>
     </defs>
     <g transform="translate(12.707812 207.304563)rotate(-90)scale(0.1 -0.1)">
      <use xlink:href="#DejaVuSans-79"/>
      <use x="78.710938" xlink:href="#DejaVuSans-99"/>
      <use x="133.691406" xlink:href="#DejaVuSans-99"/>
      <use x="188.671875" xlink:href="#DejaVuSans-117"/>
      <use x="252.050781" xlink:href="#DejaVuSans-114"/>
      <use x="293.148438" xlink:href="#DejaVuSans-114"/>
      <use x="334.230469" xlink:href="#DejaVuSans-101"/>
      <use x="395.753906" xlink:href="#DejaVuSans-110"/>
      <use x="459.132812" xlink:href="#DejaVuSans-99"/>
      <use x="514.113281" xlink:href="#DejaVuSans-105"/>
      <use x="541.896484" xlink:href="#DejaVuSans-101"/>
      <use x="603.419922" xlink:href="#DejaVuSans-115"/>
     </g>
    </g>
   </g>
   <g id="patch_203">
    <path d="M 57.6 307.584 
L 57.6 41.472 
" style="fill:none;stroke:#000000;stroke-linecap:square;stroke-linejoin:miter;stroke-width:0.8;"/>
   </g>
   <g id="patch_204">
    <path d="M 414.72 307.584 
L 414.72 41.472 
" style="fill:none;stroke:#000000;stroke-linecap:square;stroke-linejoin:miter;stroke-width:0.8;"/>
   </g>
   <g id="patch_205">
    <path d="M 57.6 307.584 
L 414.72 307.584 
" style="fill:none;stroke:#000000;stroke-linecap:square;stroke-linejoin:miter;stroke-width:0.8;"/>
   </g>
   <g id="patch_206">
    <path d="M 57.6 41.472 
L 414.72 41.472 
" style="fill:none;stroke:#000000;stroke-linecap:square;stroke-linejoin:miter;stroke-width:0.8;"/>
   </g>
   <g id="text_13">
    <!-- Histogram of fc1 -->
    <defs>
     <path d="M 9.8125 72.90625 
L 19.671875 72.90625 
L 19.671875 43.015625 
L 55.515625 43.015625 
L 55.515625 72.90625 
L 65.375 72.90625 
L 65.375 0 
L 55.515625 0 
L 55.515625 34.71875 
L 19.671875 34.71875 
L 19.671875 0 
L 9.8125 0 
z
" id="DejaVuSans-72"/>
     <path d="M 30.609375 48.390625 
Q 23.390625 48.390625 19.1875 42.75 
Q 14.984375 37.109375 14.984375 27.296875 
Q 14.984375 17.484375 19.15625 11.84375 
Q 23.34375 6.203125 30.609375 6.203125 
Q 37.796875 6.203125 41.984375 11.859375 
Q 46.1875 17.53125 46.1875 27.296875 
Q 46.1875 37.015625 41.984375 42.703125 
Q 37.796875 48.390625 30.609375 48.390625 
z
M 30.609375 56 
Q 42.328125 56 49.015625 48.375 
Q 55.71875 40.765625 55.71875 27.296875 
Q 55.71875 13.875 49.015625 6.21875 
Q 42.328125 -1.421875 30.609375 -1.421875 
Q 18.84375 -1.421875 12.171875 6.21875 
Q 5.515625 13.875 5.515625 27.296875 
Q 5.515625 40.765625 12.171875 48.375 
Q 18.84375 56 30.609375 56 
z
" id="DejaVuSans-111"/>
     <path d="M 34.28125 27.484375 
Q 23.390625 27.484375 19.1875 25 
Q 14.984375 22.515625 14.984375 16.5 
Q 14.984375 11.71875 18.140625 8.90625 
Q 21.296875 6.109375 26.703125 6.109375 
Q 34.1875 6.109375 38.703125 11.40625 
Q 43.21875 16.703125 43.21875 25.484375 
L 43.21875 27.484375 
z
M 52.203125 31.203125 
L 52.203125 0 
L 43.21875 0 
L 43.21875 8.296875 
Q 40.140625 3.328125 35.546875 0.953125 
Q 30.953125 -1.421875 24.3125 -1.421875 
Q 15.921875 -1.421875 10.953125 3.296875 
Q 6 8.015625 6 15.921875 
Q 6 25.140625 12.171875 29.828125 
Q 18.359375 34.515625 30.609375 34.515625 
L 43.21875 34.515625 
L 43.21875 35.40625 
Q 43.21875 41.609375 39.140625 45 
Q 35.0625 48.390625 27.6875 48.390625 
Q 23 48.390625 18.546875 47.265625 
Q 14.109375 46.140625 10.015625 43.890625 
L 10.015625 52.203125 
Q 14.9375 54.109375 19.578125 55.046875 
Q 24.21875 56 28.609375 56 
Q 40.484375 56 46.34375 49.84375 
Q 52.203125 43.703125 52.203125 31.203125 
z
" id="DejaVuSans-97"/>
     <path d="M 52 44.1875 
Q 55.375 50.25 60.0625 53.125 
Q 64.75 56 71.09375 56 
Q 79.640625 56 84.28125 50.015625 
Q 88.921875 44.046875 88.921875 33.015625 
L 88.921875 0 
L 79.890625 0 
L 79.890625 32.71875 
Q 79.890625 40.578125 77.09375 44.375 
Q 74.3125 48.1875 68.609375 48.1875 
Q 61.625 48.1875 57.5625 43.546875 
Q 53.515625 38.921875 53.515625 30.90625 
L 53.515625 0 
L 44.484375 0 
L 44.484375 32.71875 
Q 44.484375 40.625 41.703125 44.40625 
Q 38.921875 48.1875 33.109375 48.1875 
Q 26.21875 48.1875 22.15625 43.53125 
Q 18.109375 38.875 18.109375 30.90625 
L 18.109375 0 
L 9.078125 0 
L 9.078125 54.6875 
L 18.109375 54.6875 
L 18.109375 46.1875 
Q 21.1875 51.21875 25.484375 53.609375 
Q 29.78125 56 35.6875 56 
Q 41.65625 56 45.828125 52.96875 
Q 50 49.953125 52 44.1875 
z
" id="DejaVuSans-109"/>
     <path id="DejaVuSans-32"/>
     <path d="M 37.109375 75.984375 
L 37.109375 68.5 
L 28.515625 68.5 
Q 23.6875 68.5 21.796875 66.546875 
Q 19.921875 64.59375 19.921875 59.515625 
L 19.921875 54.6875 
L 34.71875 54.6875 
L 34.71875 47.703125 
L 19.921875 47.703125 
L 19.921875 0 
L 10.890625 0 
L 10.890625 47.703125 
L 2.296875 47.703125 
L 2.296875 54.6875 
L 10.890625 54.6875 
L 10.890625 58.5 
Q 10.890625 67.625 15.140625 71.796875 
Q 19.390625 75.984375 28.609375 75.984375 
z
" id="DejaVuSans-102"/>
    </defs>
    <g transform="translate(186.209063 35.472)scale(0.12 -0.12)">
     <use xlink:href="#DejaVuSans-72"/>
     <use x="75.195312" xlink:href="#DejaVuSans-105"/>
     <use x="102.978516" xlink:href="#DejaVuSans-115"/>
     <use x="155.078125" xlink:href="#DejaVuSans-116"/>
     <use x="194.287109" xlink:href="#DejaVuSans-111"/>
     <use x="255.46875" xlink:href="#DejaVuSans-103"/>
     <use x="318.945312" xlink:href="#DejaVuSans-114"/>
     <use x="360.058594" xlink:href="#DejaVuSans-97"/>
     <use x="421.337891" xlink:href="#DejaVuSans-109"/>
     <use x="518.75" xlink:href="#DejaVuSans-32"/>
     <use x="550.537109" xlink:href="#DejaVuSans-111"/>
     <use x="611.71875" xlink:href="#DejaVuSans-102"/>
     <use x="646.923828" xlink:href="#DejaVuSans-32"/>
     <use x="678.710938" xlink:href="#DejaVuSans-102"/>
     <use x="713.916016" xlink:href="#DejaVuSans-99"/>
     <use x="768.896484" xlink:href="#DejaVuSans-49"/>
    </g>
   </g>
   <g id="legend_1">
    <g id="patch_207">
     <path d="M 323.679375 78.82825 
L 407.72 78.82825 
Q 409.72 78.82825 409.72 76.82825 
L 409.72 48.472 
Q 409.72 46.472 407.72 46.472 
L 323.679375 46.472 
Q 321.679375 46.472 321.679375 48.472 
L 321.679375 76.82825 
Q 321.679375 78.82825 323.679375 78.82825 
z
" style="fill:#ffffff;opacity:0.8;stroke:#cccccc;stroke-linejoin:miter;"/>
    </g>
    <g id="patch_208">
     <path d="M 325.679375 58.070437 
L 345.679375 58.070437 
L 345.679375 51.070437 
L 325.679375 51.070437 
z
" style="fill:#0000ff;"/>
    </g>
    <g id="text_14">
     <!-- unmasked -->
     <defs>
      <path d="M 9.078125 75.984375 
L 18.109375 75.984375 
L 18.109375 31.109375 
L 44.921875 54.6875 
L 56.390625 54.6875 
L 27.390625 29.109375 
L 57.625 0 
L 45.90625 0 
L 18.109375 26.703125 
L 18.109375 0 
L 9.078125 0 
z
" id="DejaVuSans-107"/>
      <path d="M 45.40625 46.390625 
L 45.40625 75.984375 
L 54.390625 75.984375 
L 54.390625 0 
L 45.40625 0 
L 45.40625 8.203125 
Q 42.578125 3.328125 38.25 0.953125 
Q 33.9375 -1.421875 27.875 -1.421875 
Q 17.96875 -1.421875 11.734375 6.484375 
Q 5.515625 14.40625 5.515625 27.296875 
Q 5.515625 40.1875 11.734375 48.09375 
Q 17.96875 56 27.875 56 
Q 33.9375 56 38.25 53.625 
Q 42.578125 51.265625 45.40625 46.390625 
z
M 14.796875 27.296875 
Q 14.796875 17.390625 18.875 11.75 
Q 22.953125 6.109375 30.078125 6.109375 
Q 37.203125 6.109375 41.296875 11.75 
Q 45.40625 17.390625 45.40625 27.296875 
Q 45.40625 37.203125 41.296875 42.84375 
Q 37.203125 48.484375 30.078125 48.484375 
Q 22.953125 48.484375 18.875 42.84375 
Q 14.796875 37.203125 14.796875 27.296875 
z
" id="DejaVuSans-100"/>
     </defs>
     <g transform="translate(353.679375 58.070437)scale(0.1 -0.1)">
      <use xlink:href="#DejaVuSans-117"/>
      <use x="63.378906" xlink:href="#DejaVuSans-110"/>
      <use x="126.757812" xlink:href="#DejaVuSans-109"/>
      <use x="224.169922" xlink:href="#DejaVuSans-97"/>
      <use x="285.449219" xlink:href="#DejaVuSans-115"/>
      <use x="337.548828" xlink:href="#DejaVuSans-107"/>
      <use x="395.412109" xlink:href="#DejaVuSans-101"/>
      <use x="456.935547" xlink:href="#DejaVuSans-100"/>
     </g>
    </g>
    <g id="patch_209">
     <path d="M 325.679375 72.748562 
L 345.679375 72.748562 
L 345.679375 65.748562 
L 325.679375 65.748562 
z
" style="fill:#808080;"/>
    </g>
    <g id="text_15">
     <!-- masked -->
     <g transform="translate(353.679375 72.748562)scale(0.1 -0.1)">
      <use xlink:href="#DejaVuSans-109"/>
      <use x="97.412109" xlink:href="#DejaVuSans-97"/>
      <use x="158.691406" xlink:href="#DejaVuSans-115"/>
      <use x="210.791016" xlink:href="#DejaVuSans-107"/>
      <use x="268.654297" xlink:href="#DejaVuSans-101"/>
      <use x="330.177734" xlink:href="#DejaVuSans-100"/>
     </g>
    </g>
   </g>
  </g>
 </g>
 <defs>
  <clipPath id="p948fb81e91">
   <rect height="266.112" width="357.12" x="57.6" y="41.472"/>
  </clipPath>
 </defs>
</svg>
