<?xml version="1.0" encoding="utf-8" standalone="no"?>
<!DOCTYPE svg PUBLIC "-//W3C//DTD SVG 1.1//EN"
  "http://www.w3.org/Graphics/SVG/1.1/DTD/svg11.dtd">
<!-- Created with matplotlib (https://matplotlib.org/) -->
<svg height="345.6pt" version="1.1" viewBox="0 0 460.8 345.6" width="460.8pt" xmlns="http://www.w3.org/2000/svg" xmlns:xlink="http://www.w3.org/1999/xlink">
 <defs>
  <style type="text/css">
*{stroke-linecap:butt;stroke-linejoin:round;}
  </style>
 </defs>
 <g id="figure_1">
  <g id="patch_1">
   <path d="M 0 345.6 
L 460.8 345.6 
L 460.8 0 
L 0 0 
z
" style="fill:#ffffff;"/>
  </g>
  <g id="axes_1">
   <g id="patch_2">
    <path d="M 57.6 307.584 
L 414.72 307.584 
L 414.72 41.472 
L 57.6 41.472 
z
" style="fill:#ffffff;"/>
   </g>
   <g id="patch_3">
    <path clip-path="url(#p2b2d84f3a8)" d="M 128.823071 307.584 
L 131.519713 307.584 
L 131.519713 306.827463 
L 128.823071 306.827463 
z
" style="fill:#0000ff;"/>
   </g>
   <g id="patch_4">
    <path clip-path="url(#p2b2d84f3a8)" d="M 131.519713 307.584 
L 134.216354 307.584 
L 134.216354 307.584 
L 131.519713 307.584 
z
" style="fill:#0000ff;"/>
   </g>
   <g id="patch_5">
    <path clip-path="url(#p2b2d84f3a8)" d="M 134.216355 307.584 
L 136.912997 307.584 
L 136.912997 307.584 
L 134.216355 307.584 
z
" style="fill:#0000ff;"/>
   </g>
   <g id="patch_6">
    <path clip-path="url(#p2b2d84f3a8)" d="M 136.912997 307.584 
L 139.609639 307.584 
L 139.609639 307.584 
L 136.912997 307.584 
z
" style="fill:#0000ff;"/>
   </g>
   <g id="patch_7">
    <path clip-path="url(#p2b2d84f3a8)" d="M 139.609639 307.584 
L 142.306281 307.584 
L 142.306281 306.827463 
L 139.609639 306.827463 
z
" style="fill:#0000ff;"/>
   </g>
   <g id="patch_8">
    <path clip-path="url(#p2b2d84f3a8)" d="M 142.30628 307.584 
L 145.002922 307.584 
L 145.002922 307.584 
L 142.30628 307.584 
z
" style="fill:#0000ff;"/>
   </g>
   <g id="patch_9">
    <path clip-path="url(#p2b2d84f3a8)" d="M 145.002923 307.584 
L 147.699566 307.584 
L 147.699566 307.584 
L 145.002923 307.584 
z
" style="fill:#0000ff;"/>
   </g>
   <g id="patch_10">
    <path clip-path="url(#p2b2d84f3a8)" d="M 147.699564 307.584 
L 150.396205 307.584 
L 150.396205 306.827463 
L 147.699564 306.827463 
z
" style="fill:#0000ff;"/>
   </g>
   <g id="patch_11">
    <path clip-path="url(#p2b2d84f3a8)" d="M 150.396203 307.584 
L 153.092846 307.584 
L 153.092846 306.827463 
L 150.396203 306.827463 
z
" style="fill:#0000ff;"/>
   </g>
   <g id="patch_12">
    <path clip-path="url(#p2b2d84f3a8)" d="M 153.092849 307.584 
L 155.78949 307.584 
L 155.78949 307.584 
L 153.092849 307.584 
z
" style="fill:#0000ff;"/>
   </g>
   <g id="patch_13">
    <path clip-path="url(#p2b2d84f3a8)" d="M 155.78949 307.584 
L 158.486131 307.584 
L 158.486131 306.827463 
L 155.78949 306.827463 
z
" style="fill:#0000ff;"/>
   </g>
   <g id="patch_14">
    <path clip-path="url(#p2b2d84f3a8)" d="M 158.486131 307.584 
L 161.182774 307.584 
L 161.182774 307.584 
L 158.486131 307.584 
z
" style="fill:#0000ff;"/>
   </g>
   <g id="patch_15">
    <path clip-path="url(#p2b2d84f3a8)" d="M 161.182772 307.584 
L 163.879417 307.584 
L 163.879417 307.584 
L 161.182772 307.584 
z
" style="fill:#0000ff;"/>
   </g>
   <g id="patch_16">
    <path clip-path="url(#p2b2d84f3a8)" d="M 163.879417 307.584 
L 166.576058 307.584 
L 166.576058 306.070925 
L 163.879417 306.070925 
z
" style="fill:#0000ff;"/>
   </g>
   <g id="patch_17">
    <path clip-path="url(#p2b2d84f3a8)" d="M 166.576054 307.584 
L 169.272695 307.584 
L 169.272695 306.070925 
L 166.576054 306.070925 
z
" style="fill:#0000ff;"/>
   </g>
   <g id="patch_18">
    <path clip-path="url(#p2b2d84f3a8)" d="M 169.272699 307.584 
L 171.96934 307.584 
L 171.96934 307.584 
L 169.272699 307.584 
z
" style="fill:#0000ff;"/>
   </g>
   <g id="patch_19">
    <path clip-path="url(#p2b2d84f3a8)" d="M 171.969336 307.584 
L 174.665977 307.584 
L 174.665977 306.827463 
L 171.969336 306.827463 
z
" style="fill:#0000ff;"/>
   </g>
   <g id="patch_20">
    <path clip-path="url(#p2b2d84f3a8)" d="M 174.665981 307.584 
L 177.362626 307.584 
L 177.362626 307.584 
L 174.665981 307.584 
z
" style="fill:#0000ff;"/>
   </g>
   <g id="patch_21">
    <path clip-path="url(#p2b2d84f3a8)" d="M 177.362626 307.584 
L 180.059267 307.584 
L 180.059267 307.584 
L 177.362626 307.584 
z
" style="fill:#0000ff;"/>
   </g>
   <g id="patch_22">
    <path clip-path="url(#p2b2d84f3a8)" d="M 180.059263 307.584 
L 182.755904 307.584 
L 182.755904 306.827463 
L 180.059263 306.827463 
z
" style="fill:#0000ff;"/>
   </g>
   <g id="patch_23">
    <path clip-path="url(#p2b2d84f3a8)" d="M 182.755908 307.584 
L 185.452549 307.584 
L 185.452549 307.584 
L 182.755908 307.584 
z
" style="fill:#0000ff;"/>
   </g>
   <g id="patch_24">
    <path clip-path="url(#p2b2d84f3a8)" d="M 185.452545 307.584 
L 188.149186 307.584 
L 188.149186 306.827463 
L 185.452545 306.827463 
z
" style="fill:#0000ff;"/>
   </g>
   <g id="patch_25">
    <path clip-path="url(#p2b2d84f3a8)" d="M 188.14919 307.584 
L 190.845835 307.584 
L 190.845835 307.584 
L 188.14919 307.584 
z
" style="fill:#0000ff;"/>
   </g>
   <g id="patch_26">
    <path clip-path="url(#p2b2d84f3a8)" d="M 190.845835 307.584 
L 193.542476 307.584 
L 193.542476 306.827463 
L 190.845835 306.827463 
z
" style="fill:#0000ff;"/>
   </g>
   <g id="patch_27">
    <path clip-path="url(#p2b2d84f3a8)" d="M 193.542472 307.584 
L 196.239113 307.584 
L 196.239113 306.827463 
L 193.542472 306.827463 
z
" style="fill:#0000ff;"/>
   </g>
   <g id="patch_28">
    <path clip-path="url(#p2b2d84f3a8)" d="M 196.239117 307.584 
L 198.935762 307.584 
L 198.935762 306.827463 
L 196.239117 306.827463 
z
" style="fill:#0000ff;"/>
   </g>
   <g id="patch_29">
    <path clip-path="url(#p2b2d84f3a8)" d="M 198.935762 307.584 
L 201.632399 307.584 
L 201.632399 307.584 
L 198.935762 307.584 
z
" style="fill:#0000ff;"/>
   </g>
   <g id="patch_30">
    <path clip-path="url(#p2b2d84f3a8)" d="M 201.632399 307.584 
L 204.329045 307.584 
L 204.329045 306.070925 
L 201.632399 306.070925 
z
" style="fill:#0000ff;"/>
   </g>
   <g id="patch_31">
    <path clip-path="url(#p2b2d84f3a8)" d="M 204.329053 307.584 
L 207.02569 307.584 
L 207.02569 307.584 
L 204.329053 307.584 
z
" style="fill:#0000ff;"/>
   </g>
   <g id="patch_32">
    <path clip-path="url(#p2b2d84f3a8)" d="M 207.025682 307.584 
L 209.722327 307.584 
L 209.722327 306.827463 
L 207.025682 306.827463 
z
" style="fill:#0000ff;"/>
   </g>
   <g id="patch_33">
    <path clip-path="url(#p2b2d84f3a8)" d="M 209.722327 307.584 
L 212.418972 307.584 
L 212.418972 303.801313 
L 209.722327 303.801313 
z
" style="fill:#0000ff;"/>
   </g>
   <g id="patch_34">
    <path clip-path="url(#p2b2d84f3a8)" d="M 212.418972 307.584 
L 215.115609 307.584 
L 215.115609 307.584 
L 212.418972 307.584 
z
" style="fill:#0000ff;"/>
   </g>
   <g id="patch_35">
    <path clip-path="url(#p2b2d84f3a8)" d="M 215.115609 307.584 
L 217.812254 307.584 
L 217.812254 305.314388 
L 215.115609 305.314388 
z
" style="fill:#0000ff;"/>
   </g>
   <g id="patch_36">
    <path clip-path="url(#p2b2d84f3a8)" d="M 217.812262 307.584 
L 220.508899 307.584 
L 220.508899 304.557851 
L 217.812262 304.557851 
z
" style="fill:#0000ff;"/>
   </g>
   <g id="patch_37">
    <path clip-path="url(#p2b2d84f3a8)" d="M 220.508891 307.584 
L 223.205536 307.584 
L 223.205536 306.070925 
L 220.508891 306.070925 
z
" style="fill:#0000ff;"/>
   </g>
   <g id="patch_38">
    <path clip-path="url(#p2b2d84f3a8)" d="M 223.205536 307.584 
L 225.902181 307.584 
L 225.902181 306.070925 
L 223.205536 306.070925 
z
" style="fill:#0000ff;"/>
   </g>
   <g id="patch_39">
    <path clip-path="url(#p2b2d84f3a8)" d="M 225.902181 307.584 
L 228.598818 307.584 
L 228.598818 306.070925 
L 225.902181 306.070925 
z
" style="fill:#0000ff;"/>
   </g>
   <g id="patch_40">
    <path clip-path="url(#p2b2d84f3a8)" d="M 228.598818 307.584 
L 231.295463 307.584 
L 231.295463 304.557851 
L 228.598818 304.557851 
z
" style="fill:#0000ff;"/>
   </g>
   <g id="patch_41">
    <path clip-path="url(#p2b2d84f3a8)" d="M 231.295471 307.584 
L 233.992108 307.584 
L 233.992108 303.801313 
L 231.295471 303.801313 
z
" style="fill:#0000ff;"/>
   </g>
   <g id="patch_42">
    <path clip-path="url(#p2b2d84f3a8)" d="M 233.9921 307.584 
L 236.688745 307.584 
L 236.688745 304.557851 
L 233.9921 304.557851 
z
" style="fill:#0000ff;"/>
   </g>
   <g id="patch_43">
    <path clip-path="url(#p2b2d84f3a8)" d="M 236.688745 307.584 
L 239.38539 307.584 
L 239.38539 303.044776 
L 236.688745 303.044776 
z
" style="fill:#0000ff;"/>
   </g>
   <g id="patch_44">
    <path clip-path="url(#p2b2d84f3a8)" d="M 239.38539 307.584 
L 242.082027 307.584 
L 242.082027 301.531701 
L 239.38539 301.531701 
z
" style="fill:#0000ff;"/>
   </g>
   <g id="patch_45">
    <path clip-path="url(#p2b2d84f3a8)" d="M 242.082027 307.584 
L 244.778672 307.584 
L 244.778672 305.314388 
L 242.082027 305.314388 
z
" style="fill:#0000ff;"/>
   </g>
   <g id="patch_46">
    <path clip-path="url(#p2b2d84f3a8)" d="M 244.77868 307.584 
L 247.475318 307.584 
L 247.475318 302.288239 
L 244.77868 302.288239 
z
" style="fill:#0000ff;"/>
   </g>
   <g id="patch_47">
    <path clip-path="url(#p2b2d84f3a8)" d="M 247.475309 307.584 
L 250.171955 307.584 
L 250.171955 303.801313 
L 247.475309 303.801313 
z
" style="fill:#0000ff;"/>
   </g>
   <g id="patch_48">
    <path clip-path="url(#p2b2d84f3a8)" d="M 250.171955 307.584 
L 252.8686 307.584 
L 252.8686 304.557851 
L 250.171955 304.557851 
z
" style="fill:#0000ff;"/>
   </g>
   <g id="patch_49">
    <path clip-path="url(#p2b2d84f3a8)" d="M 252.8686 307.584 
L 255.565237 307.584 
L 255.565237 301.531701 
L 252.8686 301.531701 
z
" style="fill:#0000ff;"/>
   </g>
   <g id="patch_50">
    <path clip-path="url(#p2b2d84f3a8)" d="M 255.565237 307.584 
L 258.261882 307.584 
L 258.261882 301.531701 
L 255.565237 301.531701 
z
" style="fill:#0000ff;"/>
   </g>
   <g id="patch_51">
    <path clip-path="url(#p2b2d84f3a8)" d="M 258.26189 307.584 
L 260.958527 307.584 
L 260.958527 298.505552 
L 258.26189 298.505552 
z
" style="fill:#0000ff;"/>
   </g>
   <g id="patch_52">
    <path clip-path="url(#p2b2d84f3a8)" d="M 260.958519 307.584 
L 263.655164 307.584 
L 263.655164 303.801313 
L 260.958519 303.801313 
z
" style="fill:#0000ff;"/>
   </g>
   <g id="patch_53">
    <path clip-path="url(#p2b2d84f3a8)" d="M 263.655156 307.584 
L 266.351793 307.584 
L 266.351793 302.288239 
L 263.655156 302.288239 
z
" style="fill:#0000ff;"/>
   </g>
   <g id="patch_54">
    <path clip-path="url(#p2b2d84f3a8)" d="M 266.351825 307.584 
L 269.04847 307.584 
L 269.04847 301.531701 
L 266.351825 301.531701 
z
" style="fill:#0000ff;"/>
   </g>
   <g id="patch_55">
    <path clip-path="url(#p2b2d84f3a8)" d="M 269.048454 307.584 
L 271.745083 307.584 
L 271.745083 299.26209 
L 269.048454 299.26209 
z
" style="fill:#0000ff;"/>
   </g>
   <g id="patch_56">
    <path clip-path="url(#p2b2d84f3a8)" d="M 271.745083 307.584 
L 274.441728 307.584 
L 274.441728 301.531701 
L 271.745083 301.531701 
z
" style="fill:#0000ff;"/>
   </g>
   <g id="patch_57">
    <path clip-path="url(#p2b2d84f3a8)" d="M 274.441744 307.584 
L 277.138389 307.584 
L 277.138389 298.505552 
L 274.441744 298.505552 
z
" style="fill:#0000ff;"/>
   </g>
   <g id="patch_58">
    <path clip-path="url(#p2b2d84f3a8)" d="M 277.138373 307.584 
L 279.835018 307.584 
L 279.835018 300.775164 
L 277.138373 300.775164 
z
" style="fill:#0000ff;"/>
   </g>
   <g id="patch_59">
    <path clip-path="url(#p2b2d84f3a8)" d="M 279.835034 307.584 
L 282.531679 307.584 
L 282.531679 298.505552 
L 279.835034 298.505552 
z
" style="fill:#0000ff;"/>
   </g>
   <g id="patch_60">
    <path clip-path="url(#p2b2d84f3a8)" d="M 282.531663 307.584 
L 285.228292 307.584 
L 285.228292 300.775164 
L 282.531663 300.775164 
z
" style="fill:#0000ff;"/>
   </g>
   <g id="patch_61">
    <path clip-path="url(#p2b2d84f3a8)" d="M 285.228292 307.584 
L 287.924937 307.584 
L 287.924937 293.966328 
L 285.228292 293.966328 
z
" style="fill:#0000ff;"/>
   </g>
   <g id="patch_62">
    <path clip-path="url(#p2b2d84f3a8)" d="M 287.924953 307.584 
L 290.621598 307.584 
L 290.621598 300.775164 
L 287.924953 300.775164 
z
" style="fill:#0000ff;"/>
   </g>
   <g id="patch_63">
    <path clip-path="url(#p2b2d84f3a8)" d="M 290.621582 307.584 
L 293.318227 307.584 
L 293.318227 293.966328 
L 290.621582 293.966328 
z
" style="fill:#0000ff;"/>
   </g>
   <g id="patch_64">
    <path clip-path="url(#p2b2d84f3a8)" d="M 293.318244 307.584 
L 296.014889 307.584 
L 296.014889 295.479403 
L 293.318244 295.479403 
z
" style="fill:#0000ff;"/>
   </g>
   <g id="patch_65">
    <path clip-path="url(#p2b2d84f3a8)" d="M 296.014873 307.584 
L 298.711501 307.584 
L 298.711501 294.722866 
L 296.014873 294.722866 
z
" style="fill:#0000ff;"/>
   </g>
   <g id="patch_66">
    <path clip-path="url(#p2b2d84f3a8)" d="M 298.711501 307.584 
L 301.408147 307.584 
L 301.408147 296.992478 
L 298.711501 296.992478 
z
" style="fill:#0000ff;"/>
   </g>
   <g id="patch_67">
    <path clip-path="url(#p2b2d84f3a8)" d="M 301.408163 307.584 
L 304.104808 307.584 
L 304.104808 302.288239 
L 301.408163 302.288239 
z
" style="fill:#0000ff;"/>
   </g>
   <g id="patch_68">
    <path clip-path="url(#p2b2d84f3a8)" d="M 304.104792 307.584 
L 306.801437 307.584 
L 306.801437 295.479403 
L 304.104792 295.479403 
z
" style="fill:#0000ff;"/>
   </g>
   <g id="patch_69">
    <path clip-path="url(#p2b2d84f3a8)" d="M 306.801453 307.584 
L 309.498098 307.584 
L 309.498098 300.775164 
L 306.801453 300.775164 
z
" style="fill:#0000ff;"/>
   </g>
   <g id="patch_70">
    <path clip-path="url(#p2b2d84f3a8)" d="M 309.498082 307.584 
L 312.194711 307.584 
L 312.194711 297.749015 
L 309.498082 297.749015 
z
" style="fill:#0000ff;"/>
   </g>
   <g id="patch_71">
    <path clip-path="url(#p2b2d84f3a8)" d="M 312.194711 307.584 
L 314.891356 307.584 
L 314.891356 303.801313 
L 312.194711 303.801313 
z
" style="fill:#0000ff;"/>
   </g>
   <g id="patch_72">
    <path clip-path="url(#p2b2d84f3a8)" d="M 314.891372 307.584 
L 317.588017 307.584 
L 317.588017 301.531701 
L 314.891372 301.531701 
z
" style="fill:#0000ff;"/>
   </g>
   <g id="patch_73">
    <path clip-path="url(#p2b2d84f3a8)" d="M 317.588001 307.584 
L 320.284646 307.584 
L 320.284646 300.018627 
L 317.588001 300.018627 
z
" style="fill:#0000ff;"/>
   </g>
   <g id="patch_74">
    <path clip-path="url(#p2b2d84f3a8)" d="M 320.284662 307.584 
L 322.981307 307.584 
L 322.981307 303.044776 
L 320.284662 303.044776 
z
" style="fill:#0000ff;"/>
   </g>
   <g id="patch_75">
    <path clip-path="url(#p2b2d84f3a8)" d="M 322.981291 307.584 
L 325.67792 307.584 
L 325.67792 301.531701 
L 322.981291 301.531701 
z
" style="fill:#0000ff;"/>
   </g>
   <g id="patch_76">
    <path clip-path="url(#p2b2d84f3a8)" d="M 325.67792 307.584 
L 328.374565 307.584 
L 328.374565 304.557851 
L 325.67792 304.557851 
z
" style="fill:#0000ff;"/>
   </g>
   <g id="patch_77">
    <path clip-path="url(#p2b2d84f3a8)" d="M 328.374581 307.584 
L 331.071226 307.584 
L 331.071226 303.801313 
L 328.374581 303.801313 
z
" style="fill:#0000ff;"/>
   </g>
   <g id="patch_78">
    <path clip-path="url(#p2b2d84f3a8)" d="M 331.07121 307.584 
L 333.767855 307.584 
L 333.767855 298.505552 
L 331.07121 298.505552 
z
" style="fill:#0000ff;"/>
   </g>
   <g id="patch_79">
    <path clip-path="url(#p2b2d84f3a8)" d="M 333.767871 307.584 
L 336.464516 307.584 
L 336.464516 302.288239 
L 333.767871 302.288239 
z
" style="fill:#0000ff;"/>
   </g>
   <g id="patch_80">
    <path clip-path="url(#p2b2d84f3a8)" d="M 336.4645 307.584 
L 339.161129 307.584 
L 339.161129 303.801313 
L 336.4645 303.801313 
z
" style="fill:#0000ff;"/>
   </g>
   <g id="patch_81">
    <path clip-path="url(#p2b2d84f3a8)" d="M 339.161129 307.584 
L 341.857774 307.584 
L 341.857774 303.044776 
L 339.161129 303.044776 
z
" style="fill:#0000ff;"/>
   </g>
   <g id="patch_82">
    <path clip-path="url(#p2b2d84f3a8)" d="M 341.857791 307.584 
L 344.554436 307.584 
L 344.554436 304.557851 
L 341.857791 304.557851 
z
" style="fill:#0000ff;"/>
   </g>
   <g id="patch_83">
    <path clip-path="url(#p2b2d84f3a8)" d="M 344.554419 307.584 
L 347.251065 307.584 
L 347.251065 303.801313 
L 344.554419 303.801313 
z
" style="fill:#0000ff;"/>
   </g>
   <g id="patch_84">
    <path clip-path="url(#p2b2d84f3a8)" d="M 347.251081 307.584 
L 349.947726 307.584 
L 349.947726 306.070925 
L 347.251081 306.070925 
z
" style="fill:#0000ff;"/>
   </g>
   <g id="patch_85">
    <path clip-path="url(#p2b2d84f3a8)" d="M 349.94771 307.584 
L 352.644339 307.584 
L 352.644339 306.827463 
L 349.94771 306.827463 
z
" style="fill:#0000ff;"/>
   </g>
   <g id="patch_86">
    <path clip-path="url(#p2b2d84f3a8)" d="M 352.644339 307.584 
L 355.340984 307.584 
L 355.340984 306.070925 
L 352.644339 306.070925 
z
" style="fill:#0000ff;"/>
   </g>
   <g id="patch_87">
    <path clip-path="url(#p2b2d84f3a8)" d="M 355.341 307.584 
L 358.037645 307.584 
L 358.037645 306.070925 
L 355.341 306.070925 
z
" style="fill:#0000ff;"/>
   </g>
   <g id="patch_88">
    <path clip-path="url(#p2b2d84f3a8)" d="M 358.037629 307.584 
L 360.734274 307.584 
L 360.734274 306.827463 
L 358.037629 306.827463 
z
" style="fill:#0000ff;"/>
   </g>
   <g id="patch_89">
    <path clip-path="url(#p2b2d84f3a8)" d="M 360.73429 307.584 
L 363.430935 307.584 
L 363.430935 304.557851 
L 360.73429 304.557851 
z
" style="fill:#0000ff;"/>
   </g>
   <g id="patch_90">
    <path clip-path="url(#p2b2d84f3a8)" d="M 363.430919 307.584 
L 366.127548 307.584 
L 366.127548 306.070925 
L 363.430919 306.070925 
z
" style="fill:#0000ff;"/>
   </g>
   <g id="patch_91">
    <path clip-path="url(#p2b2d84f3a8)" d="M 366.127548 307.584 
L 368.824193 307.584 
L 368.824193 305.314388 
L 366.127548 305.314388 
z
" style="fill:#0000ff;"/>
   </g>
   <g id="patch_92">
    <path clip-path="url(#p2b2d84f3a8)" d="M 368.824209 307.584 
L 371.520854 307.584 
L 371.520854 306.070925 
L 368.824209 306.070925 
z
" style="fill:#0000ff;"/>
   </g>
   <g id="patch_93">
    <path clip-path="url(#p2b2d84f3a8)" d="M 371.520838 307.584 
L 374.217483 307.584 
L 374.217483 305.314388 
L 371.520838 305.314388 
z
" style="fill:#0000ff;"/>
   </g>
   <g id="patch_94">
    <path clip-path="url(#p2b2d84f3a8)" d="M 374.217499 307.584 
L 376.914144 307.584 
L 376.914144 306.827463 
L 374.217499 306.827463 
z
" style="fill:#0000ff;"/>
   </g>
   <g id="patch_95">
    <path clip-path="url(#p2b2d84f3a8)" d="M 376.914128 307.584 
L 379.610757 307.584 
L 379.610757 305.314388 
L 376.914128 305.314388 
z
" style="fill:#0000ff;"/>
   </g>
   <g id="patch_96">
    <path clip-path="url(#p2b2d84f3a8)" d="M 379.610757 307.584 
L 382.307402 307.584 
L 382.307402 304.557851 
L 379.610757 304.557851 
z
" style="fill:#0000ff;"/>
   </g>
   <g id="patch_97">
    <path clip-path="url(#p2b2d84f3a8)" d="M 382.307418 307.584 
L 385.004063 307.584 
L 385.004063 306.070925 
L 382.307418 306.070925 
z
" style="fill:#0000ff;"/>
   </g>
   <g id="patch_98">
    <path clip-path="url(#p2b2d84f3a8)" d="M 385.004047 307.584 
L 387.700692 307.584 
L 387.700692 307.584 
L 385.004047 307.584 
z
" style="fill:#0000ff;"/>
   </g>
   <g id="patch_99">
    <path clip-path="url(#p2b2d84f3a8)" d="M 387.700709 307.584 
L 390.397354 307.584 
L 390.397354 306.827463 
L 387.700709 306.827463 
z
" style="fill:#0000ff;"/>
   </g>
   <g id="patch_100">
    <path clip-path="url(#p2b2d84f3a8)" d="M 390.397337 307.584 
L 393.093966 307.584 
L 393.093966 306.070925 
L 390.397337 306.070925 
z
" style="fill:#0000ff;"/>
   </g>
   <g id="patch_101">
    <path clip-path="url(#p2b2d84f3a8)" d="M 393.093966 307.584 
L 395.790612 307.584 
L 395.790612 306.827463 
L 393.093966 306.827463 
z
" style="fill:#0000ff;"/>
   </g>
   <g id="patch_102">
    <path clip-path="url(#p2b2d84f3a8)" d="M 395.790628 307.584 
L 398.487273 307.584 
L 398.487273 306.827463 
L 395.790628 306.827463 
z
" style="fill:#0000ff;"/>
   </g>
   <g id="patch_103">
    <path clip-path="url(#p2b2d84f3a8)" d="M 73.832727 307.584 
L 74.752757 307.584 
L 74.752757 306.827463 
L 73.832727 306.827463 
z
" style="fill:#808080;"/>
   </g>
   <g id="patch_104">
    <path clip-path="url(#p2b2d84f3a8)" d="M 74.752757 307.584 
L 75.672791 307.584 
L 75.672791 307.584 
L 74.752757 307.584 
z
" style="fill:#808080;"/>
   </g>
   <g id="patch_105">
    <path clip-path="url(#p2b2d84f3a8)" d="M 75.672795 307.584 
L 76.592824 307.584 
L 76.592824 307.584 
L 75.672795 307.584 
z
" style="fill:#808080;"/>
   </g>
   <g id="patch_106">
    <path clip-path="url(#p2b2d84f3a8)" d="M 76.59282 307.584 
L 77.51285 307.584 
L 77.51285 307.584 
L 76.59282 307.584 
z
" style="fill:#808080;"/>
   </g>
   <g id="patch_107">
    <path clip-path="url(#p2b2d84f3a8)" d="M 77.512854 307.584 
L 78.432883 307.584 
L 78.432883 306.827463 
L 77.512854 306.827463 
z
" style="fill:#808080;"/>
   </g>
   <g id="patch_108">
    <path clip-path="url(#p2b2d84f3a8)" d="M 78.432879 307.584 
L 79.352913 307.584 
L 79.352913 307.584 
L 78.432879 307.584 
z
" style="fill:#808080;"/>
   </g>
   <g id="patch_109">
    <path clip-path="url(#p2b2d84f3a8)" d="M 79.352913 307.584 
L 80.272943 307.584 
L 80.272943 307.584 
L 79.352913 307.584 
z
" style="fill:#808080;"/>
   </g>
   <g id="patch_110">
    <path clip-path="url(#p2b2d84f3a8)" d="M 80.272947 307.584 
L 81.192976 307.584 
L 81.192976 307.584 
L 80.272947 307.584 
z
" style="fill:#808080;"/>
   </g>
   <g id="patch_111">
    <path clip-path="url(#p2b2d84f3a8)" d="M 81.192972 307.584 
L 82.113006 307.584 
L 82.113006 306.827463 
L 81.192972 306.827463 
z
" style="fill:#808080;"/>
   </g>
   <g id="patch_112">
    <path clip-path="url(#p2b2d84f3a8)" d="M 82.113006 307.584 
L 83.033036 307.584 
L 83.033036 307.584 
L 82.113006 307.584 
z
" style="fill:#808080;"/>
   </g>
   <g id="patch_113">
    <path clip-path="url(#p2b2d84f3a8)" d="M 83.03304 307.584 
L 83.953069 307.584 
L 83.953069 307.584 
L 83.03304 307.584 
z
" style="fill:#808080;"/>
   </g>
   <g id="patch_114">
    <path clip-path="url(#p2b2d84f3a8)" d="M 83.953065 307.584 
L 84.873095 307.584 
L 84.873095 307.584 
L 83.953065 307.584 
z
" style="fill:#808080;"/>
   </g>
   <g id="patch_115">
    <path clip-path="url(#p2b2d84f3a8)" d="M 84.873095 307.584 
L 85.793128 307.584 
L 85.793128 307.584 
L 84.873095 307.584 
z
" style="fill:#808080;"/>
   </g>
   <g id="patch_116">
    <path clip-path="url(#p2b2d84f3a8)" d="M 85.793133 307.584 
L 86.713162 307.584 
L 86.713162 307.584 
L 85.793133 307.584 
z
" style="fill:#808080;"/>
   </g>
   <g id="patch_117">
    <path clip-path="url(#p2b2d84f3a8)" d="M 86.713158 307.584 
L 87.633188 307.584 
L 87.633188 307.584 
L 86.713158 307.584 
z
" style="fill:#808080;"/>
   </g>
   <g id="patch_118">
    <path clip-path="url(#p2b2d84f3a8)" d="M 87.633192 307.584 
L 88.553221 307.584 
L 88.553221 307.584 
L 87.633192 307.584 
z
" style="fill:#808080;"/>
   </g>
   <g id="patch_119">
    <path clip-path="url(#p2b2d84f3a8)" d="M 88.553217 307.584 
L 89.473251 307.584 
L 89.473251 307.584 
L 88.553217 307.584 
z
" style="fill:#808080;"/>
   </g>
   <g id="patch_120">
    <path clip-path="url(#p2b2d84f3a8)" d="M 89.473251 307.584 
L 90.393281 307.584 
L 90.393281 307.584 
L 89.473251 307.584 
z
" style="fill:#808080;"/>
   </g>
   <g id="patch_121">
    <path clip-path="url(#p2b2d84f3a8)" d="M 90.393285 307.584 
L 91.313314 307.584 
L 91.313314 302.288239 
L 90.393285 302.288239 
z
" style="fill:#808080;"/>
   </g>
   <g id="patch_122">
    <path clip-path="url(#p2b2d84f3a8)" d="M 91.31331 307.584 
L 92.233344 307.584 
L 92.233344 307.584 
L 91.31331 307.584 
z
" style="fill:#808080;"/>
   </g>
   <g id="patch_123">
    <path clip-path="url(#p2b2d84f3a8)" d="M 92.233344 307.584 
L 93.153374 307.584 
L 93.153374 306.827463 
L 92.233344 306.827463 
z
" style="fill:#808080;"/>
   </g>
   <g id="patch_124">
    <path clip-path="url(#p2b2d84f3a8)" d="M 93.153378 307.584 
L 94.073407 307.584 
L 94.073407 306.827463 
L 93.153378 306.827463 
z
" style="fill:#808080;"/>
   </g>
   <g id="patch_125">
    <path clip-path="url(#p2b2d84f3a8)" d="M 94.073403 307.584 
L 94.993437 307.584 
L 94.993437 307.584 
L 94.073403 307.584 
z
" style="fill:#808080;"/>
   </g>
   <g id="patch_126">
    <path clip-path="url(#p2b2d84f3a8)" d="M 94.993435 307.584 
L 95.913464 307.584 
L 95.913464 307.584 
L 94.993435 307.584 
z
" style="fill:#808080;"/>
   </g>
   <g id="patch_127">
    <path clip-path="url(#p2b2d84f3a8)" d="M 95.913462 307.584 
L 96.833496 307.584 
L 96.833496 306.827463 
L 95.913462 306.827463 
z
" style="fill:#808080;"/>
   </g>
   <g id="patch_128">
    <path clip-path="url(#p2b2d84f3a8)" d="M 96.833496 307.584 
L 97.75353 307.584 
L 97.75353 306.827463 
L 96.833496 306.827463 
z
" style="fill:#808080;"/>
   </g>
   <g id="patch_129">
    <path clip-path="url(#p2b2d84f3a8)" d="M 97.753528 307.584 
L 98.673557 307.584 
L 98.673557 292.453254 
L 97.753528 292.453254 
z
" style="fill:#808080;"/>
   </g>
   <g id="patch_130">
    <path clip-path="url(#p2b2d84f3a8)" d="M 98.673555 307.584 
L 99.593589 307.584 
L 99.593589 307.584 
L 98.673555 307.584 
z
" style="fill:#808080;"/>
   </g>
   <g id="patch_131">
    <path clip-path="url(#p2b2d84f3a8)" d="M 99.593589 307.584 
L 100.513619 307.584 
L 100.513619 307.584 
L 99.593589 307.584 
z
" style="fill:#808080;"/>
   </g>
   <g id="patch_132">
    <path clip-path="url(#p2b2d84f3a8)" d="M 100.513619 307.584 
L 101.433652 307.584 
L 101.433652 307.584 
L 100.513619 307.584 
z
" style="fill:#808080;"/>
   </g>
   <g id="patch_133">
    <path clip-path="url(#p2b2d84f3a8)" d="M 101.43365 307.584 
L 102.35368 307.584 
L 102.35368 307.584 
L 101.43365 307.584 
z
" style="fill:#808080;"/>
   </g>
   <g id="patch_134">
    <path clip-path="url(#p2b2d84f3a8)" d="M 102.353678 307.584 
L 103.273711 307.584 
L 103.273711 307.584 
L 102.353678 307.584 
z
" style="fill:#808080;"/>
   </g>
   <g id="patch_135">
    <path clip-path="url(#p2b2d84f3a8)" d="M 103.273711 307.584 
L 104.193741 307.584 
L 104.193741 307.584 
L 103.273711 307.584 
z
" style="fill:#808080;"/>
   </g>
   <g id="patch_136">
    <path clip-path="url(#p2b2d84f3a8)" d="M 104.193741 307.584 
L 105.113775 307.584 
L 105.113775 307.584 
L 104.193741 307.584 
z
" style="fill:#808080;"/>
   </g>
   <g id="patch_137">
    <path clip-path="url(#p2b2d84f3a8)" d="M 105.113771 307.584 
L 106.033804 307.584 
L 106.033804 307.584 
L 105.113771 307.584 
z
" style="fill:#808080;"/>
   </g>
   <g id="patch_138">
    <path clip-path="url(#p2b2d84f3a8)" d="M 106.033804 307.584 
L 106.953834 307.584 
L 106.953834 307.584 
L 106.033804 307.584 
z
" style="fill:#808080;"/>
   </g>
   <g id="patch_139">
    <path clip-path="url(#p2b2d84f3a8)" d="M 106.953834 307.584 
L 107.873868 307.584 
L 107.873868 307.584 
L 106.953834 307.584 
z
" style="fill:#808080;"/>
   </g>
   <g id="patch_140">
    <path clip-path="url(#p2b2d84f3a8)" d="M 107.873866 307.584 
L 108.793895 307.584 
L 108.793895 307.584 
L 107.873866 307.584 
z
" style="fill:#808080;"/>
   </g>
   <g id="patch_141">
    <path clip-path="url(#p2b2d84f3a8)" d="M 108.793893 307.584 
L 109.713927 307.584 
L 109.713927 307.584 
L 108.793893 307.584 
z
" style="fill:#808080;"/>
   </g>
   <g id="patch_142">
    <path clip-path="url(#p2b2d84f3a8)" d="M 109.713927 307.584 
L 110.633956 307.584 
L 110.633956 307.584 
L 109.713927 307.584 
z
" style="fill:#808080;"/>
   </g>
   <g id="patch_143">
    <path clip-path="url(#p2b2d84f3a8)" d="M 110.633956 307.584 
L 111.55399 307.584 
L 111.55399 307.584 
L 110.633956 307.584 
z
" style="fill:#808080;"/>
   </g>
   <g id="patch_144">
    <path clip-path="url(#p2b2d84f3a8)" d="M 111.553988 307.584 
L 112.474018 307.584 
L 112.474018 307.584 
L 111.553988 307.584 
z
" style="fill:#808080;"/>
   </g>
   <g id="patch_145">
    <path clip-path="url(#p2b2d84f3a8)" d="M 112.47402 307.584 
L 113.394049 307.584 
L 113.394049 307.584 
L 112.47402 307.584 
z
" style="fill:#808080;"/>
   </g>
   <g id="patch_146">
    <path clip-path="url(#p2b2d84f3a8)" d="M 113.394049 307.584 
L 114.314079 307.584 
L 114.314079 307.584 
L 113.394049 307.584 
z
" style="fill:#808080;"/>
   </g>
   <g id="patch_147">
    <path clip-path="url(#p2b2d84f3a8)" d="M 114.314081 307.584 
L 115.234111 307.584 
L 115.234111 307.584 
L 114.314081 307.584 
z
" style="fill:#808080;"/>
   </g>
   <g id="patch_148">
    <path clip-path="url(#p2b2d84f3a8)" d="M 115.23411 307.584 
L 116.154143 307.584 
L 116.154143 307.584 
L 115.23411 307.584 
z
" style="fill:#808080;"/>
   </g>
   <g id="patch_149">
    <path clip-path="url(#p2b2d84f3a8)" d="M 116.154142 307.584 
L 117.074172 307.584 
L 117.074172 307.584 
L 116.154142 307.584 
z
" style="fill:#808080;"/>
   </g>
   <g id="patch_150">
    <path clip-path="url(#p2b2d84f3a8)" d="M 117.074174 307.584 
L 117.994204 307.584 
L 117.994204 307.584 
L 117.074174 307.584 
z
" style="fill:#808080;"/>
   </g>
   <g id="patch_151">
    <path clip-path="url(#p2b2d84f3a8)" d="M 117.994204 307.584 
L 118.914233 307.584 
L 118.914233 307.584 
L 117.994204 307.584 
z
" style="fill:#808080;"/>
   </g>
   <g id="patch_152">
    <path clip-path="url(#p2b2d84f3a8)" d="M 118.914235 307.584 
L 119.834265 307.584 
L 119.834265 307.584 
L 118.914235 307.584 
z
" style="fill:#808080;"/>
   </g>
   <g id="patch_153">
    <path clip-path="url(#p2b2d84f3a8)" d="M 119.834265 307.584 
L 120.754294 307.584 
L 120.754294 307.584 
L 119.834265 307.584 
z
" style="fill:#808080;"/>
   </g>
   <g id="patch_154">
    <path clip-path="url(#p2b2d84f3a8)" d="M 120.754296 307.584 
L 121.674326 307.584 
L 121.674326 307.584 
L 120.754296 307.584 
z
" style="fill:#808080;"/>
   </g>
   <g id="patch_155">
    <path clip-path="url(#p2b2d84f3a8)" d="M 121.674327 307.584 
L 122.594357 307.584 
L 122.594357 307.584 
L 121.674327 307.584 
z
" style="fill:#808080;"/>
   </g>
   <g id="patch_156">
    <path clip-path="url(#p2b2d84f3a8)" d="M 122.594358 307.584 
L 123.514387 307.584 
L 123.514387 307.584 
L 122.594358 307.584 
z
" style="fill:#808080;"/>
   </g>
   <g id="patch_157">
    <path clip-path="url(#p2b2d84f3a8)" d="M 123.514388 307.584 
L 124.434418 307.584 
L 124.434418 307.584 
L 123.514388 307.584 
z
" style="fill:#808080;"/>
   </g>
   <g id="patch_158">
    <path clip-path="url(#p2b2d84f3a8)" d="M 124.434419 307.584 
L 125.354449 307.584 
L 125.354449 307.584 
L 124.434419 307.584 
z
" style="fill:#808080;"/>
   </g>
   <g id="patch_159">
    <path clip-path="url(#p2b2d84f3a8)" d="M 125.35445 307.584 
L 126.274479 307.584 
L 126.274479 307.584 
L 125.35445 307.584 
z
" style="fill:#808080;"/>
   </g>
   <g id="patch_160">
    <path clip-path="url(#p2b2d84f3a8)" d="M 126.274481 307.584 
L 127.19451 307.584 
L 127.19451 307.584 
L 126.274481 307.584 
z
" style="fill:#808080;"/>
   </g>
   <g id="patch_161">
    <path clip-path="url(#p2b2d84f3a8)" d="M 127.194511 307.584 
L 128.114541 307.584 
L 128.114541 307.584 
L 127.194511 307.584 
z
" style="fill:#808080;"/>
   </g>
   <g id="patch_162">
    <path clip-path="url(#p2b2d84f3a8)" d="M 128.114542 307.584 
L 129.034572 307.584 
L 129.034572 307.584 
L 128.114542 307.584 
z
" style="fill:#808080;"/>
   </g>
   <g id="patch_163">
    <path clip-path="url(#p2b2d84f3a8)" d="M 129.034573 307.584 
L 129.954602 307.584 
L 129.954602 307.584 
L 129.034573 307.584 
z
" style="fill:#808080;"/>
   </g>
   <g id="patch_164">
    <path clip-path="url(#p2b2d84f3a8)" d="M 129.954604 307.584 
L 130.874633 307.584 
L 130.874633 307.584 
L 129.954604 307.584 
z
" style="fill:#808080;"/>
   </g>
   <g id="patch_165">
    <path clip-path="url(#p2b2d84f3a8)" d="M 130.874634 307.584 
L 131.794664 307.584 
L 131.794664 307.584 
L 130.874634 307.584 
z
" style="fill:#808080;"/>
   </g>
   <g id="patch_166">
    <path clip-path="url(#p2b2d84f3a8)" d="M 131.794665 307.584 
L 132.714695 307.584 
L 132.714695 307.584 
L 131.794665 307.584 
z
" style="fill:#808080;"/>
   </g>
   <g id="patch_167">
    <path clip-path="url(#p2b2d84f3a8)" d="M 132.714696 307.584 
L 133.634726 307.584 
L 133.634726 307.584 
L 132.714696 307.584 
z
" style="fill:#808080;"/>
   </g>
   <g id="patch_168">
    <path clip-path="url(#p2b2d84f3a8)" d="M 133.634727 307.584 
L 134.554756 307.584 
L 134.554756 307.584 
L 133.634727 307.584 
z
" style="fill:#808080;"/>
   </g>
   <g id="patch_169">
    <path clip-path="url(#p2b2d84f3a8)" d="M 134.554757 307.584 
L 135.474787 307.584 
L 135.474787 307.584 
L 134.554757 307.584 
z
" style="fill:#808080;"/>
   </g>
   <g id="patch_170">
    <path clip-path="url(#p2b2d84f3a8)" d="M 135.474788 307.584 
L 136.394818 307.584 
L 136.394818 307.584 
L 135.474788 307.584 
z
" style="fill:#808080;"/>
   </g>
   <g id="patch_171">
    <path clip-path="url(#p2b2d84f3a8)" d="M 136.394819 307.584 
L 137.314848 307.584 
L 137.314848 307.584 
L 136.394819 307.584 
z
" style="fill:#808080;"/>
   </g>
   <g id="patch_172">
    <path clip-path="url(#p2b2d84f3a8)" d="M 137.31485 307.584 
L 138.234879 307.584 
L 138.234879 307.584 
L 137.31485 307.584 
z
" style="fill:#808080;"/>
   </g>
   <g id="patch_173">
    <path clip-path="url(#p2b2d84f3a8)" d="M 138.234878 307.584 
L 139.154912 307.584 
L 139.154912 307.584 
L 138.234878 307.584 
z
" style="fill:#808080;"/>
   </g>
   <g id="patch_174">
    <path clip-path="url(#p2b2d84f3a8)" d="M 139.154911 307.584 
L 140.074941 307.584 
L 140.074941 307.584 
L 139.154911 307.584 
z
" style="fill:#808080;"/>
   </g>
   <g id="patch_175">
    <path clip-path="url(#p2b2d84f3a8)" d="M 140.074943 307.584 
L 140.994972 307.584 
L 140.994972 307.584 
L 140.074943 307.584 
z
" style="fill:#808080;"/>
   </g>
   <g id="patch_176">
    <path clip-path="url(#p2b2d84f3a8)" d="M 140.994972 307.584 
L 141.915002 307.584 
L 141.915002 54.144 
L 140.994972 54.144 
z
" style="fill:#808080;"/>
   </g>
   <g id="patch_177">
    <path clip-path="url(#p2b2d84f3a8)" d="M 141.915004 307.584 
L 142.835034 307.584 
L 142.835034 305.314388 
L 141.915004 305.314388 
z
" style="fill:#808080;"/>
   </g>
   <g id="patch_178">
    <path clip-path="url(#p2b2d84f3a8)" d="M 142.835034 307.584 
L 143.755063 307.584 
L 143.755063 296.992478 
L 142.835034 296.992478 
z
" style="fill:#808080;"/>
   </g>
   <g id="patch_179">
    <path clip-path="url(#p2b2d84f3a8)" d="M 143.755065 307.584 
L 144.675095 307.584 
L 144.675095 307.584 
L 143.755065 307.584 
z
" style="fill:#808080;"/>
   </g>
   <g id="patch_180">
    <path clip-path="url(#p2b2d84f3a8)" d="M 144.675095 307.584 
L 145.595124 307.584 
L 145.595124 302.288239 
L 144.675095 302.288239 
z
" style="fill:#808080;"/>
   </g>
   <g id="patch_181">
    <path clip-path="url(#p2b2d84f3a8)" d="M 145.595126 307.584 
L 146.515156 307.584 
L 146.515156 301.531701 
L 145.595126 301.531701 
z
" style="fill:#808080;"/>
   </g>
   <g id="patch_182">
    <path clip-path="url(#p2b2d84f3a8)" d="M 146.515156 307.584 
L 147.43519 307.584 
L 147.43519 303.801313 
L 146.515156 303.801313 
z
" style="fill:#808080;"/>
   </g>
   <g id="patch_183">
    <path clip-path="url(#p2b2d84f3a8)" d="M 147.435188 307.584 
L 148.355217 307.584 
L 148.355217 305.314388 
L 147.435188 305.314388 
z
" style="fill:#808080;"/>
   </g>
   <g id="patch_184">
    <path clip-path="url(#p2b2d84f3a8)" d="M 148.355215 307.584 
L 149.275249 307.584 
L 149.275249 304.557851 
L 148.355215 304.557851 
z
" style="fill:#808080;"/>
   </g>
   <g id="patch_185">
    <path clip-path="url(#p2b2d84f3a8)" d="M 149.275249 307.584 
L 150.195279 307.584 
L 150.195279 307.584 
L 149.275249 307.584 
z
" style="fill:#808080;"/>
   </g>
   <g id="patch_186">
    <path clip-path="url(#p2b2d84f3a8)" d="M 150.195279 307.584 
L 151.115312 307.584 
L 151.115312 307.584 
L 150.195279 307.584 
z
" style="fill:#808080;"/>
   </g>
   <g id="patch_187">
    <path clip-path="url(#p2b2d84f3a8)" d="M 151.115308 307.584 
L 152.035342 307.584 
L 152.035342 307.584 
L 151.115308 307.584 
z
" style="fill:#808080;"/>
   </g>
   <g id="patch_188">
    <path clip-path="url(#p2b2d84f3a8)" d="M 152.035342 307.584 
L 152.955372 307.584 
L 152.955372 307.584 
L 152.035342 307.584 
z
" style="fill:#808080;"/>
   </g>
   <g id="patch_189">
    <path clip-path="url(#p2b2d84f3a8)" d="M 152.955372 307.584 
L 153.875405 307.584 
L 153.875405 307.584 
L 152.955372 307.584 
z
" style="fill:#808080;"/>
   </g>
   <g id="patch_190">
    <path clip-path="url(#p2b2d84f3a8)" d="M 153.875403 307.584 
L 154.795433 307.584 
L 154.795433 307.584 
L 153.875403 307.584 
z
" style="fill:#808080;"/>
   </g>
   <g id="patch_191">
    <path clip-path="url(#p2b2d84f3a8)" d="M 154.795431 307.584 
L 155.715464 307.584 
L 155.715464 307.584 
L 154.795431 307.584 
z
" style="fill:#808080;"/>
   </g>
   <g id="patch_192">
    <path clip-path="url(#p2b2d84f3a8)" d="M 155.715464 307.584 
L 156.635494 307.584 
L 156.635494 307.584 
L 155.715464 307.584 
z
" style="fill:#808080;"/>
   </g>
   <g id="patch_193">
    <path clip-path="url(#p2b2d84f3a8)" d="M 156.635494 307.584 
L 157.555528 307.584 
L 157.555528 307.584 
L 156.635494 307.584 
z
" style="fill:#808080;"/>
   </g>
   <g id="patch_194">
    <path clip-path="url(#p2b2d84f3a8)" d="M 157.555524 307.584 
L 158.475557 307.584 
L 158.475557 290.183642 
L 157.555524 290.183642 
z
" style="fill:#808080;"/>
   </g>
   <g id="patch_195">
    <path clip-path="url(#p2b2d84f3a8)" d="M 158.475557 307.584 
L 159.395587 307.584 
L 159.395587 307.584 
L 158.475557 307.584 
z
" style="fill:#808080;"/>
   </g>
   <g id="patch_196">
    <path clip-path="url(#p2b2d84f3a8)" d="M 159.395587 307.584 
L 160.315621 307.584 
L 160.315621 305.314388 
L 159.395587 305.314388 
z
" style="fill:#808080;"/>
   </g>
   <g id="patch_197">
    <path clip-path="url(#p2b2d84f3a8)" d="M 160.315619 307.584 
L 161.235648 307.584 
L 161.235648 303.801313 
L 160.315619 303.801313 
z
" style="fill:#808080;"/>
   </g>
   <g id="patch_198">
    <path clip-path="url(#p2b2d84f3a8)" d="M 161.235646 307.584 
L 162.15568 307.584 
L 162.15568 306.827463 
L 161.235646 306.827463 
z
" style="fill:#808080;"/>
   </g>
   <g id="patch_199">
    <path clip-path="url(#p2b2d84f3a8)" d="M 162.15568 307.584 
L 163.075709 307.584 
L 163.075709 307.584 
L 162.15568 307.584 
z
" style="fill:#808080;"/>
   </g>
   <g id="patch_200">
    <path clip-path="url(#p2b2d84f3a8)" d="M 163.075709 307.584 
L 163.995739 307.584 
L 163.995739 306.070925 
L 163.075709 306.070925 
z
" style="fill:#808080;"/>
   </g>
   <g id="patch_201">
    <path clip-path="url(#p2b2d84f3a8)" d="M 163.995739 307.584 
L 164.915773 307.584 
L 164.915773 306.070925 
L 163.995739 306.070925 
z
" style="fill:#808080;"/>
   </g>
   <g id="patch_202">
    <path clip-path="url(#p2b2d84f3a8)" d="M 164.915777 307.584 
L 165.835806 307.584 
L 165.835806 306.827463 
L 164.915777 306.827463 
z
" style="fill:#808080;"/>
   </g>
   <g id="matplotlib.axis_1">
    <g id="xtick_1">
     <g id="line2d_1">
      <defs>
       <path d="M 0 0 
L 0 3.5 
" id="maa63ab2efd" style="stroke:#000000;stroke-width:0.8;"/>
      </defs>
      <g>
       <use style="stroke:#000000;stroke-width:0.8;" x="75.94774" xlink:href="#maa63ab2efd" y="307.584"/>
      </g>
     </g>
     <g id="text_1">
      <!-- −50 -->
      <defs>
       <path d="M 10.59375 35.5 
L 73.1875 35.5 
L 73.1875 27.203125 
L 10.59375 27.203125 
z
" id="DejaVuSans-8722"/>
       <path d="M 10.796875 72.90625 
L 49.515625 72.90625 
L 49.515625 64.59375 
L 19.828125 64.59375 
L 19.828125 46.734375 
Q 21.96875 47.46875 24.109375 47.828125 
Q 26.265625 48.1875 28.421875 48.1875 
Q 40.625 48.1875 47.75 41.5 
Q 54.890625 34.8125 54.890625 23.390625 
Q 54.890625 11.625 47.5625 5.09375 
Q 40.234375 -1.421875 26.90625 -1.421875 
Q 22.3125 -1.421875 17.546875 -0.640625 
Q 12.796875 0.140625 7.71875 1.703125 
L 7.71875 11.625 
Q 12.109375 9.234375 16.796875 8.0625 
Q 21.484375 6.890625 26.703125 6.890625 
Q 35.15625 6.890625 40.078125 11.328125 
Q 45.015625 15.765625 45.015625 23.390625 
Q 45.015625 31 40.078125 35.4375 
Q 35.15625 39.890625 26.703125 39.890625 
Q 22.75 39.890625 18.8125 39.015625 
Q 14.890625 38.140625 10.796875 36.28125 
z
" id="DejaVuSans-53"/>
       <path d="M 31.78125 66.40625 
Q 24.171875 66.40625 20.328125 58.90625 
Q 16.5 51.421875 16.5 36.375 
Q 16.5 21.390625 20.328125 13.890625 
Q 24.171875 6.390625 31.78125 6.390625 
Q 39.453125 6.390625 43.28125 13.890625 
Q 47.125 21.390625 47.125 36.375 
Q 47.125 51.421875 43.28125 58.90625 
Q 39.453125 66.40625 31.78125 66.40625 
z
M 31.78125 74.21875 
Q 44.046875 74.21875 50.515625 64.515625 
Q 56.984375 54.828125 56.984375 36.375 
Q 56.984375 17.96875 50.515625 8.265625 
Q 44.046875 -1.421875 31.78125 -1.421875 
Q 19.53125 -1.421875 13.0625 8.265625 
Q 6.59375 17.96875 6.59375 36.375 
Q 6.59375 54.828125 13.0625 64.515625 
Q 19.53125 74.21875 31.78125 74.21875 
z
" id="DejaVuSans-48"/>
      </defs>
      <g transform="translate(65.395397 322.182437)scale(0.1 -0.1)">
       <use xlink:href="#DejaVuSans-8722"/>
       <use x="83.789062" xlink:href="#DejaVuSans-53"/>
       <use x="147.412109" xlink:href="#DejaVuSans-48"/>
      </g>
     </g>
    </g>
    <g id="xtick_2">
     <g id="line2d_2">
      <g>
       <use style="stroke:#000000;stroke-width:0.8;" x="128.823071" xlink:href="#maa63ab2efd" y="307.584"/>
      </g>
     </g>
     <g id="text_2">
      <!-- 0 -->
      <g transform="translate(125.641821 322.182437)scale(0.1 -0.1)">
       <use xlink:href="#DejaVuSans-48"/>
      </g>
     </g>
    </g>
    <g id="xtick_3">
     <g id="line2d_3">
      <g>
       <use style="stroke:#000000;stroke-width:0.8;" x="181.698402" xlink:href="#maa63ab2efd" y="307.584"/>
      </g>
     </g>
     <g id="text_3">
      <!-- 50 -->
      <g transform="translate(175.335902 322.182437)scale(0.1 -0.1)">
       <use xlink:href="#DejaVuSans-53"/>
       <use x="63.623047" xlink:href="#DejaVuSans-48"/>
      </g>
     </g>
    </g>
    <g id="xtick_4">
     <g id="line2d_4">
      <g>
       <use style="stroke:#000000;stroke-width:0.8;" x="234.573732" xlink:href="#maa63ab2efd" y="307.584"/>
      </g>
     </g>
     <g id="text_4">
      <!-- 100 -->
      <defs>
       <path d="M 12.40625 8.296875 
L 28.515625 8.296875 
L 28.515625 63.921875 
L 10.984375 60.40625 
L 10.984375 69.390625 
L 28.421875 72.90625 
L 38.28125 72.90625 
L 38.28125 8.296875 
L 54.390625 8.296875 
L 54.390625 0 
L 12.40625 0 
z
" id="DejaVuSans-49"/>
      </defs>
      <g transform="translate(225.029982 322.182437)scale(0.1 -0.1)">
       <use xlink:href="#DejaVuSans-49"/>
       <use x="63.623047" xlink:href="#DejaVuSans-48"/>
       <use x="127.246094" xlink:href="#DejaVuSans-48"/>
      </g>
     </g>
    </g>
    <g id="xtick_5">
     <g id="line2d_5">
      <g>
       <use style="stroke:#000000;stroke-width:0.8;" x="287.449063" xlink:href="#maa63ab2efd" y="307.584"/>
      </g>
     </g>
     <g id="text_5">
      <!-- 150 -->
      <g transform="translate(277.905313 322.182437)scale(0.1 -0.1)">
       <use xlink:href="#DejaVuSans-49"/>
       <use x="63.623047" xlink:href="#DejaVuSans-53"/>
       <use x="127.246094" xlink:href="#DejaVuSans-48"/>
      </g>
     </g>
    </g>
    <g id="xtick_6">
     <g id="line2d_6">
      <g>
       <use style="stroke:#000000;stroke-width:0.8;" x="340.324393" xlink:href="#maa63ab2efd" y="307.584"/>
      </g>
     </g>
     <g id="text_6">
      <!-- 200 -->
      <defs>
       <path d="M 19.1875 8.296875 
L 53.609375 8.296875 
L 53.609375 0 
L 7.328125 0 
L 7.328125 8.296875 
Q 12.9375 14.109375 22.625 23.890625 
Q 32.328125 33.6875 34.8125 36.53125 
Q 39.546875 41.84375 41.421875 45.53125 
Q 43.3125 49.21875 43.3125 52.78125 
Q 43.3125 58.59375 39.234375 62.25 
Q 35.15625 65.921875 28.609375 65.921875 
Q 23.96875 65.921875 18.8125 64.3125 
Q 13.671875 62.703125 7.8125 59.421875 
L 7.8125 69.390625 
Q 13.765625 71.78125 18.9375 73 
Q 24.125 74.21875 28.421875 74.21875 
Q 39.75 74.21875 46.484375 68.546875 
Q 53.21875 62.890625 53.21875 53.421875 
Q 53.21875 48.921875 51.53125 44.890625 
Q 49.859375 40.875 45.40625 35.40625 
Q 44.1875 33.984375 37.640625 27.21875 
Q 31.109375 20.453125 19.1875 8.296875 
z
" id="DejaVuSans-50"/>
      </defs>
      <g transform="translate(330.780643 322.182437)scale(0.1 -0.1)">
       <use xlink:href="#DejaVuSans-50"/>
       <use x="63.623047" xlink:href="#DejaVuSans-48"/>
       <use x="127.246094" xlink:href="#DejaVuSans-48"/>
      </g>
     </g>
    </g>
    <g id="xtick_7">
     <g id="line2d_7">
      <g>
       <use style="stroke:#000000;stroke-width:0.8;" x="393.199724" xlink:href="#maa63ab2efd" y="307.584"/>
      </g>
     </g>
     <g id="text_7">
      <!-- 250 -->
      <g transform="translate(383.655974 322.182437)scale(0.1 -0.1)">
       <use xlink:href="#DejaVuSans-50"/>
       <use x="63.623047" xlink:href="#DejaVuSans-53"/>
       <use x="127.246094" xlink:href="#DejaVuSans-48"/>
      </g>
     </g>
    </g>
    <g id="text_8">
     <!-- Weight -->
     <defs>
      <path d="M 3.328125 72.90625 
L 13.28125 72.90625 
L 28.609375 11.28125 
L 43.890625 72.90625 
L 54.984375 72.90625 
L 70.3125 11.28125 
L 85.59375 72.90625 
L 95.609375 72.90625 
L 77.296875 0 
L 64.890625 0 
L 49.515625 63.28125 
L 33.984375 0 
L 21.578125 0 
z
" id="DejaVuSans-87"/>
      <path d="M 56.203125 29.59375 
L 56.203125 25.203125 
L 14.890625 25.203125 
Q 15.484375 15.921875 20.484375 11.0625 
Q 25.484375 6.203125 34.421875 6.203125 
Q 39.59375 6.203125 44.453125 7.46875 
Q 49.3125 8.734375 54.109375 11.28125 
L 54.109375 2.78125 
Q 49.265625 0.734375 44.1875 -0.34375 
Q 39.109375 -1.421875 33.890625 -1.421875 
Q 20.796875 -1.421875 13.15625 6.1875 
Q 5.515625 13.8125 5.515625 26.8125 
Q 5.515625 40.234375 12.765625 48.109375 
Q 20.015625 56 32.328125 56 
Q 43.359375 56 49.78125 48.890625 
Q 56.203125 41.796875 56.203125 29.59375 
z
M 47.21875 32.234375 
Q 47.125 39.59375 43.09375 43.984375 
Q 39.0625 48.390625 32.421875 48.390625 
Q 24.90625 48.390625 20.390625 44.140625 
Q 15.875 39.890625 15.1875 32.171875 
z
" id="DejaVuSans-101"/>
      <path d="M 9.421875 54.6875 
L 18.40625 54.6875 
L 18.40625 0 
L 9.421875 0 
z
M 9.421875 75.984375 
L 18.40625 75.984375 
L 18.40625 64.59375 
L 9.421875 64.59375 
z
" id="DejaVuSans-105"/>
      <path d="M 45.40625 27.984375 
Q 45.40625 37.75 41.375 43.109375 
Q 37.359375 48.484375 30.078125 48.484375 
Q 22.859375 48.484375 18.828125 43.109375 
Q 14.796875 37.75 14.796875 27.984375 
Q 14.796875 18.265625 18.828125 12.890625 
Q 22.859375 7.515625 30.078125 7.515625 
Q 37.359375 7.515625 41.375 12.890625 
Q 45.40625 18.265625 45.40625 27.984375 
z
M 54.390625 6.78125 
Q 54.390625 -7.171875 48.1875 -13.984375 
Q 42 -20.796875 29.203125 -20.796875 
Q 24.46875 -20.796875 20.265625 -20.09375 
Q 16.0625 -19.390625 12.109375 -17.921875 
L 12.109375 -9.1875 
Q 16.0625 -11.328125 19.921875 -12.34375 
Q 23.78125 -13.375 27.78125 -13.375 
Q 36.625 -13.375 41.015625 -8.765625 
Q 45.40625 -4.15625 45.40625 5.171875 
L 45.40625 9.625 
Q 42.625 4.78125 38.28125 2.390625 
Q 33.9375 0 27.875 0 
Q 17.828125 0 11.671875 7.65625 
Q 5.515625 15.328125 5.515625 27.984375 
Q 5.515625 40.671875 11.671875 48.328125 
Q 17.828125 56 27.875 56 
Q 33.9375 56 38.28125 53.609375 
Q 42.625 51.21875 45.40625 46.390625 
L 45.40625 54.6875 
L 54.390625 54.6875 
z
" id="DejaVuSans-103"/>
      <path d="M 54.890625 33.015625 
L 54.890625 0 
L 45.90625 0 
L 45.90625 32.71875 
Q 45.90625 40.484375 42.875 44.328125 
Q 39.84375 48.1875 33.796875 48.1875 
Q 26.515625 48.1875 22.3125 43.546875 
Q 18.109375 38.921875 18.109375 30.90625 
L 18.109375 0 
L 9.078125 0 
L 9.078125 75.984375 
L 18.109375 75.984375 
L 18.109375 46.1875 
Q 21.34375 51.125 25.703125 53.5625 
Q 30.078125 56 35.796875 56 
Q 45.21875 56 50.046875 50.171875 
Q 54.890625 44.34375 54.890625 33.015625 
z
" id="DejaVuSans-104"/>
      <path d="M 18.3125 70.21875 
L 18.3125 54.6875 
L 36.8125 54.6875 
L 36.8125 47.703125 
L 18.3125 47.703125 
L 18.3125 18.015625 
Q 18.3125 11.328125 20.140625 9.421875 
Q 21.96875 7.515625 27.59375 7.515625 
L 36.8125 7.515625 
L 36.8125 0 
L 27.59375 0 
Q 17.1875 0 13.234375 3.875 
Q 9.28125 7.765625 9.28125 18.015625 
L 9.28125 47.703125 
L 2.6875 47.703125 
L 2.6875 54.6875 
L 9.28125 54.6875 
L 9.28125 70.21875 
z
" id="DejaVuSans-116"/>
     </defs>
     <g transform="translate(218.451406 335.860562)scale(0.1 -0.1)">
      <use xlink:href="#DejaVuSans-87"/>
      <use x="98.798828" xlink:href="#DejaVuSans-101"/>
      <use x="160.322266" xlink:href="#DejaVuSans-105"/>
      <use x="188.105469" xlink:href="#DejaVuSans-103"/>
      <use x="251.582031" xlink:href="#DejaVuSans-104"/>
      <use x="314.960938" xlink:href="#DejaVuSans-116"/>
     </g>
    </g>
   </g>
   <g id="matplotlib.axis_2">
    <g id="ytick_1">
     <g id="line2d_8">
      <defs>
       <path d="M 0 0 
L -3.5 0 
" id="mdd7ab6a714" style="stroke:#000000;stroke-width:0.8;"/>
      </defs>
      <g>
       <use style="stroke:#000000;stroke-width:0.8;" x="57.6" xlink:href="#mdd7ab6a714" y="307.584"/>
      </g>
     </g>
     <g id="text_9">
      <!-- 0 -->
      <g transform="translate(44.2375 311.383219)scale(0.1 -0.1)">
       <use xlink:href="#DejaVuSans-48"/>
      </g>
     </g>
    </g>
    <g id="ytick_2">
     <g id="line2d_9">
      <g>
       <use style="stroke:#000000;stroke-width:0.8;" x="57.6" xlink:href="#mdd7ab6a714" y="269.757134"/>
      </g>
     </g>
     <g id="text_10">
      <!-- 50 -->
      <g transform="translate(37.875 273.556353)scale(0.1 -0.1)">
       <use xlink:href="#DejaVuSans-53"/>
       <use x="63.623047" xlink:href="#DejaVuSans-48"/>
      </g>
     </g>
    </g>
    <g id="ytick_3">
     <g id="line2d_10">
      <g>
       <use style="stroke:#000000;stroke-width:0.8;" x="57.6" xlink:href="#mdd7ab6a714" y="231.930269"/>
      </g>
     </g>
     <g id="text_11">
      <!-- 100 -->
      <g transform="translate(31.5125 235.729487)scale(0.1 -0.1)">
       <use xlink:href="#DejaVuSans-49"/>
       <use x="63.623047" xlink:href="#DejaVuSans-48"/>
       <use x="127.246094" xlink:href="#DejaVuSans-48"/>
      </g>
     </g>
    </g>
    <g id="ytick_4">
     <g id="line2d_11">
      <g>
       <use style="stroke:#000000;stroke-width:0.8;" x="57.6" xlink:href="#mdd7ab6a714" y="194.103403"/>
      </g>
     </g>
     <g id="text_12">
      <!-- 150 -->
      <g transform="translate(31.5125 197.902622)scale(0.1 -0.1)">
       <use xlink:href="#DejaVuSans-49"/>
       <use x="63.623047" xlink:href="#DejaVuSans-53"/>
       <use x="127.246094" xlink:href="#DejaVuSans-48"/>
      </g>
     </g>
    </g>
    <g id="ytick_5">
     <g id="line2d_12">
      <g>
       <use style="stroke:#000000;stroke-width:0.8;" x="57.6" xlink:href="#mdd7ab6a714" y="156.276537"/>
      </g>
     </g>
     <g id="text_13">
      <!-- 200 -->
      <g transform="translate(31.5125 160.075756)scale(0.1 -0.1)">
       <use xlink:href="#DejaVuSans-50"/>
       <use x="63.623047" xlink:href="#DejaVuSans-48"/>
       <use x="127.246094" xlink:href="#DejaVuSans-48"/>
      </g>
     </g>
    </g>
    <g id="ytick_6">
     <g id="line2d_13">
      <g>
       <use style="stroke:#000000;stroke-width:0.8;" x="57.6" xlink:href="#mdd7ab6a714" y="118.449672"/>
      </g>
     </g>
     <g id="text_14">
      <!-- 250 -->
      <g transform="translate(31.5125 122.24889)scale(0.1 -0.1)">
       <use xlink:href="#DejaVuSans-50"/>
       <use x="63.623047" xlink:href="#DejaVuSans-53"/>
       <use x="127.246094" xlink:href="#DejaVuSans-48"/>
      </g>
     </g>
    </g>
    <g id="ytick_7">
     <g id="line2d_14">
      <g>
       <use style="stroke:#000000;stroke-width:0.8;" x="57.6" xlink:href="#mdd7ab6a714" y="80.622806"/>
      </g>
     </g>
     <g id="text_15">
      <!-- 300 -->
      <defs>
       <path d="M 40.578125 39.3125 
Q 47.65625 37.796875 51.625 33 
Q 55.609375 28.21875 55.609375 21.1875 
Q 55.609375 10.40625 48.1875 4.484375 
Q 40.765625 -1.421875 27.09375 -1.421875 
Q 22.515625 -1.421875 17.65625 -0.515625 
Q 12.796875 0.390625 7.625 2.203125 
L 7.625 11.71875 
Q 11.71875 9.328125 16.59375 8.109375 
Q 21.484375 6.890625 26.8125 6.890625 
Q 36.078125 6.890625 40.9375 10.546875 
Q 45.796875 14.203125 45.796875 21.1875 
Q 45.796875 27.640625 41.28125 31.265625 
Q 36.765625 34.90625 28.71875 34.90625 
L 20.21875 34.90625 
L 20.21875 43.015625 
L 29.109375 43.015625 
Q 36.375 43.015625 40.234375 45.921875 
Q 44.09375 48.828125 44.09375 54.296875 
Q 44.09375 59.90625 40.109375 62.90625 
Q 36.140625 65.921875 28.71875 65.921875 
Q 24.65625 65.921875 20.015625 65.03125 
Q 15.375 64.15625 9.8125 62.3125 
L 9.8125 71.09375 
Q 15.4375 72.65625 20.34375 73.4375 
Q 25.25 74.21875 29.59375 74.21875 
Q 40.828125 74.21875 47.359375 69.109375 
Q 53.90625 64.015625 53.90625 55.328125 
Q 53.90625 49.265625 50.4375 45.09375 
Q 46.96875 40.921875 40.578125 39.3125 
z
" id="DejaVuSans-51"/>
      </defs>
      <g transform="translate(31.5125 84.422025)scale(0.1 -0.1)">
       <use xlink:href="#DejaVuSans-51"/>
       <use x="63.623047" xlink:href="#DejaVuSans-48"/>
       <use x="127.246094" xlink:href="#DejaVuSans-48"/>
      </g>
     </g>
    </g>
    <g id="ytick_8">
     <g id="line2d_15">
      <g>
       <use style="stroke:#000000;stroke-width:0.8;" x="57.6" xlink:href="#mdd7ab6a714" y="42.79594"/>
      </g>
     </g>
     <g id="text_16">
      <!-- 350 -->
      <g transform="translate(31.5125 46.595159)scale(0.1 -0.1)">
       <use xlink:href="#DejaVuSans-51"/>
       <use x="63.623047" xlink:href="#DejaVuSans-53"/>
       <use x="127.246094" xlink:href="#DejaVuSans-48"/>
      </g>
     </g>
    </g>
    <g id="text_17">
     <!-- Occurrencies -->
     <defs>
      <path d="M 39.40625 66.21875 
Q 28.65625 66.21875 22.328125 58.203125 
Q 16.015625 50.203125 16.015625 36.375 
Q 16.015625 22.609375 22.328125 14.59375 
Q 28.65625 6.59375 39.40625 6.59375 
Q 50.140625 6.59375 56.421875 14.59375 
Q 62.703125 22.609375 62.703125 36.375 
Q 62.703125 50.203125 56.421875 58.203125 
Q 50.140625 66.21875 39.40625 66.21875 
z
M 39.40625 74.21875 
Q 54.734375 74.21875 63.90625 63.9375 
Q 73.09375 53.65625 73.09375 36.375 
Q 73.09375 19.140625 63.90625 8.859375 
Q 54.734375 -1.421875 39.40625 -1.421875 
Q 24.03125 -1.421875 14.8125 8.828125 
Q 5.609375 19.09375 5.609375 36.375 
Q 5.609375 53.65625 14.8125 63.9375 
Q 24.03125 74.21875 39.40625 74.21875 
z
" id="DejaVuSans-79"/>
      <path d="M 48.78125 52.59375 
L 48.78125 44.1875 
Q 44.96875 46.296875 41.140625 47.34375 
Q 37.3125 48.390625 33.40625 48.390625 
Q 24.65625 48.390625 19.8125 42.84375 
Q 14.984375 37.3125 14.984375 27.296875 
Q 14.984375 17.28125 19.8125 11.734375 
Q 24.65625 6.203125 33.40625 6.203125 
Q 37.3125 6.203125 41.140625 7.25 
Q 44.96875 8.296875 48.78125 10.40625 
L 48.78125 2.09375 
Q 45.015625 0.34375 40.984375 -0.53125 
Q 36.96875 -1.421875 32.421875 -1.421875 
Q 20.0625 -1.421875 12.78125 6.34375 
Q 5.515625 14.109375 5.515625 27.296875 
Q 5.515625 40.671875 12.859375 48.328125 
Q 20.21875 56 33.015625 56 
Q 37.15625 56 41.109375 55.140625 
Q 45.0625 54.296875 48.78125 52.59375 
z
" id="DejaVuSans-99"/>
      <path d="M 8.5 21.578125 
L 8.5 54.6875 
L 17.484375 54.6875 
L 17.484375 21.921875 
Q 17.484375 14.15625 20.5 10.265625 
Q 23.53125 6.390625 29.59375 6.390625 
Q 36.859375 6.390625 41.078125 11.03125 
Q 45.3125 15.671875 45.3125 23.6875 
L 45.3125 54.6875 
L 54.296875 54.6875 
L 54.296875 0 
L 45.3125 0 
L 45.3125 8.40625 
Q 42.046875 3.421875 37.71875 1 
Q 33.40625 -1.421875 27.6875 -1.421875 
Q 18.265625 -1.421875 13.375 4.4375 
Q 8.5 10.296875 8.5 21.578125 
z
M 31.109375 56 
z
" id="DejaVuSans-117"/>
      <path d="M 41.109375 46.296875 
Q 39.59375 47.171875 37.8125 47.578125 
Q 36.03125 48 33.890625 48 
Q 26.265625 48 22.1875 43.046875 
Q 18.109375 38.09375 18.109375 28.8125 
L 18.109375 0 
L 9.078125 0 
L 9.078125 54.6875 
L 18.109375 54.6875 
L 18.109375 46.1875 
Q 20.953125 51.171875 25.484375 53.578125 
Q 30.03125 56 36.53125 56 
Q 37.453125 56 38.578125 55.875 
Q 39.703125 55.765625 41.0625 55.515625 
z
" id="DejaVuSans-114"/>
      <path d="M 54.890625 33.015625 
L 54.890625 0 
L 45.90625 0 
L 45.90625 32.71875 
Q 45.90625 40.484375 42.875 44.328125 
Q 39.84375 48.1875 33.796875 48.1875 
Q 26.515625 48.1875 22.3125 43.546875 
Q 18.109375 38.921875 18.109375 30.90625 
L 18.109375 0 
L 9.078125 0 
L 9.078125 54.6875 
L 18.109375 54.6875 
L 18.109375 46.1875 
Q 21.34375 51.125 25.703125 53.5625 
Q 30.078125 56 35.796875 56 
Q 45.21875 56 50.046875 50.171875 
Q 54.890625 44.34375 54.890625 33.015625 
z
" id="DejaVuSans-110"/>
      <path d="M 44.28125 53.078125 
L 44.28125 44.578125 
Q 40.484375 46.53125 36.375 47.5 
Q 32.28125 48.484375 27.875 48.484375 
Q 21.1875 48.484375 17.84375 46.4375 
Q 14.5 44.390625 14.5 40.28125 
Q 14.5 37.15625 16.890625 35.375 
Q 19.28125 33.59375 26.515625 31.984375 
L 29.59375 31.296875 
Q 39.15625 29.25 43.1875 25.515625 
Q 47.21875 21.78125 47.21875 15.09375 
Q 47.21875 7.46875 41.1875 3.015625 
Q 35.15625 -1.421875 24.609375 -1.421875 
Q 20.21875 -1.421875 15.453125 -0.5625 
Q 10.6875 0.296875 5.421875 2 
L 5.421875 11.28125 
Q 10.40625 8.6875 15.234375 7.390625 
Q 20.0625 6.109375 24.8125 6.109375 
Q 31.15625 6.109375 34.5625 8.28125 
Q 37.984375 10.453125 37.984375 14.40625 
Q 37.984375 18.0625 35.515625 20.015625 
Q 33.0625 21.96875 24.703125 23.78125 
L 21.578125 24.515625 
Q 13.234375 26.265625 9.515625 29.90625 
Q 5.8125 33.546875 5.8125 39.890625 
Q 5.8125 47.609375 11.28125 51.796875 
Q 16.75 56 26.8125 56 
Q 31.78125 56 36.171875 55.265625 
Q 40.578125 54.546875 44.28125 53.078125 
z
" id="DejaVuSans-115"/>
     </defs>
     <g transform="translate(25.432812 207.304563)rotate(-90)scale(0.1 -0.1)">
      <use xlink:href="#DejaVuSans-79"/>
      <use x="78.710938" xlink:href="#DejaVuSans-99"/>
      <use x="133.691406" xlink:href="#DejaVuSans-99"/>
      <use x="188.671875" xlink:href="#DejaVuSans-117"/>
      <use x="252.050781" xlink:href="#DejaVuSans-114"/>
      <use x="293.148438" xlink:href="#DejaVuSans-114"/>
      <use x="334.230469" xlink:href="#DejaVuSans-101"/>
      <use x="395.753906" xlink:href="#DejaVuSans-110"/>
      <use x="459.132812" xlink:href="#DejaVuSans-99"/>
      <use x="514.113281" xlink:href="#DejaVuSans-105"/>
      <use x="541.896484" xlink:href="#DejaVuSans-101"/>
      <use x="603.419922" xlink:href="#DejaVuSans-115"/>
     </g>
    </g>
   </g>
   <g id="patch_203">
    <path d="M 57.6 307.584 
L 57.6 41.472 
" style="fill:none;stroke:#000000;stroke-linecap:square;stroke-linejoin:miter;stroke-width:0.8;"/>
   </g>
   <g id="patch_204">
    <path d="M 414.72 307.584 
L 414.72 41.472 
" style="fill:none;stroke:#000000;stroke-linecap:square;stroke-linejoin:miter;stroke-width:0.8;"/>
   </g>
   <g id="patch_205">
    <path d="M 57.6 307.584 
L 414.72 307.584 
" style="fill:none;stroke:#000000;stroke-linecap:square;stroke-linejoin:miter;stroke-width:0.8;"/>
   </g>
   <g id="patch_206">
    <path d="M 57.6 41.472 
L 414.72 41.472 
" style="fill:none;stroke:#000000;stroke-linecap:square;stroke-linejoin:miter;stroke-width:0.8;"/>
   </g>
   <g id="text_18">
    <!-- Histogram of conv1 -->
    <defs>
     <path d="M 9.8125 72.90625 
L 19.671875 72.90625 
L 19.671875 43.015625 
L 55.515625 43.015625 
L 55.515625 72.90625 
L 65.375 72.90625 
L 65.375 0 
L 55.515625 0 
L 55.515625 34.71875 
L 19.671875 34.71875 
L 19.671875 0 
L 9.8125 0 
z
" id="DejaVuSans-72"/>
     <path d="M 30.609375 48.390625 
Q 23.390625 48.390625 19.1875 42.75 
Q 14.984375 37.109375 14.984375 27.296875 
Q 14.984375 17.484375 19.15625 11.84375 
Q 23.34375 6.203125 30.609375 6.203125 
Q 37.796875 6.203125 41.984375 11.859375 
Q 46.1875 17.53125 46.1875 27.296875 
Q 46.1875 37.015625 41.984375 42.703125 
Q 37.796875 48.390625 30.609375 48.390625 
z
M 30.609375 56 
Q 42.328125 56 49.015625 48.375 
Q 55.71875 40.765625 55.71875 27.296875 
Q 55.71875 13.875 49.015625 6.21875 
Q 42.328125 -1.421875 30.609375 -1.421875 
Q 18.84375 -1.421875 12.171875 6.21875 
Q 5.515625 13.875 5.515625 27.296875 
Q 5.515625 40.765625 12.171875 48.375 
Q 18.84375 56 30.609375 56 
z
" id="DejaVuSans-111"/>
     <path d="M 34.28125 27.484375 
Q 23.390625 27.484375 19.1875 25 
Q 14.984375 22.515625 14.984375 16.5 
Q 14.984375 11.71875 18.140625 8.90625 
Q 21.296875 6.109375 26.703125 6.109375 
Q 34.1875 6.109375 38.703125 11.40625 
Q 43.21875 16.703125 43.21875 25.484375 
L 43.21875 27.484375 
z
M 52.203125 31.203125 
L 52.203125 0 
L 43.21875 0 
L 43.21875 8.296875 
Q 40.140625 3.328125 35.546875 0.953125 
Q 30.953125 -1.421875 24.3125 -1.421875 
Q 15.921875 -1.421875 10.953125 3.296875 
Q 6 8.015625 6 15.921875 
Q 6 25.140625 12.171875 29.828125 
Q 18.359375 34.515625 30.609375 34.515625 
L 43.21875 34.515625 
L 43.21875 35.40625 
Q 43.21875 41.609375 39.140625 45 
Q 35.0625 48.390625 27.6875 48.390625 
Q 23 48.390625 18.546875 47.265625 
Q 14.109375 46.140625 10.015625 43.890625 
L 10.015625 52.203125 
Q 14.9375 54.109375 19.578125 55.046875 
Q 24.21875 56 28.609375 56 
Q 40.484375 56 46.34375 49.84375 
Q 52.203125 43.703125 52.203125 31.203125 
z
" id="DejaVuSans-97"/>
     <path d="M 52 44.1875 
Q 55.375 50.25 60.0625 53.125 
Q 64.75 56 71.09375 56 
Q 79.640625 56 84.28125 50.015625 
Q 88.921875 44.046875 88.921875 33.015625 
L 88.921875 0 
L 79.890625 0 
L 79.890625 32.71875 
Q 79.890625 40.578125 77.09375 44.375 
Q 74.3125 48.1875 68.609375 48.1875 
Q 61.625 48.1875 57.5625 43.546875 
Q 53.515625 38.921875 53.515625 30.90625 
L 53.515625 0 
L 44.484375 0 
L 44.484375 32.71875 
Q 44.484375 40.625 41.703125 44.40625 
Q 38.921875 48.1875 33.109375 48.1875 
Q 26.21875 48.1875 22.15625 43.53125 
Q 18.109375 38.875 18.109375 30.90625 
L 18.109375 0 
L 9.078125 0 
L 9.078125 54.6875 
L 18.109375 54.6875 
L 18.109375 46.1875 
Q 21.1875 51.21875 25.484375 53.609375 
Q 29.78125 56 35.6875 56 
Q 41.65625 56 45.828125 52.96875 
Q 50 49.953125 52 44.1875 
z
" id="DejaVuSans-109"/>
     <path id="DejaVuSans-32"/>
     <path d="M 37.109375 75.984375 
L 37.109375 68.5 
L 28.515625 68.5 
Q 23.6875 68.5 21.796875 66.546875 
Q 19.921875 64.59375 19.921875 59.515625 
L 19.921875 54.6875 
L 34.71875 54.6875 
L 34.71875 47.703125 
L 19.921875 47.703125 
L 19.921875 0 
L 10.890625 0 
L 10.890625 47.703125 
L 2.296875 47.703125 
L 2.296875 54.6875 
L 10.890625 54.6875 
L 10.890625 58.5 
Q 10.890625 67.625 15.140625 71.796875 
Q 19.390625 75.984375 28.609375 75.984375 
z
" id="DejaVuSans-102"/>
     <path d="M 2.984375 54.6875 
L 12.5 54.6875 
L 29.59375 8.796875 
L 46.6875 54.6875 
L 56.203125 54.6875 
L 35.6875 0 
L 23.484375 0 
z
" id="DejaVuSans-118"/>
    </defs>
    <g transform="translate(177.29625 35.472)scale(0.12 -0.12)">
     <use xlink:href="#DejaVuSans-72"/>
     <use x="75.195312" xlink:href="#DejaVuSans-105"/>
     <use x="102.978516" xlink:href="#DejaVuSans-115"/>
     <use x="155.078125" xlink:href="#DejaVuSans-116"/>
     <use x="194.287109" xlink:href="#DejaVuSans-111"/>
     <use x="255.46875" xlink:href="#DejaVuSans-103"/>
     <use x="318.945312" xlink:href="#DejaVuSans-114"/>
     <use x="360.058594" xlink:href="#DejaVuSans-97"/>
     <use x="421.337891" xlink:href="#DejaVuSans-109"/>
     <use x="518.75" xlink:href="#DejaVuSans-32"/>
     <use x="550.537109" xlink:href="#DejaVuSans-111"/>
     <use x="611.71875" xlink:href="#DejaVuSans-102"/>
     <use x="646.923828" xlink:href="#DejaVuSans-32"/>
     <use x="678.710938" xlink:href="#DejaVuSans-99"/>
     <use x="733.691406" xlink:href="#DejaVuSans-111"/>
     <use x="794.873047" xlink:href="#DejaVuSans-110"/>
     <use x="858.251953" xlink:href="#DejaVuSans-118"/>
     <use x="917.431641" xlink:href="#DejaVuSans-49"/>
    </g>
   </g>
   <g id="legend_1">
    <g id="patch_207">
     <path d="M 323.679375 78.82825 
L 407.72 78.82825 
Q 409.72 78.82825 409.72 76.82825 
L 409.72 48.472 
Q 409.72 46.472 407.72 46.472 
L 323.679375 46.472 
Q 321.679375 46.472 321.679375 48.472 
L 321.679375 76.82825 
Q 321.679375 78.82825 323.679375 78.82825 
z
" style="fill:#ffffff;opacity:0.8;stroke:#cccccc;stroke-linejoin:miter;"/>
    </g>
    <g id="patch_208">
     <path d="M 325.679375 58.070437 
L 345.679375 58.070437 
L 345.679375 51.070437 
L 325.679375 51.070437 
z
" style="fill:#0000ff;"/>
    </g>
    <g id="text_19">
     <!-- unmasked -->
     <defs>
      <path d="M 9.078125 75.984375 
L 18.109375 75.984375 
L 18.109375 31.109375 
L 44.921875 54.6875 
L 56.390625 54.6875 
L 27.390625 29.109375 
L 57.625 0 
L 45.90625 0 
L 18.109375 26.703125 
L 18.109375 0 
L 9.078125 0 
z
" id="DejaVuSans-107"/>
      <path d="M 45.40625 46.390625 
L 45.40625 75.984375 
L 54.390625 75.984375 
L 54.390625 0 
L 45.40625 0 
L 45.40625 8.203125 
Q 42.578125 3.328125 38.25 0.953125 
Q 33.9375 -1.421875 27.875 -1.421875 
Q 17.96875 -1.421875 11.734375 6.484375 
Q 5.515625 14.40625 5.515625 27.296875 
Q 5.515625 40.1875 11.734375 48.09375 
Q 17.96875 56 27.875 56 
Q 33.9375 56 38.25 53.625 
Q 42.578125 51.265625 45.40625 46.390625 
z
M 14.796875 27.296875 
Q 14.796875 17.390625 18.875 11.75 
Q 22.953125 6.109375 30.078125 6.109375 
Q 37.203125 6.109375 41.296875 11.75 
Q 45.40625 17.390625 45.40625 27.296875 
Q 45.40625 37.203125 41.296875 42.84375 
Q 37.203125 48.484375 30.078125 48.484375 
Q 22.953125 48.484375 18.875 42.84375 
Q 14.796875 37.203125 14.796875 27.296875 
z
" id="DejaVuSans-100"/>
     </defs>
     <g transform="translate(353.679375 58.070437)scale(0.1 -0.1)">
      <use xlink:href="#DejaVuSans-117"/>
      <use x="63.378906" xlink:href="#DejaVuSans-110"/>
      <use x="126.757812" xlink:href="#DejaVuSans-109"/>
      <use x="224.169922" xlink:href="#DejaVuSans-97"/>
      <use x="285.449219" xlink:href="#DejaVuSans-115"/>
      <use x="337.548828" xlink:href="#DejaVuSans-107"/>
      <use x="395.412109" xlink:href="#DejaVuSans-101"/>
      <use x="456.935547" xlink:href="#DejaVuSans-100"/>
     </g>
    </g>
    <g id="patch_209">
     <path d="M 325.679375 72.748562 
L 345.679375 72.748562 
L 345.679375 65.748562 
L 325.679375 65.748562 
z
" style="fill:#808080;"/>
    </g>
    <g id="text_20">
     <!-- masked -->
     <g transform="translate(353.679375 72.748562)scale(0.1 -0.1)">
      <use xlink:href="#DejaVuSans-109"/>
      <use x="97.412109" xlink:href="#DejaVuSans-97"/>
      <use x="158.691406" xlink:href="#DejaVuSans-115"/>
      <use x="210.791016" xlink:href="#DejaVuSans-107"/>
      <use x="268.654297" xlink:href="#DejaVuSans-101"/>
      <use x="330.177734" xlink:href="#DejaVuSans-100"/>
     </g>
    </g>
   </g>
  </g>
 </g>
 <defs>
  <clipPath id="p2b2d84f3a8">
   <rect height="266.112" width="357.12" x="57.6" y="41.472"/>
  </clipPath>
 </defs>
</svg>
