<?xml version="1.0" encoding="utf-8" standalone="no"?>
<!DOCTYPE svg PUBLIC "-//W3C//DTD SVG 1.1//EN"
  "http://www.w3.org/Graphics/SVG/1.1/DTD/svg11.dtd">
<!-- Created with matplotlib (https://matplotlib.org/) -->
<svg height="345.6pt" version="1.1" viewBox="0 0 460.8 345.6" width="460.8pt" xmlns="http://www.w3.org/2000/svg" xmlns:xlink="http://www.w3.org/1999/xlink">
 <defs>
  <style type="text/css">
*{stroke-linecap:butt;stroke-linejoin:round;}
  </style>
 </defs>
 <g id="figure_1">
  <g id="patch_1">
   <path d="M 0 345.6 
L 460.8 345.6 
L 460.8 0 
L 0 0 
z
" style="fill:#ffffff;"/>
  </g>
  <g id="axes_1">
   <g id="patch_2">
    <path d="M 57.6 307.584 
L 414.72 307.584 
L 414.72 41.472 
L 57.6 41.472 
z
" style="fill:#ffffff;"/>
   </g>
   <g id="patch_3">
    <path clip-path="url(#p51ace111ef)" d="M 133.144613 307.584 
L 135.798039 307.584 
L 135.798039 307.281566 
L 133.144613 307.281566 
z
" style="fill:#0000ff;"/>
   </g>
   <g id="patch_4">
    <path clip-path="url(#p51ace111ef)" d="M 135.798039 307.584 
L 138.451465 307.584 
L 138.451465 307.483189 
L 135.798039 307.483189 
z
" style="fill:#0000ff;"/>
   </g>
   <g id="patch_5">
    <path clip-path="url(#p51ace111ef)" d="M 138.451465 307.584 
L 141.104892 307.584 
L 141.104892 307.584 
L 138.451465 307.584 
z
" style="fill:#0000ff;"/>
   </g>
   <g id="patch_6">
    <path clip-path="url(#p51ace111ef)" d="M 141.104892 307.584 
L 143.758319 307.584 
L 143.758319 307.483189 
L 141.104892 307.483189 
z
" style="fill:#0000ff;"/>
   </g>
   <g id="patch_7">
    <path clip-path="url(#p51ace111ef)" d="M 143.758319 307.584 
L 146.411746 307.584 
L 146.411746 307.584 
L 143.758319 307.584 
z
" style="fill:#0000ff;"/>
   </g>
   <g id="patch_8">
    <path clip-path="url(#p51ace111ef)" d="M 146.411745 307.584 
L 149.065171 307.584 
L 149.065171 307.483189 
L 146.411745 307.483189 
z
" style="fill:#0000ff;"/>
   </g>
   <g id="patch_9">
    <path clip-path="url(#p51ace111ef)" d="M 149.065172 307.584 
L 151.7186 307.584 
L 151.7186 307.382377 
L 149.065172 307.382377 
z
" style="fill:#0000ff;"/>
   </g>
   <g id="patch_10">
    <path clip-path="url(#p51ace111ef)" d="M 151.718598 307.584 
L 154.372024 307.584 
L 154.372024 307.079943 
L 151.718598 307.079943 
z
" style="fill:#0000ff;"/>
   </g>
   <g id="patch_11">
    <path clip-path="url(#p51ace111ef)" d="M 154.372022 307.584 
L 157.025449 307.584 
L 157.025449 307.281566 
L 154.372022 307.281566 
z
" style="fill:#0000ff;"/>
   </g>
   <g id="patch_12">
    <path clip-path="url(#p51ace111ef)" d="M 157.025451 307.584 
L 159.678877 307.584 
L 159.678877 307.483189 
L 157.025451 307.483189 
z
" style="fill:#0000ff;"/>
   </g>
   <g id="patch_13">
    <path clip-path="url(#p51ace111ef)" d="M 159.678877 307.584 
L 162.332303 307.584 
L 162.332303 306.979131 
L 159.678877 306.979131 
z
" style="fill:#0000ff;"/>
   </g>
   <g id="patch_14">
    <path clip-path="url(#p51ace111ef)" d="M 162.332303 307.584 
L 164.98573 307.584 
L 164.98573 307.281566 
L 162.332303 307.281566 
z
" style="fill:#0000ff;"/>
   </g>
   <g id="patch_15">
    <path clip-path="url(#p51ace111ef)" d="M 164.985728 307.584 
L 167.639158 307.584 
L 167.639158 307.180754 
L 164.985728 307.180754 
z
" style="fill:#0000ff;"/>
   </g>
   <g id="patch_16">
    <path clip-path="url(#p51ace111ef)" d="M 167.639158 307.584 
L 170.292583 307.584 
L 170.292583 306.979131 
L 167.639158 306.979131 
z
" style="fill:#0000ff;"/>
   </g>
   <g id="patch_17">
    <path clip-path="url(#p51ace111ef)" d="M 170.29258 307.584 
L 172.946005 307.584 
L 172.946005 306.374263 
L 170.29258 306.374263 
z
" style="fill:#0000ff;"/>
   </g>
   <g id="patch_18">
    <path clip-path="url(#p51ace111ef)" d="M 172.946009 307.584 
L 175.599435 307.584 
L 175.599435 306.777508 
L 172.946009 306.777508 
z
" style="fill:#0000ff;"/>
   </g>
   <g id="patch_19">
    <path clip-path="url(#p51ace111ef)" d="M 175.599431 307.584 
L 178.252856 307.584 
L 178.252856 306.575885 
L 175.599431 306.575885 
z
" style="fill:#0000ff;"/>
   </g>
   <g id="patch_20">
    <path clip-path="url(#p51ace111ef)" d="M 178.25286 307.584 
L 180.90629 307.584 
L 180.90629 307.079943 
L 178.25286 307.079943 
z
" style="fill:#0000ff;"/>
   </g>
   <g id="patch_21">
    <path clip-path="url(#p51ace111ef)" d="M 180.90629 307.584 
L 183.559716 307.584 
L 183.559716 306.17264 
L 180.90629 306.17264 
z
" style="fill:#0000ff;"/>
   </g>
   <g id="patch_22">
    <path clip-path="url(#p51ace111ef)" d="M 183.559712 307.584 
L 186.213137 307.584 
L 186.213137 306.475074 
L 183.559712 306.475074 
z
" style="fill:#0000ff;"/>
   </g>
   <g id="patch_23">
    <path clip-path="url(#p51ace111ef)" d="M 186.213141 307.584 
L 188.866567 307.584 
L 188.866567 306.17264 
L 186.213141 306.17264 
z
" style="fill:#0000ff;"/>
   </g>
   <g id="patch_24">
    <path clip-path="url(#p51ace111ef)" d="M 188.866563 307.584 
L 191.519989 307.584 
L 191.519989 304.559656 
L 188.866563 304.559656 
z
" style="fill:#0000ff;"/>
   </g>
   <g id="patch_25">
    <path clip-path="url(#p51ace111ef)" d="M 191.519993 307.584 
L 194.173422 307.584 
L 194.173422 305.567771 
L 191.519993 305.567771 
z
" style="fill:#0000ff;"/>
   </g>
   <g id="patch_26">
    <path clip-path="url(#p51ace111ef)" d="M 194.173422 307.584 
L 196.826848 307.584 
L 196.826848 304.761279 
L 194.173422 304.761279 
z
" style="fill:#0000ff;"/>
   </g>
   <g id="patch_27">
    <path clip-path="url(#p51ace111ef)" d="M 196.826844 307.584 
L 199.48027 307.584 
L 199.48027 305.567771 
L 196.826844 305.567771 
z
" style="fill:#0000ff;"/>
   </g>
   <g id="patch_28">
    <path clip-path="url(#p51ace111ef)" d="M 199.480274 307.584 
L 202.133703 307.584 
L 202.133703 304.660468 
L 199.480274 304.660468 
z
" style="fill:#0000ff;"/>
   </g>
   <g id="patch_29">
    <path clip-path="url(#p51ace111ef)" d="M 202.133703 307.584 
L 204.787125 307.584 
L 204.787125 304.962902 
L 202.133703 304.962902 
z
" style="fill:#0000ff;"/>
   </g>
   <g id="patch_30">
    <path clip-path="url(#p51ace111ef)" d="M 204.787125 307.584 
L 207.440554 307.584 
L 207.440554 303.349919 
L 204.787125 303.349919 
z
" style="fill:#0000ff;"/>
   </g>
   <g id="patch_31">
    <path clip-path="url(#p51ace111ef)" d="M 207.440562 307.584 
L 210.093984 307.584 
L 210.093984 305.164525 
L 207.440562 305.164525 
z
" style="fill:#0000ff;"/>
   </g>
   <g id="patch_32">
    <path clip-path="url(#p51ace111ef)" d="M 210.093976 307.584 
L 212.747406 307.584 
L 212.747406 302.03937 
L 210.093976 302.03937 
z
" style="fill:#0000ff;"/>
   </g>
   <g id="patch_33">
    <path clip-path="url(#p51ace111ef)" d="M 212.747406 307.584 
L 215.400835 307.584 
L 215.400835 302.543427 
L 212.747406 302.543427 
z
" style="fill:#0000ff;"/>
   </g>
   <g id="patch_34">
    <path clip-path="url(#p51ace111ef)" d="M 215.400835 307.584 
L 218.054257 307.584 
L 218.054257 302.140181 
L 215.400835 302.140181 
z
" style="fill:#0000ff;"/>
   </g>
   <g id="patch_35">
    <path clip-path="url(#p51ace111ef)" d="M 218.054257 307.584 
L 220.707687 307.584 
L 220.707687 300.325575 
L 218.054257 300.325575 
z
" style="fill:#0000ff;"/>
   </g>
   <g id="patch_36">
    <path clip-path="url(#p51ace111ef)" d="M 220.707695 307.584 
L 223.361116 307.584 
L 223.361116 302.341804 
L 220.707695 302.341804 
z
" style="fill:#0000ff;"/>
   </g>
   <g id="patch_37">
    <path clip-path="url(#p51ace111ef)" d="M 223.361108 307.584 
L 226.014538 307.584 
L 226.014538 297.704477 
L 223.361108 297.704477 
z
" style="fill:#0000ff;"/>
   </g>
   <g id="patch_38">
    <path clip-path="url(#p51ace111ef)" d="M 226.014538 307.584 
L 228.667968 307.584 
L 228.667968 300.426387 
L 226.014538 300.426387 
z
" style="fill:#0000ff;"/>
   </g>
   <g id="patch_39">
    <path clip-path="url(#p51ace111ef)" d="M 228.667968 307.584 
L 231.321389 307.584 
L 231.321389 295.184191 
L 228.667968 295.184191 
z
" style="fill:#0000ff;"/>
   </g>
   <g id="patch_40">
    <path clip-path="url(#p51ace111ef)" d="M 231.321389 307.584 
L 233.974819 307.584 
L 233.974819 299.115838 
L 231.321389 299.115838 
z
" style="fill:#0000ff;"/>
   </g>
   <g id="patch_41">
    <path clip-path="url(#p51ace111ef)" d="M 233.974827 307.584 
L 236.628249 307.584 
L 236.628249 293.571208 
L 233.974827 293.571208 
z
" style="fill:#0000ff;"/>
   </g>
   <g id="patch_42">
    <path clip-path="url(#p51ace111ef)" d="M 236.628241 307.584 
L 239.28167 307.584 
L 239.28167 298.107723 
L 236.628241 298.107723 
z
" style="fill:#0000ff;"/>
   </g>
   <g id="patch_43">
    <path clip-path="url(#p51ace111ef)" d="M 239.28167 307.584 
L 241.9351 307.584 
L 241.9351 289.740372 
L 239.28167 289.740372 
z
" style="fill:#0000ff;"/>
   </g>
   <g id="patch_44">
    <path clip-path="url(#p51ace111ef)" d="M 241.9351 307.584 
L 244.588522 307.584 
L 244.588522 288.530635 
L 241.9351 288.530635 
z
" style="fill:#0000ff;"/>
   </g>
   <g id="patch_45">
    <path clip-path="url(#p51ace111ef)" d="M 244.588522 307.584 
L 247.241951 307.584 
L 247.241951 290.748487 
L 244.588522 290.748487 
z
" style="fill:#0000ff;"/>
   </g>
   <g id="patch_46">
    <path clip-path="url(#p51ace111ef)" d="M 247.241959 307.584 
L 249.895381 307.584 
L 249.895381 265.646434 
L 247.241959 265.646434 
z
" style="fill:#0000ff;"/>
   </g>
   <g id="patch_47">
    <path clip-path="url(#p51ace111ef)" d="M 249.895373 307.584 
L 252.548802 307.584 
L 252.548802 255.363666 
L 249.895373 255.363666 
z
" style="fill:#0000ff;"/>
   </g>
   <g id="patch_48">
    <path clip-path="url(#p51ace111ef)" d="M 252.548802 307.584 
L 255.202232 307.584 
L 255.202232 213.728535 
L 252.548802 213.728535 
z
" style="fill:#0000ff;"/>
   </g>
   <g id="patch_49">
    <path clip-path="url(#p51ace111ef)" d="M 255.202232 307.584 
L 257.855654 307.584 
L 257.855654 239.838702 
L 255.202232 239.838702 
z
" style="fill:#0000ff;"/>
   </g>
   <g id="patch_50">
    <path clip-path="url(#p51ace111ef)" d="M 257.855654 307.584 
L 260.509083 307.584 
L 260.509083 198.405193 
L 257.855654 198.405193 
z
" style="fill:#0000ff;"/>
   </g>
   <g id="patch_51">
    <path clip-path="url(#p51ace111ef)" d="M 260.509091 307.584 
L 263.162513 307.584 
L 263.162513 240.746005 
L 260.509091 240.746005 
z
" style="fill:#0000ff;"/>
   </g>
   <g id="patch_52">
    <path clip-path="url(#p51ace111ef)" d="M 263.162505 307.584 
L 265.815935 307.584 
L 265.815935 208.083093 
L 263.162505 208.083093 
z
" style="fill:#0000ff;"/>
   </g>
   <g id="patch_53">
    <path clip-path="url(#p51ace111ef)" d="M 265.815927 307.584 
L 268.469348 307.584 
L 268.469348 226.128344 
L 265.815927 226.128344 
z
" style="fill:#0000ff;"/>
   </g>
   <g id="patch_54">
    <path clip-path="url(#p51ace111ef)" d="M 268.46938 307.584 
L 271.12281 307.584 
L 271.12281 272.804048 
L 268.46938 272.804048 
z
" style="fill:#0000ff;"/>
   </g>
   <g id="patch_55">
    <path clip-path="url(#p51ace111ef)" d="M 271.122794 307.584 
L 273.776208 307.584 
L 273.776208 275.72758 
L 271.122794 275.72758 
z
" style="fill:#0000ff;"/>
   </g>
   <g id="patch_56">
    <path clip-path="url(#p51ace111ef)" d="M 273.776208 307.584 
L 276.429637 307.584 
L 276.429637 290.345241 
L 273.776208 290.345241 
z
" style="fill:#0000ff;"/>
   </g>
   <g id="patch_57">
    <path clip-path="url(#p51ace111ef)" d="M 276.429653 307.584 
L 279.083083 307.584 
L 279.083083 287.119274 
L 276.429653 287.119274 
z
" style="fill:#0000ff;"/>
   </g>
   <g id="patch_58">
    <path clip-path="url(#p51ace111ef)" d="M 279.083067 307.584 
L 281.736497 307.584 
L 281.736497 293.06715 
L 279.083067 293.06715 
z
" style="fill:#0000ff;"/>
   </g>
   <g id="patch_59">
    <path clip-path="url(#p51ace111ef)" d="M 281.736512 307.584 
L 284.389942 307.584 
L 284.389942 288.530635 
L 281.736512 288.530635 
z
" style="fill:#0000ff;"/>
   </g>
   <g id="patch_60">
    <path clip-path="url(#p51ace111ef)" d="M 284.389926 307.584 
L 287.04334 307.584 
L 287.04334 295.385814 
L 284.389926 295.385814 
z
" style="fill:#0000ff;"/>
   </g>
   <g id="patch_61">
    <path clip-path="url(#p51ace111ef)" d="M 287.04334 307.584 
L 289.696769 307.584 
L 289.696769 293.06715 
L 287.04334 293.06715 
z
" style="fill:#0000ff;"/>
   </g>
   <g id="patch_62">
    <path clip-path="url(#p51ace111ef)" d="M 289.696785 307.584 
L 292.350215 307.584 
L 292.350215 299.619895 
L 289.696785 299.619895 
z
" style="fill:#0000ff;"/>
   </g>
   <g id="patch_63">
    <path clip-path="url(#p51ace111ef)" d="M 292.350199 307.584 
L 295.003629 307.584 
L 295.003629 296.696363 
L 292.350199 296.696363 
z
" style="fill:#0000ff;"/>
   </g>
   <g id="patch_64">
    <path clip-path="url(#p51ace111ef)" d="M 295.003645 307.584 
L 297.657074 307.584 
L 297.657074 298.410158 
L 295.003645 298.410158 
z
" style="fill:#0000ff;"/>
   </g>
   <g id="patch_65">
    <path clip-path="url(#p51ace111ef)" d="M 297.657058 307.584 
L 300.310472 307.584 
L 300.310472 302.543427 
L 297.657058 302.543427 
z
" style="fill:#0000ff;"/>
   </g>
   <g id="patch_66">
    <path clip-path="url(#p51ace111ef)" d="M 300.310472 307.584 
L 302.963902 307.584 
L 302.963902 301.031255 
L 300.310472 301.031255 
z
" style="fill:#0000ff;"/>
   </g>
   <g id="patch_67">
    <path clip-path="url(#p51ace111ef)" d="M 302.963918 307.584 
L 305.617347 307.584 
L 305.617347 304.559656 
L 302.963918 304.559656 
z
" style="fill:#0000ff;"/>
   </g>
   <g id="patch_68">
    <path clip-path="url(#p51ace111ef)" d="M 305.617331 307.584 
L 308.270761 307.584 
L 308.270761 302.644239 
L 305.617331 302.644239 
z
" style="fill:#0000ff;"/>
   </g>
   <g id="patch_69">
    <path clip-path="url(#p51ace111ef)" d="M 308.270777 307.584 
L 310.924206 307.584 
L 310.924206 304.962902 
L 308.270777 304.962902 
z
" style="fill:#0000ff;"/>
   </g>
   <g id="patch_70">
    <path clip-path="url(#p51ace111ef)" d="M 310.924191 307.584 
L 313.577604 307.584 
L 313.577604 305.366148 
L 310.924191 305.366148 
z
" style="fill:#0000ff;"/>
   </g>
   <g id="patch_71">
    <path clip-path="url(#p51ace111ef)" d="M 313.577604 307.584 
L 316.231034 307.584 
L 316.231034 305.567771 
L 313.577604 305.567771 
z
" style="fill:#0000ff;"/>
   </g>
   <g id="patch_72">
    <path clip-path="url(#p51ace111ef)" d="M 316.23105 307.584 
L 318.884479 307.584 
L 318.884479 306.273451 
L 316.23105 306.273451 
z
" style="fill:#0000ff;"/>
   </g>
   <g id="patch_73">
    <path clip-path="url(#p51ace111ef)" d="M 318.884464 307.584 
L 321.537893 307.584 
L 321.537893 306.17264 
L 318.884464 306.17264 
z
" style="fill:#0000ff;"/>
   </g>
   <g id="patch_74">
    <path clip-path="url(#p51ace111ef)" d="M 321.537909 307.584 
L 324.191339 307.584 
L 324.191339 306.87832 
L 321.537909 306.87832 
z
" style="fill:#0000ff;"/>
   </g>
   <g id="patch_75">
    <path clip-path="url(#p51ace111ef)" d="M 324.191323 307.584 
L 326.844737 307.584 
L 326.844737 306.676697 
L 324.191323 306.676697 
z
" style="fill:#0000ff;"/>
   </g>
   <g id="patch_76">
    <path clip-path="url(#p51ace111ef)" d="M 326.844737 307.584 
L 329.498166 307.584 
L 329.498166 307.281566 
L 326.844737 307.281566 
z
" style="fill:#0000ff;"/>
   </g>
   <g id="patch_77">
    <path clip-path="url(#p51ace111ef)" d="M 329.498182 307.584 
L 332.151612 307.584 
L 332.151612 306.676697 
L 329.498182 306.676697 
z
" style="fill:#0000ff;"/>
   </g>
   <g id="patch_78">
    <path clip-path="url(#p51ace111ef)" d="M 332.151596 307.584 
L 334.805025 307.584 
L 334.805025 307.281566 
L 332.151596 307.281566 
z
" style="fill:#0000ff;"/>
   </g>
   <g id="patch_79">
    <path clip-path="url(#p51ace111ef)" d="M 334.805041 307.584 
L 337.458471 307.584 
L 337.458471 307.180754 
L 334.805041 307.180754 
z
" style="fill:#0000ff;"/>
   </g>
   <g id="patch_80">
    <path clip-path="url(#p51ace111ef)" d="M 337.458455 307.584 
L 340.111869 307.584 
L 340.111869 307.382377 
L 337.458455 307.382377 
z
" style="fill:#0000ff;"/>
   </g>
   <g id="patch_81">
    <path clip-path="url(#p51ace111ef)" d="M 340.111869 307.584 
L 342.765298 307.584 
L 342.765298 307.483189 
L 340.111869 307.483189 
z
" style="fill:#0000ff;"/>
   </g>
   <g id="patch_82">
    <path clip-path="url(#p51ace111ef)" d="M 342.765314 307.584 
L 345.418744 307.584 
L 345.418744 307.382377 
L 342.765314 307.382377 
z
" style="fill:#0000ff;"/>
   </g>
   <g id="patch_83">
    <path clip-path="url(#p51ace111ef)" d="M 345.418728 307.584 
L 348.072158 307.584 
L 348.072158 307.382377 
L 345.418728 307.382377 
z
" style="fill:#0000ff;"/>
   </g>
   <g id="patch_84">
    <path clip-path="url(#p51ace111ef)" d="M 348.072173 307.584 
L 350.725603 307.584 
L 350.725603 307.584 
L 348.072173 307.584 
z
" style="fill:#0000ff;"/>
   </g>
   <g id="patch_85">
    <path clip-path="url(#p51ace111ef)" d="M 350.725587 307.584 
L 353.379001 307.584 
L 353.379001 307.584 
L 350.725587 307.584 
z
" style="fill:#0000ff;"/>
   </g>
   <g id="patch_86">
    <path clip-path="url(#p51ace111ef)" d="M 353.379001 307.584 
L 356.032431 307.584 
L 356.032431 307.483189 
L 353.379001 307.483189 
z
" style="fill:#0000ff;"/>
   </g>
   <g id="patch_87">
    <path clip-path="url(#p51ace111ef)" d="M 356.032446 307.584 
L 358.685876 307.584 
L 358.685876 307.584 
L 356.032446 307.584 
z
" style="fill:#0000ff;"/>
   </g>
   <g id="patch_88">
    <path clip-path="url(#p51ace111ef)" d="M 358.68586 307.584 
L 361.33929 307.584 
L 361.33929 307.584 
L 358.68586 307.584 
z
" style="fill:#0000ff;"/>
   </g>
   <g id="patch_89">
    <path clip-path="url(#p51ace111ef)" d="M 361.339306 307.584 
L 363.992735 307.584 
L 363.992735 307.483189 
L 361.339306 307.483189 
z
" style="fill:#0000ff;"/>
   </g>
   <g id="patch_90">
    <path clip-path="url(#p51ace111ef)" d="M 363.992719 307.584 
L 366.646133 307.584 
L 366.646133 307.584 
L 363.992719 307.584 
z
" style="fill:#0000ff;"/>
   </g>
   <g id="patch_91">
    <path clip-path="url(#p51ace111ef)" d="M 366.646133 307.584 
L 369.299563 307.584 
L 369.299563 307.584 
L 366.646133 307.584 
z
" style="fill:#0000ff;"/>
   </g>
   <g id="patch_92">
    <path clip-path="url(#p51ace111ef)" d="M 369.299579 307.584 
L 371.953008 307.584 
L 371.953008 307.584 
L 369.299579 307.584 
z
" style="fill:#0000ff;"/>
   </g>
   <g id="patch_93">
    <path clip-path="url(#p51ace111ef)" d="M 371.952992 307.584 
L 374.606422 307.584 
L 374.606422 307.483189 
L 371.952992 307.483189 
z
" style="fill:#0000ff;"/>
   </g>
   <g id="patch_94">
    <path clip-path="url(#p51ace111ef)" d="M 374.606438 307.584 
L 377.259868 307.584 
L 377.259868 307.483189 
L 374.606438 307.483189 
z
" style="fill:#0000ff;"/>
   </g>
   <g id="patch_95">
    <path clip-path="url(#p51ace111ef)" d="M 377.259852 307.584 
L 379.913265 307.584 
L 379.913265 307.483189 
L 377.259852 307.483189 
z
" style="fill:#0000ff;"/>
   </g>
   <g id="patch_96">
    <path clip-path="url(#p51ace111ef)" d="M 379.913265 307.584 
L 382.566695 307.584 
L 382.566695 307.584 
L 379.913265 307.584 
z
" style="fill:#0000ff;"/>
   </g>
   <g id="patch_97">
    <path clip-path="url(#p51ace111ef)" d="M 382.566711 307.584 
L 385.220141 307.584 
L 385.220141 307.584 
L 382.566711 307.584 
z
" style="fill:#0000ff;"/>
   </g>
   <g id="patch_98">
    <path clip-path="url(#p51ace111ef)" d="M 385.220125 307.584 
L 387.873554 307.584 
L 387.873554 307.584 
L 385.220125 307.584 
z
" style="fill:#0000ff;"/>
   </g>
   <g id="patch_99">
    <path clip-path="url(#p51ace111ef)" d="M 387.87357 307.584 
L 390.527 307.584 
L 390.527 307.584 
L 387.87357 307.584 
z
" style="fill:#0000ff;"/>
   </g>
   <g id="patch_100">
    <path clip-path="url(#p51ace111ef)" d="M 390.526984 307.584 
L 393.180398 307.584 
L 393.180398 307.584 
L 390.526984 307.584 
z
" style="fill:#0000ff;"/>
   </g>
   <g id="patch_101">
    <path clip-path="url(#p51ace111ef)" d="M 393.180398 307.584 
L 395.833827 307.584 
L 395.833827 307.584 
L 393.180398 307.584 
z
" style="fill:#0000ff;"/>
   </g>
   <g id="patch_102">
    <path clip-path="url(#p51ace111ef)" d="M 395.833843 307.584 
L 398.487273 307.584 
L 398.487273 307.483189 
L 395.833843 307.483189 
z
" style="fill:#0000ff;"/>
   </g>
   <g id="patch_103">
    <path clip-path="url(#p51ace111ef)" d="M 73.832727 307.584 
L 75.070992 307.584 
L 75.070992 307.281566 
L 73.832727 307.281566 
z
" style="fill:#808080;"/>
   </g>
   <g id="patch_104">
    <path clip-path="url(#p51ace111ef)" d="M 75.070992 307.584 
L 76.30926 307.584 
L 76.30926 307.483189 
L 75.070992 307.483189 
z
" style="fill:#808080;"/>
   </g>
   <g id="patch_105">
    <path clip-path="url(#p51ace111ef)" d="M 76.309256 307.584 
L 77.54752 307.584 
L 77.54752 307.584 
L 76.309256 307.584 
z
" style="fill:#808080;"/>
   </g>
   <g id="patch_106">
    <path clip-path="url(#p51ace111ef)" d="M 77.547524 307.584 
L 78.785788 307.584 
L 78.785788 307.584 
L 77.547524 307.584 
z
" style="fill:#808080;"/>
   </g>
   <g id="patch_107">
    <path clip-path="url(#p51ace111ef)" d="M 78.785788 307.584 
L 80.024056 307.584 
L 80.024056 307.483189 
L 78.785788 307.483189 
z
" style="fill:#808080;"/>
   </g>
   <g id="patch_108">
    <path clip-path="url(#p51ace111ef)" d="M 80.024052 307.584 
L 81.262317 307.584 
L 81.262317 307.483189 
L 80.024052 307.483189 
z
" style="fill:#808080;"/>
   </g>
   <g id="patch_109">
    <path clip-path="url(#p51ace111ef)" d="M 81.262321 307.584 
L 82.500589 307.584 
L 82.500589 307.584 
L 81.262321 307.584 
z
" style="fill:#808080;"/>
   </g>
   <g id="patch_110">
    <path clip-path="url(#p51ace111ef)" d="M 82.500589 307.584 
L 83.738853 307.584 
L 83.738853 307.584 
L 82.500589 307.584 
z
" style="fill:#808080;"/>
   </g>
   <g id="patch_111">
    <path clip-path="url(#p51ace111ef)" d="M 83.738849 307.584 
L 84.977113 307.584 
L 84.977113 307.584 
L 83.738849 307.584 
z
" style="fill:#808080;"/>
   </g>
   <g id="patch_112">
    <path clip-path="url(#p51ace111ef)" d="M 84.977117 307.584 
L 86.215386 307.584 
L 86.215386 307.584 
L 84.977117 307.584 
z
" style="fill:#808080;"/>
   </g>
   <g id="patch_113">
    <path clip-path="url(#p51ace111ef)" d="M 86.215386 307.584 
L 87.45365 307.584 
L 87.45365 307.584 
L 86.215386 307.584 
z
" style="fill:#808080;"/>
   </g>
   <g id="patch_114">
    <path clip-path="url(#p51ace111ef)" d="M 87.453646 307.584 
L 88.69191 307.584 
L 88.69191 307.584 
L 87.453646 307.584 
z
" style="fill:#808080;"/>
   </g>
   <g id="patch_115">
    <path clip-path="url(#p51ace111ef)" d="M 88.691914 307.584 
L 89.930182 307.584 
L 89.930182 307.584 
L 88.691914 307.584 
z
" style="fill:#808080;"/>
   </g>
   <g id="patch_116">
    <path clip-path="url(#p51ace111ef)" d="M 89.930182 307.584 
L 91.168447 307.584 
L 91.168447 305.466959 
L 89.930182 305.466959 
z
" style="fill:#808080;"/>
   </g>
   <g id="patch_117">
    <path clip-path="url(#p51ace111ef)" d="M 91.168443 307.584 
L 92.406707 307.584 
L 92.406707 306.575885 
L 91.168443 306.575885 
z
" style="fill:#808080;"/>
   </g>
   <g id="patch_118">
    <path clip-path="url(#p51ace111ef)" d="M 92.406711 307.584 
L 93.644979 307.584 
L 93.644979 305.265337 
L 92.406711 305.265337 
z
" style="fill:#808080;"/>
   </g>
   <g id="patch_119">
    <path clip-path="url(#p51ace111ef)" d="M 93.644979 307.584 
L 94.883243 307.584 
L 94.883243 306.87832 
L 93.644979 306.87832 
z
" style="fill:#808080;"/>
   </g>
   <g id="patch_120">
    <path clip-path="url(#p51ace111ef)" d="M 94.883239 307.584 
L 96.121504 307.584 
L 96.121504 307.180754 
L 94.883239 307.180754 
z
" style="fill:#808080;"/>
   </g>
   <g id="patch_121">
    <path clip-path="url(#p51ace111ef)" d="M 96.121507 307.584 
L 97.359776 307.584 
L 97.359776 306.17264 
L 96.121507 306.17264 
z
" style="fill:#808080;"/>
   </g>
   <g id="patch_122">
    <path clip-path="url(#p51ace111ef)" d="M 97.359776 307.584 
L 98.59804 307.584 
L 98.59804 306.87832 
L 97.359776 306.87832 
z
" style="fill:#808080;"/>
   </g>
   <g id="patch_123">
    <path clip-path="url(#p51ace111ef)" d="M 98.59804 307.584 
L 99.836308 307.584 
L 99.836308 307.584 
L 98.59804 307.584 
z
" style="fill:#808080;"/>
   </g>
   <g id="patch_124">
    <path clip-path="url(#p51ace111ef)" d="M 99.836308 307.584 
L 101.074572 307.584 
L 101.074572 307.584 
L 99.836308 307.584 
z
" style="fill:#808080;"/>
   </g>
   <g id="patch_125">
    <path clip-path="url(#p51ace111ef)" d="M 101.074572 307.584 
L 102.312841 307.584 
L 102.312841 307.584 
L 101.074572 307.584 
z
" style="fill:#808080;"/>
   </g>
   <g id="patch_126">
    <path clip-path="url(#p51ace111ef)" d="M 102.312839 307.584 
L 103.551103 307.584 
L 103.551103 307.584 
L 102.312839 307.584 
z
" style="fill:#808080;"/>
   </g>
   <g id="patch_127">
    <path clip-path="url(#p51ace111ef)" d="M 103.551101 307.584 
L 104.789369 307.584 
L 104.789369 307.584 
L 103.551101 307.584 
z
" style="fill:#808080;"/>
   </g>
   <g id="patch_128">
    <path clip-path="url(#p51ace111ef)" d="M 104.789369 307.584 
L 106.027637 307.584 
L 106.027637 307.584 
L 104.789369 307.584 
z
" style="fill:#808080;"/>
   </g>
   <g id="patch_129">
    <path clip-path="url(#p51ace111ef)" d="M 106.027635 307.584 
L 107.2659 307.584 
L 107.2659 294.780945 
L 106.027635 294.780945 
z
" style="fill:#808080;"/>
   </g>
   <g id="patch_130">
    <path clip-path="url(#p51ace111ef)" d="M 107.265898 307.584 
L 108.504166 307.584 
L 108.504166 303.652353 
L 107.265898 303.652353 
z
" style="fill:#808080;"/>
   </g>
   <g id="patch_131">
    <path clip-path="url(#p51ace111ef)" d="M 108.504166 307.584 
L 109.742434 307.584 
L 109.742434 302.74505 
L 108.504166 302.74505 
z
" style="fill:#808080;"/>
   </g>
   <g id="patch_132">
    <path clip-path="url(#p51ace111ef)" d="M 109.74243 307.584 
L 110.980698 307.584 
L 110.980698 300.930444 
L 109.74243 300.930444 
z
" style="fill:#808080;"/>
   </g>
   <g id="patch_133">
    <path clip-path="url(#p51ace111ef)" d="M 110.980698 307.584 
L 112.218963 307.584 
L 112.218963 303.551542 
L 110.980698 303.551542 
z
" style="fill:#808080;"/>
   </g>
   <g id="patch_134">
    <path clip-path="url(#p51ace111ef)" d="M 112.218963 307.584 
L 113.457231 307.584 
L 113.457231 298.107723 
L 112.218963 298.107723 
z
" style="fill:#808080;"/>
   </g>
   <g id="patch_135">
    <path clip-path="url(#p51ace111ef)" d="M 113.457227 307.584 
L 114.695495 307.584 
L 114.695495 302.140181 
L 113.457227 302.140181 
z
" style="fill:#808080;"/>
   </g>
   <g id="patch_136">
    <path clip-path="url(#p51ace111ef)" d="M 114.695495 307.584 
L 115.933759 307.584 
L 115.933759 307.584 
L 114.695495 307.584 
z
" style="fill:#808080;"/>
   </g>
   <g id="patch_137">
    <path clip-path="url(#p51ace111ef)" d="M 115.933759 307.584 
L 117.172027 307.584 
L 117.172027 307.584 
L 115.933759 307.584 
z
" style="fill:#808080;"/>
   </g>
   <g id="patch_138">
    <path clip-path="url(#p51ace111ef)" d="M 117.172024 307.584 
L 118.410293 307.584 
L 118.410293 307.584 
L 117.172024 307.584 
z
" style="fill:#808080;"/>
   </g>
   <g id="patch_139">
    <path clip-path="url(#p51ace111ef)" d="M 118.410292 307.584 
L 119.648556 307.584 
L 119.648556 307.584 
L 118.410292 307.584 
z
" style="fill:#808080;"/>
   </g>
   <g id="patch_140">
    <path clip-path="url(#p51ace111ef)" d="M 119.648556 307.584 
L 120.886824 307.584 
L 120.886824 307.584 
L 119.648556 307.584 
z
" style="fill:#808080;"/>
   </g>
   <g id="patch_141">
    <path clip-path="url(#p51ace111ef)" d="M 120.886824 307.584 
L 122.125088 307.584 
L 122.125088 307.584 
L 120.886824 307.584 
z
" style="fill:#808080;"/>
   </g>
   <g id="patch_142">
    <path clip-path="url(#p51ace111ef)" d="M 122.125087 307.584 
L 123.363356 307.584 
L 123.363356 307.584 
L 122.125087 307.584 
z
" style="fill:#808080;"/>
   </g>
   <g id="patch_143">
    <path clip-path="url(#p51ace111ef)" d="M 123.363355 307.584 
L 124.601619 307.584 
L 124.601619 249.919847 
L 123.363355 249.919847 
z
" style="fill:#808080;"/>
   </g>
   <g id="patch_144">
    <path clip-path="url(#p51ace111ef)" d="M 124.601621 307.584 
L 125.839885 307.584 
L 125.839885 287.320897 
L 124.601621 287.320897 
z
" style="fill:#808080;"/>
   </g>
   <g id="patch_145">
    <path clip-path="url(#p51ace111ef)" d="M 125.839886 307.584 
L 127.07815 307.584 
L 127.07815 256.270969 
L 125.839886 256.270969 
z
" style="fill:#808080;"/>
   </g>
   <g id="patch_146">
    <path clip-path="url(#p51ace111ef)" d="M 127.078152 307.584 
L 128.316417 307.584 
L 128.316417 277.038129 
L 127.078152 277.038129 
z
" style="fill:#808080;"/>
   </g>
   <g id="patch_147">
    <path clip-path="url(#p51ace111ef)" d="M 128.316418 307.584 
L 129.554682 307.584 
L 129.554682 252.843379 
L 128.316418 252.843379 
z
" style="fill:#808080;"/>
   </g>
   <g id="patch_148">
    <path clip-path="url(#p51ace111ef)" d="M 129.554683 307.584 
L 130.792948 307.584 
L 130.792948 242.258177 
L 129.554683 242.258177 
z
" style="fill:#808080;"/>
   </g>
   <g id="patch_149">
    <path clip-path="url(#p51ace111ef)" d="M 130.792949 307.584 
L 132.031213 307.584 
L 132.031213 238.225718 
L 130.792949 238.225718 
z
" style="fill:#808080;"/>
   </g>
   <g id="patch_150">
    <path clip-path="url(#p51ace111ef)" d="M 132.031215 307.584 
L 133.269479 307.584 
L 133.269479 307.584 
L 132.031215 307.584 
z
" style="fill:#808080;"/>
   </g>
   <g id="patch_151">
    <path clip-path="url(#p51ace111ef)" d="M 133.26948 307.584 
L 134.507744 307.584 
L 134.507744 307.584 
L 133.26948 307.584 
z
" style="fill:#808080;"/>
   </g>
   <g id="patch_152">
    <path clip-path="url(#p51ace111ef)" d="M 134.507746 307.584 
L 135.74601 307.584 
L 135.74601 307.584 
L 134.507746 307.584 
z
" style="fill:#808080;"/>
   </g>
   <g id="patch_153">
    <path clip-path="url(#p51ace111ef)" d="M 135.746012 307.584 
L 136.984276 307.584 
L 136.984276 307.584 
L 135.746012 307.584 
z
" style="fill:#808080;"/>
   </g>
   <g id="patch_154">
    <path clip-path="url(#p51ace111ef)" d="M 136.984277 307.584 
L 138.222541 307.584 
L 138.222541 307.584 
L 136.984277 307.584 
z
" style="fill:#808080;"/>
   </g>
   <g id="patch_155">
    <path clip-path="url(#p51ace111ef)" d="M 138.222543 307.584 
L 139.460808 307.584 
L 139.460808 307.584 
L 138.222543 307.584 
z
" style="fill:#808080;"/>
   </g>
   <g id="patch_156">
    <path clip-path="url(#p51ace111ef)" d="M 139.460809 307.584 
L 140.699073 307.584 
L 140.699073 54.144 
L 139.460809 54.144 
z
" style="fill:#808080;"/>
   </g>
   <g id="patch_157">
    <path clip-path="url(#p51ace111ef)" d="M 140.699074 307.584 
L 141.937338 307.584 
L 141.937338 217.760993 
L 140.699074 217.760993 
z
" style="fill:#808080;"/>
   </g>
   <g id="patch_158">
    <path clip-path="url(#p51ace111ef)" d="M 141.937338 307.584 
L 143.175606 307.584 
L 143.175606 217.861804 
L 141.937338 217.861804 
z
" style="fill:#808080;"/>
   </g>
   <g id="patch_159">
    <path clip-path="url(#p51ace111ef)" d="M 143.175606 307.584 
L 144.413871 307.584 
L 144.413871 225.221041 
L 143.175606 225.221041 
z
" style="fill:#808080;"/>
   </g>
   <g id="patch_160">
    <path clip-path="url(#p51ace111ef)" d="M 144.41387 307.584 
L 145.652138 307.584 
L 145.652138 281.675456 
L 144.41387 281.675456 
z
" style="fill:#808080;"/>
   </g>
   <g id="patch_161">
    <path clip-path="url(#p51ace111ef)" d="M 145.652137 307.584 
L 146.890401 307.584 
L 146.890401 297.502854 
L 145.652137 297.502854 
z
" style="fill:#808080;"/>
   </g>
   <g id="patch_162">
    <path clip-path="url(#p51ace111ef)" d="M 146.890403 307.584 
L 148.128667 307.584 
L 148.128667 300.023141 
L 146.890403 300.023141 
z
" style="fill:#808080;"/>
   </g>
   <g id="patch_163">
    <path clip-path="url(#p51ace111ef)" d="M 148.128666 307.584 
L 149.366935 307.584 
L 149.366935 307.584 
L 148.128666 307.584 
z
" style="fill:#808080;"/>
   </g>
   <g id="patch_164">
    <path clip-path="url(#p51ace111ef)" d="M 149.366934 307.584 
L 150.605202 307.584 
L 150.605202 307.584 
L 149.366934 307.584 
z
" style="fill:#808080;"/>
   </g>
   <g id="patch_165">
    <path clip-path="url(#p51ace111ef)" d="M 150.6052 307.584 
L 151.843464 307.584 
L 151.843464 307.584 
L 150.6052 307.584 
z
" style="fill:#808080;"/>
   </g>
   <g id="patch_166">
    <path clip-path="url(#p51ace111ef)" d="M 151.843462 307.584 
L 153.08173 307.584 
L 153.08173 307.584 
L 151.843462 307.584 
z
" style="fill:#808080;"/>
   </g>
   <g id="patch_167">
    <path clip-path="url(#p51ace111ef)" d="M 153.08173 307.584 
L 154.319998 307.584 
L 154.319998 307.584 
L 153.08173 307.584 
z
" style="fill:#808080;"/>
   </g>
   <g id="patch_168">
    <path clip-path="url(#p51ace111ef)" d="M 154.319994 307.584 
L 155.558263 307.584 
L 155.558263 307.584 
L 154.319994 307.584 
z
" style="fill:#808080;"/>
   </g>
   <g id="patch_169">
    <path clip-path="url(#p51ace111ef)" d="M 155.558263 307.584 
L 156.796527 307.584 
L 156.796527 307.584 
L 155.558263 307.584 
z
" style="fill:#808080;"/>
   </g>
   <g id="patch_170">
    <path clip-path="url(#p51ace111ef)" d="M 156.796527 307.584 
L 158.034795 307.584 
L 158.034795 284.901422 
L 156.796527 284.901422 
z
" style="fill:#808080;"/>
   </g>
   <g id="patch_171">
    <path clip-path="url(#p51ace111ef)" d="M 158.034791 307.584 
L 159.273059 307.584 
L 159.273059 291.151733 
L 158.034791 291.151733 
z
" style="fill:#808080;"/>
   </g>
   <g id="patch_172">
    <path clip-path="url(#p51ace111ef)" d="M 159.273059 307.584 
L 160.511324 307.584 
L 160.511324 301.33369 
L 159.273059 301.33369 
z
" style="fill:#808080;"/>
   </g>
   <g id="patch_173">
    <path clip-path="url(#p51ace111ef)" d="M 160.511324 307.584 
L 161.749592 307.584 
L 161.749592 306.575885 
L 160.511324 306.575885 
z
" style="fill:#808080;"/>
   </g>
   <g id="patch_174">
    <path clip-path="url(#p51ace111ef)" d="M 161.749588 307.584 
L 162.987856 307.584 
L 162.987856 306.575885 
L 161.749588 306.575885 
z
" style="fill:#808080;"/>
   </g>
   <g id="patch_175">
    <path clip-path="url(#p51ace111ef)" d="M 162.987856 307.584 
L 164.226124 307.584 
L 164.226124 306.979131 
L 162.987856 306.979131 
z
" style="fill:#808080;"/>
   </g>
   <g id="patch_176">
    <path clip-path="url(#p51ace111ef)" d="M 164.226122 307.584 
L 165.464387 307.584 
L 165.464387 307.180754 
L 164.226122 307.180754 
z
" style="fill:#808080;"/>
   </g>
   <g id="patch_177">
    <path clip-path="url(#p51ace111ef)" d="M 165.464385 307.584 
L 166.702653 307.584 
L 166.702653 307.584 
L 165.464385 307.584 
z
" style="fill:#808080;"/>
   </g>
   <g id="patch_178">
    <path clip-path="url(#p51ace111ef)" d="M 166.702653 307.584 
L 167.940917 307.584 
L 167.940917 307.584 
L 166.702653 307.584 
z
" style="fill:#808080;"/>
   </g>
   <g id="patch_179">
    <path clip-path="url(#p51ace111ef)" d="M 167.940917 307.584 
L 169.179185 307.584 
L 169.179185 307.584 
L 167.940917 307.584 
z
" style="fill:#808080;"/>
   </g>
   <g id="patch_180">
    <path clip-path="url(#p51ace111ef)" d="M 169.179181 307.584 
L 170.417446 307.584 
L 170.417446 307.584 
L 169.179181 307.584 
z
" style="fill:#808080;"/>
   </g>
   <g id="patch_181">
    <path clip-path="url(#p51ace111ef)" d="M 170.41745 307.584 
L 171.655714 307.584 
L 171.655714 307.584 
L 170.41745 307.584 
z
" style="fill:#808080;"/>
   </g>
   <g id="patch_182">
    <path clip-path="url(#p51ace111ef)" d="M 171.655714 307.584 
L 172.893982 307.584 
L 172.893982 307.584 
L 171.655714 307.584 
z
" style="fill:#808080;"/>
   </g>
   <g id="patch_183">
    <path clip-path="url(#p51ace111ef)" d="M 172.893978 307.584 
L 174.132242 307.584 
L 174.132242 306.071828 
L 172.893978 306.071828 
z
" style="fill:#808080;"/>
   </g>
   <g id="patch_184">
    <path clip-path="url(#p51ace111ef)" d="M 174.132246 307.584 
L 175.370514 307.584 
L 175.370514 307.079943 
L 174.132246 307.079943 
z
" style="fill:#808080;"/>
   </g>
   <g id="patch_185">
    <path clip-path="url(#p51ace111ef)" d="M 175.370514 307.584 
L 176.608779 307.584 
L 176.608779 307.281566 
L 175.370514 307.281566 
z
" style="fill:#808080;"/>
   </g>
   <g id="patch_186">
    <path clip-path="url(#p51ace111ef)" d="M 176.608775 307.584 
L 177.847039 307.584 
L 177.847039 307.180754 
L 176.608775 307.180754 
z
" style="fill:#808080;"/>
   </g>
   <g id="patch_187">
    <path clip-path="url(#p51ace111ef)" d="M 177.847043 307.584 
L 179.085311 307.584 
L 179.085311 307.584 
L 177.847043 307.584 
z
" style="fill:#808080;"/>
   </g>
   <g id="patch_188">
    <path clip-path="url(#p51ace111ef)" d="M 179.085311 307.584 
L 180.323575 307.584 
L 180.323575 307.584 
L 179.085311 307.584 
z
" style="fill:#808080;"/>
   </g>
   <g id="patch_189">
    <path clip-path="url(#p51ace111ef)" d="M 180.323571 307.584 
L 181.561836 307.584 
L 181.561836 307.483189 
L 180.323571 307.483189 
z
" style="fill:#808080;"/>
   </g>
   <g id="patch_190">
    <path clip-path="url(#p51ace111ef)" d="M 181.56184 307.584 
L 182.800108 307.584 
L 182.800108 307.584 
L 181.56184 307.584 
z
" style="fill:#808080;"/>
   </g>
   <g id="patch_191">
    <path clip-path="url(#p51ace111ef)" d="M 182.800108 307.584 
L 184.038372 307.584 
L 184.038372 307.584 
L 182.800108 307.584 
z
" style="fill:#808080;"/>
   </g>
   <g id="patch_192">
    <path clip-path="url(#p51ace111ef)" d="M 184.038368 307.584 
L 185.276632 307.584 
L 185.276632 307.584 
L 184.038368 307.584 
z
" style="fill:#808080;"/>
   </g>
   <g id="patch_193">
    <path clip-path="url(#p51ace111ef)" d="M 185.276636 307.584 
L 186.514905 307.584 
L 186.514905 307.584 
L 185.276636 307.584 
z
" style="fill:#808080;"/>
   </g>
   <g id="patch_194">
    <path clip-path="url(#p51ace111ef)" d="M 186.514905 307.584 
L 187.753169 307.584 
L 187.753169 307.584 
L 186.514905 307.584 
z
" style="fill:#808080;"/>
   </g>
   <g id="patch_195">
    <path clip-path="url(#p51ace111ef)" d="M 187.753165 307.584 
L 188.991429 307.584 
L 188.991429 307.584 
L 187.753165 307.584 
z
" style="fill:#808080;"/>
   </g>
   <g id="patch_196">
    <path clip-path="url(#p51ace111ef)" d="M 188.991433 307.584 
L 190.229701 307.584 
L 190.229701 307.584 
L 188.991433 307.584 
z
" style="fill:#808080;"/>
   </g>
   <g id="patch_197">
    <path clip-path="url(#p51ace111ef)" d="M 190.229701 307.584 
L 191.467965 307.584 
L 191.467965 307.382377 
L 190.229701 307.382377 
z
" style="fill:#808080;"/>
   </g>
   <g id="patch_198">
    <path clip-path="url(#p51ace111ef)" d="M 191.467965 307.584 
L 192.706234 307.584 
L 192.706234 307.584 
L 191.467965 307.584 
z
" style="fill:#808080;"/>
   </g>
   <g id="patch_199">
    <path clip-path="url(#p51ace111ef)" d="M 192.70623 307.584 
L 193.944494 307.584 
L 193.944494 307.483189 
L 192.70623 307.483189 
z
" style="fill:#808080;"/>
   </g>
   <g id="patch_200">
    <path clip-path="url(#p51ace111ef)" d="M 193.944498 307.584 
L 195.182762 307.584 
L 195.182762 307.584 
L 193.944498 307.584 
z
" style="fill:#808080;"/>
   </g>
   <g id="patch_201">
    <path clip-path="url(#p51ace111ef)" d="M 195.182762 307.584 
L 196.42103 307.584 
L 196.42103 307.584 
L 195.182762 307.584 
z
" style="fill:#808080;"/>
   </g>
   <g id="patch_202">
    <path clip-path="url(#p51ace111ef)" d="M 196.421026 307.584 
L 197.659291 307.584 
L 197.659291 307.483189 
L 196.421026 307.483189 
z
" style="fill:#808080;"/>
   </g>
   <g id="matplotlib.axis_1">
    <g id="xtick_1">
     <g id="line2d_1">
      <defs>
       <path d="M 0 0 
L 0 3.5 
" id="mf02be22e44" style="stroke:#000000;stroke-width:0.8;"/>
      </defs>
      <g>
       <use style="stroke:#000000;stroke-width:0.8;" x="81.116643" xlink:href="#mf02be22e44" y="307.584"/>
      </g>
     </g>
     <g id="text_1">
      <!-- −50 -->
      <defs>
       <path d="M 10.59375 35.5 
L 73.1875 35.5 
L 73.1875 27.203125 
L 10.59375 27.203125 
z
" id="DejaVuSans-8722"/>
       <path d="M 10.796875 72.90625 
L 49.515625 72.90625 
L 49.515625 64.59375 
L 19.828125 64.59375 
L 19.828125 46.734375 
Q 21.96875 47.46875 24.109375 47.828125 
Q 26.265625 48.1875 28.421875 48.1875 
Q 40.625 48.1875 47.75 41.5 
Q 54.890625 34.8125 54.890625 23.390625 
Q 54.890625 11.625 47.5625 5.09375 
Q 40.234375 -1.421875 26.90625 -1.421875 
Q 22.3125 -1.421875 17.546875 -0.640625 
Q 12.796875 0.140625 7.71875 1.703125 
L 7.71875 11.625 
Q 12.109375 9.234375 16.796875 8.0625 
Q 21.484375 6.890625 26.703125 6.890625 
Q 35.15625 6.890625 40.078125 11.328125 
Q 45.015625 15.765625 45.015625 23.390625 
Q 45.015625 31 40.078125 35.4375 
Q 35.15625 39.890625 26.703125 39.890625 
Q 22.75 39.890625 18.8125 39.015625 
Q 14.890625 38.140625 10.796875 36.28125 
z
" id="DejaVuSans-53"/>
       <path d="M 31.78125 66.40625 
Q 24.171875 66.40625 20.328125 58.90625 
Q 16.5 51.421875 16.5 36.375 
Q 16.5 21.390625 20.328125 13.890625 
Q 24.171875 6.390625 31.78125 6.390625 
Q 39.453125 6.390625 43.28125 13.890625 
Q 47.125 21.390625 47.125 36.375 
Q 47.125 51.421875 43.28125 58.90625 
Q 39.453125 66.40625 31.78125 66.40625 
z
M 31.78125 74.21875 
Q 44.046875 74.21875 50.515625 64.515625 
Q 56.984375 54.828125 56.984375 36.375 
Q 56.984375 17.96875 50.515625 8.265625 
Q 44.046875 -1.421875 31.78125 -1.421875 
Q 19.53125 -1.421875 13.0625 8.265625 
Q 6.59375 17.96875 6.59375 36.375 
Q 6.59375 54.828125 13.0625 64.515625 
Q 19.53125 74.21875 31.78125 74.21875 
z
" id="DejaVuSans-48"/>
      </defs>
      <g transform="translate(70.564299 322.182437)scale(0.1 -0.1)">
       <use xlink:href="#DejaVuSans-8722"/>
       <use x="83.789062" xlink:href="#DejaVuSans-53"/>
       <use x="147.412109" xlink:href="#DejaVuSans-48"/>
      </g>
     </g>
    </g>
    <g id="xtick_2">
     <g id="line2d_2">
      <g>
       <use style="stroke:#000000;stroke-width:0.8;" x="133.144612" xlink:href="#mf02be22e44" y="307.584"/>
      </g>
     </g>
     <g id="text_2">
      <!-- 0 -->
      <g transform="translate(129.963362 322.182437)scale(0.1 -0.1)">
       <use xlink:href="#DejaVuSans-48"/>
      </g>
     </g>
    </g>
    <g id="xtick_3">
     <g id="line2d_3">
      <g>
       <use style="stroke:#000000;stroke-width:0.8;" x="185.172582" xlink:href="#mf02be22e44" y="307.584"/>
      </g>
     </g>
     <g id="text_3">
      <!-- 50 -->
      <g transform="translate(178.810082 322.182437)scale(0.1 -0.1)">
       <use xlink:href="#DejaVuSans-53"/>
       <use x="63.623047" xlink:href="#DejaVuSans-48"/>
      </g>
     </g>
    </g>
    <g id="xtick_4">
     <g id="line2d_4">
      <g>
       <use style="stroke:#000000;stroke-width:0.8;" x="237.200551" xlink:href="#mf02be22e44" y="307.584"/>
      </g>
     </g>
     <g id="text_4">
      <!-- 100 -->
      <defs>
       <path d="M 12.40625 8.296875 
L 28.515625 8.296875 
L 28.515625 63.921875 
L 10.984375 60.40625 
L 10.984375 69.390625 
L 28.421875 72.90625 
L 38.28125 72.90625 
L 38.28125 8.296875 
L 54.390625 8.296875 
L 54.390625 0 
L 12.40625 0 
z
" id="DejaVuSans-49"/>
      </defs>
      <g transform="translate(227.656801 322.182437)scale(0.1 -0.1)">
       <use xlink:href="#DejaVuSans-49"/>
       <use x="63.623047" xlink:href="#DejaVuSans-48"/>
       <use x="127.246094" xlink:href="#DejaVuSans-48"/>
      </g>
     </g>
    </g>
    <g id="xtick_5">
     <g id="line2d_5">
      <g>
       <use style="stroke:#000000;stroke-width:0.8;" x="289.228521" xlink:href="#mf02be22e44" y="307.584"/>
      </g>
     </g>
     <g id="text_5">
      <!-- 150 -->
      <g transform="translate(279.684771 322.182437)scale(0.1 -0.1)">
       <use xlink:href="#DejaVuSans-49"/>
       <use x="63.623047" xlink:href="#DejaVuSans-53"/>
       <use x="127.246094" xlink:href="#DejaVuSans-48"/>
      </g>
     </g>
    </g>
    <g id="xtick_6">
     <g id="line2d_6">
      <g>
       <use style="stroke:#000000;stroke-width:0.8;" x="341.25649" xlink:href="#mf02be22e44" y="307.584"/>
      </g>
     </g>
     <g id="text_6">
      <!-- 200 -->
      <defs>
       <path d="M 19.1875 8.296875 
L 53.609375 8.296875 
L 53.609375 0 
L 7.328125 0 
L 7.328125 8.296875 
Q 12.9375 14.109375 22.625 23.890625 
Q 32.328125 33.6875 34.8125 36.53125 
Q 39.546875 41.84375 41.421875 45.53125 
Q 43.3125 49.21875 43.3125 52.78125 
Q 43.3125 58.59375 39.234375 62.25 
Q 35.15625 65.921875 28.609375 65.921875 
Q 23.96875 65.921875 18.8125 64.3125 
Q 13.671875 62.703125 7.8125 59.421875 
L 7.8125 69.390625 
Q 13.765625 71.78125 18.9375 73 
Q 24.125 74.21875 28.421875 74.21875 
Q 39.75 74.21875 46.484375 68.546875 
Q 53.21875 62.890625 53.21875 53.421875 
Q 53.21875 48.921875 51.53125 44.890625 
Q 49.859375 40.875 45.40625 35.40625 
Q 44.1875 33.984375 37.640625 27.21875 
Q 31.109375 20.453125 19.1875 8.296875 
z
" id="DejaVuSans-50"/>
      </defs>
      <g transform="translate(331.71274 322.182437)scale(0.1 -0.1)">
       <use xlink:href="#DejaVuSans-50"/>
       <use x="63.623047" xlink:href="#DejaVuSans-48"/>
       <use x="127.246094" xlink:href="#DejaVuSans-48"/>
      </g>
     </g>
    </g>
    <g id="xtick_7">
     <g id="line2d_7">
      <g>
       <use style="stroke:#000000;stroke-width:0.8;" x="393.28446" xlink:href="#mf02be22e44" y="307.584"/>
      </g>
     </g>
     <g id="text_7">
      <!-- 250 -->
      <g transform="translate(383.74071 322.182437)scale(0.1 -0.1)">
       <use xlink:href="#DejaVuSans-50"/>
       <use x="63.623047" xlink:href="#DejaVuSans-53"/>
       <use x="127.246094" xlink:href="#DejaVuSans-48"/>
      </g>
     </g>
    </g>
    <g id="text_8">
     <!-- Weight -->
     <defs>
      <path d="M 3.328125 72.90625 
L 13.28125 72.90625 
L 28.609375 11.28125 
L 43.890625 72.90625 
L 54.984375 72.90625 
L 70.3125 11.28125 
L 85.59375 72.90625 
L 95.609375 72.90625 
L 77.296875 0 
L 64.890625 0 
L 49.515625 63.28125 
L 33.984375 0 
L 21.578125 0 
z
" id="DejaVuSans-87"/>
      <path d="M 56.203125 29.59375 
L 56.203125 25.203125 
L 14.890625 25.203125 
Q 15.484375 15.921875 20.484375 11.0625 
Q 25.484375 6.203125 34.421875 6.203125 
Q 39.59375 6.203125 44.453125 7.46875 
Q 49.3125 8.734375 54.109375 11.28125 
L 54.109375 2.78125 
Q 49.265625 0.734375 44.1875 -0.34375 
Q 39.109375 -1.421875 33.890625 -1.421875 
Q 20.796875 -1.421875 13.15625 6.1875 
Q 5.515625 13.8125 5.515625 26.8125 
Q 5.515625 40.234375 12.765625 48.109375 
Q 20.015625 56 32.328125 56 
Q 43.359375 56 49.78125 48.890625 
Q 56.203125 41.796875 56.203125 29.59375 
z
M 47.21875 32.234375 
Q 47.125 39.59375 43.09375 43.984375 
Q 39.0625 48.390625 32.421875 48.390625 
Q 24.90625 48.390625 20.390625 44.140625 
Q 15.875 39.890625 15.1875 32.171875 
z
" id="DejaVuSans-101"/>
      <path d="M 9.421875 54.6875 
L 18.40625 54.6875 
L 18.40625 0 
L 9.421875 0 
z
M 9.421875 75.984375 
L 18.40625 75.984375 
L 18.40625 64.59375 
L 9.421875 64.59375 
z
" id="DejaVuSans-105"/>
      <path d="M 45.40625 27.984375 
Q 45.40625 37.75 41.375 43.109375 
Q 37.359375 48.484375 30.078125 48.484375 
Q 22.859375 48.484375 18.828125 43.109375 
Q 14.796875 37.75 14.796875 27.984375 
Q 14.796875 18.265625 18.828125 12.890625 
Q 22.859375 7.515625 30.078125 7.515625 
Q 37.359375 7.515625 41.375 12.890625 
Q 45.40625 18.265625 45.40625 27.984375 
z
M 54.390625 6.78125 
Q 54.390625 -7.171875 48.1875 -13.984375 
Q 42 -20.796875 29.203125 -20.796875 
Q 24.46875 -20.796875 20.265625 -20.09375 
Q 16.0625 -19.390625 12.109375 -17.921875 
L 12.109375 -9.1875 
Q 16.0625 -11.328125 19.921875 -12.34375 
Q 23.78125 -13.375 27.78125 -13.375 
Q 36.625 -13.375 41.015625 -8.765625 
Q 45.40625 -4.15625 45.40625 5.171875 
L 45.40625 9.625 
Q 42.625 4.78125 38.28125 2.390625 
Q 33.9375 0 27.875 0 
Q 17.828125 0 11.671875 7.65625 
Q 5.515625 15.328125 5.515625 27.984375 
Q 5.515625 40.671875 11.671875 48.328125 
Q 17.828125 56 27.875 56 
Q 33.9375 56 38.28125 53.609375 
Q 42.625 51.21875 45.40625 46.390625 
L 45.40625 54.6875 
L 54.390625 54.6875 
z
" id="DejaVuSans-103"/>
      <path d="M 54.890625 33.015625 
L 54.890625 0 
L 45.90625 0 
L 45.90625 32.71875 
Q 45.90625 40.484375 42.875 44.328125 
Q 39.84375 48.1875 33.796875 48.1875 
Q 26.515625 48.1875 22.3125 43.546875 
Q 18.109375 38.921875 18.109375 30.90625 
L 18.109375 0 
L 9.078125 0 
L 9.078125 75.984375 
L 18.109375 75.984375 
L 18.109375 46.1875 
Q 21.34375 51.125 25.703125 53.5625 
Q 30.078125 56 35.796875 56 
Q 45.21875 56 50.046875 50.171875 
Q 54.890625 44.34375 54.890625 33.015625 
z
" id="DejaVuSans-104"/>
      <path d="M 18.3125 70.21875 
L 18.3125 54.6875 
L 36.8125 54.6875 
L 36.8125 47.703125 
L 18.3125 47.703125 
L 18.3125 18.015625 
Q 18.3125 11.328125 20.140625 9.421875 
Q 21.96875 7.515625 27.59375 7.515625 
L 36.8125 7.515625 
L 36.8125 0 
L 27.59375 0 
Q 17.1875 0 13.234375 3.875 
Q 9.28125 7.765625 9.28125 18.015625 
L 9.28125 47.703125 
L 2.6875 47.703125 
L 2.6875 54.6875 
L 9.28125 54.6875 
L 9.28125 70.21875 
z
" id="DejaVuSans-116"/>
     </defs>
     <g transform="translate(218.451406 335.860562)scale(0.1 -0.1)">
      <use xlink:href="#DejaVuSans-87"/>
      <use x="98.798828" xlink:href="#DejaVuSans-101"/>
      <use x="160.322266" xlink:href="#DejaVuSans-105"/>
      <use x="188.105469" xlink:href="#DejaVuSans-103"/>
      <use x="251.582031" xlink:href="#DejaVuSans-104"/>
      <use x="314.960938" xlink:href="#DejaVuSans-116"/>
     </g>
    </g>
   </g>
   <g id="matplotlib.axis_2">
    <g id="ytick_1">
     <g id="line2d_8">
      <defs>
       <path d="M 0 0 
L -3.5 0 
" id="m7e6676a2dc" style="stroke:#000000;stroke-width:0.8;"/>
      </defs>
      <g>
       <use style="stroke:#000000;stroke-width:0.8;" x="57.6" xlink:href="#m7e6676a2dc" y="307.584"/>
      </g>
     </g>
     <g id="text_9">
      <!-- 0 -->
      <g transform="translate(44.2375 311.383219)scale(0.1 -0.1)">
       <use xlink:href="#DejaVuSans-48"/>
      </g>
     </g>
    </g>
    <g id="ytick_2">
     <g id="line2d_9">
      <g>
       <use style="stroke:#000000;stroke-width:0.8;" x="57.6" xlink:href="#m7e6676a2dc" y="257.178272"/>
      </g>
     </g>
     <g id="text_10">
      <!-- 500 -->
      <g transform="translate(31.5125 260.977491)scale(0.1 -0.1)">
       <use xlink:href="#DejaVuSans-53"/>
       <use x="63.623047" xlink:href="#DejaVuSans-48"/>
       <use x="127.246094" xlink:href="#DejaVuSans-48"/>
      </g>
     </g>
    </g>
    <g id="ytick_3">
     <g id="line2d_10">
      <g>
       <use style="stroke:#000000;stroke-width:0.8;" x="57.6" xlink:href="#m7e6676a2dc" y="206.772544"/>
      </g>
     </g>
     <g id="text_11">
      <!-- 1000 -->
      <g transform="translate(25.15 210.571763)scale(0.1 -0.1)">
       <use xlink:href="#DejaVuSans-49"/>
       <use x="63.623047" xlink:href="#DejaVuSans-48"/>
       <use x="127.246094" xlink:href="#DejaVuSans-48"/>
       <use x="190.869141" xlink:href="#DejaVuSans-48"/>
      </g>
     </g>
    </g>
    <g id="ytick_4">
     <g id="line2d_11">
      <g>
       <use style="stroke:#000000;stroke-width:0.8;" x="57.6" xlink:href="#m7e6676a2dc" y="156.366816"/>
      </g>
     </g>
     <g id="text_12">
      <!-- 1500 -->
      <g transform="translate(25.15 160.166035)scale(0.1 -0.1)">
       <use xlink:href="#DejaVuSans-49"/>
       <use x="63.623047" xlink:href="#DejaVuSans-53"/>
       <use x="127.246094" xlink:href="#DejaVuSans-48"/>
       <use x="190.869141" xlink:href="#DejaVuSans-48"/>
      </g>
     </g>
    </g>
    <g id="ytick_5">
     <g id="line2d_12">
      <g>
       <use style="stroke:#000000;stroke-width:0.8;" x="57.6" xlink:href="#m7e6676a2dc" y="105.961088"/>
      </g>
     </g>
     <g id="text_13">
      <!-- 2000 -->
      <g transform="translate(25.15 109.760307)scale(0.1 -0.1)">
       <use xlink:href="#DejaVuSans-50"/>
       <use x="63.623047" xlink:href="#DejaVuSans-48"/>
       <use x="127.246094" xlink:href="#DejaVuSans-48"/>
       <use x="190.869141" xlink:href="#DejaVuSans-48"/>
      </g>
     </g>
    </g>
    <g id="ytick_6">
     <g id="line2d_13">
      <g>
       <use style="stroke:#000000;stroke-width:0.8;" x="57.6" xlink:href="#m7e6676a2dc" y="55.55536"/>
      </g>
     </g>
     <g id="text_14">
      <!-- 2500 -->
      <g transform="translate(25.15 59.354579)scale(0.1 -0.1)">
       <use xlink:href="#DejaVuSans-50"/>
       <use x="63.623047" xlink:href="#DejaVuSans-53"/>
       <use x="127.246094" xlink:href="#DejaVuSans-48"/>
       <use x="190.869141" xlink:href="#DejaVuSans-48"/>
      </g>
     </g>
    </g>
    <g id="text_15">
     <!-- Occurrencies -->
     <defs>
      <path d="M 39.40625 66.21875 
Q 28.65625 66.21875 22.328125 58.203125 
Q 16.015625 50.203125 16.015625 36.375 
Q 16.015625 22.609375 22.328125 14.59375 
Q 28.65625 6.59375 39.40625 6.59375 
Q 50.140625 6.59375 56.421875 14.59375 
Q 62.703125 22.609375 62.703125 36.375 
Q 62.703125 50.203125 56.421875 58.203125 
Q 50.140625 66.21875 39.40625 66.21875 
z
M 39.40625 74.21875 
Q 54.734375 74.21875 63.90625 63.9375 
Q 73.09375 53.65625 73.09375 36.375 
Q 73.09375 19.140625 63.90625 8.859375 
Q 54.734375 -1.421875 39.40625 -1.421875 
Q 24.03125 -1.421875 14.8125 8.828125 
Q 5.609375 19.09375 5.609375 36.375 
Q 5.609375 53.65625 14.8125 63.9375 
Q 24.03125 74.21875 39.40625 74.21875 
z
" id="DejaVuSans-79"/>
      <path d="M 48.78125 52.59375 
L 48.78125 44.1875 
Q 44.96875 46.296875 41.140625 47.34375 
Q 37.3125 48.390625 33.40625 48.390625 
Q 24.65625 48.390625 19.8125 42.84375 
Q 14.984375 37.3125 14.984375 27.296875 
Q 14.984375 17.28125 19.8125 11.734375 
Q 24.65625 6.203125 33.40625 6.203125 
Q 37.3125 6.203125 41.140625 7.25 
Q 44.96875 8.296875 48.78125 10.40625 
L 48.78125 2.09375 
Q 45.015625 0.34375 40.984375 -0.53125 
Q 36.96875 -1.421875 32.421875 -1.421875 
Q 20.0625 -1.421875 12.78125 6.34375 
Q 5.515625 14.109375 5.515625 27.296875 
Q 5.515625 40.671875 12.859375 48.328125 
Q 20.21875 56 33.015625 56 
Q 37.15625 56 41.109375 55.140625 
Q 45.0625 54.296875 48.78125 52.59375 
z
" id="DejaVuSans-99"/>
      <path d="M 8.5 21.578125 
L 8.5 54.6875 
L 17.484375 54.6875 
L 17.484375 21.921875 
Q 17.484375 14.15625 20.5 10.265625 
Q 23.53125 6.390625 29.59375 6.390625 
Q 36.859375 6.390625 41.078125 11.03125 
Q 45.3125 15.671875 45.3125 23.6875 
L 45.3125 54.6875 
L 54.296875 54.6875 
L 54.296875 0 
L 45.3125 0 
L 45.3125 8.40625 
Q 42.046875 3.421875 37.71875 1 
Q 33.40625 -1.421875 27.6875 -1.421875 
Q 18.265625 -1.421875 13.375 4.4375 
Q 8.5 10.296875 8.5 21.578125 
z
M 31.109375 56 
z
" id="DejaVuSans-117"/>
      <path d="M 41.109375 46.296875 
Q 39.59375 47.171875 37.8125 47.578125 
Q 36.03125 48 33.890625 48 
Q 26.265625 48 22.1875 43.046875 
Q 18.109375 38.09375 18.109375 28.8125 
L 18.109375 0 
L 9.078125 0 
L 9.078125 54.6875 
L 18.109375 54.6875 
L 18.109375 46.1875 
Q 20.953125 51.171875 25.484375 53.578125 
Q 30.03125 56 36.53125 56 
Q 37.453125 56 38.578125 55.875 
Q 39.703125 55.765625 41.0625 55.515625 
z
" id="DejaVuSans-114"/>
      <path d="M 54.890625 33.015625 
L 54.890625 0 
L 45.90625 0 
L 45.90625 32.71875 
Q 45.90625 40.484375 42.875 44.328125 
Q 39.84375 48.1875 33.796875 48.1875 
Q 26.515625 48.1875 22.3125 43.546875 
Q 18.109375 38.921875 18.109375 30.90625 
L 18.109375 0 
L 9.078125 0 
L 9.078125 54.6875 
L 18.109375 54.6875 
L 18.109375 46.1875 
Q 21.34375 51.125 25.703125 53.5625 
Q 30.078125 56 35.796875 56 
Q 45.21875 56 50.046875 50.171875 
Q 54.890625 44.34375 54.890625 33.015625 
z
" id="DejaVuSans-110"/>
      <path d="M 44.28125 53.078125 
L 44.28125 44.578125 
Q 40.484375 46.53125 36.375 47.5 
Q 32.28125 48.484375 27.875 48.484375 
Q 21.1875 48.484375 17.84375 46.4375 
Q 14.5 44.390625 14.5 40.28125 
Q 14.5 37.15625 16.890625 35.375 
Q 19.28125 33.59375 26.515625 31.984375 
L 29.59375 31.296875 
Q 39.15625 29.25 43.1875 25.515625 
Q 47.21875 21.78125 47.21875 15.09375 
Q 47.21875 7.46875 41.1875 3.015625 
Q 35.15625 -1.421875 24.609375 -1.421875 
Q 20.21875 -1.421875 15.453125 -0.5625 
Q 10.6875 0.296875 5.421875 2 
L 5.421875 11.28125 
Q 10.40625 8.6875 15.234375 7.390625 
Q 20.0625 6.109375 24.8125 6.109375 
Q 31.15625 6.109375 34.5625 8.28125 
Q 37.984375 10.453125 37.984375 14.40625 
Q 37.984375 18.0625 35.515625 20.015625 
Q 33.0625 21.96875 24.703125 23.78125 
L 21.578125 24.515625 
Q 13.234375 26.265625 9.515625 29.90625 
Q 5.8125 33.546875 5.8125 39.890625 
Q 5.8125 47.609375 11.28125 51.796875 
Q 16.75 56 26.8125 56 
Q 31.78125 56 36.171875 55.265625 
Q 40.578125 54.546875 44.28125 53.078125 
z
" id="DejaVuSans-115"/>
     </defs>
     <g transform="translate(19.070312 207.304563)rotate(-90)scale(0.1 -0.1)">
      <use xlink:href="#DejaVuSans-79"/>
      <use x="78.710938" xlink:href="#DejaVuSans-99"/>
      <use x="133.691406" xlink:href="#DejaVuSans-99"/>
      <use x="188.671875" xlink:href="#DejaVuSans-117"/>
      <use x="252.050781" xlink:href="#DejaVuSans-114"/>
      <use x="293.148438" xlink:href="#DejaVuSans-114"/>
      <use x="334.230469" xlink:href="#DejaVuSans-101"/>
      <use x="395.753906" xlink:href="#DejaVuSans-110"/>
      <use x="459.132812" xlink:href="#DejaVuSans-99"/>
      <use x="514.113281" xlink:href="#DejaVuSans-105"/>
      <use x="541.896484" xlink:href="#DejaVuSans-101"/>
      <use x="603.419922" xlink:href="#DejaVuSans-115"/>
     </g>
    </g>
   </g>
   <g id="patch_203">
    <path d="M 57.6 307.584 
L 57.6 41.472 
" style="fill:none;stroke:#000000;stroke-linecap:square;stroke-linejoin:miter;stroke-width:0.8;"/>
   </g>
   <g id="patch_204">
    <path d="M 414.72 307.584 
L 414.72 41.472 
" style="fill:none;stroke:#000000;stroke-linecap:square;stroke-linejoin:miter;stroke-width:0.8;"/>
   </g>
   <g id="patch_205">
    <path d="M 57.6 307.584 
L 414.72 307.584 
" style="fill:none;stroke:#000000;stroke-linecap:square;stroke-linejoin:miter;stroke-width:0.8;"/>
   </g>
   <g id="patch_206">
    <path d="M 57.6 41.472 
L 414.72 41.472 
" style="fill:none;stroke:#000000;stroke-linecap:square;stroke-linejoin:miter;stroke-width:0.8;"/>
   </g>
   <g id="text_16">
    <!-- Histogram of fc2 -->
    <defs>
     <path d="M 9.8125 72.90625 
L 19.671875 72.90625 
L 19.671875 43.015625 
L 55.515625 43.015625 
L 55.515625 72.90625 
L 65.375 72.90625 
L 65.375 0 
L 55.515625 0 
L 55.515625 34.71875 
L 19.671875 34.71875 
L 19.671875 0 
L 9.8125 0 
z
" id="DejaVuSans-72"/>
     <path d="M 30.609375 48.390625 
Q 23.390625 48.390625 19.1875 42.75 
Q 14.984375 37.109375 14.984375 27.296875 
Q 14.984375 17.484375 19.15625 11.84375 
Q 23.34375 6.203125 30.609375 6.203125 
Q 37.796875 6.203125 41.984375 11.859375 
Q 46.1875 17.53125 46.1875 27.296875 
Q 46.1875 37.015625 41.984375 42.703125 
Q 37.796875 48.390625 30.609375 48.390625 
z
M 30.609375 56 
Q 42.328125 56 49.015625 48.375 
Q 55.71875 40.765625 55.71875 27.296875 
Q 55.71875 13.875 49.015625 6.21875 
Q 42.328125 -1.421875 30.609375 -1.421875 
Q 18.84375 -1.421875 12.171875 6.21875 
Q 5.515625 13.875 5.515625 27.296875 
Q 5.515625 40.765625 12.171875 48.375 
Q 18.84375 56 30.609375 56 
z
" id="DejaVuSans-111"/>
     <path d="M 34.28125 27.484375 
Q 23.390625 27.484375 19.1875 25 
Q 14.984375 22.515625 14.984375 16.5 
Q 14.984375 11.71875 18.140625 8.90625 
Q 21.296875 6.109375 26.703125 6.109375 
Q 34.1875 6.109375 38.703125 11.40625 
Q 43.21875 16.703125 43.21875 25.484375 
L 43.21875 27.484375 
z
M 52.203125 31.203125 
L 52.203125 0 
L 43.21875 0 
L 43.21875 8.296875 
Q 40.140625 3.328125 35.546875 0.953125 
Q 30.953125 -1.421875 24.3125 -1.421875 
Q 15.921875 -1.421875 10.953125 3.296875 
Q 6 8.015625 6 15.921875 
Q 6 25.140625 12.171875 29.828125 
Q 18.359375 34.515625 30.609375 34.515625 
L 43.21875 34.515625 
L 43.21875 35.40625 
Q 43.21875 41.609375 39.140625 45 
Q 35.0625 48.390625 27.6875 48.390625 
Q 23 48.390625 18.546875 47.265625 
Q 14.109375 46.140625 10.015625 43.890625 
L 10.015625 52.203125 
Q 14.9375 54.109375 19.578125 55.046875 
Q 24.21875 56 28.609375 56 
Q 40.484375 56 46.34375 49.84375 
Q 52.203125 43.703125 52.203125 31.203125 
z
" id="DejaVuSans-97"/>
     <path d="M 52 44.1875 
Q 55.375 50.25 60.0625 53.125 
Q 64.75 56 71.09375 56 
Q 79.640625 56 84.28125 50.015625 
Q 88.921875 44.046875 88.921875 33.015625 
L 88.921875 0 
L 79.890625 0 
L 79.890625 32.71875 
Q 79.890625 40.578125 77.09375 44.375 
Q 74.3125 48.1875 68.609375 48.1875 
Q 61.625 48.1875 57.5625 43.546875 
Q 53.515625 38.921875 53.515625 30.90625 
L 53.515625 0 
L 44.484375 0 
L 44.484375 32.71875 
Q 44.484375 40.625 41.703125 44.40625 
Q 38.921875 48.1875 33.109375 48.1875 
Q 26.21875 48.1875 22.15625 43.53125 
Q 18.109375 38.875 18.109375 30.90625 
L 18.109375 0 
L 9.078125 0 
L 9.078125 54.6875 
L 18.109375 54.6875 
L 18.109375 46.1875 
Q 21.1875 51.21875 25.484375 53.609375 
Q 29.78125 56 35.6875 56 
Q 41.65625 56 45.828125 52.96875 
Q 50 49.953125 52 44.1875 
z
" id="DejaVuSans-109"/>
     <path id="DejaVuSans-32"/>
     <path d="M 37.109375 75.984375 
L 37.109375 68.5 
L 28.515625 68.5 
Q 23.6875 68.5 21.796875 66.546875 
Q 19.921875 64.59375 19.921875 59.515625 
L 19.921875 54.6875 
L 34.71875 54.6875 
L 34.71875 47.703125 
L 19.921875 47.703125 
L 19.921875 0 
L 10.890625 0 
L 10.890625 47.703125 
L 2.296875 47.703125 
L 2.296875 54.6875 
L 10.890625 54.6875 
L 10.890625 58.5 
Q 10.890625 67.625 15.140625 71.796875 
Q 19.390625 75.984375 28.609375 75.984375 
z
" id="DejaVuSans-102"/>
    </defs>
    <g transform="translate(186.209063 35.472)scale(0.12 -0.12)">
     <use xlink:href="#DejaVuSans-72"/>
     <use x="75.195312" xlink:href="#DejaVuSans-105"/>
     <use x="102.978516" xlink:href="#DejaVuSans-115"/>
     <use x="155.078125" xlink:href="#DejaVuSans-116"/>
     <use x="194.287109" xlink:href="#DejaVuSans-111"/>
     <use x="255.46875" xlink:href="#DejaVuSans-103"/>
     <use x="318.945312" xlink:href="#DejaVuSans-114"/>
     <use x="360.058594" xlink:href="#DejaVuSans-97"/>
     <use x="421.337891" xlink:href="#DejaVuSans-109"/>
     <use x="518.75" xlink:href="#DejaVuSans-32"/>
     <use x="550.537109" xlink:href="#DejaVuSans-111"/>
     <use x="611.71875" xlink:href="#DejaVuSans-102"/>
     <use x="646.923828" xlink:href="#DejaVuSans-32"/>
     <use x="678.710938" xlink:href="#DejaVuSans-102"/>
     <use x="713.916016" xlink:href="#DejaVuSans-99"/>
     <use x="768.896484" xlink:href="#DejaVuSans-50"/>
    </g>
   </g>
   <g id="legend_1">
    <g id="patch_207">
     <path d="M 323.679375 78.82825 
L 407.72 78.82825 
Q 409.72 78.82825 409.72 76.82825 
L 409.72 48.472 
Q 409.72 46.472 407.72 46.472 
L 323.679375 46.472 
Q 321.679375 46.472 321.679375 48.472 
L 321.679375 76.82825 
Q 321.679375 78.82825 323.679375 78.82825 
z
" style="fill:#ffffff;opacity:0.8;stroke:#cccccc;stroke-linejoin:miter;"/>
    </g>
    <g id="patch_208">
     <path d="M 325.679375 58.070437 
L 345.679375 58.070437 
L 345.679375 51.070437 
L 325.679375 51.070437 
z
" style="fill:#0000ff;"/>
    </g>
    <g id="text_17">
     <!-- unmasked -->
     <defs>
      <path d="M 9.078125 75.984375 
L 18.109375 75.984375 
L 18.109375 31.109375 
L 44.921875 54.6875 
L 56.390625 54.6875 
L 27.390625 29.109375 
L 57.625 0 
L 45.90625 0 
L 18.109375 26.703125 
L 18.109375 0 
L 9.078125 0 
z
" id="DejaVuSans-107"/>
      <path d="M 45.40625 46.390625 
L 45.40625 75.984375 
L 54.390625 75.984375 
L 54.390625 0 
L 45.40625 0 
L 45.40625 8.203125 
Q 42.578125 3.328125 38.25 0.953125 
Q 33.9375 -1.421875 27.875 -1.421875 
Q 17.96875 -1.421875 11.734375 6.484375 
Q 5.515625 14.40625 5.515625 27.296875 
Q 5.515625 40.1875 11.734375 48.09375 
Q 17.96875 56 27.875 56 
Q 33.9375 56 38.25 53.625 
Q 42.578125 51.265625 45.40625 46.390625 
z
M 14.796875 27.296875 
Q 14.796875 17.390625 18.875 11.75 
Q 22.953125 6.109375 30.078125 6.109375 
Q 37.203125 6.109375 41.296875 11.75 
Q 45.40625 17.390625 45.40625 27.296875 
Q 45.40625 37.203125 41.296875 42.84375 
Q 37.203125 48.484375 30.078125 48.484375 
Q 22.953125 48.484375 18.875 42.84375 
Q 14.796875 37.203125 14.796875 27.296875 
z
" id="DejaVuSans-100"/>
     </defs>
     <g transform="translate(353.679375 58.070437)scale(0.1 -0.1)">
      <use xlink:href="#DejaVuSans-117"/>
      <use x="63.378906" xlink:href="#DejaVuSans-110"/>
      <use x="126.757812" xlink:href="#DejaVuSans-109"/>
      <use x="224.169922" xlink:href="#DejaVuSans-97"/>
      <use x="285.449219" xlink:href="#DejaVuSans-115"/>
      <use x="337.548828" xlink:href="#DejaVuSans-107"/>
      <use x="395.412109" xlink:href="#DejaVuSans-101"/>
      <use x="456.935547" xlink:href="#DejaVuSans-100"/>
     </g>
    </g>
    <g id="patch_209">
     <path d="M 325.679375 72.748562 
L 345.679375 72.748562 
L 345.679375 65.748562 
L 325.679375 65.748562 
z
" style="fill:#808080;"/>
    </g>
    <g id="text_18">
     <!-- masked -->
     <g transform="translate(353.679375 72.748562)scale(0.1 -0.1)">
      <use xlink:href="#DejaVuSans-109"/>
      <use x="97.412109" xlink:href="#DejaVuSans-97"/>
      <use x="158.691406" xlink:href="#DejaVuSans-115"/>
      <use x="210.791016" xlink:href="#DejaVuSans-107"/>
      <use x="268.654297" xlink:href="#DejaVuSans-101"/>
      <use x="330.177734" xlink:href="#DejaVuSans-100"/>
     </g>
    </g>
   </g>
  </g>
 </g>
 <defs>
  <clipPath id="p51ace111ef">
   <rect height="266.112" width="357.12" x="57.6" y="41.472"/>
  </clipPath>
 </defs>
</svg>
