<?xml version="1.0" encoding="utf-8" standalone="no"?>
<!DOCTYPE svg PUBLIC "-//W3C//DTD SVG 1.1//EN"
  "http://www.w3.org/Graphics/SVG/1.1/DTD/svg11.dtd">
<!-- Created with matplotlib (https://matplotlib.org/) -->
<svg height="345.6pt" version="1.1" viewBox="0 0 460.8 345.6" width="460.8pt" xmlns="http://www.w3.org/2000/svg" xmlns:xlink="http://www.w3.org/1999/xlink">
 <defs>
  <style type="text/css">
*{stroke-linecap:butt;stroke-linejoin:round;}
  </style>
 </defs>
 <g id="figure_1">
  <g id="patch_1">
   <path d="M 0 345.6 
L 460.8 345.6 
L 460.8 0 
L 0 0 
z
" style="fill:#ffffff;"/>
  </g>
  <g id="axes_1">
   <g id="patch_2">
    <path d="M 57.6 307.584 
L 414.72 307.584 
L 414.72 41.472 
L 57.6 41.472 
z
" style="fill:#ffffff;"/>
   </g>
   <g id="patch_3">
    <path clip-path="url(#p88ce91766b)" d="M 110.031143 307.584 
L 112.915708 307.584 
L 112.915708 307.571147 
L 110.031143 307.571147 
z
" style="fill:#0000ff;"/>
   </g>
   <g id="patch_4">
    <path clip-path="url(#p88ce91766b)" d="M 112.915708 307.584 
L 115.800264 307.584 
L 115.800264 307.571147 
L 112.915708 307.571147 
z
" style="fill:#0000ff;"/>
   </g>
   <g id="patch_5">
    <path clip-path="url(#p88ce91766b)" d="M 115.800264 307.584 
L 118.684829 307.584 
L 118.684829 307.584 
L 115.800264 307.584 
z
" style="fill:#0000ff;"/>
   </g>
   <g id="patch_6">
    <path clip-path="url(#p88ce91766b)" d="M 118.684838 307.584 
L 121.569394 307.584 
L 121.569394 307.584 
L 118.684838 307.584 
z
" style="fill:#0000ff;"/>
   </g>
   <g id="patch_7">
    <path clip-path="url(#p88ce91766b)" d="M 121.569385 307.584 
L 124.45395 307.584 
L 124.45395 307.571147 
L 121.569385 307.571147 
z
" style="fill:#0000ff;"/>
   </g>
   <g id="patch_8">
    <path clip-path="url(#p88ce91766b)" d="M 124.45395 307.584 
L 127.338515 307.584 
L 127.338515 307.584 
L 124.45395 307.584 
z
" style="fill:#0000ff;"/>
   </g>
   <g id="patch_9">
    <path clip-path="url(#p88ce91766b)" d="M 127.338515 307.584 
L 130.223071 307.584 
L 130.223071 307.584 
L 127.338515 307.584 
z
" style="fill:#0000ff;"/>
   </g>
   <g id="patch_10">
    <path clip-path="url(#p88ce91766b)" d="M 130.223071 307.584 
L 133.107636 307.584 
L 133.107636 307.584 
L 130.223071 307.584 
z
" style="fill:#0000ff;"/>
   </g>
   <g id="patch_11">
    <path clip-path="url(#p88ce91766b)" d="M 133.107644 307.584 
L 135.9922 307.584 
L 135.9922 307.584 
L 133.107644 307.584 
z
" style="fill:#0000ff;"/>
   </g>
   <g id="patch_12">
    <path clip-path="url(#p88ce91766b)" d="M 135.992192 307.584 
L 138.876756 307.584 
L 138.876756 307.584 
L 135.992192 307.584 
z
" style="fill:#0000ff;"/>
   </g>
   <g id="patch_13">
    <path clip-path="url(#p88ce91766b)" d="M 138.876756 307.584 
L 141.761321 307.584 
L 141.761321 307.558295 
L 138.876756 307.558295 
z
" style="fill:#0000ff;"/>
   </g>
   <g id="patch_14">
    <path clip-path="url(#p88ce91766b)" d="M 141.761321 307.584 
L 144.645877 307.584 
L 144.645877 307.584 
L 141.761321 307.584 
z
" style="fill:#0000ff;"/>
   </g>
   <g id="patch_15">
    <path clip-path="url(#p88ce91766b)" d="M 144.645877 307.584 
L 147.530442 307.584 
L 147.530442 307.584 
L 144.645877 307.584 
z
" style="fill:#0000ff;"/>
   </g>
   <g id="patch_16">
    <path clip-path="url(#p88ce91766b)" d="M 147.530451 307.584 
L 150.415007 307.584 
L 150.415007 307.584 
L 147.530451 307.584 
z
" style="fill:#0000ff;"/>
   </g>
   <g id="patch_17">
    <path clip-path="url(#p88ce91766b)" d="M 150.414998 307.584 
L 153.299563 307.584 
L 153.299563 307.558295 
L 150.414998 307.558295 
z
" style="fill:#0000ff;"/>
   </g>
   <g id="patch_18">
    <path clip-path="url(#p88ce91766b)" d="M 153.299563 307.584 
L 156.184128 307.584 
L 156.184128 307.584 
L 153.299563 307.584 
z
" style="fill:#0000ff;"/>
   </g>
   <g id="patch_19">
    <path clip-path="url(#p88ce91766b)" d="M 156.184128 307.584 
L 159.068684 307.584 
L 159.068684 307.584 
L 156.184128 307.584 
z
" style="fill:#0000ff;"/>
   </g>
   <g id="patch_20">
    <path clip-path="url(#p88ce91766b)" d="M 159.068684 307.584 
L 161.953248 307.584 
L 161.953248 307.571147 
L 159.068684 307.571147 
z
" style="fill:#0000ff;"/>
   </g>
   <g id="patch_21">
    <path clip-path="url(#p88ce91766b)" d="M 161.953257 307.584 
L 164.837813 307.584 
L 164.837813 307.584 
L 161.953257 307.584 
z
" style="fill:#0000ff;"/>
   </g>
   <g id="patch_22">
    <path clip-path="url(#p88ce91766b)" d="M 164.837805 307.584 
L 167.722369 307.584 
L 167.722369 307.558295 
L 164.837805 307.558295 
z
" style="fill:#0000ff;"/>
   </g>
   <g id="patch_23">
    <path clip-path="url(#p88ce91766b)" d="M 167.722369 307.584 
L 170.606934 307.584 
L 170.606934 307.571147 
L 167.722369 307.571147 
z
" style="fill:#0000ff;"/>
   </g>
   <g id="patch_24">
    <path clip-path="url(#p88ce91766b)" d="M 170.606934 307.584 
L 173.49149 307.584 
L 173.49149 307.571147 
L 170.606934 307.571147 
z
" style="fill:#0000ff;"/>
   </g>
   <g id="patch_25">
    <path clip-path="url(#p88ce91766b)" d="M 173.49149 307.584 
L 176.376055 307.584 
L 176.376055 307.571147 
L 173.49149 307.571147 
z
" style="fill:#0000ff;"/>
   </g>
   <g id="patch_26">
    <path clip-path="url(#p88ce91766b)" d="M 176.376064 307.584 
L 179.26062 307.584 
L 179.26062 307.494032 
L 176.376064 307.494032 
z
" style="fill:#0000ff;"/>
   </g>
   <g id="patch_27">
    <path clip-path="url(#p88ce91766b)" d="M 179.260611 307.584 
L 182.145176 307.584 
L 182.145176 307.558295 
L 179.260611 307.558295 
z
" style="fill:#0000ff;"/>
   </g>
   <g id="patch_28">
    <path clip-path="url(#p88ce91766b)" d="M 182.145176 307.584 
L 185.029732 307.584 
L 185.029732 307.494032 
L 182.145176 307.494032 
z
" style="fill:#0000ff;"/>
   </g>
   <g id="patch_29">
    <path clip-path="url(#p88ce91766b)" d="M 185.029736 307.584 
L 187.914292 307.584 
L 187.914292 307.455474 
L 185.029736 307.455474 
z
" style="fill:#0000ff;"/>
   </g>
   <g id="patch_30">
    <path clip-path="url(#p88ce91766b)" d="M 187.914297 307.584 
L 190.798861 307.584 
L 190.798861 307.506885 
L 187.914297 307.506885 
z
" style="fill:#0000ff;"/>
   </g>
   <g id="patch_31">
    <path clip-path="url(#p88ce91766b)" d="M 190.798866 307.584 
L 193.683422 307.584 
L 193.683422 307.558295 
L 190.798866 307.558295 
z
" style="fill:#0000ff;"/>
   </g>
   <g id="patch_32">
    <path clip-path="url(#p88ce91766b)" d="M 193.683422 307.584 
L 196.567978 307.584 
L 196.567978 307.455474 
L 193.683422 307.455474 
z
" style="fill:#0000ff;"/>
   </g>
   <g id="patch_33">
    <path clip-path="url(#p88ce91766b)" d="M 196.567987 307.584 
L 199.452543 307.584 
L 199.452543 307.288391 
L 196.567987 307.288391 
z
" style="fill:#0000ff;"/>
   </g>
   <g id="patch_34">
    <path clip-path="url(#p88ce91766b)" d="M 199.452543 307.584 
L 202.337099 307.584 
L 202.337099 307.455474 
L 199.452543 307.455474 
z
" style="fill:#0000ff;"/>
   </g>
   <g id="patch_35">
    <path clip-path="url(#p88ce91766b)" d="M 202.337103 307.584 
L 205.221668 307.584 
L 205.221668 307.352654 
L 202.337103 307.352654 
z
" style="fill:#0000ff;"/>
   </g>
   <g id="patch_36">
    <path clip-path="url(#p88ce91766b)" d="M 205.221672 307.584 
L 208.106228 307.584 
L 208.106228 307.416916 
L 205.221672 307.416916 
z
" style="fill:#0000ff;"/>
   </g>
   <g id="patch_37">
    <path clip-path="url(#p88ce91766b)" d="M 208.106228 307.584 
L 210.990784 307.584 
L 210.990784 307.224128 
L 208.106228 307.224128 
z
" style="fill:#0000ff;"/>
   </g>
   <g id="patch_38">
    <path clip-path="url(#p88ce91766b)" d="M 210.990793 307.584 
L 213.875349 307.584 
L 213.875349 307.249833 
L 210.990793 307.249833 
z
" style="fill:#0000ff;"/>
   </g>
   <g id="patch_39">
    <path clip-path="url(#p88ce91766b)" d="M 213.875349 307.584 
L 216.759905 307.584 
L 216.759905 307.044192 
L 213.875349 307.044192 
z
" style="fill:#0000ff;"/>
   </g>
   <g id="patch_40">
    <path clip-path="url(#p88ce91766b)" d="M 216.75991 307.584 
L 219.644474 307.584 
L 219.644474 307.147012 
L 216.75991 307.147012 
z
" style="fill:#0000ff;"/>
   </g>
   <g id="patch_41">
    <path clip-path="url(#p88ce91766b)" d="M 219.64447 307.584 
L 222.529035 307.584 
L 222.529035 306.877108 
L 219.64447 306.877108 
z
" style="fill:#0000ff;"/>
   </g>
   <g id="patch_42">
    <path clip-path="url(#p88ce91766b)" d="M 222.529037 307.584 
L 225.413593 307.584 
L 225.413593 306.954224 
L 222.529037 306.954224 
z
" style="fill:#0000ff;"/>
   </g>
   <g id="patch_43">
    <path clip-path="url(#p88ce91766b)" d="M 225.413597 307.584 
L 228.298153 307.584 
L 228.298153 306.401563 
L 225.413597 306.401563 
z
" style="fill:#0000ff;"/>
   </g>
   <g id="patch_44">
    <path clip-path="url(#p88ce91766b)" d="M 228.298156 307.584 
L 231.18272 307.584 
L 231.18272 306.260184 
L 228.298156 306.260184 
z
" style="fill:#0000ff;"/>
   </g>
   <g id="patch_45">
    <path clip-path="url(#p88ce91766b)" d="M 231.18272 307.584 
L 234.067276 307.584 
L 234.067276 306.478678 
L 231.18272 306.478678 
z
" style="fill:#0000ff;"/>
   </g>
   <g id="patch_46">
    <path clip-path="url(#p88ce91766b)" d="M 234.067276 307.584 
L 236.951841 307.584 
L 236.951841 305.501882 
L 234.067276 305.501882 
z
" style="fill:#0000ff;"/>
   </g>
   <g id="patch_47">
    <path clip-path="url(#p88ce91766b)" d="M 236.951839 307.584 
L 239.836404 307.584 
L 239.836404 305.88746 
L 236.951839 305.88746 
z
" style="fill:#0000ff;"/>
   </g>
   <g id="patch_48">
    <path clip-path="url(#p88ce91766b)" d="M 239.836399 307.584 
L 242.720964 307.584 
L 242.720964 304.473676 
L 239.836399 304.473676 
z
" style="fill:#0000ff;"/>
   </g>
   <g id="patch_49">
    <path clip-path="url(#p88ce91766b)" d="M 242.720962 307.584 
L 245.605527 307.584 
L 245.605527 305.231978 
L 242.720962 305.231978 
z
" style="fill:#0000ff;"/>
   </g>
   <g id="patch_50">
    <path clip-path="url(#p88ce91766b)" d="M 245.605523 307.584 
L 248.490087 307.584 
L 248.490087 303.625406 
L 245.605523 303.625406 
z
" style="fill:#0000ff;"/>
   </g>
   <g id="patch_51">
    <path clip-path="url(#p88ce91766b)" d="M 248.490084 307.584 
L 251.374649 307.584 
L 251.374649 304.563644 
L 248.490084 304.563644 
z
" style="fill:#0000ff;"/>
   </g>
   <g id="patch_52">
    <path clip-path="url(#p88ce91766b)" d="M 251.374645 307.584 
L 254.25921 307.584 
L 254.25921 302.031686 
L 251.374645 302.031686 
z
" style="fill:#0000ff;"/>
   </g>
   <g id="patch_53">
    <path clip-path="url(#p88ce91766b)" d="M 254.259206 307.584 
L 257.143771 307.584 
L 257.143771 301.941718 
L 254.259206 301.941718 
z
" style="fill:#0000ff;"/>
   </g>
   <g id="patch_54">
    <path clip-path="url(#p88ce91766b)" d="M 257.143767 307.584 
L 260.028332 307.584 
L 260.028332 303.021335 
L 257.143767 303.021335 
z
" style="fill:#0000ff;"/>
   </g>
   <g id="patch_55">
    <path clip-path="url(#p88ce91766b)" d="M 260.028329 307.584 
L 262.912894 307.584 
L 262.912894 299.512581 
L 260.028329 299.512581 
z
" style="fill:#0000ff;"/>
   </g>
   <g id="patch_56">
    <path clip-path="url(#p88ce91766b)" d="M 262.91289 307.584 
L 265.797455 307.584 
L 265.797455 301.530435 
L 262.91289 301.530435 
z
" style="fill:#0000ff;"/>
   </g>
   <g id="patch_57">
    <path clip-path="url(#p88ce91766b)" d="M 265.797452 307.584 
L 268.682017 307.584 
L 268.682017 297.301937 
L 265.797452 297.301937 
z
" style="fill:#0000ff;"/>
   </g>
   <g id="patch_58">
    <path clip-path="url(#p88ce91766b)" d="M 268.682012 307.584 
L 271.566577 307.584 
L 271.566577 300.078094 
L 268.682012 300.078094 
z
" style="fill:#0000ff;"/>
   </g>
   <g id="patch_59">
    <path clip-path="url(#p88ce91766b)" d="M 271.566575 307.584 
L 274.45114 307.584 
L 274.45114 294.680011 
L 271.566575 294.680011 
z
" style="fill:#0000ff;"/>
   </g>
   <g id="patch_60">
    <path clip-path="url(#p88ce91766b)" d="M 274.45114 307.584 
L 277.335696 307.584 
L 277.335696 298.407259 
L 274.45114 298.407259 
z
" style="fill:#0000ff;"/>
   </g>
   <g id="patch_61">
    <path clip-path="url(#p88ce91766b)" d="M 277.335696 307.584 
L 280.220261 307.584 
L 280.220261 289.461864 
L 277.335696 289.461864 
z
" style="fill:#0000ff;"/>
   </g>
   <g id="patch_62">
    <path clip-path="url(#p88ce91766b)" d="M 280.220263 307.584 
L 283.104819 307.584 
L 283.104819 283.434005 
L 280.220263 283.434005 
z
" style="fill:#0000ff;"/>
   </g>
   <g id="patch_63">
    <path clip-path="url(#p88ce91766b)" d="M 283.104823 307.584 
L 285.989379 307.584 
L 285.989379 237.023343 
L 283.104823 237.023343 
z
" style="fill:#0000ff;"/>
   </g>
   <g id="patch_64">
    <path clip-path="url(#p88ce91766b)" d="M 285.989381 307.584 
L 288.873946 307.584 
L 288.873946 210.559883 
L 285.989381 210.559883 
z
" style="fill:#0000ff;"/>
   </g>
   <g id="patch_65">
    <path clip-path="url(#p88ce91766b)" d="M 288.873942 307.584 
L 291.758507 307.584 
L 291.758507 240.095109 
L 288.873942 240.095109 
z
" style="fill:#0000ff;"/>
   </g>
   <g id="patch_66">
    <path clip-path="url(#p88ce91766b)" d="M 291.758511 307.584 
L 294.643067 307.584 
L 294.643067 225.931567 
L 291.758511 225.931567 
z
" style="fill:#0000ff;"/>
   </g>
   <g id="patch_67">
    <path clip-path="url(#p88ce91766b)" d="M 294.643067 307.584 
L 297.527623 307.584 
L 297.527623 274.450052 
L 294.643067 274.450052 
z
" style="fill:#0000ff;"/>
   </g>
   <g id="patch_68">
    <path clip-path="url(#p88ce91766b)" d="M 297.527632 307.584 
L 300.412188 307.584 
L 300.412188 287.032727 
L 297.527632 287.032727 
z
" style="fill:#0000ff;"/>
   </g>
   <g id="patch_69">
    <path clip-path="url(#p88ce91766b)" d="M 300.412188 307.584 
L 303.296744 307.584 
L 303.296744 296.826392 
L 300.412188 296.826392 
z
" style="fill:#0000ff;"/>
   </g>
   <g id="patch_70">
    <path clip-path="url(#p88ce91766b)" d="M 303.296748 307.584 
L 306.181313 307.584 
L 306.181313 293.510426 
L 303.296748 293.510426 
z
" style="fill:#0000ff;"/>
   </g>
   <g id="patch_71">
    <path clip-path="url(#p88ce91766b)" d="M 306.181317 307.584 
L 309.065874 307.584 
L 309.065874 298.625753 
L 306.181317 298.625753 
z
" style="fill:#0000ff;"/>
   </g>
   <g id="patch_72">
    <path clip-path="url(#p88ce91766b)" d="M 309.065874 307.584 
L 311.95043 307.584 
L 311.95043 294.628601 
L 309.065874 294.628601 
z
" style="fill:#0000ff;"/>
   </g>
   <g id="patch_73">
    <path clip-path="url(#p88ce91766b)" d="M 311.950438 307.584 
L 314.834994 307.584 
L 314.834994 296.633603 
L 311.950438 296.633603 
z
" style="fill:#0000ff;"/>
   </g>
   <g id="patch_74">
    <path clip-path="url(#p88ce91766b)" d="M 314.834994 307.584 
L 317.71955 307.584 
L 317.71955 300.784986 
L 314.834994 300.784986 
z
" style="fill:#0000ff;"/>
   </g>
   <g id="patch_75">
    <path clip-path="url(#p88ce91766b)" d="M 317.719555 307.584 
L 320.60412 307.584 
L 320.60412 298.651458 
L 317.719555 298.651458 
z
" style="fill:#0000ff;"/>
   </g>
   <g id="patch_76">
    <path clip-path="url(#p88ce91766b)" d="M 320.604124 307.584 
L 323.48868 307.584 
L 323.48868 302.674315 
L 320.604124 302.674315 
z
" style="fill:#0000ff;"/>
   </g>
   <g id="patch_77">
    <path clip-path="url(#p88ce91766b)" d="M 323.48868 307.584 
L 326.373236 307.584 
L 326.373236 300.862101 
L 323.48868 300.862101 
z
" style="fill:#0000ff;"/>
   </g>
   <g id="patch_78">
    <path clip-path="url(#p88ce91766b)" d="M 326.37324 307.584 
L 329.257805 307.584 
L 329.257805 303.535438 
L 326.37324 303.535438 
z
" style="fill:#0000ff;"/>
   </g>
   <g id="patch_79">
    <path clip-path="url(#p88ce91766b)" d="M 329.257805 307.584 
L 332.142361 307.584 
L 332.142361 302.789988 
L 329.257805 302.789988 
z
" style="fill:#0000ff;"/>
   </g>
   <g id="patch_80">
    <path clip-path="url(#p88ce91766b)" d="M 332.142361 307.584 
L 335.026926 307.584 
L 335.026926 304.730728 
L 332.142361 304.730728 
z
" style="fill:#0000ff;"/>
   </g>
   <g id="patch_81">
    <path clip-path="url(#p88ce91766b)" d="M 335.026935 307.584 
L 337.911491 307.584 
L 337.911491 304.023836 
L 335.026935 304.023836 
z
" style="fill:#0000ff;"/>
   </g>
   <g id="patch_82">
    <path clip-path="url(#p88ce91766b)" d="M 337.911482 307.584 
L 340.796047 307.584 
L 340.796047 305.656113 
L 337.911482 305.656113 
z
" style="fill:#0000ff;"/>
   </g>
   <g id="patch_83">
    <path clip-path="url(#p88ce91766b)" d="M 340.796047 307.584 
L 343.680612 307.584 
L 343.680612 305.54044 
L 340.796047 305.54044 
z
" style="fill:#0000ff;"/>
   </g>
   <g id="patch_84">
    <path clip-path="url(#p88ce91766b)" d="M 343.680612 307.584 
L 346.565168 307.584 
L 346.565168 305.746081 
L 343.680612 305.746081 
z
" style="fill:#0000ff;"/>
   </g>
   <g id="patch_85">
    <path clip-path="url(#p88ce91766b)" d="M 346.565168 307.584 
L 349.449732 307.584 
L 349.449732 306.825698 
L 346.565168 306.825698 
z
" style="fill:#0000ff;"/>
   </g>
   <g id="patch_86">
    <path clip-path="url(#p88ce91766b)" d="M 349.449741 307.584 
L 352.334297 307.584 
L 352.334297 306.530089 
L 349.449741 306.530089 
z
" style="fill:#0000ff;"/>
   </g>
   <g id="patch_87">
    <path clip-path="url(#p88ce91766b)" d="M 352.334289 307.584 
L 355.218853 307.584 
L 355.218853 307.108455 
L 352.334289 307.108455 
z
" style="fill:#0000ff;"/>
   </g>
   <g id="patch_88">
    <path clip-path="url(#p88ce91766b)" d="M 355.218853 307.584 
L 358.103418 307.584 
L 358.103418 307.121307 
L 355.218853 307.121307 
z
" style="fill:#0000ff;"/>
   </g>
   <g id="patch_89">
    <path clip-path="url(#p88ce91766b)" d="M 358.103418 307.584 
L 360.987974 307.584 
L 360.987974 307.301243 
L 358.103418 307.301243 
z
" style="fill:#0000ff;"/>
   </g>
   <g id="patch_90">
    <path clip-path="url(#p88ce91766b)" d="M 360.987974 307.584 
L 363.872539 307.584 
L 363.872539 307.352654 
L 360.987974 307.352654 
z
" style="fill:#0000ff;"/>
   </g>
   <g id="patch_91">
    <path clip-path="url(#p88ce91766b)" d="M 363.872548 307.584 
L 366.757104 307.584 
L 366.757104 307.468327 
L 363.872548 307.468327 
z
" style="fill:#0000ff;"/>
   </g>
   <g id="patch_92">
    <path clip-path="url(#p88ce91766b)" d="M 366.757095 307.584 
L 369.64166 307.584 
L 369.64166 307.404064 
L 366.757095 307.404064 
z
" style="fill:#0000ff;"/>
   </g>
   <g id="patch_93">
    <path clip-path="url(#p88ce91766b)" d="M 369.64166 307.584 
L 372.526225 307.584 
L 372.526225 307.468327 
L 369.64166 307.468327 
z
" style="fill:#0000ff;"/>
   </g>
   <g id="patch_94">
    <path clip-path="url(#p88ce91766b)" d="M 372.526225 307.584 
L 375.410781 307.584 
L 375.410781 307.468327 
L 372.526225 307.468327 
z
" style="fill:#0000ff;"/>
   </g>
   <g id="patch_95">
    <path clip-path="url(#p88ce91766b)" d="M 375.410781 307.584 
L 378.295345 307.584 
L 378.295345 307.506885 
L 375.410781 307.506885 
z
" style="fill:#0000ff;"/>
   </g>
   <g id="patch_96">
    <path clip-path="url(#p88ce91766b)" d="M 378.295354 307.584 
L 381.17991 307.584 
L 381.17991 307.558295 
L 378.295354 307.558295 
z
" style="fill:#0000ff;"/>
   </g>
   <g id="patch_97">
    <path clip-path="url(#p88ce91766b)" d="M 381.179902 307.584 
L 384.064466 307.584 
L 384.064466 307.558295 
L 381.179902 307.558295 
z
" style="fill:#0000ff;"/>
   </g>
   <g id="patch_98">
    <path clip-path="url(#p88ce91766b)" d="M 384.064466 307.584 
L 386.949031 307.584 
L 386.949031 307.571147 
L 384.064466 307.571147 
z
" style="fill:#0000ff;"/>
   </g>
   <g id="patch_99">
    <path clip-path="url(#p88ce91766b)" d="M 386.949031 307.584 
L 389.833587 307.584 
L 389.833587 307.558295 
L 386.949031 307.558295 
z
" style="fill:#0000ff;"/>
   </g>
   <g id="patch_100">
    <path clip-path="url(#p88ce91766b)" d="M 389.833587 307.584 
L 392.718152 307.584 
L 392.718152 307.584 
L 389.833587 307.584 
z
" style="fill:#0000ff;"/>
   </g>
   <g id="patch_101">
    <path clip-path="url(#p88ce91766b)" d="M 392.71816 307.584 
L 395.602717 307.584 
L 395.602717 307.584 
L 392.71816 307.584 
z
" style="fill:#0000ff;"/>
   </g>
   <g id="patch_102">
    <path clip-path="url(#p88ce91766b)" d="M 395.602708 307.584 
L 398.487273 307.584 
L 398.487273 307.571147 
L 395.602708 307.571147 
z
" style="fill:#0000ff;"/>
   </g>
   <g id="patch_103">
    <path clip-path="url(#p88ce91766b)" d="M 73.832727 307.584 
L 76.389234 307.584 
L 76.389234 307.545442 
L 73.832727 307.545442 
z
" style="fill:#808080;"/>
   </g>
   <g id="patch_104">
    <path clip-path="url(#p88ce91766b)" d="M 76.389234 307.584 
L 78.945758 307.584 
L 78.945758 307.584 
L 76.389234 307.584 
z
" style="fill:#808080;"/>
   </g>
   <g id="patch_105">
    <path clip-path="url(#p88ce91766b)" d="M 78.945741 307.584 
L 81.502248 307.584 
L 81.502248 307.584 
L 78.945741 307.584 
z
" style="fill:#808080;"/>
   </g>
   <g id="patch_106">
    <path clip-path="url(#p88ce91766b)" d="M 81.502265 307.584 
L 84.058772 307.584 
L 84.058772 307.584 
L 81.502265 307.584 
z
" style="fill:#808080;"/>
   </g>
   <g id="patch_107">
    <path clip-path="url(#p88ce91766b)" d="M 84.058772 307.584 
L 86.615296 307.584 
L 86.615296 307.584 
L 84.058772 307.584 
z
" style="fill:#808080;"/>
   </g>
   <g id="patch_108">
    <path clip-path="url(#p88ce91766b)" d="M 86.615279 307.584 
L 89.171786 307.584 
L 89.171786 307.584 
L 86.615279 307.584 
z
" style="fill:#808080;"/>
   </g>
   <g id="patch_109">
    <path clip-path="url(#p88ce91766b)" d="M 89.171803 307.584 
L 91.728328 307.584 
L 91.728328 307.584 
L 89.171803 307.584 
z
" style="fill:#808080;"/>
   </g>
   <g id="patch_110">
    <path clip-path="url(#p88ce91766b)" d="M 91.728328 307.584 
L 94.284835 307.584 
L 94.284835 307.584 
L 91.728328 307.584 
z
" style="fill:#808080;"/>
   </g>
   <g id="patch_111">
    <path clip-path="url(#p88ce91766b)" d="M 94.284817 307.584 
L 96.841324 307.584 
L 96.841324 307.584 
L 94.284817 307.584 
z
" style="fill:#808080;"/>
   </g>
   <g id="patch_112">
    <path clip-path="url(#p88ce91766b)" d="M 96.841341 307.584 
L 99.397866 307.584 
L 99.397866 307.584 
L 96.841341 307.584 
z
" style="fill:#808080;"/>
   </g>
   <g id="patch_113">
    <path clip-path="url(#p88ce91766b)" d="M 99.397866 307.584 
L 101.954373 307.584 
L 101.954373 307.584 
L 99.397866 307.584 
z
" style="fill:#808080;"/>
   </g>
   <g id="patch_114">
    <path clip-path="url(#p88ce91766b)" d="M 101.954355 307.584 
L 104.510862 307.584 
L 104.510862 307.584 
L 101.954355 307.584 
z
" style="fill:#808080;"/>
   </g>
   <g id="patch_115">
    <path clip-path="url(#p88ce91766b)" d="M 104.510879 307.584 
L 107.067404 307.584 
L 107.067404 307.584 
L 104.510879 307.584 
z
" style="fill:#808080;"/>
   </g>
   <g id="patch_116">
    <path clip-path="url(#p88ce91766b)" d="M 107.067404 307.584 
L 109.623911 307.584 
L 109.623911 307.584 
L 107.067404 307.584 
z
" style="fill:#808080;"/>
   </g>
   <g id="patch_117">
    <path clip-path="url(#p88ce91766b)" d="M 109.623911 307.584 
L 112.180435 307.584 
L 112.180435 307.558295 
L 109.623911 307.558295 
z
" style="fill:#808080;"/>
   </g>
   <g id="patch_118">
    <path clip-path="url(#p88ce91766b)" d="M 112.180418 307.584 
L 114.736942 307.584 
L 114.736942 307.545442 
L 112.180418 307.545442 
z
" style="fill:#808080;"/>
   </g>
   <g id="patch_119">
    <path clip-path="url(#p88ce91766b)" d="M 114.736942 307.584 
L 117.293449 307.584 
L 117.293449 307.584 
L 114.736942 307.584 
z
" style="fill:#808080;"/>
   </g>
   <g id="patch_120">
    <path clip-path="url(#p88ce91766b)" d="M 117.293449 307.584 
L 119.849973 307.584 
L 119.849973 307.584 
L 117.293449 307.584 
z
" style="fill:#808080;"/>
   </g>
   <g id="patch_121">
    <path clip-path="url(#p88ce91766b)" d="M 119.849956 307.584 
L 122.40648 307.584 
L 122.40648 307.584 
L 119.849956 307.584 
z
" style="fill:#808080;"/>
   </g>
   <g id="patch_122">
    <path clip-path="url(#p88ce91766b)" d="M 122.40648 307.584 
L 124.962987 307.584 
L 124.962987 307.584 
L 122.40648 307.584 
z
" style="fill:#808080;"/>
   </g>
   <g id="patch_123">
    <path clip-path="url(#p88ce91766b)" d="M 124.962987 307.584 
L 127.519511 307.584 
L 127.519511 307.584 
L 124.962987 307.584 
z
" style="fill:#808080;"/>
   </g>
   <g id="patch_124">
    <path clip-path="url(#p88ce91766b)" d="M 127.519494 307.584 
L 130.076018 307.584 
L 130.076018 307.584 
L 127.519494 307.584 
z
" style="fill:#808080;"/>
   </g>
   <g id="patch_125">
    <path clip-path="url(#p88ce91766b)" d="M 130.076018 307.584 
L 132.632542 307.584 
L 132.632542 307.584 
L 130.076018 307.584 
z
" style="fill:#808080;"/>
   </g>
   <g id="patch_126">
    <path clip-path="url(#p88ce91766b)" d="M 132.632533 307.584 
L 135.18904 307.584 
L 135.18904 307.584 
L 132.632533 307.584 
z
" style="fill:#808080;"/>
   </g>
   <g id="patch_127">
    <path clip-path="url(#p88ce91766b)" d="M 135.189032 307.584 
L 137.745556 307.584 
L 137.745556 307.584 
L 135.189032 307.584 
z
" style="fill:#808080;"/>
   </g>
   <g id="patch_128">
    <path clip-path="url(#p88ce91766b)" d="M 137.745556 307.584 
L 140.30208 307.584 
L 140.30208 307.584 
L 137.745556 307.584 
z
" style="fill:#808080;"/>
   </g>
   <g id="patch_129">
    <path clip-path="url(#p88ce91766b)" d="M 140.302071 307.584 
L 142.858578 307.584 
L 142.858578 307.584 
L 140.302071 307.584 
z
" style="fill:#808080;"/>
   </g>
   <g id="patch_130">
    <path clip-path="url(#p88ce91766b)" d="M 142.85857 307.584 
L 145.415094 307.584 
L 145.415094 307.584 
L 142.85857 307.584 
z
" style="fill:#808080;"/>
   </g>
   <g id="patch_131">
    <path clip-path="url(#p88ce91766b)" d="M 145.415094 307.584 
L 147.971618 307.584 
L 147.971618 307.416916 
L 145.415094 307.416916 
z
" style="fill:#808080;"/>
   </g>
   <g id="patch_132">
    <path clip-path="url(#p88ce91766b)" d="M 147.971601 307.584 
L 150.528125 307.584 
L 150.528125 306.825698 
L 147.971601 306.825698 
z
" style="fill:#808080;"/>
   </g>
   <g id="patch_133">
    <path clip-path="url(#p88ce91766b)" d="M 150.528125 307.584 
L 153.084632 307.584 
L 153.084632 307.584 
L 150.528125 307.584 
z
" style="fill:#808080;"/>
   </g>
   <g id="patch_134">
    <path clip-path="url(#p88ce91766b)" d="M 153.084632 307.584 
L 155.641156 307.584 
L 155.641156 307.584 
L 153.084632 307.584 
z
" style="fill:#808080;"/>
   </g>
   <g id="patch_135">
    <path clip-path="url(#p88ce91766b)" d="M 155.641139 307.584 
L 158.197663 307.584 
L 158.197663 307.584 
L 155.641139 307.584 
z
" style="fill:#808080;"/>
   </g>
   <g id="patch_136">
    <path clip-path="url(#p88ce91766b)" d="M 158.197663 307.584 
L 160.75417 307.584 
L 160.75417 307.584 
L 158.197663 307.584 
z
" style="fill:#808080;"/>
   </g>
   <g id="patch_137">
    <path clip-path="url(#p88ce91766b)" d="M 160.75417 307.584 
L 163.310694 307.584 
L 163.310694 307.584 
L 160.75417 307.584 
z
" style="fill:#808080;"/>
   </g>
   <g id="patch_138">
    <path clip-path="url(#p88ce91766b)" d="M 163.310677 307.584 
L 165.867201 307.584 
L 165.867201 307.584 
L 163.310677 307.584 
z
" style="fill:#808080;"/>
   </g>
   <g id="patch_139">
    <path clip-path="url(#p88ce91766b)" d="M 165.867201 307.584 
L 168.423725 307.584 
L 168.423725 307.584 
L 165.867201 307.584 
z
" style="fill:#808080;"/>
   </g>
   <g id="patch_140">
    <path clip-path="url(#p88ce91766b)" d="M 168.423717 307.584 
L 170.980224 307.584 
L 170.980224 307.584 
L 168.423717 307.584 
z
" style="fill:#808080;"/>
   </g>
   <g id="patch_141">
    <path clip-path="url(#p88ce91766b)" d="M 170.980215 307.584 
L 173.536739 307.584 
L 173.536739 307.584 
L 170.980215 307.584 
z
" style="fill:#808080;"/>
   </g>
   <g id="patch_142">
    <path clip-path="url(#p88ce91766b)" d="M 173.536739 307.584 
L 176.093263 307.584 
L 176.093263 307.584 
L 173.536739 307.584 
z
" style="fill:#808080;"/>
   </g>
   <g id="patch_143">
    <path clip-path="url(#p88ce91766b)" d="M 176.093246 307.584 
L 178.64977 307.584 
L 178.64977 307.584 
L 176.093246 307.584 
z
" style="fill:#808080;"/>
   </g>
   <g id="patch_144">
    <path clip-path="url(#p88ce91766b)" d="M 178.64977 307.584 
L 181.206277 307.584 
L 181.206277 307.584 
L 178.64977 307.584 
z
" style="fill:#808080;"/>
   </g>
   <g id="patch_145">
    <path clip-path="url(#p88ce91766b)" d="M 181.206277 307.584 
L 183.762802 307.584 
L 183.762802 305.93887 
L 181.206277 305.93887 
z
" style="fill:#808080;"/>
   </g>
   <g id="patch_146">
    <path clip-path="url(#p88ce91766b)" d="M 183.762793 307.584 
L 186.3193 307.584 
L 186.3193 300.720723 
L 183.762793 300.720723 
z
" style="fill:#808080;"/>
   </g>
   <g id="patch_147">
    <path clip-path="url(#p88ce91766b)" d="M 186.3193 307.584 
L 188.875824 307.584 
L 188.875824 307.584 
L 186.3193 307.584 
z
" style="fill:#808080;"/>
   </g>
   <g id="patch_148">
    <path clip-path="url(#p88ce91766b)" d="M 188.875824 307.584 
L 191.432331 307.584 
L 191.432331 307.584 
L 188.875824 307.584 
z
" style="fill:#808080;"/>
   </g>
   <g id="patch_149">
    <path clip-path="url(#p88ce91766b)" d="M 191.432327 307.584 
L 193.988851 307.584 
L 193.988851 307.584 
L 191.432327 307.584 
z
" style="fill:#808080;"/>
   </g>
   <g id="patch_150">
    <path clip-path="url(#p88ce91766b)" d="M 193.988846 307.584 
L 196.545353 307.584 
L 196.545353 307.584 
L 193.988846 307.584 
z
" style="fill:#808080;"/>
   </g>
   <g id="patch_151">
    <path clip-path="url(#p88ce91766b)" d="M 196.545353 307.584 
L 199.101878 307.584 
L 199.101878 307.584 
L 196.545353 307.584 
z
" style="fill:#808080;"/>
   </g>
   <g id="patch_152">
    <path clip-path="url(#p88ce91766b)" d="M 199.101878 307.584 
L 201.658385 307.584 
L 201.658385 307.584 
L 199.101878 307.584 
z
" style="fill:#808080;"/>
   </g>
   <g id="patch_153">
    <path clip-path="url(#p88ce91766b)" d="M 201.658385 307.584 
L 204.214891 307.584 
L 204.214891 307.584 
L 201.658385 307.584 
z
" style="fill:#808080;"/>
   </g>
   <g id="patch_154">
    <path clip-path="url(#p88ce91766b)" d="M 204.214891 307.584 
L 206.771416 307.584 
L 206.771416 307.584 
L 204.214891 307.584 
z
" style="fill:#808080;"/>
   </g>
   <g id="patch_155">
    <path clip-path="url(#p88ce91766b)" d="M 206.771416 307.584 
L 209.327923 307.584 
L 209.327923 307.584 
L 206.771416 307.584 
z
" style="fill:#808080;"/>
   </g>
   <g id="patch_156">
    <path clip-path="url(#p88ce91766b)" d="M 209.327918 307.584 
L 211.884442 307.584 
L 211.884442 307.584 
L 209.327918 307.584 
z
" style="fill:#808080;"/>
   </g>
   <g id="patch_157">
    <path clip-path="url(#p88ce91766b)" d="M 211.884438 307.584 
L 214.440945 307.584 
L 214.440945 307.584 
L 211.884438 307.584 
z
" style="fill:#808080;"/>
   </g>
   <g id="patch_158">
    <path clip-path="url(#p88ce91766b)" d="M 214.440945 307.584 
L 216.997469 307.584 
L 216.997469 307.584 
L 214.440945 307.584 
z
" style="fill:#808080;"/>
   </g>
   <g id="patch_159">
    <path clip-path="url(#p88ce91766b)" d="M 216.997469 307.584 
L 219.553976 307.584 
L 219.553976 292.392252 
L 216.997469 292.392252 
z
" style="fill:#808080;"/>
   </g>
   <g id="patch_160">
    <path clip-path="url(#p88ce91766b)" d="M 219.553981 307.584 
L 222.110487 307.584 
L 222.110487 256.09657 
L 219.553981 256.09657 
z
" style="fill:#808080;"/>
   </g>
   <g id="patch_161">
    <path clip-path="url(#p88ce91766b)" d="M 222.110492 307.584 
L 224.666999 307.584 
L 224.666999 307.584 
L 222.110492 307.584 
z
" style="fill:#808080;"/>
   </g>
   <g id="patch_162">
    <path clip-path="url(#p88ce91766b)" d="M 224.667007 307.584 
L 227.223514 307.584 
L 227.223514 307.584 
L 224.667007 307.584 
z
" style="fill:#808080;"/>
   </g>
   <g id="patch_163">
    <path clip-path="url(#p88ce91766b)" d="M 227.223519 307.584 
L 229.780026 307.584 
L 229.780026 307.584 
L 227.223519 307.584 
z
" style="fill:#808080;"/>
   </g>
   <g id="patch_164">
    <path clip-path="url(#p88ce91766b)" d="M 229.780034 307.584 
L 232.336541 307.584 
L 232.336541 307.584 
L 229.780034 307.584 
z
" style="fill:#808080;"/>
   </g>
   <g id="patch_165">
    <path clip-path="url(#p88ce91766b)" d="M 232.336545 307.584 
L 234.893052 307.584 
L 234.893052 307.584 
L 232.336545 307.584 
z
" style="fill:#808080;"/>
   </g>
   <g id="patch_166">
    <path clip-path="url(#p88ce91766b)" d="M 234.893059 307.584 
L 237.449566 307.584 
L 237.449566 307.584 
L 234.893059 307.584 
z
" style="fill:#808080;"/>
   </g>
   <g id="patch_167">
    <path clip-path="url(#p88ce91766b)" d="M 237.449572 307.584 
L 240.006079 307.584 
L 240.006079 307.584 
L 237.449572 307.584 
z
" style="fill:#808080;"/>
   </g>
   <g id="patch_168">
    <path clip-path="url(#p88ce91766b)" d="M 240.006085 307.584 
L 242.562591 307.584 
L 242.562591 307.584 
L 240.006085 307.584 
z
" style="fill:#808080;"/>
   </g>
   <g id="patch_169">
    <path clip-path="url(#p88ce91766b)" d="M 242.562598 307.584 
L 245.119105 307.584 
L 245.119105 307.584 
L 242.562598 307.584 
z
" style="fill:#808080;"/>
   </g>
   <g id="patch_170">
    <path clip-path="url(#p88ce91766b)" d="M 245.119111 307.584 
L 247.675618 307.584 
L 247.675618 307.584 
L 245.119111 307.584 
z
" style="fill:#808080;"/>
   </g>
   <g id="patch_171">
    <path clip-path="url(#p88ce91766b)" d="M 247.675624 307.584 
L 250.232131 307.584 
L 250.232131 307.584 
L 247.675624 307.584 
z
" style="fill:#808080;"/>
   </g>
   <g id="patch_172">
    <path clip-path="url(#p88ce91766b)" d="M 250.232138 307.584 
L 252.788645 307.584 
L 252.788645 307.584 
L 250.232138 307.584 
z
" style="fill:#808080;"/>
   </g>
   <g id="patch_173">
    <path clip-path="url(#p88ce91766b)" d="M 252.788651 307.584 
L 255.345158 307.584 
L 255.345158 54.144 
L 252.788651 54.144 
z
" style="fill:#808080;"/>
   </g>
   <g id="patch_174">
    <path clip-path="url(#p88ce91766b)" d="M 255.345164 307.584 
L 257.901671 307.584 
L 257.901671 96.621773 
L 255.345164 96.621773 
z
" style="fill:#808080;"/>
   </g>
   <g id="patch_175">
    <path clip-path="url(#p88ce91766b)" d="M 257.901677 307.584 
L 260.458184 307.584 
L 260.458184 307.584 
L 257.901677 307.584 
z
" style="fill:#808080;"/>
   </g>
   <g id="patch_176">
    <path clip-path="url(#p88ce91766b)" d="M 260.45819 307.584 
L 263.014697 307.584 
L 263.014697 307.584 
L 260.45819 307.584 
z
" style="fill:#808080;"/>
   </g>
   <g id="patch_177">
    <path clip-path="url(#p88ce91766b)" d="M 263.014703 307.584 
L 265.57121 307.584 
L 265.57121 307.584 
L 263.014703 307.584 
z
" style="fill:#808080;"/>
   </g>
   <g id="patch_178">
    <path clip-path="url(#p88ce91766b)" d="M 265.571216 307.584 
L 268.127723 307.584 
L 268.127723 307.584 
L 265.571216 307.584 
z
" style="fill:#808080;"/>
   </g>
   <g id="patch_179">
    <path clip-path="url(#p88ce91766b)" d="M 268.12773 307.584 
L 270.684237 307.584 
L 270.684237 307.584 
L 268.12773 307.584 
z
" style="fill:#808080;"/>
   </g>
   <g id="patch_180">
    <path clip-path="url(#p88ce91766b)" d="M 270.684243 307.584 
L 273.240751 307.584 
L 273.240751 307.584 
L 270.684243 307.584 
z
" style="fill:#808080;"/>
   </g>
   <g id="patch_181">
    <path clip-path="url(#p88ce91766b)" d="M 273.240756 307.584 
L 275.797262 307.584 
L 275.797262 307.584 
L 273.240756 307.584 
z
" style="fill:#808080;"/>
   </g>
   <g id="patch_182">
    <path clip-path="url(#p88ce91766b)" d="M 275.797269 307.584 
L 278.353776 307.584 
L 278.353776 307.584 
L 275.797269 307.584 
z
" style="fill:#808080;"/>
   </g>
   <g id="patch_183">
    <path clip-path="url(#p88ce91766b)" d="M 278.353782 307.584 
L 280.910289 307.584 
L 280.910289 307.584 
L 278.353782 307.584 
z
" style="fill:#808080;"/>
   </g>
   <g id="patch_184">
    <path clip-path="url(#p88ce91766b)" d="M 280.910294 307.584 
L 283.466801 307.584 
L 283.466801 307.584 
L 280.910294 307.584 
z
" style="fill:#808080;"/>
   </g>
   <g id="patch_185">
    <path clip-path="url(#p88ce91766b)" d="M 283.466809 307.584 
L 286.023316 307.584 
L 286.023316 307.584 
L 283.466809 307.584 
z
" style="fill:#808080;"/>
   </g>
   <g id="patch_186">
    <path clip-path="url(#p88ce91766b)" d="M 286.02332 307.584 
L 288.579827 307.584 
L 288.579827 307.584 
L 286.02332 307.584 
z
" style="fill:#808080;"/>
   </g>
   <g id="patch_187">
    <path clip-path="url(#p88ce91766b)" d="M 288.579834 307.584 
L 291.136343 307.584 
L 291.136343 280.22086 
L 288.579834 280.22086 
z
" style="fill:#808080;"/>
   </g>
   <g id="patch_188">
    <path clip-path="url(#p88ce91766b)" d="M 291.136339 307.584 
L 293.692863 307.584 
L 293.692863 263.705296 
L 291.136339 263.705296 
z
" style="fill:#808080;"/>
   </g>
   <g id="patch_189">
    <path clip-path="url(#p88ce91766b)" d="M 293.692858 307.584 
L 296.249365 307.584 
L 296.249365 307.584 
L 293.692858 307.584 
z
" style="fill:#808080;"/>
   </g>
   <g id="patch_190">
    <path clip-path="url(#p88ce91766b)" d="M 296.249365 307.584 
L 298.80589 307.584 
L 298.80589 307.584 
L 296.249365 307.584 
z
" style="fill:#808080;"/>
   </g>
   <g id="patch_191">
    <path clip-path="url(#p88ce91766b)" d="M 298.80589 307.584 
L 301.362397 307.584 
L 301.362397 307.584 
L 298.80589 307.584 
z
" style="fill:#808080;"/>
   </g>
   <g id="patch_192">
    <path clip-path="url(#p88ce91766b)" d="M 301.362392 307.584 
L 303.918916 307.584 
L 303.918916 307.584 
L 301.362392 307.584 
z
" style="fill:#808080;"/>
   </g>
   <g id="patch_193">
    <path clip-path="url(#p88ce91766b)" d="M 303.918912 307.584 
L 306.475419 307.584 
L 306.475419 307.584 
L 303.918912 307.584 
z
" style="fill:#808080;"/>
   </g>
   <g id="patch_194">
    <path clip-path="url(#p88ce91766b)" d="M 306.475428 307.584 
L 309.031935 307.584 
L 309.031935 307.584 
L 306.475428 307.584 
z
" style="fill:#808080;"/>
   </g>
   <g id="patch_195">
    <path clip-path="url(#p88ce91766b)" d="M 309.03193 307.584 
L 311.588454 307.584 
L 311.588454 307.584 
L 309.03193 307.584 
z
" style="fill:#808080;"/>
   </g>
   <g id="patch_196">
    <path clip-path="url(#p88ce91766b)" d="M 311.58845 307.584 
L 314.144957 307.584 
L 314.144957 307.584 
L 311.58845 307.584 
z
" style="fill:#808080;"/>
   </g>
   <g id="patch_197">
    <path clip-path="url(#p88ce91766b)" d="M 314.144957 307.584 
L 316.701481 307.584 
L 316.701481 307.584 
L 314.144957 307.584 
z
" style="fill:#808080;"/>
   </g>
   <g id="patch_198">
    <path clip-path="url(#p88ce91766b)" d="M 316.701481 307.584 
L 319.257988 307.584 
L 319.257988 307.584 
L 316.701481 307.584 
z
" style="fill:#808080;"/>
   </g>
   <g id="patch_199">
    <path clip-path="url(#p88ce91766b)" d="M 319.257984 307.584 
L 321.814508 307.584 
L 321.814508 307.584 
L 319.257984 307.584 
z
" style="fill:#808080;"/>
   </g>
   <g id="patch_200">
    <path clip-path="url(#p88ce91766b)" d="M 321.814504 307.584 
L 324.371011 307.584 
L 324.371011 307.584 
L 321.814504 307.584 
z
" style="fill:#808080;"/>
   </g>
   <g id="patch_201">
    <path clip-path="url(#p88ce91766b)" d="M 324.371011 307.584 
L 326.927535 307.584 
L 326.927535 307.584 
L 324.371011 307.584 
z
" style="fill:#808080;"/>
   </g>
   <g id="patch_202">
    <path clip-path="url(#p88ce91766b)" d="M 326.927535 307.584 
L 329.484042 307.584 
L 329.484042 302.520084 
L 326.927535 302.520084 
z
" style="fill:#808080;"/>
   </g>
   <g id="matplotlib.axis_1">
    <g id="xtick_1">
     <g id="line2d_1">
      <defs>
       <path d="M 0 0 
L 0 3.5 
" id="m59b44f46c5" style="stroke:#000000;stroke-width:0.8;"/>
      </defs>
      <g>
       <use style="stroke:#000000;stroke-width:0.8;" x="85.144732" xlink:href="#m59b44f46c5" y="307.584"/>
      </g>
     </g>
     <g id="text_1">
      <!-- −150 -->
      <defs>
       <path d="M 10.59375 35.5 
L 73.1875 35.5 
L 73.1875 27.203125 
L 10.59375 27.203125 
z
" id="DejaVuSans-8722"/>
       <path d="M 12.40625 8.296875 
L 28.515625 8.296875 
L 28.515625 63.921875 
L 10.984375 60.40625 
L 10.984375 69.390625 
L 28.421875 72.90625 
L 38.28125 72.90625 
L 38.28125 8.296875 
L 54.390625 8.296875 
L 54.390625 0 
L 12.40625 0 
z
" id="DejaVuSans-49"/>
       <path d="M 10.796875 72.90625 
L 49.515625 72.90625 
L 49.515625 64.59375 
L 19.828125 64.59375 
L 19.828125 46.734375 
Q 21.96875 47.46875 24.109375 47.828125 
Q 26.265625 48.1875 28.421875 48.1875 
Q 40.625 48.1875 47.75 41.5 
Q 54.890625 34.8125 54.890625 23.390625 
Q 54.890625 11.625 47.5625 5.09375 
Q 40.234375 -1.421875 26.90625 -1.421875 
Q 22.3125 -1.421875 17.546875 -0.640625 
Q 12.796875 0.140625 7.71875 1.703125 
L 7.71875 11.625 
Q 12.109375 9.234375 16.796875 8.0625 
Q 21.484375 6.890625 26.703125 6.890625 
Q 35.15625 6.890625 40.078125 11.328125 
Q 45.015625 15.765625 45.015625 23.390625 
Q 45.015625 31 40.078125 35.4375 
Q 35.15625 39.890625 26.703125 39.890625 
Q 22.75 39.890625 18.8125 39.015625 
Q 14.890625 38.140625 10.796875 36.28125 
z
" id="DejaVuSans-53"/>
       <path d="M 31.78125 66.40625 
Q 24.171875 66.40625 20.328125 58.90625 
Q 16.5 51.421875 16.5 36.375 
Q 16.5 21.390625 20.328125 13.890625 
Q 24.171875 6.390625 31.78125 6.390625 
Q 39.453125 6.390625 43.28125 13.890625 
Q 47.125 21.390625 47.125 36.375 
Q 47.125 51.421875 43.28125 58.90625 
Q 39.453125 66.40625 31.78125 66.40625 
z
M 31.78125 74.21875 
Q 44.046875 74.21875 50.515625 64.515625 
Q 56.984375 54.828125 56.984375 36.375 
Q 56.984375 17.96875 50.515625 8.265625 
Q 44.046875 -1.421875 31.78125 -1.421875 
Q 19.53125 -1.421875 13.0625 8.265625 
Q 6.59375 17.96875 6.59375 36.375 
Q 6.59375 54.828125 13.0625 64.515625 
Q 19.53125 74.21875 31.78125 74.21875 
z
" id="DejaVuSans-48"/>
      </defs>
      <g transform="translate(71.411139 322.182437)scale(0.1 -0.1)">
       <use xlink:href="#DejaVuSans-8722"/>
       <use x="83.789062" xlink:href="#DejaVuSans-49"/>
       <use x="147.412109" xlink:href="#DejaVuSans-53"/>
       <use x="211.035156" xlink:href="#DejaVuSans-48"/>
      </g>
     </g>
    </g>
    <g id="xtick_2">
     <g id="line2d_2">
      <g>
       <use style="stroke:#000000;stroke-width:0.8;" x="141.704758" xlink:href="#m59b44f46c5" y="307.584"/>
      </g>
     </g>
     <g id="text_2">
      <!-- −100 -->
      <g transform="translate(127.971164 322.182437)scale(0.1 -0.1)">
       <use xlink:href="#DejaVuSans-8722"/>
       <use x="83.789062" xlink:href="#DejaVuSans-49"/>
       <use x="147.412109" xlink:href="#DejaVuSans-48"/>
       <use x="211.035156" xlink:href="#DejaVuSans-48"/>
      </g>
     </g>
    </g>
    <g id="xtick_3">
     <g id="line2d_3">
      <g>
       <use style="stroke:#000000;stroke-width:0.8;" x="198.264783" xlink:href="#m59b44f46c5" y="307.584"/>
      </g>
     </g>
     <g id="text_3">
      <!-- −50 -->
      <g transform="translate(187.712439 322.182437)scale(0.1 -0.1)">
       <use xlink:href="#DejaVuSans-8722"/>
       <use x="83.789062" xlink:href="#DejaVuSans-53"/>
       <use x="147.412109" xlink:href="#DejaVuSans-48"/>
      </g>
     </g>
    </g>
    <g id="xtick_4">
     <g id="line2d_4">
      <g>
       <use style="stroke:#000000;stroke-width:0.8;" x="254.824808" xlink:href="#m59b44f46c5" y="307.584"/>
      </g>
     </g>
     <g id="text_4">
      <!-- 0 -->
      <g transform="translate(251.643558 322.182437)scale(0.1 -0.1)">
       <use xlink:href="#DejaVuSans-48"/>
      </g>
     </g>
    </g>
    <g id="xtick_5">
     <g id="line2d_5">
      <g>
       <use style="stroke:#000000;stroke-width:0.8;" x="311.384834" xlink:href="#m59b44f46c5" y="307.584"/>
      </g>
     </g>
     <g id="text_5">
      <!-- 50 -->
      <g transform="translate(305.022334 322.182437)scale(0.1 -0.1)">
       <use xlink:href="#DejaVuSans-53"/>
       <use x="63.623047" xlink:href="#DejaVuSans-48"/>
      </g>
     </g>
    </g>
    <g id="xtick_6">
     <g id="line2d_6">
      <g>
       <use style="stroke:#000000;stroke-width:0.8;" x="367.944859" xlink:href="#m59b44f46c5" y="307.584"/>
      </g>
     </g>
     <g id="text_6">
      <!-- 100 -->
      <g transform="translate(358.401109 322.182437)scale(0.1 -0.1)">
       <use xlink:href="#DejaVuSans-49"/>
       <use x="63.623047" xlink:href="#DejaVuSans-48"/>
       <use x="127.246094" xlink:href="#DejaVuSans-48"/>
      </g>
     </g>
    </g>
    <g id="text_7">
     <!-- Weight -->
     <defs>
      <path d="M 3.328125 72.90625 
L 13.28125 72.90625 
L 28.609375 11.28125 
L 43.890625 72.90625 
L 54.984375 72.90625 
L 70.3125 11.28125 
L 85.59375 72.90625 
L 95.609375 72.90625 
L 77.296875 0 
L 64.890625 0 
L 49.515625 63.28125 
L 33.984375 0 
L 21.578125 0 
z
" id="DejaVuSans-87"/>
      <path d="M 56.203125 29.59375 
L 56.203125 25.203125 
L 14.890625 25.203125 
Q 15.484375 15.921875 20.484375 11.0625 
Q 25.484375 6.203125 34.421875 6.203125 
Q 39.59375 6.203125 44.453125 7.46875 
Q 49.3125 8.734375 54.109375 11.28125 
L 54.109375 2.78125 
Q 49.265625 0.734375 44.1875 -0.34375 
Q 39.109375 -1.421875 33.890625 -1.421875 
Q 20.796875 -1.421875 13.15625 6.1875 
Q 5.515625 13.8125 5.515625 26.8125 
Q 5.515625 40.234375 12.765625 48.109375 
Q 20.015625 56 32.328125 56 
Q 43.359375 56 49.78125 48.890625 
Q 56.203125 41.796875 56.203125 29.59375 
z
M 47.21875 32.234375 
Q 47.125 39.59375 43.09375 43.984375 
Q 39.0625 48.390625 32.421875 48.390625 
Q 24.90625 48.390625 20.390625 44.140625 
Q 15.875 39.890625 15.1875 32.171875 
z
" id="DejaVuSans-101"/>
      <path d="M 9.421875 54.6875 
L 18.40625 54.6875 
L 18.40625 0 
L 9.421875 0 
z
M 9.421875 75.984375 
L 18.40625 75.984375 
L 18.40625 64.59375 
L 9.421875 64.59375 
z
" id="DejaVuSans-105"/>
      <path d="M 45.40625 27.984375 
Q 45.40625 37.75 41.375 43.109375 
Q 37.359375 48.484375 30.078125 48.484375 
Q 22.859375 48.484375 18.828125 43.109375 
Q 14.796875 37.75 14.796875 27.984375 
Q 14.796875 18.265625 18.828125 12.890625 
Q 22.859375 7.515625 30.078125 7.515625 
Q 37.359375 7.515625 41.375 12.890625 
Q 45.40625 18.265625 45.40625 27.984375 
z
M 54.390625 6.78125 
Q 54.390625 -7.171875 48.1875 -13.984375 
Q 42 -20.796875 29.203125 -20.796875 
Q 24.46875 -20.796875 20.265625 -20.09375 
Q 16.0625 -19.390625 12.109375 -17.921875 
L 12.109375 -9.1875 
Q 16.0625 -11.328125 19.921875 -12.34375 
Q 23.78125 -13.375 27.78125 -13.375 
Q 36.625 -13.375 41.015625 -8.765625 
Q 45.40625 -4.15625 45.40625 5.171875 
L 45.40625 9.625 
Q 42.625 4.78125 38.28125 2.390625 
Q 33.9375 0 27.875 0 
Q 17.828125 0 11.671875 7.65625 
Q 5.515625 15.328125 5.515625 27.984375 
Q 5.515625 40.671875 11.671875 48.328125 
Q 17.828125 56 27.875 56 
Q 33.9375 56 38.28125 53.609375 
Q 42.625 51.21875 45.40625 46.390625 
L 45.40625 54.6875 
L 54.390625 54.6875 
z
" id="DejaVuSans-103"/>
      <path d="M 54.890625 33.015625 
L 54.890625 0 
L 45.90625 0 
L 45.90625 32.71875 
Q 45.90625 40.484375 42.875 44.328125 
Q 39.84375 48.1875 33.796875 48.1875 
Q 26.515625 48.1875 22.3125 43.546875 
Q 18.109375 38.921875 18.109375 30.90625 
L 18.109375 0 
L 9.078125 0 
L 9.078125 75.984375 
L 18.109375 75.984375 
L 18.109375 46.1875 
Q 21.34375 51.125 25.703125 53.5625 
Q 30.078125 56 35.796875 56 
Q 45.21875 56 50.046875 50.171875 
Q 54.890625 44.34375 54.890625 33.015625 
z
" id="DejaVuSans-104"/>
      <path d="M 18.3125 70.21875 
L 18.3125 54.6875 
L 36.8125 54.6875 
L 36.8125 47.703125 
L 18.3125 47.703125 
L 18.3125 18.015625 
Q 18.3125 11.328125 20.140625 9.421875 
Q 21.96875 7.515625 27.59375 7.515625 
L 36.8125 7.515625 
L 36.8125 0 
L 27.59375 0 
Q 17.1875 0 13.234375 3.875 
Q 9.28125 7.765625 9.28125 18.015625 
L 9.28125 47.703125 
L 2.6875 47.703125 
L 2.6875 54.6875 
L 9.28125 54.6875 
L 9.28125 70.21875 
z
" id="DejaVuSans-116"/>
     </defs>
     <g transform="translate(218.451406 335.860562)scale(0.1 -0.1)">
      <use xlink:href="#DejaVuSans-87"/>
      <use x="98.798828" xlink:href="#DejaVuSans-101"/>
      <use x="160.322266" xlink:href="#DejaVuSans-105"/>
      <use x="188.105469" xlink:href="#DejaVuSans-103"/>
      <use x="251.582031" xlink:href="#DejaVuSans-104"/>
      <use x="314.960938" xlink:href="#DejaVuSans-116"/>
     </g>
    </g>
   </g>
   <g id="matplotlib.axis_2">
    <g id="ytick_1">
     <g id="line2d_7">
      <defs>
       <path d="M 0 0 
L -3.5 0 
" id="m98a320ac7b" style="stroke:#000000;stroke-width:0.8;"/>
      </defs>
      <g>
       <use style="stroke:#000000;stroke-width:0.8;" x="57.6" xlink:href="#m98a320ac7b" y="307.584"/>
      </g>
     </g>
     <g id="text_8">
      <!-- 0 -->
      <g transform="translate(44.2375 311.383219)scale(0.1 -0.1)">
       <use xlink:href="#DejaVuSans-48"/>
      </g>
     </g>
    </g>
    <g id="ytick_2">
     <g id="line2d_8">
      <g>
       <use style="stroke:#000000;stroke-width:0.8;" x="57.6" xlink:href="#m98a320ac7b" y="275.452553"/>
      </g>
     </g>
     <g id="text_9">
      <!-- 2500 -->
      <defs>
       <path d="M 19.1875 8.296875 
L 53.609375 8.296875 
L 53.609375 0 
L 7.328125 0 
L 7.328125 8.296875 
Q 12.9375 14.109375 22.625 23.890625 
Q 32.328125 33.6875 34.8125 36.53125 
Q 39.546875 41.84375 41.421875 45.53125 
Q 43.3125 49.21875 43.3125 52.78125 
Q 43.3125 58.59375 39.234375 62.25 
Q 35.15625 65.921875 28.609375 65.921875 
Q 23.96875 65.921875 18.8125 64.3125 
Q 13.671875 62.703125 7.8125 59.421875 
L 7.8125 69.390625 
Q 13.765625 71.78125 18.9375 73 
Q 24.125 74.21875 28.421875 74.21875 
Q 39.75 74.21875 46.484375 68.546875 
Q 53.21875 62.890625 53.21875 53.421875 
Q 53.21875 48.921875 51.53125 44.890625 
Q 49.859375 40.875 45.40625 35.40625 
Q 44.1875 33.984375 37.640625 27.21875 
Q 31.109375 20.453125 19.1875 8.296875 
z
" id="DejaVuSans-50"/>
      </defs>
      <g transform="translate(25.15 279.251772)scale(0.1 -0.1)">
       <use xlink:href="#DejaVuSans-50"/>
       <use x="63.623047" xlink:href="#DejaVuSans-53"/>
       <use x="127.246094" xlink:href="#DejaVuSans-48"/>
       <use x="190.869141" xlink:href="#DejaVuSans-48"/>
      </g>
     </g>
    </g>
    <g id="ytick_3">
     <g id="line2d_9">
      <g>
       <use style="stroke:#000000;stroke-width:0.8;" x="57.6" xlink:href="#m98a320ac7b" y="243.321106"/>
      </g>
     </g>
     <g id="text_10">
      <!-- 5000 -->
      <g transform="translate(25.15 247.120325)scale(0.1 -0.1)">
       <use xlink:href="#DejaVuSans-53"/>
       <use x="63.623047" xlink:href="#DejaVuSans-48"/>
       <use x="127.246094" xlink:href="#DejaVuSans-48"/>
       <use x="190.869141" xlink:href="#DejaVuSans-48"/>
      </g>
     </g>
    </g>
    <g id="ytick_4">
     <g id="line2d_10">
      <g>
       <use style="stroke:#000000;stroke-width:0.8;" x="57.6" xlink:href="#m98a320ac7b" y="211.18966"/>
      </g>
     </g>
     <g id="text_11">
      <!-- 7500 -->
      <defs>
       <path d="M 8.203125 72.90625 
L 55.078125 72.90625 
L 55.078125 68.703125 
L 28.609375 0 
L 18.3125 0 
L 43.21875 64.59375 
L 8.203125 64.59375 
z
" id="DejaVuSans-55"/>
      </defs>
      <g transform="translate(25.15 214.988878)scale(0.1 -0.1)">
       <use xlink:href="#DejaVuSans-55"/>
       <use x="63.623047" xlink:href="#DejaVuSans-53"/>
       <use x="127.246094" xlink:href="#DejaVuSans-48"/>
       <use x="190.869141" xlink:href="#DejaVuSans-48"/>
      </g>
     </g>
    </g>
    <g id="ytick_5">
     <g id="line2d_11">
      <g>
       <use style="stroke:#000000;stroke-width:0.8;" x="57.6" xlink:href="#m98a320ac7b" y="179.058213"/>
      </g>
     </g>
     <g id="text_12">
      <!-- 10000 -->
      <g transform="translate(18.7875 182.857431)scale(0.1 -0.1)">
       <use xlink:href="#DejaVuSans-49"/>
       <use x="63.623047" xlink:href="#DejaVuSans-48"/>
       <use x="127.246094" xlink:href="#DejaVuSans-48"/>
       <use x="190.869141" xlink:href="#DejaVuSans-48"/>
       <use x="254.492188" xlink:href="#DejaVuSans-48"/>
      </g>
     </g>
    </g>
    <g id="ytick_6">
     <g id="line2d_12">
      <g>
       <use style="stroke:#000000;stroke-width:0.8;" x="57.6" xlink:href="#m98a320ac7b" y="146.926766"/>
      </g>
     </g>
     <g id="text_13">
      <!-- 12500 -->
      <g transform="translate(18.7875 150.725985)scale(0.1 -0.1)">
       <use xlink:href="#DejaVuSans-49"/>
       <use x="63.623047" xlink:href="#DejaVuSans-50"/>
       <use x="127.246094" xlink:href="#DejaVuSans-53"/>
       <use x="190.869141" xlink:href="#DejaVuSans-48"/>
       <use x="254.492188" xlink:href="#DejaVuSans-48"/>
      </g>
     </g>
    </g>
    <g id="ytick_7">
     <g id="line2d_13">
      <g>
       <use style="stroke:#000000;stroke-width:0.8;" x="57.6" xlink:href="#m98a320ac7b" y="114.795319"/>
      </g>
     </g>
     <g id="text_14">
      <!-- 15000 -->
      <g transform="translate(18.7875 118.594538)scale(0.1 -0.1)">
       <use xlink:href="#DejaVuSans-49"/>
       <use x="63.623047" xlink:href="#DejaVuSans-53"/>
       <use x="127.246094" xlink:href="#DejaVuSans-48"/>
       <use x="190.869141" xlink:href="#DejaVuSans-48"/>
       <use x="254.492188" xlink:href="#DejaVuSans-48"/>
      </g>
     </g>
    </g>
    <g id="ytick_8">
     <g id="line2d_14">
      <g>
       <use style="stroke:#000000;stroke-width:0.8;" x="57.6" xlink:href="#m98a320ac7b" y="82.663872"/>
      </g>
     </g>
     <g id="text_15">
      <!-- 17500 -->
      <g transform="translate(18.7875 86.463091)scale(0.1 -0.1)">
       <use xlink:href="#DejaVuSans-49"/>
       <use x="63.623047" xlink:href="#DejaVuSans-55"/>
       <use x="127.246094" xlink:href="#DejaVuSans-53"/>
       <use x="190.869141" xlink:href="#DejaVuSans-48"/>
       <use x="254.492188" xlink:href="#DejaVuSans-48"/>
      </g>
     </g>
    </g>
    <g id="ytick_9">
     <g id="line2d_15">
      <g>
       <use style="stroke:#000000;stroke-width:0.8;" x="57.6" xlink:href="#m98a320ac7b" y="50.532425"/>
      </g>
     </g>
     <g id="text_16">
      <!-- 20000 -->
      <g transform="translate(18.7875 54.331644)scale(0.1 -0.1)">
       <use xlink:href="#DejaVuSans-50"/>
       <use x="63.623047" xlink:href="#DejaVuSans-48"/>
       <use x="127.246094" xlink:href="#DejaVuSans-48"/>
       <use x="190.869141" xlink:href="#DejaVuSans-48"/>
       <use x="254.492188" xlink:href="#DejaVuSans-48"/>
      </g>
     </g>
    </g>
    <g id="text_17">
     <!-- Occurrencies -->
     <defs>
      <path d="M 39.40625 66.21875 
Q 28.65625 66.21875 22.328125 58.203125 
Q 16.015625 50.203125 16.015625 36.375 
Q 16.015625 22.609375 22.328125 14.59375 
Q 28.65625 6.59375 39.40625 6.59375 
Q 50.140625 6.59375 56.421875 14.59375 
Q 62.703125 22.609375 62.703125 36.375 
Q 62.703125 50.203125 56.421875 58.203125 
Q 50.140625 66.21875 39.40625 66.21875 
z
M 39.40625 74.21875 
Q 54.734375 74.21875 63.90625 63.9375 
Q 73.09375 53.65625 73.09375 36.375 
Q 73.09375 19.140625 63.90625 8.859375 
Q 54.734375 -1.421875 39.40625 -1.421875 
Q 24.03125 -1.421875 14.8125 8.828125 
Q 5.609375 19.09375 5.609375 36.375 
Q 5.609375 53.65625 14.8125 63.9375 
Q 24.03125 74.21875 39.40625 74.21875 
z
" id="DejaVuSans-79"/>
      <path d="M 48.78125 52.59375 
L 48.78125 44.1875 
Q 44.96875 46.296875 41.140625 47.34375 
Q 37.3125 48.390625 33.40625 48.390625 
Q 24.65625 48.390625 19.8125 42.84375 
Q 14.984375 37.3125 14.984375 27.296875 
Q 14.984375 17.28125 19.8125 11.734375 
Q 24.65625 6.203125 33.40625 6.203125 
Q 37.3125 6.203125 41.140625 7.25 
Q 44.96875 8.296875 48.78125 10.40625 
L 48.78125 2.09375 
Q 45.015625 0.34375 40.984375 -0.53125 
Q 36.96875 -1.421875 32.421875 -1.421875 
Q 20.0625 -1.421875 12.78125 6.34375 
Q 5.515625 14.109375 5.515625 27.296875 
Q 5.515625 40.671875 12.859375 48.328125 
Q 20.21875 56 33.015625 56 
Q 37.15625 56 41.109375 55.140625 
Q 45.0625 54.296875 48.78125 52.59375 
z
" id="DejaVuSans-99"/>
      <path d="M 8.5 21.578125 
L 8.5 54.6875 
L 17.484375 54.6875 
L 17.484375 21.921875 
Q 17.484375 14.15625 20.5 10.265625 
Q 23.53125 6.390625 29.59375 6.390625 
Q 36.859375 6.390625 41.078125 11.03125 
Q 45.3125 15.671875 45.3125 23.6875 
L 45.3125 54.6875 
L 54.296875 54.6875 
L 54.296875 0 
L 45.3125 0 
L 45.3125 8.40625 
Q 42.046875 3.421875 37.71875 1 
Q 33.40625 -1.421875 27.6875 -1.421875 
Q 18.265625 -1.421875 13.375 4.4375 
Q 8.5 10.296875 8.5 21.578125 
z
M 31.109375 56 
z
" id="DejaVuSans-117"/>
      <path d="M 41.109375 46.296875 
Q 39.59375 47.171875 37.8125 47.578125 
Q 36.03125 48 33.890625 48 
Q 26.265625 48 22.1875 43.046875 
Q 18.109375 38.09375 18.109375 28.8125 
L 18.109375 0 
L 9.078125 0 
L 9.078125 54.6875 
L 18.109375 54.6875 
L 18.109375 46.1875 
Q 20.953125 51.171875 25.484375 53.578125 
Q 30.03125 56 36.53125 56 
Q 37.453125 56 38.578125 55.875 
Q 39.703125 55.765625 41.0625 55.515625 
z
" id="DejaVuSans-114"/>
      <path d="M 54.890625 33.015625 
L 54.890625 0 
L 45.90625 0 
L 45.90625 32.71875 
Q 45.90625 40.484375 42.875 44.328125 
Q 39.84375 48.1875 33.796875 48.1875 
Q 26.515625 48.1875 22.3125 43.546875 
Q 18.109375 38.921875 18.109375 30.90625 
L 18.109375 0 
L 9.078125 0 
L 9.078125 54.6875 
L 18.109375 54.6875 
L 18.109375 46.1875 
Q 21.34375 51.125 25.703125 53.5625 
Q 30.078125 56 35.796875 56 
Q 45.21875 56 50.046875 50.171875 
Q 54.890625 44.34375 54.890625 33.015625 
z
" id="DejaVuSans-110"/>
      <path d="M 44.28125 53.078125 
L 44.28125 44.578125 
Q 40.484375 46.53125 36.375 47.5 
Q 32.28125 48.484375 27.875 48.484375 
Q 21.1875 48.484375 17.84375 46.4375 
Q 14.5 44.390625 14.5 40.28125 
Q 14.5 37.15625 16.890625 35.375 
Q 19.28125 33.59375 26.515625 31.984375 
L 29.59375 31.296875 
Q 39.15625 29.25 43.1875 25.515625 
Q 47.21875 21.78125 47.21875 15.09375 
Q 47.21875 7.46875 41.1875 3.015625 
Q 35.15625 -1.421875 24.609375 -1.421875 
Q 20.21875 -1.421875 15.453125 -0.5625 
Q 10.6875 0.296875 5.421875 2 
L 5.421875 11.28125 
Q 10.40625 8.6875 15.234375 7.390625 
Q 20.0625 6.109375 24.8125 6.109375 
Q 31.15625 6.109375 34.5625 8.28125 
Q 37.984375 10.453125 37.984375 14.40625 
Q 37.984375 18.0625 35.515625 20.015625 
Q 33.0625 21.96875 24.703125 23.78125 
L 21.578125 24.515625 
Q 13.234375 26.265625 9.515625 29.90625 
Q 5.8125 33.546875 5.8125 39.890625 
Q 5.8125 47.609375 11.28125 51.796875 
Q 16.75 56 26.8125 56 
Q 31.78125 56 36.171875 55.265625 
Q 40.578125 54.546875 44.28125 53.078125 
z
" id="DejaVuSans-115"/>
     </defs>
     <g transform="translate(12.707812 207.304563)rotate(-90)scale(0.1 -0.1)">
      <use xlink:href="#DejaVuSans-79"/>
      <use x="78.710938" xlink:href="#DejaVuSans-99"/>
      <use x="133.691406" xlink:href="#DejaVuSans-99"/>
      <use x="188.671875" xlink:href="#DejaVuSans-117"/>
      <use x="252.050781" xlink:href="#DejaVuSans-114"/>
      <use x="293.148438" xlink:href="#DejaVuSans-114"/>
      <use x="334.230469" xlink:href="#DejaVuSans-101"/>
      <use x="395.753906" xlink:href="#DejaVuSans-110"/>
      <use x="459.132812" xlink:href="#DejaVuSans-99"/>
      <use x="514.113281" xlink:href="#DejaVuSans-105"/>
      <use x="541.896484" xlink:href="#DejaVuSans-101"/>
      <use x="603.419922" xlink:href="#DejaVuSans-115"/>
     </g>
    </g>
   </g>
   <g id="patch_203">
    <path d="M 57.6 307.584 
L 57.6 41.472 
" style="fill:none;stroke:#000000;stroke-linecap:square;stroke-linejoin:miter;stroke-width:0.8;"/>
   </g>
   <g id="patch_204">
    <path d="M 414.72 307.584 
L 414.72 41.472 
" style="fill:none;stroke:#000000;stroke-linecap:square;stroke-linejoin:miter;stroke-width:0.8;"/>
   </g>
   <g id="patch_205">
    <path d="M 57.6 307.584 
L 414.72 307.584 
" style="fill:none;stroke:#000000;stroke-linecap:square;stroke-linejoin:miter;stroke-width:0.8;"/>
   </g>
   <g id="patch_206">
    <path d="M 57.6 41.472 
L 414.72 41.472 
" style="fill:none;stroke:#000000;stroke-linecap:square;stroke-linejoin:miter;stroke-width:0.8;"/>
   </g>
   <g id="text_18">
    <!-- Histogram of fc1 -->
    <defs>
     <path d="M 9.8125 72.90625 
L 19.671875 72.90625 
L 19.671875 43.015625 
L 55.515625 43.015625 
L 55.515625 72.90625 
L 65.375 72.90625 
L 65.375 0 
L 55.515625 0 
L 55.515625 34.71875 
L 19.671875 34.71875 
L 19.671875 0 
L 9.8125 0 
z
" id="DejaVuSans-72"/>
     <path d="M 30.609375 48.390625 
Q 23.390625 48.390625 19.1875 42.75 
Q 14.984375 37.109375 14.984375 27.296875 
Q 14.984375 17.484375 19.15625 11.84375 
Q 23.34375 6.203125 30.609375 6.203125 
Q 37.796875 6.203125 41.984375 11.859375 
Q 46.1875 17.53125 46.1875 27.296875 
Q 46.1875 37.015625 41.984375 42.703125 
Q 37.796875 48.390625 30.609375 48.390625 
z
M 30.609375 56 
Q 42.328125 56 49.015625 48.375 
Q 55.71875 40.765625 55.71875 27.296875 
Q 55.71875 13.875 49.015625 6.21875 
Q 42.328125 -1.421875 30.609375 -1.421875 
Q 18.84375 -1.421875 12.171875 6.21875 
Q 5.515625 13.875 5.515625 27.296875 
Q 5.515625 40.765625 12.171875 48.375 
Q 18.84375 56 30.609375 56 
z
" id="DejaVuSans-111"/>
     <path d="M 34.28125 27.484375 
Q 23.390625 27.484375 19.1875 25 
Q 14.984375 22.515625 14.984375 16.5 
Q 14.984375 11.71875 18.140625 8.90625 
Q 21.296875 6.109375 26.703125 6.109375 
Q 34.1875 6.109375 38.703125 11.40625 
Q 43.21875 16.703125 43.21875 25.484375 
L 43.21875 27.484375 
z
M 52.203125 31.203125 
L 52.203125 0 
L 43.21875 0 
L 43.21875 8.296875 
Q 40.140625 3.328125 35.546875 0.953125 
Q 30.953125 -1.421875 24.3125 -1.421875 
Q 15.921875 -1.421875 10.953125 3.296875 
Q 6 8.015625 6 15.921875 
Q 6 25.140625 12.171875 29.828125 
Q 18.359375 34.515625 30.609375 34.515625 
L 43.21875 34.515625 
L 43.21875 35.40625 
Q 43.21875 41.609375 39.140625 45 
Q 35.0625 48.390625 27.6875 48.390625 
Q 23 48.390625 18.546875 47.265625 
Q 14.109375 46.140625 10.015625 43.890625 
L 10.015625 52.203125 
Q 14.9375 54.109375 19.578125 55.046875 
Q 24.21875 56 28.609375 56 
Q 40.484375 56 46.34375 49.84375 
Q 52.203125 43.703125 52.203125 31.203125 
z
" id="DejaVuSans-97"/>
     <path d="M 52 44.1875 
Q 55.375 50.25 60.0625 53.125 
Q 64.75 56 71.09375 56 
Q 79.640625 56 84.28125 50.015625 
Q 88.921875 44.046875 88.921875 33.015625 
L 88.921875 0 
L 79.890625 0 
L 79.890625 32.71875 
Q 79.890625 40.578125 77.09375 44.375 
Q 74.3125 48.1875 68.609375 48.1875 
Q 61.625 48.1875 57.5625 43.546875 
Q 53.515625 38.921875 53.515625 30.90625 
L 53.515625 0 
L 44.484375 0 
L 44.484375 32.71875 
Q 44.484375 40.625 41.703125 44.40625 
Q 38.921875 48.1875 33.109375 48.1875 
Q 26.21875 48.1875 22.15625 43.53125 
Q 18.109375 38.875 18.109375 30.90625 
L 18.109375 0 
L 9.078125 0 
L 9.078125 54.6875 
L 18.109375 54.6875 
L 18.109375 46.1875 
Q 21.1875 51.21875 25.484375 53.609375 
Q 29.78125 56 35.6875 56 
Q 41.65625 56 45.828125 52.96875 
Q 50 49.953125 52 44.1875 
z
" id="DejaVuSans-109"/>
     <path id="DejaVuSans-32"/>
     <path d="M 37.109375 75.984375 
L 37.109375 68.5 
L 28.515625 68.5 
Q 23.6875 68.5 21.796875 66.546875 
Q 19.921875 64.59375 19.921875 59.515625 
L 19.921875 54.6875 
L 34.71875 54.6875 
L 34.71875 47.703125 
L 19.921875 47.703125 
L 19.921875 0 
L 10.890625 0 
L 10.890625 47.703125 
L 2.296875 47.703125 
L 2.296875 54.6875 
L 10.890625 54.6875 
L 10.890625 58.5 
Q 10.890625 67.625 15.140625 71.796875 
Q 19.390625 75.984375 28.609375 75.984375 
z
" id="DejaVuSans-102"/>
    </defs>
    <g transform="translate(186.209063 35.472)scale(0.12 -0.12)">
     <use xlink:href="#DejaVuSans-72"/>
     <use x="75.195312" xlink:href="#DejaVuSans-105"/>
     <use x="102.978516" xlink:href="#DejaVuSans-115"/>
     <use x="155.078125" xlink:href="#DejaVuSans-116"/>
     <use x="194.287109" xlink:href="#DejaVuSans-111"/>
     <use x="255.46875" xlink:href="#DejaVuSans-103"/>
     <use x="318.945312" xlink:href="#DejaVuSans-114"/>
     <use x="360.058594" xlink:href="#DejaVuSans-97"/>
     <use x="421.337891" xlink:href="#DejaVuSans-109"/>
     <use x="518.75" xlink:href="#DejaVuSans-32"/>
     <use x="550.537109" xlink:href="#DejaVuSans-111"/>
     <use x="611.71875" xlink:href="#DejaVuSans-102"/>
     <use x="646.923828" xlink:href="#DejaVuSans-32"/>
     <use x="678.710938" xlink:href="#DejaVuSans-102"/>
     <use x="713.916016" xlink:href="#DejaVuSans-99"/>
     <use x="768.896484" xlink:href="#DejaVuSans-49"/>
    </g>
   </g>
   <g id="legend_1">
    <g id="patch_207">
     <path d="M 323.679375 78.82825 
L 407.72 78.82825 
Q 409.72 78.82825 409.72 76.82825 
L 409.72 48.472 
Q 409.72 46.472 407.72 46.472 
L 323.679375 46.472 
Q 321.679375 46.472 321.679375 48.472 
L 321.679375 76.82825 
Q 321.679375 78.82825 323.679375 78.82825 
z
" style="fill:#ffffff;opacity:0.8;stroke:#cccccc;stroke-linejoin:miter;"/>
    </g>
    <g id="patch_208">
     <path d="M 325.679375 58.070437 
L 345.679375 58.070437 
L 345.679375 51.070437 
L 325.679375 51.070437 
z
" style="fill:#0000ff;"/>
    </g>
    <g id="text_19">
     <!-- unmasked -->
     <defs>
      <path d="M 9.078125 75.984375 
L 18.109375 75.984375 
L 18.109375 31.109375 
L 44.921875 54.6875 
L 56.390625 54.6875 
L 27.390625 29.109375 
L 57.625 0 
L 45.90625 0 
L 18.109375 26.703125 
L 18.109375 0 
L 9.078125 0 
z
" id="DejaVuSans-107"/>
      <path d="M 45.40625 46.390625 
L 45.40625 75.984375 
L 54.390625 75.984375 
L 54.390625 0 
L 45.40625 0 
L 45.40625 8.203125 
Q 42.578125 3.328125 38.25 0.953125 
Q 33.9375 -1.421875 27.875 -1.421875 
Q 17.96875 -1.421875 11.734375 6.484375 
Q 5.515625 14.40625 5.515625 27.296875 
Q 5.515625 40.1875 11.734375 48.09375 
Q 17.96875 56 27.875 56 
Q 33.9375 56 38.25 53.625 
Q 42.578125 51.265625 45.40625 46.390625 
z
M 14.796875 27.296875 
Q 14.796875 17.390625 18.875 11.75 
Q 22.953125 6.109375 30.078125 6.109375 
Q 37.203125 6.109375 41.296875 11.75 
Q 45.40625 17.390625 45.40625 27.296875 
Q 45.40625 37.203125 41.296875 42.84375 
Q 37.203125 48.484375 30.078125 48.484375 
Q 22.953125 48.484375 18.875 42.84375 
Q 14.796875 37.203125 14.796875 27.296875 
z
" id="DejaVuSans-100"/>
     </defs>
     <g transform="translate(353.679375 58.070437)scale(0.1 -0.1)">
      <use xlink:href="#DejaVuSans-117"/>
      <use x="63.378906" xlink:href="#DejaVuSans-110"/>
      <use x="126.757812" xlink:href="#DejaVuSans-109"/>
      <use x="224.169922" xlink:href="#DejaVuSans-97"/>
      <use x="285.449219" xlink:href="#DejaVuSans-115"/>
      <use x="337.548828" xlink:href="#DejaVuSans-107"/>
      <use x="395.412109" xlink:href="#DejaVuSans-101"/>
      <use x="456.935547" xlink:href="#DejaVuSans-100"/>
     </g>
    </g>
    <g id="patch_209">
     <path d="M 325.679375 72.748562 
L 345.679375 72.748562 
L 345.679375 65.748562 
L 325.679375 65.748562 
z
" style="fill:#808080;"/>
    </g>
    <g id="text_20">
     <!-- masked -->
     <g transform="translate(353.679375 72.748562)scale(0.1 -0.1)">
      <use xlink:href="#DejaVuSans-109"/>
      <use x="97.412109" xlink:href="#DejaVuSans-97"/>
      <use x="158.691406" xlink:href="#DejaVuSans-115"/>
      <use x="210.791016" xlink:href="#DejaVuSans-107"/>
      <use x="268.654297" xlink:href="#DejaVuSans-101"/>
      <use x="330.177734" xlink:href="#DejaVuSans-100"/>
     </g>
    </g>
   </g>
  </g>
 </g>
 <defs>
  <clipPath id="p88ce91766b">
   <rect height="266.112" width="357.12" x="57.6" y="41.472"/>
  </clipPath>
 </defs>
</svg>
