<?xml version="1.0" encoding="utf-8" standalone="no"?>
<!DOCTYPE svg PUBLIC "-//W3C//DTD SVG 1.1//EN"
  "http://www.w3.org/Graphics/SVG/1.1/DTD/svg11.dtd">
<!-- Created with matplotlib (https://matplotlib.org/) -->
<svg height="345.6pt" version="1.1" viewBox="0 0 460.8 345.6" width="460.8pt" xmlns="http://www.w3.org/2000/svg" xmlns:xlink="http://www.w3.org/1999/xlink">
 <defs>
  <style type="text/css">
*{stroke-linecap:butt;stroke-linejoin:round;}
  </style>
 </defs>
 <g id="figure_1">
  <g id="patch_1">
   <path d="M 0 345.6 
L 460.8 345.6 
L 460.8 0 
L 0 0 
z
" style="fill:#ffffff;"/>
  </g>
  <g id="axes_1">
   <g id="patch_2">
    <path d="M 57.6 307.584 
L 414.72 307.584 
L 414.72 41.472 
L 57.6 41.472 
z
" style="fill:#ffffff;"/>
   </g>
   <g id="patch_3">
    <path clip-path="url(#p513a0a4665)" d="M 161.275495 307.584 
L 163.647612 307.584 
L 163.647612 307.419642 
L 161.275495 307.419642 
z
" style="fill:#0000ff;"/>
   </g>
   <g id="patch_4">
    <path clip-path="url(#p513a0a4665)" d="M 163.647613 307.584 
L 166.01973 307.584 
L 166.01973 307.529214 
L 163.647613 307.529214 
z
" style="fill:#0000ff;"/>
   </g>
   <g id="patch_5">
    <path clip-path="url(#p513a0a4665)" d="M 166.01973 307.584 
L 168.391848 307.584 
L 168.391848 307.584 
L 166.01973 307.584 
z
" style="fill:#0000ff;"/>
   </g>
   <g id="patch_6">
    <path clip-path="url(#p513a0a4665)" d="M 168.391848 307.584 
L 170.763966 307.584 
L 170.763966 307.529214 
L 168.391848 307.529214 
z
" style="fill:#0000ff;"/>
   </g>
   <g id="patch_7">
    <path clip-path="url(#p513a0a4665)" d="M 170.763966 307.584 
L 173.136084 307.584 
L 173.136084 307.584 
L 170.763966 307.584 
z
" style="fill:#0000ff;"/>
   </g>
   <g id="patch_8">
    <path clip-path="url(#p513a0a4665)" d="M 173.136083 307.584 
L 175.508201 307.584 
L 175.508201 307.529214 
L 173.136083 307.529214 
z
" style="fill:#0000ff;"/>
   </g>
   <g id="patch_9">
    <path clip-path="url(#p513a0a4665)" d="M 175.508202 307.584 
L 177.880321 307.584 
L 177.880321 307.474428 
L 175.508202 307.474428 
z
" style="fill:#0000ff;"/>
   </g>
   <g id="patch_10">
    <path clip-path="url(#p513a0a4665)" d="M 177.880319 307.584 
L 180.252436 307.584 
L 180.252436 307.31007 
L 177.880319 307.31007 
z
" style="fill:#0000ff;"/>
   </g>
   <g id="patch_11">
    <path clip-path="url(#p513a0a4665)" d="M 180.252434 307.584 
L 182.624553 307.584 
L 182.624553 307.419642 
L 180.252434 307.419642 
z
" style="fill:#0000ff;"/>
   </g>
   <g id="patch_12">
    <path clip-path="url(#p513a0a4665)" d="M 182.624554 307.584 
L 184.996671 307.584 
L 184.996671 307.529214 
L 182.624554 307.529214 
z
" style="fill:#0000ff;"/>
   </g>
   <g id="patch_13">
    <path clip-path="url(#p513a0a4665)" d="M 184.996671 307.584 
L 187.368788 307.584 
L 187.368788 307.255284 
L 184.996671 307.255284 
z
" style="fill:#0000ff;"/>
   </g>
   <g id="patch_14">
    <path clip-path="url(#p513a0a4665)" d="M 187.368788 307.584 
L 189.740907 307.584 
L 189.740907 307.419642 
L 187.368788 307.419642 
z
" style="fill:#0000ff;"/>
   </g>
   <g id="patch_15">
    <path clip-path="url(#p513a0a4665)" d="M 189.740905 307.584 
L 192.113026 307.584 
L 192.113026 307.364856 
L 189.740905 307.364856 
z
" style="fill:#0000ff;"/>
   </g>
   <g id="patch_16">
    <path clip-path="url(#p513a0a4665)" d="M 192.113026 307.584 
L 194.485143 307.584 
L 194.485143 307.255284 
L 192.113026 307.255284 
z
" style="fill:#0000ff;"/>
   </g>
   <g id="patch_17">
    <path clip-path="url(#p513a0a4665)" d="M 194.485139 307.584 
L 196.857256 307.584 
L 196.857256 306.926568 
L 194.485139 306.926568 
z
" style="fill:#0000ff;"/>
   </g>
   <g id="patch_18">
    <path clip-path="url(#p513a0a4665)" d="M 196.85726 307.584 
L 199.229376 307.584 
L 199.229376 307.145712 
L 196.85726 307.145712 
z
" style="fill:#0000ff;"/>
   </g>
   <g id="patch_19">
    <path clip-path="url(#p513a0a4665)" d="M 199.229373 307.584 
L 201.60149 307.584 
L 201.60149 307.03614 
L 199.229373 307.03614 
z
" style="fill:#0000ff;"/>
   </g>
   <g id="patch_20">
    <path clip-path="url(#p513a0a4665)" d="M 201.601493 307.584 
L 203.973614 307.584 
L 203.973614 307.31007 
L 201.601493 307.31007 
z
" style="fill:#0000ff;"/>
   </g>
   <g id="patch_21">
    <path clip-path="url(#p513a0a4665)" d="M 203.973614 307.584 
L 206.345731 307.584 
L 206.345731 306.816996 
L 203.973614 306.816996 
z
" style="fill:#0000ff;"/>
   </g>
   <g id="patch_22">
    <path clip-path="url(#p513a0a4665)" d="M 206.345727 307.584 
L 208.717844 307.584 
L 208.717844 306.981354 
L 206.345727 306.981354 
z
" style="fill:#0000ff;"/>
   </g>
   <g id="patch_23">
    <path clip-path="url(#p513a0a4665)" d="M 208.717848 307.584 
L 211.089965 307.584 
L 211.089965 306.816996 
L 208.717848 306.816996 
z
" style="fill:#0000ff;"/>
   </g>
   <g id="patch_24">
    <path clip-path="url(#p513a0a4665)" d="M 211.089961 307.584 
L 213.462078 307.584 
L 213.462078 305.94042 
L 211.089961 305.94042 
z
" style="fill:#0000ff;"/>
   </g>
   <g id="patch_25">
    <path clip-path="url(#p513a0a4665)" d="M 213.462082 307.584 
L 215.834202 307.584 
L 215.834202 306.48828 
L 213.462082 306.48828 
z
" style="fill:#0000ff;"/>
   </g>
   <g id="patch_26">
    <path clip-path="url(#p513a0a4665)" d="M 215.834202 307.584 
L 218.206319 307.584 
L 218.206319 306.049992 
L 215.834202 306.049992 
z
" style="fill:#0000ff;"/>
   </g>
   <g id="patch_27">
    <path clip-path="url(#p513a0a4665)" d="M 218.206315 307.584 
L 220.578432 307.584 
L 220.578432 306.48828 
L 218.206315 306.48828 
z
" style="fill:#0000ff;"/>
   </g>
   <g id="patch_28">
    <path clip-path="url(#p513a0a4665)" d="M 220.578436 307.584 
L 222.950556 307.584 
L 222.950556 305.995206 
L 220.578436 305.995206 
z
" style="fill:#0000ff;"/>
   </g>
   <g id="patch_29">
    <path clip-path="url(#p513a0a4665)" d="M 222.950556 307.584 
L 225.32267 307.584 
L 225.32267 306.159564 
L 222.950556 306.159564 
z
" style="fill:#0000ff;"/>
   </g>
   <g id="patch_30">
    <path clip-path="url(#p513a0a4665)" d="M 225.32267 307.584 
L 227.69479 307.584 
L 227.69479 305.282988 
L 225.32267 305.282988 
z
" style="fill:#0000ff;"/>
   </g>
   <g id="patch_31">
    <path clip-path="url(#p513a0a4665)" d="M 227.694797 307.584 
L 230.066911 307.584 
L 230.066911 306.269136 
L 227.694797 306.269136 
z
" style="fill:#0000ff;"/>
   </g>
   <g id="patch_32">
    <path clip-path="url(#p513a0a4665)" d="M 230.066904 307.584 
L 232.439024 307.584 
L 232.439024 304.57077 
L 230.066904 304.57077 
z
" style="fill:#0000ff;"/>
   </g>
   <g id="patch_33">
    <path clip-path="url(#p513a0a4665)" d="M 232.439024 307.584 
L 234.811145 307.584 
L 234.811145 304.8447 
L 232.439024 304.8447 
z
" style="fill:#0000ff;"/>
   </g>
   <g id="patch_34">
    <path clip-path="url(#p513a0a4665)" d="M 234.811145 307.584 
L 237.183258 307.584 
L 237.183258 304.625556 
L 234.811145 304.625556 
z
" style="fill:#0000ff;"/>
   </g>
   <g id="patch_35">
    <path clip-path="url(#p513a0a4665)" d="M 237.183258 307.584 
L 239.555378 307.584 
L 239.555378 303.639409 
L 237.183258 303.639409 
z
" style="fill:#0000ff;"/>
   </g>
   <g id="patch_36">
    <path clip-path="url(#p513a0a4665)" d="M 239.555385 307.584 
L 241.927499 307.584 
L 241.927499 304.735128 
L 239.555385 304.735128 
z
" style="fill:#0000ff;"/>
   </g>
   <g id="patch_37">
    <path clip-path="url(#p513a0a4665)" d="M 241.927492 307.584 
L 244.299612 307.584 
L 244.299612 302.214973 
L 241.927492 302.214973 
z
" style="fill:#0000ff;"/>
   </g>
   <g id="patch_38">
    <path clip-path="url(#p513a0a4665)" d="M 244.299612 307.584 
L 246.671733 307.584 
L 246.671733 303.694195 
L 244.299612 303.694195 
z
" style="fill:#0000ff;"/>
   </g>
   <g id="patch_39">
    <path clip-path="url(#p513a0a4665)" d="M 246.671733 307.584 
L 249.043846 307.584 
L 249.043846 300.845323 
L 246.671733 300.845323 
z
" style="fill:#0000ff;"/>
   </g>
   <g id="patch_40">
    <path clip-path="url(#p513a0a4665)" d="M 249.043846 307.584 
L 251.415967 307.584 
L 251.415967 302.981977 
L 249.043846 302.981977 
z
" style="fill:#0000ff;"/>
   </g>
   <g id="patch_41">
    <path clip-path="url(#p513a0a4665)" d="M 251.415974 307.584 
L 253.788087 307.584 
L 253.788087 299.968747 
L 251.415974 299.968747 
z
" style="fill:#0000ff;"/>
   </g>
   <g id="patch_42">
    <path clip-path="url(#p513a0a4665)" d="M 253.78808 307.584 
L 256.1602 307.584 
L 256.1602 302.434117 
L 253.78808 302.434117 
z
" style="fill:#0000ff;"/>
   </g>
   <g id="patch_43">
    <path clip-path="url(#p513a0a4665)" d="M 256.1602 307.584 
L 258.532321 307.584 
L 258.532321 297.886879 
L 256.1602 297.886879 
z
" style="fill:#0000ff;"/>
   </g>
   <g id="patch_44">
    <path clip-path="url(#p513a0a4665)" d="M 258.532321 307.584 
L 260.904434 307.584 
L 260.904434 297.229447 
L 258.532321 297.229447 
z
" style="fill:#0000ff;"/>
   </g>
   <g id="patch_45">
    <path clip-path="url(#p513a0a4665)" d="M 260.904434 307.584 
L 263.276555 307.584 
L 263.276555 298.434739 
L 260.904434 298.434739 
z
" style="fill:#0000ff;"/>
   </g>
   <g id="patch_46">
    <path clip-path="url(#p513a0a4665)" d="M 263.276562 307.584 
L 265.648675 307.584 
L 265.648675 284.793027 
L 263.276562 284.793027 
z
" style="fill:#0000ff;"/>
   </g>
   <g id="patch_47">
    <path clip-path="url(#p513a0a4665)" d="M 265.648668 307.584 
L 268.020789 307.584 
L 268.020789 279.204856 
L 265.648668 279.204856 
z
" style="fill:#0000ff;"/>
   </g>
   <g id="patch_48">
    <path clip-path="url(#p513a0a4665)" d="M 268.020789 307.584 
L 270.392909 307.584 
L 270.392909 256.578241 
L 268.020789 256.578241 
z
" style="fill:#0000ff;"/>
   </g>
   <g id="patch_49">
    <path clip-path="url(#p513a0a4665)" d="M 270.392909 307.584 
L 272.765022 307.584 
L 272.765022 270.767813 
L 270.392909 270.767813 
z
" style="fill:#0000ff;"/>
   </g>
   <g id="patch_50">
    <path clip-path="url(#p513a0a4665)" d="M 272.765022 307.584 
L 275.137143 307.584 
L 275.137143 248.25077 
L 272.765022 248.25077 
z
" style="fill:#0000ff;"/>
   </g>
   <g id="patch_51">
    <path clip-path="url(#p513a0a4665)" d="M 275.13715 307.584 
L 277.509263 307.584 
L 277.509263 271.260887 
L 275.13715 271.260887 
z
" style="fill:#0000ff;"/>
   </g>
   <g id="patch_52">
    <path clip-path="url(#p513a0a4665)" d="M 277.509256 307.584 
L 279.881377 307.584 
L 279.881377 253.510226 
L 277.509256 253.510226 
z
" style="fill:#0000ff;"/>
   </g>
   <g id="patch_53">
    <path clip-path="url(#p513a0a4665)" d="M 279.88137 307.584 
L 282.253483 307.584 
L 282.253483 263.316918 
L 279.88137 263.316918 
z
" style="fill:#0000ff;"/>
   </g>
   <g id="patch_54">
    <path clip-path="url(#p513a0a4665)" d="M 282.253511 307.584 
L 284.625632 307.584 
L 284.625632 288.682833 
L 282.253511 288.682833 
z
" style="fill:#0000ff;"/>
   </g>
   <g id="patch_55">
    <path clip-path="url(#p513a0a4665)" d="M 284.625618 307.584 
L 286.997724 307.584 
L 286.997724 290.271626 
L 284.625618 290.271626 
z
" style="fill:#0000ff;"/>
   </g>
   <g id="patch_56">
    <path clip-path="url(#p513a0a4665)" d="M 286.997724 307.584 
L 289.369844 307.584 
L 289.369844 298.215595 
L 286.997724 298.215595 
z
" style="fill:#0000ff;"/>
   </g>
   <g id="patch_57">
    <path clip-path="url(#p513a0a4665)" d="M 289.369859 307.584 
L 291.741979 307.584 
L 291.741979 296.462444 
L 289.369859 296.462444 
z
" style="fill:#0000ff;"/>
   </g>
   <g id="patch_58">
    <path clip-path="url(#p513a0a4665)" d="M 291.741965 307.584 
L 294.114085 307.584 
L 294.114085 299.694817 
L 291.741965 299.694817 
z
" style="fill:#0000ff;"/>
   </g>
   <g id="patch_59">
    <path clip-path="url(#p513a0a4665)" d="M 294.1141 307.584 
L 296.48622 307.584 
L 296.48622 297.229447 
L 294.1141 297.229447 
z
" style="fill:#0000ff;"/>
   </g>
   <g id="patch_60">
    <path clip-path="url(#p513a0a4665)" d="M 296.486206 307.584 
L 298.858312 307.584 
L 298.858312 300.954895 
L 296.486206 300.954895 
z
" style="fill:#0000ff;"/>
   </g>
   <g id="patch_61">
    <path clip-path="url(#p513a0a4665)" d="M 298.858312 307.584 
L 301.230433 307.584 
L 301.230433 299.694817 
L 298.858312 299.694817 
z
" style="fill:#0000ff;"/>
   </g>
   <g id="patch_62">
    <path clip-path="url(#p513a0a4665)" d="M 301.230447 307.584 
L 303.602567 307.584 
L 303.602567 303.255907 
L 301.230447 303.255907 
z
" style="fill:#0000ff;"/>
   </g>
   <g id="patch_63">
    <path clip-path="url(#p513a0a4665)" d="M 303.602553 307.584 
L 305.974674 307.584 
L 305.974674 301.667113 
L 303.602553 301.667113 
z
" style="fill:#0000ff;"/>
   </g>
   <g id="patch_64">
    <path clip-path="url(#p513a0a4665)" d="M 305.974688 307.584 
L 308.346808 307.584 
L 308.346808 302.598475 
L 305.974688 302.598475 
z
" style="fill:#0000ff;"/>
   </g>
   <g id="patch_65">
    <path clip-path="url(#p513a0a4665)" d="M 308.346794 307.584 
L 310.7189 307.584 
L 310.7189 304.8447 
L 308.346794 304.8447 
z
" style="fill:#0000ff;"/>
   </g>
   <g id="patch_66">
    <path clip-path="url(#p513a0a4665)" d="M 310.7189 307.584 
L 313.091021 307.584 
L 313.091021 304.022911 
L 310.7189 304.022911 
z
" style="fill:#0000ff;"/>
   </g>
   <g id="patch_67">
    <path clip-path="url(#p513a0a4665)" d="M 313.091035 307.584 
L 315.463155 307.584 
L 315.463155 305.94042 
L 313.091035 305.94042 
z
" style="fill:#0000ff;"/>
   </g>
   <g id="patch_68">
    <path clip-path="url(#p513a0a4665)" d="M 315.463141 307.584 
L 317.835262 307.584 
L 317.835262 304.899486 
L 315.463141 304.899486 
z
" style="fill:#0000ff;"/>
   </g>
   <g id="patch_69">
    <path clip-path="url(#p513a0a4665)" d="M 317.835276 307.584 
L 320.207396 307.584 
L 320.207396 306.159564 
L 317.835276 306.159564 
z
" style="fill:#0000ff;"/>
   </g>
   <g id="patch_70">
    <path clip-path="url(#p513a0a4665)" d="M 320.207382 307.584 
L 322.579489 307.584 
L 322.579489 306.378708 
L 320.207382 306.378708 
z
" style="fill:#0000ff;"/>
   </g>
   <g id="patch_71">
    <path clip-path="url(#p513a0a4665)" d="M 322.579489 307.584 
L 324.951609 307.584 
L 324.951609 306.48828 
L 322.579489 306.48828 
z
" style="fill:#0000ff;"/>
   </g>
   <g id="patch_72">
    <path clip-path="url(#p513a0a4665)" d="M 324.951623 307.584 
L 327.323744 307.584 
L 327.323744 306.871782 
L 324.951623 306.871782 
z
" style="fill:#0000ff;"/>
   </g>
   <g id="patch_73">
    <path clip-path="url(#p513a0a4665)" d="M 327.323729 307.584 
L 329.69585 307.584 
L 329.69585 306.816996 
L 327.323729 306.816996 
z
" style="fill:#0000ff;"/>
   </g>
   <g id="patch_74">
    <path clip-path="url(#p513a0a4665)" d="M 329.695864 307.584 
L 332.067985 307.584 
L 332.067985 307.200498 
L 329.695864 307.200498 
z
" style="fill:#0000ff;"/>
   </g>
   <g id="patch_75">
    <path clip-path="url(#p513a0a4665)" d="M 332.06797 307.584 
L 334.440077 307.584 
L 334.440077 307.090926 
L 332.06797 307.090926 
z
" style="fill:#0000ff;"/>
   </g>
   <g id="patch_76">
    <path clip-path="url(#p513a0a4665)" d="M 334.440077 307.584 
L 336.812197 307.584 
L 336.812197 307.419642 
L 334.440077 307.419642 
z
" style="fill:#0000ff;"/>
   </g>
   <g id="patch_77">
    <path clip-path="url(#p513a0a4665)" d="M 336.812211 307.584 
L 339.184332 307.584 
L 339.184332 307.090926 
L 336.812211 307.090926 
z
" style="fill:#0000ff;"/>
   </g>
   <g id="patch_78">
    <path clip-path="url(#p513a0a4665)" d="M 339.184318 307.584 
L 341.556438 307.584 
L 341.556438 307.419642 
L 339.184318 307.419642 
z
" style="fill:#0000ff;"/>
   </g>
   <g id="patch_79">
    <path clip-path="url(#p513a0a4665)" d="M 341.556452 307.584 
L 343.928573 307.584 
L 343.928573 307.364856 
L 341.556452 307.364856 
z
" style="fill:#0000ff;"/>
   </g>
   <g id="patch_80">
    <path clip-path="url(#p513a0a4665)" d="M 343.928559 307.584 
L 346.300665 307.584 
L 346.300665 307.474428 
L 343.928559 307.474428 
z
" style="fill:#0000ff;"/>
   </g>
   <g id="patch_81">
    <path clip-path="url(#p513a0a4665)" d="M 346.300665 307.584 
L 348.672785 307.584 
L 348.672785 307.529214 
L 346.300665 307.529214 
z
" style="fill:#0000ff;"/>
   </g>
   <g id="patch_82">
    <path clip-path="url(#p513a0a4665)" d="M 348.6728 307.584 
L 351.04492 307.584 
L 351.04492 307.474428 
L 348.6728 307.474428 
z
" style="fill:#0000ff;"/>
   </g>
   <g id="patch_83">
    <path clip-path="url(#p513a0a4665)" d="M 351.044906 307.584 
L 353.417026 307.584 
L 353.417026 307.474428 
L 351.044906 307.474428 
z
" style="fill:#0000ff;"/>
   </g>
   <g id="patch_84">
    <path clip-path="url(#p513a0a4665)" d="M 353.41704 307.584 
L 355.789161 307.584 
L 355.789161 307.584 
L 353.41704 307.584 
z
" style="fill:#0000ff;"/>
   </g>
   <g id="patch_85">
    <path clip-path="url(#p513a0a4665)" d="M 355.789147 307.584 
L 358.161253 307.584 
L 358.161253 307.584 
L 355.789147 307.584 
z
" style="fill:#0000ff;"/>
   </g>
   <g id="patch_86">
    <path clip-path="url(#p513a0a4665)" d="M 358.161253 307.584 
L 360.533374 307.584 
L 360.533374 307.529214 
L 358.161253 307.529214 
z
" style="fill:#0000ff;"/>
   </g>
   <g id="patch_87">
    <path clip-path="url(#p513a0a4665)" d="M 360.533388 307.584 
L 362.905508 307.584 
L 362.905508 307.584 
L 360.533388 307.584 
z
" style="fill:#0000ff;"/>
   </g>
   <g id="patch_88">
    <path clip-path="url(#p513a0a4665)" d="M 362.905494 307.584 
L 365.277614 307.584 
L 365.277614 307.584 
L 362.905494 307.584 
z
" style="fill:#0000ff;"/>
   </g>
   <g id="patch_89">
    <path clip-path="url(#p513a0a4665)" d="M 365.277629 307.584 
L 367.649749 307.584 
L 367.649749 307.529214 
L 365.277629 307.529214 
z
" style="fill:#0000ff;"/>
   </g>
   <g id="patch_90">
    <path clip-path="url(#p513a0a4665)" d="M 367.649735 307.584 
L 370.021841 307.584 
L 370.021841 307.584 
L 367.649735 307.584 
z
" style="fill:#0000ff;"/>
   </g>
   <g id="patch_91">
    <path clip-path="url(#p513a0a4665)" d="M 370.021841 307.584 
L 372.393962 307.584 
L 372.393962 307.584 
L 370.021841 307.584 
z
" style="fill:#0000ff;"/>
   </g>
   <g id="patch_92">
    <path clip-path="url(#p513a0a4665)" d="M 372.393976 307.584 
L 374.766096 307.584 
L 374.766096 307.584 
L 372.393976 307.584 
z
" style="fill:#0000ff;"/>
   </g>
   <g id="patch_93">
    <path clip-path="url(#p513a0a4665)" d="M 374.766082 307.584 
L 377.138203 307.584 
L 377.138203 307.529214 
L 374.766082 307.529214 
z
" style="fill:#0000ff;"/>
   </g>
   <g id="patch_94">
    <path clip-path="url(#p513a0a4665)" d="M 377.138217 307.584 
L 379.510337 307.584 
L 379.510337 307.529214 
L 377.138217 307.529214 
z
" style="fill:#0000ff;"/>
   </g>
   <g id="patch_95">
    <path clip-path="url(#p513a0a4665)" d="M 379.510323 307.584 
L 381.882429 307.584 
L 381.882429 307.529214 
L 379.510323 307.529214 
z
" style="fill:#0000ff;"/>
   </g>
   <g id="patch_96">
    <path clip-path="url(#p513a0a4665)" d="M 381.882429 307.584 
L 384.25455 307.584 
L 384.25455 307.584 
L 381.882429 307.584 
z
" style="fill:#0000ff;"/>
   </g>
   <g id="patch_97">
    <path clip-path="url(#p513a0a4665)" d="M 384.254564 307.584 
L 386.626685 307.584 
L 386.626685 307.584 
L 384.254564 307.584 
z
" style="fill:#0000ff;"/>
   </g>
   <g id="patch_98">
    <path clip-path="url(#p513a0a4665)" d="M 386.62667 307.584 
L 388.998791 307.584 
L 388.998791 307.584 
L 386.62667 307.584 
z
" style="fill:#0000ff;"/>
   </g>
   <g id="patch_99">
    <path clip-path="url(#p513a0a4665)" d="M 388.998805 307.584 
L 391.370925 307.584 
L 391.370925 307.584 
L 388.998805 307.584 
z
" style="fill:#0000ff;"/>
   </g>
   <g id="patch_100">
    <path clip-path="url(#p513a0a4665)" d="M 391.370911 307.584 
L 393.743018 307.584 
L 393.743018 307.584 
L 391.370911 307.584 
z
" style="fill:#0000ff;"/>
   </g>
   <g id="patch_101">
    <path clip-path="url(#p513a0a4665)" d="M 393.743018 307.584 
L 396.115138 307.584 
L 396.115138 307.584 
L 393.743018 307.584 
z
" style="fill:#0000ff;"/>
   </g>
   <g id="patch_102">
    <path clip-path="url(#p513a0a4665)" d="M 396.115152 307.584 
L 398.487273 307.584 
L 398.487273 307.529214 
L 396.115152 307.529214 
z
" style="fill:#0000ff;"/>
   </g>
   <g id="patch_103">
    <path clip-path="url(#p513a0a4665)" d="M 73.832727 307.584 
L 75.646697 307.584 
L 75.646697 295.69544 
L 73.832727 295.69544 
z
" style="fill:#808080;"/>
   </g>
   <g id="patch_104">
    <path clip-path="url(#p513a0a4665)" d="M 75.646697 307.584 
L 77.460673 307.584 
L 77.460673 291.915206 
L 75.646697 291.915206 
z
" style="fill:#808080;"/>
   </g>
   <g id="patch_105">
    <path clip-path="url(#p513a0a4665)" d="M 77.460673 307.584 
L 79.274643 307.584 
L 79.274643 307.584 
L 77.460673 307.584 
z
" style="fill:#808080;"/>
   </g>
   <g id="patch_106">
    <path clip-path="url(#p513a0a4665)" d="M 79.274636 307.584 
L 81.088612 307.584 
L 81.088612 307.584 
L 79.274636 307.584 
z
" style="fill:#808080;"/>
   </g>
   <g id="patch_107">
    <path clip-path="url(#p513a0a4665)" d="M 81.088619 307.584 
L 82.902589 307.584 
L 82.902589 307.584 
L 81.088619 307.584 
z
" style="fill:#808080;"/>
   </g>
   <g id="patch_108">
    <path clip-path="url(#p513a0a4665)" d="M 82.902589 307.584 
L 84.716558 307.584 
L 84.716558 307.584 
L 82.902589 307.584 
z
" style="fill:#808080;"/>
   </g>
   <g id="patch_109">
    <path clip-path="url(#p513a0a4665)" d="M 84.716558 307.584 
L 86.530535 307.584 
L 86.530535 307.584 
L 84.716558 307.584 
z
" style="fill:#808080;"/>
   </g>
   <g id="patch_110">
    <path clip-path="url(#p513a0a4665)" d="M 86.530535 307.584 
L 88.344504 307.584 
L 88.344504 307.584 
L 86.530535 307.584 
z
" style="fill:#808080;"/>
   </g>
   <g id="patch_111">
    <path clip-path="url(#p513a0a4665)" d="M 88.344497 307.584 
L 90.158474 307.584 
L 90.158474 307.584 
L 88.344497 307.584 
z
" style="fill:#808080;"/>
   </g>
   <g id="patch_112">
    <path clip-path="url(#p513a0a4665)" d="M 90.158481 307.584 
L 91.97245 307.584 
L 91.97245 307.584 
L 90.158481 307.584 
z
" style="fill:#808080;"/>
   </g>
   <g id="patch_113">
    <path clip-path="url(#p513a0a4665)" d="M 91.97245 307.584 
L 93.78642 307.584 
L 93.78642 307.584 
L 91.97245 307.584 
z
" style="fill:#808080;"/>
   </g>
   <g id="patch_114">
    <path clip-path="url(#p513a0a4665)" d="M 93.78642 307.584 
L 95.600396 307.584 
L 95.600396 307.584 
L 93.78642 307.584 
z
" style="fill:#808080;"/>
   </g>
   <g id="patch_115">
    <path clip-path="url(#p513a0a4665)" d="M 95.600396 307.584 
L 97.414366 307.584 
L 97.414366 307.584 
L 95.600396 307.584 
z
" style="fill:#808080;"/>
   </g>
   <g id="patch_116">
    <path clip-path="url(#p513a0a4665)" d="M 97.414359 307.584 
L 99.228335 307.584 
L 99.228335 307.584 
L 97.414359 307.584 
z
" style="fill:#808080;"/>
   </g>
   <g id="patch_117">
    <path clip-path="url(#p513a0a4665)" d="M 99.228342 307.584 
L 101.042312 307.584 
L 101.042312 307.584 
L 99.228342 307.584 
z
" style="fill:#808080;"/>
   </g>
   <g id="patch_118">
    <path clip-path="url(#p513a0a4665)" d="M 101.042312 307.584 
L 102.856288 307.584 
L 102.856288 307.584 
L 101.042312 307.584 
z
" style="fill:#808080;"/>
   </g>
   <g id="patch_119">
    <path clip-path="url(#p513a0a4665)" d="M 102.856285 307.584 
L 104.670261 307.584 
L 104.670261 307.584 
L 102.856285 307.584 
z
" style="fill:#808080;"/>
   </g>
   <g id="patch_120">
    <path clip-path="url(#p513a0a4665)" d="M 104.670258 307.584 
L 106.484227 307.584 
L 106.484227 307.584 
L 104.670258 307.584 
z
" style="fill:#808080;"/>
   </g>
   <g id="patch_121">
    <path clip-path="url(#p513a0a4665)" d="M 106.484224 307.584 
L 108.2982 307.584 
L 108.2982 307.584 
L 106.484224 307.584 
z
" style="fill:#808080;"/>
   </g>
   <g id="patch_122">
    <path clip-path="url(#p513a0a4665)" d="M 108.2982 307.584 
L 110.112177 307.584 
L 110.112177 307.584 
L 108.2982 307.584 
z
" style="fill:#808080;"/>
   </g>
   <g id="patch_123">
    <path clip-path="url(#p513a0a4665)" d="M 110.11217 307.584 
L 111.926146 307.584 
L 111.926146 307.584 
L 110.11217 307.584 
z
" style="fill:#808080;"/>
   </g>
   <g id="patch_124">
    <path clip-path="url(#p513a0a4665)" d="M 111.926146 307.584 
L 113.740123 307.584 
L 113.740123 307.584 
L 111.926146 307.584 
z
" style="fill:#808080;"/>
   </g>
   <g id="patch_125">
    <path clip-path="url(#p513a0a4665)" d="M 113.740119 307.584 
L 115.554089 307.584 
L 115.554089 307.584 
L 113.740119 307.584 
z
" style="fill:#808080;"/>
   </g>
   <g id="patch_126">
    <path clip-path="url(#p513a0a4665)" d="M 115.554085 307.584 
L 117.368062 307.584 
L 117.368062 307.584 
L 115.554085 307.584 
z
" style="fill:#808080;"/>
   </g>
   <g id="patch_127">
    <path clip-path="url(#p513a0a4665)" d="M 117.368062 307.584 
L 119.182039 307.584 
L 119.182039 307.584 
L 117.368062 307.584 
z
" style="fill:#808080;"/>
   </g>
   <g id="patch_128">
    <path clip-path="url(#p513a0a4665)" d="M 119.182031 307.584 
L 120.996008 307.584 
L 120.996008 307.584 
L 119.182031 307.584 
z
" style="fill:#808080;"/>
   </g>
   <g id="patch_129">
    <path clip-path="url(#p513a0a4665)" d="M 120.996008 307.584 
L 122.809985 307.584 
L 122.809985 307.584 
L 120.996008 307.584 
z
" style="fill:#808080;"/>
   </g>
   <g id="patch_130">
    <path clip-path="url(#p513a0a4665)" d="M 122.809981 307.584 
L 124.623951 307.584 
L 124.623951 307.584 
L 122.809981 307.584 
z
" style="fill:#808080;"/>
   </g>
   <g id="patch_131">
    <path clip-path="url(#p513a0a4665)" d="M 124.623947 307.584 
L 126.437924 307.584 
L 126.437924 307.584 
L 124.623947 307.584 
z
" style="fill:#808080;"/>
   </g>
   <g id="patch_132">
    <path clip-path="url(#p513a0a4665)" d="M 126.437924 307.584 
L 128.2519 307.584 
L 128.2519 307.584 
L 126.437924 307.584 
z
" style="fill:#808080;"/>
   </g>
   <g id="patch_133">
    <path clip-path="url(#p513a0a4665)" d="M 128.251893 307.584 
L 130.06587 307.584 
L 130.06587 307.584 
L 128.251893 307.584 
z
" style="fill:#808080;"/>
   </g>
   <g id="patch_134">
    <path clip-path="url(#p513a0a4665)" d="M 130.06587 307.584 
L 131.879839 307.584 
L 131.879839 307.584 
L 130.06587 307.584 
z
" style="fill:#808080;"/>
   </g>
   <g id="patch_135">
    <path clip-path="url(#p513a0a4665)" d="M 131.879839 307.584 
L 133.693816 307.584 
L 133.693816 174.289681 
L 131.879839 174.289681 
z
" style="fill:#808080;"/>
   </g>
   <g id="patch_136">
    <path clip-path="url(#p513a0a4665)" d="M 133.693816 307.584 
L 135.507785 307.584 
L 135.507785 54.144 
L 133.693816 54.144 
z
" style="fill:#808080;"/>
   </g>
   <g id="patch_137">
    <path clip-path="url(#p513a0a4665)" d="M 135.507783 307.584 
L 137.32176 307.584 
L 137.32176 179.549136 
L 135.507783 179.549136 
z
" style="fill:#808080;"/>
   </g>
   <g id="patch_138">
    <path clip-path="url(#p513a0a4665)" d="M 137.321756 307.584 
L 139.135733 307.584 
L 139.135733 307.584 
L 137.321756 307.584 
z
" style="fill:#808080;"/>
   </g>
   <g id="patch_139">
    <path clip-path="url(#p513a0a4665)" d="M 139.135731 307.584 
L 140.949701 307.584 
L 140.949701 307.584 
L 139.135731 307.584 
z
" style="fill:#808080;"/>
   </g>
   <g id="patch_140">
    <path clip-path="url(#p513a0a4665)" d="M 140.949701 307.584 
L 142.763677 307.584 
L 142.763677 307.584 
L 140.949701 307.584 
z
" style="fill:#808080;"/>
   </g>
   <g id="patch_141">
    <path clip-path="url(#p513a0a4665)" d="M 142.763677 307.584 
L 144.577647 307.584 
L 144.577647 307.584 
L 142.763677 307.584 
z
" style="fill:#808080;"/>
   </g>
   <g id="patch_142">
    <path clip-path="url(#p513a0a4665)" d="M 144.577645 307.584 
L 146.391621 307.584 
L 146.391621 307.584 
L 144.577645 307.584 
z
" style="fill:#808080;"/>
   </g>
   <g id="patch_143">
    <path clip-path="url(#p513a0a4665)" d="M 146.391621 307.584 
L 148.205591 307.584 
L 148.205591 307.584 
L 146.391621 307.584 
z
" style="fill:#808080;"/>
   </g>
   <g id="patch_144">
    <path clip-path="url(#p513a0a4665)" d="M 148.205593 307.584 
L 150.019562 307.584 
L 150.019562 307.584 
L 148.205593 307.584 
z
" style="fill:#808080;"/>
   </g>
   <g id="patch_145">
    <path clip-path="url(#p513a0a4665)" d="M 150.019562 307.584 
L 151.833539 307.584 
L 151.833539 307.584 
L 150.019562 307.584 
z
" style="fill:#808080;"/>
   </g>
   <g id="patch_146">
    <path clip-path="url(#p513a0a4665)" d="M 151.833539 307.584 
L 153.647508 307.584 
L 153.647508 307.584 
L 151.833539 307.584 
z
" style="fill:#808080;"/>
   </g>
   <g id="patch_147">
    <path clip-path="url(#p513a0a4665)" d="M 153.64751 307.584 
L 155.461479 307.584 
L 155.461479 307.584 
L 153.64751 307.584 
z
" style="fill:#808080;"/>
   </g>
   <g id="patch_148">
    <path clip-path="url(#p513a0a4665)" d="M 155.461483 307.584 
L 157.275452 307.584 
L 157.275452 307.584 
L 155.461483 307.584 
z
" style="fill:#808080;"/>
   </g>
   <g id="patch_149">
    <path clip-path="url(#p513a0a4665)" d="M 157.275455 307.584 
L 159.089425 307.584 
L 159.089425 307.584 
L 157.275455 307.584 
z
" style="fill:#808080;"/>
   </g>
   <g id="patch_150">
    <path clip-path="url(#p513a0a4665)" d="M 159.089427 307.584 
L 160.903397 307.584 
L 160.903397 307.584 
L 159.089427 307.584 
z
" style="fill:#808080;"/>
   </g>
   <g id="patch_151">
    <path clip-path="url(#p513a0a4665)" d="M 160.903399 307.584 
L 162.717369 307.584 
L 162.717369 307.584 
L 160.903399 307.584 
z
" style="fill:#808080;"/>
   </g>
   <g id="patch_152">
    <path clip-path="url(#p513a0a4665)" d="M 162.717372 307.584 
L 164.531341 307.584 
L 164.531341 307.584 
L 162.717372 307.584 
z
" style="fill:#808080;"/>
   </g>
   <g id="patch_153">
    <path clip-path="url(#p513a0a4665)" d="M 164.531344 307.584 
L 166.345314 307.584 
L 166.345314 307.584 
L 164.531344 307.584 
z
" style="fill:#808080;"/>
   </g>
   <g id="patch_154">
    <path clip-path="url(#p513a0a4665)" d="M 166.345317 307.584 
L 168.159286 307.584 
L 168.159286 307.584 
L 166.345317 307.584 
z
" style="fill:#808080;"/>
   </g>
   <g id="patch_155">
    <path clip-path="url(#p513a0a4665)" d="M 168.159289 307.584 
L 169.973258 307.584 
L 169.973258 307.584 
L 168.159289 307.584 
z
" style="fill:#808080;"/>
   </g>
   <g id="patch_156">
    <path clip-path="url(#p513a0a4665)" d="M 169.973262 307.584 
L 171.787231 307.584 
L 171.787231 307.584 
L 169.973262 307.584 
z
" style="fill:#808080;"/>
   </g>
   <g id="patch_157">
    <path clip-path="url(#p513a0a4665)" d="M 171.787233 307.584 
L 173.601203 307.584 
L 173.601203 307.584 
L 171.787233 307.584 
z
" style="fill:#808080;"/>
   </g>
   <g id="patch_158">
    <path clip-path="url(#p513a0a4665)" d="M 173.601206 307.584 
L 175.415176 307.584 
L 175.415176 307.584 
L 173.601206 307.584 
z
" style="fill:#808080;"/>
   </g>
   <g id="patch_159">
    <path clip-path="url(#p513a0a4665)" d="M 175.415177 307.584 
L 177.229147 307.584 
L 177.229147 307.584 
L 175.415177 307.584 
z
" style="fill:#808080;"/>
   </g>
   <g id="patch_160">
    <path clip-path="url(#p513a0a4665)" d="M 177.229147 307.584 
L 179.043123 307.584 
L 179.043123 307.584 
L 177.229147 307.584 
z
" style="fill:#808080;"/>
   </g>
   <g id="patch_161">
    <path clip-path="url(#p513a0a4665)" d="M 179.043123 307.584 
L 180.857093 307.584 
L 180.857093 307.584 
L 179.043123 307.584 
z
" style="fill:#808080;"/>
   </g>
   <g id="patch_162">
    <path clip-path="url(#p513a0a4665)" d="M 180.857091 307.584 
L 182.671068 307.584 
L 182.671068 307.584 
L 180.857091 307.584 
z
" style="fill:#808080;"/>
   </g>
   <g id="patch_163">
    <path clip-path="url(#p513a0a4665)" d="M 182.671064 307.584 
L 184.485041 307.584 
L 184.485041 307.584 
L 182.671064 307.584 
z
" style="fill:#808080;"/>
   </g>
   <g id="patch_164">
    <path clip-path="url(#p513a0a4665)" d="M 184.485039 307.584 
L 186.299008 307.584 
L 186.299008 307.584 
L 184.485039 307.584 
z
" style="fill:#808080;"/>
   </g>
   <g id="patch_165">
    <path clip-path="url(#p513a0a4665)" d="M 186.299008 307.584 
L 188.112985 307.584 
L 188.112985 307.584 
L 186.299008 307.584 
z
" style="fill:#808080;"/>
   </g>
   <g id="patch_166">
    <path clip-path="url(#p513a0a4665)" d="M 188.112985 307.584 
L 189.926954 307.584 
L 189.926954 307.584 
L 188.112985 307.584 
z
" style="fill:#808080;"/>
   </g>
   <g id="patch_167">
    <path clip-path="url(#p513a0a4665)" d="M 189.926953 307.584 
L 191.740927 307.584 
L 191.740927 307.584 
L 189.926953 307.584 
z
" style="fill:#808080;"/>
   </g>
   <g id="patch_168">
    <path clip-path="url(#p513a0a4665)" d="M 191.740924 307.584 
L 193.5549 307.584 
L 193.5549 305.11863 
L 191.740924 305.11863 
z
" style="fill:#808080;"/>
   </g>
   <g id="patch_169">
    <path clip-path="url(#p513a0a4665)" d="M 193.5549 307.584 
L 195.368877 307.584 
L 195.368877 302.214973 
L 193.5549 302.214973 
z
" style="fill:#808080;"/>
   </g>
   <g id="patch_170">
    <path clip-path="url(#p513a0a4665)" d="M 195.368873 307.584 
L 197.182843 307.584 
L 197.182843 305.556918 
L 195.368873 305.556918 
z
" style="fill:#808080;"/>
   </g>
   <g id="patch_171">
    <path clip-path="url(#p513a0a4665)" d="M 197.182839 307.584 
L 198.996816 307.584 
L 198.996816 307.584 
L 197.182839 307.584 
z
" style="fill:#808080;"/>
   </g>
   <g id="patch_172">
    <path clip-path="url(#p513a0a4665)" d="M 198.996816 307.584 
L 200.810792 307.584 
L 200.810792 307.584 
L 198.996816 307.584 
z
" style="fill:#808080;"/>
   </g>
   <g id="patch_173">
    <path clip-path="url(#p513a0a4665)" d="M 200.810785 307.584 
L 202.624762 307.584 
L 202.624762 307.584 
L 200.810785 307.584 
z
" style="fill:#808080;"/>
   </g>
   <g id="patch_174">
    <path clip-path="url(#p513a0a4665)" d="M 202.624762 307.584 
L 204.438739 307.584 
L 204.438739 307.584 
L 202.624762 307.584 
z
" style="fill:#808080;"/>
   </g>
   <g id="patch_175">
    <path clip-path="url(#p513a0a4665)" d="M 204.438735 307.584 
L 206.252704 307.584 
L 206.252704 307.584 
L 204.438735 307.584 
z
" style="fill:#808080;"/>
   </g>
   <g id="patch_176">
    <path clip-path="url(#p513a0a4665)" d="M 206.252701 307.584 
L 208.066677 307.584 
L 208.066677 307.584 
L 206.252701 307.584 
z
" style="fill:#808080;"/>
   </g>
   <g id="patch_177">
    <path clip-path="url(#p513a0a4665)" d="M 208.066677 307.584 
L 209.880654 307.584 
L 209.880654 307.584 
L 208.066677 307.584 
z
" style="fill:#808080;"/>
   </g>
   <g id="patch_178">
    <path clip-path="url(#p513a0a4665)" d="M 209.880647 307.584 
L 211.694623 307.584 
L 211.694623 307.584 
L 209.880647 307.584 
z
" style="fill:#808080;"/>
   </g>
   <g id="patch_179">
    <path clip-path="url(#p513a0a4665)" d="M 211.694623 307.584 
L 213.5086 307.584 
L 213.5086 307.584 
L 211.694623 307.584 
z
" style="fill:#808080;"/>
   </g>
   <g id="patch_180">
    <path clip-path="url(#p513a0a4665)" d="M 213.508597 307.584 
L 215.322566 307.584 
L 215.322566 307.584 
L 213.508597 307.584 
z
" style="fill:#808080;"/>
   </g>
   <g id="patch_181">
    <path clip-path="url(#p513a0a4665)" d="M 215.322562 307.584 
L 217.136539 307.584 
L 217.136539 307.584 
L 215.322562 307.584 
z
" style="fill:#808080;"/>
   </g>
   <g id="patch_182">
    <path clip-path="url(#p513a0a4665)" d="M 217.136539 307.584 
L 218.950516 307.584 
L 218.950516 307.584 
L 217.136539 307.584 
z
" style="fill:#808080;"/>
   </g>
   <g id="patch_183">
    <path clip-path="url(#p513a0a4665)" d="M 218.950508 307.584 
L 220.764485 307.584 
L 220.764485 307.584 
L 218.950508 307.584 
z
" style="fill:#808080;"/>
   </g>
   <g id="patch_184">
    <path clip-path="url(#p513a0a4665)" d="M 220.764485 307.584 
L 222.578465 307.584 
L 222.578465 307.584 
L 220.764485 307.584 
z
" style="fill:#808080;"/>
   </g>
   <g id="patch_185">
    <path clip-path="url(#p513a0a4665)" d="M 222.578458 307.584 
L 224.392428 307.584 
L 224.392428 307.584 
L 222.578458 307.584 
z
" style="fill:#808080;"/>
   </g>
   <g id="patch_186">
    <path clip-path="url(#p513a0a4665)" d="M 224.39242 307.584 
L 226.206397 307.584 
L 226.206397 307.584 
L 224.39242 307.584 
z
" style="fill:#808080;"/>
   </g>
   <g id="patch_187">
    <path clip-path="url(#p513a0a4665)" d="M 226.206404 307.584 
L 228.020374 307.584 
L 228.020374 307.584 
L 226.206404 307.584 
z
" style="fill:#808080;"/>
   </g>
   <g id="patch_188">
    <path clip-path="url(#p513a0a4665)" d="M 228.020374 307.584 
L 229.834343 307.584 
L 229.834343 307.584 
L 228.020374 307.584 
z
" style="fill:#808080;"/>
   </g>
   <g id="patch_189">
    <path clip-path="url(#p513a0a4665)" d="M 229.834343 307.584 
L 231.64832 307.584 
L 231.64832 307.584 
L 229.834343 307.584 
z
" style="fill:#808080;"/>
   </g>
   <g id="patch_190">
    <path clip-path="url(#p513a0a4665)" d="M 231.64832 307.584 
L 233.462289 307.584 
L 233.462289 307.584 
L 231.64832 307.584 
z
" style="fill:#808080;"/>
   </g>
   <g id="patch_191">
    <path clip-path="url(#p513a0a4665)" d="M 233.462282 307.584 
L 235.276259 307.584 
L 235.276259 307.584 
L 233.462282 307.584 
z
" style="fill:#808080;"/>
   </g>
   <g id="patch_192">
    <path clip-path="url(#p513a0a4665)" d="M 235.276266 307.584 
L 237.090235 307.584 
L 237.090235 307.584 
L 235.276266 307.584 
z
" style="fill:#808080;"/>
   </g>
   <g id="patch_193">
    <path clip-path="url(#p513a0a4665)" d="M 237.090235 307.584 
L 238.904205 307.584 
L 238.904205 307.584 
L 237.090235 307.584 
z
" style="fill:#808080;"/>
   </g>
   <g id="patch_194">
    <path clip-path="url(#p513a0a4665)" d="M 238.904205 307.584 
L 240.718181 307.584 
L 240.718181 307.584 
L 238.904205 307.584 
z
" style="fill:#808080;"/>
   </g>
   <g id="patch_195">
    <path clip-path="url(#p513a0a4665)" d="M 240.718181 307.584 
L 242.532151 307.584 
L 242.532151 307.584 
L 240.718181 307.584 
z
" style="fill:#808080;"/>
   </g>
   <g id="patch_196">
    <path clip-path="url(#p513a0a4665)" d="M 242.532144 307.584 
L 244.34612 307.584 
L 244.34612 307.584 
L 242.532144 307.584 
z
" style="fill:#808080;"/>
   </g>
   <g id="patch_197">
    <path clip-path="url(#p513a0a4665)" d="M 244.346127 307.584 
L 246.160097 307.584 
L 246.160097 307.584 
L 244.346127 307.584 
z
" style="fill:#808080;"/>
   </g>
   <g id="patch_198">
    <path clip-path="url(#p513a0a4665)" d="M 246.160097 307.584 
L 247.974066 307.584 
L 247.974066 307.584 
L 246.160097 307.584 
z
" style="fill:#808080;"/>
   </g>
   <g id="patch_199">
    <path clip-path="url(#p513a0a4665)" d="M 247.974066 307.584 
L 249.788043 307.584 
L 249.788043 307.584 
L 247.974066 307.584 
z
" style="fill:#808080;"/>
   </g>
   <g id="patch_200">
    <path clip-path="url(#p513a0a4665)" d="M 249.788043 307.584 
L 251.602012 307.584 
L 251.602012 307.584 
L 249.788043 307.584 
z
" style="fill:#808080;"/>
   </g>
   <g id="patch_201">
    <path clip-path="url(#p513a0a4665)" d="M 251.602005 307.584 
L 253.415982 307.584 
L 253.415982 307.584 
L 251.602005 307.584 
z
" style="fill:#808080;"/>
   </g>
   <g id="patch_202">
    <path clip-path="url(#p513a0a4665)" d="M 253.415989 307.584 
L 255.229958 307.584 
L 255.229958 307.529214 
L 253.415989 307.529214 
z
" style="fill:#808080;"/>
   </g>
   <g id="matplotlib.axis_1">
    <g id="xtick_1">
     <g id="line2d_1">
      <defs>
       <path d="M 0 0 
L 0 3.5 
" id="me0cd70d0b2" style="stroke:#000000;stroke-width:0.8;"/>
      </defs>
      <g>
       <use style="stroke:#000000;stroke-width:0.8;" x="68.251274" xlink:href="#me0cd70d0b2" y="307.584"/>
      </g>
     </g>
     <g id="text_1">
      <!-- −100 -->
      <defs>
       <path d="M 10.59375 35.5 
L 73.1875 35.5 
L 73.1875 27.203125 
L 10.59375 27.203125 
z
" id="DejaVuSans-8722"/>
       <path d="M 12.40625 8.296875 
L 28.515625 8.296875 
L 28.515625 63.921875 
L 10.984375 60.40625 
L 10.984375 69.390625 
L 28.421875 72.90625 
L 38.28125 72.90625 
L 38.28125 8.296875 
L 54.390625 8.296875 
L 54.390625 0 
L 12.40625 0 
z
" id="DejaVuSans-49"/>
       <path d="M 31.78125 66.40625 
Q 24.171875 66.40625 20.328125 58.90625 
Q 16.5 51.421875 16.5 36.375 
Q 16.5 21.390625 20.328125 13.890625 
Q 24.171875 6.390625 31.78125 6.390625 
Q 39.453125 6.390625 43.28125 13.890625 
Q 47.125 21.390625 47.125 36.375 
Q 47.125 51.421875 43.28125 58.90625 
Q 39.453125 66.40625 31.78125 66.40625 
z
M 31.78125 74.21875 
Q 44.046875 74.21875 50.515625 64.515625 
Q 56.984375 54.828125 56.984375 36.375 
Q 56.984375 17.96875 50.515625 8.265625 
Q 44.046875 -1.421875 31.78125 -1.421875 
Q 19.53125 -1.421875 13.0625 8.265625 
Q 6.59375 17.96875 6.59375 36.375 
Q 6.59375 54.828125 13.0625 64.515625 
Q 19.53125 74.21875 31.78125 74.21875 
z
" id="DejaVuSans-48"/>
      </defs>
      <g transform="translate(54.51768 322.182437)scale(0.1 -0.1)">
       <use xlink:href="#DejaVuSans-8722"/>
       <use x="83.789062" xlink:href="#DejaVuSans-49"/>
       <use x="147.412109" xlink:href="#DejaVuSans-48"/>
       <use x="211.035156" xlink:href="#DejaVuSans-48"/>
      </g>
     </g>
    </g>
    <g id="xtick_2">
     <g id="line2d_2">
      <g>
       <use style="stroke:#000000;stroke-width:0.8;" x="114.763385" xlink:href="#me0cd70d0b2" y="307.584"/>
      </g>
     </g>
     <g id="text_2">
      <!-- −50 -->
      <defs>
       <path d="M 10.796875 72.90625 
L 49.515625 72.90625 
L 49.515625 64.59375 
L 19.828125 64.59375 
L 19.828125 46.734375 
Q 21.96875 47.46875 24.109375 47.828125 
Q 26.265625 48.1875 28.421875 48.1875 
Q 40.625 48.1875 47.75 41.5 
Q 54.890625 34.8125 54.890625 23.390625 
Q 54.890625 11.625 47.5625 5.09375 
Q 40.234375 -1.421875 26.90625 -1.421875 
Q 22.3125 -1.421875 17.546875 -0.640625 
Q 12.796875 0.140625 7.71875 1.703125 
L 7.71875 11.625 
Q 12.109375 9.234375 16.796875 8.0625 
Q 21.484375 6.890625 26.703125 6.890625 
Q 35.15625 6.890625 40.078125 11.328125 
Q 45.015625 15.765625 45.015625 23.390625 
Q 45.015625 31 40.078125 35.4375 
Q 35.15625 39.890625 26.703125 39.890625 
Q 22.75 39.890625 18.8125 39.015625 
Q 14.890625 38.140625 10.796875 36.28125 
z
" id="DejaVuSans-53"/>
      </defs>
      <g transform="translate(104.211041 322.182437)scale(0.1 -0.1)">
       <use xlink:href="#DejaVuSans-8722"/>
       <use x="83.789062" xlink:href="#DejaVuSans-53"/>
       <use x="147.412109" xlink:href="#DejaVuSans-48"/>
      </g>
     </g>
    </g>
    <g id="xtick_3">
     <g id="line2d_3">
      <g>
       <use style="stroke:#000000;stroke-width:0.8;" x="161.275495" xlink:href="#me0cd70d0b2" y="307.584"/>
      </g>
     </g>
     <g id="text_3">
      <!-- 0 -->
      <g transform="translate(158.094245 322.182437)scale(0.1 -0.1)">
       <use xlink:href="#DejaVuSans-48"/>
      </g>
     </g>
    </g>
    <g id="xtick_4">
     <g id="line2d_4">
      <g>
       <use style="stroke:#000000;stroke-width:0.8;" x="207.787606" xlink:href="#me0cd70d0b2" y="307.584"/>
      </g>
     </g>
     <g id="text_4">
      <!-- 50 -->
      <g transform="translate(201.425106 322.182437)scale(0.1 -0.1)">
       <use xlink:href="#DejaVuSans-53"/>
       <use x="63.623047" xlink:href="#DejaVuSans-48"/>
      </g>
     </g>
    </g>
    <g id="xtick_5">
     <g id="line2d_5">
      <g>
       <use style="stroke:#000000;stroke-width:0.8;" x="254.299716" xlink:href="#me0cd70d0b2" y="307.584"/>
      </g>
     </g>
     <g id="text_5">
      <!-- 100 -->
      <g transform="translate(244.755966 322.182437)scale(0.1 -0.1)">
       <use xlink:href="#DejaVuSans-49"/>
       <use x="63.623047" xlink:href="#DejaVuSans-48"/>
       <use x="127.246094" xlink:href="#DejaVuSans-48"/>
      </g>
     </g>
    </g>
    <g id="xtick_6">
     <g id="line2d_6">
      <g>
       <use style="stroke:#000000;stroke-width:0.8;" x="300.811826" xlink:href="#me0cd70d0b2" y="307.584"/>
      </g>
     </g>
     <g id="text_6">
      <!-- 150 -->
      <g transform="translate(291.268076 322.182437)scale(0.1 -0.1)">
       <use xlink:href="#DejaVuSans-49"/>
       <use x="63.623047" xlink:href="#DejaVuSans-53"/>
       <use x="127.246094" xlink:href="#DejaVuSans-48"/>
      </g>
     </g>
    </g>
    <g id="xtick_7">
     <g id="line2d_7">
      <g>
       <use style="stroke:#000000;stroke-width:0.8;" x="347.323937" xlink:href="#me0cd70d0b2" y="307.584"/>
      </g>
     </g>
     <g id="text_7">
      <!-- 200 -->
      <defs>
       <path d="M 19.1875 8.296875 
L 53.609375 8.296875 
L 53.609375 0 
L 7.328125 0 
L 7.328125 8.296875 
Q 12.9375 14.109375 22.625 23.890625 
Q 32.328125 33.6875 34.8125 36.53125 
Q 39.546875 41.84375 41.421875 45.53125 
Q 43.3125 49.21875 43.3125 52.78125 
Q 43.3125 58.59375 39.234375 62.25 
Q 35.15625 65.921875 28.609375 65.921875 
Q 23.96875 65.921875 18.8125 64.3125 
Q 13.671875 62.703125 7.8125 59.421875 
L 7.8125 69.390625 
Q 13.765625 71.78125 18.9375 73 
Q 24.125 74.21875 28.421875 74.21875 
Q 39.75 74.21875 46.484375 68.546875 
Q 53.21875 62.890625 53.21875 53.421875 
Q 53.21875 48.921875 51.53125 44.890625 
Q 49.859375 40.875 45.40625 35.40625 
Q 44.1875 33.984375 37.640625 27.21875 
Q 31.109375 20.453125 19.1875 8.296875 
z
" id="DejaVuSans-50"/>
      </defs>
      <g transform="translate(337.780187 322.182437)scale(0.1 -0.1)">
       <use xlink:href="#DejaVuSans-50"/>
       <use x="63.623047" xlink:href="#DejaVuSans-48"/>
       <use x="127.246094" xlink:href="#DejaVuSans-48"/>
      </g>
     </g>
    </g>
    <g id="xtick_8">
     <g id="line2d_8">
      <g>
       <use style="stroke:#000000;stroke-width:0.8;" x="393.836047" xlink:href="#me0cd70d0b2" y="307.584"/>
      </g>
     </g>
     <g id="text_8">
      <!-- 250 -->
      <g transform="translate(384.292297 322.182437)scale(0.1 -0.1)">
       <use xlink:href="#DejaVuSans-50"/>
       <use x="63.623047" xlink:href="#DejaVuSans-53"/>
       <use x="127.246094" xlink:href="#DejaVuSans-48"/>
      </g>
     </g>
    </g>
    <g id="text_9">
     <!-- Weight -->
     <defs>
      <path d="M 3.328125 72.90625 
L 13.28125 72.90625 
L 28.609375 11.28125 
L 43.890625 72.90625 
L 54.984375 72.90625 
L 70.3125 11.28125 
L 85.59375 72.90625 
L 95.609375 72.90625 
L 77.296875 0 
L 64.890625 0 
L 49.515625 63.28125 
L 33.984375 0 
L 21.578125 0 
z
" id="DejaVuSans-87"/>
      <path d="M 56.203125 29.59375 
L 56.203125 25.203125 
L 14.890625 25.203125 
Q 15.484375 15.921875 20.484375 11.0625 
Q 25.484375 6.203125 34.421875 6.203125 
Q 39.59375 6.203125 44.453125 7.46875 
Q 49.3125 8.734375 54.109375 11.28125 
L 54.109375 2.78125 
Q 49.265625 0.734375 44.1875 -0.34375 
Q 39.109375 -1.421875 33.890625 -1.421875 
Q 20.796875 -1.421875 13.15625 6.1875 
Q 5.515625 13.8125 5.515625 26.8125 
Q 5.515625 40.234375 12.765625 48.109375 
Q 20.015625 56 32.328125 56 
Q 43.359375 56 49.78125 48.890625 
Q 56.203125 41.796875 56.203125 29.59375 
z
M 47.21875 32.234375 
Q 47.125 39.59375 43.09375 43.984375 
Q 39.0625 48.390625 32.421875 48.390625 
Q 24.90625 48.390625 20.390625 44.140625 
Q 15.875 39.890625 15.1875 32.171875 
z
" id="DejaVuSans-101"/>
      <path d="M 9.421875 54.6875 
L 18.40625 54.6875 
L 18.40625 0 
L 9.421875 0 
z
M 9.421875 75.984375 
L 18.40625 75.984375 
L 18.40625 64.59375 
L 9.421875 64.59375 
z
" id="DejaVuSans-105"/>
      <path d="M 45.40625 27.984375 
Q 45.40625 37.75 41.375 43.109375 
Q 37.359375 48.484375 30.078125 48.484375 
Q 22.859375 48.484375 18.828125 43.109375 
Q 14.796875 37.75 14.796875 27.984375 
Q 14.796875 18.265625 18.828125 12.890625 
Q 22.859375 7.515625 30.078125 7.515625 
Q 37.359375 7.515625 41.375 12.890625 
Q 45.40625 18.265625 45.40625 27.984375 
z
M 54.390625 6.78125 
Q 54.390625 -7.171875 48.1875 -13.984375 
Q 42 -20.796875 29.203125 -20.796875 
Q 24.46875 -20.796875 20.265625 -20.09375 
Q 16.0625 -19.390625 12.109375 -17.921875 
L 12.109375 -9.1875 
Q 16.0625 -11.328125 19.921875 -12.34375 
Q 23.78125 -13.375 27.78125 -13.375 
Q 36.625 -13.375 41.015625 -8.765625 
Q 45.40625 -4.15625 45.40625 5.171875 
L 45.40625 9.625 
Q 42.625 4.78125 38.28125 2.390625 
Q 33.9375 0 27.875 0 
Q 17.828125 0 11.671875 7.65625 
Q 5.515625 15.328125 5.515625 27.984375 
Q 5.515625 40.671875 11.671875 48.328125 
Q 17.828125 56 27.875 56 
Q 33.9375 56 38.28125 53.609375 
Q 42.625 51.21875 45.40625 46.390625 
L 45.40625 54.6875 
L 54.390625 54.6875 
z
" id="DejaVuSans-103"/>
      <path d="M 54.890625 33.015625 
L 54.890625 0 
L 45.90625 0 
L 45.90625 32.71875 
Q 45.90625 40.484375 42.875 44.328125 
Q 39.84375 48.1875 33.796875 48.1875 
Q 26.515625 48.1875 22.3125 43.546875 
Q 18.109375 38.921875 18.109375 30.90625 
L 18.109375 0 
L 9.078125 0 
L 9.078125 75.984375 
L 18.109375 75.984375 
L 18.109375 46.1875 
Q 21.34375 51.125 25.703125 53.5625 
Q 30.078125 56 35.796875 56 
Q 45.21875 56 50.046875 50.171875 
Q 54.890625 44.34375 54.890625 33.015625 
z
" id="DejaVuSans-104"/>
      <path d="M 18.3125 70.21875 
L 18.3125 54.6875 
L 36.8125 54.6875 
L 36.8125 47.703125 
L 18.3125 47.703125 
L 18.3125 18.015625 
Q 18.3125 11.328125 20.140625 9.421875 
Q 21.96875 7.515625 27.59375 7.515625 
L 36.8125 7.515625 
L 36.8125 0 
L 27.59375 0 
Q 17.1875 0 13.234375 3.875 
Q 9.28125 7.765625 9.28125 18.015625 
L 9.28125 47.703125 
L 2.6875 47.703125 
L 2.6875 54.6875 
L 9.28125 54.6875 
L 9.28125 70.21875 
z
" id="DejaVuSans-116"/>
     </defs>
     <g transform="translate(218.451406 335.860562)scale(0.1 -0.1)">
      <use xlink:href="#DejaVuSans-87"/>
      <use x="98.798828" xlink:href="#DejaVuSans-101"/>
      <use x="160.322266" xlink:href="#DejaVuSans-105"/>
      <use x="188.105469" xlink:href="#DejaVuSans-103"/>
      <use x="251.582031" xlink:href="#DejaVuSans-104"/>
      <use x="314.960938" xlink:href="#DejaVuSans-116"/>
     </g>
    </g>
   </g>
   <g id="matplotlib.axis_2">
    <g id="ytick_1">
     <g id="line2d_9">
      <defs>
       <path d="M 0 0 
L -3.5 0 
" id="m4be7771a60" style="stroke:#000000;stroke-width:0.8;"/>
      </defs>
      <g>
       <use style="stroke:#000000;stroke-width:0.8;" x="57.6" xlink:href="#m4be7771a60" y="307.584"/>
      </g>
     </g>
     <g id="text_10">
      <!-- 0 -->
      <g transform="translate(44.2375 311.383219)scale(0.1 -0.1)">
       <use xlink:href="#DejaVuSans-48"/>
      </g>
     </g>
    </g>
    <g id="ytick_2">
     <g id="line2d_10">
      <g>
       <use style="stroke:#000000;stroke-width:0.8;" x="57.6" xlink:href="#m4be7771a60" y="252.798008"/>
      </g>
     </g>
     <g id="text_11">
      <!-- 1000 -->
      <g transform="translate(25.15 256.597227)scale(0.1 -0.1)">
       <use xlink:href="#DejaVuSans-49"/>
       <use x="63.623047" xlink:href="#DejaVuSans-48"/>
       <use x="127.246094" xlink:href="#DejaVuSans-48"/>
       <use x="190.869141" xlink:href="#DejaVuSans-48"/>
      </g>
     </g>
    </g>
    <g id="ytick_3">
     <g id="line2d_11">
      <g>
       <use style="stroke:#000000;stroke-width:0.8;" x="57.6" xlink:href="#m4be7771a60" y="198.012016"/>
      </g>
     </g>
     <g id="text_12">
      <!-- 2000 -->
      <g transform="translate(25.15 201.811234)scale(0.1 -0.1)">
       <use xlink:href="#DejaVuSans-50"/>
       <use x="63.623047" xlink:href="#DejaVuSans-48"/>
       <use x="127.246094" xlink:href="#DejaVuSans-48"/>
       <use x="190.869141" xlink:href="#DejaVuSans-48"/>
      </g>
     </g>
    </g>
    <g id="ytick_4">
     <g id="line2d_12">
      <g>
       <use style="stroke:#000000;stroke-width:0.8;" x="57.6" xlink:href="#m4be7771a60" y="143.226023"/>
      </g>
     </g>
     <g id="text_13">
      <!-- 3000 -->
      <defs>
       <path d="M 40.578125 39.3125 
Q 47.65625 37.796875 51.625 33 
Q 55.609375 28.21875 55.609375 21.1875 
Q 55.609375 10.40625 48.1875 4.484375 
Q 40.765625 -1.421875 27.09375 -1.421875 
Q 22.515625 -1.421875 17.65625 -0.515625 
Q 12.796875 0.390625 7.625 2.203125 
L 7.625 11.71875 
Q 11.71875 9.328125 16.59375 8.109375 
Q 21.484375 6.890625 26.8125 6.890625 
Q 36.078125 6.890625 40.9375 10.546875 
Q 45.796875 14.203125 45.796875 21.1875 
Q 45.796875 27.640625 41.28125 31.265625 
Q 36.765625 34.90625 28.71875 34.90625 
L 20.21875 34.90625 
L 20.21875 43.015625 
L 29.109375 43.015625 
Q 36.375 43.015625 40.234375 45.921875 
Q 44.09375 48.828125 44.09375 54.296875 
Q 44.09375 59.90625 40.109375 62.90625 
Q 36.140625 65.921875 28.71875 65.921875 
Q 24.65625 65.921875 20.015625 65.03125 
Q 15.375 64.15625 9.8125 62.3125 
L 9.8125 71.09375 
Q 15.4375 72.65625 20.34375 73.4375 
Q 25.25 74.21875 29.59375 74.21875 
Q 40.828125 74.21875 47.359375 69.109375 
Q 53.90625 64.015625 53.90625 55.328125 
Q 53.90625 49.265625 50.4375 45.09375 
Q 46.96875 40.921875 40.578125 39.3125 
z
" id="DejaVuSans-51"/>
      </defs>
      <g transform="translate(25.15 147.025242)scale(0.1 -0.1)">
       <use xlink:href="#DejaVuSans-51"/>
       <use x="63.623047" xlink:href="#DejaVuSans-48"/>
       <use x="127.246094" xlink:href="#DejaVuSans-48"/>
       <use x="190.869141" xlink:href="#DejaVuSans-48"/>
      </g>
     </g>
    </g>
    <g id="ytick_5">
     <g id="line2d_13">
      <g>
       <use style="stroke:#000000;stroke-width:0.8;" x="57.6" xlink:href="#m4be7771a60" y="88.440031"/>
      </g>
     </g>
     <g id="text_14">
      <!-- 4000 -->
      <defs>
       <path d="M 37.796875 64.3125 
L 12.890625 25.390625 
L 37.796875 25.390625 
z
M 35.203125 72.90625 
L 47.609375 72.90625 
L 47.609375 25.390625 
L 58.015625 25.390625 
L 58.015625 17.1875 
L 47.609375 17.1875 
L 47.609375 0 
L 37.796875 0 
L 37.796875 17.1875 
L 4.890625 17.1875 
L 4.890625 26.703125 
z
" id="DejaVuSans-52"/>
      </defs>
      <g transform="translate(25.15 92.23925)scale(0.1 -0.1)">
       <use xlink:href="#DejaVuSans-52"/>
       <use x="63.623047" xlink:href="#DejaVuSans-48"/>
       <use x="127.246094" xlink:href="#DejaVuSans-48"/>
       <use x="190.869141" xlink:href="#DejaVuSans-48"/>
      </g>
     </g>
    </g>
    <g id="text_15">
     <!-- Occurrencies -->
     <defs>
      <path d="M 39.40625 66.21875 
Q 28.65625 66.21875 22.328125 58.203125 
Q 16.015625 50.203125 16.015625 36.375 
Q 16.015625 22.609375 22.328125 14.59375 
Q 28.65625 6.59375 39.40625 6.59375 
Q 50.140625 6.59375 56.421875 14.59375 
Q 62.703125 22.609375 62.703125 36.375 
Q 62.703125 50.203125 56.421875 58.203125 
Q 50.140625 66.21875 39.40625 66.21875 
z
M 39.40625 74.21875 
Q 54.734375 74.21875 63.90625 63.9375 
Q 73.09375 53.65625 73.09375 36.375 
Q 73.09375 19.140625 63.90625 8.859375 
Q 54.734375 -1.421875 39.40625 -1.421875 
Q 24.03125 -1.421875 14.8125 8.828125 
Q 5.609375 19.09375 5.609375 36.375 
Q 5.609375 53.65625 14.8125 63.9375 
Q 24.03125 74.21875 39.40625 74.21875 
z
" id="DejaVuSans-79"/>
      <path d="M 48.78125 52.59375 
L 48.78125 44.1875 
Q 44.96875 46.296875 41.140625 47.34375 
Q 37.3125 48.390625 33.40625 48.390625 
Q 24.65625 48.390625 19.8125 42.84375 
Q 14.984375 37.3125 14.984375 27.296875 
Q 14.984375 17.28125 19.8125 11.734375 
Q 24.65625 6.203125 33.40625 6.203125 
Q 37.3125 6.203125 41.140625 7.25 
Q 44.96875 8.296875 48.78125 10.40625 
L 48.78125 2.09375 
Q 45.015625 0.34375 40.984375 -0.53125 
Q 36.96875 -1.421875 32.421875 -1.421875 
Q 20.0625 -1.421875 12.78125 6.34375 
Q 5.515625 14.109375 5.515625 27.296875 
Q 5.515625 40.671875 12.859375 48.328125 
Q 20.21875 56 33.015625 56 
Q 37.15625 56 41.109375 55.140625 
Q 45.0625 54.296875 48.78125 52.59375 
z
" id="DejaVuSans-99"/>
      <path d="M 8.5 21.578125 
L 8.5 54.6875 
L 17.484375 54.6875 
L 17.484375 21.921875 
Q 17.484375 14.15625 20.5 10.265625 
Q 23.53125 6.390625 29.59375 6.390625 
Q 36.859375 6.390625 41.078125 11.03125 
Q 45.3125 15.671875 45.3125 23.6875 
L 45.3125 54.6875 
L 54.296875 54.6875 
L 54.296875 0 
L 45.3125 0 
L 45.3125 8.40625 
Q 42.046875 3.421875 37.71875 1 
Q 33.40625 -1.421875 27.6875 -1.421875 
Q 18.265625 -1.421875 13.375 4.4375 
Q 8.5 10.296875 8.5 21.578125 
z
M 31.109375 56 
z
" id="DejaVuSans-117"/>
      <path d="M 41.109375 46.296875 
Q 39.59375 47.171875 37.8125 47.578125 
Q 36.03125 48 33.890625 48 
Q 26.265625 48 22.1875 43.046875 
Q 18.109375 38.09375 18.109375 28.8125 
L 18.109375 0 
L 9.078125 0 
L 9.078125 54.6875 
L 18.109375 54.6875 
L 18.109375 46.1875 
Q 20.953125 51.171875 25.484375 53.578125 
Q 30.03125 56 36.53125 56 
Q 37.453125 56 38.578125 55.875 
Q 39.703125 55.765625 41.0625 55.515625 
z
" id="DejaVuSans-114"/>
      <path d="M 54.890625 33.015625 
L 54.890625 0 
L 45.90625 0 
L 45.90625 32.71875 
Q 45.90625 40.484375 42.875 44.328125 
Q 39.84375 48.1875 33.796875 48.1875 
Q 26.515625 48.1875 22.3125 43.546875 
Q 18.109375 38.921875 18.109375 30.90625 
L 18.109375 0 
L 9.078125 0 
L 9.078125 54.6875 
L 18.109375 54.6875 
L 18.109375 46.1875 
Q 21.34375 51.125 25.703125 53.5625 
Q 30.078125 56 35.796875 56 
Q 45.21875 56 50.046875 50.171875 
Q 54.890625 44.34375 54.890625 33.015625 
z
" id="DejaVuSans-110"/>
      <path d="M 44.28125 53.078125 
L 44.28125 44.578125 
Q 40.484375 46.53125 36.375 47.5 
Q 32.28125 48.484375 27.875 48.484375 
Q 21.1875 48.484375 17.84375 46.4375 
Q 14.5 44.390625 14.5 40.28125 
Q 14.5 37.15625 16.890625 35.375 
Q 19.28125 33.59375 26.515625 31.984375 
L 29.59375 31.296875 
Q 39.15625 29.25 43.1875 25.515625 
Q 47.21875 21.78125 47.21875 15.09375 
Q 47.21875 7.46875 41.1875 3.015625 
Q 35.15625 -1.421875 24.609375 -1.421875 
Q 20.21875 -1.421875 15.453125 -0.5625 
Q 10.6875 0.296875 5.421875 2 
L 5.421875 11.28125 
Q 10.40625 8.6875 15.234375 7.390625 
Q 20.0625 6.109375 24.8125 6.109375 
Q 31.15625 6.109375 34.5625 8.28125 
Q 37.984375 10.453125 37.984375 14.40625 
Q 37.984375 18.0625 35.515625 20.015625 
Q 33.0625 21.96875 24.703125 23.78125 
L 21.578125 24.515625 
Q 13.234375 26.265625 9.515625 29.90625 
Q 5.8125 33.546875 5.8125 39.890625 
Q 5.8125 47.609375 11.28125 51.796875 
Q 16.75 56 26.8125 56 
Q 31.78125 56 36.171875 55.265625 
Q 40.578125 54.546875 44.28125 53.078125 
z
" id="DejaVuSans-115"/>
     </defs>
     <g transform="translate(19.070312 207.304563)rotate(-90)scale(0.1 -0.1)">
      <use xlink:href="#DejaVuSans-79"/>
      <use x="78.710938" xlink:href="#DejaVuSans-99"/>
      <use x="133.691406" xlink:href="#DejaVuSans-99"/>
      <use x="188.671875" xlink:href="#DejaVuSans-117"/>
      <use x="252.050781" xlink:href="#DejaVuSans-114"/>
      <use x="293.148438" xlink:href="#DejaVuSans-114"/>
      <use x="334.230469" xlink:href="#DejaVuSans-101"/>
      <use x="395.753906" xlink:href="#DejaVuSans-110"/>
      <use x="459.132812" xlink:href="#DejaVuSans-99"/>
      <use x="514.113281" xlink:href="#DejaVuSans-105"/>
      <use x="541.896484" xlink:href="#DejaVuSans-101"/>
      <use x="603.419922" xlink:href="#DejaVuSans-115"/>
     </g>
    </g>
   </g>
   <g id="patch_203">
    <path d="M 57.6 307.584 
L 57.6 41.472 
" style="fill:none;stroke:#000000;stroke-linecap:square;stroke-linejoin:miter;stroke-width:0.8;"/>
   </g>
   <g id="patch_204">
    <path d="M 414.72 307.584 
L 414.72 41.472 
" style="fill:none;stroke:#000000;stroke-linecap:square;stroke-linejoin:miter;stroke-width:0.8;"/>
   </g>
   <g id="patch_205">
    <path d="M 57.6 307.584 
L 414.72 307.584 
" style="fill:none;stroke:#000000;stroke-linecap:square;stroke-linejoin:miter;stroke-width:0.8;"/>
   </g>
   <g id="patch_206">
    <path d="M 57.6 41.472 
L 414.72 41.472 
" style="fill:none;stroke:#000000;stroke-linecap:square;stroke-linejoin:miter;stroke-width:0.8;"/>
   </g>
   <g id="text_16">
    <!-- Histogram of fc2 -->
    <defs>
     <path d="M 9.8125 72.90625 
L 19.671875 72.90625 
L 19.671875 43.015625 
L 55.515625 43.015625 
L 55.515625 72.90625 
L 65.375 72.90625 
L 65.375 0 
L 55.515625 0 
L 55.515625 34.71875 
L 19.671875 34.71875 
L 19.671875 0 
L 9.8125 0 
z
" id="DejaVuSans-72"/>
     <path d="M 30.609375 48.390625 
Q 23.390625 48.390625 19.1875 42.75 
Q 14.984375 37.109375 14.984375 27.296875 
Q 14.984375 17.484375 19.15625 11.84375 
Q 23.34375 6.203125 30.609375 6.203125 
Q 37.796875 6.203125 41.984375 11.859375 
Q 46.1875 17.53125 46.1875 27.296875 
Q 46.1875 37.015625 41.984375 42.703125 
Q 37.796875 48.390625 30.609375 48.390625 
z
M 30.609375 56 
Q 42.328125 56 49.015625 48.375 
Q 55.71875 40.765625 55.71875 27.296875 
Q 55.71875 13.875 49.015625 6.21875 
Q 42.328125 -1.421875 30.609375 -1.421875 
Q 18.84375 -1.421875 12.171875 6.21875 
Q 5.515625 13.875 5.515625 27.296875 
Q 5.515625 40.765625 12.171875 48.375 
Q 18.84375 56 30.609375 56 
z
" id="DejaVuSans-111"/>
     <path d="M 34.28125 27.484375 
Q 23.390625 27.484375 19.1875 25 
Q 14.984375 22.515625 14.984375 16.5 
Q 14.984375 11.71875 18.140625 8.90625 
Q 21.296875 6.109375 26.703125 6.109375 
Q 34.1875 6.109375 38.703125 11.40625 
Q 43.21875 16.703125 43.21875 25.484375 
L 43.21875 27.484375 
z
M 52.203125 31.203125 
L 52.203125 0 
L 43.21875 0 
L 43.21875 8.296875 
Q 40.140625 3.328125 35.546875 0.953125 
Q 30.953125 -1.421875 24.3125 -1.421875 
Q 15.921875 -1.421875 10.953125 3.296875 
Q 6 8.015625 6 15.921875 
Q 6 25.140625 12.171875 29.828125 
Q 18.359375 34.515625 30.609375 34.515625 
L 43.21875 34.515625 
L 43.21875 35.40625 
Q 43.21875 41.609375 39.140625 45 
Q 35.0625 48.390625 27.6875 48.390625 
Q 23 48.390625 18.546875 47.265625 
Q 14.109375 46.140625 10.015625 43.890625 
L 10.015625 52.203125 
Q 14.9375 54.109375 19.578125 55.046875 
Q 24.21875 56 28.609375 56 
Q 40.484375 56 46.34375 49.84375 
Q 52.203125 43.703125 52.203125 31.203125 
z
" id="DejaVuSans-97"/>
     <path d="M 52 44.1875 
Q 55.375 50.25 60.0625 53.125 
Q 64.75 56 71.09375 56 
Q 79.640625 56 84.28125 50.015625 
Q 88.921875 44.046875 88.921875 33.015625 
L 88.921875 0 
L 79.890625 0 
L 79.890625 32.71875 
Q 79.890625 40.578125 77.09375 44.375 
Q 74.3125 48.1875 68.609375 48.1875 
Q 61.625 48.1875 57.5625 43.546875 
Q 53.515625 38.921875 53.515625 30.90625 
L 53.515625 0 
L 44.484375 0 
L 44.484375 32.71875 
Q 44.484375 40.625 41.703125 44.40625 
Q 38.921875 48.1875 33.109375 48.1875 
Q 26.21875 48.1875 22.15625 43.53125 
Q 18.109375 38.875 18.109375 30.90625 
L 18.109375 0 
L 9.078125 0 
L 9.078125 54.6875 
L 18.109375 54.6875 
L 18.109375 46.1875 
Q 21.1875 51.21875 25.484375 53.609375 
Q 29.78125 56 35.6875 56 
Q 41.65625 56 45.828125 52.96875 
Q 50 49.953125 52 44.1875 
z
" id="DejaVuSans-109"/>
     <path id="DejaVuSans-32"/>
     <path d="M 37.109375 75.984375 
L 37.109375 68.5 
L 28.515625 68.5 
Q 23.6875 68.5 21.796875 66.546875 
Q 19.921875 64.59375 19.921875 59.515625 
L 19.921875 54.6875 
L 34.71875 54.6875 
L 34.71875 47.703125 
L 19.921875 47.703125 
L 19.921875 0 
L 10.890625 0 
L 10.890625 47.703125 
L 2.296875 47.703125 
L 2.296875 54.6875 
L 10.890625 54.6875 
L 10.890625 58.5 
Q 10.890625 67.625 15.140625 71.796875 
Q 19.390625 75.984375 28.609375 75.984375 
z
" id="DejaVuSans-102"/>
    </defs>
    <g transform="translate(186.209063 35.472)scale(0.12 -0.12)">
     <use xlink:href="#DejaVuSans-72"/>
     <use x="75.195312" xlink:href="#DejaVuSans-105"/>
     <use x="102.978516" xlink:href="#DejaVuSans-115"/>
     <use x="155.078125" xlink:href="#DejaVuSans-116"/>
     <use x="194.287109" xlink:href="#DejaVuSans-111"/>
     <use x="255.46875" xlink:href="#DejaVuSans-103"/>
     <use x="318.945312" xlink:href="#DejaVuSans-114"/>
     <use x="360.058594" xlink:href="#DejaVuSans-97"/>
     <use x="421.337891" xlink:href="#DejaVuSans-109"/>
     <use x="518.75" xlink:href="#DejaVuSans-32"/>
     <use x="550.537109" xlink:href="#DejaVuSans-111"/>
     <use x="611.71875" xlink:href="#DejaVuSans-102"/>
     <use x="646.923828" xlink:href="#DejaVuSans-32"/>
     <use x="678.710938" xlink:href="#DejaVuSans-102"/>
     <use x="713.916016" xlink:href="#DejaVuSans-99"/>
     <use x="768.896484" xlink:href="#DejaVuSans-50"/>
    </g>
   </g>
   <g id="legend_1">
    <g id="patch_207">
     <path d="M 323.679375 78.82825 
L 407.72 78.82825 
Q 409.72 78.82825 409.72 76.82825 
L 409.72 48.472 
Q 409.72 46.472 407.72 46.472 
L 323.679375 46.472 
Q 321.679375 46.472 321.679375 48.472 
L 321.679375 76.82825 
Q 321.679375 78.82825 323.679375 78.82825 
z
" style="fill:#ffffff;opacity:0.8;stroke:#cccccc;stroke-linejoin:miter;"/>
    </g>
    <g id="patch_208">
     <path d="M 325.679375 58.070437 
L 345.679375 58.070437 
L 345.679375 51.070437 
L 325.679375 51.070437 
z
" style="fill:#0000ff;"/>
    </g>
    <g id="text_17">
     <!-- unmasked -->
     <defs>
      <path d="M 9.078125 75.984375 
L 18.109375 75.984375 
L 18.109375 31.109375 
L 44.921875 54.6875 
L 56.390625 54.6875 
L 27.390625 29.109375 
L 57.625 0 
L 45.90625 0 
L 18.109375 26.703125 
L 18.109375 0 
L 9.078125 0 
z
" id="DejaVuSans-107"/>
      <path d="M 45.40625 46.390625 
L 45.40625 75.984375 
L 54.390625 75.984375 
L 54.390625 0 
L 45.40625 0 
L 45.40625 8.203125 
Q 42.578125 3.328125 38.25 0.953125 
Q 33.9375 -1.421875 27.875 -1.421875 
Q 17.96875 -1.421875 11.734375 6.484375 
Q 5.515625 14.40625 5.515625 27.296875 
Q 5.515625 40.1875 11.734375 48.09375 
Q 17.96875 56 27.875 56 
Q 33.9375 56 38.25 53.625 
Q 42.578125 51.265625 45.40625 46.390625 
z
M 14.796875 27.296875 
Q 14.796875 17.390625 18.875 11.75 
Q 22.953125 6.109375 30.078125 6.109375 
Q 37.203125 6.109375 41.296875 11.75 
Q 45.40625 17.390625 45.40625 27.296875 
Q 45.40625 37.203125 41.296875 42.84375 
Q 37.203125 48.484375 30.078125 48.484375 
Q 22.953125 48.484375 18.875 42.84375 
Q 14.796875 37.203125 14.796875 27.296875 
z
" id="DejaVuSans-100"/>
     </defs>
     <g transform="translate(353.679375 58.070437)scale(0.1 -0.1)">
      <use xlink:href="#DejaVuSans-117"/>
      <use x="63.378906" xlink:href="#DejaVuSans-110"/>
      <use x="126.757812" xlink:href="#DejaVuSans-109"/>
      <use x="224.169922" xlink:href="#DejaVuSans-97"/>
      <use x="285.449219" xlink:href="#DejaVuSans-115"/>
      <use x="337.548828" xlink:href="#DejaVuSans-107"/>
      <use x="395.412109" xlink:href="#DejaVuSans-101"/>
      <use x="456.935547" xlink:href="#DejaVuSans-100"/>
     </g>
    </g>
    <g id="patch_209">
     <path d="M 325.679375 72.748562 
L 345.679375 72.748562 
L 345.679375 65.748562 
L 325.679375 65.748562 
z
" style="fill:#808080;"/>
    </g>
    <g id="text_18">
     <!-- masked -->
     <g transform="translate(353.679375 72.748562)scale(0.1 -0.1)">
      <use xlink:href="#DejaVuSans-109"/>
      <use x="97.412109" xlink:href="#DejaVuSans-97"/>
      <use x="158.691406" xlink:href="#DejaVuSans-115"/>
      <use x="210.791016" xlink:href="#DejaVuSans-107"/>
      <use x="268.654297" xlink:href="#DejaVuSans-101"/>
      <use x="330.177734" xlink:href="#DejaVuSans-100"/>
     </g>
    </g>
   </g>
  </g>
 </g>
 <defs>
  <clipPath id="p513a0a4665">
   <rect height="266.112" width="357.12" x="57.6" y="41.472"/>
  </clipPath>
 </defs>
</svg>
