<?xml version="1.0" encoding="utf-8" standalone="no"?>
<!DOCTYPE svg PUBLIC "-//W3C//DTD SVG 1.1//EN"
  "http://www.w3.org/Graphics/SVG/1.1/DTD/svg11.dtd">
<!-- Created with matplotlib (https://matplotlib.org/) -->
<svg height="345.6pt" version="1.1" viewBox="0 0 460.8 345.6" width="460.8pt" xmlns="http://www.w3.org/2000/svg" xmlns:xlink="http://www.w3.org/1999/xlink">
 <defs>
  <style type="text/css">
*{stroke-linecap:butt;stroke-linejoin:round;}
  </style>
 </defs>
 <g id="figure_1">
  <g id="patch_1">
   <path d="M 0 345.6 
L 460.8 345.6 
L 460.8 0 
L 0 0 
z
" style="fill:#ffffff;"/>
  </g>
  <g id="axes_1">
   <g id="patch_2">
    <path d="M 57.6 307.584 
L 414.72 307.584 
L 414.72 41.472 
L 57.6 41.472 
z
" style="fill:#ffffff;"/>
   </g>
   <g id="patch_3">
    <path clip-path="url(#pa1fd0dcc03)" d="M 73.832727 307.584 
L 76.825883 307.584 
L 76.825883 306.779429 
L 73.832727 306.779429 
z
" style="fill:#0000ff;"/>
   </g>
   <g id="patch_4">
    <path clip-path="url(#pa1fd0dcc03)" d="M 76.825883 307.584 
L 79.819038 307.584 
L 79.819038 307.584 
L 76.825883 307.584 
z
" style="fill:#0000ff;"/>
   </g>
   <g id="patch_5">
    <path clip-path="url(#pa1fd0dcc03)" d="M 79.819038 307.584 
L 82.812194 307.584 
L 82.812194 307.584 
L 79.819038 307.584 
z
" style="fill:#0000ff;"/>
   </g>
   <g id="patch_6">
    <path clip-path="url(#pa1fd0dcc03)" d="M 82.812194 307.584 
L 85.80535 307.584 
L 85.80535 307.584 
L 82.812194 307.584 
z
" style="fill:#0000ff;"/>
   </g>
   <g id="patch_7">
    <path clip-path="url(#pa1fd0dcc03)" d="M 85.80535 307.584 
L 88.798505 307.584 
L 88.798505 307.584 
L 85.80535 307.584 
z
" style="fill:#0000ff;"/>
   </g>
   <g id="patch_8">
    <path clip-path="url(#pa1fd0dcc03)" d="M 88.798505 307.584 
L 91.791661 307.584 
L 91.791661 306.779429 
L 88.798505 306.779429 
z
" style="fill:#0000ff;"/>
   </g>
   <g id="patch_9">
    <path clip-path="url(#pa1fd0dcc03)" d="M 91.791661 307.584 
L 94.784828 307.584 
L 94.784828 307.584 
L 91.791661 307.584 
z
" style="fill:#0000ff;"/>
   </g>
   <g id="patch_10">
    <path clip-path="url(#pa1fd0dcc03)" d="M 94.784828 307.584 
L 97.777984 307.584 
L 97.777984 307.584 
L 94.784828 307.584 
z
" style="fill:#0000ff;"/>
   </g>
   <g id="patch_11">
    <path clip-path="url(#pa1fd0dcc03)" d="M 97.777984 307.584 
L 100.77114 307.584 
L 100.77114 307.584 
L 97.777984 307.584 
z
" style="fill:#0000ff;"/>
   </g>
   <g id="patch_12">
    <path clip-path="url(#pa1fd0dcc03)" d="M 100.77114 307.584 
L 103.764295 307.584 
L 103.764295 306.779429 
L 100.77114 306.779429 
z
" style="fill:#0000ff;"/>
   </g>
   <g id="patch_13">
    <path clip-path="url(#pa1fd0dcc03)" d="M 103.764295 307.584 
L 106.757451 307.584 
L 106.757451 307.584 
L 103.764295 307.584 
z
" style="fill:#0000ff;"/>
   </g>
   <g id="patch_14">
    <path clip-path="url(#pa1fd0dcc03)" d="M 106.757451 307.584 
L 109.750606 307.584 
L 109.750606 307.584 
L 106.757451 307.584 
z
" style="fill:#0000ff;"/>
   </g>
   <g id="patch_15">
    <path clip-path="url(#pa1fd0dcc03)" d="M 109.750606 307.584 
L 112.743762 307.584 
L 112.743762 306.779429 
L 109.750606 306.779429 
z
" style="fill:#0000ff;"/>
   </g>
   <g id="patch_16">
    <path clip-path="url(#pa1fd0dcc03)" d="M 112.743762 307.584 
L 115.736917 307.584 
L 115.736917 307.584 
L 112.743762 307.584 
z
" style="fill:#0000ff;"/>
   </g>
   <g id="patch_17">
    <path clip-path="url(#pa1fd0dcc03)" d="M 115.736917 307.584 
L 118.730073 307.584 
L 118.730073 307.584 
L 115.736917 307.584 
z
" style="fill:#0000ff;"/>
   </g>
   <g id="patch_18">
    <path clip-path="url(#pa1fd0dcc03)" d="M 118.730073 307.584 
L 121.723229 307.584 
L 121.723229 307.584 
L 118.730073 307.584 
z
" style="fill:#0000ff;"/>
   </g>
   <g id="patch_19">
    <path clip-path="url(#pa1fd0dcc03)" d="M 121.723229 307.584 
L 124.716384 307.584 
L 124.716384 307.584 
L 121.723229 307.584 
z
" style="fill:#0000ff;"/>
   </g>
   <g id="patch_20">
    <path clip-path="url(#pa1fd0dcc03)" d="M 124.716384 307.584 
L 127.70954 307.584 
L 127.70954 307.584 
L 124.716384 307.584 
z
" style="fill:#0000ff;"/>
   </g>
   <g id="patch_21">
    <path clip-path="url(#pa1fd0dcc03)" d="M 127.709528 307.584 
L 130.702695 307.584 
L 130.702695 307.584 
L 127.709528 307.584 
z
" style="fill:#0000ff;"/>
   </g>
   <g id="patch_22">
    <path clip-path="url(#pa1fd0dcc03)" d="M 130.702707 307.584 
L 133.695863 307.584 
L 133.695863 305.974857 
L 130.702707 305.974857 
z
" style="fill:#0000ff;"/>
   </g>
   <g id="patch_23">
    <path clip-path="url(#pa1fd0dcc03)" d="M 133.695863 307.584 
L 136.689019 307.584 
L 136.689019 307.584 
L 133.695863 307.584 
z
" style="fill:#0000ff;"/>
   </g>
   <g id="patch_24">
    <path clip-path="url(#pa1fd0dcc03)" d="M 136.689019 307.584 
L 139.682174 307.584 
L 139.682174 306.779429 
L 136.689019 306.779429 
z
" style="fill:#0000ff;"/>
   </g>
   <g id="patch_25">
    <path clip-path="url(#pa1fd0dcc03)" d="M 139.682174 307.584 
L 142.67533 307.584 
L 142.67533 305.974857 
L 139.682174 305.974857 
z
" style="fill:#0000ff;"/>
   </g>
   <g id="patch_26">
    <path clip-path="url(#pa1fd0dcc03)" d="M 142.67533 307.584 
L 145.668485 307.584 
L 145.668485 306.779429 
L 142.67533 306.779429 
z
" style="fill:#0000ff;"/>
   </g>
   <g id="patch_27">
    <path clip-path="url(#pa1fd0dcc03)" d="M 145.668485 307.584 
L 148.661641 307.584 
L 148.661641 306.779429 
L 145.668485 306.779429 
z
" style="fill:#0000ff;"/>
   </g>
   <g id="patch_28">
    <path clip-path="url(#pa1fd0dcc03)" d="M 148.661641 307.584 
L 151.654796 307.584 
L 151.654796 307.584 
L 148.661641 307.584 
z
" style="fill:#0000ff;"/>
   </g>
   <g id="patch_29">
    <path clip-path="url(#pa1fd0dcc03)" d="M 151.654796 307.584 
L 154.647952 307.584 
L 154.647952 306.779429 
L 151.654796 306.779429 
z
" style="fill:#0000ff;"/>
   </g>
   <g id="patch_30">
    <path clip-path="url(#pa1fd0dcc03)" d="M 154.647952 307.584 
L 157.641108 307.584 
L 157.641108 307.584 
L 154.647952 307.584 
z
" style="fill:#0000ff;"/>
   </g>
   <g id="patch_31">
    <path clip-path="url(#pa1fd0dcc03)" d="M 157.641108 307.584 
L 160.634263 307.584 
L 160.634263 306.779429 
L 157.641108 306.779429 
z
" style="fill:#0000ff;"/>
   </g>
   <g id="patch_32">
    <path clip-path="url(#pa1fd0dcc03)" d="M 160.634263 307.584 
L 163.627419 307.584 
L 163.627419 307.584 
L 160.634263 307.584 
z
" style="fill:#0000ff;"/>
   </g>
   <g id="patch_33">
    <path clip-path="url(#pa1fd0dcc03)" d="M 163.627419 307.584 
L 166.620574 307.584 
L 166.620574 305.170286 
L 163.627419 305.170286 
z
" style="fill:#0000ff;"/>
   </g>
   <g id="patch_34">
    <path clip-path="url(#pa1fd0dcc03)" d="M 166.620574 307.584 
L 169.613742 307.584 
L 169.613742 306.779429 
L 166.620574 306.779429 
z
" style="fill:#0000ff;"/>
   </g>
   <g id="patch_35">
    <path clip-path="url(#pa1fd0dcc03)" d="M 169.613742 307.584 
L 172.606897 307.584 
L 172.606897 305.974857 
L 169.613742 305.974857 
z
" style="fill:#0000ff;"/>
   </g>
   <g id="patch_36">
    <path clip-path="url(#pa1fd0dcc03)" d="M 172.60691 307.584 
L 175.600053 307.584 
L 175.600053 305.974857 
L 172.60691 305.974857 
z
" style="fill:#0000ff;"/>
   </g>
   <g id="patch_37">
    <path clip-path="url(#pa1fd0dcc03)" d="M 175.600047 307.584 
L 178.593215 307.584 
L 178.593215 305.974857 
L 175.600047 305.974857 
z
" style="fill:#0000ff;"/>
   </g>
   <g id="patch_38">
    <path clip-path="url(#pa1fd0dcc03)" d="M 178.593209 307.584 
L 181.586364 307.584 
L 181.586364 305.170286 
L 178.593209 305.170286 
z
" style="fill:#0000ff;"/>
   </g>
   <g id="patch_39">
    <path clip-path="url(#pa1fd0dcc03)" d="M 181.586364 307.584 
L 184.57952 307.584 
L 184.57952 305.170286 
L 181.586364 305.170286 
z
" style="fill:#0000ff;"/>
   </g>
   <g id="patch_40">
    <path clip-path="url(#pa1fd0dcc03)" d="M 184.57952 307.584 
L 187.572675 307.584 
L 187.572675 304.365714 
L 184.57952 304.365714 
z
" style="fill:#0000ff;"/>
   </g>
   <g id="patch_41">
    <path clip-path="url(#pa1fd0dcc03)" d="M 187.572675 307.584 
L 190.565831 307.584 
L 190.565831 304.365714 
L 187.572675 304.365714 
z
" style="fill:#0000ff;"/>
   </g>
   <g id="patch_42">
    <path clip-path="url(#pa1fd0dcc03)" d="M 190.565831 307.584 
L 193.558986 307.584 
L 193.558986 301.147429 
L 190.565831 301.147429 
z
" style="fill:#0000ff;"/>
   </g>
   <g id="patch_43">
    <path clip-path="url(#pa1fd0dcc03)" d="M 193.55898 307.584 
L 196.552148 307.584 
L 196.552148 301.147429 
L 193.55898 301.147429 
z
" style="fill:#0000ff;"/>
   </g>
   <g id="patch_44">
    <path clip-path="url(#pa1fd0dcc03)" d="M 196.552148 307.584 
L 199.545304 307.584 
L 199.545304 301.952 
L 196.552148 301.952 
z
" style="fill:#0000ff;"/>
   </g>
   <g id="patch_45">
    <path clip-path="url(#pa1fd0dcc03)" d="M 199.545304 307.584 
L 202.538459 307.584 
L 202.538459 301.952 
L 199.545304 301.952 
z
" style="fill:#0000ff;"/>
   </g>
   <g id="patch_46">
    <path clip-path="url(#pa1fd0dcc03)" d="M 202.538459 307.584 
L 205.531615 307.584 
L 205.531615 303.561143 
L 202.538459 303.561143 
z
" style="fill:#0000ff;"/>
   </g>
   <g id="patch_47">
    <path clip-path="url(#pa1fd0dcc03)" d="M 205.531615 307.584 
L 208.52477 307.584 
L 208.52477 297.124571 
L 205.531615 297.124571 
z
" style="fill:#0000ff;"/>
   </g>
   <g id="patch_48">
    <path clip-path="url(#pa1fd0dcc03)" d="M 208.52477 307.584 
L 211.517926 307.584 
L 211.517926 305.170286 
L 208.52477 305.170286 
z
" style="fill:#0000ff;"/>
   </g>
   <g id="patch_49">
    <path clip-path="url(#pa1fd0dcc03)" d="M 211.517926 307.584 
L 214.511094 307.584 
L 214.511094 300.342857 
L 211.517926 300.342857 
z
" style="fill:#0000ff;"/>
   </g>
   <g id="patch_50">
    <path clip-path="url(#pa1fd0dcc03)" d="M 214.511088 307.584 
L 217.504243 307.584 
L 217.504243 297.124571 
L 214.511088 297.124571 
z
" style="fill:#0000ff;"/>
   </g>
   <g id="patch_51">
    <path clip-path="url(#pa1fd0dcc03)" d="M 217.504243 307.584 
L 220.497399 307.584 
L 220.497399 299.538286 
L 217.504243 299.538286 
z
" style="fill:#0000ff;"/>
   </g>
   <g id="patch_52">
    <path clip-path="url(#pa1fd0dcc03)" d="M 220.497399 307.584 
L 223.490554 307.584 
L 223.490554 299.538286 
L 220.497399 299.538286 
z
" style="fill:#0000ff;"/>
   </g>
   <g id="patch_53">
    <path clip-path="url(#pa1fd0dcc03)" d="M 223.490554 307.584 
L 226.48371 307.584 
L 226.48371 299.538286 
L 223.490554 299.538286 
z
" style="fill:#0000ff;"/>
   </g>
   <g id="patch_54">
    <path clip-path="url(#pa1fd0dcc03)" d="M 226.48371 307.584 
L 229.476865 307.584 
L 229.476865 299.538286 
L 226.48371 299.538286 
z
" style="fill:#0000ff;"/>
   </g>
   <g id="patch_55">
    <path clip-path="url(#pa1fd0dcc03)" d="M 229.476868 307.584 
L 232.470024 307.584 
L 232.470024 299.538286 
L 229.476868 299.538286 
z
" style="fill:#0000ff;"/>
   </g>
   <g id="patch_56">
    <path clip-path="url(#pa1fd0dcc03)" d="M 232.470024 307.584 
L 235.46318 307.584 
L 235.46318 296.32 
L 232.470024 296.32 
z
" style="fill:#0000ff;"/>
   </g>
   <g id="patch_57">
    <path clip-path="url(#pa1fd0dcc03)" d="M 235.463183 307.584 
L 238.456338 307.584 
L 238.456338 298.733714 
L 235.463183 298.733714 
z
" style="fill:#0000ff;"/>
   </g>
   <g id="patch_58">
    <path clip-path="url(#pa1fd0dcc03)" d="M 238.456338 307.584 
L 241.449494 307.584 
L 241.449494 299.538286 
L 238.456338 299.538286 
z
" style="fill:#0000ff;"/>
   </g>
   <g id="patch_59">
    <path clip-path="url(#pa1fd0dcc03)" d="M 241.449494 307.584 
L 244.442649 307.584 
L 244.442649 294.710857 
L 241.449494 294.710857 
z
" style="fill:#0000ff;"/>
   </g>
   <g id="patch_60">
    <path clip-path="url(#pa1fd0dcc03)" d="M 244.442649 307.584 
L 247.435805 307.584 
L 247.435805 300.342857 
L 244.442649 300.342857 
z
" style="fill:#0000ff;"/>
   </g>
   <g id="patch_61">
    <path clip-path="url(#pa1fd0dcc03)" d="M 247.435808 307.584 
L 250.428964 307.584 
L 250.428964 289.078857 
L 247.435808 289.078857 
z
" style="fill:#0000ff;"/>
   </g>
   <g id="patch_62">
    <path clip-path="url(#pa1fd0dcc03)" d="M 250.428964 307.584 
L 253.422119 307.584 
L 253.422119 289.078857 
L 250.428964 289.078857 
z
" style="fill:#0000ff;"/>
   </g>
   <g id="patch_63">
    <path clip-path="url(#pa1fd0dcc03)" d="M 253.422119 307.584 
L 256.415275 307.584 
L 256.415275 286.665143 
L 253.422119 286.665143 
z
" style="fill:#0000ff;"/>
   </g>
   <g id="patch_64">
    <path clip-path="url(#pa1fd0dcc03)" d="M 256.415278 307.584 
L 259.408433 307.584 
L 259.408433 290.688 
L 256.415278 290.688 
z
" style="fill:#0000ff;"/>
   </g>
   <g id="patch_65">
    <path clip-path="url(#pa1fd0dcc03)" d="M 259.408433 307.584 
L 262.401589 307.584 
L 262.401589 285.056 
L 259.408433 285.056 
z
" style="fill:#0000ff;"/>
   </g>
   <g id="patch_66">
    <path clip-path="url(#pa1fd0dcc03)" d="M 262.40159 307.584 
L 265.394746 307.584 
L 265.394746 299.538286 
L 262.40159 299.538286 
z
" style="fill:#0000ff;"/>
   </g>
   <g id="patch_67">
    <path clip-path="url(#pa1fd0dcc03)" d="M 265.394746 307.584 
L 268.387902 307.584 
L 268.387902 281.033143 
L 265.394746 281.033143 
z
" style="fill:#0000ff;"/>
   </g>
   <g id="patch_68">
    <path clip-path="url(#pa1fd0dcc03)" d="M 268.387903 307.584 
L 271.381059 307.584 
L 271.381059 285.860571 
L 268.387903 285.860571 
z
" style="fill:#0000ff;"/>
   </g>
   <g id="patch_69">
    <path clip-path="url(#pa1fd0dcc03)" d="M 271.381059 307.584 
L 274.374215 307.584 
L 274.374215 275.401143 
L 271.381059 275.401143 
z
" style="fill:#0000ff;"/>
   </g>
   <g id="patch_70">
    <path clip-path="url(#pa1fd0dcc03)" d="M 274.374216 307.584 
L 277.367372 307.584 
L 277.367372 275.401143 
L 274.374216 275.401143 
z
" style="fill:#0000ff;"/>
   </g>
   <g id="patch_71">
    <path clip-path="url(#pa1fd0dcc03)" d="M 277.367373 307.584 
L 280.360528 307.584 
L 280.360528 281.837714 
L 277.367373 281.837714 
z
" style="fill:#0000ff;"/>
   </g>
   <g id="patch_72">
    <path clip-path="url(#pa1fd0dcc03)" d="M 280.360529 307.584 
L 283.353685 307.584 
L 283.353685 285.056 
L 280.360529 285.056 
z
" style="fill:#0000ff;"/>
   </g>
   <g id="patch_73">
    <path clip-path="url(#pa1fd0dcc03)" d="M 283.353685 307.584 
L 286.346841 307.584 
L 286.346841 287.469714 
L 283.353685 287.469714 
z
" style="fill:#0000ff;"/>
   </g>
   <g id="patch_74">
    <path clip-path="url(#pa1fd0dcc03)" d="M 286.346843 307.584 
L 289.339998 307.584 
L 289.339998 281.837714 
L 286.346843 281.837714 
z
" style="fill:#0000ff;"/>
   </g>
   <g id="patch_75">
    <path clip-path="url(#pa1fd0dcc03)" d="M 289.339998 307.584 
L 292.333154 307.584 
L 292.333154 297.124571 
L 289.339998 297.124571 
z
" style="fill:#0000ff;"/>
   </g>
   <g id="patch_76">
    <path clip-path="url(#pa1fd0dcc03)" d="M 292.333155 307.584 
L 295.326311 307.584 
L 295.326311 289.078857 
L 292.333155 289.078857 
z
" style="fill:#0000ff;"/>
   </g>
   <g id="patch_77">
    <path clip-path="url(#pa1fd0dcc03)" d="M 295.326312 307.584 
L 298.319468 307.584 
L 298.319468 284.251429 
L 295.326312 284.251429 
z
" style="fill:#0000ff;"/>
   </g>
   <g id="patch_78">
    <path clip-path="url(#pa1fd0dcc03)" d="M 298.319468 307.584 
L 301.312623 307.584 
L 301.312623 289.078857 
L 298.319468 289.078857 
z
" style="fill:#0000ff;"/>
   </g>
   <g id="patch_79">
    <path clip-path="url(#pa1fd0dcc03)" d="M 301.312623 307.584 
L 304.305779 307.584 
L 304.305779 291.492571 
L 301.312623 291.492571 
z
" style="fill:#0000ff;"/>
   </g>
   <g id="patch_80">
    <path clip-path="url(#pa1fd0dcc03)" d="M 304.305782 307.584 
L 307.298938 307.584 
L 307.298938 289.078857 
L 304.305782 289.078857 
z
" style="fill:#0000ff;"/>
   </g>
   <g id="patch_81">
    <path clip-path="url(#pa1fd0dcc03)" d="M 307.298938 307.584 
L 310.292093 307.584 
L 310.292093 295.515429 
L 307.298938 295.515429 
z
" style="fill:#0000ff;"/>
   </g>
   <g id="patch_82">
    <path clip-path="url(#pa1fd0dcc03)" d="M 310.292096 307.584 
L 313.285252 307.584 
L 313.285252 295.515429 
L 310.292096 295.515429 
z
" style="fill:#0000ff;"/>
   </g>
   <g id="patch_83">
    <path clip-path="url(#pa1fd0dcc03)" d="M 313.285252 307.584 
L 316.278407 307.584 
L 316.278407 300.342857 
L 313.285252 300.342857 
z
" style="fill:#0000ff;"/>
   </g>
   <g id="patch_84">
    <path clip-path="url(#pa1fd0dcc03)" d="M 316.278407 307.584 
L 319.271563 307.584 
L 319.271563 301.147429 
L 316.278407 301.147429 
z
" style="fill:#0000ff;"/>
   </g>
   <g id="patch_85">
    <path clip-path="url(#pa1fd0dcc03)" d="M 319.271563 307.584 
L 322.264718 307.584 
L 322.264718 301.147429 
L 319.271563 301.147429 
z
" style="fill:#0000ff;"/>
   </g>
   <g id="patch_86">
    <path clip-path="url(#pa1fd0dcc03)" d="M 322.264722 307.584 
L 325.257877 307.584 
L 325.257877 298.733714 
L 322.264722 298.733714 
z
" style="fill:#0000ff;"/>
   </g>
   <g id="patch_87">
    <path clip-path="url(#pa1fd0dcc03)" d="M 325.25788 307.584 
L 328.251036 307.584 
L 328.251036 301.952 
L 325.25788 301.952 
z
" style="fill:#0000ff;"/>
   </g>
   <g id="patch_88">
    <path clip-path="url(#pa1fd0dcc03)" d="M 328.251036 307.584 
L 331.244191 307.584 
L 331.244191 301.952 
L 328.251036 301.952 
z
" style="fill:#0000ff;"/>
   </g>
   <g id="patch_89">
    <path clip-path="url(#pa1fd0dcc03)" d="M 331.244191 307.584 
L 334.237347 307.584 
L 334.237347 301.952 
L 331.244191 301.952 
z
" style="fill:#0000ff;"/>
   </g>
   <g id="patch_90">
    <path clip-path="url(#pa1fd0dcc03)" d="M 334.237347 307.584 
L 337.230502 307.584 
L 337.230502 305.170286 
L 334.237347 305.170286 
z
" style="fill:#0000ff;"/>
   </g>
   <g id="patch_91">
    <path clip-path="url(#pa1fd0dcc03)" d="M 337.230502 307.584 
L 340.223658 307.584 
L 340.223658 304.365714 
L 337.230502 304.365714 
z
" style="fill:#0000ff;"/>
   </g>
   <g id="patch_92">
    <path clip-path="url(#pa1fd0dcc03)" d="M 340.223658 307.584 
L 343.216814 307.584 
L 343.216814 306.779429 
L 340.223658 306.779429 
z
" style="fill:#0000ff;"/>
   </g>
   <g id="patch_93">
    <path clip-path="url(#pa1fd0dcc03)" d="M 343.216808 307.584 
L 346.209975 307.584 
L 346.209975 307.584 
L 343.216808 307.584 
z
" style="fill:#0000ff;"/>
   </g>
   <g id="patch_94">
    <path clip-path="url(#pa1fd0dcc03)" d="M 346.209975 307.584 
L 349.203131 307.584 
L 349.203131 307.584 
L 346.209975 307.584 
z
" style="fill:#0000ff;"/>
   </g>
   <g id="patch_95">
    <path clip-path="url(#pa1fd0dcc03)" d="M 349.203131 307.584 
L 352.196286 307.584 
L 352.196286 306.779429 
L 349.203131 306.779429 
z
" style="fill:#0000ff;"/>
   </g>
   <g id="patch_96">
    <path clip-path="url(#pa1fd0dcc03)" d="M 352.196286 307.584 
L 355.189442 307.584 
L 355.189442 305.170286 
L 352.196286 305.170286 
z
" style="fill:#0000ff;"/>
   </g>
   <g id="patch_97">
    <path clip-path="url(#pa1fd0dcc03)" d="M 355.189442 307.584 
L 358.182597 307.584 
L 358.182597 307.584 
L 355.189442 307.584 
z
" style="fill:#0000ff;"/>
   </g>
   <g id="patch_98">
    <path clip-path="url(#pa1fd0dcc03)" d="M 358.182597 307.584 
L 361.175753 307.584 
L 361.175753 307.584 
L 358.182597 307.584 
z
" style="fill:#0000ff;"/>
   </g>
   <g id="patch_99">
    <path clip-path="url(#pa1fd0dcc03)" d="M 361.175753 307.584 
L 364.168921 307.584 
L 364.168921 307.584 
L 361.175753 307.584 
z
" style="fill:#0000ff;"/>
   </g>
   <g id="patch_100">
    <path clip-path="url(#pa1fd0dcc03)" d="M 364.168915 307.584 
L 367.16207 307.584 
L 367.16207 306.779429 
L 364.168915 306.779429 
z
" style="fill:#0000ff;"/>
   </g>
   <g id="patch_101">
    <path clip-path="url(#pa1fd0dcc03)" d="M 367.16207 307.584 
L 370.155226 307.584 
L 370.155226 307.584 
L 367.16207 307.584 
z
" style="fill:#0000ff;"/>
   </g>
   <g id="patch_102">
    <path clip-path="url(#pa1fd0dcc03)" d="M 370.155226 307.584 
L 373.148381 307.584 
L 373.148381 306.779429 
L 370.155226 306.779429 
z
" style="fill:#0000ff;"/>
   </g>
   <g id="patch_103">
    <path clip-path="url(#pa1fd0dcc03)" d="M 173.604612 307.584 
L 175.853436 307.584 
L 175.853436 301.952 
L 173.604612 301.952 
z
" style="fill:#808080;"/>
   </g>
   <g id="patch_104">
    <path clip-path="url(#pa1fd0dcc03)" d="M 175.853436 307.584 
L 178.102265 307.584 
L 178.102265 307.584 
L 175.853436 307.584 
z
" style="fill:#808080;"/>
   </g>
   <g id="patch_105">
    <path clip-path="url(#pa1fd0dcc03)" d="M 178.102265 307.584 
L 180.351089 307.584 
L 180.351089 305.974857 
L 178.102265 305.974857 
z
" style="fill:#808080;"/>
   </g>
   <g id="patch_106">
    <path clip-path="url(#pa1fd0dcc03)" d="M 180.351095 307.584 
L 182.599925 307.584 
L 182.599925 307.584 
L 180.351095 307.584 
z
" style="fill:#808080;"/>
   </g>
   <g id="patch_107">
    <path clip-path="url(#pa1fd0dcc03)" d="M 182.599919 307.584 
L 184.848743 307.584 
L 184.848743 306.779429 
L 182.599919 306.779429 
z
" style="fill:#808080;"/>
   </g>
   <g id="patch_108">
    <path clip-path="url(#pa1fd0dcc03)" d="M 184.848743 307.584 
L 187.097572 307.584 
L 187.097572 306.779429 
L 184.848743 306.779429 
z
" style="fill:#808080;"/>
   </g>
   <g id="patch_109">
    <path clip-path="url(#pa1fd0dcc03)" d="M 187.097572 307.584 
L 189.346396 307.584 
L 189.346396 306.779429 
L 187.097572 306.779429 
z
" style="fill:#808080;"/>
   </g>
   <g id="patch_110">
    <path clip-path="url(#pa1fd0dcc03)" d="M 189.346402 307.584 
L 191.595232 307.584 
L 191.595232 307.584 
L 189.346402 307.584 
z
" style="fill:#808080;"/>
   </g>
   <g id="patch_111">
    <path clip-path="url(#pa1fd0dcc03)" d="M 191.595226 307.584 
L 193.84405 307.584 
L 193.84405 306.779429 
L 191.595226 306.779429 
z
" style="fill:#808080;"/>
   </g>
   <g id="patch_112">
    <path clip-path="url(#pa1fd0dcc03)" d="M 193.84405 307.584 
L 196.092879 307.584 
L 196.092879 305.170286 
L 193.84405 305.170286 
z
" style="fill:#808080;"/>
   </g>
   <g id="patch_113">
    <path clip-path="url(#pa1fd0dcc03)" d="M 196.092879 307.584 
L 198.341703 307.584 
L 198.341703 305.170286 
L 196.092879 305.170286 
z
" style="fill:#808080;"/>
   </g>
   <g id="patch_114">
    <path clip-path="url(#pa1fd0dcc03)" d="M 198.341709 307.584 
L 200.590539 307.584 
L 200.590539 305.170286 
L 198.341709 305.170286 
z
" style="fill:#808080;"/>
   </g>
   <g id="patch_115">
    <path clip-path="url(#pa1fd0dcc03)" d="M 200.590533 307.584 
L 202.839356 307.584 
L 202.839356 306.779429 
L 200.590533 306.779429 
z
" style="fill:#808080;"/>
   </g>
   <g id="patch_116">
    <path clip-path="url(#pa1fd0dcc03)" d="M 202.839356 307.584 
L 205.088186 307.584 
L 205.088186 307.584 
L 202.839356 307.584 
z
" style="fill:#808080;"/>
   </g>
   <g id="patch_117">
    <path clip-path="url(#pa1fd0dcc03)" d="M 205.088186 307.584 
L 207.33701 307.584 
L 207.33701 301.952 
L 205.088186 301.952 
z
" style="fill:#808080;"/>
   </g>
   <g id="patch_118">
    <path clip-path="url(#pa1fd0dcc03)" d="M 207.337016 307.584 
L 209.585846 307.584 
L 209.585846 305.170286 
L 207.337016 305.170286 
z
" style="fill:#808080;"/>
   </g>
   <g id="patch_119">
    <path clip-path="url(#pa1fd0dcc03)" d="M 209.58584 307.584 
L 211.834663 307.584 
L 211.834663 301.952 
L 209.58584 301.952 
z
" style="fill:#808080;"/>
   </g>
   <g id="patch_120">
    <path clip-path="url(#pa1fd0dcc03)" d="M 211.834663 307.584 
L 214.083493 307.584 
L 214.083493 301.952 
L 211.834663 301.952 
z
" style="fill:#808080;"/>
   </g>
   <g id="patch_121">
    <path clip-path="url(#pa1fd0dcc03)" d="M 214.083493 307.584 
L 216.332317 307.584 
L 216.332317 305.170286 
L 214.083493 305.170286 
z
" style="fill:#808080;"/>
   </g>
   <g id="patch_122">
    <path clip-path="url(#pa1fd0dcc03)" d="M 216.332323 307.584 
L 218.581153 307.584 
L 218.581153 299.538286 
L 216.332323 299.538286 
z
" style="fill:#808080;"/>
   </g>
   <g id="patch_123">
    <path clip-path="url(#pa1fd0dcc03)" d="M 218.581147 307.584 
L 220.82997 307.584 
L 220.82997 302.756571 
L 218.581147 302.756571 
z
" style="fill:#808080;"/>
   </g>
   <g id="patch_124">
    <path clip-path="url(#pa1fd0dcc03)" d="M 220.82997 307.584 
L 223.0788 307.584 
L 223.0788 301.952 
L 220.82997 301.952 
z
" style="fill:#808080;"/>
   </g>
   <g id="patch_125">
    <path clip-path="url(#pa1fd0dcc03)" d="M 223.0788 307.584 
L 225.327624 307.584 
L 225.327624 307.584 
L 223.0788 307.584 
z
" style="fill:#808080;"/>
   </g>
   <g id="patch_126">
    <path clip-path="url(#pa1fd0dcc03)" d="M 225.327624 307.584 
L 227.576447 307.584 
L 227.576447 307.584 
L 225.327624 307.584 
z
" style="fill:#808080;"/>
   </g>
   <g id="patch_127">
    <path clip-path="url(#pa1fd0dcc03)" d="M 227.576453 307.584 
L 229.825277 307.584 
L 229.825277 307.584 
L 227.576453 307.584 
z
" style="fill:#808080;"/>
   </g>
   <g id="patch_128">
    <path clip-path="url(#pa1fd0dcc03)" d="M 229.825277 307.584 
L 232.074101 307.584 
L 232.074101 307.584 
L 229.825277 307.584 
z
" style="fill:#808080;"/>
   </g>
   <g id="patch_129">
    <path clip-path="url(#pa1fd0dcc03)" d="M 232.074107 307.584 
L 234.322931 307.584 
L 234.322931 307.584 
L 232.074107 307.584 
z
" style="fill:#808080;"/>
   </g>
   <g id="patch_130">
    <path clip-path="url(#pa1fd0dcc03)" d="M 234.322931 307.584 
L 236.571754 307.584 
L 236.571754 307.584 
L 234.322931 307.584 
z
" style="fill:#808080;"/>
   </g>
   <g id="patch_131">
    <path clip-path="url(#pa1fd0dcc03)" d="M 236.57176 307.584 
L 238.820584 307.584 
L 238.820584 307.584 
L 236.57176 307.584 
z
" style="fill:#808080;"/>
   </g>
   <g id="patch_132">
    <path clip-path="url(#pa1fd0dcc03)" d="M 238.820584 307.584 
L 241.069408 307.584 
L 241.069408 307.584 
L 238.820584 307.584 
z
" style="fill:#808080;"/>
   </g>
   <g id="patch_133">
    <path clip-path="url(#pa1fd0dcc03)" d="M 241.069414 307.584 
L 243.318238 307.584 
L 243.318238 307.584 
L 241.069414 307.584 
z
" style="fill:#808080;"/>
   </g>
   <g id="patch_134">
    <path clip-path="url(#pa1fd0dcc03)" d="M 243.318238 307.584 
L 245.567061 307.584 
L 245.567061 307.584 
L 243.318238 307.584 
z
" style="fill:#808080;"/>
   </g>
   <g id="patch_135">
    <path clip-path="url(#pa1fd0dcc03)" d="M 245.567067 307.584 
L 247.815891 307.584 
L 247.815891 307.584 
L 245.567067 307.584 
z
" style="fill:#808080;"/>
   </g>
   <g id="patch_136">
    <path clip-path="url(#pa1fd0dcc03)" d="M 247.815891 307.584 
L 250.064715 307.584 
L 250.064715 307.584 
L 247.815891 307.584 
z
" style="fill:#808080;"/>
   </g>
   <g id="patch_137">
    <path clip-path="url(#pa1fd0dcc03)" d="M 250.064718 307.584 
L 252.313541 307.584 
L 252.313541 307.584 
L 250.064718 307.584 
z
" style="fill:#808080;"/>
   </g>
   <g id="patch_138">
    <path clip-path="url(#pa1fd0dcc03)" d="M 252.313544 307.584 
L 254.562368 307.584 
L 254.562368 307.584 
L 252.313544 307.584 
z
" style="fill:#808080;"/>
   </g>
   <g id="patch_139">
    <path clip-path="url(#pa1fd0dcc03)" d="M 254.562371 307.584 
L 256.811195 307.584 
L 256.811195 307.584 
L 254.562371 307.584 
z
" style="fill:#808080;"/>
   </g>
   <g id="patch_140">
    <path clip-path="url(#pa1fd0dcc03)" d="M 256.811198 307.584 
L 259.060022 307.584 
L 259.060022 307.584 
L 256.811198 307.584 
z
" style="fill:#808080;"/>
   </g>
   <g id="patch_141">
    <path clip-path="url(#pa1fd0dcc03)" d="M 259.060025 307.584 
L 261.308848 307.584 
L 261.308848 307.584 
L 259.060025 307.584 
z
" style="fill:#808080;"/>
   </g>
   <g id="patch_142">
    <path clip-path="url(#pa1fd0dcc03)" d="M 261.308851 307.584 
L 263.557675 307.584 
L 263.557675 307.584 
L 261.308851 307.584 
z
" style="fill:#808080;"/>
   </g>
   <g id="patch_143">
    <path clip-path="url(#pa1fd0dcc03)" d="M 263.557678 307.584 
L 265.806502 307.584 
L 265.806502 307.584 
L 263.557678 307.584 
z
" style="fill:#808080;"/>
   </g>
   <g id="patch_144">
    <path clip-path="url(#pa1fd0dcc03)" d="M 265.806504 307.584 
L 268.055328 307.584 
L 268.055328 307.584 
L 265.806504 307.584 
z
" style="fill:#808080;"/>
   </g>
   <g id="patch_145">
    <path clip-path="url(#pa1fd0dcc03)" d="M 268.055331 307.584 
L 270.304154 307.584 
L 270.304154 307.584 
L 268.055331 307.584 
z
" style="fill:#808080;"/>
   </g>
   <g id="patch_146">
    <path clip-path="url(#pa1fd0dcc03)" d="M 270.304158 307.584 
L 272.552981 307.584 
L 272.552981 307.584 
L 270.304158 307.584 
z
" style="fill:#808080;"/>
   </g>
   <g id="patch_147">
    <path clip-path="url(#pa1fd0dcc03)" d="M 272.552984 307.584 
L 274.801808 307.584 
L 274.801808 307.584 
L 272.552984 307.584 
z
" style="fill:#808080;"/>
   </g>
   <g id="patch_148">
    <path clip-path="url(#pa1fd0dcc03)" d="M 274.801811 307.584 
L 277.050634 307.584 
L 277.050634 54.144 
L 274.801811 54.144 
z
" style="fill:#808080;"/>
   </g>
   <g id="patch_149">
    <path clip-path="url(#pa1fd0dcc03)" d="M 277.050637 307.584 
L 279.299461 307.584 
L 279.299461 283.446857 
L 277.050637 283.446857 
z
" style="fill:#808080;"/>
   </g>
   <g id="patch_150">
    <path clip-path="url(#pa1fd0dcc03)" d="M 279.299464 307.584 
L 281.548287 307.584 
L 281.548287 262.528 
L 279.299464 262.528 
z
" style="fill:#808080;"/>
   </g>
   <g id="patch_151">
    <path clip-path="url(#pa1fd0dcc03)" d="M 281.54829 307.584 
L 283.797114 307.584 
L 283.797114 289.078857 
L 281.54829 289.078857 
z
" style="fill:#808080;"/>
   </g>
   <g id="patch_152">
    <path clip-path="url(#pa1fd0dcc03)" d="M 283.797117 307.584 
L 286.045941 307.584 
L 286.045941 283.446857 
L 283.797117 283.446857 
z
" style="fill:#808080;"/>
   </g>
   <g id="patch_153">
    <path clip-path="url(#pa1fd0dcc03)" d="M 286.045944 307.584 
L 288.294768 307.584 
L 288.294768 271.378286 
L 286.045944 271.378286 
z
" style="fill:#808080;"/>
   </g>
   <g id="patch_154">
    <path clip-path="url(#pa1fd0dcc03)" d="M 288.294771 307.584 
L 290.543594 307.584 
L 290.543594 289.078857 
L 288.294771 289.078857 
z
" style="fill:#808080;"/>
   </g>
   <g id="patch_155">
    <path clip-path="url(#pa1fd0dcc03)" d="M 290.543597 307.584 
L 292.792421 307.584 
L 292.792421 268.964571 
L 290.543597 268.964571 
z
" style="fill:#808080;"/>
   </g>
   <g id="patch_156">
    <path clip-path="url(#pa1fd0dcc03)" d="M 292.792424 307.584 
L 295.041248 307.584 
L 295.041248 290.688 
L 292.792424 290.688 
z
" style="fill:#808080;"/>
   </g>
   <g id="patch_157">
    <path clip-path="url(#pa1fd0dcc03)" d="M 295.041251 307.584 
L 297.290074 307.584 
L 297.290074 260.918857 
L 295.041251 260.918857 
z
" style="fill:#808080;"/>
   </g>
   <g id="patch_158">
    <path clip-path="url(#pa1fd0dcc03)" d="M 297.290078 307.584 
L 299.538901 307.584 
L 299.538901 291.492571 
L 297.290078 291.492571 
z
" style="fill:#808080;"/>
   </g>
   <g id="patch_159">
    <path clip-path="url(#pa1fd0dcc03)" d="M 299.538903 307.584 
L 301.787726 307.584 
L 301.787726 298.733714 
L 299.538903 298.733714 
z
" style="fill:#808080;"/>
   </g>
   <g id="patch_160">
    <path clip-path="url(#pa1fd0dcc03)" d="M 301.787732 307.584 
L 304.036556 307.584 
L 304.036556 292.297143 
L 301.787732 292.297143 
z
" style="fill:#808080;"/>
   </g>
   <g id="patch_161">
    <path clip-path="url(#pa1fd0dcc03)" d="M 304.036556 307.584 
L 306.28538 307.584 
L 306.28538 304.365714 
L 304.036556 304.365714 
z
" style="fill:#808080;"/>
   </g>
   <g id="patch_162">
    <path clip-path="url(#pa1fd0dcc03)" d="M 306.285386 307.584 
L 308.53421 307.584 
L 308.53421 295.515429 
L 306.285386 295.515429 
z
" style="fill:#808080;"/>
   </g>
   <g id="patch_163">
    <path clip-path="url(#pa1fd0dcc03)" d="M 308.53421 307.584 
L 310.783033 307.584 
L 310.783033 302.756571 
L 308.53421 302.756571 
z
" style="fill:#808080;"/>
   </g>
   <g id="patch_164">
    <path clip-path="url(#pa1fd0dcc03)" d="M 310.783039 307.584 
L 313.031863 307.584 
L 313.031863 298.733714 
L 310.783039 298.733714 
z
" style="fill:#808080;"/>
   </g>
   <g id="patch_165">
    <path clip-path="url(#pa1fd0dcc03)" d="M 313.031863 307.584 
L 315.280687 307.584 
L 315.280687 302.756571 
L 313.031863 302.756571 
z
" style="fill:#808080;"/>
   </g>
   <g id="patch_166">
    <path clip-path="url(#pa1fd0dcc03)" d="M 315.280687 307.584 
L 317.529511 307.584 
L 317.529511 303.561143 
L 315.280687 303.561143 
z
" style="fill:#808080;"/>
   </g>
   <g id="patch_167">
    <path clip-path="url(#pa1fd0dcc03)" d="M 317.529517 307.584 
L 319.77834 307.584 
L 319.77834 299.538286 
L 317.529517 299.538286 
z
" style="fill:#808080;"/>
   </g>
   <g id="patch_168">
    <path clip-path="url(#pa1fd0dcc03)" d="M 319.77834 307.584 
L 322.027164 307.584 
L 322.027164 307.584 
L 319.77834 307.584 
z
" style="fill:#808080;"/>
   </g>
   <g id="patch_169">
    <path clip-path="url(#pa1fd0dcc03)" d="M 322.02717 307.584 
L 324.275994 307.584 
L 324.275994 304.365714 
L 322.02717 304.365714 
z
" style="fill:#808080;"/>
   </g>
   <g id="patch_170">
    <path clip-path="url(#pa1fd0dcc03)" d="M 324.275994 307.584 
L 326.524823 307.584 
L 326.524823 307.584 
L 324.275994 307.584 
z
" style="fill:#808080;"/>
   </g>
   <g id="patch_171">
    <path clip-path="url(#pa1fd0dcc03)" d="M 326.524823 307.584 
L 328.773647 307.584 
L 328.773647 307.584 
L 326.524823 307.584 
z
" style="fill:#808080;"/>
   </g>
   <g id="patch_172">
    <path clip-path="url(#pa1fd0dcc03)" d="M 328.773653 307.584 
L 331.022483 307.584 
L 331.022483 307.584 
L 328.773653 307.584 
z
" style="fill:#808080;"/>
   </g>
   <g id="patch_173">
    <path clip-path="url(#pa1fd0dcc03)" d="M 331.022477 307.584 
L 333.271301 307.584 
L 333.271301 307.584 
L 331.022477 307.584 
z
" style="fill:#808080;"/>
   </g>
   <g id="patch_174">
    <path clip-path="url(#pa1fd0dcc03)" d="M 333.271301 307.584 
L 335.52013 307.584 
L 335.52013 307.584 
L 333.271301 307.584 
z
" style="fill:#808080;"/>
   </g>
   <g id="patch_175">
    <path clip-path="url(#pa1fd0dcc03)" d="M 335.52013 307.584 
L 337.768954 307.584 
L 337.768954 307.584 
L 335.52013 307.584 
z
" style="fill:#808080;"/>
   </g>
   <g id="patch_176">
    <path clip-path="url(#pa1fd0dcc03)" d="M 337.76896 307.584 
L 340.01779 307.584 
L 340.01779 307.584 
L 337.76896 307.584 
z
" style="fill:#808080;"/>
   </g>
   <g id="patch_177">
    <path clip-path="url(#pa1fd0dcc03)" d="M 340.017784 307.584 
L 342.266608 307.584 
L 342.266608 307.584 
L 340.017784 307.584 
z
" style="fill:#808080;"/>
   </g>
   <g id="patch_178">
    <path clip-path="url(#pa1fd0dcc03)" d="M 342.266608 307.584 
L 344.515431 307.584 
L 344.515431 307.584 
L 342.266608 307.584 
z
" style="fill:#808080;"/>
   </g>
   <g id="patch_179">
    <path clip-path="url(#pa1fd0dcc03)" d="M 344.515431 307.584 
L 346.764261 307.584 
L 346.764261 307.584 
L 344.515431 307.584 
z
" style="fill:#808080;"/>
   </g>
   <g id="patch_180">
    <path clip-path="url(#pa1fd0dcc03)" d="M 346.764261 307.584 
L 349.013085 307.584 
L 349.013085 307.584 
L 346.764261 307.584 
z
" style="fill:#808080;"/>
   </g>
   <g id="patch_181">
    <path clip-path="url(#pa1fd0dcc03)" d="M 349.013091 307.584 
L 351.26192 307.584 
L 351.26192 307.584 
L 349.013091 307.584 
z
" style="fill:#808080;"/>
   </g>
   <g id="patch_182">
    <path clip-path="url(#pa1fd0dcc03)" d="M 351.261914 307.584 
L 353.510738 307.584 
L 353.510738 307.584 
L 351.261914 307.584 
z
" style="fill:#808080;"/>
   </g>
   <g id="patch_183">
    <path clip-path="url(#pa1fd0dcc03)" d="M 353.510738 307.584 
L 355.759568 307.584 
L 355.759568 307.584 
L 353.510738 307.584 
z
" style="fill:#808080;"/>
   </g>
   <g id="patch_184">
    <path clip-path="url(#pa1fd0dcc03)" d="M 355.759568 307.584 
L 358.008392 307.584 
L 358.008392 307.584 
L 355.759568 307.584 
z
" style="fill:#808080;"/>
   </g>
   <g id="patch_185">
    <path clip-path="url(#pa1fd0dcc03)" d="M 358.008398 307.584 
L 360.257227 307.584 
L 360.257227 307.584 
L 358.008398 307.584 
z
" style="fill:#808080;"/>
   </g>
   <g id="patch_186">
    <path clip-path="url(#pa1fd0dcc03)" d="M 360.257221 307.584 
L 362.506045 307.584 
L 362.506045 307.584 
L 360.257221 307.584 
z
" style="fill:#808080;"/>
   </g>
   <g id="patch_187">
    <path clip-path="url(#pa1fd0dcc03)" d="M 362.506045 307.584 
L 364.754875 307.584 
L 364.754875 307.584 
L 362.506045 307.584 
z
" style="fill:#808080;"/>
   </g>
   <g id="patch_188">
    <path clip-path="url(#pa1fd0dcc03)" d="M 364.754875 307.584 
L 367.003699 307.584 
L 367.003699 307.584 
L 364.754875 307.584 
z
" style="fill:#808080;"/>
   </g>
   <g id="patch_189">
    <path clip-path="url(#pa1fd0dcc03)" d="M 367.003705 307.584 
L 369.252534 307.584 
L 369.252534 307.584 
L 367.003705 307.584 
z
" style="fill:#808080;"/>
   </g>
   <g id="patch_190">
    <path clip-path="url(#pa1fd0dcc03)" d="M 369.252528 307.584 
L 371.501352 307.584 
L 371.501352 307.584 
L 369.252528 307.584 
z
" style="fill:#808080;"/>
   </g>
   <g id="patch_191">
    <path clip-path="url(#pa1fd0dcc03)" d="M 371.501352 307.584 
L 373.750182 307.584 
L 373.750182 307.584 
L 371.501352 307.584 
z
" style="fill:#808080;"/>
   </g>
   <g id="patch_192">
    <path clip-path="url(#pa1fd0dcc03)" d="M 373.750182 307.584 
L 375.999005 307.584 
L 375.999005 307.584 
L 373.750182 307.584 
z
" style="fill:#808080;"/>
   </g>
   <g id="patch_193">
    <path clip-path="url(#pa1fd0dcc03)" d="M 375.999011 307.584 
L 378.247835 307.584 
L 378.247835 306.779429 
L 375.999011 306.779429 
z
" style="fill:#808080;"/>
   </g>
   <g id="patch_194">
    <path clip-path="url(#pa1fd0dcc03)" d="M 378.247835 307.584 
L 380.496659 307.584 
L 380.496659 307.584 
L 378.247835 307.584 
z
" style="fill:#808080;"/>
   </g>
   <g id="patch_195">
    <path clip-path="url(#pa1fd0dcc03)" d="M 380.496659 307.584 
L 382.745483 307.584 
L 382.745483 305.974857 
L 380.496659 305.974857 
z
" style="fill:#808080;"/>
   </g>
   <g id="patch_196">
    <path clip-path="url(#pa1fd0dcc03)" d="M 382.745483 307.584 
L 384.994318 307.584 
L 384.994318 305.974857 
L 382.745483 305.974857 
z
" style="fill:#808080;"/>
   </g>
   <g id="patch_197">
    <path clip-path="url(#pa1fd0dcc03)" d="M 384.994318 307.584 
L 387.243142 307.584 
L 387.243142 307.584 
L 384.994318 307.584 
z
" style="fill:#808080;"/>
   </g>
   <g id="patch_198">
    <path clip-path="url(#pa1fd0dcc03)" d="M 387.243142 307.584 
L 389.491966 307.584 
L 389.491966 307.584 
L 387.243142 307.584 
z
" style="fill:#808080;"/>
   </g>
   <g id="patch_199">
    <path clip-path="url(#pa1fd0dcc03)" d="M 389.491966 307.584 
L 391.74079 307.584 
L 391.74079 307.584 
L 389.491966 307.584 
z
" style="fill:#808080;"/>
   </g>
   <g id="patch_200">
    <path clip-path="url(#pa1fd0dcc03)" d="M 391.740777 307.584 
L 393.989613 307.584 
L 393.989613 306.779429 
L 391.740777 306.779429 
z
" style="fill:#808080;"/>
   </g>
   <g id="patch_201">
    <path clip-path="url(#pa1fd0dcc03)" d="M 393.989625 307.584 
L 396.238449 307.584 
L 396.238449 307.584 
L 393.989625 307.584 
z
" style="fill:#808080;"/>
   </g>
   <g id="patch_202">
    <path clip-path="url(#pa1fd0dcc03)" d="M 396.238449 307.584 
L 398.487273 307.584 
L 398.487273 306.779429 
L 396.238449 306.779429 
z
" style="fill:#808080;"/>
   </g>
   <g id="matplotlib.axis_1">
    <g id="xtick_1">
     <g id="line2d_1">
      <defs>
       <path d="M 0 0 
L 0 3.5 
" id="m9a0aa40ef3" style="stroke:#000000;stroke-width:0.8;"/>
      </defs>
      <g>
       <use style="stroke:#000000;stroke-width:0.8;" x="116.592106" xlink:href="#m9a0aa40ef3" y="307.584"/>
      </g>
     </g>
     <g id="text_1">
      <!-- −100 -->
      <defs>
       <path d="M 10.59375 35.5 
L 73.1875 35.5 
L 73.1875 27.203125 
L 10.59375 27.203125 
z
" id="DejaVuSans-8722"/>
       <path d="M 12.40625 8.296875 
L 28.515625 8.296875 
L 28.515625 63.921875 
L 10.984375 60.40625 
L 10.984375 69.390625 
L 28.421875 72.90625 
L 38.28125 72.90625 
L 38.28125 8.296875 
L 54.390625 8.296875 
L 54.390625 0 
L 12.40625 0 
z
" id="DejaVuSans-49"/>
       <path d="M 31.78125 66.40625 
Q 24.171875 66.40625 20.328125 58.90625 
Q 16.5 51.421875 16.5 36.375 
Q 16.5 21.390625 20.328125 13.890625 
Q 24.171875 6.390625 31.78125 6.390625 
Q 39.453125 6.390625 43.28125 13.890625 
Q 47.125 21.390625 47.125 36.375 
Q 47.125 51.421875 43.28125 58.90625 
Q 39.453125 66.40625 31.78125 66.40625 
z
M 31.78125 74.21875 
Q 44.046875 74.21875 50.515625 64.515625 
Q 56.984375 54.828125 56.984375 36.375 
Q 56.984375 17.96875 50.515625 8.265625 
Q 44.046875 -1.421875 31.78125 -1.421875 
Q 19.53125 -1.421875 13.0625 8.265625 
Q 6.59375 17.96875 6.59375 36.375 
Q 6.59375 54.828125 13.0625 64.515625 
Q 19.53125 74.21875 31.78125 74.21875 
z
" id="DejaVuSans-48"/>
      </defs>
      <g transform="translate(102.858513 322.182437)scale(0.1 -0.1)">
       <use xlink:href="#DejaVuSans-8722"/>
       <use x="83.789062" xlink:href="#DejaVuSans-49"/>
       <use x="147.412109" xlink:href="#DejaVuSans-48"/>
       <use x="211.035156" xlink:href="#DejaVuSans-48"/>
      </g>
     </g>
    </g>
    <g id="xtick_2">
     <g id="line2d_2">
      <g>
       <use style="stroke:#000000;stroke-width:0.8;" x="195.776142" xlink:href="#m9a0aa40ef3" y="307.584"/>
      </g>
     </g>
     <g id="text_2">
      <!-- −50 -->
      <defs>
       <path d="M 10.796875 72.90625 
L 49.515625 72.90625 
L 49.515625 64.59375 
L 19.828125 64.59375 
L 19.828125 46.734375 
Q 21.96875 47.46875 24.109375 47.828125 
Q 26.265625 48.1875 28.421875 48.1875 
Q 40.625 48.1875 47.75 41.5 
Q 54.890625 34.8125 54.890625 23.390625 
Q 54.890625 11.625 47.5625 5.09375 
Q 40.234375 -1.421875 26.90625 -1.421875 
Q 22.3125 -1.421875 17.546875 -0.640625 
Q 12.796875 0.140625 7.71875 1.703125 
L 7.71875 11.625 
Q 12.109375 9.234375 16.796875 8.0625 
Q 21.484375 6.890625 26.703125 6.890625 
Q 35.15625 6.890625 40.078125 11.328125 
Q 45.015625 15.765625 45.015625 23.390625 
Q 45.015625 31 40.078125 35.4375 
Q 35.15625 39.890625 26.703125 39.890625 
Q 22.75 39.890625 18.8125 39.015625 
Q 14.890625 38.140625 10.796875 36.28125 
z
" id="DejaVuSans-53"/>
      </defs>
      <g transform="translate(185.223798 322.182437)scale(0.1 -0.1)">
       <use xlink:href="#DejaVuSans-8722"/>
       <use x="83.789062" xlink:href="#DejaVuSans-53"/>
       <use x="147.412109" xlink:href="#DejaVuSans-48"/>
      </g>
     </g>
    </g>
    <g id="xtick_3">
     <g id="line2d_3">
      <g>
       <use style="stroke:#000000;stroke-width:0.8;" x="274.960177" xlink:href="#m9a0aa40ef3" y="307.584"/>
      </g>
     </g>
     <g id="text_3">
      <!-- 0 -->
      <g transform="translate(271.778927 322.182437)scale(0.1 -0.1)">
       <use xlink:href="#DejaVuSans-48"/>
      </g>
     </g>
    </g>
    <g id="xtick_4">
     <g id="line2d_4">
      <g>
       <use style="stroke:#000000;stroke-width:0.8;" x="354.144213" xlink:href="#m9a0aa40ef3" y="307.584"/>
      </g>
     </g>
     <g id="text_4">
      <!-- 50 -->
      <g transform="translate(347.781713 322.182437)scale(0.1 -0.1)">
       <use xlink:href="#DejaVuSans-53"/>
       <use x="63.623047" xlink:href="#DejaVuSans-48"/>
      </g>
     </g>
    </g>
    <g id="text_5">
     <!-- Weight -->
     <defs>
      <path d="M 3.328125 72.90625 
L 13.28125 72.90625 
L 28.609375 11.28125 
L 43.890625 72.90625 
L 54.984375 72.90625 
L 70.3125 11.28125 
L 85.59375 72.90625 
L 95.609375 72.90625 
L 77.296875 0 
L 64.890625 0 
L 49.515625 63.28125 
L 33.984375 0 
L 21.578125 0 
z
" id="DejaVuSans-87"/>
      <path d="M 56.203125 29.59375 
L 56.203125 25.203125 
L 14.890625 25.203125 
Q 15.484375 15.921875 20.484375 11.0625 
Q 25.484375 6.203125 34.421875 6.203125 
Q 39.59375 6.203125 44.453125 7.46875 
Q 49.3125 8.734375 54.109375 11.28125 
L 54.109375 2.78125 
Q 49.265625 0.734375 44.1875 -0.34375 
Q 39.109375 -1.421875 33.890625 -1.421875 
Q 20.796875 -1.421875 13.15625 6.1875 
Q 5.515625 13.8125 5.515625 26.8125 
Q 5.515625 40.234375 12.765625 48.109375 
Q 20.015625 56 32.328125 56 
Q 43.359375 56 49.78125 48.890625 
Q 56.203125 41.796875 56.203125 29.59375 
z
M 47.21875 32.234375 
Q 47.125 39.59375 43.09375 43.984375 
Q 39.0625 48.390625 32.421875 48.390625 
Q 24.90625 48.390625 20.390625 44.140625 
Q 15.875 39.890625 15.1875 32.171875 
z
" id="DejaVuSans-101"/>
      <path d="M 9.421875 54.6875 
L 18.40625 54.6875 
L 18.40625 0 
L 9.421875 0 
z
M 9.421875 75.984375 
L 18.40625 75.984375 
L 18.40625 64.59375 
L 9.421875 64.59375 
z
" id="DejaVuSans-105"/>
      <path d="M 45.40625 27.984375 
Q 45.40625 37.75 41.375 43.109375 
Q 37.359375 48.484375 30.078125 48.484375 
Q 22.859375 48.484375 18.828125 43.109375 
Q 14.796875 37.75 14.796875 27.984375 
Q 14.796875 18.265625 18.828125 12.890625 
Q 22.859375 7.515625 30.078125 7.515625 
Q 37.359375 7.515625 41.375 12.890625 
Q 45.40625 18.265625 45.40625 27.984375 
z
M 54.390625 6.78125 
Q 54.390625 -7.171875 48.1875 -13.984375 
Q 42 -20.796875 29.203125 -20.796875 
Q 24.46875 -20.796875 20.265625 -20.09375 
Q 16.0625 -19.390625 12.109375 -17.921875 
L 12.109375 -9.1875 
Q 16.0625 -11.328125 19.921875 -12.34375 
Q 23.78125 -13.375 27.78125 -13.375 
Q 36.625 -13.375 41.015625 -8.765625 
Q 45.40625 -4.15625 45.40625 5.171875 
L 45.40625 9.625 
Q 42.625 4.78125 38.28125 2.390625 
Q 33.9375 0 27.875 0 
Q 17.828125 0 11.671875 7.65625 
Q 5.515625 15.328125 5.515625 27.984375 
Q 5.515625 40.671875 11.671875 48.328125 
Q 17.828125 56 27.875 56 
Q 33.9375 56 38.28125 53.609375 
Q 42.625 51.21875 45.40625 46.390625 
L 45.40625 54.6875 
L 54.390625 54.6875 
z
" id="DejaVuSans-103"/>
      <path d="M 54.890625 33.015625 
L 54.890625 0 
L 45.90625 0 
L 45.90625 32.71875 
Q 45.90625 40.484375 42.875 44.328125 
Q 39.84375 48.1875 33.796875 48.1875 
Q 26.515625 48.1875 22.3125 43.546875 
Q 18.109375 38.921875 18.109375 30.90625 
L 18.109375 0 
L 9.078125 0 
L 9.078125 75.984375 
L 18.109375 75.984375 
L 18.109375 46.1875 
Q 21.34375 51.125 25.703125 53.5625 
Q 30.078125 56 35.796875 56 
Q 45.21875 56 50.046875 50.171875 
Q 54.890625 44.34375 54.890625 33.015625 
z
" id="DejaVuSans-104"/>
      <path d="M 18.3125 70.21875 
L 18.3125 54.6875 
L 36.8125 54.6875 
L 36.8125 47.703125 
L 18.3125 47.703125 
L 18.3125 18.015625 
Q 18.3125 11.328125 20.140625 9.421875 
Q 21.96875 7.515625 27.59375 7.515625 
L 36.8125 7.515625 
L 36.8125 0 
L 27.59375 0 
Q 17.1875 0 13.234375 3.875 
Q 9.28125 7.765625 9.28125 18.015625 
L 9.28125 47.703125 
L 2.6875 47.703125 
L 2.6875 54.6875 
L 9.28125 54.6875 
L 9.28125 70.21875 
z
" id="DejaVuSans-116"/>
     </defs>
     <g transform="translate(218.451406 335.860562)scale(0.1 -0.1)">
      <use xlink:href="#DejaVuSans-87"/>
      <use x="98.798828" xlink:href="#DejaVuSans-101"/>
      <use x="160.322266" xlink:href="#DejaVuSans-105"/>
      <use x="188.105469" xlink:href="#DejaVuSans-103"/>
      <use x="251.582031" xlink:href="#DejaVuSans-104"/>
      <use x="314.960938" xlink:href="#DejaVuSans-116"/>
     </g>
    </g>
   </g>
   <g id="matplotlib.axis_2">
    <g id="ytick_1">
     <g id="line2d_5">
      <defs>
       <path d="M 0 0 
L -3.5 0 
" id="mfdde665319" style="stroke:#000000;stroke-width:0.8;"/>
      </defs>
      <g>
       <use style="stroke:#000000;stroke-width:0.8;" x="57.6" xlink:href="#mfdde665319" y="307.584"/>
      </g>
     </g>
     <g id="text_6">
      <!-- 0 -->
      <g transform="translate(44.2375 311.383219)scale(0.1 -0.1)">
       <use xlink:href="#DejaVuSans-48"/>
      </g>
     </g>
    </g>
    <g id="ytick_2">
     <g id="line2d_6">
      <g>
       <use style="stroke:#000000;stroke-width:0.8;" x="57.6" xlink:href="#mfdde665319" y="267.355429"/>
      </g>
     </g>
     <g id="text_7">
      <!-- 50 -->
      <g transform="translate(37.875 271.154647)scale(0.1 -0.1)">
       <use xlink:href="#DejaVuSans-53"/>
       <use x="63.623047" xlink:href="#DejaVuSans-48"/>
      </g>
     </g>
    </g>
    <g id="ytick_3">
     <g id="line2d_7">
      <g>
       <use style="stroke:#000000;stroke-width:0.8;" x="57.6" xlink:href="#mfdde665319" y="227.126857"/>
      </g>
     </g>
     <g id="text_8">
      <!-- 100 -->
      <g transform="translate(31.5125 230.926076)scale(0.1 -0.1)">
       <use xlink:href="#DejaVuSans-49"/>
       <use x="63.623047" xlink:href="#DejaVuSans-48"/>
       <use x="127.246094" xlink:href="#DejaVuSans-48"/>
      </g>
     </g>
    </g>
    <g id="ytick_4">
     <g id="line2d_8">
      <g>
       <use style="stroke:#000000;stroke-width:0.8;" x="57.6" xlink:href="#mfdde665319" y="186.898286"/>
      </g>
     </g>
     <g id="text_9">
      <!-- 150 -->
      <g transform="translate(31.5125 190.697504)scale(0.1 -0.1)">
       <use xlink:href="#DejaVuSans-49"/>
       <use x="63.623047" xlink:href="#DejaVuSans-53"/>
       <use x="127.246094" xlink:href="#DejaVuSans-48"/>
      </g>
     </g>
    </g>
    <g id="ytick_5">
     <g id="line2d_9">
      <g>
       <use style="stroke:#000000;stroke-width:0.8;" x="57.6" xlink:href="#mfdde665319" y="146.669714"/>
      </g>
     </g>
     <g id="text_10">
      <!-- 200 -->
      <defs>
       <path d="M 19.1875 8.296875 
L 53.609375 8.296875 
L 53.609375 0 
L 7.328125 0 
L 7.328125 8.296875 
Q 12.9375 14.109375 22.625 23.890625 
Q 32.328125 33.6875 34.8125 36.53125 
Q 39.546875 41.84375 41.421875 45.53125 
Q 43.3125 49.21875 43.3125 52.78125 
Q 43.3125 58.59375 39.234375 62.25 
Q 35.15625 65.921875 28.609375 65.921875 
Q 23.96875 65.921875 18.8125 64.3125 
Q 13.671875 62.703125 7.8125 59.421875 
L 7.8125 69.390625 
Q 13.765625 71.78125 18.9375 73 
Q 24.125 74.21875 28.421875 74.21875 
Q 39.75 74.21875 46.484375 68.546875 
Q 53.21875 62.890625 53.21875 53.421875 
Q 53.21875 48.921875 51.53125 44.890625 
Q 49.859375 40.875 45.40625 35.40625 
Q 44.1875 33.984375 37.640625 27.21875 
Q 31.109375 20.453125 19.1875 8.296875 
z
" id="DejaVuSans-50"/>
      </defs>
      <g transform="translate(31.5125 150.468933)scale(0.1 -0.1)">
       <use xlink:href="#DejaVuSans-50"/>
       <use x="63.623047" xlink:href="#DejaVuSans-48"/>
       <use x="127.246094" xlink:href="#DejaVuSans-48"/>
      </g>
     </g>
    </g>
    <g id="ytick_6">
     <g id="line2d_10">
      <g>
       <use style="stroke:#000000;stroke-width:0.8;" x="57.6" xlink:href="#mfdde665319" y="106.441143"/>
      </g>
     </g>
     <g id="text_11">
      <!-- 250 -->
      <g transform="translate(31.5125 110.240362)scale(0.1 -0.1)">
       <use xlink:href="#DejaVuSans-50"/>
       <use x="63.623047" xlink:href="#DejaVuSans-53"/>
       <use x="127.246094" xlink:href="#DejaVuSans-48"/>
      </g>
     </g>
    </g>
    <g id="ytick_7">
     <g id="line2d_11">
      <g>
       <use style="stroke:#000000;stroke-width:0.8;" x="57.6" xlink:href="#mfdde665319" y="66.212571"/>
      </g>
     </g>
     <g id="text_12">
      <!-- 300 -->
      <defs>
       <path d="M 40.578125 39.3125 
Q 47.65625 37.796875 51.625 33 
Q 55.609375 28.21875 55.609375 21.1875 
Q 55.609375 10.40625 48.1875 4.484375 
Q 40.765625 -1.421875 27.09375 -1.421875 
Q 22.515625 -1.421875 17.65625 -0.515625 
Q 12.796875 0.390625 7.625 2.203125 
L 7.625 11.71875 
Q 11.71875 9.328125 16.59375 8.109375 
Q 21.484375 6.890625 26.8125 6.890625 
Q 36.078125 6.890625 40.9375 10.546875 
Q 45.796875 14.203125 45.796875 21.1875 
Q 45.796875 27.640625 41.28125 31.265625 
Q 36.765625 34.90625 28.71875 34.90625 
L 20.21875 34.90625 
L 20.21875 43.015625 
L 29.109375 43.015625 
Q 36.375 43.015625 40.234375 45.921875 
Q 44.09375 48.828125 44.09375 54.296875 
Q 44.09375 59.90625 40.109375 62.90625 
Q 36.140625 65.921875 28.71875 65.921875 
Q 24.65625 65.921875 20.015625 65.03125 
Q 15.375 64.15625 9.8125 62.3125 
L 9.8125 71.09375 
Q 15.4375 72.65625 20.34375 73.4375 
Q 25.25 74.21875 29.59375 74.21875 
Q 40.828125 74.21875 47.359375 69.109375 
Q 53.90625 64.015625 53.90625 55.328125 
Q 53.90625 49.265625 50.4375 45.09375 
Q 46.96875 40.921875 40.578125 39.3125 
z
" id="DejaVuSans-51"/>
      </defs>
      <g transform="translate(31.5125 70.01179)scale(0.1 -0.1)">
       <use xlink:href="#DejaVuSans-51"/>
       <use x="63.623047" xlink:href="#DejaVuSans-48"/>
       <use x="127.246094" xlink:href="#DejaVuSans-48"/>
      </g>
     </g>
    </g>
    <g id="text_13">
     <!-- Occurrencies -->
     <defs>
      <path d="M 39.40625 66.21875 
Q 28.65625 66.21875 22.328125 58.203125 
Q 16.015625 50.203125 16.015625 36.375 
Q 16.015625 22.609375 22.328125 14.59375 
Q 28.65625 6.59375 39.40625 6.59375 
Q 50.140625 6.59375 56.421875 14.59375 
Q 62.703125 22.609375 62.703125 36.375 
Q 62.703125 50.203125 56.421875 58.203125 
Q 50.140625 66.21875 39.40625 66.21875 
z
M 39.40625 74.21875 
Q 54.734375 74.21875 63.90625 63.9375 
Q 73.09375 53.65625 73.09375 36.375 
Q 73.09375 19.140625 63.90625 8.859375 
Q 54.734375 -1.421875 39.40625 -1.421875 
Q 24.03125 -1.421875 14.8125 8.828125 
Q 5.609375 19.09375 5.609375 36.375 
Q 5.609375 53.65625 14.8125 63.9375 
Q 24.03125 74.21875 39.40625 74.21875 
z
" id="DejaVuSans-79"/>
      <path d="M 48.78125 52.59375 
L 48.78125 44.1875 
Q 44.96875 46.296875 41.140625 47.34375 
Q 37.3125 48.390625 33.40625 48.390625 
Q 24.65625 48.390625 19.8125 42.84375 
Q 14.984375 37.3125 14.984375 27.296875 
Q 14.984375 17.28125 19.8125 11.734375 
Q 24.65625 6.203125 33.40625 6.203125 
Q 37.3125 6.203125 41.140625 7.25 
Q 44.96875 8.296875 48.78125 10.40625 
L 48.78125 2.09375 
Q 45.015625 0.34375 40.984375 -0.53125 
Q 36.96875 -1.421875 32.421875 -1.421875 
Q 20.0625 -1.421875 12.78125 6.34375 
Q 5.515625 14.109375 5.515625 27.296875 
Q 5.515625 40.671875 12.859375 48.328125 
Q 20.21875 56 33.015625 56 
Q 37.15625 56 41.109375 55.140625 
Q 45.0625 54.296875 48.78125 52.59375 
z
" id="DejaVuSans-99"/>
      <path d="M 8.5 21.578125 
L 8.5 54.6875 
L 17.484375 54.6875 
L 17.484375 21.921875 
Q 17.484375 14.15625 20.5 10.265625 
Q 23.53125 6.390625 29.59375 6.390625 
Q 36.859375 6.390625 41.078125 11.03125 
Q 45.3125 15.671875 45.3125 23.6875 
L 45.3125 54.6875 
L 54.296875 54.6875 
L 54.296875 0 
L 45.3125 0 
L 45.3125 8.40625 
Q 42.046875 3.421875 37.71875 1 
Q 33.40625 -1.421875 27.6875 -1.421875 
Q 18.265625 -1.421875 13.375 4.4375 
Q 8.5 10.296875 8.5 21.578125 
z
M 31.109375 56 
z
" id="DejaVuSans-117"/>
      <path d="M 41.109375 46.296875 
Q 39.59375 47.171875 37.8125 47.578125 
Q 36.03125 48 33.890625 48 
Q 26.265625 48 22.1875 43.046875 
Q 18.109375 38.09375 18.109375 28.8125 
L 18.109375 0 
L 9.078125 0 
L 9.078125 54.6875 
L 18.109375 54.6875 
L 18.109375 46.1875 
Q 20.953125 51.171875 25.484375 53.578125 
Q 30.03125 56 36.53125 56 
Q 37.453125 56 38.578125 55.875 
Q 39.703125 55.765625 41.0625 55.515625 
z
" id="DejaVuSans-114"/>
      <path d="M 54.890625 33.015625 
L 54.890625 0 
L 45.90625 0 
L 45.90625 32.71875 
Q 45.90625 40.484375 42.875 44.328125 
Q 39.84375 48.1875 33.796875 48.1875 
Q 26.515625 48.1875 22.3125 43.546875 
Q 18.109375 38.921875 18.109375 30.90625 
L 18.109375 0 
L 9.078125 0 
L 9.078125 54.6875 
L 18.109375 54.6875 
L 18.109375 46.1875 
Q 21.34375 51.125 25.703125 53.5625 
Q 30.078125 56 35.796875 56 
Q 45.21875 56 50.046875 50.171875 
Q 54.890625 44.34375 54.890625 33.015625 
z
" id="DejaVuSans-110"/>
      <path d="M 44.28125 53.078125 
L 44.28125 44.578125 
Q 40.484375 46.53125 36.375 47.5 
Q 32.28125 48.484375 27.875 48.484375 
Q 21.1875 48.484375 17.84375 46.4375 
Q 14.5 44.390625 14.5 40.28125 
Q 14.5 37.15625 16.890625 35.375 
Q 19.28125 33.59375 26.515625 31.984375 
L 29.59375 31.296875 
Q 39.15625 29.25 43.1875 25.515625 
Q 47.21875 21.78125 47.21875 15.09375 
Q 47.21875 7.46875 41.1875 3.015625 
Q 35.15625 -1.421875 24.609375 -1.421875 
Q 20.21875 -1.421875 15.453125 -0.5625 
Q 10.6875 0.296875 5.421875 2 
L 5.421875 11.28125 
Q 10.40625 8.6875 15.234375 7.390625 
Q 20.0625 6.109375 24.8125 6.109375 
Q 31.15625 6.109375 34.5625 8.28125 
Q 37.984375 10.453125 37.984375 14.40625 
Q 37.984375 18.0625 35.515625 20.015625 
Q 33.0625 21.96875 24.703125 23.78125 
L 21.578125 24.515625 
Q 13.234375 26.265625 9.515625 29.90625 
Q 5.8125 33.546875 5.8125 39.890625 
Q 5.8125 47.609375 11.28125 51.796875 
Q 16.75 56 26.8125 56 
Q 31.78125 56 36.171875 55.265625 
Q 40.578125 54.546875 44.28125 53.078125 
z
" id="DejaVuSans-115"/>
     </defs>
     <g transform="translate(25.432812 207.304563)rotate(-90)scale(0.1 -0.1)">
      <use xlink:href="#DejaVuSans-79"/>
      <use x="78.710938" xlink:href="#DejaVuSans-99"/>
      <use x="133.691406" xlink:href="#DejaVuSans-99"/>
      <use x="188.671875" xlink:href="#DejaVuSans-117"/>
      <use x="252.050781" xlink:href="#DejaVuSans-114"/>
      <use x="293.148438" xlink:href="#DejaVuSans-114"/>
      <use x="334.230469" xlink:href="#DejaVuSans-101"/>
      <use x="395.753906" xlink:href="#DejaVuSans-110"/>
      <use x="459.132812" xlink:href="#DejaVuSans-99"/>
      <use x="514.113281" xlink:href="#DejaVuSans-105"/>
      <use x="541.896484" xlink:href="#DejaVuSans-101"/>
      <use x="603.419922" xlink:href="#DejaVuSans-115"/>
     </g>
    </g>
   </g>
   <g id="patch_203">
    <path d="M 57.6 307.584 
L 57.6 41.472 
" style="fill:none;stroke:#000000;stroke-linecap:square;stroke-linejoin:miter;stroke-width:0.8;"/>
   </g>
   <g id="patch_204">
    <path d="M 414.72 307.584 
L 414.72 41.472 
" style="fill:none;stroke:#000000;stroke-linecap:square;stroke-linejoin:miter;stroke-width:0.8;"/>
   </g>
   <g id="patch_205">
    <path d="M 57.6 307.584 
L 414.72 307.584 
" style="fill:none;stroke:#000000;stroke-linecap:square;stroke-linejoin:miter;stroke-width:0.8;"/>
   </g>
   <g id="patch_206">
    <path d="M 57.6 41.472 
L 414.72 41.472 
" style="fill:none;stroke:#000000;stroke-linecap:square;stroke-linejoin:miter;stroke-width:0.8;"/>
   </g>
   <g id="text_14">
    <!-- Histogram of fc3 -->
    <defs>
     <path d="M 9.8125 72.90625 
L 19.671875 72.90625 
L 19.671875 43.015625 
L 55.515625 43.015625 
L 55.515625 72.90625 
L 65.375 72.90625 
L 65.375 0 
L 55.515625 0 
L 55.515625 34.71875 
L 19.671875 34.71875 
L 19.671875 0 
L 9.8125 0 
z
" id="DejaVuSans-72"/>
     <path d="M 30.609375 48.390625 
Q 23.390625 48.390625 19.1875 42.75 
Q 14.984375 37.109375 14.984375 27.296875 
Q 14.984375 17.484375 19.15625 11.84375 
Q 23.34375 6.203125 30.609375 6.203125 
Q 37.796875 6.203125 41.984375 11.859375 
Q 46.1875 17.53125 46.1875 27.296875 
Q 46.1875 37.015625 41.984375 42.703125 
Q 37.796875 48.390625 30.609375 48.390625 
z
M 30.609375 56 
Q 42.328125 56 49.015625 48.375 
Q 55.71875 40.765625 55.71875 27.296875 
Q 55.71875 13.875 49.015625 6.21875 
Q 42.328125 -1.421875 30.609375 -1.421875 
Q 18.84375 -1.421875 12.171875 6.21875 
Q 5.515625 13.875 5.515625 27.296875 
Q 5.515625 40.765625 12.171875 48.375 
Q 18.84375 56 30.609375 56 
z
" id="DejaVuSans-111"/>
     <path d="M 34.28125 27.484375 
Q 23.390625 27.484375 19.1875 25 
Q 14.984375 22.515625 14.984375 16.5 
Q 14.984375 11.71875 18.140625 8.90625 
Q 21.296875 6.109375 26.703125 6.109375 
Q 34.1875 6.109375 38.703125 11.40625 
Q 43.21875 16.703125 43.21875 25.484375 
L 43.21875 27.484375 
z
M 52.203125 31.203125 
L 52.203125 0 
L 43.21875 0 
L 43.21875 8.296875 
Q 40.140625 3.328125 35.546875 0.953125 
Q 30.953125 -1.421875 24.3125 -1.421875 
Q 15.921875 -1.421875 10.953125 3.296875 
Q 6 8.015625 6 15.921875 
Q 6 25.140625 12.171875 29.828125 
Q 18.359375 34.515625 30.609375 34.515625 
L 43.21875 34.515625 
L 43.21875 35.40625 
Q 43.21875 41.609375 39.140625 45 
Q 35.0625 48.390625 27.6875 48.390625 
Q 23 48.390625 18.546875 47.265625 
Q 14.109375 46.140625 10.015625 43.890625 
L 10.015625 52.203125 
Q 14.9375 54.109375 19.578125 55.046875 
Q 24.21875 56 28.609375 56 
Q 40.484375 56 46.34375 49.84375 
Q 52.203125 43.703125 52.203125 31.203125 
z
" id="DejaVuSans-97"/>
     <path d="M 52 44.1875 
Q 55.375 50.25 60.0625 53.125 
Q 64.75 56 71.09375 56 
Q 79.640625 56 84.28125 50.015625 
Q 88.921875 44.046875 88.921875 33.015625 
L 88.921875 0 
L 79.890625 0 
L 79.890625 32.71875 
Q 79.890625 40.578125 77.09375 44.375 
Q 74.3125 48.1875 68.609375 48.1875 
Q 61.625 48.1875 57.5625 43.546875 
Q 53.515625 38.921875 53.515625 30.90625 
L 53.515625 0 
L 44.484375 0 
L 44.484375 32.71875 
Q 44.484375 40.625 41.703125 44.40625 
Q 38.921875 48.1875 33.109375 48.1875 
Q 26.21875 48.1875 22.15625 43.53125 
Q 18.109375 38.875 18.109375 30.90625 
L 18.109375 0 
L 9.078125 0 
L 9.078125 54.6875 
L 18.109375 54.6875 
L 18.109375 46.1875 
Q 21.1875 51.21875 25.484375 53.609375 
Q 29.78125 56 35.6875 56 
Q 41.65625 56 45.828125 52.96875 
Q 50 49.953125 52 44.1875 
z
" id="DejaVuSans-109"/>
     <path id="DejaVuSans-32"/>
     <path d="M 37.109375 75.984375 
L 37.109375 68.5 
L 28.515625 68.5 
Q 23.6875 68.5 21.796875 66.546875 
Q 19.921875 64.59375 19.921875 59.515625 
L 19.921875 54.6875 
L 34.71875 54.6875 
L 34.71875 47.703125 
L 19.921875 47.703125 
L 19.921875 0 
L 10.890625 0 
L 10.890625 47.703125 
L 2.296875 47.703125 
L 2.296875 54.6875 
L 10.890625 54.6875 
L 10.890625 58.5 
Q 10.890625 67.625 15.140625 71.796875 
Q 19.390625 75.984375 28.609375 75.984375 
z
" id="DejaVuSans-102"/>
    </defs>
    <g transform="translate(186.209063 35.472)scale(0.12 -0.12)">
     <use xlink:href="#DejaVuSans-72"/>
     <use x="75.195312" xlink:href="#DejaVuSans-105"/>
     <use x="102.978516" xlink:href="#DejaVuSans-115"/>
     <use x="155.078125" xlink:href="#DejaVuSans-116"/>
     <use x="194.287109" xlink:href="#DejaVuSans-111"/>
     <use x="255.46875" xlink:href="#DejaVuSans-103"/>
     <use x="318.945312" xlink:href="#DejaVuSans-114"/>
     <use x="360.058594" xlink:href="#DejaVuSans-97"/>
     <use x="421.337891" xlink:href="#DejaVuSans-109"/>
     <use x="518.75" xlink:href="#DejaVuSans-32"/>
     <use x="550.537109" xlink:href="#DejaVuSans-111"/>
     <use x="611.71875" xlink:href="#DejaVuSans-102"/>
     <use x="646.923828" xlink:href="#DejaVuSans-32"/>
     <use x="678.710938" xlink:href="#DejaVuSans-102"/>
     <use x="713.916016" xlink:href="#DejaVuSans-99"/>
     <use x="768.896484" xlink:href="#DejaVuSans-51"/>
    </g>
   </g>
   <g id="legend_1">
    <g id="patch_207">
     <path d="M 323.679375 78.82825 
L 407.72 78.82825 
Q 409.72 78.82825 409.72 76.82825 
L 409.72 48.472 
Q 409.72 46.472 407.72 46.472 
L 323.679375 46.472 
Q 321.679375 46.472 321.679375 48.472 
L 321.679375 76.82825 
Q 321.679375 78.82825 323.679375 78.82825 
z
" style="fill:#ffffff;opacity:0.8;stroke:#cccccc;stroke-linejoin:miter;"/>
    </g>
    <g id="patch_208">
     <path d="M 325.679375 58.070437 
L 345.679375 58.070437 
L 345.679375 51.070437 
L 325.679375 51.070437 
z
" style="fill:#0000ff;"/>
    </g>
    <g id="text_15">
     <!-- unmasked -->
     <defs>
      <path d="M 9.078125 75.984375 
L 18.109375 75.984375 
L 18.109375 31.109375 
L 44.921875 54.6875 
L 56.390625 54.6875 
L 27.390625 29.109375 
L 57.625 0 
L 45.90625 0 
L 18.109375 26.703125 
L 18.109375 0 
L 9.078125 0 
z
" id="DejaVuSans-107"/>
      <path d="M 45.40625 46.390625 
L 45.40625 75.984375 
L 54.390625 75.984375 
L 54.390625 0 
L 45.40625 0 
L 45.40625 8.203125 
Q 42.578125 3.328125 38.25 0.953125 
Q 33.9375 -1.421875 27.875 -1.421875 
Q 17.96875 -1.421875 11.734375 6.484375 
Q 5.515625 14.40625 5.515625 27.296875 
Q 5.515625 40.1875 11.734375 48.09375 
Q 17.96875 56 27.875 56 
Q 33.9375 56 38.25 53.625 
Q 42.578125 51.265625 45.40625 46.390625 
z
M 14.796875 27.296875 
Q 14.796875 17.390625 18.875 11.75 
Q 22.953125 6.109375 30.078125 6.109375 
Q 37.203125 6.109375 41.296875 11.75 
Q 45.40625 17.390625 45.40625 27.296875 
Q 45.40625 37.203125 41.296875 42.84375 
Q 37.203125 48.484375 30.078125 48.484375 
Q 22.953125 48.484375 18.875 42.84375 
Q 14.796875 37.203125 14.796875 27.296875 
z
" id="DejaVuSans-100"/>
     </defs>
     <g transform="translate(353.679375 58.070437)scale(0.1 -0.1)">
      <use xlink:href="#DejaVuSans-117"/>
      <use x="63.378906" xlink:href="#DejaVuSans-110"/>
      <use x="126.757812" xlink:href="#DejaVuSans-109"/>
      <use x="224.169922" xlink:href="#DejaVuSans-97"/>
      <use x="285.449219" xlink:href="#DejaVuSans-115"/>
      <use x="337.548828" xlink:href="#DejaVuSans-107"/>
      <use x="395.412109" xlink:href="#DejaVuSans-101"/>
      <use x="456.935547" xlink:href="#DejaVuSans-100"/>
     </g>
    </g>
    <g id="patch_209">
     <path d="M 325.679375 72.748562 
L 345.679375 72.748562 
L 345.679375 65.748562 
L 325.679375 65.748562 
z
" style="fill:#808080;"/>
    </g>
    <g id="text_16">
     <!-- masked -->
     <g transform="translate(353.679375 72.748562)scale(0.1 -0.1)">
      <use xlink:href="#DejaVuSans-109"/>
      <use x="97.412109" xlink:href="#DejaVuSans-97"/>
      <use x="158.691406" xlink:href="#DejaVuSans-115"/>
      <use x="210.791016" xlink:href="#DejaVuSans-107"/>
      <use x="268.654297" xlink:href="#DejaVuSans-101"/>
      <use x="330.177734" xlink:href="#DejaVuSans-100"/>
     </g>
    </g>
   </g>
  </g>
 </g>
 <defs>
  <clipPath id="pa1fd0dcc03">
   <rect height="266.112" width="357.12" x="57.6" y="41.472"/>
  </clipPath>
 </defs>
</svg>
