<?xml version="1.0" encoding="utf-8" standalone="no"?>
<!DOCTYPE svg PUBLIC "-//W3C//DTD SVG 1.1//EN"
  "http://www.w3.org/Graphics/SVG/1.1/DTD/svg11.dtd">
<!-- Created with matplotlib (https://matplotlib.org/) -->
<svg height="345.6pt" version="1.1" viewBox="0 0 460.8 345.6" width="460.8pt" xmlns="http://www.w3.org/2000/svg" xmlns:xlink="http://www.w3.org/1999/xlink">
 <defs>
  <style type="text/css">
*{stroke-linecap:butt;stroke-linejoin:round;}
  </style>
 </defs>
 <g id="figure_1">
  <g id="patch_1">
   <path d="M 0 345.6 
L 460.8 345.6 
L 460.8 0 
L 0 0 
z
" style="fill:#ffffff;"/>
  </g>
  <g id="axes_1">
   <g id="patch_2">
    <path d="M 57.6 307.584 
L 414.72 307.584 
L 414.72 41.472 
L 57.6 41.472 
z
" style="fill:#ffffff;"/>
   </g>
   <g id="patch_3">
    <path clip-path="url(#p1d92691cb2)" d="M 73.832727 307.584 
L 76.956179 307.584 
L 76.956179 307.565761 
L 73.832727 307.565761 
z
" style="fill:#0000ff;"/>
   </g>
   <g id="patch_4">
    <path clip-path="url(#p1d92691cb2)" d="M 76.956179 307.584 
L 80.079631 307.584 
L 80.079631 307.584 
L 76.956179 307.584 
z
" style="fill:#0000ff;"/>
   </g>
   <g id="patch_5">
    <path clip-path="url(#p1d92691cb2)" d="M 80.079631 307.584 
L 83.203083 307.584 
L 83.203083 307.584 
L 80.079631 307.584 
z
" style="fill:#0000ff;"/>
   </g>
   <g id="patch_6">
    <path clip-path="url(#p1d92691cb2)" d="M 83.203083 307.584 
L 86.326546 307.584 
L 86.326546 307.584 
L 83.203083 307.584 
z
" style="fill:#0000ff;"/>
   </g>
   <g id="patch_7">
    <path clip-path="url(#p1d92691cb2)" d="M 86.326546 307.584 
L 89.449998 307.584 
L 89.449998 307.574881 
L 86.326546 307.574881 
z
" style="fill:#0000ff;"/>
   </g>
   <g id="patch_8">
    <path clip-path="url(#p1d92691cb2)" d="M 89.449998 307.584 
L 92.57345 307.584 
L 92.57345 307.584 
L 89.449998 307.584 
z
" style="fill:#0000ff;"/>
   </g>
   <g id="patch_9">
    <path clip-path="url(#p1d92691cb2)" d="M 92.57345 307.584 
L 95.696902 307.584 
L 95.696902 307.584 
L 92.57345 307.584 
z
" style="fill:#0000ff;"/>
   </g>
   <g id="patch_10">
    <path clip-path="url(#p1d92691cb2)" d="M 95.696902 307.584 
L 98.820353 307.584 
L 98.820353 307.584 
L 95.696902 307.584 
z
" style="fill:#0000ff;"/>
   </g>
   <g id="patch_11">
    <path clip-path="url(#p1d92691cb2)" d="M 98.820353 307.584 
L 101.943805 307.584 
L 101.943805 307.584 
L 98.820353 307.584 
z
" style="fill:#0000ff;"/>
   </g>
   <g id="patch_12">
    <path clip-path="url(#p1d92691cb2)" d="M 101.943817 307.584 
L 105.067281 307.584 
L 105.067281 307.584 
L 101.943817 307.584 
z
" style="fill:#0000ff;"/>
   </g>
   <g id="patch_13">
    <path clip-path="url(#p1d92691cb2)" d="M 105.067269 307.584 
L 108.190721 307.584 
L 108.190721 307.565761 
L 105.067269 307.565761 
z
" style="fill:#0000ff;"/>
   </g>
   <g id="patch_14">
    <path clip-path="url(#p1d92691cb2)" d="M 108.190721 307.584 
L 111.314172 307.584 
L 111.314172 307.584 
L 108.190721 307.584 
z
" style="fill:#0000ff;"/>
   </g>
   <g id="patch_15">
    <path clip-path="url(#p1d92691cb2)" d="M 111.314172 307.584 
L 114.437624 307.584 
L 114.437624 307.584 
L 111.314172 307.584 
z
" style="fill:#0000ff;"/>
   </g>
   <g id="patch_16">
    <path clip-path="url(#p1d92691cb2)" d="M 114.437624 307.584 
L 117.561076 307.584 
L 117.561076 307.584 
L 114.437624 307.584 
z
" style="fill:#0000ff;"/>
   </g>
   <g id="patch_17">
    <path clip-path="url(#p1d92691cb2)" d="M 117.561076 307.584 
L 120.684528 307.584 
L 120.684528 307.565761 
L 117.561076 307.565761 
z
" style="fill:#0000ff;"/>
   </g>
   <g id="patch_18">
    <path clip-path="url(#p1d92691cb2)" d="M 120.684528 307.584 
L 123.807991 307.584 
L 123.807991 307.584 
L 120.684528 307.584 
z
" style="fill:#0000ff;"/>
   </g>
   <g id="patch_19">
    <path clip-path="url(#p1d92691cb2)" d="M 123.807991 307.584 
L 126.931443 307.584 
L 126.931443 307.584 
L 123.807991 307.584 
z
" style="fill:#0000ff;"/>
   </g>
   <g id="patch_20">
    <path clip-path="url(#p1d92691cb2)" d="M 126.931443 307.584 
L 130.054895 307.584 
L 130.054895 307.574881 
L 126.931443 307.574881 
z
" style="fill:#0000ff;"/>
   </g>
   <g id="patch_21">
    <path clip-path="url(#p1d92691cb2)" d="M 130.054895 307.584 
L 133.178347 307.584 
L 133.178347 307.584 
L 130.054895 307.584 
z
" style="fill:#0000ff;"/>
   </g>
   <g id="patch_22">
    <path clip-path="url(#p1d92691cb2)" d="M 133.178347 307.584 
L 136.301799 307.584 
L 136.301799 307.565761 
L 133.178347 307.565761 
z
" style="fill:#0000ff;"/>
   </g>
   <g id="patch_23">
    <path clip-path="url(#p1d92691cb2)" d="M 136.301799 307.584 
L 139.42525 307.584 
L 139.42525 307.574881 
L 136.301799 307.574881 
z
" style="fill:#0000ff;"/>
   </g>
   <g id="patch_24">
    <path clip-path="url(#p1d92691cb2)" d="M 139.425262 307.584 
L 142.548726 307.584 
L 142.548726 307.574881 
L 139.425262 307.574881 
z
" style="fill:#0000ff;"/>
   </g>
   <g id="patch_25">
    <path clip-path="url(#p1d92691cb2)" d="M 142.548714 307.584 
L 145.672166 307.584 
L 145.672166 307.565761 
L 142.548714 307.565761 
z
" style="fill:#0000ff;"/>
   </g>
   <g id="patch_26">
    <path clip-path="url(#p1d92691cb2)" d="M 145.672166 307.584 
L 148.795618 307.584 
L 148.795618 307.529283 
L 145.672166 307.529283 
z
" style="fill:#0000ff;"/>
   </g>
   <g id="patch_27">
    <path clip-path="url(#p1d92691cb2)" d="M 148.795618 307.584 
L 151.919069 307.584 
L 151.919069 307.547522 
L 148.795618 307.547522 
z
" style="fill:#0000ff;"/>
   </g>
   <g id="patch_28">
    <path clip-path="url(#p1d92691cb2)" d="M 151.919069 307.584 
L 155.042521 307.584 
L 155.042521 307.538403 
L 151.919069 307.538403 
z
" style="fill:#0000ff;"/>
   </g>
   <g id="patch_29">
    <path clip-path="url(#p1d92691cb2)" d="M 155.042521 307.584 
L 158.165973 307.584 
L 158.165973 307.483686 
L 155.042521 307.483686 
z
" style="fill:#0000ff;"/>
   </g>
   <g id="patch_30">
    <path clip-path="url(#p1d92691cb2)" d="M 158.165973 307.584 
L 161.289425 307.584 
L 161.289425 307.547522 
L 158.165973 307.547522 
z
" style="fill:#0000ff;"/>
   </g>
   <g id="patch_31">
    <path clip-path="url(#p1d92691cb2)" d="M 161.289425 307.584 
L 164.412888 307.584 
L 164.412888 307.556642 
L 161.289425 307.556642 
z
" style="fill:#0000ff;"/>
   </g>
   <g id="patch_32">
    <path clip-path="url(#p1d92691cb2)" d="M 164.412888 307.584 
L 167.53634 307.584 
L 167.53634 307.492805 
L 164.412888 307.492805 
z
" style="fill:#0000ff;"/>
   </g>
   <g id="patch_33">
    <path clip-path="url(#p1d92691cb2)" d="M 167.53634 307.584 
L 170.659792 307.584 
L 170.659792 307.40161 
L 167.53634 307.40161 
z
" style="fill:#0000ff;"/>
   </g>
   <g id="patch_34">
    <path clip-path="url(#p1d92691cb2)" d="M 170.659792 307.584 
L 173.783244 307.584 
L 173.783244 307.465447 
L 170.659792 307.465447 
z
" style="fill:#0000ff;"/>
   </g>
   <g id="patch_35">
    <path clip-path="url(#p1d92691cb2)" d="M 173.783244 307.584 
L 176.906696 307.584 
L 176.906696 307.447208 
L 173.783244 307.447208 
z
" style="fill:#0000ff;"/>
   </g>
   <g id="patch_36">
    <path clip-path="url(#p1d92691cb2)" d="M 176.906701 307.584 
L 180.030153 307.584 
L 180.030153 307.346893 
L 176.906701 307.346893 
z
" style="fill:#0000ff;"/>
   </g>
   <g id="patch_37">
    <path clip-path="url(#p1d92691cb2)" d="M 180.030153 307.584 
L 183.153605 307.584 
L 183.153605 307.319535 
L 180.030153 307.319535 
z
" style="fill:#0000ff;"/>
   </g>
   <g id="patch_38">
    <path clip-path="url(#p1d92691cb2)" d="M 183.153611 307.584 
L 186.277063 307.584 
L 186.277063 307.328654 
L 183.153611 307.328654 
z
" style="fill:#0000ff;"/>
   </g>
   <g id="patch_39">
    <path clip-path="url(#p1d92691cb2)" d="M 186.277063 307.584 
L 189.400515 307.584 
L 189.400515 307.182742 
L 186.277063 307.182742 
z
" style="fill:#0000ff;"/>
   </g>
   <g id="patch_40">
    <path clip-path="url(#p1d92691cb2)" d="M 189.400515 307.584 
L 192.523966 307.584 
L 192.523966 307.21922 
L 189.400515 307.21922 
z
" style="fill:#0000ff;"/>
   </g>
   <g id="patch_41">
    <path clip-path="url(#p1d92691cb2)" d="M 192.523966 307.584 
L 195.647418 307.584 
L 195.647418 307.100667 
L 192.523966 307.100667 
z
" style="fill:#0000ff;"/>
   </g>
   <g id="patch_42">
    <path clip-path="url(#p1d92691cb2)" d="M 195.647418 307.584 
L 198.77087 307.584 
L 198.77087 306.963874 
L 195.647418 306.963874 
z
" style="fill:#0000ff;"/>
   </g>
   <g id="patch_43">
    <path clip-path="url(#p1d92691cb2)" d="M 198.770876 307.584 
L 201.894328 307.584 
L 201.894328 306.845321 
L 198.770876 306.845321 
z
" style="fill:#0000ff;"/>
   </g>
   <g id="patch_44">
    <path clip-path="url(#p1d92691cb2)" d="M 201.894328 307.584 
L 205.017779 307.584 
L 205.017779 306.790604 
L 201.894328 306.790604 
z
" style="fill:#0000ff;"/>
   </g>
   <g id="patch_45">
    <path clip-path="url(#p1d92691cb2)" d="M 205.017785 307.584 
L 208.141237 307.584 
L 208.141237 306.352868 
L 205.017785 306.352868 
z
" style="fill:#0000ff;"/>
   </g>
   <g id="patch_46">
    <path clip-path="url(#p1d92691cb2)" d="M 208.141237 307.584 
L 211.264689 307.584 
L 211.264689 306.416704 
L 208.141237 306.416704 
z
" style="fill:#0000ff;"/>
   </g>
   <g id="patch_47">
    <path clip-path="url(#p1d92691cb2)" d="M 211.264689 307.584 
L 214.388141 307.584 
L 214.388141 306.033685 
L 211.264689 306.033685 
z
" style="fill:#0000ff;"/>
   </g>
   <g id="patch_48">
    <path clip-path="url(#p1d92691cb2)" d="M 214.388141 307.584 
L 217.511592 307.584 
L 217.511592 305.605069 
L 214.388141 305.605069 
z
" style="fill:#0000ff;"/>
   </g>
   <g id="patch_49">
    <path clip-path="url(#p1d92691cb2)" d="M 217.511598 307.584 
L 220.63505 307.584 
L 220.63505 305.541232 
L 217.511598 305.541232 
z
" style="fill:#0000ff;"/>
   </g>
   <g id="patch_50">
    <path clip-path="url(#p1d92691cb2)" d="M 220.63505 307.584 
L 223.758502 307.584 
L 223.758502 305.094377 
L 220.63505 305.094377 
z
" style="fill:#0000ff;"/>
   </g>
   <g id="patch_51">
    <path clip-path="url(#p1d92691cb2)" d="M 223.758505 307.584 
L 226.881957 307.584 
L 226.881957 304.711358 
L 223.758505 304.711358 
z
" style="fill:#0000ff;"/>
   </g>
   <g id="patch_52">
    <path clip-path="url(#p1d92691cb2)" d="M 226.88196 307.584 
L 230.005411 307.584 
L 230.005411 304.100351 
L 226.88196 304.100351 
z
" style="fill:#0000ff;"/>
   </g>
   <g id="patch_53">
    <path clip-path="url(#p1d92691cb2)" d="M 230.005411 307.584 
L 233.128863 307.584 
L 233.128863 304.30098 
L 230.005411 304.30098 
z
" style="fill:#0000ff;"/>
   </g>
   <g id="patch_54">
    <path clip-path="url(#p1d92691cb2)" d="M 233.128866 307.584 
L 236.252318 307.584 
L 236.252318 303.425508 
L 233.128866 303.425508 
z
" style="fill:#0000ff;"/>
   </g>
   <g id="patch_55">
    <path clip-path="url(#p1d92691cb2)" d="M 236.252321 307.584 
L 239.375773 307.584 
L 239.375773 302.741546 
L 236.252321 302.741546 
z
" style="fill:#0000ff;"/>
   </g>
   <g id="patch_56">
    <path clip-path="url(#p1d92691cb2)" d="M 239.375773 307.584 
L 242.499225 307.584 
L 242.499225 302.094062 
L 239.375773 302.094062 
z
" style="fill:#0000ff;"/>
   </g>
   <g id="patch_57">
    <path clip-path="url(#p1d92691cb2)" d="M 242.499227 307.584 
L 245.622679 307.584 
L 245.622679 301.464816 
L 242.499227 301.464816 
z
" style="fill:#0000ff;"/>
   </g>
   <g id="patch_58">
    <path clip-path="url(#p1d92691cb2)" d="M 245.622681 307.584 
L 248.746133 307.584 
L 248.746133 300.735256 
L 245.622681 300.735256 
z
" style="fill:#0000ff;"/>
   </g>
   <g id="patch_59">
    <path clip-path="url(#p1d92691cb2)" d="M 248.746134 307.584 
L 251.869586 307.584 
L 251.869586 299.868904 
L 248.746134 299.868904 
z
" style="fill:#0000ff;"/>
   </g>
   <g id="patch_60">
    <path clip-path="url(#p1d92691cb2)" d="M 251.869589 307.584 
L 254.993041 307.584 
L 254.993041 299.175822 
L 251.869589 299.175822 
z
" style="fill:#0000ff;"/>
   </g>
   <g id="patch_61">
    <path clip-path="url(#p1d92691cb2)" d="M 254.993042 307.584 
L 258.116494 307.584 
L 258.116494 296.357897 
L 254.993042 296.357897 
z
" style="fill:#0000ff;"/>
   </g>
   <g id="patch_62">
    <path clip-path="url(#p1d92691cb2)" d="M 258.116495 307.584 
L 261.239947 307.584 
L 261.239947 283.745629 
L 258.116495 283.745629 
z
" style="fill:#0000ff;"/>
   </g>
   <g id="patch_63">
    <path clip-path="url(#p1d92691cb2)" d="M 261.239949 307.584 
L 264.363401 307.584 
L 264.363401 262.178014 
L 261.239949 262.178014 
z
" style="fill:#0000ff;"/>
   </g>
   <g id="patch_64">
    <path clip-path="url(#p1d92691cb2)" d="M 264.363403 307.584 
L 267.486855 307.584 
L 267.486855 250.003483 
L 264.363403 250.003483 
z
" style="fill:#0000ff;"/>
   </g>
   <g id="patch_65">
    <path clip-path="url(#p1d92691cb2)" d="M 267.486857 307.584 
L 270.610308 307.584 
L 270.610308 247.842161 
L 267.486857 247.842161 
z
" style="fill:#0000ff;"/>
   </g>
   <g id="patch_66">
    <path clip-path="url(#p1d92691cb2)" d="M 270.61031 307.584 
L 273.733762 307.584 
L 273.733762 258.448139 
L 270.61031 258.448139 
z
" style="fill:#0000ff;"/>
   </g>
   <g id="patch_67">
    <path clip-path="url(#p1d92691cb2)" d="M 273.733764 307.584 
L 276.857216 307.584 
L 276.857216 277.216068 
L 273.733764 277.216068 
z
" style="fill:#0000ff;"/>
   </g>
   <g id="patch_68">
    <path clip-path="url(#p1d92691cb2)" d="M 276.857218 307.584 
L 279.98067 307.584 
L 279.98067 295.336513 
L 276.857218 295.336513 
z
" style="fill:#0000ff;"/>
   </g>
   <g id="patch_69">
    <path clip-path="url(#p1d92691cb2)" d="M 279.980671 307.584 
L 283.104123 307.584 
L 283.104123 293.640286 
L 279.980671 293.640286 
z
" style="fill:#0000ff;"/>
   </g>
   <g id="patch_70">
    <path clip-path="url(#p1d92691cb2)" d="M 283.104124 307.584 
L 286.227576 307.584 
L 286.227576 299.522363 
L 283.104124 299.522363 
z
" style="fill:#0000ff;"/>
   </g>
   <g id="patch_71">
    <path clip-path="url(#p1d92691cb2)" d="M 286.227579 307.584 
L 289.351031 307.584 
L 289.351031 299.741231 
L 286.227579 299.741231 
z
" style="fill:#0000ff;"/>
   </g>
   <g id="patch_72">
    <path clip-path="url(#p1d92691cb2)" d="M 289.351032 307.584 
L 292.474484 307.584 
L 292.474484 300.352237 
L 289.351032 300.352237 
z
" style="fill:#0000ff;"/>
   </g>
   <g id="patch_73">
    <path clip-path="url(#p1d92691cb2)" d="M 292.474486 307.584 
L 295.597938 307.584 
L 295.597938 301.255068 
L 292.474486 301.255068 
z
" style="fill:#0000ff;"/>
   </g>
   <g id="patch_74">
    <path clip-path="url(#p1d92691cb2)" d="M 295.59794 307.584 
L 298.721392 307.584 
L 298.721392 301.656326 
L 295.59794 301.656326 
z
" style="fill:#0000ff;"/>
   </g>
   <g id="patch_75">
    <path clip-path="url(#p1d92691cb2)" d="M 298.721392 307.584 
L 301.844844 307.584 
L 301.844844 302.641231 
L 298.721392 302.641231 
z
" style="fill:#0000ff;"/>
   </g>
   <g id="patch_76">
    <path clip-path="url(#p1d92691cb2)" d="M 301.844847 307.584 
L 304.968299 307.584 
L 304.968299 303.069848 
L 301.844847 303.069848 
z
" style="fill:#0000ff;"/>
   </g>
   <g id="patch_77">
    <path clip-path="url(#p1d92691cb2)" d="M 304.968302 307.584 
L 308.091754 307.584 
L 308.091754 303.927081 
L 304.968302 303.927081 
z
" style="fill:#0000ff;"/>
   </g>
   <g id="patch_78">
    <path clip-path="url(#p1d92691cb2)" d="M 308.091754 307.584 
L 311.215205 307.584 
L 311.215205 304.255383 
L 308.091754 304.255383 
z
" style="fill:#0000ff;"/>
   </g>
   <g id="patch_79">
    <path clip-path="url(#p1d92691cb2)" d="M 311.215208 307.584 
L 314.33866 307.584 
L 314.33866 304.775194 
L 311.215208 304.775194 
z
" style="fill:#0000ff;"/>
   </g>
   <g id="patch_80">
    <path clip-path="url(#p1d92691cb2)" d="M 314.338663 307.584 
L 317.462115 307.584 
L 317.462115 305.249408 
L 314.338663 305.249408 
z
" style="fill:#0000ff;"/>
   </g>
   <g id="patch_81">
    <path clip-path="url(#p1d92691cb2)" d="M 317.462115 307.584 
L 320.585567 307.584 
L 320.585567 305.568591 
L 317.462115 305.568591 
z
" style="fill:#0000ff;"/>
   </g>
   <g id="patch_82">
    <path clip-path="url(#p1d92691cb2)" d="M 320.585573 307.584 
L 323.709024 307.584 
L 323.709024 306.106641 
L 320.585573 306.106641 
z
" style="fill:#0000ff;"/>
   </g>
   <g id="patch_83">
    <path clip-path="url(#p1d92691cb2)" d="M 323.709024 307.584 
L 326.832476 307.584 
L 326.832476 306.398465 
L 323.709024 306.398465 
z
" style="fill:#0000ff;"/>
   </g>
   <g id="patch_84">
    <path clip-path="url(#p1d92691cb2)" d="M 326.832476 307.584 
L 329.955928 307.584 
L 329.955928 306.580855 
L 326.832476 306.580855 
z
" style="fill:#0000ff;"/>
   </g>
   <g id="patch_85">
    <path clip-path="url(#p1d92691cb2)" d="M 329.955928 307.584 
L 333.07938 307.584 
L 333.07938 306.918277 
L 329.955928 306.918277 
z
" style="fill:#0000ff;"/>
   </g>
   <g id="patch_86">
    <path clip-path="url(#p1d92691cb2)" d="M 333.079386 307.584 
L 336.202837 307.584 
L 336.202837 306.936516 
L 333.079386 306.936516 
z
" style="fill:#0000ff;"/>
   </g>
   <g id="patch_87">
    <path clip-path="url(#p1d92691cb2)" d="M 336.202837 307.584 
L 339.326289 307.584 
L 339.326289 307.210101 
L 336.202837 307.210101 
z
" style="fill:#0000ff;"/>
   </g>
   <g id="patch_88">
    <path clip-path="url(#p1d92691cb2)" d="M 339.326295 307.584 
L 342.449747 307.584 
L 342.449747 307.292176 
L 339.326295 307.292176 
z
" style="fill:#0000ff;"/>
   </g>
   <g id="patch_89">
    <path clip-path="url(#p1d92691cb2)" d="M 342.449747 307.584 
L 345.573199 307.584 
L 345.573199 307.40161 
L 342.449747 307.40161 
z
" style="fill:#0000ff;"/>
   </g>
   <g id="patch_90">
    <path clip-path="url(#p1d92691cb2)" d="M 345.573199 307.584 
L 348.696651 307.584 
L 348.696651 307.428969 
L 345.573199 307.428969 
z
" style="fill:#0000ff;"/>
   </g>
   <g id="patch_91">
    <path clip-path="url(#p1d92691cb2)" d="M 348.696651 307.584 
L 351.820102 307.584 
L 351.820102 307.501925 
L 348.696651 307.501925 
z
" style="fill:#0000ff;"/>
   </g>
   <g id="patch_92">
    <path clip-path="url(#p1d92691cb2)" d="M 351.820102 307.584 
L 354.943554 307.584 
L 354.943554 307.474566 
L 351.820102 307.474566 
z
" style="fill:#0000ff;"/>
   </g>
   <g id="patch_93">
    <path clip-path="url(#p1d92691cb2)" d="M 354.94356 307.584 
L 358.067012 307.584 
L 358.067012 307.511044 
L 354.94356 307.511044 
z
" style="fill:#0000ff;"/>
   </g>
   <g id="patch_94">
    <path clip-path="url(#p1d92691cb2)" d="M 358.067012 307.584 
L 361.190464 307.584 
L 361.190464 307.501925 
L 358.067012 307.501925 
z
" style="fill:#0000ff;"/>
   </g>
   <g id="patch_95">
    <path clip-path="url(#p1d92691cb2)" d="M 361.190469 307.584 
L 364.313921 307.584 
L 364.313921 307.538403 
L 361.190469 307.538403 
z
" style="fill:#0000ff;"/>
   </g>
   <g id="patch_96">
    <path clip-path="url(#p1d92691cb2)" d="M 364.313921 307.584 
L 367.437373 307.584 
L 367.437373 307.556642 
L 364.313921 307.556642 
z
" style="fill:#0000ff;"/>
   </g>
   <g id="patch_97">
    <path clip-path="url(#p1d92691cb2)" d="M 367.437373 307.584 
L 370.560825 307.584 
L 370.560825 307.565761 
L 367.437373 307.565761 
z
" style="fill:#0000ff;"/>
   </g>
   <g id="patch_98">
    <path clip-path="url(#p1d92691cb2)" d="M 370.560825 307.584 
L 373.684277 307.584 
L 373.684277 307.574881 
L 370.560825 307.574881 
z
" style="fill:#0000ff;"/>
   </g>
   <g id="patch_99">
    <path clip-path="url(#p1d92691cb2)" d="M 373.684288 307.584 
L 376.807752 307.584 
L 376.807752 307.565761 
L 373.684288 307.565761 
z
" style="fill:#0000ff;"/>
   </g>
   <g id="patch_100">
    <path clip-path="url(#p1d92691cb2)" d="M 376.80774 307.584 
L 379.931192 307.584 
L 379.931192 307.584 
L 376.80774 307.584 
z
" style="fill:#0000ff;"/>
   </g>
   <g id="patch_101">
    <path clip-path="url(#p1d92691cb2)" d="M 379.931192 307.584 
L 383.054644 307.584 
L 383.054644 307.584 
L 379.931192 307.584 
z
" style="fill:#0000ff;"/>
   </g>
   <g id="patch_102">
    <path clip-path="url(#p1d92691cb2)" d="M 383.054644 307.584 
L 386.178096 307.584 
L 386.178096 307.574881 
L 383.054644 307.574881 
z
" style="fill:#0000ff;"/>
   </g>
   <g id="patch_103">
    <path clip-path="url(#p1d92691cb2)" d="M 73.832727 307.584 
L 77.079274 307.584 
L 77.079274 307.574881 
L 73.832727 307.574881 
z
" style="fill:#808080;"/>
   </g>
   <g id="patch_104">
    <path clip-path="url(#p1d92691cb2)" d="M 77.079274 307.584 
L 80.32582 307.584 
L 80.32582 307.574881 
L 77.079274 307.574881 
z
" style="fill:#808080;"/>
   </g>
   <g id="patch_105">
    <path clip-path="url(#p1d92691cb2)" d="M 80.32582 307.584 
L 83.572366 307.584 
L 83.572366 307.584 
L 80.32582 307.584 
z
" style="fill:#808080;"/>
   </g>
   <g id="patch_106">
    <path clip-path="url(#p1d92691cb2)" d="M 83.572366 307.584 
L 86.818913 307.584 
L 86.818913 307.584 
L 83.572366 307.584 
z
" style="fill:#808080;"/>
   </g>
   <g id="patch_107">
    <path clip-path="url(#p1d92691cb2)" d="M 86.818913 307.584 
L 90.065459 307.584 
L 90.065459 307.584 
L 86.818913 307.584 
z
" style="fill:#808080;"/>
   </g>
   <g id="patch_108">
    <path clip-path="url(#p1d92691cb2)" d="M 90.065459 307.584 
L 93.312006 307.584 
L 93.312006 307.584 
L 90.065459 307.584 
z
" style="fill:#808080;"/>
   </g>
   <g id="patch_109">
    <path clip-path="url(#p1d92691cb2)" d="M 93.312006 307.584 
L 96.55854 307.584 
L 96.55854 307.584 
L 93.312006 307.584 
z
" style="fill:#808080;"/>
   </g>
   <g id="patch_110">
    <path clip-path="url(#p1d92691cb2)" d="M 96.55854 307.584 
L 99.805087 307.584 
L 99.805087 307.584 
L 96.55854 307.584 
z
" style="fill:#808080;"/>
   </g>
   <g id="patch_111">
    <path clip-path="url(#p1d92691cb2)" d="M 99.805087 307.584 
L 103.051633 307.584 
L 103.051633 307.584 
L 99.805087 307.584 
z
" style="fill:#808080;"/>
   </g>
   <g id="patch_112">
    <path clip-path="url(#p1d92691cb2)" d="M 103.051633 307.584 
L 106.298179 307.584 
L 106.298179 307.538403 
L 103.051633 307.538403 
z
" style="fill:#808080;"/>
   </g>
   <g id="patch_113">
    <path clip-path="url(#p1d92691cb2)" d="M 106.298179 307.584 
L 109.544726 307.584 
L 109.544726 307.584 
L 106.298179 307.584 
z
" style="fill:#808080;"/>
   </g>
   <g id="patch_114">
    <path clip-path="url(#p1d92691cb2)" d="M 109.544726 307.584 
L 112.791272 307.584 
L 112.791272 307.584 
L 109.544726 307.584 
z
" style="fill:#808080;"/>
   </g>
   <g id="patch_115">
    <path clip-path="url(#p1d92691cb2)" d="M 112.791272 307.584 
L 116.037819 307.584 
L 116.037819 307.584 
L 112.791272 307.584 
z
" style="fill:#808080;"/>
   </g>
   <g id="patch_116">
    <path clip-path="url(#p1d92691cb2)" d="M 116.037819 307.584 
L 119.284365 307.584 
L 119.284365 307.584 
L 116.037819 307.584 
z
" style="fill:#808080;"/>
   </g>
   <g id="patch_117">
    <path clip-path="url(#p1d92691cb2)" d="M 119.284365 307.584 
L 122.530911 307.584 
L 122.530911 307.584 
L 119.284365 307.584 
z
" style="fill:#808080;"/>
   </g>
   <g id="patch_118">
    <path clip-path="url(#p1d92691cb2)" d="M 122.530911 307.584 
L 125.777458 307.584 
L 125.777458 307.584 
L 122.530911 307.584 
z
" style="fill:#808080;"/>
   </g>
   <g id="patch_119">
    <path clip-path="url(#p1d92691cb2)" d="M 125.777458 307.584 
L 129.024004 307.584 
L 129.024004 307.584 
L 125.777458 307.584 
z
" style="fill:#808080;"/>
   </g>
   <g id="patch_120">
    <path clip-path="url(#p1d92691cb2)" d="M 129.024004 307.584 
L 132.270551 307.584 
L 132.270551 307.584 
L 129.024004 307.584 
z
" style="fill:#808080;"/>
   </g>
   <g id="patch_121">
    <path clip-path="url(#p1d92691cb2)" d="M 132.270562 307.584 
L 135.517097 307.584 
L 135.517097 307.584 
L 132.270562 307.584 
z
" style="fill:#808080;"/>
   </g>
   <g id="patch_122">
    <path clip-path="url(#p1d92691cb2)" d="M 135.517085 307.584 
L 138.763632 307.584 
L 138.763632 307.584 
L 135.517085 307.584 
z
" style="fill:#808080;"/>
   </g>
   <g id="patch_123">
    <path clip-path="url(#p1d92691cb2)" d="M 138.763632 307.584 
L 142.010178 307.584 
L 142.010178 307.584 
L 138.763632 307.584 
z
" style="fill:#808080;"/>
   </g>
   <g id="patch_124">
    <path clip-path="url(#p1d92691cb2)" d="M 142.010178 307.584 
L 145.256724 307.584 
L 145.256724 307.584 
L 142.010178 307.584 
z
" style="fill:#808080;"/>
   </g>
   <g id="patch_125">
    <path clip-path="url(#p1d92691cb2)" d="M 145.256724 307.584 
L 148.503271 307.584 
L 148.503271 307.584 
L 145.256724 307.584 
z
" style="fill:#808080;"/>
   </g>
   <g id="patch_126">
    <path clip-path="url(#p1d92691cb2)" d="M 148.503271 307.584 
L 151.749817 307.584 
L 151.749817 307.584 
L 148.503271 307.584 
z
" style="fill:#808080;"/>
   </g>
   <g id="patch_127">
    <path clip-path="url(#p1d92691cb2)" d="M 151.749817 307.584 
L 154.996364 307.584 
L 154.996364 307.584 
L 151.749817 307.584 
z
" style="fill:#808080;"/>
   </g>
   <g id="patch_128">
    <path clip-path="url(#p1d92691cb2)" d="M 154.996364 307.584 
L 158.24291 307.584 
L 158.24291 307.584 
L 154.996364 307.584 
z
" style="fill:#808080;"/>
   </g>
   <g id="patch_129">
    <path clip-path="url(#p1d92691cb2)" d="M 158.24291 307.584 
L 161.489456 307.584 
L 161.489456 307.584 
L 158.24291 307.584 
z
" style="fill:#808080;"/>
   </g>
   <g id="patch_130">
    <path clip-path="url(#p1d92691cb2)" d="M 161.489456 307.584 
L 164.736003 307.584 
L 164.736003 307.584 
L 161.489456 307.584 
z
" style="fill:#808080;"/>
   </g>
   <g id="patch_131">
    <path clip-path="url(#p1d92691cb2)" d="M 164.736003 307.584 
L 167.982549 307.584 
L 167.982549 307.584 
L 164.736003 307.584 
z
" style="fill:#808080;"/>
   </g>
   <g id="patch_132">
    <path clip-path="url(#p1d92691cb2)" d="M 167.982549 307.584 
L 171.229084 307.584 
L 171.229084 306.945635 
L 167.982549 306.945635 
z
" style="fill:#808080;"/>
   </g>
   <g id="patch_133">
    <path clip-path="url(#p1d92691cb2)" d="M 171.22909 307.584 
L 174.475636 307.584 
L 174.475636 307.529283 
L 171.22909 307.529283 
z
" style="fill:#808080;"/>
   </g>
   <g id="patch_134">
    <path clip-path="url(#p1d92691cb2)" d="M 174.475636 307.584 
L 177.722183 307.584 
L 177.722183 307.365132 
L 174.475636 307.365132 
z
" style="fill:#808080;"/>
   </g>
   <g id="patch_135">
    <path clip-path="url(#p1d92691cb2)" d="M 177.722183 307.584 
L 180.968729 307.584 
L 180.968729 307.301296 
L 177.722183 307.301296 
z
" style="fill:#808080;"/>
   </g>
   <g id="patch_136">
    <path clip-path="url(#p1d92691cb2)" d="M 180.968729 307.584 
L 184.215275 307.584 
L 184.215275 307.584 
L 180.968729 307.584 
z
" style="fill:#808080;"/>
   </g>
   <g id="patch_137">
    <path clip-path="url(#p1d92691cb2)" d="M 184.215275 307.584 
L 187.46181 307.584 
L 187.46181 307.584 
L 184.215275 307.584 
z
" style="fill:#808080;"/>
   </g>
   <g id="patch_138">
    <path clip-path="url(#p1d92691cb2)" d="M 187.461816 307.584 
L 190.708362 307.584 
L 190.708362 307.584 
L 187.461816 307.584 
z
" style="fill:#808080;"/>
   </g>
   <g id="patch_139">
    <path clip-path="url(#p1d92691cb2)" d="M 190.708362 307.584 
L 193.954909 307.584 
L 193.954909 307.584 
L 190.708362 307.584 
z
" style="fill:#808080;"/>
   </g>
   <g id="patch_140">
    <path clip-path="url(#p1d92691cb2)" d="M 193.954909 307.584 
L 197.201455 307.584 
L 197.201455 305.95161 
L 193.954909 305.95161 
z
" style="fill:#808080;"/>
   </g>
   <g id="patch_141">
    <path clip-path="url(#p1d92691cb2)" d="M 197.201455 307.584 
L 200.448001 307.584 
L 200.448001 307.584 
L 197.201455 307.584 
z
" style="fill:#808080;"/>
   </g>
   <g id="patch_142">
    <path clip-path="url(#p1d92691cb2)" d="M 200.448001 307.584 
L 203.694548 307.584 
L 203.694548 298.391545 
L 200.448001 298.391545 
z
" style="fill:#808080;"/>
   </g>
   <g id="patch_143">
    <path clip-path="url(#p1d92691cb2)" d="M 203.694554 307.584 
L 206.941088 307.584 
L 206.941088 307.584 
L 203.694554 307.584 
z
" style="fill:#808080;"/>
   </g>
   <g id="patch_144">
    <path clip-path="url(#p1d92691cb2)" d="M 206.941088 307.584 
L 210.187635 307.584 
L 210.187635 307.584 
L 206.941088 307.584 
z
" style="fill:#808080;"/>
   </g>
   <g id="patch_145">
    <path clip-path="url(#p1d92691cb2)" d="M 210.187635 307.584 
L 213.434181 307.584 
L 213.434181 307.584 
L 210.187635 307.584 
z
" style="fill:#808080;"/>
   </g>
   <g id="patch_146">
    <path clip-path="url(#p1d92691cb2)" d="M 213.434181 307.584 
L 216.680728 307.584 
L 216.680728 307.584 
L 213.434181 307.584 
z
" style="fill:#808080;"/>
   </g>
   <g id="patch_147">
    <path clip-path="url(#p1d92691cb2)" d="M 216.680728 307.584 
L 219.927274 307.584 
L 219.927274 307.584 
L 216.680728 307.584 
z
" style="fill:#808080;"/>
   </g>
   <g id="patch_148">
    <path clip-path="url(#p1d92691cb2)" d="M 219.927274 307.584 
L 223.17382 307.584 
L 223.17382 307.584 
L 219.927274 307.584 
z
" style="fill:#808080;"/>
   </g>
   <g id="patch_149">
    <path clip-path="url(#p1d92691cb2)" d="M 223.173817 307.584 
L 226.420364 307.584 
L 226.420364 307.584 
L 223.173817 307.584 
z
" style="fill:#808080;"/>
   </g>
   <g id="patch_150">
    <path clip-path="url(#p1d92691cb2)" d="M 226.420364 307.584 
L 229.66691 307.584 
L 229.66691 307.584 
L 226.420364 307.584 
z
" style="fill:#808080;"/>
   </g>
   <g id="patch_151">
    <path clip-path="url(#p1d92691cb2)" d="M 229.666907 307.584 
L 232.913454 307.584 
L 232.913454 307.584 
L 229.666907 307.584 
z
" style="fill:#808080;"/>
   </g>
   <g id="patch_152">
    <path clip-path="url(#p1d92691cb2)" d="M 232.913454 307.584 
L 236.16 307.584 
L 236.16 307.584 
L 232.913454 307.584 
z
" style="fill:#808080;"/>
   </g>
   <g id="patch_153">
    <path clip-path="url(#p1d92691cb2)" d="M 236.16 307.584 
L 239.406546 307.584 
L 239.406546 307.584 
L 236.16 307.584 
z
" style="fill:#808080;"/>
   </g>
   <g id="patch_154">
    <path clip-path="url(#p1d92691cb2)" d="M 239.406546 307.584 
L 242.653093 307.584 
L 242.653093 307.584 
L 239.406546 307.584 
z
" style="fill:#808080;"/>
   </g>
   <g id="patch_155">
    <path clip-path="url(#p1d92691cb2)" d="M 242.65309 307.584 
L 245.899636 307.584 
L 245.899636 307.584 
L 242.65309 307.584 
z
" style="fill:#808080;"/>
   </g>
   <g id="patch_156">
    <path clip-path="url(#p1d92691cb2)" d="M 245.899636 307.584 
L 249.146183 307.584 
L 249.146183 307.584 
L 245.899636 307.584 
z
" style="fill:#808080;"/>
   </g>
   <g id="patch_157">
    <path clip-path="url(#p1d92691cb2)" d="M 249.146181 307.584 
L 252.392728 307.584 
L 252.392728 307.584 
L 249.146181 307.584 
z
" style="fill:#808080;"/>
   </g>
   <g id="patch_158">
    <path clip-path="url(#p1d92691cb2)" d="M 252.392726 307.584 
L 255.639272 307.584 
L 255.639272 307.584 
L 252.392726 307.584 
z
" style="fill:#808080;"/>
   </g>
   <g id="patch_159">
    <path clip-path="url(#p1d92691cb2)" d="M 255.639272 307.584 
L 258.885819 307.584 
L 258.885819 307.584 
L 255.639272 307.584 
z
" style="fill:#808080;"/>
   </g>
   <g id="patch_160">
    <path clip-path="url(#p1d92691cb2)" d="M 258.885817 307.584 
L 262.132364 307.584 
L 262.132364 307.584 
L 258.885817 307.584 
z
" style="fill:#808080;"/>
   </g>
   <g id="patch_161">
    <path clip-path="url(#p1d92691cb2)" d="M 262.132363 307.584 
L 265.378909 307.584 
L 265.378909 307.584 
L 262.132363 307.584 
z
" style="fill:#808080;"/>
   </g>
   <g id="patch_162">
    <path clip-path="url(#p1d92691cb2)" d="M 265.378909 307.584 
L 268.625455 307.584 
L 268.625455 307.584 
L 265.378909 307.584 
z
" style="fill:#808080;"/>
   </g>
   <g id="patch_163">
    <path clip-path="url(#p1d92691cb2)" d="M 268.625454 307.584 
L 271.872001 307.584 
L 271.872001 54.144 
L 268.625454 54.144 
z
" style="fill:#808080;"/>
   </g>
   <g id="patch_164">
    <path clip-path="url(#p1d92691cb2)" d="M 271.871999 307.584 
L 275.118546 307.584 
L 275.118546 307.584 
L 271.871999 307.584 
z
" style="fill:#808080;"/>
   </g>
   <g id="patch_165">
    <path clip-path="url(#p1d92691cb2)" d="M 275.118545 307.584 
L 278.365091 307.584 
L 278.365091 228.92832 
L 275.118545 228.92832 
z
" style="fill:#808080;"/>
   </g>
   <g id="patch_166">
    <path clip-path="url(#p1d92691cb2)" d="M 278.36509 307.584 
L 281.611636 307.584 
L 281.611636 307.584 
L 278.36509 307.584 
z
" style="fill:#808080;"/>
   </g>
   <g id="patch_167">
    <path clip-path="url(#p1d92691cb2)" d="M 281.611635 307.584 
L 284.858181 307.584 
L 284.858181 307.584 
L 281.611635 307.584 
z
" style="fill:#808080;"/>
   </g>
   <g id="patch_168">
    <path clip-path="url(#p1d92691cb2)" d="M 284.858181 307.584 
L 288.104728 307.584 
L 288.104728 307.584 
L 284.858181 307.584 
z
" style="fill:#808080;"/>
   </g>
   <g id="patch_169">
    <path clip-path="url(#p1d92691cb2)" d="M 288.104728 307.584 
L 291.351274 307.584 
L 291.351274 307.584 
L 288.104728 307.584 
z
" style="fill:#808080;"/>
   </g>
   <g id="patch_170">
    <path clip-path="url(#p1d92691cb2)" d="M 291.351271 307.584 
L 294.597817 307.584 
L 294.597817 272.419211 
L 291.351271 272.419211 
z
" style="fill:#808080;"/>
   </g>
   <g id="patch_171">
    <path clip-path="url(#p1d92691cb2)" d="M 294.597817 307.584 
L 297.844364 307.584 
L 297.844364 298.099721 
L 294.597817 298.099721 
z
" style="fill:#808080;"/>
   </g>
   <g id="patch_172">
    <path clip-path="url(#p1d92691cb2)" d="M 297.844364 307.584 
L 301.09091 307.584 
L 301.09091 286.071102 
L 297.844364 286.071102 
z
" style="fill:#808080;"/>
   </g>
   <g id="patch_173">
    <path clip-path="url(#p1d92691cb2)" d="M 301.09091 307.584 
L 304.337457 307.584 
L 304.337457 288.661039 
L 301.09091 288.661039 
z
" style="fill:#808080;"/>
   </g>
   <g id="patch_174">
    <path clip-path="url(#p1d92691cb2)" d="M 304.337454 307.584 
L 307.584 307.584 
L 307.584 307.584 
L 304.337454 307.584 
z
" style="fill:#808080;"/>
   </g>
   <g id="patch_175">
    <path clip-path="url(#p1d92691cb2)" d="M 307.584 307.584 
L 310.830547 307.584 
L 310.830547 307.584 
L 307.584 307.584 
z
" style="fill:#808080;"/>
   </g>
   <g id="patch_176">
    <path clip-path="url(#p1d92691cb2)" d="M 310.830544 307.584 
L 314.07709 307.584 
L 314.07709 307.584 
L 310.830544 307.584 
z
" style="fill:#808080;"/>
   </g>
   <g id="patch_177">
    <path clip-path="url(#p1d92691cb2)" d="M 314.07709 307.584 
L 317.323636 307.584 
L 317.323636 307.584 
L 314.07709 307.584 
z
" style="fill:#808080;"/>
   </g>
   <g id="patch_178">
    <path clip-path="url(#p1d92691cb2)" d="M 317.323636 307.584 
L 320.570183 307.584 
L 320.570183 307.584 
L 317.323636 307.584 
z
" style="fill:#808080;"/>
   </g>
   <g id="patch_179">
    <path clip-path="url(#p1d92691cb2)" d="M 320.570183 307.584 
L 323.816729 307.584 
L 323.816729 307.584 
L 320.570183 307.584 
z
" style="fill:#808080;"/>
   </g>
   <g id="patch_180">
    <path clip-path="url(#p1d92691cb2)" d="M 323.816729 307.584 
L 327.063276 307.584 
L 327.063276 307.584 
L 323.816729 307.584 
z
" style="fill:#808080;"/>
   </g>
   <g id="patch_181">
    <path clip-path="url(#p1d92691cb2)" d="M 327.063281 307.584 
L 330.309816 307.584 
L 330.309816 307.584 
L 327.063281 307.584 
z
" style="fill:#808080;"/>
   </g>
   <g id="patch_182">
    <path clip-path="url(#p1d92691cb2)" d="M 330.309816 307.584 
L 333.556362 307.584 
L 333.556362 307.584 
L 330.309816 307.584 
z
" style="fill:#808080;"/>
   </g>
   <g id="patch_183">
    <path clip-path="url(#p1d92691cb2)" d="M 333.556362 307.584 
L 336.802909 307.584 
L 336.802909 307.584 
L 333.556362 307.584 
z
" style="fill:#808080;"/>
   </g>
   <g id="patch_184">
    <path clip-path="url(#p1d92691cb2)" d="M 336.802909 307.584 
L 340.049455 307.584 
L 340.049455 307.584 
L 336.802909 307.584 
z
" style="fill:#808080;"/>
   </g>
   <g id="patch_185">
    <path clip-path="url(#p1d92691cb2)" d="M 340.049455 307.584 
L 343.296002 307.584 
L 343.296002 307.584 
L 340.049455 307.584 
z
" style="fill:#808080;"/>
   </g>
   <g id="patch_186">
    <path clip-path="url(#p1d92691cb2)" d="M 343.296002 307.584 
L 346.542548 307.584 
L 346.542548 307.584 
L 343.296002 307.584 
z
" style="fill:#808080;"/>
   </g>
   <g id="patch_187">
    <path clip-path="url(#p1d92691cb2)" d="M 346.542548 307.584 
L 349.789083 307.584 
L 349.789083 307.584 
L 346.542548 307.584 
z
" style="fill:#808080;"/>
   </g>
   <g id="patch_188">
    <path clip-path="url(#p1d92691cb2)" d="M 349.789089 307.584 
L 353.035635 307.584 
L 353.035635 307.584 
L 349.789089 307.584 
z
" style="fill:#808080;"/>
   </g>
   <g id="patch_189">
    <path clip-path="url(#p1d92691cb2)" d="M 353.035635 307.584 
L 356.282181 307.584 
L 356.282181 307.584 
L 353.035635 307.584 
z
" style="fill:#808080;"/>
   </g>
   <g id="patch_190">
    <path clip-path="url(#p1d92691cb2)" d="M 356.282181 307.584 
L 359.528728 307.584 
L 359.528728 307.584 
L 356.282181 307.584 
z
" style="fill:#808080;"/>
   </g>
   <g id="patch_191">
    <path clip-path="url(#p1d92691cb2)" d="M 359.528728 307.584 
L 362.775274 307.584 
L 362.775274 307.584 
L 359.528728 307.584 
z
" style="fill:#808080;"/>
   </g>
   <g id="patch_192">
    <path clip-path="url(#p1d92691cb2)" d="M 362.775274 307.584 
L 366.021821 307.584 
L 366.021821 307.584 
L 362.775274 307.584 
z
" style="fill:#808080;"/>
   </g>
   <g id="patch_193">
    <path clip-path="url(#p1d92691cb2)" d="M 366.021821 307.584 
L 369.268367 307.584 
L 369.268367 304.793433 
L 366.021821 304.793433 
z
" style="fill:#808080;"/>
   </g>
   <g id="patch_194">
    <path clip-path="url(#p1d92691cb2)" d="M 369.268367 307.584 
L 372.514913 307.584 
L 372.514913 307.584 
L 369.268367 307.584 
z
" style="fill:#808080;"/>
   </g>
   <g id="patch_195">
    <path clip-path="url(#p1d92691cb2)" d="M 372.514913 307.584 
L 375.76146 307.584 
L 375.76146 303.890603 
L 372.514913 303.890603 
z
" style="fill:#808080;"/>
   </g>
   <g id="patch_196">
    <path clip-path="url(#p1d92691cb2)" d="M 375.761471 307.584 
L 379.008006 307.584 
L 379.008006 307.584 
L 375.761471 307.584 
z
" style="fill:#808080;"/>
   </g>
   <g id="patch_197">
    <path clip-path="url(#p1d92691cb2)" d="M 379.007994 307.584 
L 382.254541 307.584 
L 382.254541 307.584 
L 379.007994 307.584 
z
" style="fill:#808080;"/>
   </g>
   <g id="patch_198">
    <path clip-path="url(#p1d92691cb2)" d="M 382.254541 307.584 
L 385.501087 307.584 
L 385.501087 307.584 
L 382.254541 307.584 
z
" style="fill:#808080;"/>
   </g>
   <g id="patch_199">
    <path clip-path="url(#p1d92691cb2)" d="M 385.501087 307.584 
L 388.747634 307.584 
L 388.747634 307.584 
L 385.501087 307.584 
z
" style="fill:#808080;"/>
   </g>
   <g id="patch_200">
    <path clip-path="url(#p1d92691cb2)" d="M 388.747634 307.584 
L 391.99418 307.584 
L 391.99418 307.584 
L 388.747634 307.584 
z
" style="fill:#808080;"/>
   </g>
   <g id="patch_201">
    <path clip-path="url(#p1d92691cb2)" d="M 391.99418 307.584 
L 395.240726 307.584 
L 395.240726 306.243434 
L 391.99418 306.243434 
z
" style="fill:#808080;"/>
   </g>
   <g id="patch_202">
    <path clip-path="url(#p1d92691cb2)" d="M 395.240726 307.584 
L 398.487273 307.584 
L 398.487273 306.936516 
L 395.240726 306.936516 
z
" style="fill:#808080;"/>
   </g>
   <g id="matplotlib.axis_1">
    <g id="xtick_1">
     <g id="line2d_1">
      <defs>
       <path d="M 0 0 
L 0 3.5 
" id="mec385035f1" style="stroke:#000000;stroke-width:0.8;"/>
      </defs>
      <g>
       <use style="stroke:#000000;stroke-width:0.8;" x="115.3762" xlink:href="#mec385035f1" y="307.584"/>
      </g>
     </g>
     <g id="text_1">
      <!-- −100 -->
      <defs>
       <path d="M 10.59375 35.5 
L 73.1875 35.5 
L 73.1875 27.203125 
L 10.59375 27.203125 
z
" id="DejaVuSans-8722"/>
       <path d="M 12.40625 8.296875 
L 28.515625 8.296875 
L 28.515625 63.921875 
L 10.984375 60.40625 
L 10.984375 69.390625 
L 28.421875 72.90625 
L 38.28125 72.90625 
L 38.28125 8.296875 
L 54.390625 8.296875 
L 54.390625 0 
L 12.40625 0 
z
" id="DejaVuSans-49"/>
       <path d="M 31.78125 66.40625 
Q 24.171875 66.40625 20.328125 58.90625 
Q 16.5 51.421875 16.5 36.375 
Q 16.5 21.390625 20.328125 13.890625 
Q 24.171875 6.390625 31.78125 6.390625 
Q 39.453125 6.390625 43.28125 13.890625 
Q 47.125 21.390625 47.125 36.375 
Q 47.125 51.421875 43.28125 58.90625 
Q 39.453125 66.40625 31.78125 66.40625 
z
M 31.78125 74.21875 
Q 44.046875 74.21875 50.515625 64.515625 
Q 56.984375 54.828125 56.984375 36.375 
Q 56.984375 17.96875 50.515625 8.265625 
Q 44.046875 -1.421875 31.78125 -1.421875 
Q 19.53125 -1.421875 13.0625 8.265625 
Q 6.59375 17.96875 6.59375 36.375 
Q 6.59375 54.828125 13.0625 64.515625 
Q 19.53125 74.21875 31.78125 74.21875 
z
" id="DejaVuSans-48"/>
      </defs>
      <g transform="translate(101.642606 322.182437)scale(0.1 -0.1)">
       <use xlink:href="#DejaVuSans-8722"/>
       <use x="83.789062" xlink:href="#DejaVuSans-49"/>
       <use x="147.412109" xlink:href="#DejaVuSans-48"/>
       <use x="211.035156" xlink:href="#DejaVuSans-48"/>
      </g>
     </g>
    </g>
    <g id="xtick_2">
     <g id="line2d_2">
      <g>
       <use style="stroke:#000000;stroke-width:0.8;" x="192.308557" xlink:href="#mec385035f1" y="307.584"/>
      </g>
     </g>
     <g id="text_2">
      <!-- −50 -->
      <defs>
       <path d="M 10.796875 72.90625 
L 49.515625 72.90625 
L 49.515625 64.59375 
L 19.828125 64.59375 
L 19.828125 46.734375 
Q 21.96875 47.46875 24.109375 47.828125 
Q 26.265625 48.1875 28.421875 48.1875 
Q 40.625 48.1875 47.75 41.5 
Q 54.890625 34.8125 54.890625 23.390625 
Q 54.890625 11.625 47.5625 5.09375 
Q 40.234375 -1.421875 26.90625 -1.421875 
Q 22.3125 -1.421875 17.546875 -0.640625 
Q 12.796875 0.140625 7.71875 1.703125 
L 7.71875 11.625 
Q 12.109375 9.234375 16.796875 8.0625 
Q 21.484375 6.890625 26.703125 6.890625 
Q 35.15625 6.890625 40.078125 11.328125 
Q 45.015625 15.765625 45.015625 23.390625 
Q 45.015625 31 40.078125 35.4375 
Q 35.15625 39.890625 26.703125 39.890625 
Q 22.75 39.890625 18.8125 39.015625 
Q 14.890625 38.140625 10.796875 36.28125 
z
" id="DejaVuSans-53"/>
      </defs>
      <g transform="translate(181.756213 322.182437)scale(0.1 -0.1)">
       <use xlink:href="#DejaVuSans-8722"/>
       <use x="83.789062" xlink:href="#DejaVuSans-53"/>
       <use x="147.412109" xlink:href="#DejaVuSans-48"/>
      </g>
     </g>
    </g>
    <g id="xtick_3">
     <g id="line2d_3">
      <g>
       <use style="stroke:#000000;stroke-width:0.8;" x="269.240913" xlink:href="#mec385035f1" y="307.584"/>
      </g>
     </g>
     <g id="text_3">
      <!-- 0 -->
      <g transform="translate(266.059663 322.182437)scale(0.1 -0.1)">
       <use xlink:href="#DejaVuSans-48"/>
      </g>
     </g>
    </g>
    <g id="xtick_4">
     <g id="line2d_4">
      <g>
       <use style="stroke:#000000;stroke-width:0.8;" x="346.17327" xlink:href="#mec385035f1" y="307.584"/>
      </g>
     </g>
     <g id="text_4">
      <!-- 50 -->
      <g transform="translate(339.81077 322.182437)scale(0.1 -0.1)">
       <use xlink:href="#DejaVuSans-53"/>
       <use x="63.623047" xlink:href="#DejaVuSans-48"/>
      </g>
     </g>
    </g>
    <g id="text_5">
     <!-- Weight -->
     <defs>
      <path d="M 3.328125 72.90625 
L 13.28125 72.90625 
L 28.609375 11.28125 
L 43.890625 72.90625 
L 54.984375 72.90625 
L 70.3125 11.28125 
L 85.59375 72.90625 
L 95.609375 72.90625 
L 77.296875 0 
L 64.890625 0 
L 49.515625 63.28125 
L 33.984375 0 
L 21.578125 0 
z
" id="DejaVuSans-87"/>
      <path d="M 56.203125 29.59375 
L 56.203125 25.203125 
L 14.890625 25.203125 
Q 15.484375 15.921875 20.484375 11.0625 
Q 25.484375 6.203125 34.421875 6.203125 
Q 39.59375 6.203125 44.453125 7.46875 
Q 49.3125 8.734375 54.109375 11.28125 
L 54.109375 2.78125 
Q 49.265625 0.734375 44.1875 -0.34375 
Q 39.109375 -1.421875 33.890625 -1.421875 
Q 20.796875 -1.421875 13.15625 6.1875 
Q 5.515625 13.8125 5.515625 26.8125 
Q 5.515625 40.234375 12.765625 48.109375 
Q 20.015625 56 32.328125 56 
Q 43.359375 56 49.78125 48.890625 
Q 56.203125 41.796875 56.203125 29.59375 
z
M 47.21875 32.234375 
Q 47.125 39.59375 43.09375 43.984375 
Q 39.0625 48.390625 32.421875 48.390625 
Q 24.90625 48.390625 20.390625 44.140625 
Q 15.875 39.890625 15.1875 32.171875 
z
" id="DejaVuSans-101"/>
      <path d="M 9.421875 54.6875 
L 18.40625 54.6875 
L 18.40625 0 
L 9.421875 0 
z
M 9.421875 75.984375 
L 18.40625 75.984375 
L 18.40625 64.59375 
L 9.421875 64.59375 
z
" id="DejaVuSans-105"/>
      <path d="M 45.40625 27.984375 
Q 45.40625 37.75 41.375 43.109375 
Q 37.359375 48.484375 30.078125 48.484375 
Q 22.859375 48.484375 18.828125 43.109375 
Q 14.796875 37.75 14.796875 27.984375 
Q 14.796875 18.265625 18.828125 12.890625 
Q 22.859375 7.515625 30.078125 7.515625 
Q 37.359375 7.515625 41.375 12.890625 
Q 45.40625 18.265625 45.40625 27.984375 
z
M 54.390625 6.78125 
Q 54.390625 -7.171875 48.1875 -13.984375 
Q 42 -20.796875 29.203125 -20.796875 
Q 24.46875 -20.796875 20.265625 -20.09375 
Q 16.0625 -19.390625 12.109375 -17.921875 
L 12.109375 -9.1875 
Q 16.0625 -11.328125 19.921875 -12.34375 
Q 23.78125 -13.375 27.78125 -13.375 
Q 36.625 -13.375 41.015625 -8.765625 
Q 45.40625 -4.15625 45.40625 5.171875 
L 45.40625 9.625 
Q 42.625 4.78125 38.28125 2.390625 
Q 33.9375 0 27.875 0 
Q 17.828125 0 11.671875 7.65625 
Q 5.515625 15.328125 5.515625 27.984375 
Q 5.515625 40.671875 11.671875 48.328125 
Q 17.828125 56 27.875 56 
Q 33.9375 56 38.28125 53.609375 
Q 42.625 51.21875 45.40625 46.390625 
L 45.40625 54.6875 
L 54.390625 54.6875 
z
" id="DejaVuSans-103"/>
      <path d="M 54.890625 33.015625 
L 54.890625 0 
L 45.90625 0 
L 45.90625 32.71875 
Q 45.90625 40.484375 42.875 44.328125 
Q 39.84375 48.1875 33.796875 48.1875 
Q 26.515625 48.1875 22.3125 43.546875 
Q 18.109375 38.921875 18.109375 30.90625 
L 18.109375 0 
L 9.078125 0 
L 9.078125 75.984375 
L 18.109375 75.984375 
L 18.109375 46.1875 
Q 21.34375 51.125 25.703125 53.5625 
Q 30.078125 56 35.796875 56 
Q 45.21875 56 50.046875 50.171875 
Q 54.890625 44.34375 54.890625 33.015625 
z
" id="DejaVuSans-104"/>
      <path d="M 18.3125 70.21875 
L 18.3125 54.6875 
L 36.8125 54.6875 
L 36.8125 47.703125 
L 18.3125 47.703125 
L 18.3125 18.015625 
Q 18.3125 11.328125 20.140625 9.421875 
Q 21.96875 7.515625 27.59375 7.515625 
L 36.8125 7.515625 
L 36.8125 0 
L 27.59375 0 
Q 17.1875 0 13.234375 3.875 
Q 9.28125 7.765625 9.28125 18.015625 
L 9.28125 47.703125 
L 2.6875 47.703125 
L 2.6875 54.6875 
L 9.28125 54.6875 
L 9.28125 70.21875 
z
" id="DejaVuSans-116"/>
     </defs>
     <g transform="translate(218.451406 335.860562)scale(0.1 -0.1)">
      <use xlink:href="#DejaVuSans-87"/>
      <use x="98.798828" xlink:href="#DejaVuSans-101"/>
      <use x="160.322266" xlink:href="#DejaVuSans-105"/>
      <use x="188.105469" xlink:href="#DejaVuSans-103"/>
      <use x="251.582031" xlink:href="#DejaVuSans-104"/>
      <use x="314.960938" xlink:href="#DejaVuSans-116"/>
     </g>
    </g>
   </g>
   <g id="matplotlib.axis_2">
    <g id="ytick_1">
     <g id="line2d_5">
      <defs>
       <path d="M 0 0 
L -3.5 0 
" id="m359bd9698e" style="stroke:#000000;stroke-width:0.8;"/>
      </defs>
      <g>
       <use style="stroke:#000000;stroke-width:0.8;" x="57.6" xlink:href="#m359bd9698e" y="307.584"/>
      </g>
     </g>
     <g id="text_6">
      <!-- 0 -->
      <g transform="translate(44.2375 311.383219)scale(0.1 -0.1)">
       <use xlink:href="#DejaVuSans-48"/>
      </g>
     </g>
    </g>
    <g id="ytick_2">
     <g id="line2d_6">
      <g>
       <use style="stroke:#000000;stroke-width:0.8;" x="57.6" xlink:href="#m359bd9698e" y="261.986504"/>
      </g>
     </g>
     <g id="text_7">
      <!-- 5000 -->
      <g transform="translate(25.15 265.785723)scale(0.1 -0.1)">
       <use xlink:href="#DejaVuSans-53"/>
       <use x="63.623047" xlink:href="#DejaVuSans-48"/>
       <use x="127.246094" xlink:href="#DejaVuSans-48"/>
       <use x="190.869141" xlink:href="#DejaVuSans-48"/>
      </g>
     </g>
    </g>
    <g id="ytick_3">
     <g id="line2d_7">
      <g>
       <use style="stroke:#000000;stroke-width:0.8;" x="57.6" xlink:href="#m359bd9698e" y="216.389009"/>
      </g>
     </g>
     <g id="text_8">
      <!-- 10000 -->
      <g transform="translate(18.7875 220.188228)scale(0.1 -0.1)">
       <use xlink:href="#DejaVuSans-49"/>
       <use x="63.623047" xlink:href="#DejaVuSans-48"/>
       <use x="127.246094" xlink:href="#DejaVuSans-48"/>
       <use x="190.869141" xlink:href="#DejaVuSans-48"/>
       <use x="254.492188" xlink:href="#DejaVuSans-48"/>
      </g>
     </g>
    </g>
    <g id="ytick_4">
     <g id="line2d_8">
      <g>
       <use style="stroke:#000000;stroke-width:0.8;" x="57.6" xlink:href="#m359bd9698e" y="170.791513"/>
      </g>
     </g>
     <g id="text_9">
      <!-- 15000 -->
      <g transform="translate(18.7875 174.590732)scale(0.1 -0.1)">
       <use xlink:href="#DejaVuSans-49"/>
       <use x="63.623047" xlink:href="#DejaVuSans-53"/>
       <use x="127.246094" xlink:href="#DejaVuSans-48"/>
       <use x="190.869141" xlink:href="#DejaVuSans-48"/>
       <use x="254.492188" xlink:href="#DejaVuSans-48"/>
      </g>
     </g>
    </g>
    <g id="ytick_5">
     <g id="line2d_9">
      <g>
       <use style="stroke:#000000;stroke-width:0.8;" x="57.6" xlink:href="#m359bd9698e" y="125.194018"/>
      </g>
     </g>
     <g id="text_10">
      <!-- 20000 -->
      <defs>
       <path d="M 19.1875 8.296875 
L 53.609375 8.296875 
L 53.609375 0 
L 7.328125 0 
L 7.328125 8.296875 
Q 12.9375 14.109375 22.625 23.890625 
Q 32.328125 33.6875 34.8125 36.53125 
Q 39.546875 41.84375 41.421875 45.53125 
Q 43.3125 49.21875 43.3125 52.78125 
Q 43.3125 58.59375 39.234375 62.25 
Q 35.15625 65.921875 28.609375 65.921875 
Q 23.96875 65.921875 18.8125 64.3125 
Q 13.671875 62.703125 7.8125 59.421875 
L 7.8125 69.390625 
Q 13.765625 71.78125 18.9375 73 
Q 24.125 74.21875 28.421875 74.21875 
Q 39.75 74.21875 46.484375 68.546875 
Q 53.21875 62.890625 53.21875 53.421875 
Q 53.21875 48.921875 51.53125 44.890625 
Q 49.859375 40.875 45.40625 35.40625 
Q 44.1875 33.984375 37.640625 27.21875 
Q 31.109375 20.453125 19.1875 8.296875 
z
" id="DejaVuSans-50"/>
      </defs>
      <g transform="translate(18.7875 128.993236)scale(0.1 -0.1)">
       <use xlink:href="#DejaVuSans-50"/>
       <use x="63.623047" xlink:href="#DejaVuSans-48"/>
       <use x="127.246094" xlink:href="#DejaVuSans-48"/>
       <use x="190.869141" xlink:href="#DejaVuSans-48"/>
       <use x="254.492188" xlink:href="#DejaVuSans-48"/>
      </g>
     </g>
    </g>
    <g id="ytick_6">
     <g id="line2d_10">
      <g>
       <use style="stroke:#000000;stroke-width:0.8;" x="57.6" xlink:href="#m359bd9698e" y="79.596522"/>
      </g>
     </g>
     <g id="text_11">
      <!-- 25000 -->
      <g transform="translate(18.7875 83.395741)scale(0.1 -0.1)">
       <use xlink:href="#DejaVuSans-50"/>
       <use x="63.623047" xlink:href="#DejaVuSans-53"/>
       <use x="127.246094" xlink:href="#DejaVuSans-48"/>
       <use x="190.869141" xlink:href="#DejaVuSans-48"/>
       <use x="254.492188" xlink:href="#DejaVuSans-48"/>
      </g>
     </g>
    </g>
    <g id="text_12">
     <!-- Occurrencies -->
     <defs>
      <path d="M 39.40625 66.21875 
Q 28.65625 66.21875 22.328125 58.203125 
Q 16.015625 50.203125 16.015625 36.375 
Q 16.015625 22.609375 22.328125 14.59375 
Q 28.65625 6.59375 39.40625 6.59375 
Q 50.140625 6.59375 56.421875 14.59375 
Q 62.703125 22.609375 62.703125 36.375 
Q 62.703125 50.203125 56.421875 58.203125 
Q 50.140625 66.21875 39.40625 66.21875 
z
M 39.40625 74.21875 
Q 54.734375 74.21875 63.90625 63.9375 
Q 73.09375 53.65625 73.09375 36.375 
Q 73.09375 19.140625 63.90625 8.859375 
Q 54.734375 -1.421875 39.40625 -1.421875 
Q 24.03125 -1.421875 14.8125 8.828125 
Q 5.609375 19.09375 5.609375 36.375 
Q 5.609375 53.65625 14.8125 63.9375 
Q 24.03125 74.21875 39.40625 74.21875 
z
" id="DejaVuSans-79"/>
      <path d="M 48.78125 52.59375 
L 48.78125 44.1875 
Q 44.96875 46.296875 41.140625 47.34375 
Q 37.3125 48.390625 33.40625 48.390625 
Q 24.65625 48.390625 19.8125 42.84375 
Q 14.984375 37.3125 14.984375 27.296875 
Q 14.984375 17.28125 19.8125 11.734375 
Q 24.65625 6.203125 33.40625 6.203125 
Q 37.3125 6.203125 41.140625 7.25 
Q 44.96875 8.296875 48.78125 10.40625 
L 48.78125 2.09375 
Q 45.015625 0.34375 40.984375 -0.53125 
Q 36.96875 -1.421875 32.421875 -1.421875 
Q 20.0625 -1.421875 12.78125 6.34375 
Q 5.515625 14.109375 5.515625 27.296875 
Q 5.515625 40.671875 12.859375 48.328125 
Q 20.21875 56 33.015625 56 
Q 37.15625 56 41.109375 55.140625 
Q 45.0625 54.296875 48.78125 52.59375 
z
" id="DejaVuSans-99"/>
      <path d="M 8.5 21.578125 
L 8.5 54.6875 
L 17.484375 54.6875 
L 17.484375 21.921875 
Q 17.484375 14.15625 20.5 10.265625 
Q 23.53125 6.390625 29.59375 6.390625 
Q 36.859375 6.390625 41.078125 11.03125 
Q 45.3125 15.671875 45.3125 23.6875 
L 45.3125 54.6875 
L 54.296875 54.6875 
L 54.296875 0 
L 45.3125 0 
L 45.3125 8.40625 
Q 42.046875 3.421875 37.71875 1 
Q 33.40625 -1.421875 27.6875 -1.421875 
Q 18.265625 -1.421875 13.375 4.4375 
Q 8.5 10.296875 8.5 21.578125 
z
M 31.109375 56 
z
" id="DejaVuSans-117"/>
      <path d="M 41.109375 46.296875 
Q 39.59375 47.171875 37.8125 47.578125 
Q 36.03125 48 33.890625 48 
Q 26.265625 48 22.1875 43.046875 
Q 18.109375 38.09375 18.109375 28.8125 
L 18.109375 0 
L 9.078125 0 
L 9.078125 54.6875 
L 18.109375 54.6875 
L 18.109375 46.1875 
Q 20.953125 51.171875 25.484375 53.578125 
Q 30.03125 56 36.53125 56 
Q 37.453125 56 38.578125 55.875 
Q 39.703125 55.765625 41.0625 55.515625 
z
" id="DejaVuSans-114"/>
      <path d="M 54.890625 33.015625 
L 54.890625 0 
L 45.90625 0 
L 45.90625 32.71875 
Q 45.90625 40.484375 42.875 44.328125 
Q 39.84375 48.1875 33.796875 48.1875 
Q 26.515625 48.1875 22.3125 43.546875 
Q 18.109375 38.921875 18.109375 30.90625 
L 18.109375 0 
L 9.078125 0 
L 9.078125 54.6875 
L 18.109375 54.6875 
L 18.109375 46.1875 
Q 21.34375 51.125 25.703125 53.5625 
Q 30.078125 56 35.796875 56 
Q 45.21875 56 50.046875 50.171875 
Q 54.890625 44.34375 54.890625 33.015625 
z
" id="DejaVuSans-110"/>
      <path d="M 44.28125 53.078125 
L 44.28125 44.578125 
Q 40.484375 46.53125 36.375 47.5 
Q 32.28125 48.484375 27.875 48.484375 
Q 21.1875 48.484375 17.84375 46.4375 
Q 14.5 44.390625 14.5 40.28125 
Q 14.5 37.15625 16.890625 35.375 
Q 19.28125 33.59375 26.515625 31.984375 
L 29.59375 31.296875 
Q 39.15625 29.25 43.1875 25.515625 
Q 47.21875 21.78125 47.21875 15.09375 
Q 47.21875 7.46875 41.1875 3.015625 
Q 35.15625 -1.421875 24.609375 -1.421875 
Q 20.21875 -1.421875 15.453125 -0.5625 
Q 10.6875 0.296875 5.421875 2 
L 5.421875 11.28125 
Q 10.40625 8.6875 15.234375 7.390625 
Q 20.0625 6.109375 24.8125 6.109375 
Q 31.15625 6.109375 34.5625 8.28125 
Q 37.984375 10.453125 37.984375 14.40625 
Q 37.984375 18.0625 35.515625 20.015625 
Q 33.0625 21.96875 24.703125 23.78125 
L 21.578125 24.515625 
Q 13.234375 26.265625 9.515625 29.90625 
Q 5.8125 33.546875 5.8125 39.890625 
Q 5.8125 47.609375 11.28125 51.796875 
Q 16.75 56 26.8125 56 
Q 31.78125 56 36.171875 55.265625 
Q 40.578125 54.546875 44.28125 53.078125 
z
" id="DejaVuSans-115"/>
     </defs>
     <g transform="translate(12.707812 207.304563)rotate(-90)scale(0.1 -0.1)">
      <use xlink:href="#DejaVuSans-79"/>
      <use x="78.710938" xlink:href="#DejaVuSans-99"/>
      <use x="133.691406" xlink:href="#DejaVuSans-99"/>
      <use x="188.671875" xlink:href="#DejaVuSans-117"/>
      <use x="252.050781" xlink:href="#DejaVuSans-114"/>
      <use x="293.148438" xlink:href="#DejaVuSans-114"/>
      <use x="334.230469" xlink:href="#DejaVuSans-101"/>
      <use x="395.753906" xlink:href="#DejaVuSans-110"/>
      <use x="459.132812" xlink:href="#DejaVuSans-99"/>
      <use x="514.113281" xlink:href="#DejaVuSans-105"/>
      <use x="541.896484" xlink:href="#DejaVuSans-101"/>
      <use x="603.419922" xlink:href="#DejaVuSans-115"/>
     </g>
    </g>
   </g>
   <g id="patch_203">
    <path d="M 57.6 307.584 
L 57.6 41.472 
" style="fill:none;stroke:#000000;stroke-linecap:square;stroke-linejoin:miter;stroke-width:0.8;"/>
   </g>
   <g id="patch_204">
    <path d="M 414.72 307.584 
L 414.72 41.472 
" style="fill:none;stroke:#000000;stroke-linecap:square;stroke-linejoin:miter;stroke-width:0.8;"/>
   </g>
   <g id="patch_205">
    <path d="M 57.6 307.584 
L 414.72 307.584 
" style="fill:none;stroke:#000000;stroke-linecap:square;stroke-linejoin:miter;stroke-width:0.8;"/>
   </g>
   <g id="patch_206">
    <path d="M 57.6 41.472 
L 414.72 41.472 
" style="fill:none;stroke:#000000;stroke-linecap:square;stroke-linejoin:miter;stroke-width:0.8;"/>
   </g>
   <g id="text_13">
    <!-- Histogram of fc1 -->
    <defs>
     <path d="M 9.8125 72.90625 
L 19.671875 72.90625 
L 19.671875 43.015625 
L 55.515625 43.015625 
L 55.515625 72.90625 
L 65.375 72.90625 
L 65.375 0 
L 55.515625 0 
L 55.515625 34.71875 
L 19.671875 34.71875 
L 19.671875 0 
L 9.8125 0 
z
" id="DejaVuSans-72"/>
     <path d="M 30.609375 48.390625 
Q 23.390625 48.390625 19.1875 42.75 
Q 14.984375 37.109375 14.984375 27.296875 
Q 14.984375 17.484375 19.15625 11.84375 
Q 23.34375 6.203125 30.609375 6.203125 
Q 37.796875 6.203125 41.984375 11.859375 
Q 46.1875 17.53125 46.1875 27.296875 
Q 46.1875 37.015625 41.984375 42.703125 
Q 37.796875 48.390625 30.609375 48.390625 
z
M 30.609375 56 
Q 42.328125 56 49.015625 48.375 
Q 55.71875 40.765625 55.71875 27.296875 
Q 55.71875 13.875 49.015625 6.21875 
Q 42.328125 -1.421875 30.609375 -1.421875 
Q 18.84375 -1.421875 12.171875 6.21875 
Q 5.515625 13.875 5.515625 27.296875 
Q 5.515625 40.765625 12.171875 48.375 
Q 18.84375 56 30.609375 56 
z
" id="DejaVuSans-111"/>
     <path d="M 34.28125 27.484375 
Q 23.390625 27.484375 19.1875 25 
Q 14.984375 22.515625 14.984375 16.5 
Q 14.984375 11.71875 18.140625 8.90625 
Q 21.296875 6.109375 26.703125 6.109375 
Q 34.1875 6.109375 38.703125 11.40625 
Q 43.21875 16.703125 43.21875 25.484375 
L 43.21875 27.484375 
z
M 52.203125 31.203125 
L 52.203125 0 
L 43.21875 0 
L 43.21875 8.296875 
Q 40.140625 3.328125 35.546875 0.953125 
Q 30.953125 -1.421875 24.3125 -1.421875 
Q 15.921875 -1.421875 10.953125 3.296875 
Q 6 8.015625 6 15.921875 
Q 6 25.140625 12.171875 29.828125 
Q 18.359375 34.515625 30.609375 34.515625 
L 43.21875 34.515625 
L 43.21875 35.40625 
Q 43.21875 41.609375 39.140625 45 
Q 35.0625 48.390625 27.6875 48.390625 
Q 23 48.390625 18.546875 47.265625 
Q 14.109375 46.140625 10.015625 43.890625 
L 10.015625 52.203125 
Q 14.9375 54.109375 19.578125 55.046875 
Q 24.21875 56 28.609375 56 
Q 40.484375 56 46.34375 49.84375 
Q 52.203125 43.703125 52.203125 31.203125 
z
" id="DejaVuSans-97"/>
     <path d="M 52 44.1875 
Q 55.375 50.25 60.0625 53.125 
Q 64.75 56 71.09375 56 
Q 79.640625 56 84.28125 50.015625 
Q 88.921875 44.046875 88.921875 33.015625 
L 88.921875 0 
L 79.890625 0 
L 79.890625 32.71875 
Q 79.890625 40.578125 77.09375 44.375 
Q 74.3125 48.1875 68.609375 48.1875 
Q 61.625 48.1875 57.5625 43.546875 
Q 53.515625 38.921875 53.515625 30.90625 
L 53.515625 0 
L 44.484375 0 
L 44.484375 32.71875 
Q 44.484375 40.625 41.703125 44.40625 
Q 38.921875 48.1875 33.109375 48.1875 
Q 26.21875 48.1875 22.15625 43.53125 
Q 18.109375 38.875 18.109375 30.90625 
L 18.109375 0 
L 9.078125 0 
L 9.078125 54.6875 
L 18.109375 54.6875 
L 18.109375 46.1875 
Q 21.1875 51.21875 25.484375 53.609375 
Q 29.78125 56 35.6875 56 
Q 41.65625 56 45.828125 52.96875 
Q 50 49.953125 52 44.1875 
z
" id="DejaVuSans-109"/>
     <path id="DejaVuSans-32"/>
     <path d="M 37.109375 75.984375 
L 37.109375 68.5 
L 28.515625 68.5 
Q 23.6875 68.5 21.796875 66.546875 
Q 19.921875 64.59375 19.921875 59.515625 
L 19.921875 54.6875 
L 34.71875 54.6875 
L 34.71875 47.703125 
L 19.921875 47.703125 
L 19.921875 0 
L 10.890625 0 
L 10.890625 47.703125 
L 2.296875 47.703125 
L 2.296875 54.6875 
L 10.890625 54.6875 
L 10.890625 58.5 
Q 10.890625 67.625 15.140625 71.796875 
Q 19.390625 75.984375 28.609375 75.984375 
z
" id="DejaVuSans-102"/>
    </defs>
    <g transform="translate(186.209063 35.472)scale(0.12 -0.12)">
     <use xlink:href="#DejaVuSans-72"/>
     <use x="75.195312" xlink:href="#DejaVuSans-105"/>
     <use x="102.978516" xlink:href="#DejaVuSans-115"/>
     <use x="155.078125" xlink:href="#DejaVuSans-116"/>
     <use x="194.287109" xlink:href="#DejaVuSans-111"/>
     <use x="255.46875" xlink:href="#DejaVuSans-103"/>
     <use x="318.945312" xlink:href="#DejaVuSans-114"/>
     <use x="360.058594" xlink:href="#DejaVuSans-97"/>
     <use x="421.337891" xlink:href="#DejaVuSans-109"/>
     <use x="518.75" xlink:href="#DejaVuSans-32"/>
     <use x="550.537109" xlink:href="#DejaVuSans-111"/>
     <use x="611.71875" xlink:href="#DejaVuSans-102"/>
     <use x="646.923828" xlink:href="#DejaVuSans-32"/>
     <use x="678.710938" xlink:href="#DejaVuSans-102"/>
     <use x="713.916016" xlink:href="#DejaVuSans-99"/>
     <use x="768.896484" xlink:href="#DejaVuSans-49"/>
    </g>
   </g>
   <g id="legend_1">
    <g id="patch_207">
     <path d="M 323.679375 78.82825 
L 407.72 78.82825 
Q 409.72 78.82825 409.72 76.82825 
L 409.72 48.472 
Q 409.72 46.472 407.72 46.472 
L 323.679375 46.472 
Q 321.679375 46.472 321.679375 48.472 
L 321.679375 76.82825 
Q 321.679375 78.82825 323.679375 78.82825 
z
" style="fill:#ffffff;opacity:0.8;stroke:#cccccc;stroke-linejoin:miter;"/>
    </g>
    <g id="patch_208">
     <path d="M 325.679375 58.070437 
L 345.679375 58.070437 
L 345.679375 51.070437 
L 325.679375 51.070437 
z
" style="fill:#0000ff;"/>
    </g>
    <g id="text_14">
     <!-- unmasked -->
     <defs>
      <path d="M 9.078125 75.984375 
L 18.109375 75.984375 
L 18.109375 31.109375 
L 44.921875 54.6875 
L 56.390625 54.6875 
L 27.390625 29.109375 
L 57.625 0 
L 45.90625 0 
L 18.109375 26.703125 
L 18.109375 0 
L 9.078125 0 
z
" id="DejaVuSans-107"/>
      <path d="M 45.40625 46.390625 
L 45.40625 75.984375 
L 54.390625 75.984375 
L 54.390625 0 
L 45.40625 0 
L 45.40625 8.203125 
Q 42.578125 3.328125 38.25 0.953125 
Q 33.9375 -1.421875 27.875 -1.421875 
Q 17.96875 -1.421875 11.734375 6.484375 
Q 5.515625 14.40625 5.515625 27.296875 
Q 5.515625 40.1875 11.734375 48.09375 
Q 17.96875 56 27.875 56 
Q 33.9375 56 38.25 53.625 
Q 42.578125 51.265625 45.40625 46.390625 
z
M 14.796875 27.296875 
Q 14.796875 17.390625 18.875 11.75 
Q 22.953125 6.109375 30.078125 6.109375 
Q 37.203125 6.109375 41.296875 11.75 
Q 45.40625 17.390625 45.40625 27.296875 
Q 45.40625 37.203125 41.296875 42.84375 
Q 37.203125 48.484375 30.078125 48.484375 
Q 22.953125 48.484375 18.875 42.84375 
Q 14.796875 37.203125 14.796875 27.296875 
z
" id="DejaVuSans-100"/>
     </defs>
     <g transform="translate(353.679375 58.070437)scale(0.1 -0.1)">
      <use xlink:href="#DejaVuSans-117"/>
      <use x="63.378906" xlink:href="#DejaVuSans-110"/>
      <use x="126.757812" xlink:href="#DejaVuSans-109"/>
      <use x="224.169922" xlink:href="#DejaVuSans-97"/>
      <use x="285.449219" xlink:href="#DejaVuSans-115"/>
      <use x="337.548828" xlink:href="#DejaVuSans-107"/>
      <use x="395.412109" xlink:href="#DejaVuSans-101"/>
      <use x="456.935547" xlink:href="#DejaVuSans-100"/>
     </g>
    </g>
    <g id="patch_209">
     <path d="M 325.679375 72.748562 
L 345.679375 72.748562 
L 345.679375 65.748562 
L 325.679375 65.748562 
z
" style="fill:#808080;"/>
    </g>
    <g id="text_15">
     <!-- masked -->
     <g transform="translate(353.679375 72.748562)scale(0.1 -0.1)">
      <use xlink:href="#DejaVuSans-109"/>
      <use x="97.412109" xlink:href="#DejaVuSans-97"/>
      <use x="158.691406" xlink:href="#DejaVuSans-115"/>
      <use x="210.791016" xlink:href="#DejaVuSans-107"/>
      <use x="268.654297" xlink:href="#DejaVuSans-101"/>
      <use x="330.177734" xlink:href="#DejaVuSans-100"/>
     </g>
    </g>
   </g>
  </g>
 </g>
 <defs>
  <clipPath id="p1d92691cb2">
   <rect height="266.112" width="357.12" x="57.6" y="41.472"/>
  </clipPath>
 </defs>
</svg>
