<?xml version="1.0" encoding="utf-8" standalone="no"?>
<!DOCTYPE svg PUBLIC "-//W3C//DTD SVG 1.1//EN"
  "http://www.w3.org/Graphics/SVG/1.1/DTD/svg11.dtd">
<!-- Created with matplotlib (https://matplotlib.org/) -->
<svg height="345.6pt" version="1.1" viewBox="0 0 460.8 345.6" width="460.8pt" xmlns="http://www.w3.org/2000/svg" xmlns:xlink="http://www.w3.org/1999/xlink">
 <defs>
  <style type="text/css">
*{stroke-linecap:butt;stroke-linejoin:round;}
  </style>
 </defs>
 <g id="figure_1">
  <g id="patch_1">
   <path d="M 0 345.6 
L 460.8 345.6 
L 460.8 0 
L 0 0 
z
" style="fill:#ffffff;"/>
  </g>
  <g id="axes_1">
   <g id="patch_2">
    <path d="M 57.6 307.584 
L 414.72 307.584 
L 414.72 41.472 
L 57.6 41.472 
z
" style="fill:#ffffff;"/>
   </g>
   <g id="patch_3">
    <path clip-path="url(#p1949394645)" d="M 75.30843 307.584 
L 78.540222 307.584 
L 78.540222 306.394141 
L 75.30843 306.394141 
z
" style="fill:#0000ff;"/>
   </g>
   <g id="patch_4">
    <path clip-path="url(#p1949394645)" d="M 78.540222 307.584 
L 81.772003 307.584 
L 81.772003 307.584 
L 78.540222 307.584 
z
" style="fill:#0000ff;"/>
   </g>
   <g id="patch_5">
    <path clip-path="url(#p1949394645)" d="M 81.772003 307.584 
L 85.003795 307.584 
L 85.003795 307.584 
L 81.772003 307.584 
z
" style="fill:#0000ff;"/>
   </g>
   <g id="patch_6">
    <path clip-path="url(#p1949394645)" d="M 85.003795 307.584 
L 88.235587 307.584 
L 88.235587 307.584 
L 85.003795 307.584 
z
" style="fill:#0000ff;"/>
   </g>
   <g id="patch_7">
    <path clip-path="url(#p1949394645)" d="M 88.235575 307.584 
L 91.467356 307.584 
L 91.467356 307.584 
L 88.235575 307.584 
z
" style="fill:#0000ff;"/>
   </g>
   <g id="patch_8">
    <path clip-path="url(#p1949394645)" d="M 91.467367 307.584 
L 94.699159 307.584 
L 94.699159 306.394141 
L 91.467367 306.394141 
z
" style="fill:#0000ff;"/>
   </g>
   <g id="patch_9">
    <path clip-path="url(#p1949394645)" d="M 94.699159 307.584 
L 97.930951 307.584 
L 97.930951 306.394141 
L 94.699159 306.394141 
z
" style="fill:#0000ff;"/>
   </g>
   <g id="patch_10">
    <path clip-path="url(#p1949394645)" d="M 97.930951 307.584 
L 101.162732 307.584 
L 101.162732 307.584 
L 97.930951 307.584 
z
" style="fill:#0000ff;"/>
   </g>
   <g id="patch_11">
    <path clip-path="url(#p1949394645)" d="M 101.162732 307.584 
L 104.394524 307.584 
L 104.394524 307.584 
L 101.162732 307.584 
z
" style="fill:#0000ff;"/>
   </g>
   <g id="patch_12">
    <path clip-path="url(#p1949394645)" d="M 104.394524 307.584 
L 107.626316 307.584 
L 107.626316 306.394141 
L 104.394524 306.394141 
z
" style="fill:#0000ff;"/>
   </g>
   <g id="patch_13">
    <path clip-path="url(#p1949394645)" d="M 107.626305 307.584 
L 110.858086 307.584 
L 110.858086 306.394141 
L 107.626305 306.394141 
z
" style="fill:#0000ff;"/>
   </g>
   <g id="patch_14">
    <path clip-path="url(#p1949394645)" d="M 110.858097 307.584 
L 114.089889 307.584 
L 114.089889 306.394141 
L 110.858097 306.394141 
z
" style="fill:#0000ff;"/>
   </g>
   <g id="patch_15">
    <path clip-path="url(#p1949394645)" d="M 114.089889 307.584 
L 117.321681 307.584 
L 117.321681 307.584 
L 114.089889 307.584 
z
" style="fill:#0000ff;"/>
   </g>
   <g id="patch_16">
    <path clip-path="url(#p1949394645)" d="M 117.321681 307.584 
L 120.553473 307.584 
L 120.553473 306.394141 
L 117.321681 306.394141 
z
" style="fill:#0000ff;"/>
   </g>
   <g id="patch_17">
    <path clip-path="url(#p1949394645)" d="M 120.553473 307.584 
L 123.785254 307.584 
L 123.785254 307.584 
L 120.553473 307.584 
z
" style="fill:#0000ff;"/>
   </g>
   <g id="patch_18">
    <path clip-path="url(#p1949394645)" d="M 123.785254 307.584 
L 127.017046 307.584 
L 127.017046 305.204282 
L 123.785254 305.204282 
z
" style="fill:#0000ff;"/>
   </g>
   <g id="patch_19">
    <path clip-path="url(#p1949394645)" d="M 127.017046 307.584 
L 130.248838 307.584 
L 130.248838 305.204282 
L 127.017046 305.204282 
z
" style="fill:#0000ff;"/>
   </g>
   <g id="patch_20">
    <path clip-path="url(#p1949394645)" d="M 130.248827 307.584 
L 133.480608 307.584 
L 133.480608 306.394141 
L 130.248827 306.394141 
z
" style="fill:#0000ff;"/>
   </g>
   <g id="patch_21">
    <path clip-path="url(#p1949394645)" d="M 133.480619 307.584 
L 136.712411 307.584 
L 136.712411 307.584 
L 133.480619 307.584 
z
" style="fill:#0000ff;"/>
   </g>
   <g id="patch_22">
    <path clip-path="url(#p1949394645)" d="M 136.712411 307.584 
L 139.944203 307.584 
L 139.944203 306.394141 
L 136.712411 306.394141 
z
" style="fill:#0000ff;"/>
   </g>
   <g id="patch_23">
    <path clip-path="url(#p1949394645)" d="M 139.944203 307.584 
L 143.175984 307.584 
L 143.175984 306.394141 
L 139.944203 306.394141 
z
" style="fill:#0000ff;"/>
   </g>
   <g id="patch_24">
    <path clip-path="url(#p1949394645)" d="M 143.175984 307.584 
L 146.407776 307.584 
L 146.407776 305.204282 
L 143.175984 305.204282 
z
" style="fill:#0000ff;"/>
   </g>
   <g id="patch_25">
    <path clip-path="url(#p1949394645)" d="M 146.407776 307.584 
L 149.639568 307.584 
L 149.639568 305.204282 
L 146.407776 305.204282 
z
" style="fill:#0000ff;"/>
   </g>
   <g id="patch_26">
    <path clip-path="url(#p1949394645)" d="M 149.639556 307.584 
L 152.871337 307.584 
L 152.871337 305.204282 
L 149.639556 305.204282 
z
" style="fill:#0000ff;"/>
   </g>
   <g id="patch_27">
    <path clip-path="url(#p1949394645)" d="M 152.871348 307.584 
L 156.10314 307.584 
L 156.10314 305.204282 
L 152.871348 305.204282 
z
" style="fill:#0000ff;"/>
   </g>
   <g id="patch_28">
    <path clip-path="url(#p1949394645)" d="M 156.10314 307.584 
L 159.334933 307.584 
L 159.334933 306.394141 
L 156.10314 306.394141 
z
" style="fill:#0000ff;"/>
   </g>
   <g id="patch_29">
    <path clip-path="url(#p1949394645)" d="M 159.334933 307.584 
L 162.566713 307.584 
L 162.566713 304.014423 
L 159.334933 304.014423 
z
" style="fill:#0000ff;"/>
   </g>
   <g id="patch_30">
    <path clip-path="url(#p1949394645)" d="M 162.566713 307.584 
L 165.798505 307.584 
L 165.798505 302.824563 
L 162.566713 302.824563 
z
" style="fill:#0000ff;"/>
   </g>
   <g id="patch_31">
    <path clip-path="url(#p1949394645)" d="M 165.798505 307.584 
L 169.030297 307.584 
L 169.030297 302.824563 
L 165.798505 302.824563 
z
" style="fill:#0000ff;"/>
   </g>
   <g id="patch_32">
    <path clip-path="url(#p1949394645)" d="M 169.030292 307.584 
L 172.262084 307.584 
L 172.262084 298.065127 
L 169.030292 298.065127 
z
" style="fill:#0000ff;"/>
   </g>
   <g id="patch_33">
    <path clip-path="url(#p1949394645)" d="M 172.262078 307.584 
L 175.49387 307.584 
L 175.49387 302.824563 
L 172.262078 302.824563 
z
" style="fill:#0000ff;"/>
   </g>
   <g id="patch_34">
    <path clip-path="url(#p1949394645)" d="M 175.49387 307.584 
L 178.725662 307.584 
L 178.725662 304.014423 
L 175.49387 304.014423 
z
" style="fill:#0000ff;"/>
   </g>
   <g id="patch_35">
    <path clip-path="url(#p1949394645)" d="M 178.725662 307.584 
L 181.957454 307.584 
L 181.957454 300.444845 
L 178.725662 300.444845 
z
" style="fill:#0000ff;"/>
   </g>
   <g id="patch_36">
    <path clip-path="url(#p1949394645)" d="M 181.957443 307.584 
L 185.189235 307.584 
L 185.189235 300.444845 
L 181.957443 300.444845 
z
" style="fill:#0000ff;"/>
   </g>
   <g id="patch_37">
    <path clip-path="url(#p1949394645)" d="M 185.189235 307.584 
L 188.421027 307.584 
L 188.421027 302.824563 
L 185.189235 302.824563 
z
" style="fill:#0000ff;"/>
   </g>
   <g id="patch_38">
    <path clip-path="url(#p1949394645)" d="M 188.421027 307.584 
L 191.652819 307.584 
L 191.652819 295.685408 
L 188.421027 295.685408 
z
" style="fill:#0000ff;"/>
   </g>
   <g id="patch_39">
    <path clip-path="url(#p1949394645)" d="M 191.652808 307.584 
L 194.8846 307.584 
L 194.8846 292.115831 
L 191.652808 292.115831 
z
" style="fill:#0000ff;"/>
   </g>
   <g id="patch_40">
    <path clip-path="url(#p1949394645)" d="M 194.8846 307.584 
L 198.116392 307.584 
L 198.116392 294.495549 
L 194.8846 294.495549 
z
" style="fill:#0000ff;"/>
   </g>
   <g id="patch_41">
    <path clip-path="url(#p1949394645)" d="M 198.116392 307.584 
L 201.348184 307.584 
L 201.348184 288.546254 
L 198.116392 288.546254 
z
" style="fill:#0000ff;"/>
   </g>
   <g id="patch_42">
    <path clip-path="url(#p1949394645)" d="M 201.348173 307.584 
L 204.579965 307.584 
L 204.579965 289.736113 
L 201.348173 289.736113 
z
" style="fill:#0000ff;"/>
   </g>
   <g id="patch_43">
    <path clip-path="url(#p1949394645)" d="M 204.579965 307.584 
L 207.811757 307.584 
L 207.811757 287.356394 
L 204.579965 287.356394 
z
" style="fill:#0000ff;"/>
   </g>
   <g id="patch_44">
    <path clip-path="url(#p1949394645)" d="M 207.811757 307.584 
L 211.043549 307.584 
L 211.043549 282.596958 
L 207.811757 282.596958 
z
" style="fill:#0000ff;"/>
   </g>
   <g id="patch_45">
    <path clip-path="url(#p1949394645)" d="M 211.043537 307.584 
L 214.27533 307.584 
L 214.27533 271.888225 
L 211.043537 271.888225 
z
" style="fill:#0000ff;"/>
   </g>
   <g id="patch_46">
    <path clip-path="url(#p1949394645)" d="M 214.27533 307.584 
L 217.507122 307.584 
L 217.507122 280.217239 
L 214.27533 280.217239 
z
" style="fill:#0000ff;"/>
   </g>
   <g id="patch_47">
    <path clip-path="url(#p1949394645)" d="M 217.507119 307.584 
L 220.738911 307.584 
L 220.738911 287.356394 
L 217.507119 287.356394 
z
" style="fill:#0000ff;"/>
   </g>
   <g id="patch_48">
    <path clip-path="url(#p1949394645)" d="M 220.738908 307.584 
L 223.9707 307.584 
L 223.9707 287.356394 
L 220.738908 287.356394 
z
" style="fill:#0000ff;"/>
   </g>
   <g id="patch_49">
    <path clip-path="url(#p1949394645)" d="M 223.970694 307.584 
L 227.202486 307.584 
L 227.202486 273.078085 
L 223.970694 273.078085 
z
" style="fill:#0000ff;"/>
   </g>
   <g id="patch_50">
    <path clip-path="url(#p1949394645)" d="M 227.202486 307.584 
L 230.434278 307.584 
L 230.434278 267.128789 
L 227.202486 267.128789 
z
" style="fill:#0000ff;"/>
   </g>
   <g id="patch_51">
    <path clip-path="url(#p1949394645)" d="M 230.434273 307.584 
L 233.666065 307.584 
L 233.666065 256.420056 
L 230.434273 256.420056 
z
" style="fill:#0000ff;"/>
   </g>
   <g id="patch_52">
    <path clip-path="url(#p1949394645)" d="M 233.666059 307.584 
L 236.897851 307.584 
L 236.897851 248.091042 
L 233.666059 248.091042 
z
" style="fill:#0000ff;"/>
   </g>
   <g id="patch_53">
    <path clip-path="url(#p1949394645)" d="M 236.897848 307.584 
L 240.12964 307.584 
L 240.12964 262.369352 
L 236.897848 262.369352 
z
" style="fill:#0000ff;"/>
   </g>
   <g id="patch_54">
    <path clip-path="url(#p1949394645)" d="M 240.129638 307.584 
L 243.36143 307.584 
L 243.36143 252.850479 
L 240.129638 252.850479 
z
" style="fill:#0000ff;"/>
   </g>
   <g id="patch_55">
    <path clip-path="url(#p1949394645)" d="M 243.361427 307.584 
L 246.593219 307.584 
L 246.593219 185.028507 
L 243.361427 185.028507 
z
" style="fill:#0000ff;"/>
   </g>
   <g id="patch_56">
    <path clip-path="url(#p1949394645)" d="M 246.593215 307.584 
L 249.825007 307.584 
L 249.825007 183.838648 
L 246.593215 183.838648 
z
" style="fill:#0000ff;"/>
   </g>
   <g id="patch_57">
    <path clip-path="url(#p1949394645)" d="M 249.825002 307.584 
L 253.056795 307.584 
L 253.056795 165.990761 
L 249.825002 165.990761 
z
" style="fill:#0000ff;"/>
   </g>
   <g id="patch_58">
    <path clip-path="url(#p1949394645)" d="M 253.056792 307.584 
L 256.288584 307.584 
L 256.288584 160.041465 
L 253.056792 160.041465 
z
" style="fill:#0000ff;"/>
   </g>
   <g id="patch_59">
    <path clip-path="url(#p1949394645)" d="M 256.28858 307.584 
L 259.520372 307.584 
L 259.520372 143.383437 
L 256.28858 143.383437 
z
" style="fill:#0000ff;"/>
   </g>
   <g id="patch_60">
    <path clip-path="url(#p1949394645)" d="M 259.520368 307.584 
L 262.75216 307.584 
L 262.75216 63.662873 
L 259.520368 63.662873 
z
" style="fill:#0000ff;"/>
   </g>
   <g id="patch_61">
    <path clip-path="url(#p1949394645)" d="M 262.752157 307.584 
L 265.983949 307.584 
L 265.983949 158.851606 
L 262.752157 158.851606 
z
" style="fill:#0000ff;"/>
   </g>
   <g id="patch_62">
    <path clip-path="url(#p1949394645)" d="M 265.983945 307.584 
L 269.215738 307.584 
L 269.215738 139.813859 
L 265.983945 139.813859 
z
" style="fill:#0000ff;"/>
   </g>
   <g id="patch_63">
    <path clip-path="url(#p1949394645)" d="M 269.215734 307.584 
L 272.447526 307.584 
L 272.447526 186.218366 
L 269.215734 186.218366 
z
" style="fill:#0000ff;"/>
   </g>
   <g id="patch_64">
    <path clip-path="url(#p1949394645)" d="M 272.447522 307.584 
L 275.679313 307.584 
L 275.679313 175.509634 
L 272.447522 175.509634 
z
" style="fill:#0000ff;"/>
   </g>
   <g id="patch_65">
    <path clip-path="url(#p1949394645)" d="M 275.679311 307.584 
L 278.911103 307.584 
L 278.911103 205.256113 
L 275.679311 205.256113 
z
" style="fill:#0000ff;"/>
   </g>
   <g id="patch_66">
    <path clip-path="url(#p1949394645)" d="M 278.9111 307.584 
L 282.142892 307.584 
L 282.142892 189.787944 
L 278.9111 189.787944 
z
" style="fill:#0000ff;"/>
   </g>
   <g id="patch_67">
    <path clip-path="url(#p1949394645)" d="M 282.142888 307.584 
L 285.37468 307.584 
L 285.37468 255.230197 
L 282.142888 255.230197 
z
" style="fill:#0000ff;"/>
   </g>
   <g id="patch_68">
    <path clip-path="url(#p1949394645)" d="M 285.374675 307.584 
L 288.606467 307.584 
L 288.606467 246.901183 
L 285.374675 246.901183 
z
" style="fill:#0000ff;"/>
   </g>
   <g id="patch_69">
    <path clip-path="url(#p1949394645)" d="M 288.606465 307.584 
L 291.838257 307.584 
L 291.838257 267.128789 
L 288.606465 267.128789 
z
" style="fill:#0000ff;"/>
   </g>
   <g id="patch_70">
    <path clip-path="url(#p1949394645)" d="M 291.838254 307.584 
L 295.070046 307.584 
L 295.070046 258.799775 
L 291.838254 258.799775 
z
" style="fill:#0000ff;"/>
   </g>
   <g id="patch_71">
    <path clip-path="url(#p1949394645)" d="M 295.07004 307.584 
L 298.301832 307.584 
L 298.301832 246.901183 
L 295.07004 246.901183 
z
" style="fill:#0000ff;"/>
   </g>
   <g id="patch_72">
    <path clip-path="url(#p1949394645)" d="M 298.301829 307.584 
L 301.533622 307.584 
L 301.533622 268.318648 
L 298.301829 268.318648 
z
" style="fill:#0000ff;"/>
   </g>
   <g id="patch_73">
    <path clip-path="url(#p1949394645)" d="M 301.533619 307.584 
L 304.765411 307.584 
L 304.765411 279.02738 
L 301.533619 279.02738 
z
" style="fill:#0000ff;"/>
   </g>
   <g id="patch_74">
    <path clip-path="url(#p1949394645)" d="M 304.765405 307.584 
L 307.997197 307.584 
L 307.997197 287.356394 
L 304.765405 287.356394 
z
" style="fill:#0000ff;"/>
   </g>
   <g id="patch_75">
    <path clip-path="url(#p1949394645)" d="M 307.997194 307.584 
L 311.228989 307.584 
L 311.228989 279.02738 
L 307.997194 279.02738 
z
" style="fill:#0000ff;"/>
   </g>
   <g id="patch_76">
    <path clip-path="url(#p1949394645)" d="M 311.228984 307.584 
L 314.460776 307.584 
L 314.460776 275.457803 
L 311.228984 275.457803 
z
" style="fill:#0000ff;"/>
   </g>
   <g id="patch_77">
    <path clip-path="url(#p1949394645)" d="M 314.46077 307.584 
L 317.692562 307.584 
L 317.692562 282.596958 
L 314.46077 282.596958 
z
" style="fill:#0000ff;"/>
   </g>
   <g id="patch_78">
    <path clip-path="url(#p1949394645)" d="M 317.692562 307.584 
L 320.924354 307.584 
L 320.924354 292.115831 
L 317.692562 292.115831 
z
" style="fill:#0000ff;"/>
   </g>
   <g id="patch_79">
    <path clip-path="url(#p1949394645)" d="M 320.924348 307.584 
L 324.15614 307.584 
L 324.15614 293.30569 
L 320.924348 293.30569 
z
" style="fill:#0000ff;"/>
   </g>
   <g id="patch_80">
    <path clip-path="url(#p1949394645)" d="M 324.156135 307.584 
L 327.387927 307.584 
L 327.387927 301.634704 
L 324.156135 301.634704 
z
" style="fill:#0000ff;"/>
   </g>
   <g id="patch_81">
    <path clip-path="url(#p1949394645)" d="M 327.387927 307.584 
L 330.619719 307.584 
L 330.619719 289.736113 
L 327.387927 289.736113 
z
" style="fill:#0000ff;"/>
   </g>
   <g id="patch_82">
    <path clip-path="url(#p1949394645)" d="M 330.619713 307.584 
L 333.851505 307.584 
L 333.851505 302.824563 
L 330.619713 302.824563 
z
" style="fill:#0000ff;"/>
   </g>
   <g id="patch_83">
    <path clip-path="url(#p1949394645)" d="M 333.8515 307.584 
L 337.083292 307.584 
L 337.083292 299.254986 
L 333.8515 299.254986 
z
" style="fill:#0000ff;"/>
   </g>
   <g id="patch_84">
    <path clip-path="url(#p1949394645)" d="M 337.083292 307.584 
L 340.315084 307.584 
L 340.315084 301.634704 
L 337.083292 301.634704 
z
" style="fill:#0000ff;"/>
   </g>
   <g id="patch_85">
    <path clip-path="url(#p1949394645)" d="M 340.315084 307.584 
L 343.546876 307.584 
L 343.546876 301.634704 
L 340.315084 301.634704 
z
" style="fill:#0000ff;"/>
   </g>
   <g id="patch_86">
    <path clip-path="url(#p1949394645)" d="M 343.546864 307.584 
L 346.778657 307.584 
L 346.778657 304.014423 
L 343.546864 304.014423 
z
" style="fill:#0000ff;"/>
   </g>
   <g id="patch_87">
    <path clip-path="url(#p1949394645)" d="M 346.778657 307.584 
L 350.010449 307.584 
L 350.010449 306.394141 
L 346.778657 306.394141 
z
" style="fill:#0000ff;"/>
   </g>
   <g id="patch_88">
    <path clip-path="url(#p1949394645)" d="M 350.010449 307.584 
L 353.242241 307.584 
L 353.242241 304.014423 
L 350.010449 304.014423 
z
" style="fill:#0000ff;"/>
   </g>
   <g id="patch_89">
    <path clip-path="url(#p1949394645)" d="M 353.242229 307.584 
L 356.474021 307.584 
L 356.474021 306.394141 
L 353.242229 306.394141 
z
" style="fill:#0000ff;"/>
   </g>
   <g id="patch_90">
    <path clip-path="url(#p1949394645)" d="M 356.474021 307.584 
L 359.705813 307.584 
L 359.705813 304.014423 
L 356.474021 304.014423 
z
" style="fill:#0000ff;"/>
   </g>
   <g id="patch_91">
    <path clip-path="url(#p1949394645)" d="M 359.705813 307.584 
L 362.937605 307.584 
L 362.937605 306.394141 
L 359.705813 306.394141 
z
" style="fill:#0000ff;"/>
   </g>
   <g id="patch_92">
    <path clip-path="url(#p1949394645)" d="M 362.937605 307.584 
L 366.169386 307.584 
L 366.169386 307.584 
L 362.937605 307.584 
z
" style="fill:#0000ff;"/>
   </g>
   <g id="patch_93">
    <path clip-path="url(#p1949394645)" d="M 366.169386 307.584 
L 369.401178 307.584 
L 369.401178 306.394141 
L 366.169386 306.394141 
z
" style="fill:#0000ff;"/>
   </g>
   <g id="patch_94">
    <path clip-path="url(#p1949394645)" d="M 369.401178 307.584 
L 372.63297 307.584 
L 372.63297 307.584 
L 369.401178 307.584 
z
" style="fill:#0000ff;"/>
   </g>
   <g id="patch_95">
    <path clip-path="url(#p1949394645)" d="M 372.632959 307.584 
L 375.86474 307.584 
L 375.86474 307.584 
L 372.632959 307.584 
z
" style="fill:#0000ff;"/>
   </g>
   <g id="patch_96">
    <path clip-path="url(#p1949394645)" d="M 375.864751 307.584 
L 379.096543 307.584 
L 379.096543 306.394141 
L 375.864751 306.394141 
z
" style="fill:#0000ff;"/>
   </g>
   <g id="patch_97">
    <path clip-path="url(#p1949394645)" d="M 379.096543 307.584 
L 382.328335 307.584 
L 382.328335 307.584 
L 379.096543 307.584 
z
" style="fill:#0000ff;"/>
   </g>
   <g id="patch_98">
    <path clip-path="url(#p1949394645)" d="M 382.328335 307.584 
L 385.560116 307.584 
L 385.560116 307.584 
L 382.328335 307.584 
z
" style="fill:#0000ff;"/>
   </g>
   <g id="patch_99">
    <path clip-path="url(#p1949394645)" d="M 385.560116 307.584 
L 388.791908 307.584 
L 388.791908 307.584 
L 385.560116 307.584 
z
" style="fill:#0000ff;"/>
   </g>
   <g id="patch_100">
    <path clip-path="url(#p1949394645)" d="M 388.791908 307.584 
L 392.0237 307.584 
L 392.0237 307.584 
L 388.791908 307.584 
z
" style="fill:#0000ff;"/>
   </g>
   <g id="patch_101">
    <path clip-path="url(#p1949394645)" d="M 392.023689 307.584 
L 395.255469 307.584 
L 395.255469 307.584 
L 392.023689 307.584 
z
" style="fill:#0000ff;"/>
   </g>
   <g id="patch_102">
    <path clip-path="url(#p1949394645)" d="M 395.255481 307.584 
L 398.487273 307.584 
L 398.487273 306.394141 
L 395.255481 306.394141 
z
" style="fill:#0000ff;"/>
   </g>
   <g id="patch_103">
    <path clip-path="url(#p1949394645)" d="M 73.832727 307.584 
L 75.942982 307.584 
L 75.942982 200.496676 
L 73.832727 200.496676 
z
" style="fill:#808080;"/>
   </g>
   <g id="patch_104">
    <path clip-path="url(#p1949394645)" d="M 75.942994 307.584 
L 78.053249 307.584 
L 78.053249 259.989634 
L 75.942994 259.989634 
z
" style="fill:#808080;"/>
   </g>
   <g id="patch_105">
    <path clip-path="url(#p1949394645)" d="M 78.053237 307.584 
L 80.163492 307.584 
L 80.163492 187.408225 
L 78.053237 187.408225 
z
" style="fill:#808080;"/>
   </g>
   <g id="patch_106">
    <path clip-path="url(#p1949394645)" d="M 80.163504 307.584 
L 82.273759 307.584 
L 82.273759 236.192451 
L 80.163504 236.192451 
z
" style="fill:#808080;"/>
   </g>
   <g id="patch_107">
    <path clip-path="url(#p1949394645)" d="M 82.273747 307.584 
L 84.384002 307.584 
L 84.384002 126.725408 
L 82.273747 126.725408 
z
" style="fill:#808080;"/>
   </g>
   <g id="patch_108">
    <path clip-path="url(#p1949394645)" d="M 84.384014 307.584 
L 86.494269 307.584 
L 86.494269 215.964845 
L 84.384014 215.964845 
z
" style="fill:#808080;"/>
   </g>
   <g id="patch_109">
    <path clip-path="url(#p1949394645)" d="M 86.494257 307.584 
L 88.604512 307.584 
L 88.604512 100.548507 
L 86.494257 100.548507 
z
" style="fill:#808080;"/>
   </g>
   <g id="patch_110">
    <path clip-path="url(#p1949394645)" d="M 88.604524 307.584 
L 90.714778 307.584 
L 90.714778 194.54738 
L 88.604524 194.54738 
z
" style="fill:#808080;"/>
   </g>
   <g id="patch_111">
    <path clip-path="url(#p1949394645)" d="M 90.714767 307.584 
L 92.825022 307.584 
L 92.825022 176.699493 
L 90.714767 176.699493 
z
" style="fill:#808080;"/>
   </g>
   <g id="patch_112">
    <path clip-path="url(#p1949394645)" d="M 92.825033 307.584 
L 94.935288 307.584 
L 94.935288 54.144 
L 92.825033 54.144 
z
" style="fill:#808080;"/>
   </g>
   <g id="patch_113">
    <path clip-path="url(#p1949394645)" d="M 94.935277 307.584 
L 97.045532 307.584 
L 97.045532 185.028507 
L 94.935277 185.028507 
z
" style="fill:#808080;"/>
   </g>
   <g id="patch_114">
    <path clip-path="url(#p1949394645)" d="M 97.045543 307.584 
L 99.155798 307.584 
L 99.155798 307.584 
L 97.045543 307.584 
z
" style="fill:#808080;"/>
   </g>
   <g id="patch_115">
    <path clip-path="url(#p1949394645)" d="M 99.155787 307.584 
L 101.266031 307.584 
L 101.266031 307.584 
L 99.155787 307.584 
z
" style="fill:#808080;"/>
   </g>
   <g id="patch_116">
    <path clip-path="url(#p1949394645)" d="M 101.266031 307.584 
L 103.376286 307.584 
L 103.376286 307.584 
L 101.266031 307.584 
z
" style="fill:#808080;"/>
   </g>
   <g id="patch_117">
    <path clip-path="url(#p1949394645)" d="M 103.376297 307.584 
L 105.486552 307.584 
L 105.486552 307.584 
L 103.376297 307.584 
z
" style="fill:#808080;"/>
   </g>
   <g id="patch_118">
    <path clip-path="url(#p1949394645)" d="M 105.486541 307.584 
L 107.596796 307.584 
L 107.596796 307.584 
L 105.486541 307.584 
z
" style="fill:#808080;"/>
   </g>
   <g id="patch_119">
    <path clip-path="url(#p1949394645)" d="M 107.596807 307.584 
L 109.707062 307.584 
L 109.707062 307.584 
L 107.596807 307.584 
z
" style="fill:#808080;"/>
   </g>
   <g id="patch_120">
    <path clip-path="url(#p1949394645)" d="M 109.707051 307.584 
L 111.817306 307.584 
L 111.817306 307.584 
L 109.707051 307.584 
z
" style="fill:#808080;"/>
   </g>
   <g id="patch_121">
    <path clip-path="url(#p1949394645)" d="M 111.817317 307.584 
L 113.927572 307.584 
L 113.927572 307.584 
L 111.817317 307.584 
z
" style="fill:#808080;"/>
   </g>
   <g id="patch_122">
    <path clip-path="url(#p1949394645)" d="M 113.927561 307.584 
L 116.037816 307.584 
L 116.037816 307.584 
L 113.927561 307.584 
z
" style="fill:#808080;"/>
   </g>
   <g id="patch_123">
    <path clip-path="url(#p1949394645)" d="M 116.037827 307.584 
L 118.148082 307.584 
L 118.148082 307.584 
L 116.037827 307.584 
z
" style="fill:#808080;"/>
   </g>
   <g id="patch_124">
    <path clip-path="url(#p1949394645)" d="M 118.148071 307.584 
L 120.258326 307.584 
L 120.258326 307.584 
L 118.148071 307.584 
z
" style="fill:#808080;"/>
   </g>
   <g id="patch_125">
    <path clip-path="url(#p1949394645)" d="M 120.258337 307.584 
L 122.368592 307.584 
L 122.368592 307.584 
L 120.258337 307.584 
z
" style="fill:#808080;"/>
   </g>
   <g id="patch_126">
    <path clip-path="url(#p1949394645)" d="M 122.368581 307.584 
L 124.478836 307.584 
L 124.478836 307.584 
L 122.368581 307.584 
z
" style="fill:#808080;"/>
   </g>
   <g id="patch_127">
    <path clip-path="url(#p1949394645)" d="M 124.478847 307.584 
L 126.589102 307.584 
L 126.589102 307.584 
L 124.478847 307.584 
z
" style="fill:#808080;"/>
   </g>
   <g id="patch_128">
    <path clip-path="url(#p1949394645)" d="M 126.589091 307.584 
L 128.699346 307.584 
L 128.699346 307.584 
L 126.589091 307.584 
z
" style="fill:#808080;"/>
   </g>
   <g id="patch_129">
    <path clip-path="url(#p1949394645)" d="M 128.699357 307.584 
L 130.809612 307.584 
L 130.809612 307.584 
L 128.699357 307.584 
z
" style="fill:#808080;"/>
   </g>
   <g id="patch_130">
    <path clip-path="url(#p1949394645)" d="M 130.809601 307.584 
L 132.919856 307.584 
L 132.919856 307.584 
L 130.809601 307.584 
z
" style="fill:#808080;"/>
   </g>
   <g id="patch_131">
    <path clip-path="url(#p1949394645)" d="M 132.919867 307.584 
L 135.030122 307.584 
L 135.030122 307.584 
L 132.919867 307.584 
z
" style="fill:#808080;"/>
   </g>
   <g id="patch_132">
    <path clip-path="url(#p1949394645)" d="M 135.030111 307.584 
L 137.140366 307.584 
L 137.140366 307.584 
L 135.030111 307.584 
z
" style="fill:#808080;"/>
   </g>
   <g id="patch_133">
    <path clip-path="url(#p1949394645)" d="M 137.140377 307.584 
L 139.250632 307.584 
L 139.250632 307.584 
L 137.140377 307.584 
z
" style="fill:#808080;"/>
   </g>
   <g id="patch_134">
    <path clip-path="url(#p1949394645)" d="M 139.250621 307.584 
L 141.360876 307.584 
L 141.360876 307.584 
L 139.250621 307.584 
z
" style="fill:#808080;"/>
   </g>
   <g id="patch_135">
    <path clip-path="url(#p1949394645)" d="M 141.360887 307.584 
L 143.471142 307.584 
L 143.471142 307.584 
L 141.360887 307.584 
z
" style="fill:#808080;"/>
   </g>
   <g id="patch_136">
    <path clip-path="url(#p1949394645)" d="M 143.471131 307.584 
L 145.581386 307.584 
L 145.581386 307.584 
L 143.471131 307.584 
z
" style="fill:#808080;"/>
   </g>
   <g id="patch_137">
    <path clip-path="url(#p1949394645)" d="M 145.581397 307.584 
L 147.691652 307.584 
L 147.691652 307.584 
L 145.581397 307.584 
z
" style="fill:#808080;"/>
   </g>
   <g id="patch_138">
    <path clip-path="url(#p1949394645)" d="M 147.691641 307.584 
L 149.801896 307.584 
L 149.801896 307.584 
L 147.691641 307.584 
z
" style="fill:#808080;"/>
   </g>
   <g id="patch_139">
    <path clip-path="url(#p1949394645)" d="M 149.801907 307.584 
L 151.912162 307.584 
L 151.912162 307.584 
L 149.801907 307.584 
z
" style="fill:#808080;"/>
   </g>
   <g id="patch_140">
    <path clip-path="url(#p1949394645)" d="M 151.912151 307.584 
L 154.022395 307.584 
L 154.022395 307.584 
L 151.912151 307.584 
z
" style="fill:#808080;"/>
   </g>
   <g id="patch_141">
    <path clip-path="url(#p1949394645)" d="M 154.022395 307.584 
L 156.13265 307.584 
L 156.13265 307.584 
L 154.022395 307.584 
z
" style="fill:#808080;"/>
   </g>
   <g id="patch_142">
    <path clip-path="url(#p1949394645)" d="M 156.132661 307.584 
L 158.242916 307.584 
L 158.242916 307.584 
L 156.132661 307.584 
z
" style="fill:#808080;"/>
   </g>
   <g id="patch_143">
    <path clip-path="url(#p1949394645)" d="M 158.242905 307.584 
L 160.35316 307.584 
L 160.35316 307.584 
L 158.242905 307.584 
z
" style="fill:#808080;"/>
   </g>
   <g id="patch_144">
    <path clip-path="url(#p1949394645)" d="M 160.353171 307.584 
L 162.463426 307.584 
L 162.463426 307.584 
L 160.353171 307.584 
z
" style="fill:#808080;"/>
   </g>
   <g id="patch_145">
    <path clip-path="url(#p1949394645)" d="M 162.463415 307.584 
L 164.57367 307.584 
L 164.57367 307.584 
L 162.463415 307.584 
z
" style="fill:#808080;"/>
   </g>
   <g id="patch_146">
    <path clip-path="url(#p1949394645)" d="M 164.573681 307.584 
L 166.683936 307.584 
L 166.683936 307.584 
L 164.573681 307.584 
z
" style="fill:#808080;"/>
   </g>
   <g id="patch_147">
    <path clip-path="url(#p1949394645)" d="M 166.683925 307.584 
L 168.79418 307.584 
L 168.79418 307.584 
L 166.683925 307.584 
z
" style="fill:#808080;"/>
   </g>
   <g id="patch_148">
    <path clip-path="url(#p1949394645)" d="M 168.79418 307.584 
L 170.904435 307.584 
L 170.904435 307.584 
L 168.79418 307.584 
z
" style="fill:#808080;"/>
   </g>
   <g id="patch_149">
    <path clip-path="url(#p1949394645)" d="M 170.904435 307.584 
L 173.01469 307.584 
L 173.01469 307.584 
L 170.904435 307.584 
z
" style="fill:#808080;"/>
   </g>
   <g id="patch_150">
    <path clip-path="url(#p1949394645)" d="M 173.01469 307.584 
L 175.124945 307.584 
L 175.124945 307.584 
L 173.01469 307.584 
z
" style="fill:#808080;"/>
   </g>
   <g id="patch_151">
    <path clip-path="url(#p1949394645)" d="M 175.124945 307.584 
L 177.2352 307.584 
L 177.2352 307.584 
L 175.124945 307.584 
z
" style="fill:#808080;"/>
   </g>
   <g id="patch_152">
    <path clip-path="url(#p1949394645)" d="M 177.2352 307.584 
L 179.345455 307.584 
L 179.345455 307.584 
L 177.2352 307.584 
z
" style="fill:#808080;"/>
   </g>
   <g id="patch_153">
    <path clip-path="url(#p1949394645)" d="M 179.345455 307.584 
L 181.45571 307.584 
L 181.45571 307.584 
L 179.345455 307.584 
z
" style="fill:#808080;"/>
   </g>
   <g id="patch_154">
    <path clip-path="url(#p1949394645)" d="M 181.45571 307.584 
L 183.565965 307.584 
L 183.565965 307.584 
L 181.45571 307.584 
z
" style="fill:#808080;"/>
   </g>
   <g id="patch_155">
    <path clip-path="url(#p1949394645)" d="M 183.565965 307.584 
L 185.67622 307.584 
L 185.67622 307.584 
L 183.565965 307.584 
z
" style="fill:#808080;"/>
   </g>
   <g id="patch_156">
    <path clip-path="url(#p1949394645)" d="M 185.67622 307.584 
L 187.786475 307.584 
L 187.786475 307.584 
L 185.67622 307.584 
z
" style="fill:#808080;"/>
   </g>
   <g id="patch_157">
    <path clip-path="url(#p1949394645)" d="M 187.786475 307.584 
L 189.89673 307.584 
L 189.89673 307.584 
L 187.786475 307.584 
z
" style="fill:#808080;"/>
   </g>
   <g id="patch_158">
    <path clip-path="url(#p1949394645)" d="M 189.89673 307.584 
L 192.006985 307.584 
L 192.006985 307.584 
L 189.89673 307.584 
z
" style="fill:#808080;"/>
   </g>
   <g id="patch_159">
    <path clip-path="url(#p1949394645)" d="M 192.006985 307.584 
L 194.117228 307.584 
L 194.117228 307.584 
L 192.006985 307.584 
z
" style="fill:#808080;"/>
   </g>
   <g id="patch_160">
    <path clip-path="url(#p1949394645)" d="M 194.117234 307.584 
L 196.227489 307.584 
L 196.227489 307.584 
L 194.117234 307.584 
z
" style="fill:#808080;"/>
   </g>
   <g id="patch_161">
    <path clip-path="url(#p1949394645)" d="M 196.227489 307.584 
L 198.337744 307.584 
L 198.337744 307.584 
L 196.227489 307.584 
z
" style="fill:#808080;"/>
   </g>
   <g id="patch_162">
    <path clip-path="url(#p1949394645)" d="M 198.337744 307.584 
L 200.447999 307.584 
L 200.447999 307.584 
L 198.337744 307.584 
z
" style="fill:#808080;"/>
   </g>
   <g id="patch_163">
    <path clip-path="url(#p1949394645)" d="M 200.447999 307.584 
L 202.558254 307.584 
L 202.558254 307.584 
L 200.447999 307.584 
z
" style="fill:#808080;"/>
   </g>
   <g id="patch_164">
    <path clip-path="url(#p1949394645)" d="M 202.558254 307.584 
L 204.668509 307.584 
L 204.668509 307.584 
L 202.558254 307.584 
z
" style="fill:#808080;"/>
   </g>
   <g id="patch_165">
    <path clip-path="url(#p1949394645)" d="M 204.668509 307.584 
L 206.778764 307.584 
L 206.778764 307.584 
L 204.668509 307.584 
z
" style="fill:#808080;"/>
   </g>
   <g id="patch_166">
    <path clip-path="url(#p1949394645)" d="M 206.778764 307.584 
L 208.889019 307.584 
L 208.889019 307.584 
L 206.778764 307.584 
z
" style="fill:#808080;"/>
   </g>
   <g id="patch_167">
    <path clip-path="url(#p1949394645)" d="M 208.889019 307.584 
L 210.999274 307.584 
L 210.999274 307.584 
L 208.889019 307.584 
z
" style="fill:#808080;"/>
   </g>
   <g id="patch_168">
    <path clip-path="url(#p1949394645)" d="M 210.999274 307.584 
L 213.109529 307.584 
L 213.109529 307.584 
L 210.999274 307.584 
z
" style="fill:#808080;"/>
   </g>
   <g id="patch_169">
    <path clip-path="url(#p1949394645)" d="M 213.109529 307.584 
L 215.219784 307.584 
L 215.219784 307.584 
L 213.109529 307.584 
z
" style="fill:#808080;"/>
   </g>
   <g id="patch_170">
    <path clip-path="url(#p1949394645)" d="M 215.219784 307.584 
L 217.330039 307.584 
L 217.330039 307.584 
L 215.219784 307.584 
z
" style="fill:#808080;"/>
   </g>
   <g id="patch_171">
    <path clip-path="url(#p1949394645)" d="M 217.330036 307.584 
L 219.440291 307.584 
L 219.440291 307.584 
L 217.330036 307.584 
z
" style="fill:#808080;"/>
   </g>
   <g id="patch_172">
    <path clip-path="url(#p1949394645)" d="M 219.440291 307.584 
L 221.550546 307.584 
L 221.550546 307.584 
L 219.440291 307.584 
z
" style="fill:#808080;"/>
   </g>
   <g id="patch_173">
    <path clip-path="url(#p1949394645)" d="M 221.550546 307.584 
L 223.660801 307.584 
L 223.660801 307.584 
L 221.550546 307.584 
z
" style="fill:#808080;"/>
   </g>
   <g id="patch_174">
    <path clip-path="url(#p1949394645)" d="M 223.660798 307.584 
L 225.771053 307.584 
L 225.771053 307.584 
L 223.660798 307.584 
z
" style="fill:#808080;"/>
   </g>
   <g id="patch_175">
    <path clip-path="url(#p1949394645)" d="M 225.771053 307.584 
L 227.881308 307.584 
L 227.881308 307.584 
L 225.771053 307.584 
z
" style="fill:#808080;"/>
   </g>
   <g id="patch_176">
    <path clip-path="url(#p1949394645)" d="M 227.881308 307.584 
L 229.991563 307.584 
L 229.991563 307.584 
L 227.881308 307.584 
z
" style="fill:#808080;"/>
   </g>
   <g id="patch_177">
    <path clip-path="url(#p1949394645)" d="M 229.991563 307.584 
L 232.101818 307.584 
L 232.101818 307.584 
L 229.991563 307.584 
z
" style="fill:#808080;"/>
   </g>
   <g id="patch_178">
    <path clip-path="url(#p1949394645)" d="M 232.101818 307.584 
L 234.212073 307.584 
L 234.212073 307.584 
L 232.101818 307.584 
z
" style="fill:#808080;"/>
   </g>
   <g id="patch_179">
    <path clip-path="url(#p1949394645)" d="M 234.212073 307.584 
L 236.322328 307.584 
L 236.322328 307.584 
L 234.212073 307.584 
z
" style="fill:#808080;"/>
   </g>
   <g id="patch_180">
    <path clip-path="url(#p1949394645)" d="M 236.322328 307.584 
L 238.432583 307.584 
L 238.432583 307.584 
L 236.322328 307.584 
z
" style="fill:#808080;"/>
   </g>
   <g id="patch_181">
    <path clip-path="url(#p1949394645)" d="M 238.432583 307.584 
L 240.542838 307.584 
L 240.542838 307.584 
L 238.432583 307.584 
z
" style="fill:#808080;"/>
   </g>
   <g id="patch_182">
    <path clip-path="url(#p1949394645)" d="M 240.542835 307.584 
L 242.65309 307.584 
L 242.65309 307.584 
L 240.542835 307.584 
z
" style="fill:#808080;"/>
   </g>
   <g id="patch_183">
    <path clip-path="url(#p1949394645)" d="M 242.65309 307.584 
L 244.763345 307.584 
L 244.763345 307.584 
L 242.65309 307.584 
z
" style="fill:#808080;"/>
   </g>
   <g id="patch_184">
    <path clip-path="url(#p1949394645)" d="M 244.763345 307.584 
L 246.8736 307.584 
L 246.8736 307.584 
L 244.763345 307.584 
z
" style="fill:#808080;"/>
   </g>
   <g id="patch_185">
    <path clip-path="url(#p1949394645)" d="M 246.8736 307.584 
L 248.983855 307.584 
L 248.983855 307.584 
L 246.8736 307.584 
z
" style="fill:#808080;"/>
   </g>
   <g id="patch_186">
    <path clip-path="url(#p1949394645)" d="M 248.983854 307.584 
L 251.094109 307.584 
L 251.094109 307.584 
L 248.983854 307.584 
z
" style="fill:#808080;"/>
   </g>
   <g id="patch_187">
    <path clip-path="url(#p1949394645)" d="M 251.094109 307.584 
L 253.204364 307.584 
L 253.204364 307.584 
L 251.094109 307.584 
z
" style="fill:#808080;"/>
   </g>
   <g id="patch_188">
    <path clip-path="url(#p1949394645)" d="M 253.204364 307.584 
L 255.314619 307.584 
L 255.314619 307.584 
L 253.204364 307.584 
z
" style="fill:#808080;"/>
   </g>
   <g id="patch_189">
    <path clip-path="url(#p1949394645)" d="M 255.314618 307.584 
L 257.424873 307.584 
L 257.424873 307.584 
L 255.314618 307.584 
z
" style="fill:#808080;"/>
   </g>
   <g id="patch_190">
    <path clip-path="url(#p1949394645)" d="M 257.424873 307.584 
L 259.535127 307.584 
L 259.535127 307.584 
L 257.424873 307.584 
z
" style="fill:#808080;"/>
   </g>
   <g id="patch_191">
    <path clip-path="url(#p1949394645)" d="M 259.535127 307.584 
L 261.645382 307.584 
L 261.645382 307.584 
L 259.535127 307.584 
z
" style="fill:#808080;"/>
   </g>
   <g id="patch_192">
    <path clip-path="url(#p1949394645)" d="M 261.645382 307.584 
L 263.755637 307.584 
L 263.755637 171.940056 
L 261.645382 171.940056 
z
" style="fill:#808080;"/>
   </g>
   <g id="patch_193">
    <path clip-path="url(#p1949394645)" d="M 263.755636 307.584 
L 265.865891 307.584 
L 265.865891 73.181746 
L 263.755636 73.181746 
z
" style="fill:#808080;"/>
   </g>
   <g id="patch_194">
    <path clip-path="url(#p1949394645)" d="M 265.865891 307.584 
L 267.976146 307.584 
L 267.976146 188.598085 
L 265.865891 188.598085 
z
" style="fill:#808080;"/>
   </g>
   <g id="patch_195">
    <path clip-path="url(#p1949394645)" d="M 267.976145 307.584 
L 270.0864 307.584 
L 270.0864 192.167662 
L 267.976145 192.167662 
z
" style="fill:#808080;"/>
   </g>
   <g id="patch_196">
    <path clip-path="url(#p1949394645)" d="M 270.0864 307.584 
L 272.196655 307.584 
L 272.196655 112.447099 
L 270.0864 112.447099 
z
" style="fill:#808080;"/>
   </g>
   <g id="patch_197">
    <path clip-path="url(#p1949394645)" d="M 272.196655 307.584 
L 274.30691 307.584 
L 274.30691 214.774986 
L 272.196655 214.774986 
z
" style="fill:#808080;"/>
   </g>
   <g id="patch_198">
    <path clip-path="url(#p1949394645)" d="M 274.306908 307.584 
L 276.417163 307.584 
L 276.417163 125.535549 
L 274.306908 125.535549 
z
" style="fill:#808080;"/>
   </g>
   <g id="patch_199">
    <path clip-path="url(#p1949394645)" d="M 276.417163 307.584 
L 278.527418 307.584 
L 278.527418 237.38231 
L 276.417163 237.38231 
z
" style="fill:#808080;"/>
   </g>
   <g id="patch_200">
    <path clip-path="url(#p1949394645)" d="M 278.527418 307.584 
L 280.637673 307.584 
L 280.637673 186.218366 
L 278.527418 186.218366 
z
" style="fill:#808080;"/>
   </g>
   <g id="patch_201">
    <path clip-path="url(#p1949394645)" d="M 280.637672 307.584 
L 282.747927 307.584 
L 282.747927 248.091042 
L 280.637672 248.091042 
z
" style="fill:#808080;"/>
   </g>
   <g id="patch_202">
    <path clip-path="url(#p1949394645)" d="M 282.747927 307.584 
L 284.858182 307.584 
L 284.858182 223.104 
L 282.747927 223.104 
z
" style="fill:#808080;"/>
   </g>
   <g id="matplotlib.axis_1">
    <g id="xtick_1">
     <g id="line2d_1">
      <defs>
       <path d="M 0 0 
L 0 3.5 
" id="md840fca467" style="stroke:#000000;stroke-width:0.8;"/>
      </defs>
      <g>
       <use style="stroke:#000000;stroke-width:0.8;" x="115.152397" xlink:href="#md840fca467" y="307.584"/>
      </g>
     </g>
     <g id="text_1">
      <!-- −100 -->
      <defs>
       <path d="M 10.59375 35.5 
L 73.1875 35.5 
L 73.1875 27.203125 
L 10.59375 27.203125 
z
" id="DejaVuSans-8722"/>
       <path d="M 12.40625 8.296875 
L 28.515625 8.296875 
L 28.515625 63.921875 
L 10.984375 60.40625 
L 10.984375 69.390625 
L 28.421875 72.90625 
L 38.28125 72.90625 
L 38.28125 8.296875 
L 54.390625 8.296875 
L 54.390625 0 
L 12.40625 0 
z
" id="DejaVuSans-49"/>
       <path d="M 31.78125 66.40625 
Q 24.171875 66.40625 20.328125 58.90625 
Q 16.5 51.421875 16.5 36.375 
Q 16.5 21.390625 20.328125 13.890625 
Q 24.171875 6.390625 31.78125 6.390625 
Q 39.453125 6.390625 43.28125 13.890625 
Q 47.125 21.390625 47.125 36.375 
Q 47.125 51.421875 43.28125 58.90625 
Q 39.453125 66.40625 31.78125 66.40625 
z
M 31.78125 74.21875 
Q 44.046875 74.21875 50.515625 64.515625 
Q 56.984375 54.828125 56.984375 36.375 
Q 56.984375 17.96875 50.515625 8.265625 
Q 44.046875 -1.421875 31.78125 -1.421875 
Q 19.53125 -1.421875 13.0625 8.265625 
Q 6.59375 17.96875 6.59375 36.375 
Q 6.59375 54.828125 13.0625 64.515625 
Q 19.53125 74.21875 31.78125 74.21875 
z
" id="DejaVuSans-48"/>
      </defs>
      <g transform="translate(101.418803 322.182437)scale(0.1 -0.1)">
       <use xlink:href="#DejaVuSans-8722"/>
       <use x="83.789062" xlink:href="#DejaVuSans-49"/>
       <use x="147.412109" xlink:href="#DejaVuSans-48"/>
       <use x="211.035156" xlink:href="#DejaVuSans-48"/>
      </g>
     </g>
    </g>
    <g id="xtick_2">
     <g id="line2d_2">
      <g>
       <use style="stroke:#000000;stroke-width:0.8;" x="188.937521" xlink:href="#md840fca467" y="307.584"/>
      </g>
     </g>
     <g id="text_2">
      <!-- −50 -->
      <defs>
       <path d="M 10.796875 72.90625 
L 49.515625 72.90625 
L 49.515625 64.59375 
L 19.828125 64.59375 
L 19.828125 46.734375 
Q 21.96875 47.46875 24.109375 47.828125 
Q 26.265625 48.1875 28.421875 48.1875 
Q 40.625 48.1875 47.75 41.5 
Q 54.890625 34.8125 54.890625 23.390625 
Q 54.890625 11.625 47.5625 5.09375 
Q 40.234375 -1.421875 26.90625 -1.421875 
Q 22.3125 -1.421875 17.546875 -0.640625 
Q 12.796875 0.140625 7.71875 1.703125 
L 7.71875 11.625 
Q 12.109375 9.234375 16.796875 8.0625 
Q 21.484375 6.890625 26.703125 6.890625 
Q 35.15625 6.890625 40.078125 11.328125 
Q 45.015625 15.765625 45.015625 23.390625 
Q 45.015625 31 40.078125 35.4375 
Q 35.15625 39.890625 26.703125 39.890625 
Q 22.75 39.890625 18.8125 39.015625 
Q 14.890625 38.140625 10.796875 36.28125 
z
" id="DejaVuSans-53"/>
      </defs>
      <g transform="translate(178.385177 322.182437)scale(0.1 -0.1)">
       <use xlink:href="#DejaVuSans-8722"/>
       <use x="83.789062" xlink:href="#DejaVuSans-53"/>
       <use x="147.412109" xlink:href="#DejaVuSans-48"/>
      </g>
     </g>
    </g>
    <g id="xtick_3">
     <g id="line2d_3">
      <g>
       <use style="stroke:#000000;stroke-width:0.8;" x="262.722645" xlink:href="#md840fca467" y="307.584"/>
      </g>
     </g>
     <g id="text_3">
      <!-- 0 -->
      <g transform="translate(259.541395 322.182437)scale(0.1 -0.1)">
       <use xlink:href="#DejaVuSans-48"/>
      </g>
     </g>
    </g>
    <g id="xtick_4">
     <g id="line2d_4">
      <g>
       <use style="stroke:#000000;stroke-width:0.8;" x="336.507769" xlink:href="#md840fca467" y="307.584"/>
      </g>
     </g>
     <g id="text_4">
      <!-- 50 -->
      <g transform="translate(330.145269 322.182437)scale(0.1 -0.1)">
       <use xlink:href="#DejaVuSans-53"/>
       <use x="63.623047" xlink:href="#DejaVuSans-48"/>
      </g>
     </g>
    </g>
    <g id="xtick_5">
     <g id="line2d_5">
      <g>
       <use style="stroke:#000000;stroke-width:0.8;" x="410.292893" xlink:href="#md840fca467" y="307.584"/>
      </g>
     </g>
     <g id="text_5">
      <!-- 100 -->
      <g transform="translate(400.749143 322.182437)scale(0.1 -0.1)">
       <use xlink:href="#DejaVuSans-49"/>
       <use x="63.623047" xlink:href="#DejaVuSans-48"/>
       <use x="127.246094" xlink:href="#DejaVuSans-48"/>
      </g>
     </g>
    </g>
    <g id="text_6">
     <!-- Weight -->
     <defs>
      <path d="M 3.328125 72.90625 
L 13.28125 72.90625 
L 28.609375 11.28125 
L 43.890625 72.90625 
L 54.984375 72.90625 
L 70.3125 11.28125 
L 85.59375 72.90625 
L 95.609375 72.90625 
L 77.296875 0 
L 64.890625 0 
L 49.515625 63.28125 
L 33.984375 0 
L 21.578125 0 
z
" id="DejaVuSans-87"/>
      <path d="M 56.203125 29.59375 
L 56.203125 25.203125 
L 14.890625 25.203125 
Q 15.484375 15.921875 20.484375 11.0625 
Q 25.484375 6.203125 34.421875 6.203125 
Q 39.59375 6.203125 44.453125 7.46875 
Q 49.3125 8.734375 54.109375 11.28125 
L 54.109375 2.78125 
Q 49.265625 0.734375 44.1875 -0.34375 
Q 39.109375 -1.421875 33.890625 -1.421875 
Q 20.796875 -1.421875 13.15625 6.1875 
Q 5.515625 13.8125 5.515625 26.8125 
Q 5.515625 40.234375 12.765625 48.109375 
Q 20.015625 56 32.328125 56 
Q 43.359375 56 49.78125 48.890625 
Q 56.203125 41.796875 56.203125 29.59375 
z
M 47.21875 32.234375 
Q 47.125 39.59375 43.09375 43.984375 
Q 39.0625 48.390625 32.421875 48.390625 
Q 24.90625 48.390625 20.390625 44.140625 
Q 15.875 39.890625 15.1875 32.171875 
z
" id="DejaVuSans-101"/>
      <path d="M 9.421875 54.6875 
L 18.40625 54.6875 
L 18.40625 0 
L 9.421875 0 
z
M 9.421875 75.984375 
L 18.40625 75.984375 
L 18.40625 64.59375 
L 9.421875 64.59375 
z
" id="DejaVuSans-105"/>
      <path d="M 45.40625 27.984375 
Q 45.40625 37.75 41.375 43.109375 
Q 37.359375 48.484375 30.078125 48.484375 
Q 22.859375 48.484375 18.828125 43.109375 
Q 14.796875 37.75 14.796875 27.984375 
Q 14.796875 18.265625 18.828125 12.890625 
Q 22.859375 7.515625 30.078125 7.515625 
Q 37.359375 7.515625 41.375 12.890625 
Q 45.40625 18.265625 45.40625 27.984375 
z
M 54.390625 6.78125 
Q 54.390625 -7.171875 48.1875 -13.984375 
Q 42 -20.796875 29.203125 -20.796875 
Q 24.46875 -20.796875 20.265625 -20.09375 
Q 16.0625 -19.390625 12.109375 -17.921875 
L 12.109375 -9.1875 
Q 16.0625 -11.328125 19.921875 -12.34375 
Q 23.78125 -13.375 27.78125 -13.375 
Q 36.625 -13.375 41.015625 -8.765625 
Q 45.40625 -4.15625 45.40625 5.171875 
L 45.40625 9.625 
Q 42.625 4.78125 38.28125 2.390625 
Q 33.9375 0 27.875 0 
Q 17.828125 0 11.671875 7.65625 
Q 5.515625 15.328125 5.515625 27.984375 
Q 5.515625 40.671875 11.671875 48.328125 
Q 17.828125 56 27.875 56 
Q 33.9375 56 38.28125 53.609375 
Q 42.625 51.21875 45.40625 46.390625 
L 45.40625 54.6875 
L 54.390625 54.6875 
z
" id="DejaVuSans-103"/>
      <path d="M 54.890625 33.015625 
L 54.890625 0 
L 45.90625 0 
L 45.90625 32.71875 
Q 45.90625 40.484375 42.875 44.328125 
Q 39.84375 48.1875 33.796875 48.1875 
Q 26.515625 48.1875 22.3125 43.546875 
Q 18.109375 38.921875 18.109375 30.90625 
L 18.109375 0 
L 9.078125 0 
L 9.078125 75.984375 
L 18.109375 75.984375 
L 18.109375 46.1875 
Q 21.34375 51.125 25.703125 53.5625 
Q 30.078125 56 35.796875 56 
Q 45.21875 56 50.046875 50.171875 
Q 54.890625 44.34375 54.890625 33.015625 
z
" id="DejaVuSans-104"/>
      <path d="M 18.3125 70.21875 
L 18.3125 54.6875 
L 36.8125 54.6875 
L 36.8125 47.703125 
L 18.3125 47.703125 
L 18.3125 18.015625 
Q 18.3125 11.328125 20.140625 9.421875 
Q 21.96875 7.515625 27.59375 7.515625 
L 36.8125 7.515625 
L 36.8125 0 
L 27.59375 0 
Q 17.1875 0 13.234375 3.875 
Q 9.28125 7.765625 9.28125 18.015625 
L 9.28125 47.703125 
L 2.6875 47.703125 
L 2.6875 54.6875 
L 9.28125 54.6875 
L 9.28125 70.21875 
z
" id="DejaVuSans-116"/>
     </defs>
     <g transform="translate(218.451406 335.860562)scale(0.1 -0.1)">
      <use xlink:href="#DejaVuSans-87"/>
      <use x="98.798828" xlink:href="#DejaVuSans-101"/>
      <use x="160.322266" xlink:href="#DejaVuSans-105"/>
      <use x="188.105469" xlink:href="#DejaVuSans-103"/>
      <use x="251.582031" xlink:href="#DejaVuSans-104"/>
      <use x="314.960938" xlink:href="#DejaVuSans-116"/>
     </g>
    </g>
   </g>
   <g id="matplotlib.axis_2">
    <g id="ytick_1">
     <g id="line2d_6">
      <defs>
       <path d="M 0 0 
L -3.5 0 
" id="m62098b1bd4" style="stroke:#000000;stroke-width:0.8;"/>
      </defs>
      <g>
       <use style="stroke:#000000;stroke-width:0.8;" x="57.6" xlink:href="#m62098b1bd4" y="307.584"/>
      </g>
     </g>
     <g id="text_7">
      <!-- 0 -->
      <g transform="translate(44.2375 311.383219)scale(0.1 -0.1)">
       <use xlink:href="#DejaVuSans-48"/>
      </g>
     </g>
    </g>
    <g id="ytick_2">
     <g id="line2d_7">
      <g>
       <use style="stroke:#000000;stroke-width:0.8;" x="57.6" xlink:href="#m62098b1bd4" y="277.837521"/>
      </g>
     </g>
     <g id="text_8">
      <!-- 25 -->
      <defs>
       <path d="M 19.1875 8.296875 
L 53.609375 8.296875 
L 53.609375 0 
L 7.328125 0 
L 7.328125 8.296875 
Q 12.9375 14.109375 22.625 23.890625 
Q 32.328125 33.6875 34.8125 36.53125 
Q 39.546875 41.84375 41.421875 45.53125 
Q 43.3125 49.21875 43.3125 52.78125 
Q 43.3125 58.59375 39.234375 62.25 
Q 35.15625 65.921875 28.609375 65.921875 
Q 23.96875 65.921875 18.8125 64.3125 
Q 13.671875 62.703125 7.8125 59.421875 
L 7.8125 69.390625 
Q 13.765625 71.78125 18.9375 73 
Q 24.125 74.21875 28.421875 74.21875 
Q 39.75 74.21875 46.484375 68.546875 
Q 53.21875 62.890625 53.21875 53.421875 
Q 53.21875 48.921875 51.53125 44.890625 
Q 49.859375 40.875 45.40625 35.40625 
Q 44.1875 33.984375 37.640625 27.21875 
Q 31.109375 20.453125 19.1875 8.296875 
z
" id="DejaVuSans-50"/>
      </defs>
      <g transform="translate(37.875 281.63674)scale(0.1 -0.1)">
       <use xlink:href="#DejaVuSans-50"/>
       <use x="63.623047" xlink:href="#DejaVuSans-53"/>
      </g>
     </g>
    </g>
    <g id="ytick_3">
     <g id="line2d_8">
      <g>
       <use style="stroke:#000000;stroke-width:0.8;" x="57.6" xlink:href="#m62098b1bd4" y="248.091042"/>
      </g>
     </g>
     <g id="text_9">
      <!-- 50 -->
      <g transform="translate(37.875 251.890261)scale(0.1 -0.1)">
       <use xlink:href="#DejaVuSans-53"/>
       <use x="63.623047" xlink:href="#DejaVuSans-48"/>
      </g>
     </g>
    </g>
    <g id="ytick_4">
     <g id="line2d_9">
      <g>
       <use style="stroke:#000000;stroke-width:0.8;" x="57.6" xlink:href="#m62098b1bd4" y="218.344563"/>
      </g>
     </g>
     <g id="text_10">
      <!-- 75 -->
      <defs>
       <path d="M 8.203125 72.90625 
L 55.078125 72.90625 
L 55.078125 68.703125 
L 28.609375 0 
L 18.3125 0 
L 43.21875 64.59375 
L 8.203125 64.59375 
z
" id="DejaVuSans-55"/>
      </defs>
      <g transform="translate(37.875 222.143782)scale(0.1 -0.1)">
       <use xlink:href="#DejaVuSans-55"/>
       <use x="63.623047" xlink:href="#DejaVuSans-53"/>
      </g>
     </g>
    </g>
    <g id="ytick_5">
     <g id="line2d_10">
      <g>
       <use style="stroke:#000000;stroke-width:0.8;" x="57.6" xlink:href="#m62098b1bd4" y="188.598085"/>
      </g>
     </g>
     <g id="text_11">
      <!-- 100 -->
      <g transform="translate(31.5125 192.397303)scale(0.1 -0.1)">
       <use xlink:href="#DejaVuSans-49"/>
       <use x="63.623047" xlink:href="#DejaVuSans-48"/>
       <use x="127.246094" xlink:href="#DejaVuSans-48"/>
      </g>
     </g>
    </g>
    <g id="ytick_6">
     <g id="line2d_11">
      <g>
       <use style="stroke:#000000;stroke-width:0.8;" x="57.6" xlink:href="#m62098b1bd4" y="158.851606"/>
      </g>
     </g>
     <g id="text_12">
      <!-- 125 -->
      <g transform="translate(31.5125 162.650824)scale(0.1 -0.1)">
       <use xlink:href="#DejaVuSans-49"/>
       <use x="63.623047" xlink:href="#DejaVuSans-50"/>
       <use x="127.246094" xlink:href="#DejaVuSans-53"/>
      </g>
     </g>
    </g>
    <g id="ytick_7">
     <g id="line2d_12">
      <g>
       <use style="stroke:#000000;stroke-width:0.8;" x="57.6" xlink:href="#m62098b1bd4" y="129.105127"/>
      </g>
     </g>
     <g id="text_13">
      <!-- 150 -->
      <g transform="translate(31.5125 132.904346)scale(0.1 -0.1)">
       <use xlink:href="#DejaVuSans-49"/>
       <use x="63.623047" xlink:href="#DejaVuSans-53"/>
       <use x="127.246094" xlink:href="#DejaVuSans-48"/>
      </g>
     </g>
    </g>
    <g id="ytick_8">
     <g id="line2d_13">
      <g>
       <use style="stroke:#000000;stroke-width:0.8;" x="57.6" xlink:href="#m62098b1bd4" y="99.358648"/>
      </g>
     </g>
     <g id="text_14">
      <!-- 175 -->
      <g transform="translate(31.5125 103.157867)scale(0.1 -0.1)">
       <use xlink:href="#DejaVuSans-49"/>
       <use x="63.623047" xlink:href="#DejaVuSans-55"/>
       <use x="127.246094" xlink:href="#DejaVuSans-53"/>
      </g>
     </g>
    </g>
    <g id="ytick_9">
     <g id="line2d_14">
      <g>
       <use style="stroke:#000000;stroke-width:0.8;" x="57.6" xlink:href="#m62098b1bd4" y="69.612169"/>
      </g>
     </g>
     <g id="text_15">
      <!-- 200 -->
      <g transform="translate(31.5125 73.411388)scale(0.1 -0.1)">
       <use xlink:href="#DejaVuSans-50"/>
       <use x="63.623047" xlink:href="#DejaVuSans-48"/>
       <use x="127.246094" xlink:href="#DejaVuSans-48"/>
      </g>
     </g>
    </g>
    <g id="text_16">
     <!-- Occurrencies -->
     <defs>
      <path d="M 39.40625 66.21875 
Q 28.65625 66.21875 22.328125 58.203125 
Q 16.015625 50.203125 16.015625 36.375 
Q 16.015625 22.609375 22.328125 14.59375 
Q 28.65625 6.59375 39.40625 6.59375 
Q 50.140625 6.59375 56.421875 14.59375 
Q 62.703125 22.609375 62.703125 36.375 
Q 62.703125 50.203125 56.421875 58.203125 
Q 50.140625 66.21875 39.40625 66.21875 
z
M 39.40625 74.21875 
Q 54.734375 74.21875 63.90625 63.9375 
Q 73.09375 53.65625 73.09375 36.375 
Q 73.09375 19.140625 63.90625 8.859375 
Q 54.734375 -1.421875 39.40625 -1.421875 
Q 24.03125 -1.421875 14.8125 8.828125 
Q 5.609375 19.09375 5.609375 36.375 
Q 5.609375 53.65625 14.8125 63.9375 
Q 24.03125 74.21875 39.40625 74.21875 
z
" id="DejaVuSans-79"/>
      <path d="M 48.78125 52.59375 
L 48.78125 44.1875 
Q 44.96875 46.296875 41.140625 47.34375 
Q 37.3125 48.390625 33.40625 48.390625 
Q 24.65625 48.390625 19.8125 42.84375 
Q 14.984375 37.3125 14.984375 27.296875 
Q 14.984375 17.28125 19.8125 11.734375 
Q 24.65625 6.203125 33.40625 6.203125 
Q 37.3125 6.203125 41.140625 7.25 
Q 44.96875 8.296875 48.78125 10.40625 
L 48.78125 2.09375 
Q 45.015625 0.34375 40.984375 -0.53125 
Q 36.96875 -1.421875 32.421875 -1.421875 
Q 20.0625 -1.421875 12.78125 6.34375 
Q 5.515625 14.109375 5.515625 27.296875 
Q 5.515625 40.671875 12.859375 48.328125 
Q 20.21875 56 33.015625 56 
Q 37.15625 56 41.109375 55.140625 
Q 45.0625 54.296875 48.78125 52.59375 
z
" id="DejaVuSans-99"/>
      <path d="M 8.5 21.578125 
L 8.5 54.6875 
L 17.484375 54.6875 
L 17.484375 21.921875 
Q 17.484375 14.15625 20.5 10.265625 
Q 23.53125 6.390625 29.59375 6.390625 
Q 36.859375 6.390625 41.078125 11.03125 
Q 45.3125 15.671875 45.3125 23.6875 
L 45.3125 54.6875 
L 54.296875 54.6875 
L 54.296875 0 
L 45.3125 0 
L 45.3125 8.40625 
Q 42.046875 3.421875 37.71875 1 
Q 33.40625 -1.421875 27.6875 -1.421875 
Q 18.265625 -1.421875 13.375 4.4375 
Q 8.5 10.296875 8.5 21.578125 
z
M 31.109375 56 
z
" id="DejaVuSans-117"/>
      <path d="M 41.109375 46.296875 
Q 39.59375 47.171875 37.8125 47.578125 
Q 36.03125 48 33.890625 48 
Q 26.265625 48 22.1875 43.046875 
Q 18.109375 38.09375 18.109375 28.8125 
L 18.109375 0 
L 9.078125 0 
L 9.078125 54.6875 
L 18.109375 54.6875 
L 18.109375 46.1875 
Q 20.953125 51.171875 25.484375 53.578125 
Q 30.03125 56 36.53125 56 
Q 37.453125 56 38.578125 55.875 
Q 39.703125 55.765625 41.0625 55.515625 
z
" id="DejaVuSans-114"/>
      <path d="M 54.890625 33.015625 
L 54.890625 0 
L 45.90625 0 
L 45.90625 32.71875 
Q 45.90625 40.484375 42.875 44.328125 
Q 39.84375 48.1875 33.796875 48.1875 
Q 26.515625 48.1875 22.3125 43.546875 
Q 18.109375 38.921875 18.109375 30.90625 
L 18.109375 0 
L 9.078125 0 
L 9.078125 54.6875 
L 18.109375 54.6875 
L 18.109375 46.1875 
Q 21.34375 51.125 25.703125 53.5625 
Q 30.078125 56 35.796875 56 
Q 45.21875 56 50.046875 50.171875 
Q 54.890625 44.34375 54.890625 33.015625 
z
" id="DejaVuSans-110"/>
      <path d="M 44.28125 53.078125 
L 44.28125 44.578125 
Q 40.484375 46.53125 36.375 47.5 
Q 32.28125 48.484375 27.875 48.484375 
Q 21.1875 48.484375 17.84375 46.4375 
Q 14.5 44.390625 14.5 40.28125 
Q 14.5 37.15625 16.890625 35.375 
Q 19.28125 33.59375 26.515625 31.984375 
L 29.59375 31.296875 
Q 39.15625 29.25 43.1875 25.515625 
Q 47.21875 21.78125 47.21875 15.09375 
Q 47.21875 7.46875 41.1875 3.015625 
Q 35.15625 -1.421875 24.609375 -1.421875 
Q 20.21875 -1.421875 15.453125 -0.5625 
Q 10.6875 0.296875 5.421875 2 
L 5.421875 11.28125 
Q 10.40625 8.6875 15.234375 7.390625 
Q 20.0625 6.109375 24.8125 6.109375 
Q 31.15625 6.109375 34.5625 8.28125 
Q 37.984375 10.453125 37.984375 14.40625 
Q 37.984375 18.0625 35.515625 20.015625 
Q 33.0625 21.96875 24.703125 23.78125 
L 21.578125 24.515625 
Q 13.234375 26.265625 9.515625 29.90625 
Q 5.8125 33.546875 5.8125 39.890625 
Q 5.8125 47.609375 11.28125 51.796875 
Q 16.75 56 26.8125 56 
Q 31.78125 56 36.171875 55.265625 
Q 40.578125 54.546875 44.28125 53.078125 
z
" id="DejaVuSans-115"/>
     </defs>
     <g transform="translate(25.432812 207.304563)rotate(-90)scale(0.1 -0.1)">
      <use xlink:href="#DejaVuSans-79"/>
      <use x="78.710938" xlink:href="#DejaVuSans-99"/>
      <use x="133.691406" xlink:href="#DejaVuSans-99"/>
      <use x="188.671875" xlink:href="#DejaVuSans-117"/>
      <use x="252.050781" xlink:href="#DejaVuSans-114"/>
      <use x="293.148438" xlink:href="#DejaVuSans-114"/>
      <use x="334.230469" xlink:href="#DejaVuSans-101"/>
      <use x="395.753906" xlink:href="#DejaVuSans-110"/>
      <use x="459.132812" xlink:href="#DejaVuSans-99"/>
      <use x="514.113281" xlink:href="#DejaVuSans-105"/>
      <use x="541.896484" xlink:href="#DejaVuSans-101"/>
      <use x="603.419922" xlink:href="#DejaVuSans-115"/>
     </g>
    </g>
   </g>
   <g id="patch_203">
    <path d="M 57.6 307.584 
L 57.6 41.472 
" style="fill:none;stroke:#000000;stroke-linecap:square;stroke-linejoin:miter;stroke-width:0.8;"/>
   </g>
   <g id="patch_204">
    <path d="M 414.72 307.584 
L 414.72 41.472 
" style="fill:none;stroke:#000000;stroke-linecap:square;stroke-linejoin:miter;stroke-width:0.8;"/>
   </g>
   <g id="patch_205">
    <path d="M 57.6 307.584 
L 414.72 307.584 
" style="fill:none;stroke:#000000;stroke-linecap:square;stroke-linejoin:miter;stroke-width:0.8;"/>
   </g>
   <g id="patch_206">
    <path d="M 57.6 41.472 
L 414.72 41.472 
" style="fill:none;stroke:#000000;stroke-linecap:square;stroke-linejoin:miter;stroke-width:0.8;"/>
   </g>
   <g id="text_17">
    <!-- Histogram of conv2 -->
    <defs>
     <path d="M 9.8125 72.90625 
L 19.671875 72.90625 
L 19.671875 43.015625 
L 55.515625 43.015625 
L 55.515625 72.90625 
L 65.375 72.90625 
L 65.375 0 
L 55.515625 0 
L 55.515625 34.71875 
L 19.671875 34.71875 
L 19.671875 0 
L 9.8125 0 
z
" id="DejaVuSans-72"/>
     <path d="M 30.609375 48.390625 
Q 23.390625 48.390625 19.1875 42.75 
Q 14.984375 37.109375 14.984375 27.296875 
Q 14.984375 17.484375 19.15625 11.84375 
Q 23.34375 6.203125 30.609375 6.203125 
Q 37.796875 6.203125 41.984375 11.859375 
Q 46.1875 17.53125 46.1875 27.296875 
Q 46.1875 37.015625 41.984375 42.703125 
Q 37.796875 48.390625 30.609375 48.390625 
z
M 30.609375 56 
Q 42.328125 56 49.015625 48.375 
Q 55.71875 40.765625 55.71875 27.296875 
Q 55.71875 13.875 49.015625 6.21875 
Q 42.328125 -1.421875 30.609375 -1.421875 
Q 18.84375 -1.421875 12.171875 6.21875 
Q 5.515625 13.875 5.515625 27.296875 
Q 5.515625 40.765625 12.171875 48.375 
Q 18.84375 56 30.609375 56 
z
" id="DejaVuSans-111"/>
     <path d="M 34.28125 27.484375 
Q 23.390625 27.484375 19.1875 25 
Q 14.984375 22.515625 14.984375 16.5 
Q 14.984375 11.71875 18.140625 8.90625 
Q 21.296875 6.109375 26.703125 6.109375 
Q 34.1875 6.109375 38.703125 11.40625 
Q 43.21875 16.703125 43.21875 25.484375 
L 43.21875 27.484375 
z
M 52.203125 31.203125 
L 52.203125 0 
L 43.21875 0 
L 43.21875 8.296875 
Q 40.140625 3.328125 35.546875 0.953125 
Q 30.953125 -1.421875 24.3125 -1.421875 
Q 15.921875 -1.421875 10.953125 3.296875 
Q 6 8.015625 6 15.921875 
Q 6 25.140625 12.171875 29.828125 
Q 18.359375 34.515625 30.609375 34.515625 
L 43.21875 34.515625 
L 43.21875 35.40625 
Q 43.21875 41.609375 39.140625 45 
Q 35.0625 48.390625 27.6875 48.390625 
Q 23 48.390625 18.546875 47.265625 
Q 14.109375 46.140625 10.015625 43.890625 
L 10.015625 52.203125 
Q 14.9375 54.109375 19.578125 55.046875 
Q 24.21875 56 28.609375 56 
Q 40.484375 56 46.34375 49.84375 
Q 52.203125 43.703125 52.203125 31.203125 
z
" id="DejaVuSans-97"/>
     <path d="M 52 44.1875 
Q 55.375 50.25 60.0625 53.125 
Q 64.75 56 71.09375 56 
Q 79.640625 56 84.28125 50.015625 
Q 88.921875 44.046875 88.921875 33.015625 
L 88.921875 0 
L 79.890625 0 
L 79.890625 32.71875 
Q 79.890625 40.578125 77.09375 44.375 
Q 74.3125 48.1875 68.609375 48.1875 
Q 61.625 48.1875 57.5625 43.546875 
Q 53.515625 38.921875 53.515625 30.90625 
L 53.515625 0 
L 44.484375 0 
L 44.484375 32.71875 
Q 44.484375 40.625 41.703125 44.40625 
Q 38.921875 48.1875 33.109375 48.1875 
Q 26.21875 48.1875 22.15625 43.53125 
Q 18.109375 38.875 18.109375 30.90625 
L 18.109375 0 
L 9.078125 0 
L 9.078125 54.6875 
L 18.109375 54.6875 
L 18.109375 46.1875 
Q 21.1875 51.21875 25.484375 53.609375 
Q 29.78125 56 35.6875 56 
Q 41.65625 56 45.828125 52.96875 
Q 50 49.953125 52 44.1875 
z
" id="DejaVuSans-109"/>
     <path id="DejaVuSans-32"/>
     <path d="M 37.109375 75.984375 
L 37.109375 68.5 
L 28.515625 68.5 
Q 23.6875 68.5 21.796875 66.546875 
Q 19.921875 64.59375 19.921875 59.515625 
L 19.921875 54.6875 
L 34.71875 54.6875 
L 34.71875 47.703125 
L 19.921875 47.703125 
L 19.921875 0 
L 10.890625 0 
L 10.890625 47.703125 
L 2.296875 47.703125 
L 2.296875 54.6875 
L 10.890625 54.6875 
L 10.890625 58.5 
Q 10.890625 67.625 15.140625 71.796875 
Q 19.390625 75.984375 28.609375 75.984375 
z
" id="DejaVuSans-102"/>
     <path d="M 2.984375 54.6875 
L 12.5 54.6875 
L 29.59375 8.796875 
L 46.6875 54.6875 
L 56.203125 54.6875 
L 35.6875 0 
L 23.484375 0 
z
" id="DejaVuSans-118"/>
    </defs>
    <g transform="translate(177.29625 35.472)scale(0.12 -0.12)">
     <use xlink:href="#DejaVuSans-72"/>
     <use x="75.195312" xlink:href="#DejaVuSans-105"/>
     <use x="102.978516" xlink:href="#DejaVuSans-115"/>
     <use x="155.078125" xlink:href="#DejaVuSans-116"/>
     <use x="194.287109" xlink:href="#DejaVuSans-111"/>
     <use x="255.46875" xlink:href="#DejaVuSans-103"/>
     <use x="318.945312" xlink:href="#DejaVuSans-114"/>
     <use x="360.058594" xlink:href="#DejaVuSans-97"/>
     <use x="421.337891" xlink:href="#DejaVuSans-109"/>
     <use x="518.75" xlink:href="#DejaVuSans-32"/>
     <use x="550.537109" xlink:href="#DejaVuSans-111"/>
     <use x="611.71875" xlink:href="#DejaVuSans-102"/>
     <use x="646.923828" xlink:href="#DejaVuSans-32"/>
     <use x="678.710938" xlink:href="#DejaVuSans-99"/>
     <use x="733.691406" xlink:href="#DejaVuSans-111"/>
     <use x="794.873047" xlink:href="#DejaVuSans-110"/>
     <use x="858.251953" xlink:href="#DejaVuSans-118"/>
     <use x="917.431641" xlink:href="#DejaVuSans-50"/>
    </g>
   </g>
   <g id="legend_1">
    <g id="patch_207">
     <path d="M 323.679375 78.82825 
L 407.72 78.82825 
Q 409.72 78.82825 409.72 76.82825 
L 409.72 48.472 
Q 409.72 46.472 407.72 46.472 
L 323.679375 46.472 
Q 321.679375 46.472 321.679375 48.472 
L 321.679375 76.82825 
Q 321.679375 78.82825 323.679375 78.82825 
z
" style="fill:#ffffff;opacity:0.8;stroke:#cccccc;stroke-linejoin:miter;"/>
    </g>
    <g id="patch_208">
     <path d="M 325.679375 58.070437 
L 345.679375 58.070437 
L 345.679375 51.070437 
L 325.679375 51.070437 
z
" style="fill:#0000ff;"/>
    </g>
    <g id="text_18">
     <!-- unmasked -->
     <defs>
      <path d="M 9.078125 75.984375 
L 18.109375 75.984375 
L 18.109375 31.109375 
L 44.921875 54.6875 
L 56.390625 54.6875 
L 27.390625 29.109375 
L 57.625 0 
L 45.90625 0 
L 18.109375 26.703125 
L 18.109375 0 
L 9.078125 0 
z
" id="DejaVuSans-107"/>
      <path d="M 45.40625 46.390625 
L 45.40625 75.984375 
L 54.390625 75.984375 
L 54.390625 0 
L 45.40625 0 
L 45.40625 8.203125 
Q 42.578125 3.328125 38.25 0.953125 
Q 33.9375 -1.421875 27.875 -1.421875 
Q 17.96875 -1.421875 11.734375 6.484375 
Q 5.515625 14.40625 5.515625 27.296875 
Q 5.515625 40.1875 11.734375 48.09375 
Q 17.96875 56 27.875 56 
Q 33.9375 56 38.25 53.625 
Q 42.578125 51.265625 45.40625 46.390625 
z
M 14.796875 27.296875 
Q 14.796875 17.390625 18.875 11.75 
Q 22.953125 6.109375 30.078125 6.109375 
Q 37.203125 6.109375 41.296875 11.75 
Q 45.40625 17.390625 45.40625 27.296875 
Q 45.40625 37.203125 41.296875 42.84375 
Q 37.203125 48.484375 30.078125 48.484375 
Q 22.953125 48.484375 18.875 42.84375 
Q 14.796875 37.203125 14.796875 27.296875 
z
" id="DejaVuSans-100"/>
     </defs>
     <g transform="translate(353.679375 58.070437)scale(0.1 -0.1)">
      <use xlink:href="#DejaVuSans-117"/>
      <use x="63.378906" xlink:href="#DejaVuSans-110"/>
      <use x="126.757812" xlink:href="#DejaVuSans-109"/>
      <use x="224.169922" xlink:href="#DejaVuSans-97"/>
      <use x="285.449219" xlink:href="#DejaVuSans-115"/>
      <use x="337.548828" xlink:href="#DejaVuSans-107"/>
      <use x="395.412109" xlink:href="#DejaVuSans-101"/>
      <use x="456.935547" xlink:href="#DejaVuSans-100"/>
     </g>
    </g>
    <g id="patch_209">
     <path d="M 325.679375 72.748562 
L 345.679375 72.748562 
L 345.679375 65.748562 
L 325.679375 65.748562 
z
" style="fill:#808080;"/>
    </g>
    <g id="text_19">
     <!-- masked -->
     <g transform="translate(353.679375 72.748562)scale(0.1 -0.1)">
      <use xlink:href="#DejaVuSans-109"/>
      <use x="97.412109" xlink:href="#DejaVuSans-97"/>
      <use x="158.691406" xlink:href="#DejaVuSans-115"/>
      <use x="210.791016" xlink:href="#DejaVuSans-107"/>
      <use x="268.654297" xlink:href="#DejaVuSans-101"/>
      <use x="330.177734" xlink:href="#DejaVuSans-100"/>
     </g>
    </g>
   </g>
  </g>
 </g>
 <defs>
  <clipPath id="p1949394645">
   <rect height="266.112" width="357.12" x="57.6" y="41.472"/>
  </clipPath>
 </defs>
</svg>
