<?xml version="1.0" encoding="utf-8" standalone="no"?>
<!DOCTYPE svg PUBLIC "-//W3C//DTD SVG 1.1//EN"
  "http://www.w3.org/Graphics/SVG/1.1/DTD/svg11.dtd">
<!-- Created with matplotlib (https://matplotlib.org/) -->
<svg height="345.6pt" version="1.1" viewBox="0 0 460.8 345.6" width="460.8pt" xmlns="http://www.w3.org/2000/svg" xmlns:xlink="http://www.w3.org/1999/xlink">
 <defs>
  <style type="text/css">
*{stroke-linecap:butt;stroke-linejoin:round;}
  </style>
 </defs>
 <g id="figure_1">
  <g id="patch_1">
   <path d="M 0 345.6 
L 460.8 345.6 
L 460.8 0 
L 0 0 
z
" style="fill:#ffffff;"/>
  </g>
  <g id="axes_1">
   <g id="patch_2">
    <path d="M 57.6 307.584 
L 414.72 307.584 
L 414.72 41.472 
L 57.6 41.472 
z
" style="fill:#ffffff;"/>
   </g>
   <g id="patch_3">
    <path clip-path="url(#pfb02187f9d)" d="M 91.869091 307.584 
L 94.935276 307.584 
L 94.935276 307.576932 
L 91.869091 307.576932 
z
" style="fill:#0000ff;"/>
   </g>
   <g id="patch_4">
    <path clip-path="url(#pfb02187f9d)" d="M 94.935276 307.584 
L 98.001453 307.584 
L 98.001453 307.576932 
L 94.935276 307.576932 
z
" style="fill:#0000ff;"/>
   </g>
   <g id="patch_5">
    <path clip-path="url(#pfb02187f9d)" d="M 98.001453 307.584 
L 101.067638 307.584 
L 101.067638 307.584 
L 98.001453 307.584 
z
" style="fill:#0000ff;"/>
   </g>
   <g id="patch_6">
    <path clip-path="url(#pfb02187f9d)" d="M 101.067647 307.584 
L 104.133824 307.584 
L 104.133824 307.584 
L 101.067647 307.584 
z
" style="fill:#0000ff;"/>
   </g>
   <g id="patch_7">
    <path clip-path="url(#pfb02187f9d)" d="M 104.133815 307.584 
L 107.2 307.584 
L 107.2 307.576932 
L 104.133815 307.576932 
z
" style="fill:#0000ff;"/>
   </g>
   <g id="patch_8">
    <path clip-path="url(#pfb02187f9d)" d="M 107.2 307.584 
L 110.266185 307.584 
L 110.266185 307.584 
L 107.2 307.584 
z
" style="fill:#0000ff;"/>
   </g>
   <g id="patch_9">
    <path clip-path="url(#pfb02187f9d)" d="M 110.266185 307.584 
L 113.332362 307.584 
L 113.332362 307.584 
L 110.266185 307.584 
z
" style="fill:#0000ff;"/>
   </g>
   <g id="patch_10">
    <path clip-path="url(#pfb02187f9d)" d="M 113.332362 307.584 
L 116.398547 307.584 
L 116.398547 307.584 
L 113.332362 307.584 
z
" style="fill:#0000ff;"/>
   </g>
   <g id="patch_11">
    <path clip-path="url(#pfb02187f9d)" d="M 116.398556 307.584 
L 119.464733 307.584 
L 119.464733 307.584 
L 116.398556 307.584 
z
" style="fill:#0000ff;"/>
   </g>
   <g id="patch_12">
    <path clip-path="url(#pfb02187f9d)" d="M 119.464724 307.584 
L 122.530909 307.584 
L 122.530909 307.584 
L 119.464724 307.584 
z
" style="fill:#0000ff;"/>
   </g>
   <g id="patch_13">
    <path clip-path="url(#pfb02187f9d)" d="M 122.530909 307.584 
L 125.597095 307.584 
L 125.597095 307.569863 
L 122.530909 307.569863 
z
" style="fill:#0000ff;"/>
   </g>
   <g id="patch_14">
    <path clip-path="url(#pfb02187f9d)" d="M 125.597095 307.584 
L 128.663271 307.584 
L 128.663271 307.584 
L 125.597095 307.584 
z
" style="fill:#0000ff;"/>
   </g>
   <g id="patch_15">
    <path clip-path="url(#pfb02187f9d)" d="M 128.663271 307.584 
L 131.729456 307.584 
L 131.729456 307.584 
L 128.663271 307.584 
z
" style="fill:#0000ff;"/>
   </g>
   <g id="patch_16">
    <path clip-path="url(#pfb02187f9d)" d="M 131.729466 307.584 
L 134.795642 307.584 
L 134.795642 307.584 
L 131.729466 307.584 
z
" style="fill:#0000ff;"/>
   </g>
   <g id="patch_17">
    <path clip-path="url(#pfb02187f9d)" d="M 134.795633 307.584 
L 137.861818 307.584 
L 137.861818 307.569863 
L 134.795633 307.569863 
z
" style="fill:#0000ff;"/>
   </g>
   <g id="patch_18">
    <path clip-path="url(#pfb02187f9d)" d="M 137.861818 307.584 
L 140.928004 307.584 
L 140.928004 307.584 
L 137.861818 307.584 
z
" style="fill:#0000ff;"/>
   </g>
   <g id="patch_19">
    <path clip-path="url(#pfb02187f9d)" d="M 140.928004 307.584 
L 143.99418 307.584 
L 143.99418 307.584 
L 140.928004 307.584 
z
" style="fill:#0000ff;"/>
   </g>
   <g id="patch_20">
    <path clip-path="url(#pfb02187f9d)" d="M 143.99418 307.584 
L 147.060365 307.584 
L 147.060365 307.576932 
L 143.99418 307.576932 
z
" style="fill:#0000ff;"/>
   </g>
   <g id="patch_21">
    <path clip-path="url(#pfb02187f9d)" d="M 147.060375 307.584 
L 150.126551 307.584 
L 150.126551 307.584 
L 147.060375 307.584 
z
" style="fill:#0000ff;"/>
   </g>
   <g id="patch_22">
    <path clip-path="url(#pfb02187f9d)" d="M 150.126542 307.584 
L 153.192727 307.584 
L 153.192727 307.569863 
L 150.126542 307.569863 
z
" style="fill:#0000ff;"/>
   </g>
   <g id="patch_23">
    <path clip-path="url(#pfb02187f9d)" d="M 153.192727 307.584 
L 156.258913 307.584 
L 156.258913 307.576932 
L 153.192727 307.576932 
z
" style="fill:#0000ff;"/>
   </g>
   <g id="patch_24">
    <path clip-path="url(#pfb02187f9d)" d="M 156.258913 307.584 
L 159.325089 307.584 
L 159.325089 307.576932 
L 156.258913 307.576932 
z
" style="fill:#0000ff;"/>
   </g>
   <g id="patch_25">
    <path clip-path="url(#pfb02187f9d)" d="M 159.325089 307.584 
L 162.391275 307.584 
L 162.391275 307.576932 
L 159.325089 307.576932 
z
" style="fill:#0000ff;"/>
   </g>
   <g id="patch_26">
    <path clip-path="url(#pfb02187f9d)" d="M 162.391284 307.584 
L 165.45746 307.584 
L 165.45746 307.534522 
L 162.391284 307.534522 
z
" style="fill:#0000ff;"/>
   </g>
   <g id="patch_27">
    <path clip-path="url(#pfb02187f9d)" d="M 165.457451 307.584 
L 168.523636 307.584 
L 168.523636 307.569863 
L 165.457451 307.569863 
z
" style="fill:#0000ff;"/>
   </g>
   <g id="patch_28">
    <path clip-path="url(#pfb02187f9d)" d="M 168.523636 307.584 
L 171.589813 307.584 
L 171.589813 307.534522 
L 168.523636 307.534522 
z
" style="fill:#0000ff;"/>
   </g>
   <g id="patch_29">
    <path clip-path="url(#pfb02187f9d)" d="M 171.589817 307.584 
L 174.655994 307.584 
L 174.655994 307.513317 
L 171.589817 307.513317 
z
" style="fill:#0000ff;"/>
   </g>
   <g id="patch_30">
    <path clip-path="url(#pfb02187f9d)" d="M 174.655998 307.584 
L 177.722184 307.584 
L 177.722184 307.54159 
L 174.655998 307.54159 
z
" style="fill:#0000ff;"/>
   </g>
   <g id="patch_31">
    <path clip-path="url(#pfb02187f9d)" d="M 177.722188 307.584 
L 180.788365 307.584 
L 180.788365 307.569863 
L 177.722188 307.569863 
z
" style="fill:#0000ff;"/>
   </g>
   <g id="patch_32">
    <path clip-path="url(#pfb02187f9d)" d="M 180.788365 307.584 
L 183.854541 307.584 
L 183.854541 307.513317 
L 180.788365 307.513317 
z
" style="fill:#0000ff;"/>
   </g>
   <g id="patch_33">
    <path clip-path="url(#pfb02187f9d)" d="M 183.85455 307.584 
L 186.920726 307.584 
L 186.920726 307.42143 
L 183.85455 307.42143 
z
" style="fill:#0000ff;"/>
   </g>
   <g id="patch_34">
    <path clip-path="url(#pfb02187f9d)" d="M 186.920726 307.584 
L 189.986903 307.584 
L 189.986903 307.513317 
L 186.920726 307.513317 
z
" style="fill:#0000ff;"/>
   </g>
   <g id="patch_35">
    <path clip-path="url(#pfb02187f9d)" d="M 189.986907 307.584 
L 193.053093 307.584 
L 193.053093 307.456771 
L 189.986907 307.456771 
z
" style="fill:#0000ff;"/>
   </g>
   <g id="patch_36">
    <path clip-path="url(#pfb02187f9d)" d="M 193.053097 307.584 
L 196.119274 307.584 
L 196.119274 307.492112 
L 193.053097 307.492112 
z
" style="fill:#0000ff;"/>
   </g>
   <g id="patch_37">
    <path clip-path="url(#pfb02187f9d)" d="M 196.119274 307.584 
L 199.18545 307.584 
L 199.18545 307.386088 
L 196.119274 307.386088 
z
" style="fill:#0000ff;"/>
   </g>
   <g id="patch_38">
    <path clip-path="url(#pfb02187f9d)" d="M 199.185459 307.584 
L 202.251635 307.584 
L 202.251635 307.400225 
L 199.185459 307.400225 
z
" style="fill:#0000ff;"/>
   </g>
   <g id="patch_39">
    <path clip-path="url(#pfb02187f9d)" d="M 202.251635 307.584 
L 205.317812 307.584 
L 205.317812 307.287133 
L 202.251635 307.287133 
z
" style="fill:#0000ff;"/>
   </g>
   <g id="patch_40">
    <path clip-path="url(#pfb02187f9d)" d="M 205.317816 307.584 
L 208.384002 307.584 
L 208.384002 307.343679 
L 205.317816 307.343679 
z
" style="fill:#0000ff;"/>
   </g>
   <g id="patch_41">
    <path clip-path="url(#pfb02187f9d)" d="M 208.383997 307.584 
L 211.450183 307.584 
L 211.450183 307.195245 
L 208.383997 307.195245 
z
" style="fill:#0000ff;"/>
   </g>
   <g id="patch_42">
    <path clip-path="url(#pfb02187f9d)" d="M 211.450185 307.584 
L 214.516361 307.584 
L 214.516361 307.237655 
L 211.450185 307.237655 
z
" style="fill:#0000ff;"/>
   </g>
   <g id="patch_43">
    <path clip-path="url(#pfb02187f9d)" d="M 214.516366 307.584 
L 217.582542 307.584 
L 217.582542 306.933719 
L 214.516366 306.933719 
z
" style="fill:#0000ff;"/>
   </g>
   <g id="patch_44">
    <path clip-path="url(#pfb02187f9d)" d="M 217.582545 307.584 
L 220.64873 307.584 
L 220.64873 306.855968 
L 217.582545 306.855968 
z
" style="fill:#0000ff;"/>
   </g>
   <g id="patch_45">
    <path clip-path="url(#pfb02187f9d)" d="M 220.64873 307.584 
L 223.714906 307.584 
L 223.714906 306.976129 
L 220.64873 306.976129 
z
" style="fill:#0000ff;"/>
   </g>
   <g id="patch_46">
    <path clip-path="url(#pfb02187f9d)" d="M 223.714906 307.584 
L 226.781092 307.584 
L 226.781092 306.43894 
L 223.714906 306.43894 
z
" style="fill:#0000ff;"/>
   </g>
   <g id="patch_47">
    <path clip-path="url(#pfb02187f9d)" d="M 226.78109 307.584 
L 229.847275 307.584 
L 229.847275 306.650988 
L 226.78109 306.650988 
z
" style="fill:#0000ff;"/>
   </g>
   <g id="patch_48">
    <path clip-path="url(#pfb02187f9d)" d="M 229.84727 307.584 
L 232.913456 307.584 
L 232.913456 305.873478 
L 229.84727 305.873478 
z
" style="fill:#0000ff;"/>
   </g>
   <g id="patch_49">
    <path clip-path="url(#pfb02187f9d)" d="M 232.913454 307.584 
L 235.979639 307.584 
L 235.979639 306.290506 
L 232.913454 306.290506 
z
" style="fill:#0000ff;"/>
   </g>
   <g id="patch_50">
    <path clip-path="url(#pfb02187f9d)" d="M 235.979635 307.584 
L 239.04582 307.584 
L 239.04582 305.406972 
L 235.979635 305.406972 
z
" style="fill:#0000ff;"/>
   </g>
   <g id="patch_51">
    <path clip-path="url(#pfb02187f9d)" d="M 239.045817 307.584 
L 242.112002 307.584 
L 242.112002 305.922956 
L 239.045817 305.922956 
z
" style="fill:#0000ff;"/>
   </g>
   <g id="patch_52">
    <path clip-path="url(#pfb02187f9d)" d="M 242.111998 307.584 
L 245.178184 307.584 
L 245.178184 304.530506 
L 242.111998 304.530506 
z
" style="fill:#0000ff;"/>
   </g>
   <g id="patch_53">
    <path clip-path="url(#pfb02187f9d)" d="M 245.17818 307.584 
L 248.244366 307.584 
L 248.244366 304.481028 
L 245.17818 304.481028 
z
" style="fill:#0000ff;"/>
   </g>
   <g id="patch_54">
    <path clip-path="url(#pfb02187f9d)" d="M 248.244362 307.584 
L 251.310547 307.584 
L 251.310547 305.074763 
L 248.244362 305.074763 
z
" style="fill:#0000ff;"/>
   </g>
   <g id="patch_55">
    <path clip-path="url(#pfb02187f9d)" d="M 251.310544 307.584 
L 254.376729 307.584 
L 254.376729 303.145124 
L 251.310544 303.145124 
z
" style="fill:#0000ff;"/>
   </g>
   <g id="patch_56">
    <path clip-path="url(#pfb02187f9d)" d="M 254.376726 307.584 
L 257.442911 307.584 
L 257.442911 304.254843 
L 254.376726 304.254843 
z
" style="fill:#0000ff;"/>
   </g>
   <g id="patch_57">
    <path clip-path="url(#pfb02187f9d)" d="M 257.442908 307.584 
L 260.509093 307.584 
L 260.509093 301.929382 
L 257.442908 301.929382 
z
" style="fill:#0000ff;"/>
   </g>
   <g id="patch_58">
    <path clip-path="url(#pfb02187f9d)" d="M 260.509089 307.584 
L 263.575274 307.584 
L 263.575274 303.456129 
L 260.509089 303.456129 
z
" style="fill:#0000ff;"/>
   </g>
   <g id="patch_59">
    <path clip-path="url(#pfb02187f9d)" d="M 263.575272 307.584 
L 266.641457 307.584 
L 266.641457 300.487454 
L 263.575272 300.487454 
z
" style="fill:#0000ff;"/>
   </g>
   <g id="patch_60">
    <path clip-path="url(#pfb02187f9d)" d="M 266.641457 307.584 
L 269.707634 307.584 
L 269.707634 302.537253 
L 266.641457 302.537253 
z
" style="fill:#0000ff;"/>
   </g>
   <g id="patch_61">
    <path clip-path="url(#pfb02187f9d)" d="M 269.707634 307.584 
L 272.773819 307.584 
L 272.773819 297.617735 
L 269.707634 297.617735 
z
" style="fill:#0000ff;"/>
   </g>
   <g id="patch_62">
    <path clip-path="url(#pfb02187f9d)" d="M 272.773821 307.584 
L 275.839998 307.584 
L 275.839998 294.302715 
L 272.773821 294.302715 
z
" style="fill:#0000ff;"/>
   </g>
   <g id="patch_63">
    <path clip-path="url(#pfb02187f9d)" d="M 275.840002 307.584 
L 278.906179 307.584 
L 278.906179 268.779181 
L 275.840002 268.779181 
z
" style="fill:#0000ff;"/>
   </g>
   <g id="patch_64">
    <path clip-path="url(#pfb02187f9d)" d="M 278.906181 307.584 
L 281.972366 307.584 
L 281.972366 254.225606 
L 278.906181 254.225606 
z
" style="fill:#0000ff;"/>
   </g>
   <g id="patch_65">
    <path clip-path="url(#pfb02187f9d)" d="M 281.972362 307.584 
L 285.038547 307.584 
L 285.038547 270.468498 
L 281.972362 270.468498 
z
" style="fill:#0000ff;"/>
   </g>
   <g id="patch_66">
    <path clip-path="url(#pfb02187f9d)" d="M 285.038552 307.584 
L 288.104728 307.584 
L 288.104728 262.679261 
L 285.038552 262.679261 
z
" style="fill:#0000ff;"/>
   </g>
   <g id="patch_67">
    <path clip-path="url(#pfb02187f9d)" d="M 288.104728 307.584 
L 291.170905 307.584 
L 291.170905 289.361992 
L 288.104728 289.361992 
z
" style="fill:#0000ff;"/>
   </g>
   <g id="patch_68">
    <path clip-path="url(#pfb02187f9d)" d="M 291.170914 307.584 
L 294.23709 307.584 
L 294.23709 296.281831 
L 291.170914 296.281831 
z
" style="fill:#0000ff;"/>
   </g>
   <g id="patch_69">
    <path clip-path="url(#pfb02187f9d)" d="M 294.23709 307.584 
L 297.303266 307.584 
L 297.303266 301.667855 
L 294.23709 301.667855 
z
" style="fill:#0000ff;"/>
   </g>
   <g id="patch_70">
    <path clip-path="url(#pfb02187f9d)" d="M 297.303271 307.584 
L 300.369456 307.584 
L 300.369456 299.844241 
L 297.303271 299.844241 
z
" style="fill:#0000ff;"/>
   </g>
   <g id="patch_71">
    <path clip-path="url(#pfb02187f9d)" d="M 300.369461 307.584 
L 303.435637 307.584 
L 303.435637 302.657414 
L 300.369461 302.657414 
z
" style="fill:#0000ff;"/>
   </g>
   <g id="patch_72">
    <path clip-path="url(#pfb02187f9d)" d="M 303.435637 307.584 
L 306.501814 307.584 
L 306.501814 300.459181 
L 303.435637 300.459181 
z
" style="fill:#0000ff;"/>
   </g>
   <g id="patch_73">
    <path clip-path="url(#pfb02187f9d)" d="M 306.501823 307.584 
L 309.567999 307.584 
L 309.567999 301.561831 
L 306.501823 301.561831 
z
" style="fill:#0000ff;"/>
   </g>
   <g id="patch_74">
    <path clip-path="url(#pfb02187f9d)" d="M 309.567999 307.584 
L 312.634175 307.584 
L 312.634175 303.844884 
L 309.567999 303.844884 
z
" style="fill:#0000ff;"/>
   </g>
   <g id="patch_75">
    <path clip-path="url(#pfb02187f9d)" d="M 312.63418 307.584 
L 315.700365 307.584 
L 315.700365 302.67155 
L 312.63418 302.67155 
z
" style="fill:#0000ff;"/>
   </g>
   <g id="patch_76">
    <path clip-path="url(#pfb02187f9d)" d="M 315.70037 307.584 
L 318.766546 307.584 
L 318.766546 304.88392 
L 315.70037 304.88392 
z
" style="fill:#0000ff;"/>
   </g>
   <g id="patch_77">
    <path clip-path="url(#pfb02187f9d)" d="M 318.766546 307.584 
L 321.832723 307.584 
L 321.832723 303.887293 
L 318.766546 303.887293 
z
" style="fill:#0000ff;"/>
   </g>
   <g id="patch_78">
    <path clip-path="url(#pfb02187f9d)" d="M 321.832727 307.584 
L 324.898913 307.584 
L 324.898913 305.357494 
L 321.832727 305.357494 
z
" style="fill:#0000ff;"/>
   </g>
   <g id="patch_79">
    <path clip-path="url(#pfb02187f9d)" d="M 324.898913 307.584 
L 327.965089 307.584 
L 327.965089 304.947534 
L 324.898913 304.947534 
z
" style="fill:#0000ff;"/>
   </g>
   <g id="patch_80">
    <path clip-path="url(#pfb02187f9d)" d="M 327.965089 307.584 
L 331.031275 307.584 
L 331.031275 306.014843 
L 327.965089 306.014843 
z
" style="fill:#0000ff;"/>
   </g>
   <g id="patch_81">
    <path clip-path="url(#pfb02187f9d)" d="M 331.031284 307.584 
L 334.09746 307.584 
L 334.09746 305.626088 
L 331.031284 305.626088 
z
" style="fill:#0000ff;"/>
   </g>
   <g id="patch_82">
    <path clip-path="url(#pfb02187f9d)" d="M 334.097451 307.584 
L 337.163636 307.584 
L 337.163636 306.523759 
L 334.097451 306.523759 
z
" style="fill:#0000ff;"/>
   </g>
   <g id="patch_83">
    <path clip-path="url(#pfb02187f9d)" d="M 337.163636 307.584 
L 340.229822 307.584 
L 340.229822 306.460145 
L 337.163636 306.460145 
z
" style="fill:#0000ff;"/>
   </g>
   <g id="patch_84">
    <path clip-path="url(#pfb02187f9d)" d="M 340.229822 307.584 
L 343.295998 307.584 
L 343.295998 306.573237 
L 340.229822 306.573237 
z
" style="fill:#0000ff;"/>
   </g>
   <g id="patch_85">
    <path clip-path="url(#pfb02187f9d)" d="M 343.295998 307.584 
L 346.362184 307.584 
L 346.362184 307.166972 
L 343.295998 307.166972 
z
" style="fill:#0000ff;"/>
   </g>
   <g id="patch_86">
    <path clip-path="url(#pfb02187f9d)" d="M 346.362193 307.584 
L 349.428369 307.584 
L 349.428369 307.004402 
L 346.362193 307.004402 
z
" style="fill:#0000ff;"/>
   </g>
   <g id="patch_87">
    <path clip-path="url(#pfb02187f9d)" d="M 349.42836 307.584 
L 352.494545 307.584 
L 352.494545 307.322474 
L 349.42836 307.322474 
z
" style="fill:#0000ff;"/>
   </g>
   <g id="patch_88">
    <path clip-path="url(#pfb02187f9d)" d="M 352.494545 307.584 
L 355.560731 307.584 
L 355.560731 307.329542 
L 352.494545 307.329542 
z
" style="fill:#0000ff;"/>
   </g>
   <g id="patch_89">
    <path clip-path="url(#pfb02187f9d)" d="M 355.560731 307.584 
L 358.626907 307.584 
L 358.626907 307.428498 
L 355.560731 307.428498 
z
" style="fill:#0000ff;"/>
   </g>
   <g id="patch_90">
    <path clip-path="url(#pfb02187f9d)" d="M 358.626907 307.584 
L 361.693093 307.584 
L 361.693093 307.456771 
L 358.626907 307.456771 
z
" style="fill:#0000ff;"/>
   </g>
   <g id="patch_91">
    <path clip-path="url(#pfb02187f9d)" d="M 361.693102 307.584 
L 364.759278 307.584 
L 364.759278 307.520386 
L 361.693102 307.520386 
z
" style="fill:#0000ff;"/>
   </g>
   <g id="patch_92">
    <path clip-path="url(#pfb02187f9d)" d="M 364.759269 307.584 
L 367.825455 307.584 
L 367.825455 307.485044 
L 364.759269 307.485044 
z
" style="fill:#0000ff;"/>
   </g>
   <g id="patch_93">
    <path clip-path="url(#pfb02187f9d)" d="M 367.825455 307.584 
L 370.89164 307.584 
L 370.89164 307.520386 
L 367.825455 307.520386 
z
" style="fill:#0000ff;"/>
   </g>
   <g id="patch_94">
    <path clip-path="url(#pfb02187f9d)" d="M 370.89164 307.584 
L 373.957816 307.584 
L 373.957816 307.520386 
L 370.89164 307.520386 
z
" style="fill:#0000ff;"/>
   </g>
   <g id="patch_95">
    <path clip-path="url(#pfb02187f9d)" d="M 373.957816 307.584 
L 377.024002 307.584 
L 377.024002 307.54159 
L 373.957816 307.54159 
z
" style="fill:#0000ff;"/>
   </g>
   <g id="patch_96">
    <path clip-path="url(#pfb02187f9d)" d="M 377.024011 307.584 
L 380.090187 307.584 
L 380.090187 307.569863 
L 377.024011 307.569863 
z
" style="fill:#0000ff;"/>
   </g>
   <g id="patch_97">
    <path clip-path="url(#pfb02187f9d)" d="M 380.090178 307.584 
L 383.156364 307.584 
L 383.156364 307.569863 
L 380.090178 307.569863 
z
" style="fill:#0000ff;"/>
   </g>
   <g id="patch_98">
    <path clip-path="url(#pfb02187f9d)" d="M 383.156364 307.584 
L 386.222549 307.584 
L 386.222549 307.576932 
L 383.156364 307.576932 
z
" style="fill:#0000ff;"/>
   </g>
   <g id="patch_99">
    <path clip-path="url(#pfb02187f9d)" d="M 386.222549 307.584 
L 389.288725 307.584 
L 389.288725 307.569863 
L 386.222549 307.569863 
z
" style="fill:#0000ff;"/>
   </g>
   <g id="patch_100">
    <path clip-path="url(#pfb02187f9d)" d="M 389.288725 307.584 
L 392.354911 307.584 
L 392.354911 307.584 
L 389.288725 307.584 
z
" style="fill:#0000ff;"/>
   </g>
   <g id="patch_101">
    <path clip-path="url(#pfb02187f9d)" d="M 392.35492 307.584 
L 395.421096 307.584 
L 395.421096 307.584 
L 392.35492 307.584 
z
" style="fill:#0000ff;"/>
   </g>
   <g id="patch_102">
    <path clip-path="url(#pfb02187f9d)" d="M 395.421087 307.584 
L 398.487273 307.584 
L 398.487273 307.576932 
L 395.421087 307.576932 
z
" style="fill:#0000ff;"/>
   </g>
   <g id="patch_103">
    <path clip-path="url(#pfb02187f9d)" d="M 73.832727 307.584 
L 76.574253 307.584 
L 76.574253 307.569863 
L 73.832727 307.569863 
z
" style="fill:#808080;"/>
   </g>
   <g id="patch_104">
    <path clip-path="url(#pfb02187f9d)" d="M 76.574253 307.584 
L 79.315779 307.584 
L 79.315779 307.562795 
L 76.574253 307.562795 
z
" style="fill:#808080;"/>
   </g>
   <g id="patch_105">
    <path clip-path="url(#pfb02187f9d)" d="M 79.315779 307.584 
L 82.057305 307.584 
L 82.057305 307.584 
L 79.315779 307.584 
z
" style="fill:#808080;"/>
   </g>
   <g id="patch_106">
    <path clip-path="url(#pfb02187f9d)" d="M 82.057305 307.584 
L 84.79883 307.584 
L 84.79883 307.584 
L 82.057305 307.584 
z
" style="fill:#808080;"/>
   </g>
   <g id="patch_107">
    <path clip-path="url(#pfb02187f9d)" d="M 84.79883 307.584 
L 87.540356 307.584 
L 87.540356 307.584 
L 84.79883 307.584 
z
" style="fill:#808080;"/>
   </g>
   <g id="patch_108">
    <path clip-path="url(#pfb02187f9d)" d="M 87.540356 307.584 
L 90.281882 307.584 
L 90.281882 307.584 
L 87.540356 307.584 
z
" style="fill:#808080;"/>
   </g>
   <g id="patch_109">
    <path clip-path="url(#pfb02187f9d)" d="M 90.281882 307.584 
L 93.023426 307.584 
L 93.023426 307.584 
L 90.281882 307.584 
z
" style="fill:#808080;"/>
   </g>
   <g id="patch_110">
    <path clip-path="url(#pfb02187f9d)" d="M 93.023417 307.584 
L 95.764943 307.584 
L 95.764943 307.584 
L 93.023417 307.584 
z
" style="fill:#808080;"/>
   </g>
   <g id="patch_111">
    <path clip-path="url(#pfb02187f9d)" d="M 95.764943 307.584 
L 98.506469 307.584 
L 98.506469 307.584 
L 95.764943 307.584 
z
" style="fill:#808080;"/>
   </g>
   <g id="patch_112">
    <path clip-path="url(#pfb02187f9d)" d="M 98.506469 307.584 
L 101.248013 307.584 
L 101.248013 307.584 
L 98.506469 307.584 
z
" style="fill:#808080;"/>
   </g>
   <g id="patch_113">
    <path clip-path="url(#pfb02187f9d)" d="M 101.248004 307.584 
L 103.989529 307.584 
L 103.989529 307.584 
L 101.248004 307.584 
z
" style="fill:#808080;"/>
   </g>
   <g id="patch_114">
    <path clip-path="url(#pfb02187f9d)" d="M 103.989529 307.584 
L 106.731055 307.584 
L 106.731055 307.584 
L 103.989529 307.584 
z
" style="fill:#808080;"/>
   </g>
   <g id="patch_115">
    <path clip-path="url(#pfb02187f9d)" d="M 106.731055 307.584 
L 109.472581 307.584 
L 109.472581 307.584 
L 106.731055 307.584 
z
" style="fill:#808080;"/>
   </g>
   <g id="patch_116">
    <path clip-path="url(#pfb02187f9d)" d="M 109.472581 307.584 
L 112.214107 307.584 
L 112.214107 307.584 
L 109.472581 307.584 
z
" style="fill:#808080;"/>
   </g>
   <g id="patch_117">
    <path clip-path="url(#pfb02187f9d)" d="M 112.214107 307.584 
L 114.955633 307.584 
L 114.955633 307.569863 
L 112.214107 307.569863 
z
" style="fill:#808080;"/>
   </g>
   <g id="patch_118">
    <path clip-path="url(#pfb02187f9d)" d="M 114.955624 307.584 
L 117.697168 307.584 
L 117.697168 307.329542 
L 114.955624 307.329542 
z
" style="fill:#808080;"/>
   </g>
   <g id="patch_119">
    <path clip-path="url(#pfb02187f9d)" d="M 117.697168 307.584 
L 120.438693 307.584 
L 120.438693 307.584 
L 117.697168 307.584 
z
" style="fill:#808080;"/>
   </g>
   <g id="patch_120">
    <path clip-path="url(#pfb02187f9d)" d="M 120.438693 307.584 
L 123.180219 307.584 
L 123.180219 307.584 
L 120.438693 307.584 
z
" style="fill:#808080;"/>
   </g>
   <g id="patch_121">
    <path clip-path="url(#pfb02187f9d)" d="M 123.180219 307.584 
L 125.921745 307.584 
L 125.921745 307.584 
L 123.180219 307.584 
z
" style="fill:#808080;"/>
   </g>
   <g id="patch_122">
    <path clip-path="url(#pfb02187f9d)" d="M 125.921745 307.584 
L 128.663271 307.584 
L 128.663271 307.584 
L 125.921745 307.584 
z
" style="fill:#808080;"/>
   </g>
   <g id="patch_123">
    <path clip-path="url(#pfb02187f9d)" d="M 128.663271 307.584 
L 131.404797 307.584 
L 131.404797 307.584 
L 128.663271 307.584 
z
" style="fill:#808080;"/>
   </g>
   <g id="patch_124">
    <path clip-path="url(#pfb02187f9d)" d="M 131.404797 307.584 
L 134.146341 307.584 
L 134.146341 307.584 
L 131.404797 307.584 
z
" style="fill:#808080;"/>
   </g>
   <g id="patch_125">
    <path clip-path="url(#pfb02187f9d)" d="M 134.146332 307.584 
L 136.887857 307.584 
L 136.887857 307.584 
L 134.146332 307.584 
z
" style="fill:#808080;"/>
   </g>
   <g id="patch_126">
    <path clip-path="url(#pfb02187f9d)" d="M 136.887857 307.584 
L 139.629383 307.584 
L 139.629383 307.584 
L 136.887857 307.584 
z
" style="fill:#808080;"/>
   </g>
   <g id="patch_127">
    <path clip-path="url(#pfb02187f9d)" d="M 139.629383 307.584 
L 142.370909 307.584 
L 142.370909 307.584 
L 139.629383 307.584 
z
" style="fill:#808080;"/>
   </g>
   <g id="patch_128">
    <path clip-path="url(#pfb02187f9d)" d="M 142.370909 307.584 
L 145.112435 307.584 
L 145.112435 307.584 
L 142.370909 307.584 
z
" style="fill:#808080;"/>
   </g>
   <g id="patch_129">
    <path clip-path="url(#pfb02187f9d)" d="M 145.112435 307.584 
L 147.853961 307.584 
L 147.853961 307.584 
L 145.112435 307.584 
z
" style="fill:#808080;"/>
   </g>
   <g id="patch_130">
    <path clip-path="url(#pfb02187f9d)" d="M 147.853961 307.584 
L 150.595487 307.584 
L 150.595487 307.584 
L 147.853961 307.584 
z
" style="fill:#808080;"/>
   </g>
   <g id="patch_131">
    <path clip-path="url(#pfb02187f9d)" d="M 150.595477 307.584 
L 153.337021 307.584 
L 153.337021 307.527454 
L 150.595477 307.527454 
z
" style="fill:#808080;"/>
   </g>
   <g id="patch_132">
    <path clip-path="url(#pfb02187f9d)" d="M 153.337021 307.584 
L 156.078547 307.584 
L 156.078547 304.233639 
L 153.337021 304.233639 
z
" style="fill:#808080;"/>
   </g>
   <g id="patch_133">
    <path clip-path="url(#pfb02187f9d)" d="M 156.078547 307.584 
L 158.820073 307.584 
L 158.820073 307.584 
L 156.078547 307.584 
z
" style="fill:#808080;"/>
   </g>
   <g id="patch_134">
    <path clip-path="url(#pfb02187f9d)" d="M 158.820073 307.584 
L 161.561599 307.584 
L 161.561599 307.584 
L 158.820073 307.584 
z
" style="fill:#808080;"/>
   </g>
   <g id="patch_135">
    <path clip-path="url(#pfb02187f9d)" d="M 161.561599 307.584 
L 164.303125 307.584 
L 164.303125 307.584 
L 161.561599 307.584 
z
" style="fill:#808080;"/>
   </g>
   <g id="patch_136">
    <path clip-path="url(#pfb02187f9d)" d="M 164.303125 307.584 
L 167.044651 307.584 
L 167.044651 307.584 
L 164.303125 307.584 
z
" style="fill:#808080;"/>
   </g>
   <g id="patch_137">
    <path clip-path="url(#pfb02187f9d)" d="M 167.044651 307.584 
L 169.786176 307.584 
L 169.786176 307.584 
L 167.044651 307.584 
z
" style="fill:#808080;"/>
   </g>
   <g id="patch_138">
    <path clip-path="url(#pfb02187f9d)" d="M 169.786185 307.584 
L 172.527711 307.584 
L 172.527711 307.584 
L 169.786185 307.584 
z
" style="fill:#808080;"/>
   </g>
   <g id="patch_139">
    <path clip-path="url(#pfb02187f9d)" d="M 172.527711 307.584 
L 175.269237 307.584 
L 175.269237 307.584 
L 172.527711 307.584 
z
" style="fill:#808080;"/>
   </g>
   <g id="patch_140">
    <path clip-path="url(#pfb02187f9d)" d="M 175.269237 307.584 
L 178.010763 307.584 
L 178.010763 307.584 
L 175.269237 307.584 
z
" style="fill:#808080;"/>
   </g>
   <g id="patch_141">
    <path clip-path="url(#pfb02187f9d)" d="M 178.010763 307.584 
L 180.752289 307.584 
L 180.752289 307.584 
L 178.010763 307.584 
z
" style="fill:#808080;"/>
   </g>
   <g id="patch_142">
    <path clip-path="url(#pfb02187f9d)" d="M 180.752289 307.584 
L 183.493815 307.584 
L 183.493815 307.584 
L 180.752289 307.584 
z
" style="fill:#808080;"/>
   </g>
   <g id="patch_143">
    <path clip-path="url(#pfb02187f9d)" d="M 183.493819 307.584 
L 186.235345 307.584 
L 186.235345 307.584 
L 183.493819 307.584 
z
" style="fill:#808080;"/>
   </g>
   <g id="patch_144">
    <path clip-path="url(#pfb02187f9d)" d="M 186.235345 307.584 
L 188.976871 307.584 
L 188.976871 307.584 
L 186.235345 307.584 
z
" style="fill:#808080;"/>
   </g>
   <g id="patch_145">
    <path clip-path="url(#pfb02187f9d)" d="M 188.976875 307.584 
L 191.718401 307.584 
L 191.718401 306.106731 
L 188.976875 306.106731 
z
" style="fill:#808080;"/>
   </g>
   <g id="patch_146">
    <path clip-path="url(#pfb02187f9d)" d="M 191.718401 307.584 
L 194.459927 307.584 
L 194.459927 272.723277 
L 191.718401 272.723277 
z
" style="fill:#808080;"/>
   </g>
   <g id="patch_147">
    <path clip-path="url(#pfb02187f9d)" d="M 194.459927 307.584 
L 197.201453 307.584 
L 197.201453 307.584 
L 194.459927 307.584 
z
" style="fill:#808080;"/>
   </g>
   <g id="patch_148">
    <path clip-path="url(#pfb02187f9d)" d="M 197.201453 307.584 
L 199.942979 307.584 
L 199.942979 307.584 
L 197.201453 307.584 
z
" style="fill:#808080;"/>
   </g>
   <g id="patch_149">
    <path clip-path="url(#pfb02187f9d)" d="M 199.942983 307.584 
L 202.684509 307.584 
L 202.684509 307.584 
L 199.942983 307.584 
z
" style="fill:#808080;"/>
   </g>
   <g id="patch_150">
    <path clip-path="url(#pfb02187f9d)" d="M 202.684509 307.584 
L 205.426035 307.584 
L 205.426035 307.584 
L 202.684509 307.584 
z
" style="fill:#808080;"/>
   </g>
   <g id="patch_151">
    <path clip-path="url(#pfb02187f9d)" d="M 205.426035 307.584 
L 208.167561 307.584 
L 208.167561 307.584 
L 205.426035 307.584 
z
" style="fill:#808080;"/>
   </g>
   <g id="patch_152">
    <path clip-path="url(#pfb02187f9d)" d="M 208.167565 307.584 
L 210.909091 307.584 
L 210.909091 307.584 
L 208.167565 307.584 
z
" style="fill:#808080;"/>
   </g>
   <g id="patch_153">
    <path clip-path="url(#pfb02187f9d)" d="M 210.909091 307.584 
L 213.650617 307.584 
L 213.650617 307.584 
L 210.909091 307.584 
z
" style="fill:#808080;"/>
   </g>
   <g id="patch_154">
    <path clip-path="url(#pfb02187f9d)" d="M 213.650619 307.584 
L 216.392145 307.584 
L 216.392145 307.584 
L 213.650619 307.584 
z
" style="fill:#808080;"/>
   </g>
   <g id="patch_155">
    <path clip-path="url(#pfb02187f9d)" d="M 216.392147 307.584 
L 219.133673 307.584 
L 219.133673 307.584 
L 216.392147 307.584 
z
" style="fill:#808080;"/>
   </g>
   <g id="patch_156">
    <path clip-path="url(#pfb02187f9d)" d="M 219.133673 307.584 
L 221.875199 307.584 
L 221.875199 307.584 
L 219.133673 307.584 
z
" style="fill:#808080;"/>
   </g>
   <g id="patch_157">
    <path clip-path="url(#pfb02187f9d)" d="M 221.875201 307.584 
L 224.616727 307.584 
L 224.616727 307.584 
L 221.875201 307.584 
z
" style="fill:#808080;"/>
   </g>
   <g id="patch_158">
    <path clip-path="url(#pfb02187f9d)" d="M 224.616729 307.584 
L 227.358255 307.584 
L 227.358255 307.584 
L 224.616729 307.584 
z
" style="fill:#808080;"/>
   </g>
   <g id="patch_159">
    <path clip-path="url(#pfb02187f9d)" d="M 227.358255 307.584 
L 230.099781 307.584 
L 230.099781 296.748337 
L 227.358255 296.748337 
z
" style="fill:#808080;"/>
   </g>
   <g id="patch_160">
    <path clip-path="url(#pfb02187f9d)" d="M 230.099783 307.584 
L 232.841309 307.584 
L 232.841309 54.144 
L 230.099783 54.144 
z
" style="fill:#808080;"/>
   </g>
   <g id="patch_161">
    <path clip-path="url(#pfb02187f9d)" d="M 232.84131 307.584 
L 235.582836 307.584 
L 235.582836 307.584 
L 232.84131 307.584 
z
" style="fill:#808080;"/>
   </g>
   <g id="patch_162">
    <path clip-path="url(#pfb02187f9d)" d="M 235.582837 307.584 
L 238.324363 307.584 
L 238.324363 307.584 
L 235.582837 307.584 
z
" style="fill:#808080;"/>
   </g>
   <g id="patch_163">
    <path clip-path="url(#pfb02187f9d)" d="M 238.324364 307.584 
L 241.06589 307.584 
L 241.06589 307.584 
L 238.324364 307.584 
z
" style="fill:#808080;"/>
   </g>
   <g id="patch_164">
    <path clip-path="url(#pfb02187f9d)" d="M 241.065892 307.584 
L 243.807417 307.584 
L 243.807417 307.584 
L 241.065892 307.584 
z
" style="fill:#808080;"/>
   </g>
   <g id="patch_165">
    <path clip-path="url(#pfb02187f9d)" d="M 243.807419 307.584 
L 246.548945 307.584 
L 246.548945 307.584 
L 243.807419 307.584 
z
" style="fill:#808080;"/>
   </g>
   <g id="patch_166">
    <path clip-path="url(#pfb02187f9d)" d="M 246.548946 307.584 
L 249.290472 307.584 
L 249.290472 307.584 
L 246.548946 307.584 
z
" style="fill:#808080;"/>
   </g>
   <g id="patch_167">
    <path clip-path="url(#pfb02187f9d)" d="M 249.290473 307.584 
L 252.031999 307.584 
L 252.031999 307.584 
L 249.290473 307.584 
z
" style="fill:#808080;"/>
   </g>
   <g id="patch_168">
    <path clip-path="url(#pfb02187f9d)" d="M 252.032001 307.584 
L 254.773527 307.584 
L 254.773527 307.584 
L 252.032001 307.584 
z
" style="fill:#808080;"/>
   </g>
   <g id="patch_169">
    <path clip-path="url(#pfb02187f9d)" d="M 254.773528 307.584 
L 257.515054 307.584 
L 257.515054 307.584 
L 254.773528 307.584 
z
" style="fill:#808080;"/>
   </g>
   <g id="patch_170">
    <path clip-path="url(#pfb02187f9d)" d="M 257.515055 307.584 
L 260.256581 307.584 
L 260.256581 307.584 
L 257.515055 307.584 
z
" style="fill:#808080;"/>
   </g>
   <g id="patch_171">
    <path clip-path="url(#pfb02187f9d)" d="M 260.256583 307.584 
L 262.998109 307.584 
L 262.998109 307.584 
L 260.256583 307.584 
z
" style="fill:#808080;"/>
   </g>
   <g id="patch_172">
    <path clip-path="url(#pfb02187f9d)" d="M 262.99811 307.584 
L 265.739635 307.584 
L 265.739635 307.584 
L 262.99811 307.584 
z
" style="fill:#808080;"/>
   </g>
   <g id="patch_173">
    <path clip-path="url(#pfb02187f9d)" d="M 265.739637 307.584 
L 268.481163 307.584 
L 268.481163 298.74159 
L 265.739637 298.74159 
z
" style="fill:#808080;"/>
   </g>
   <g id="patch_174">
    <path clip-path="url(#pfb02187f9d)" d="M 268.481165 307.584 
L 271.222691 307.584 
L 271.222691 282.689542 
L 268.481165 282.689542 
z
" style="fill:#808080;"/>
   </g>
   <g id="patch_175">
    <path clip-path="url(#pfb02187f9d)" d="M 271.222691 307.584 
L 273.964217 307.584 
L 273.964217 307.584 
L 271.222691 307.584 
z
" style="fill:#808080;"/>
   </g>
   <g id="patch_176">
    <path clip-path="url(#pfb02187f9d)" d="M 273.964219 307.584 
L 276.705745 307.584 
L 276.705745 307.584 
L 273.964219 307.584 
z
" style="fill:#808080;"/>
   </g>
   <g id="patch_177">
    <path clip-path="url(#pfb02187f9d)" d="M 276.705747 307.584 
L 279.447273 307.584 
L 279.447273 307.584 
L 276.705747 307.584 
z
" style="fill:#808080;"/>
   </g>
   <g id="patch_178">
    <path clip-path="url(#pfb02187f9d)" d="M 279.447273 307.584 
L 282.188799 307.584 
L 282.188799 307.584 
L 279.447273 307.584 
z
" style="fill:#808080;"/>
   </g>
   <g id="patch_179">
    <path clip-path="url(#pfb02187f9d)" d="M 282.188803 307.584 
L 284.930329 307.584 
L 284.930329 307.584 
L 282.188803 307.584 
z
" style="fill:#808080;"/>
   </g>
   <g id="patch_180">
    <path clip-path="url(#pfb02187f9d)" d="M 284.930329 307.584 
L 287.671855 307.584 
L 287.671855 307.584 
L 284.930329 307.584 
z
" style="fill:#808080;"/>
   </g>
   <g id="patch_181">
    <path clip-path="url(#pfb02187f9d)" d="M 287.671855 307.584 
L 290.413381 307.584 
L 290.413381 307.584 
L 287.671855 307.584 
z
" style="fill:#808080;"/>
   </g>
   <g id="patch_182">
    <path clip-path="url(#pfb02187f9d)" d="M 290.413385 307.584 
L 293.154911 307.584 
L 293.154911 307.584 
L 290.413385 307.584 
z
" style="fill:#808080;"/>
   </g>
   <g id="patch_183">
    <path clip-path="url(#pfb02187f9d)" d="M 293.154911 307.584 
L 295.896437 307.584 
L 295.896437 307.584 
L 293.154911 307.584 
z
" style="fill:#808080;"/>
   </g>
   <g id="patch_184">
    <path clip-path="url(#pfb02187f9d)" d="M 295.896437 307.584 
L 298.637963 307.584 
L 298.637963 307.584 
L 295.896437 307.584 
z
" style="fill:#808080;"/>
   </g>
   <g id="patch_185">
    <path clip-path="url(#pfb02187f9d)" d="M 298.637963 307.584 
L 301.379488 307.584 
L 301.379488 307.584 
L 298.637963 307.584 
z
" style="fill:#808080;"/>
   </g>
   <g id="patch_186">
    <path clip-path="url(#pfb02187f9d)" d="M 301.379493 307.584 
L 304.121019 307.584 
L 304.121019 307.584 
L 301.379493 307.584 
z
" style="fill:#808080;"/>
   </g>
   <g id="patch_187">
    <path clip-path="url(#pfb02187f9d)" d="M 304.121019 307.584 
L 306.862545 307.584 
L 306.862545 307.110426 
L 304.121019 307.110426 
z
" style="fill:#808080;"/>
   </g>
   <g id="patch_188">
    <path clip-path="url(#pfb02187f9d)" d="M 306.862549 307.584 
L 309.604075 307.584 
L 309.604075 306.8489 
L 306.862549 306.8489 
z
" style="fill:#808080;"/>
   </g>
   <g id="patch_189">
    <path clip-path="url(#pfb02187f9d)" d="M 309.604075 307.584 
L 312.345601 307.584 
L 312.345601 307.584 
L 309.604075 307.584 
z
" style="fill:#808080;"/>
   </g>
   <g id="patch_190">
    <path clip-path="url(#pfb02187f9d)" d="M 312.345601 307.584 
L 315.087127 307.584 
L 315.087127 307.584 
L 312.345601 307.584 
z
" style="fill:#808080;"/>
   </g>
   <g id="patch_191">
    <path clip-path="url(#pfb02187f9d)" d="M 315.087127 307.584 
L 317.828652 307.584 
L 317.828652 307.584 
L 315.087127 307.584 
z
" style="fill:#808080;"/>
   </g>
   <g id="patch_192">
    <path clip-path="url(#pfb02187f9d)" d="M 317.828652 307.584 
L 320.570178 307.584 
L 320.570178 307.584 
L 317.828652 307.584 
z
" style="fill:#808080;"/>
   </g>
   <g id="patch_193">
    <path clip-path="url(#pfb02187f9d)" d="M 320.570187 307.584 
L 323.311713 307.584 
L 323.311713 307.584 
L 320.570187 307.584 
z
" style="fill:#808080;"/>
   </g>
   <g id="patch_194">
    <path clip-path="url(#pfb02187f9d)" d="M 323.311713 307.584 
L 326.053239 307.584 
L 326.053239 307.584 
L 323.311713 307.584 
z
" style="fill:#808080;"/>
   </g>
   <g id="patch_195">
    <path clip-path="url(#pfb02187f9d)" d="M 326.053239 307.584 
L 328.794765 307.584 
L 328.794765 307.584 
L 326.053239 307.584 
z
" style="fill:#808080;"/>
   </g>
   <g id="patch_196">
    <path clip-path="url(#pfb02187f9d)" d="M 328.794765 307.584 
L 331.536291 307.584 
L 331.536291 307.584 
L 328.794765 307.584 
z
" style="fill:#808080;"/>
   </g>
   <g id="patch_197">
    <path clip-path="url(#pfb02187f9d)" d="M 331.536291 307.584 
L 334.277816 307.584 
L 334.277816 307.584 
L 331.536291 307.584 
z
" style="fill:#808080;"/>
   </g>
   <g id="patch_198">
    <path clip-path="url(#pfb02187f9d)" d="M 334.277816 307.584 
L 337.019342 307.584 
L 337.019342 307.584 
L 334.277816 307.584 
z
" style="fill:#808080;"/>
   </g>
   <g id="patch_199">
    <path clip-path="url(#pfb02187f9d)" d="M 337.019342 307.584 
L 339.760886 307.584 
L 339.760886 307.584 
L 337.019342 307.584 
z
" style="fill:#808080;"/>
   </g>
   <g id="patch_200">
    <path clip-path="url(#pfb02187f9d)" d="M 339.760877 307.584 
L 342.502403 307.584 
L 342.502403 307.584 
L 339.760877 307.584 
z
" style="fill:#808080;"/>
   </g>
   <g id="patch_201">
    <path clip-path="url(#pfb02187f9d)" d="M 342.502403 307.584 
L 345.243929 307.584 
L 345.243929 307.584 
L 342.502403 307.584 
z
" style="fill:#808080;"/>
   </g>
   <g id="patch_202">
    <path clip-path="url(#pfb02187f9d)" d="M 345.243929 307.584 
L 347.985455 307.584 
L 347.985455 307.576932 
L 345.243929 307.576932 
z
" style="fill:#808080;"/>
   </g>
   <g id="matplotlib.axis_1">
    <g id="xtick_1">
     <g id="line2d_1">
      <defs>
       <path d="M 0 0 
L 0 3.5 
" id="m8174f1dfa8" style="stroke:#000000;stroke-width:0.8;"/>
      </defs>
      <g>
       <use style="stroke:#000000;stroke-width:0.8;" x="65.415758" xlink:href="#m8174f1dfa8" y="307.584"/>
      </g>
     </g>
     <g id="text_1">
      <!-- −150 -->
      <defs>
       <path d="M 10.59375 35.5 
L 73.1875 35.5 
L 73.1875 27.203125 
L 10.59375 27.203125 
z
" id="DejaVuSans-8722"/>
       <path d="M 12.40625 8.296875 
L 28.515625 8.296875 
L 28.515625 63.921875 
L 10.984375 60.40625 
L 10.984375 69.390625 
L 28.421875 72.90625 
L 38.28125 72.90625 
L 38.28125 8.296875 
L 54.390625 8.296875 
L 54.390625 0 
L 12.40625 0 
z
" id="DejaVuSans-49"/>
       <path d="M 10.796875 72.90625 
L 49.515625 72.90625 
L 49.515625 64.59375 
L 19.828125 64.59375 
L 19.828125 46.734375 
Q 21.96875 47.46875 24.109375 47.828125 
Q 26.265625 48.1875 28.421875 48.1875 
Q 40.625 48.1875 47.75 41.5 
Q 54.890625 34.8125 54.890625 23.390625 
Q 54.890625 11.625 47.5625 5.09375 
Q 40.234375 -1.421875 26.90625 -1.421875 
Q 22.3125 -1.421875 17.546875 -0.640625 
Q 12.796875 0.140625 7.71875 1.703125 
L 7.71875 11.625 
Q 12.109375 9.234375 16.796875 8.0625 
Q 21.484375 6.890625 26.703125 6.890625 
Q 35.15625 6.890625 40.078125 11.328125 
Q 45.015625 15.765625 45.015625 23.390625 
Q 45.015625 31 40.078125 35.4375 
Q 35.15625 39.890625 26.703125 39.890625 
Q 22.75 39.890625 18.8125 39.015625 
Q 14.890625 38.140625 10.796875 36.28125 
z
" id="DejaVuSans-53"/>
       <path d="M 31.78125 66.40625 
Q 24.171875 66.40625 20.328125 58.90625 
Q 16.5 51.421875 16.5 36.375 
Q 16.5 21.390625 20.328125 13.890625 
Q 24.171875 6.390625 31.78125 6.390625 
Q 39.453125 6.390625 43.28125 13.890625 
Q 47.125 21.390625 47.125 36.375 
Q 47.125 51.421875 43.28125 58.90625 
Q 39.453125 66.40625 31.78125 66.40625 
z
M 31.78125 74.21875 
Q 44.046875 74.21875 50.515625 64.515625 
Q 56.984375 54.828125 56.984375 36.375 
Q 56.984375 17.96875 50.515625 8.265625 
Q 44.046875 -1.421875 31.78125 -1.421875 
Q 19.53125 -1.421875 13.0625 8.265625 
Q 6.59375 17.96875 6.59375 36.375 
Q 6.59375 54.828125 13.0625 64.515625 
Q 19.53125 74.21875 31.78125 74.21875 
z
" id="DejaVuSans-48"/>
      </defs>
      <g transform="translate(51.682164 322.182437)scale(0.1 -0.1)">
       <use xlink:href="#DejaVuSans-8722"/>
       <use x="83.789062" xlink:href="#DejaVuSans-49"/>
       <use x="147.412109" xlink:href="#DejaVuSans-53"/>
       <use x="211.035156" xlink:href="#DejaVuSans-48"/>
      </g>
     </g>
    </g>
    <g id="xtick_2">
     <g id="line2d_2">
      <g>
       <use style="stroke:#000000;stroke-width:0.8;" x="125.53697" xlink:href="#m8174f1dfa8" y="307.584"/>
      </g>
     </g>
     <g id="text_2">
      <!-- −100 -->
      <g transform="translate(111.803376 322.182437)scale(0.1 -0.1)">
       <use xlink:href="#DejaVuSans-8722"/>
       <use x="83.789062" xlink:href="#DejaVuSans-49"/>
       <use x="147.412109" xlink:href="#DejaVuSans-48"/>
       <use x="211.035156" xlink:href="#DejaVuSans-48"/>
      </g>
     </g>
    </g>
    <g id="xtick_3">
     <g id="line2d_3">
      <g>
       <use style="stroke:#000000;stroke-width:0.8;" x="185.658182" xlink:href="#m8174f1dfa8" y="307.584"/>
      </g>
     </g>
     <g id="text_3">
      <!-- −50 -->
      <g transform="translate(175.105838 322.182437)scale(0.1 -0.1)">
       <use xlink:href="#DejaVuSans-8722"/>
       <use x="83.789062" xlink:href="#DejaVuSans-53"/>
       <use x="147.412109" xlink:href="#DejaVuSans-48"/>
      </g>
     </g>
    </g>
    <g id="xtick_4">
     <g id="line2d_4">
      <g>
       <use style="stroke:#000000;stroke-width:0.8;" x="245.779394" xlink:href="#m8174f1dfa8" y="307.584"/>
      </g>
     </g>
     <g id="text_4">
      <!-- 0 -->
      <g transform="translate(242.598144 322.182437)scale(0.1 -0.1)">
       <use xlink:href="#DejaVuSans-48"/>
      </g>
     </g>
    </g>
    <g id="xtick_5">
     <g id="line2d_5">
      <g>
       <use style="stroke:#000000;stroke-width:0.8;" x="305.900606" xlink:href="#m8174f1dfa8" y="307.584"/>
      </g>
     </g>
     <g id="text_5">
      <!-- 50 -->
      <g transform="translate(299.538106 322.182437)scale(0.1 -0.1)">
       <use xlink:href="#DejaVuSans-53"/>
       <use x="63.623047" xlink:href="#DejaVuSans-48"/>
      </g>
     </g>
    </g>
    <g id="xtick_6">
     <g id="line2d_6">
      <g>
       <use style="stroke:#000000;stroke-width:0.8;" x="366.021818" xlink:href="#m8174f1dfa8" y="307.584"/>
      </g>
     </g>
     <g id="text_6">
      <!-- 100 -->
      <g transform="translate(356.478068 322.182437)scale(0.1 -0.1)">
       <use xlink:href="#DejaVuSans-49"/>
       <use x="63.623047" xlink:href="#DejaVuSans-48"/>
       <use x="127.246094" xlink:href="#DejaVuSans-48"/>
      </g>
     </g>
    </g>
    <g id="text_7">
     <!-- Weight -->
     <defs>
      <path d="M 3.328125 72.90625 
L 13.28125 72.90625 
L 28.609375 11.28125 
L 43.890625 72.90625 
L 54.984375 72.90625 
L 70.3125 11.28125 
L 85.59375 72.90625 
L 95.609375 72.90625 
L 77.296875 0 
L 64.890625 0 
L 49.515625 63.28125 
L 33.984375 0 
L 21.578125 0 
z
" id="DejaVuSans-87"/>
      <path d="M 56.203125 29.59375 
L 56.203125 25.203125 
L 14.890625 25.203125 
Q 15.484375 15.921875 20.484375 11.0625 
Q 25.484375 6.203125 34.421875 6.203125 
Q 39.59375 6.203125 44.453125 7.46875 
Q 49.3125 8.734375 54.109375 11.28125 
L 54.109375 2.78125 
Q 49.265625 0.734375 44.1875 -0.34375 
Q 39.109375 -1.421875 33.890625 -1.421875 
Q 20.796875 -1.421875 13.15625 6.1875 
Q 5.515625 13.8125 5.515625 26.8125 
Q 5.515625 40.234375 12.765625 48.109375 
Q 20.015625 56 32.328125 56 
Q 43.359375 56 49.78125 48.890625 
Q 56.203125 41.796875 56.203125 29.59375 
z
M 47.21875 32.234375 
Q 47.125 39.59375 43.09375 43.984375 
Q 39.0625 48.390625 32.421875 48.390625 
Q 24.90625 48.390625 20.390625 44.140625 
Q 15.875 39.890625 15.1875 32.171875 
z
" id="DejaVuSans-101"/>
      <path d="M 9.421875 54.6875 
L 18.40625 54.6875 
L 18.40625 0 
L 9.421875 0 
z
M 9.421875 75.984375 
L 18.40625 75.984375 
L 18.40625 64.59375 
L 9.421875 64.59375 
z
" id="DejaVuSans-105"/>
      <path d="M 45.40625 27.984375 
Q 45.40625 37.75 41.375 43.109375 
Q 37.359375 48.484375 30.078125 48.484375 
Q 22.859375 48.484375 18.828125 43.109375 
Q 14.796875 37.75 14.796875 27.984375 
Q 14.796875 18.265625 18.828125 12.890625 
Q 22.859375 7.515625 30.078125 7.515625 
Q 37.359375 7.515625 41.375 12.890625 
Q 45.40625 18.265625 45.40625 27.984375 
z
M 54.390625 6.78125 
Q 54.390625 -7.171875 48.1875 -13.984375 
Q 42 -20.796875 29.203125 -20.796875 
Q 24.46875 -20.796875 20.265625 -20.09375 
Q 16.0625 -19.390625 12.109375 -17.921875 
L 12.109375 -9.1875 
Q 16.0625 -11.328125 19.921875 -12.34375 
Q 23.78125 -13.375 27.78125 -13.375 
Q 36.625 -13.375 41.015625 -8.765625 
Q 45.40625 -4.15625 45.40625 5.171875 
L 45.40625 9.625 
Q 42.625 4.78125 38.28125 2.390625 
Q 33.9375 0 27.875 0 
Q 17.828125 0 11.671875 7.65625 
Q 5.515625 15.328125 5.515625 27.984375 
Q 5.515625 40.671875 11.671875 48.328125 
Q 17.828125 56 27.875 56 
Q 33.9375 56 38.28125 53.609375 
Q 42.625 51.21875 45.40625 46.390625 
L 45.40625 54.6875 
L 54.390625 54.6875 
z
" id="DejaVuSans-103"/>
      <path d="M 54.890625 33.015625 
L 54.890625 0 
L 45.90625 0 
L 45.90625 32.71875 
Q 45.90625 40.484375 42.875 44.328125 
Q 39.84375 48.1875 33.796875 48.1875 
Q 26.515625 48.1875 22.3125 43.546875 
Q 18.109375 38.921875 18.109375 30.90625 
L 18.109375 0 
L 9.078125 0 
L 9.078125 75.984375 
L 18.109375 75.984375 
L 18.109375 46.1875 
Q 21.34375 51.125 25.703125 53.5625 
Q 30.078125 56 35.796875 56 
Q 45.21875 56 50.046875 50.171875 
Q 54.890625 44.34375 54.890625 33.015625 
z
" id="DejaVuSans-104"/>
      <path d="M 18.3125 70.21875 
L 18.3125 54.6875 
L 36.8125 54.6875 
L 36.8125 47.703125 
L 18.3125 47.703125 
L 18.3125 18.015625 
Q 18.3125 11.328125 20.140625 9.421875 
Q 21.96875 7.515625 27.59375 7.515625 
L 36.8125 7.515625 
L 36.8125 0 
L 27.59375 0 
Q 17.1875 0 13.234375 3.875 
Q 9.28125 7.765625 9.28125 18.015625 
L 9.28125 47.703125 
L 2.6875 47.703125 
L 2.6875 54.6875 
L 9.28125 54.6875 
L 9.28125 70.21875 
z
" id="DejaVuSans-116"/>
     </defs>
     <g transform="translate(218.451406 335.860562)scale(0.1 -0.1)">
      <use xlink:href="#DejaVuSans-87"/>
      <use x="98.798828" xlink:href="#DejaVuSans-101"/>
      <use x="160.322266" xlink:href="#DejaVuSans-105"/>
      <use x="188.105469" xlink:href="#DejaVuSans-103"/>
      <use x="251.582031" xlink:href="#DejaVuSans-104"/>
      <use x="314.960938" xlink:href="#DejaVuSans-116"/>
     </g>
    </g>
   </g>
   <g id="matplotlib.axis_2">
    <g id="ytick_1">
     <g id="line2d_7">
      <defs>
       <path d="M 0 0 
L -3.5 0 
" id="m6eae65c0b7" style="stroke:#000000;stroke-width:0.8;"/>
      </defs>
      <g>
       <use style="stroke:#000000;stroke-width:0.8;" x="57.6" xlink:href="#m6eae65c0b7" y="307.584"/>
      </g>
     </g>
     <g id="text_8">
      <!-- 0 -->
      <g transform="translate(44.2375 311.383219)scale(0.1 -0.1)">
       <use xlink:href="#DejaVuSans-48"/>
      </g>
     </g>
    </g>
    <g id="ytick_2">
     <g id="line2d_8">
      <g>
       <use style="stroke:#000000;stroke-width:0.8;" x="57.6" xlink:href="#m6eae65c0b7" y="272.242635"/>
      </g>
     </g>
     <g id="text_9">
      <!-- 5000 -->
      <g transform="translate(25.15 276.041853)scale(0.1 -0.1)">
       <use xlink:href="#DejaVuSans-53"/>
       <use x="63.623047" xlink:href="#DejaVuSans-48"/>
       <use x="127.246094" xlink:href="#DejaVuSans-48"/>
       <use x="190.869141" xlink:href="#DejaVuSans-48"/>
      </g>
     </g>
    </g>
    <g id="ytick_3">
     <g id="line2d_9">
      <g>
       <use style="stroke:#000000;stroke-width:0.8;" x="57.6" xlink:href="#m6eae65c0b7" y="236.901269"/>
      </g>
     </g>
     <g id="text_10">
      <!-- 10000 -->
      <g transform="translate(18.7875 240.700488)scale(0.1 -0.1)">
       <use xlink:href="#DejaVuSans-49"/>
       <use x="63.623047" xlink:href="#DejaVuSans-48"/>
       <use x="127.246094" xlink:href="#DejaVuSans-48"/>
       <use x="190.869141" xlink:href="#DejaVuSans-48"/>
       <use x="254.492188" xlink:href="#DejaVuSans-48"/>
      </g>
     </g>
    </g>
    <g id="ytick_4">
     <g id="line2d_10">
      <g>
       <use style="stroke:#000000;stroke-width:0.8;" x="57.6" xlink:href="#m6eae65c0b7" y="201.559904"/>
      </g>
     </g>
     <g id="text_11">
      <!-- 15000 -->
      <g transform="translate(18.7875 205.359122)scale(0.1 -0.1)">
       <use xlink:href="#DejaVuSans-49"/>
       <use x="63.623047" xlink:href="#DejaVuSans-53"/>
       <use x="127.246094" xlink:href="#DejaVuSans-48"/>
       <use x="190.869141" xlink:href="#DejaVuSans-48"/>
       <use x="254.492188" xlink:href="#DejaVuSans-48"/>
      </g>
     </g>
    </g>
    <g id="ytick_5">
     <g id="line2d_11">
      <g>
       <use style="stroke:#000000;stroke-width:0.8;" x="57.6" xlink:href="#m6eae65c0b7" y="166.218538"/>
      </g>
     </g>
     <g id="text_12">
      <!-- 20000 -->
      <defs>
       <path d="M 19.1875 8.296875 
L 53.609375 8.296875 
L 53.609375 0 
L 7.328125 0 
L 7.328125 8.296875 
Q 12.9375 14.109375 22.625 23.890625 
Q 32.328125 33.6875 34.8125 36.53125 
Q 39.546875 41.84375 41.421875 45.53125 
Q 43.3125 49.21875 43.3125 52.78125 
Q 43.3125 58.59375 39.234375 62.25 
Q 35.15625 65.921875 28.609375 65.921875 
Q 23.96875 65.921875 18.8125 64.3125 
Q 13.671875 62.703125 7.8125 59.421875 
L 7.8125 69.390625 
Q 13.765625 71.78125 18.9375 73 
Q 24.125 74.21875 28.421875 74.21875 
Q 39.75 74.21875 46.484375 68.546875 
Q 53.21875 62.890625 53.21875 53.421875 
Q 53.21875 48.921875 51.53125 44.890625 
Q 49.859375 40.875 45.40625 35.40625 
Q 44.1875 33.984375 37.640625 27.21875 
Q 31.109375 20.453125 19.1875 8.296875 
z
" id="DejaVuSans-50"/>
      </defs>
      <g transform="translate(18.7875 170.017757)scale(0.1 -0.1)">
       <use xlink:href="#DejaVuSans-50"/>
       <use x="63.623047" xlink:href="#DejaVuSans-48"/>
       <use x="127.246094" xlink:href="#DejaVuSans-48"/>
       <use x="190.869141" xlink:href="#DejaVuSans-48"/>
       <use x="254.492188" xlink:href="#DejaVuSans-48"/>
      </g>
     </g>
    </g>
    <g id="ytick_6">
     <g id="line2d_12">
      <g>
       <use style="stroke:#000000;stroke-width:0.8;" x="57.6" xlink:href="#m6eae65c0b7" y="130.877173"/>
      </g>
     </g>
     <g id="text_13">
      <!-- 25000 -->
      <g transform="translate(18.7875 134.676391)scale(0.1 -0.1)">
       <use xlink:href="#DejaVuSans-50"/>
       <use x="63.623047" xlink:href="#DejaVuSans-53"/>
       <use x="127.246094" xlink:href="#DejaVuSans-48"/>
       <use x="190.869141" xlink:href="#DejaVuSans-48"/>
       <use x="254.492188" xlink:href="#DejaVuSans-48"/>
      </g>
     </g>
    </g>
    <g id="ytick_7">
     <g id="line2d_13">
      <g>
       <use style="stroke:#000000;stroke-width:0.8;" x="57.6" xlink:href="#m6eae65c0b7" y="95.535807"/>
      </g>
     </g>
     <g id="text_14">
      <!-- 30000 -->
      <defs>
       <path d="M 40.578125 39.3125 
Q 47.65625 37.796875 51.625 33 
Q 55.609375 28.21875 55.609375 21.1875 
Q 55.609375 10.40625 48.1875 4.484375 
Q 40.765625 -1.421875 27.09375 -1.421875 
Q 22.515625 -1.421875 17.65625 -0.515625 
Q 12.796875 0.390625 7.625 2.203125 
L 7.625 11.71875 
Q 11.71875 9.328125 16.59375 8.109375 
Q 21.484375 6.890625 26.8125 6.890625 
Q 36.078125 6.890625 40.9375 10.546875 
Q 45.796875 14.203125 45.796875 21.1875 
Q 45.796875 27.640625 41.28125 31.265625 
Q 36.765625 34.90625 28.71875 34.90625 
L 20.21875 34.90625 
L 20.21875 43.015625 
L 29.109375 43.015625 
Q 36.375 43.015625 40.234375 45.921875 
Q 44.09375 48.828125 44.09375 54.296875 
Q 44.09375 59.90625 40.109375 62.90625 
Q 36.140625 65.921875 28.71875 65.921875 
Q 24.65625 65.921875 20.015625 65.03125 
Q 15.375 64.15625 9.8125 62.3125 
L 9.8125 71.09375 
Q 15.4375 72.65625 20.34375 73.4375 
Q 25.25 74.21875 29.59375 74.21875 
Q 40.828125 74.21875 47.359375 69.109375 
Q 53.90625 64.015625 53.90625 55.328125 
Q 53.90625 49.265625 50.4375 45.09375 
Q 46.96875 40.921875 40.578125 39.3125 
z
" id="DejaVuSans-51"/>
      </defs>
      <g transform="translate(18.7875 99.335026)scale(0.1 -0.1)">
       <use xlink:href="#DejaVuSans-51"/>
       <use x="63.623047" xlink:href="#DejaVuSans-48"/>
       <use x="127.246094" xlink:href="#DejaVuSans-48"/>
       <use x="190.869141" xlink:href="#DejaVuSans-48"/>
       <use x="254.492188" xlink:href="#DejaVuSans-48"/>
      </g>
     </g>
    </g>
    <g id="ytick_8">
     <g id="line2d_14">
      <g>
       <use style="stroke:#000000;stroke-width:0.8;" x="57.6" xlink:href="#m6eae65c0b7" y="60.194442"/>
      </g>
     </g>
     <g id="text_15">
      <!-- 35000 -->
      <g transform="translate(18.7875 63.993661)scale(0.1 -0.1)">
       <use xlink:href="#DejaVuSans-51"/>
       <use x="63.623047" xlink:href="#DejaVuSans-53"/>
       <use x="127.246094" xlink:href="#DejaVuSans-48"/>
       <use x="190.869141" xlink:href="#DejaVuSans-48"/>
       <use x="254.492188" xlink:href="#DejaVuSans-48"/>
      </g>
     </g>
    </g>
    <g id="text_16">
     <!-- Occurrencies -->
     <defs>
      <path d="M 39.40625 66.21875 
Q 28.65625 66.21875 22.328125 58.203125 
Q 16.015625 50.203125 16.015625 36.375 
Q 16.015625 22.609375 22.328125 14.59375 
Q 28.65625 6.59375 39.40625 6.59375 
Q 50.140625 6.59375 56.421875 14.59375 
Q 62.703125 22.609375 62.703125 36.375 
Q 62.703125 50.203125 56.421875 58.203125 
Q 50.140625 66.21875 39.40625 66.21875 
z
M 39.40625 74.21875 
Q 54.734375 74.21875 63.90625 63.9375 
Q 73.09375 53.65625 73.09375 36.375 
Q 73.09375 19.140625 63.90625 8.859375 
Q 54.734375 -1.421875 39.40625 -1.421875 
Q 24.03125 -1.421875 14.8125 8.828125 
Q 5.609375 19.09375 5.609375 36.375 
Q 5.609375 53.65625 14.8125 63.9375 
Q 24.03125 74.21875 39.40625 74.21875 
z
" id="DejaVuSans-79"/>
      <path d="M 48.78125 52.59375 
L 48.78125 44.1875 
Q 44.96875 46.296875 41.140625 47.34375 
Q 37.3125 48.390625 33.40625 48.390625 
Q 24.65625 48.390625 19.8125 42.84375 
Q 14.984375 37.3125 14.984375 27.296875 
Q 14.984375 17.28125 19.8125 11.734375 
Q 24.65625 6.203125 33.40625 6.203125 
Q 37.3125 6.203125 41.140625 7.25 
Q 44.96875 8.296875 48.78125 10.40625 
L 48.78125 2.09375 
Q 45.015625 0.34375 40.984375 -0.53125 
Q 36.96875 -1.421875 32.421875 -1.421875 
Q 20.0625 -1.421875 12.78125 6.34375 
Q 5.515625 14.109375 5.515625 27.296875 
Q 5.515625 40.671875 12.859375 48.328125 
Q 20.21875 56 33.015625 56 
Q 37.15625 56 41.109375 55.140625 
Q 45.0625 54.296875 48.78125 52.59375 
z
" id="DejaVuSans-99"/>
      <path d="M 8.5 21.578125 
L 8.5 54.6875 
L 17.484375 54.6875 
L 17.484375 21.921875 
Q 17.484375 14.15625 20.5 10.265625 
Q 23.53125 6.390625 29.59375 6.390625 
Q 36.859375 6.390625 41.078125 11.03125 
Q 45.3125 15.671875 45.3125 23.6875 
L 45.3125 54.6875 
L 54.296875 54.6875 
L 54.296875 0 
L 45.3125 0 
L 45.3125 8.40625 
Q 42.046875 3.421875 37.71875 1 
Q 33.40625 -1.421875 27.6875 -1.421875 
Q 18.265625 -1.421875 13.375 4.4375 
Q 8.5 10.296875 8.5 21.578125 
z
M 31.109375 56 
z
" id="DejaVuSans-117"/>
      <path d="M 41.109375 46.296875 
Q 39.59375 47.171875 37.8125 47.578125 
Q 36.03125 48 33.890625 48 
Q 26.265625 48 22.1875 43.046875 
Q 18.109375 38.09375 18.109375 28.8125 
L 18.109375 0 
L 9.078125 0 
L 9.078125 54.6875 
L 18.109375 54.6875 
L 18.109375 46.1875 
Q 20.953125 51.171875 25.484375 53.578125 
Q 30.03125 56 36.53125 56 
Q 37.453125 56 38.578125 55.875 
Q 39.703125 55.765625 41.0625 55.515625 
z
" id="DejaVuSans-114"/>
      <path d="M 54.890625 33.015625 
L 54.890625 0 
L 45.90625 0 
L 45.90625 32.71875 
Q 45.90625 40.484375 42.875 44.328125 
Q 39.84375 48.1875 33.796875 48.1875 
Q 26.515625 48.1875 22.3125 43.546875 
Q 18.109375 38.921875 18.109375 30.90625 
L 18.109375 0 
L 9.078125 0 
L 9.078125 54.6875 
L 18.109375 54.6875 
L 18.109375 46.1875 
Q 21.34375 51.125 25.703125 53.5625 
Q 30.078125 56 35.796875 56 
Q 45.21875 56 50.046875 50.171875 
Q 54.890625 44.34375 54.890625 33.015625 
z
" id="DejaVuSans-110"/>
      <path d="M 44.28125 53.078125 
L 44.28125 44.578125 
Q 40.484375 46.53125 36.375 47.5 
Q 32.28125 48.484375 27.875 48.484375 
Q 21.1875 48.484375 17.84375 46.4375 
Q 14.5 44.390625 14.5 40.28125 
Q 14.5 37.15625 16.890625 35.375 
Q 19.28125 33.59375 26.515625 31.984375 
L 29.59375 31.296875 
Q 39.15625 29.25 43.1875 25.515625 
Q 47.21875 21.78125 47.21875 15.09375 
Q 47.21875 7.46875 41.1875 3.015625 
Q 35.15625 -1.421875 24.609375 -1.421875 
Q 20.21875 -1.421875 15.453125 -0.5625 
Q 10.6875 0.296875 5.421875 2 
L 5.421875 11.28125 
Q 10.40625 8.6875 15.234375 7.390625 
Q 20.0625 6.109375 24.8125 6.109375 
Q 31.15625 6.109375 34.5625 8.28125 
Q 37.984375 10.453125 37.984375 14.40625 
Q 37.984375 18.0625 35.515625 20.015625 
Q 33.0625 21.96875 24.703125 23.78125 
L 21.578125 24.515625 
Q 13.234375 26.265625 9.515625 29.90625 
Q 5.8125 33.546875 5.8125 39.890625 
Q 5.8125 47.609375 11.28125 51.796875 
Q 16.75 56 26.8125 56 
Q 31.78125 56 36.171875 55.265625 
Q 40.578125 54.546875 44.28125 53.078125 
z
" id="DejaVuSans-115"/>
     </defs>
     <g transform="translate(12.707812 207.304563)rotate(-90)scale(0.1 -0.1)">
      <use xlink:href="#DejaVuSans-79"/>
      <use x="78.710938" xlink:href="#DejaVuSans-99"/>
      <use x="133.691406" xlink:href="#DejaVuSans-99"/>
      <use x="188.671875" xlink:href="#DejaVuSans-117"/>
      <use x="252.050781" xlink:href="#DejaVuSans-114"/>
      <use x="293.148438" xlink:href="#DejaVuSans-114"/>
      <use x="334.230469" xlink:href="#DejaVuSans-101"/>
      <use x="395.753906" xlink:href="#DejaVuSans-110"/>
      <use x="459.132812" xlink:href="#DejaVuSans-99"/>
      <use x="514.113281" xlink:href="#DejaVuSans-105"/>
      <use x="541.896484" xlink:href="#DejaVuSans-101"/>
      <use x="603.419922" xlink:href="#DejaVuSans-115"/>
     </g>
    </g>
   </g>
   <g id="patch_203">
    <path d="M 57.6 307.584 
L 57.6 41.472 
" style="fill:none;stroke:#000000;stroke-linecap:square;stroke-linejoin:miter;stroke-width:0.8;"/>
   </g>
   <g id="patch_204">
    <path d="M 414.72 307.584 
L 414.72 41.472 
" style="fill:none;stroke:#000000;stroke-linecap:square;stroke-linejoin:miter;stroke-width:0.8;"/>
   </g>
   <g id="patch_205">
    <path d="M 57.6 307.584 
L 414.72 307.584 
" style="fill:none;stroke:#000000;stroke-linecap:square;stroke-linejoin:miter;stroke-width:0.8;"/>
   </g>
   <g id="patch_206">
    <path d="M 57.6 41.472 
L 414.72 41.472 
" style="fill:none;stroke:#000000;stroke-linecap:square;stroke-linejoin:miter;stroke-width:0.8;"/>
   </g>
   <g id="text_17">
    <!-- Histogram of fc1 -->
    <defs>
     <path d="M 9.8125 72.90625 
L 19.671875 72.90625 
L 19.671875 43.015625 
L 55.515625 43.015625 
L 55.515625 72.90625 
L 65.375 72.90625 
L 65.375 0 
L 55.515625 0 
L 55.515625 34.71875 
L 19.671875 34.71875 
L 19.671875 0 
L 9.8125 0 
z
" id="DejaVuSans-72"/>
     <path d="M 30.609375 48.390625 
Q 23.390625 48.390625 19.1875 42.75 
Q 14.984375 37.109375 14.984375 27.296875 
Q 14.984375 17.484375 19.15625 11.84375 
Q 23.34375 6.203125 30.609375 6.203125 
Q 37.796875 6.203125 41.984375 11.859375 
Q 46.1875 17.53125 46.1875 27.296875 
Q 46.1875 37.015625 41.984375 42.703125 
Q 37.796875 48.390625 30.609375 48.390625 
z
M 30.609375 56 
Q 42.328125 56 49.015625 48.375 
Q 55.71875 40.765625 55.71875 27.296875 
Q 55.71875 13.875 49.015625 6.21875 
Q 42.328125 -1.421875 30.609375 -1.421875 
Q 18.84375 -1.421875 12.171875 6.21875 
Q 5.515625 13.875 5.515625 27.296875 
Q 5.515625 40.765625 12.171875 48.375 
Q 18.84375 56 30.609375 56 
z
" id="DejaVuSans-111"/>
     <path d="M 34.28125 27.484375 
Q 23.390625 27.484375 19.1875 25 
Q 14.984375 22.515625 14.984375 16.5 
Q 14.984375 11.71875 18.140625 8.90625 
Q 21.296875 6.109375 26.703125 6.109375 
Q 34.1875 6.109375 38.703125 11.40625 
Q 43.21875 16.703125 43.21875 25.484375 
L 43.21875 27.484375 
z
M 52.203125 31.203125 
L 52.203125 0 
L 43.21875 0 
L 43.21875 8.296875 
Q 40.140625 3.328125 35.546875 0.953125 
Q 30.953125 -1.421875 24.3125 -1.421875 
Q 15.921875 -1.421875 10.953125 3.296875 
Q 6 8.015625 6 15.921875 
Q 6 25.140625 12.171875 29.828125 
Q 18.359375 34.515625 30.609375 34.515625 
L 43.21875 34.515625 
L 43.21875 35.40625 
Q 43.21875 41.609375 39.140625 45 
Q 35.0625 48.390625 27.6875 48.390625 
Q 23 48.390625 18.546875 47.265625 
Q 14.109375 46.140625 10.015625 43.890625 
L 10.015625 52.203125 
Q 14.9375 54.109375 19.578125 55.046875 
Q 24.21875 56 28.609375 56 
Q 40.484375 56 46.34375 49.84375 
Q 52.203125 43.703125 52.203125 31.203125 
z
" id="DejaVuSans-97"/>
     <path d="M 52 44.1875 
Q 55.375 50.25 60.0625 53.125 
Q 64.75 56 71.09375 56 
Q 79.640625 56 84.28125 50.015625 
Q 88.921875 44.046875 88.921875 33.015625 
L 88.921875 0 
L 79.890625 0 
L 79.890625 32.71875 
Q 79.890625 40.578125 77.09375 44.375 
Q 74.3125 48.1875 68.609375 48.1875 
Q 61.625 48.1875 57.5625 43.546875 
Q 53.515625 38.921875 53.515625 30.90625 
L 53.515625 0 
L 44.484375 0 
L 44.484375 32.71875 
Q 44.484375 40.625 41.703125 44.40625 
Q 38.921875 48.1875 33.109375 48.1875 
Q 26.21875 48.1875 22.15625 43.53125 
Q 18.109375 38.875 18.109375 30.90625 
L 18.109375 0 
L 9.078125 0 
L 9.078125 54.6875 
L 18.109375 54.6875 
L 18.109375 46.1875 
Q 21.1875 51.21875 25.484375 53.609375 
Q 29.78125 56 35.6875 56 
Q 41.65625 56 45.828125 52.96875 
Q 50 49.953125 52 44.1875 
z
" id="DejaVuSans-109"/>
     <path id="DejaVuSans-32"/>
     <path d="M 37.109375 75.984375 
L 37.109375 68.5 
L 28.515625 68.5 
Q 23.6875 68.5 21.796875 66.546875 
Q 19.921875 64.59375 19.921875 59.515625 
L 19.921875 54.6875 
L 34.71875 54.6875 
L 34.71875 47.703125 
L 19.921875 47.703125 
L 19.921875 0 
L 10.890625 0 
L 10.890625 47.703125 
L 2.296875 47.703125 
L 2.296875 54.6875 
L 10.890625 54.6875 
L 10.890625 58.5 
Q 10.890625 67.625 15.140625 71.796875 
Q 19.390625 75.984375 28.609375 75.984375 
z
" id="DejaVuSans-102"/>
    </defs>
    <g transform="translate(186.209063 35.472)scale(0.12 -0.12)">
     <use xlink:href="#DejaVuSans-72"/>
     <use x="75.195312" xlink:href="#DejaVuSans-105"/>
     <use x="102.978516" xlink:href="#DejaVuSans-115"/>
     <use x="155.078125" xlink:href="#DejaVuSans-116"/>
     <use x="194.287109" xlink:href="#DejaVuSans-111"/>
     <use x="255.46875" xlink:href="#DejaVuSans-103"/>
     <use x="318.945312" xlink:href="#DejaVuSans-114"/>
     <use x="360.058594" xlink:href="#DejaVuSans-97"/>
     <use x="421.337891" xlink:href="#DejaVuSans-109"/>
     <use x="518.75" xlink:href="#DejaVuSans-32"/>
     <use x="550.537109" xlink:href="#DejaVuSans-111"/>
     <use x="611.71875" xlink:href="#DejaVuSans-102"/>
     <use x="646.923828" xlink:href="#DejaVuSans-32"/>
     <use x="678.710938" xlink:href="#DejaVuSans-102"/>
     <use x="713.916016" xlink:href="#DejaVuSans-99"/>
     <use x="768.896484" xlink:href="#DejaVuSans-49"/>
    </g>
   </g>
   <g id="legend_1">
    <g id="patch_207">
     <path d="M 323.679375 78.82825 
L 407.72 78.82825 
Q 409.72 78.82825 409.72 76.82825 
L 409.72 48.472 
Q 409.72 46.472 407.72 46.472 
L 323.679375 46.472 
Q 321.679375 46.472 321.679375 48.472 
L 321.679375 76.82825 
Q 321.679375 78.82825 323.679375 78.82825 
z
" style="fill:#ffffff;opacity:0.8;stroke:#cccccc;stroke-linejoin:miter;"/>
    </g>
    <g id="patch_208">
     <path d="M 325.679375 58.070437 
L 345.679375 58.070437 
L 345.679375 51.070437 
L 325.679375 51.070437 
z
" style="fill:#0000ff;"/>
    </g>
    <g id="text_18">
     <!-- unmasked -->
     <defs>
      <path d="M 9.078125 75.984375 
L 18.109375 75.984375 
L 18.109375 31.109375 
L 44.921875 54.6875 
L 56.390625 54.6875 
L 27.390625 29.109375 
L 57.625 0 
L 45.90625 0 
L 18.109375 26.703125 
L 18.109375 0 
L 9.078125 0 
z
" id="DejaVuSans-107"/>
      <path d="M 45.40625 46.390625 
L 45.40625 75.984375 
L 54.390625 75.984375 
L 54.390625 0 
L 45.40625 0 
L 45.40625 8.203125 
Q 42.578125 3.328125 38.25 0.953125 
Q 33.9375 -1.421875 27.875 -1.421875 
Q 17.96875 -1.421875 11.734375 6.484375 
Q 5.515625 14.40625 5.515625 27.296875 
Q 5.515625 40.1875 11.734375 48.09375 
Q 17.96875 56 27.875 56 
Q 33.9375 56 38.25 53.625 
Q 42.578125 51.265625 45.40625 46.390625 
z
M 14.796875 27.296875 
Q 14.796875 17.390625 18.875 11.75 
Q 22.953125 6.109375 30.078125 6.109375 
Q 37.203125 6.109375 41.296875 11.75 
Q 45.40625 17.390625 45.40625 27.296875 
Q 45.40625 37.203125 41.296875 42.84375 
Q 37.203125 48.484375 30.078125 48.484375 
Q 22.953125 48.484375 18.875 42.84375 
Q 14.796875 37.203125 14.796875 27.296875 
z
" id="DejaVuSans-100"/>
     </defs>
     <g transform="translate(353.679375 58.070437)scale(0.1 -0.1)">
      <use xlink:href="#DejaVuSans-117"/>
      <use x="63.378906" xlink:href="#DejaVuSans-110"/>
      <use x="126.757812" xlink:href="#DejaVuSans-109"/>
      <use x="224.169922" xlink:href="#DejaVuSans-97"/>
      <use x="285.449219" xlink:href="#DejaVuSans-115"/>
      <use x="337.548828" xlink:href="#DejaVuSans-107"/>
      <use x="395.412109" xlink:href="#DejaVuSans-101"/>
      <use x="456.935547" xlink:href="#DejaVuSans-100"/>
     </g>
    </g>
    <g id="patch_209">
     <path d="M 325.679375 72.748562 
L 345.679375 72.748562 
L 345.679375 65.748562 
L 325.679375 65.748562 
z
" style="fill:#808080;"/>
    </g>
    <g id="text_19">
     <!-- masked -->
     <g transform="translate(353.679375 72.748562)scale(0.1 -0.1)">
      <use xlink:href="#DejaVuSans-109"/>
      <use x="97.412109" xlink:href="#DejaVuSans-97"/>
      <use x="158.691406" xlink:href="#DejaVuSans-115"/>
      <use x="210.791016" xlink:href="#DejaVuSans-107"/>
      <use x="268.654297" xlink:href="#DejaVuSans-101"/>
      <use x="330.177734" xlink:href="#DejaVuSans-100"/>
     </g>
    </g>
   </g>
  </g>
 </g>
 <defs>
  <clipPath id="pfb02187f9d">
   <rect height="266.112" width="357.12" x="57.6" y="41.472"/>
  </clipPath>
 </defs>
</svg>
