<?xml version="1.0" encoding="utf-8" standalone="no"?>
<!DOCTYPE svg PUBLIC "-//W3C//DTD SVG 1.1//EN"
  "http://www.w3.org/Graphics/SVG/1.1/DTD/svg11.dtd">
<!-- Created with matplotlib (https://matplotlib.org/) -->
<svg height="345.6pt" version="1.1" viewBox="0 0 460.8 345.6" width="460.8pt" xmlns="http://www.w3.org/2000/svg" xmlns:xlink="http://www.w3.org/1999/xlink">
 <defs>
  <style type="text/css">
*{stroke-linecap:butt;stroke-linejoin:round;}
  </style>
 </defs>
 <g id="figure_1">
  <g id="patch_1">
   <path d="M 0 345.6 
L 460.8 345.6 
L 460.8 0 
L 0 0 
z
" style="fill:#ffffff;"/>
  </g>
  <g id="axes_1">
   <g id="patch_2">
    <path d="M 57.6 307.584 
L 414.72 307.584 
L 414.72 41.472 
L 57.6 41.472 
z
" style="fill:#ffffff;"/>
   </g>
   <g id="patch_3">
    <path clip-path="url(#pa443b099ef)" d="M 96.345269 307.584 
L 99.366692 307.584 
L 99.366692 302.19166 
L 96.345269 302.19166 
z
" style="fill:#0000ff;"/>
   </g>
   <g id="patch_4">
    <path clip-path="url(#pa443b099ef)" d="M 99.366692 307.584 
L 102.388107 307.584 
L 102.388107 307.584 
L 99.366692 307.584 
z
" style="fill:#0000ff;"/>
   </g>
   <g id="patch_5">
    <path clip-path="url(#pa443b099ef)" d="M 102.388107 307.584 
L 105.409531 307.584 
L 105.409531 307.584 
L 102.388107 307.584 
z
" style="fill:#0000ff;"/>
   </g>
   <g id="patch_6">
    <path clip-path="url(#pa443b099ef)" d="M 105.40954 307.584 
L 108.430954 307.584 
L 108.430954 307.584 
L 105.40954 307.584 
z
" style="fill:#0000ff;"/>
   </g>
   <g id="patch_7">
    <path clip-path="url(#pa443b099ef)" d="M 108.430945 307.584 
L 111.452369 307.584 
L 111.452369 302.19166 
L 108.430945 302.19166 
z
" style="fill:#0000ff;"/>
   </g>
   <g id="patch_8">
    <path clip-path="url(#pa443b099ef)" d="M 111.452369 307.584 
L 114.473793 307.584 
L 114.473793 307.584 
L 111.452369 307.584 
z
" style="fill:#0000ff;"/>
   </g>
   <g id="patch_9">
    <path clip-path="url(#pa443b099ef)" d="M 114.473793 307.584 
L 117.495207 307.584 
L 117.495207 307.584 
L 114.473793 307.584 
z
" style="fill:#0000ff;"/>
   </g>
   <g id="patch_10">
    <path clip-path="url(#pa443b099ef)" d="M 117.495207 307.584 
L 120.516631 307.584 
L 120.516631 302.19166 
L 117.495207 302.19166 
z
" style="fill:#0000ff;"/>
   </g>
   <g id="patch_11">
    <path clip-path="url(#pa443b099ef)" d="M 120.51664 307.584 
L 123.538055 307.584 
L 123.538055 302.19166 
L 120.51664 302.19166 
z
" style="fill:#0000ff;"/>
   </g>
   <g id="patch_12">
    <path clip-path="url(#pa443b099ef)" d="M 123.538045 307.584 
L 126.559469 307.584 
L 126.559469 307.584 
L 123.538045 307.584 
z
" style="fill:#0000ff;"/>
   </g>
   <g id="patch_13">
    <path clip-path="url(#pa443b099ef)" d="M 126.559469 307.584 
L 129.580893 307.584 
L 129.580893 302.19166 
L 126.559469 302.19166 
z
" style="fill:#0000ff;"/>
   </g>
   <g id="patch_14">
    <path clip-path="url(#pa443b099ef)" d="M 129.580893 307.584 
L 132.602307 307.584 
L 132.602307 307.584 
L 129.580893 307.584 
z
" style="fill:#0000ff;"/>
   </g>
   <g id="patch_15">
    <path clip-path="url(#pa443b099ef)" d="M 132.602307 307.584 
L 135.623731 307.584 
L 135.623731 307.584 
L 132.602307 307.584 
z
" style="fill:#0000ff;"/>
   </g>
   <g id="patch_16">
    <path clip-path="url(#pa443b099ef)" d="M 135.62374 307.584 
L 138.645155 307.584 
L 138.645155 296.799319 
L 135.62374 296.799319 
z
" style="fill:#0000ff;"/>
   </g>
   <g id="patch_17">
    <path clip-path="url(#pa443b099ef)" d="M 138.645146 307.584 
L 141.666569 307.584 
L 141.666569 296.799319 
L 138.645146 296.799319 
z
" style="fill:#0000ff;"/>
   </g>
   <g id="patch_18">
    <path clip-path="url(#pa443b099ef)" d="M 141.666569 307.584 
L 144.687993 307.584 
L 144.687993 307.584 
L 141.666569 307.584 
z
" style="fill:#0000ff;"/>
   </g>
   <g id="patch_19">
    <path clip-path="url(#pa443b099ef)" d="M 144.687993 307.584 
L 147.709408 307.584 
L 147.709408 302.19166 
L 144.687993 302.19166 
z
" style="fill:#0000ff;"/>
   </g>
   <g id="patch_20">
    <path clip-path="url(#pa443b099ef)" d="M 147.709408 307.584 
L 150.730831 307.584 
L 150.730831 307.584 
L 147.709408 307.584 
z
" style="fill:#0000ff;"/>
   </g>
   <g id="patch_21">
    <path clip-path="url(#pa443b099ef)" d="M 150.73084 307.584 
L 153.752255 307.584 
L 153.752255 307.584 
L 150.73084 307.584 
z
" style="fill:#0000ff;"/>
   </g>
   <g id="patch_22">
    <path clip-path="url(#pa443b099ef)" d="M 153.752246 307.584 
L 156.77367 307.584 
L 156.77367 302.19166 
L 153.752246 302.19166 
z
" style="fill:#0000ff;"/>
   </g>
   <g id="patch_23">
    <path clip-path="url(#pa443b099ef)" d="M 156.77367 307.584 
L 159.795093 307.584 
L 159.795093 307.584 
L 156.77367 307.584 
z
" style="fill:#0000ff;"/>
   </g>
   <g id="patch_24">
    <path clip-path="url(#pa443b099ef)" d="M 159.795093 307.584 
L 162.816508 307.584 
L 162.816508 302.19166 
L 159.795093 302.19166 
z
" style="fill:#0000ff;"/>
   </g>
   <g id="patch_25">
    <path clip-path="url(#pa443b099ef)" d="M 162.816508 307.584 
L 165.837931 307.584 
L 165.837931 307.584 
L 162.816508 307.584 
z
" style="fill:#0000ff;"/>
   </g>
   <g id="patch_26">
    <path clip-path="url(#pa443b099ef)" d="M 165.837941 307.584 
L 168.859355 307.584 
L 168.859355 302.19166 
L 165.837941 302.19166 
z
" style="fill:#0000ff;"/>
   </g>
   <g id="patch_27">
    <path clip-path="url(#pa443b099ef)" d="M 168.859346 307.584 
L 171.88077 307.584 
L 171.88077 302.19166 
L 168.859346 302.19166 
z
" style="fill:#0000ff;"/>
   </g>
   <g id="patch_28">
    <path clip-path="url(#pa443b099ef)" d="M 171.88077 307.584 
L 174.902184 307.584 
L 174.902184 302.19166 
L 171.88077 302.19166 
z
" style="fill:#0000ff;"/>
   </g>
   <g id="patch_29">
    <path clip-path="url(#pa443b099ef)" d="M 174.902189 307.584 
L 177.923603 307.584 
L 177.923603 307.584 
L 174.902189 307.584 
z
" style="fill:#0000ff;"/>
   </g>
   <g id="patch_30">
    <path clip-path="url(#pa443b099ef)" d="M 177.923608 307.584 
L 180.945032 307.584 
L 180.945032 296.799319 
L 177.923608 296.799319 
z
" style="fill:#0000ff;"/>
   </g>
   <g id="patch_31">
    <path clip-path="url(#pa443b099ef)" d="M 180.945036 307.584 
L 183.966451 307.584 
L 183.966451 307.584 
L 180.945036 307.584 
z
" style="fill:#0000ff;"/>
   </g>
   <g id="patch_32">
    <path clip-path="url(#pa443b099ef)" d="M 183.966451 307.584 
L 186.987865 307.584 
L 186.987865 302.19166 
L 183.966451 302.19166 
z
" style="fill:#0000ff;"/>
   </g>
   <g id="patch_33">
    <path clip-path="url(#pa443b099ef)" d="M 186.987874 307.584 
L 190.009289 307.584 
L 190.009289 280.622298 
L 186.987874 280.622298 
z
" style="fill:#0000ff;"/>
   </g>
   <g id="patch_34">
    <path clip-path="url(#pa443b099ef)" d="M 190.009289 307.584 
L 193.030704 307.584 
L 193.030704 307.584 
L 190.009289 307.584 
z
" style="fill:#0000ff;"/>
   </g>
   <g id="patch_35">
    <path clip-path="url(#pa443b099ef)" d="M 193.030708 307.584 
L 196.052132 307.584 
L 196.052132 291.406979 
L 193.030708 291.406979 
z
" style="fill:#0000ff;"/>
   </g>
   <g id="patch_36">
    <path clip-path="url(#pa443b099ef)" d="M 196.052136 307.584 
L 199.073551 307.584 
L 199.073551 286.014638 
L 196.052136 286.014638 
z
" style="fill:#0000ff;"/>
   </g>
   <g id="patch_37">
    <path clip-path="url(#pa443b099ef)" d="M 199.073551 307.584 
L 202.094966 307.584 
L 202.094966 296.799319 
L 199.073551 296.799319 
z
" style="fill:#0000ff;"/>
   </g>
   <g id="patch_38">
    <path clip-path="url(#pa443b099ef)" d="M 202.094975 307.584 
L 205.116389 307.584 
L 205.116389 296.799319 
L 202.094975 296.799319 
z
" style="fill:#0000ff;"/>
   </g>
   <g id="patch_39">
    <path clip-path="url(#pa443b099ef)" d="M 205.116389 307.584 
L 208.137804 307.584 
L 208.137804 296.799319 
L 205.116389 296.799319 
z
" style="fill:#0000ff;"/>
   </g>
   <g id="patch_40">
    <path clip-path="url(#pa443b099ef)" d="M 208.137808 307.584 
L 211.159232 307.584 
L 211.159232 286.014638 
L 208.137808 286.014638 
z
" style="fill:#0000ff;"/>
   </g>
   <g id="patch_41">
    <path clip-path="url(#pa443b099ef)" d="M 211.159228 307.584 
L 214.180651 307.584 
L 214.180651 280.622298 
L 211.159228 280.622298 
z
" style="fill:#0000ff;"/>
   </g>
   <g id="patch_42">
    <path clip-path="url(#pa443b099ef)" d="M 214.180653 307.584 
L 217.202068 307.584 
L 217.202068 286.014638 
L 214.180653 286.014638 
z
" style="fill:#0000ff;"/>
   </g>
   <g id="patch_43">
    <path clip-path="url(#pa443b099ef)" d="M 217.202073 307.584 
L 220.223487 307.584 
L 220.223487 275.229957 
L 217.202073 275.229957 
z
" style="fill:#0000ff;"/>
   </g>
   <g id="patch_44">
    <path clip-path="url(#pa443b099ef)" d="M 220.223489 307.584 
L 223.244913 307.584 
L 223.244913 264.445277 
L 220.223489 264.445277 
z
" style="fill:#0000ff;"/>
   </g>
   <g id="patch_45">
    <path clip-path="url(#pa443b099ef)" d="M 223.244913 307.584 
L 226.266328 307.584 
L 226.266328 291.406979 
L 223.244913 291.406979 
z
" style="fill:#0000ff;"/>
   </g>
   <g id="patch_46">
    <path clip-path="url(#pa443b099ef)" d="M 226.266328 307.584 
L 229.287751 307.584 
L 229.287751 269.837617 
L 226.266328 269.837617 
z
" style="fill:#0000ff;"/>
   </g>
   <g id="patch_47">
    <path clip-path="url(#pa443b099ef)" d="M 229.287749 307.584 
L 232.309173 307.584 
L 232.309173 280.622298 
L 229.287749 280.622298 
z
" style="fill:#0000ff;"/>
   </g>
   <g id="patch_48">
    <path clip-path="url(#pa443b099ef)" d="M 232.309168 307.584 
L 235.330592 307.584 
L 235.330592 286.014638 
L 232.309168 286.014638 
z
" style="fill:#0000ff;"/>
   </g>
   <g id="patch_49">
    <path clip-path="url(#pa443b099ef)" d="M 235.33059 307.584 
L 238.352013 307.584 
L 238.352013 264.445277 
L 235.33059 264.445277 
z
" style="fill:#0000ff;"/>
   </g>
   <g id="patch_50">
    <path clip-path="url(#pa443b099ef)" d="M 238.352009 307.584 
L 241.373432 307.584 
L 241.373432 264.445277 
L 238.352009 264.445277 
z
" style="fill:#0000ff;"/>
   </g>
   <g id="patch_51">
    <path clip-path="url(#pa443b099ef)" d="M 241.373429 307.584 
L 244.394853 307.584 
L 244.394853 242.875915 
L 241.373429 242.875915 
z
" style="fill:#0000ff;"/>
   </g>
   <g id="patch_52">
    <path clip-path="url(#pa443b099ef)" d="M 244.394849 307.584 
L 247.416272 307.584 
L 247.416272 280.622298 
L 244.394849 280.622298 
z
" style="fill:#0000ff;"/>
   </g>
   <g id="patch_53">
    <path clip-path="url(#pa443b099ef)" d="M 247.416269 307.584 
L 250.437693 307.584 
L 250.437693 269.837617 
L 247.416269 269.837617 
z
" style="fill:#0000ff;"/>
   </g>
   <g id="patch_54">
    <path clip-path="url(#pa443b099ef)" d="M 250.437689 307.584 
L 253.459112 307.584 
L 253.459112 264.445277 
L 250.437689 264.445277 
z
" style="fill:#0000ff;"/>
   </g>
   <g id="patch_55">
    <path clip-path="url(#pa443b099ef)" d="M 253.459109 307.584 
L 256.480533 307.584 
L 256.480533 248.268255 
L 253.459109 248.268255 
z
" style="fill:#0000ff;"/>
   </g>
   <g id="patch_56">
    <path clip-path="url(#pa443b099ef)" d="M 256.480529 307.584 
L 259.501953 307.584 
L 259.501953 264.445277 
L 256.480529 264.445277 
z
" style="fill:#0000ff;"/>
   </g>
   <g id="patch_57">
    <path clip-path="url(#pa443b099ef)" d="M 259.50195 307.584 
L 262.523373 307.584 
L 262.523373 242.875915 
L 259.50195 242.875915 
z
" style="fill:#0000ff;"/>
   </g>
   <g id="patch_58">
    <path clip-path="url(#pa443b099ef)" d="M 262.523369 307.584 
L 265.544792 307.584 
L 265.544792 259.052936 
L 262.523369 259.052936 
z
" style="fill:#0000ff;"/>
   </g>
   <g id="patch_59">
    <path clip-path="url(#pa443b099ef)" d="M 265.54479 307.584 
L 268.566214 307.584 
L 268.566214 242.875915 
L 265.54479 242.875915 
z
" style="fill:#0000ff;"/>
   </g>
   <g id="patch_60">
    <path clip-path="url(#pa443b099ef)" d="M 268.566214 307.584 
L 271.587628 307.584 
L 271.587628 259.052936 
L 268.566214 259.052936 
z
" style="fill:#0000ff;"/>
   </g>
   <g id="patch_61">
    <path clip-path="url(#pa443b099ef)" d="M 271.587628 307.584 
L 274.609052 307.584 
L 274.609052 210.521872 
L 271.587628 210.521872 
z
" style="fill:#0000ff;"/>
   </g>
   <g id="patch_62">
    <path clip-path="url(#pa443b099ef)" d="M 274.609054 307.584 
L 277.630469 307.584 
L 277.630469 259.052936 
L 274.609054 259.052936 
z
" style="fill:#0000ff;"/>
   </g>
   <g id="patch_63">
    <path clip-path="url(#pa443b099ef)" d="M 277.630473 307.584 
L 280.651888 307.584 
L 280.651888 210.521872 
L 277.630473 210.521872 
z
" style="fill:#0000ff;"/>
   </g>
   <g id="patch_64">
    <path clip-path="url(#pa443b099ef)" d="M 280.65189 307.584 
L 283.673314 307.584 
L 283.673314 221.306553 
L 280.65189 221.306553 
z
" style="fill:#0000ff;"/>
   </g>
   <g id="patch_65">
    <path clip-path="url(#pa443b099ef)" d="M 283.673309 307.584 
L 286.694733 307.584 
L 286.694733 215.914213 
L 283.673309 215.914213 
z
" style="fill:#0000ff;"/>
   </g>
   <g id="patch_66">
    <path clip-path="url(#pa443b099ef)" d="M 286.694738 307.584 
L 289.716152 307.584 
L 289.716152 232.091234 
L 286.694738 232.091234 
z
" style="fill:#0000ff;"/>
   </g>
   <g id="patch_67">
    <path clip-path="url(#pa443b099ef)" d="M 289.716152 307.584 
L 292.737567 307.584 
L 292.737567 269.837617 
L 289.716152 269.837617 
z
" style="fill:#0000ff;"/>
   </g>
   <g id="patch_68">
    <path clip-path="url(#pa443b099ef)" d="M 292.737576 307.584 
L 295.75899 307.584 
L 295.75899 221.306553 
L 292.737576 221.306553 
z
" style="fill:#0000ff;"/>
   </g>
   <g id="patch_69">
    <path clip-path="url(#pa443b099ef)" d="M 295.75899 307.584 
L 298.780405 307.584 
L 298.780405 259.052936 
L 295.75899 259.052936 
z
" style="fill:#0000ff;"/>
   </g>
   <g id="patch_70">
    <path clip-path="url(#pa443b099ef)" d="M 298.78041 307.584 
L 301.801833 307.584 
L 301.801833 237.483574 
L 298.78041 237.483574 
z
" style="fill:#0000ff;"/>
   </g>
   <g id="patch_71">
    <path clip-path="url(#pa443b099ef)" d="M 301.801838 307.584 
L 304.823252 307.584 
L 304.823252 280.622298 
L 301.801838 280.622298 
z
" style="fill:#0000ff;"/>
   </g>
   <g id="patch_72">
    <path clip-path="url(#pa443b099ef)" d="M 304.823252 307.584 
L 307.844667 307.584 
L 307.844667 264.445277 
L 304.823252 264.445277 
z
" style="fill:#0000ff;"/>
   </g>
   <g id="patch_73">
    <path clip-path="url(#pa443b099ef)" d="M 307.844676 307.584 
L 310.866091 307.584 
L 310.866091 253.660596 
L 307.844676 253.660596 
z
" style="fill:#0000ff;"/>
   </g>
   <g id="patch_74">
    <path clip-path="url(#pa443b099ef)" d="M 310.866091 307.584 
L 313.887505 307.584 
L 313.887505 275.229957 
L 310.866091 275.229957 
z
" style="fill:#0000ff;"/>
   </g>
   <g id="patch_75">
    <path clip-path="url(#pa443b099ef)" d="M 313.88751 307.584 
L 316.908933 307.584 
L 316.908933 264.445277 
L 313.88751 264.445277 
z
" style="fill:#0000ff;"/>
   </g>
   <g id="patch_76">
    <path clip-path="url(#pa443b099ef)" d="M 316.908938 307.584 
L 319.930353 307.584 
L 319.930353 286.014638 
L 316.908938 286.014638 
z
" style="fill:#0000ff;"/>
   </g>
   <g id="patch_77">
    <path clip-path="url(#pa443b099ef)" d="M 319.930353 307.584 
L 322.951767 307.584 
L 322.951767 280.622298 
L 319.930353 280.622298 
z
" style="fill:#0000ff;"/>
   </g>
   <g id="patch_78">
    <path clip-path="url(#pa443b099ef)" d="M 322.951772 307.584 
L 325.973195 307.584 
L 325.973195 242.875915 
L 322.951772 242.875915 
z
" style="fill:#0000ff;"/>
   </g>
   <g id="patch_79">
    <path clip-path="url(#pa443b099ef)" d="M 325.973195 307.584 
L 328.99461 307.584 
L 328.99461 269.837617 
L 325.973195 269.837617 
z
" style="fill:#0000ff;"/>
   </g>
   <g id="patch_80">
    <path clip-path="url(#pa443b099ef)" d="M 328.99461 307.584 
L 332.016034 307.584 
L 332.016034 280.622298 
L 328.99461 280.622298 
z
" style="fill:#0000ff;"/>
   </g>
   <g id="patch_81">
    <path clip-path="url(#pa443b099ef)" d="M 332.016043 307.584 
L 335.037457 307.584 
L 335.037457 275.229957 
L 332.016043 275.229957 
z
" style="fill:#0000ff;"/>
   </g>
   <g id="patch_82">
    <path clip-path="url(#pa443b099ef)" d="M 335.037448 307.584 
L 338.058872 307.584 
L 338.058872 286.014638 
L 335.037448 286.014638 
z
" style="fill:#0000ff;"/>
   </g>
   <g id="patch_83">
    <path clip-path="url(#pa443b099ef)" d="M 338.058872 307.584 
L 341.080296 307.584 
L 341.080296 280.622298 
L 338.058872 280.622298 
z
" style="fill:#0000ff;"/>
   </g>
   <g id="patch_84">
    <path clip-path="url(#pa443b099ef)" d="M 341.080296 307.584 
L 344.10171 307.584 
L 344.10171 296.799319 
L 341.080296 296.799319 
z
" style="fill:#0000ff;"/>
   </g>
   <g id="patch_85">
    <path clip-path="url(#pa443b099ef)" d="M 344.10171 307.584 
L 347.123134 307.584 
L 347.123134 302.19166 
L 344.10171 302.19166 
z
" style="fill:#0000ff;"/>
   </g>
   <g id="patch_86">
    <path clip-path="url(#pa443b099ef)" d="M 347.123143 307.584 
L 350.144558 307.584 
L 350.144558 296.799319 
L 347.123143 296.799319 
z
" style="fill:#0000ff;"/>
   </g>
   <g id="patch_87">
    <path clip-path="url(#pa443b099ef)" d="M 350.144548 307.584 
L 353.165972 307.584 
L 353.165972 296.799319 
L 350.144548 296.799319 
z
" style="fill:#0000ff;"/>
   </g>
   <g id="patch_88">
    <path clip-path="url(#pa443b099ef)" d="M 353.165972 307.584 
L 356.187396 307.584 
L 356.187396 302.19166 
L 353.165972 302.19166 
z
" style="fill:#0000ff;"/>
   </g>
   <g id="patch_89">
    <path clip-path="url(#pa443b099ef)" d="M 356.187396 307.584 
L 359.20881 307.584 
L 359.20881 286.014638 
L 356.187396 286.014638 
z
" style="fill:#0000ff;"/>
   </g>
   <g id="patch_90">
    <path clip-path="url(#pa443b099ef)" d="M 359.20881 307.584 
L 362.230234 307.584 
L 362.230234 296.799319 
L 359.20881 296.799319 
z
" style="fill:#0000ff;"/>
   </g>
   <g id="patch_91">
    <path clip-path="url(#pa443b099ef)" d="M 362.230243 307.584 
L 365.251658 307.584 
L 365.251658 291.406979 
L 362.230243 291.406979 
z
" style="fill:#0000ff;"/>
   </g>
   <g id="patch_92">
    <path clip-path="url(#pa443b099ef)" d="M 365.251649 307.584 
L 368.273072 307.584 
L 368.273072 296.799319 
L 365.251649 296.799319 
z
" style="fill:#0000ff;"/>
   </g>
   <g id="patch_93">
    <path clip-path="url(#pa443b099ef)" d="M 368.273072 307.584 
L 371.294496 307.584 
L 371.294496 291.406979 
L 368.273072 291.406979 
z
" style="fill:#0000ff;"/>
   </g>
   <g id="patch_94">
    <path clip-path="url(#pa443b099ef)" d="M 371.294496 307.584 
L 374.315911 307.584 
L 374.315911 302.19166 
L 371.294496 302.19166 
z
" style="fill:#0000ff;"/>
   </g>
   <g id="patch_95">
    <path clip-path="url(#pa443b099ef)" d="M 374.315911 307.584 
L 377.337334 307.584 
L 377.337334 291.406979 
L 374.315911 291.406979 
z
" style="fill:#0000ff;"/>
   </g>
   <g id="patch_96">
    <path clip-path="url(#pa443b099ef)" d="M 377.337343 307.584 
L 380.358758 307.584 
L 380.358758 286.014638 
L 377.337343 286.014638 
z
" style="fill:#0000ff;"/>
   </g>
   <g id="patch_97">
    <path clip-path="url(#pa443b099ef)" d="M 380.358749 307.584 
L 383.380173 307.584 
L 383.380173 296.799319 
L 380.358749 296.799319 
z
" style="fill:#0000ff;"/>
   </g>
   <g id="patch_98">
    <path clip-path="url(#pa443b099ef)" d="M 383.380173 307.584 
L 386.401596 307.584 
L 386.401596 307.584 
L 383.380173 307.584 
z
" style="fill:#0000ff;"/>
   </g>
   <g id="patch_99">
    <path clip-path="url(#pa443b099ef)" d="M 386.401596 307.584 
L 389.423011 307.584 
L 389.423011 302.19166 
L 386.401596 302.19166 
z
" style="fill:#0000ff;"/>
   </g>
   <g id="patch_100">
    <path clip-path="url(#pa443b099ef)" d="M 389.423011 307.584 
L 392.444434 307.584 
L 392.444434 296.799319 
L 389.423011 296.799319 
z
" style="fill:#0000ff;"/>
   </g>
   <g id="patch_101">
    <path clip-path="url(#pa443b099ef)" d="M 392.444443 307.584 
L 395.465858 307.584 
L 395.465858 302.19166 
L 392.444443 302.19166 
z
" style="fill:#0000ff;"/>
   </g>
   <g id="patch_102">
    <path clip-path="url(#pa443b099ef)" d="M 395.465849 307.584 
L 398.487273 307.584 
L 398.487273 302.19166 
L 395.465849 302.19166 
z
" style="fill:#0000ff;"/>
   </g>
   <g id="patch_103">
    <path clip-path="url(#pa443b099ef)" d="M 73.832727 307.584 
L 76.771201 307.584 
L 76.771201 302.19166 
L 73.832727 302.19166 
z
" style="fill:#808080;"/>
   </g>
   <g id="patch_104">
    <path clip-path="url(#pa443b099ef)" d="M 76.771201 307.584 
L 79.709693 307.584 
L 79.709693 307.584 
L 76.771201 307.584 
z
" style="fill:#808080;"/>
   </g>
   <g id="patch_105">
    <path clip-path="url(#pa443b099ef)" d="M 79.709712 307.584 
L 82.648186 307.584 
L 82.648186 307.584 
L 79.709712 307.584 
z
" style="fill:#808080;"/>
   </g>
   <g id="patch_106">
    <path clip-path="url(#pa443b099ef)" d="M 82.648167 307.584 
L 85.586641 307.584 
L 85.586641 302.19166 
L 82.648167 302.19166 
z
" style="fill:#808080;"/>
   </g>
   <g id="patch_107">
    <path clip-path="url(#pa443b099ef)" d="M 85.58666 307.584 
L 88.525134 307.584 
L 88.525134 307.584 
L 85.58666 307.584 
z
" style="fill:#808080;"/>
   </g>
   <g id="patch_108">
    <path clip-path="url(#pa443b099ef)" d="M 88.525116 307.584 
L 91.463608 307.584 
L 91.463608 307.584 
L 88.525116 307.584 
z
" style="fill:#808080;"/>
   </g>
   <g id="patch_109">
    <path clip-path="url(#pa443b099ef)" d="M 91.463608 307.584 
L 94.402082 307.584 
L 94.402082 302.19166 
L 91.463608 302.19166 
z
" style="fill:#808080;"/>
   </g>
   <g id="patch_110">
    <path clip-path="url(#pa443b099ef)" d="M 94.4021 307.584 
L 97.340574 307.584 
L 97.340574 307.584 
L 94.4021 307.584 
z
" style="fill:#808080;"/>
   </g>
   <g id="patch_111">
    <path clip-path="url(#pa443b099ef)" d="M 97.340556 307.584 
L 100.279048 307.584 
L 100.279048 307.584 
L 97.340556 307.584 
z
" style="fill:#808080;"/>
   </g>
   <g id="patch_112">
    <path clip-path="url(#pa443b099ef)" d="M 100.27903 307.584 
L 103.217522 307.584 
L 103.217522 296.799319 
L 100.27903 296.799319 
z
" style="fill:#808080;"/>
   </g>
   <g id="patch_113">
    <path clip-path="url(#pa443b099ef)" d="M 103.217522 307.584 
L 106.155996 307.584 
L 106.155996 307.584 
L 103.217522 307.584 
z
" style="fill:#808080;"/>
   </g>
   <g id="patch_114">
    <path clip-path="url(#pa443b099ef)" d="M 106.155996 307.584 
L 109.094488 307.584 
L 109.094488 307.584 
L 106.155996 307.584 
z
" style="fill:#808080;"/>
   </g>
   <g id="patch_115">
    <path clip-path="url(#pa443b099ef)" d="M 109.094479 307.584 
L 112.032953 307.584 
L 112.032953 291.406979 
L 109.094479 291.406979 
z
" style="fill:#808080;"/>
   </g>
   <g id="patch_116">
    <path clip-path="url(#pa443b099ef)" d="M 112.032944 307.584 
L 114.971436 307.584 
L 114.971436 307.584 
L 112.032944 307.584 
z
" style="fill:#808080;"/>
   </g>
   <g id="patch_117">
    <path clip-path="url(#pa443b099ef)" d="M 114.971436 307.584 
L 117.90991 307.584 
L 117.90991 307.584 
L 114.971436 307.584 
z
" style="fill:#808080;"/>
   </g>
   <g id="patch_118">
    <path clip-path="url(#pa443b099ef)" d="M 117.90991 307.584 
L 120.848402 307.584 
L 120.848402 307.584 
L 117.90991 307.584 
z
" style="fill:#808080;"/>
   </g>
   <g id="patch_119">
    <path clip-path="url(#pa443b099ef)" d="M 120.848384 307.584 
L 123.786876 307.584 
L 123.786876 296.799319 
L 120.848384 296.799319 
z
" style="fill:#808080;"/>
   </g>
   <g id="patch_120">
    <path clip-path="url(#pa443b099ef)" d="M 123.786876 307.584 
L 126.72535 307.584 
L 126.72535 307.584 
L 123.786876 307.584 
z
" style="fill:#808080;"/>
   </g>
   <g id="patch_121">
    <path clip-path="url(#pa443b099ef)" d="M 126.72535 307.584 
L 129.663842 307.584 
L 129.663842 307.584 
L 126.72535 307.584 
z
" style="fill:#808080;"/>
   </g>
   <g id="patch_122">
    <path clip-path="url(#pa443b099ef)" d="M 129.663833 307.584 
L 132.602307 307.584 
L 132.602307 302.19166 
L 129.663833 302.19166 
z
" style="fill:#808080;"/>
   </g>
   <g id="patch_123">
    <path clip-path="url(#pa443b099ef)" d="M 132.602298 307.584 
L 135.54079 307.584 
L 135.54079 307.584 
L 132.602298 307.584 
z
" style="fill:#808080;"/>
   </g>
   <g id="patch_124">
    <path clip-path="url(#pa443b099ef)" d="M 135.54079 307.584 
L 138.479265 307.584 
L 138.479265 307.584 
L 135.54079 307.584 
z
" style="fill:#808080;"/>
   </g>
   <g id="patch_125">
    <path clip-path="url(#pa443b099ef)" d="M 138.479265 307.584 
L 141.417757 307.584 
L 141.417757 296.799319 
L 138.479265 296.799319 
z
" style="fill:#808080;"/>
   </g>
   <g id="patch_126">
    <path clip-path="url(#pa443b099ef)" d="M 141.417748 307.584 
L 144.356222 307.584 
L 144.356222 307.584 
L 141.417748 307.584 
z
" style="fill:#808080;"/>
   </g>
   <g id="patch_127">
    <path clip-path="url(#pa443b099ef)" d="M 144.356213 307.584 
L 147.294705 307.584 
L 147.294705 307.584 
L 144.356213 307.584 
z
" style="fill:#808080;"/>
   </g>
   <g id="patch_128">
    <path clip-path="url(#pa443b099ef)" d="M 147.294705 307.584 
L 150.233197 307.584 
L 150.233197 296.799319 
L 147.294705 296.799319 
z
" style="fill:#808080;"/>
   </g>
   <g id="patch_129">
    <path clip-path="url(#pa443b099ef)" d="M 150.233188 307.584 
L 153.171662 307.584 
L 153.171662 307.584 
L 150.233188 307.584 
z
" style="fill:#808080;"/>
   </g>
   <g id="patch_130">
    <path clip-path="url(#pa443b099ef)" d="M 153.171653 307.584 
L 156.110145 307.584 
L 156.110145 307.584 
L 153.171653 307.584 
z
" style="fill:#808080;"/>
   </g>
   <g id="patch_131">
    <path clip-path="url(#pa443b099ef)" d="M 156.110145 307.584 
L 159.048619 307.584 
L 159.048619 307.584 
L 156.110145 307.584 
z
" style="fill:#808080;"/>
   </g>
   <g id="patch_132">
    <path clip-path="url(#pa443b099ef)" d="M 159.048619 307.584 
L 161.987111 307.584 
L 161.987111 291.406979 
L 159.048619 291.406979 
z
" style="fill:#808080;"/>
   </g>
   <g id="patch_133">
    <path clip-path="url(#pa443b099ef)" d="M 161.987102 307.584 
L 164.925576 307.584 
L 164.925576 307.584 
L 161.987102 307.584 
z
" style="fill:#808080;"/>
   </g>
   <g id="patch_134">
    <path clip-path="url(#pa443b099ef)" d="M 164.925567 307.584 
L 167.864059 307.584 
L 167.864059 307.584 
L 164.925567 307.584 
z
" style="fill:#808080;"/>
   </g>
   <g id="patch_135">
    <path clip-path="url(#pa443b099ef)" d="M 167.864059 307.584 
L 170.802533 307.584 
L 170.802533 248.268255 
L 167.864059 248.268255 
z
" style="fill:#808080;"/>
   </g>
   <g id="patch_136">
    <path clip-path="url(#pa443b099ef)" d="M 170.802533 307.584 
L 173.741025 307.584 
L 173.741025 307.584 
L 170.802533 307.584 
z
" style="fill:#808080;"/>
   </g>
   <g id="patch_137">
    <path clip-path="url(#pa443b099ef)" d="M 173.741016 307.584 
L 176.67949 307.584 
L 176.67949 307.584 
L 173.741016 307.584 
z
" style="fill:#808080;"/>
   </g>
   <g id="patch_138">
    <path clip-path="url(#pa443b099ef)" d="M 176.679499 307.584 
L 179.617973 307.584 
L 179.617973 269.837617 
L 176.679499 269.837617 
z
" style="fill:#808080;"/>
   </g>
   <g id="patch_139">
    <path clip-path="url(#pa443b099ef)" d="M 179.617973 307.584 
L 182.556447 307.584 
L 182.556447 307.584 
L 179.617973 307.584 
z
" style="fill:#808080;"/>
   </g>
   <g id="patch_140">
    <path clip-path="url(#pa443b099ef)" d="M 182.556447 307.584 
L 185.494939 307.584 
L 185.494939 307.584 
L 182.556447 307.584 
z
" style="fill:#808080;"/>
   </g>
   <g id="patch_141">
    <path clip-path="url(#pa443b099ef)" d="M 185.494939 307.584 
L 188.433414 307.584 
L 188.433414 226.698894 
L 185.494939 226.698894 
z
" style="fill:#808080;"/>
   </g>
   <g id="patch_142">
    <path clip-path="url(#pa443b099ef)" d="M 188.433414 307.584 
L 191.371888 307.584 
L 191.371888 307.584 
L 188.433414 307.584 
z
" style="fill:#808080;"/>
   </g>
   <g id="patch_143">
    <path clip-path="url(#pa443b099ef)" d="M 191.371897 307.584 
L 194.310371 307.584 
L 194.310371 307.584 
L 191.371897 307.584 
z
" style="fill:#808080;"/>
   </g>
   <g id="patch_144">
    <path clip-path="url(#pa443b099ef)" d="M 194.310371 307.584 
L 197.248845 307.584 
L 197.248845 210.521872 
L 194.310371 210.521872 
z
" style="fill:#808080;"/>
   </g>
   <g id="patch_145">
    <path clip-path="url(#pa443b099ef)" d="M 197.248854 307.584 
L 200.187328 307.584 
L 200.187328 307.584 
L 197.248854 307.584 
z
" style="fill:#808080;"/>
   </g>
   <g id="patch_146">
    <path clip-path="url(#pa443b099ef)" d="M 200.187328 307.584 
L 203.125802 307.584 
L 203.125802 307.584 
L 200.187328 307.584 
z
" style="fill:#808080;"/>
   </g>
   <g id="patch_147">
    <path clip-path="url(#pa443b099ef)" d="M 203.125811 307.584 
L 206.064285 307.584 
L 206.064285 307.584 
L 203.125811 307.584 
z
" style="fill:#808080;"/>
   </g>
   <g id="patch_148">
    <path clip-path="url(#pa443b099ef)" d="M 206.06428 307.584 
L 209.002772 307.584 
L 209.002772 215.914213 
L 206.06428 215.914213 
z
" style="fill:#808080;"/>
   </g>
   <g id="patch_149">
    <path clip-path="url(#pa443b099ef)" d="M 209.002768 307.584 
L 211.941242 307.584 
L 211.941242 307.584 
L 209.002768 307.584 
z
" style="fill:#808080;"/>
   </g>
   <g id="patch_150">
    <path clip-path="url(#pa443b099ef)" d="M 211.941246 307.584 
L 214.879721 307.584 
L 214.879721 307.584 
L 211.941246 307.584 
z
" style="fill:#808080;"/>
   </g>
   <g id="patch_151">
    <path clip-path="url(#pa443b099ef)" d="M 214.879727 307.584 
L 217.818201 307.584 
L 217.818201 151.206128 
L 214.879727 151.206128 
z
" style="fill:#808080;"/>
   </g>
   <g id="patch_152">
    <path clip-path="url(#pa443b099ef)" d="M 217.818206 307.584 
L 220.75668 307.584 
L 220.75668 307.584 
L 217.818206 307.584 
z
" style="fill:#808080;"/>
   </g>
   <g id="patch_153">
    <path clip-path="url(#pa443b099ef)" d="M 220.756684 307.584 
L 223.695158 307.584 
L 223.695158 307.584 
L 220.756684 307.584 
z
" style="fill:#808080;"/>
   </g>
   <g id="patch_154">
    <path clip-path="url(#pa443b099ef)" d="M 223.695163 307.584 
L 226.633637 307.584 
L 226.633637 178.16783 
L 223.695163 178.16783 
z
" style="fill:#808080;"/>
   </g>
   <g id="patch_155">
    <path clip-path="url(#pa443b099ef)" d="M 226.633642 307.584 
L 229.572116 307.584 
L 229.572116 307.584 
L 226.633642 307.584 
z
" style="fill:#808080;"/>
   </g>
   <g id="patch_156">
    <path clip-path="url(#pa443b099ef)" d="M 229.572122 307.584 
L 232.510596 307.584 
L 232.510596 307.584 
L 229.572122 307.584 
z
" style="fill:#808080;"/>
   </g>
   <g id="patch_157">
    <path clip-path="url(#pa443b099ef)" d="M 232.510601 307.584 
L 235.449075 307.584 
L 235.449075 118.852085 
L 232.510601 118.852085 
z
" style="fill:#808080;"/>
   </g>
   <g id="patch_158">
    <path clip-path="url(#pa443b099ef)" d="M 235.449079 307.584 
L 238.387553 307.584 
L 238.387553 307.584 
L 235.449079 307.584 
z
" style="fill:#808080;"/>
   </g>
   <g id="patch_159">
    <path clip-path="url(#pa443b099ef)" d="M 238.387559 307.584 
L 241.326033 307.584 
L 241.326033 307.584 
L 238.387559 307.584 
z
" style="fill:#808080;"/>
   </g>
   <g id="patch_160">
    <path clip-path="url(#pa443b099ef)" d="M 241.326038 307.584 
L 244.264512 307.584 
L 244.264512 307.584 
L 241.326038 307.584 
z
" style="fill:#808080;"/>
   </g>
   <g id="patch_161">
    <path clip-path="url(#pa443b099ef)" d="M 244.264517 307.584 
L 247.202991 307.584 
L 247.202991 91.890383 
L 244.264517 91.890383 
z
" style="fill:#808080;"/>
   </g>
   <g id="patch_162">
    <path clip-path="url(#pa443b099ef)" d="M 247.202997 307.584 
L 250.141471 307.584 
L 250.141471 307.584 
L 247.202997 307.584 
z
" style="fill:#808080;"/>
   </g>
   <g id="patch_163">
    <path clip-path="url(#pa443b099ef)" d="M 250.141476 307.584 
L 253.07995 307.584 
L 253.07995 307.584 
L 250.141476 307.584 
z
" style="fill:#808080;"/>
   </g>
   <g id="patch_164">
    <path clip-path="url(#pa443b099ef)" d="M 253.079955 307.584 
L 256.018429 307.584 
L 256.018429 54.144 
L 253.079955 54.144 
z
" style="fill:#808080;"/>
   </g>
   <g id="patch_165">
    <path clip-path="url(#pa443b099ef)" d="M 256.018434 307.584 
L 258.956908 307.584 
L 258.956908 307.584 
L 256.018434 307.584 
z
" style="fill:#808080;"/>
   </g>
   <g id="patch_166">
    <path clip-path="url(#pa443b099ef)" d="M 258.956912 307.584 
L 261.895386 307.584 
L 261.895386 307.584 
L 258.956912 307.584 
z
" style="fill:#808080;"/>
   </g>
   <g id="patch_167">
    <path clip-path="url(#pa443b099ef)" d="M 261.895392 307.584 
L 264.833866 307.584 
L 264.833866 91.890383 
L 261.895392 91.890383 
z
" style="fill:#808080;"/>
   </g>
   <g id="patch_168">
    <path clip-path="url(#pa443b099ef)" d="M 264.833872 307.584 
L 267.772346 307.584 
L 267.772346 307.584 
L 264.833872 307.584 
z
" style="fill:#808080;"/>
   </g>
   <g id="patch_169">
    <path clip-path="url(#pa443b099ef)" d="M 267.77235 307.584 
L 270.710824 307.584 
L 270.710824 307.584 
L 267.77235 307.584 
z
" style="fill:#808080;"/>
   </g>
   <g id="patch_170">
    <path clip-path="url(#pa443b099ef)" d="M 270.710829 307.584 
L 273.649303 307.584 
L 273.649303 135.029106 
L 270.710829 135.029106 
z
" style="fill:#808080;"/>
   </g>
   <g id="patch_171">
    <path clip-path="url(#pa443b099ef)" d="M 273.64931 307.584 
L 276.587784 307.584 
L 276.587784 307.584 
L 273.64931 307.584 
z
" style="fill:#808080;"/>
   </g>
   <g id="patch_172">
    <path clip-path="url(#pa443b099ef)" d="M 276.587788 307.584 
L 279.526262 307.584 
L 279.526262 307.584 
L 276.587788 307.584 
z
" style="fill:#808080;"/>
   </g>
   <g id="patch_173">
    <path clip-path="url(#pa443b099ef)" d="M 279.526267 307.584 
L 282.464741 307.584 
L 282.464741 167.383149 
L 279.526267 167.383149 
z
" style="fill:#808080;"/>
   </g>
   <g id="patch_174">
    <path clip-path="url(#pa443b099ef)" d="M 282.464745 307.584 
L 285.403219 307.584 
L 285.403219 307.584 
L 282.464745 307.584 
z
" style="fill:#808080;"/>
   </g>
   <g id="patch_175">
    <path clip-path="url(#pa443b099ef)" d="M 285.403224 307.584 
L 288.341698 307.584 
L 288.341698 307.584 
L 285.403224 307.584 
z
" style="fill:#808080;"/>
   </g>
   <g id="patch_176">
    <path clip-path="url(#pa443b099ef)" d="M 288.341702 307.584 
L 291.280177 307.584 
L 291.280177 307.584 
L 288.341702 307.584 
z
" style="fill:#808080;"/>
   </g>
   <g id="patch_177">
    <path clip-path="url(#pa443b099ef)" d="M 291.280186 307.584 
L 294.21866 307.584 
L 294.21866 188.952511 
L 291.280186 188.952511 
z
" style="fill:#808080;"/>
   </g>
   <g id="patch_178">
    <path clip-path="url(#pa443b099ef)" d="M 294.21866 307.584 
L 297.157134 307.584 
L 297.157134 307.584 
L 294.21866 307.584 
z
" style="fill:#808080;"/>
   </g>
   <g id="patch_179">
    <path clip-path="url(#pa443b099ef)" d="M 297.157143 307.584 
L 300.095617 307.584 
L 300.095617 307.584 
L 297.157143 307.584 
z
" style="fill:#808080;"/>
   </g>
   <g id="patch_180">
    <path clip-path="url(#pa443b099ef)" d="M 300.095617 307.584 
L 303.034091 307.584 
L 303.034091 188.952511 
L 300.095617 188.952511 
z
" style="fill:#808080;"/>
   </g>
   <g id="patch_181">
    <path clip-path="url(#pa443b099ef)" d="M 303.0341 307.584 
L 305.972574 307.584 
L 305.972574 307.584 
L 303.0341 307.584 
z
" style="fill:#808080;"/>
   </g>
   <g id="patch_182">
    <path clip-path="url(#pa443b099ef)" d="M 305.972569 307.584 
L 308.911061 307.584 
L 308.911061 307.584 
L 305.972569 307.584 
z
" style="fill:#808080;"/>
   </g>
   <g id="patch_183">
    <path clip-path="url(#pa443b099ef)" d="M 308.911057 307.584 
L 311.849531 307.584 
L 311.849531 248.268255 
L 308.911057 248.268255 
z
" style="fill:#808080;"/>
   </g>
   <g id="patch_184">
    <path clip-path="url(#pa443b099ef)" d="M 311.84954 307.584 
L 314.788014 307.584 
L 314.788014 307.584 
L 311.84954 307.584 
z
" style="fill:#808080;"/>
   </g>
   <g id="patch_185">
    <path clip-path="url(#pa443b099ef)" d="M 314.788014 307.584 
L 317.726488 307.584 
L 317.726488 307.584 
L 314.788014 307.584 
z
" style="fill:#808080;"/>
   </g>
   <g id="patch_186">
    <path clip-path="url(#pa443b099ef)" d="M 317.726497 307.584 
L 320.664971 307.584 
L 320.664971 269.837617 
L 317.726497 269.837617 
z
" style="fill:#808080;"/>
   </g>
   <g id="patch_187">
    <path clip-path="url(#pa443b099ef)" d="M 320.664971 307.584 
L 323.603445 307.584 
L 323.603445 307.584 
L 320.664971 307.584 
z
" style="fill:#808080;"/>
   </g>
   <g id="patch_188">
    <path clip-path="url(#pa443b099ef)" d="M 323.603454 307.584 
L 326.541928 307.584 
L 326.541928 307.584 
L 323.603454 307.584 
z
" style="fill:#808080;"/>
   </g>
   <g id="patch_189">
    <path clip-path="url(#pa443b099ef)" d="M 326.541928 307.584 
L 329.48042 307.584 
L 329.48042 307.584 
L 326.541928 307.584 
z
" style="fill:#808080;"/>
   </g>
   <g id="patch_190">
    <path clip-path="url(#pa443b099ef)" d="M 329.480411 307.584 
L 332.418885 307.584 
L 332.418885 269.837617 
L 329.480411 269.837617 
z
" style="fill:#808080;"/>
   </g>
   <g id="patch_191">
    <path clip-path="url(#pa443b099ef)" d="M 332.418876 307.584 
L 335.357368 307.584 
L 335.357368 307.584 
L 332.418876 307.584 
z
" style="fill:#808080;"/>
   </g>
   <g id="patch_192">
    <path clip-path="url(#pa443b099ef)" d="M 335.357368 307.584 
L 338.295842 307.584 
L 338.295842 307.584 
L 335.357368 307.584 
z
" style="fill:#808080;"/>
   </g>
   <g id="patch_193">
    <path clip-path="url(#pa443b099ef)" d="M 338.295842 307.584 
L 341.234335 307.584 
L 341.234335 264.445277 
L 338.295842 264.445277 
z
" style="fill:#808080;"/>
   </g>
   <g id="patch_194">
    <path clip-path="url(#pa443b099ef)" d="M 341.234316 307.584 
L 344.172809 307.584 
L 344.172809 307.584 
L 341.234316 307.584 
z
" style="fill:#808080;"/>
   </g>
   <g id="patch_195">
    <path clip-path="url(#pa443b099ef)" d="M 344.172809 307.584 
L 347.111283 307.584 
L 347.111283 307.584 
L 344.172809 307.584 
z
" style="fill:#808080;"/>
   </g>
   <g id="patch_196">
    <path clip-path="url(#pa443b099ef)" d="M 347.111283 307.584 
L 350.049775 307.584 
L 350.049775 259.052936 
L 347.111283 259.052936 
z
" style="fill:#808080;"/>
   </g>
   <g id="patch_197">
    <path clip-path="url(#pa443b099ef)" d="M 350.049766 307.584 
L 352.98824 307.584 
L 352.98824 307.584 
L 350.049766 307.584 
z
" style="fill:#808080;"/>
   </g>
   <g id="patch_198">
    <path clip-path="url(#pa443b099ef)" d="M 352.988231 307.584 
L 355.926723 307.584 
L 355.926723 307.584 
L 352.988231 307.584 
z
" style="fill:#808080;"/>
   </g>
   <g id="patch_199">
    <path clip-path="url(#pa443b099ef)" d="M 355.926723 307.584 
L 358.865197 307.584 
L 358.865197 286.014638 
L 355.926723 286.014638 
z
" style="fill:#808080;"/>
   </g>
   <g id="patch_200">
    <path clip-path="url(#pa443b099ef)" d="M 358.865197 307.584 
L 361.803689 307.584 
L 361.803689 307.584 
L 358.865197 307.584 
z
" style="fill:#808080;"/>
   </g>
   <g id="patch_201">
    <path clip-path="url(#pa443b099ef)" d="M 361.80368 307.584 
L 364.742154 307.584 
L 364.742154 307.584 
L 361.80368 307.584 
z
" style="fill:#808080;"/>
   </g>
   <g id="patch_202">
    <path clip-path="url(#pa443b099ef)" d="M 364.742145 307.584 
L 367.680637 307.584 
L 367.680637 302.19166 
L 364.742145 302.19166 
z
" style="fill:#808080;"/>
   </g>
   <g id="matplotlib.axis_1">
    <g id="xtick_1">
     <g id="line2d_1">
      <defs>
       <path d="M 0 0 
L 0 3.5 
" id="m0e1419984c" style="stroke:#000000;stroke-width:0.8;"/>
      </defs>
      <g>
       <use style="stroke:#000000;stroke-width:0.8;" x="70.278115" xlink:href="#m0e1419984c" y="307.584"/>
      </g>
     </g>
     <g id="text_1">
      <!-- −150 -->
      <defs>
       <path d="M 10.59375 35.5 
L 73.1875 35.5 
L 73.1875 27.203125 
L 10.59375 27.203125 
z
" id="DejaVuSans-8722"/>
       <path d="M 12.40625 8.296875 
L 28.515625 8.296875 
L 28.515625 63.921875 
L 10.984375 60.40625 
L 10.984375 69.390625 
L 28.421875 72.90625 
L 38.28125 72.90625 
L 38.28125 8.296875 
L 54.390625 8.296875 
L 54.390625 0 
L 12.40625 0 
z
" id="DejaVuSans-49"/>
       <path d="M 10.796875 72.90625 
L 49.515625 72.90625 
L 49.515625 64.59375 
L 19.828125 64.59375 
L 19.828125 46.734375 
Q 21.96875 47.46875 24.109375 47.828125 
Q 26.265625 48.1875 28.421875 48.1875 
Q 40.625 48.1875 47.75 41.5 
Q 54.890625 34.8125 54.890625 23.390625 
Q 54.890625 11.625 47.5625 5.09375 
Q 40.234375 -1.421875 26.90625 -1.421875 
Q 22.3125 -1.421875 17.546875 -0.640625 
Q 12.796875 0.140625 7.71875 1.703125 
L 7.71875 11.625 
Q 12.109375 9.234375 16.796875 8.0625 
Q 21.484375 6.890625 26.703125 6.890625 
Q 35.15625 6.890625 40.078125 11.328125 
Q 45.015625 15.765625 45.015625 23.390625 
Q 45.015625 31 40.078125 35.4375 
Q 35.15625 39.890625 26.703125 39.890625 
Q 22.75 39.890625 18.8125 39.015625 
Q 14.890625 38.140625 10.796875 36.28125 
z
" id="DejaVuSans-53"/>
       <path d="M 31.78125 66.40625 
Q 24.171875 66.40625 20.328125 58.90625 
Q 16.5 51.421875 16.5 36.375 
Q 16.5 21.390625 20.328125 13.890625 
Q 24.171875 6.390625 31.78125 6.390625 
Q 39.453125 6.390625 43.28125 13.890625 
Q 47.125 21.390625 47.125 36.375 
Q 47.125 51.421875 43.28125 58.90625 
Q 39.453125 66.40625 31.78125 66.40625 
z
M 31.78125 74.21875 
Q 44.046875 74.21875 50.515625 64.515625 
Q 56.984375 54.828125 56.984375 36.375 
Q 56.984375 17.96875 50.515625 8.265625 
Q 44.046875 -1.421875 31.78125 -1.421875 
Q 19.53125 -1.421875 13.0625 8.265625 
Q 6.59375 17.96875 6.59375 36.375 
Q 6.59375 54.828125 13.0625 64.515625 
Q 19.53125 74.21875 31.78125 74.21875 
z
" id="DejaVuSans-48"/>
      </defs>
      <g transform="translate(56.544522 322.182437)scale(0.1 -0.1)">
       <use xlink:href="#DejaVuSans-8722"/>
       <use x="83.789062" xlink:href="#DejaVuSans-49"/>
       <use x="147.412109" xlink:href="#DejaVuSans-53"/>
       <use x="211.035156" xlink:href="#DejaVuSans-48"/>
      </g>
     </g>
    </g>
    <g id="xtick_2">
     <g id="line2d_2">
      <g>
       <use style="stroke:#000000;stroke-width:0.8;" x="129.521646" xlink:href="#m0e1419984c" y="307.584"/>
      </g>
     </g>
     <g id="text_2">
      <!-- −100 -->
      <g transform="translate(115.788052 322.182437)scale(0.1 -0.1)">
       <use xlink:href="#DejaVuSans-8722"/>
       <use x="83.789062" xlink:href="#DejaVuSans-49"/>
       <use x="147.412109" xlink:href="#DejaVuSans-48"/>
       <use x="211.035156" xlink:href="#DejaVuSans-48"/>
      </g>
     </g>
    </g>
    <g id="xtick_3">
     <g id="line2d_3">
      <g>
       <use style="stroke:#000000;stroke-width:0.8;" x="188.765176" xlink:href="#m0e1419984c" y="307.584"/>
      </g>
     </g>
     <g id="text_3">
      <!-- −50 -->
      <g transform="translate(178.212832 322.182437)scale(0.1 -0.1)">
       <use xlink:href="#DejaVuSans-8722"/>
       <use x="83.789062" xlink:href="#DejaVuSans-53"/>
       <use x="147.412109" xlink:href="#DejaVuSans-48"/>
      </g>
     </g>
    </g>
    <g id="xtick_4">
     <g id="line2d_4">
      <g>
       <use style="stroke:#000000;stroke-width:0.8;" x="248.008706" xlink:href="#m0e1419984c" y="307.584"/>
      </g>
     </g>
     <g id="text_4">
      <!-- 0 -->
      <g transform="translate(244.827456 322.182437)scale(0.1 -0.1)">
       <use xlink:href="#DejaVuSans-48"/>
      </g>
     </g>
    </g>
    <g id="xtick_5">
     <g id="line2d_5">
      <g>
       <use style="stroke:#000000;stroke-width:0.8;" x="307.252236" xlink:href="#m0e1419984c" y="307.584"/>
      </g>
     </g>
     <g id="text_5">
      <!-- 50 -->
      <g transform="translate(300.889736 322.182437)scale(0.1 -0.1)">
       <use xlink:href="#DejaVuSans-53"/>
       <use x="63.623047" xlink:href="#DejaVuSans-48"/>
      </g>
     </g>
    </g>
    <g id="xtick_6">
     <g id="line2d_6">
      <g>
       <use style="stroke:#000000;stroke-width:0.8;" x="366.495766" xlink:href="#m0e1419984c" y="307.584"/>
      </g>
     </g>
     <g id="text_6">
      <!-- 100 -->
      <g transform="translate(356.952016 322.182437)scale(0.1 -0.1)">
       <use xlink:href="#DejaVuSans-49"/>
       <use x="63.623047" xlink:href="#DejaVuSans-48"/>
       <use x="127.246094" xlink:href="#DejaVuSans-48"/>
      </g>
     </g>
    </g>
    <g id="text_7">
     <!-- Weight -->
     <defs>
      <path d="M 3.328125 72.90625 
L 13.28125 72.90625 
L 28.609375 11.28125 
L 43.890625 72.90625 
L 54.984375 72.90625 
L 70.3125 11.28125 
L 85.59375 72.90625 
L 95.609375 72.90625 
L 77.296875 0 
L 64.890625 0 
L 49.515625 63.28125 
L 33.984375 0 
L 21.578125 0 
z
" id="DejaVuSans-87"/>
      <path d="M 56.203125 29.59375 
L 56.203125 25.203125 
L 14.890625 25.203125 
Q 15.484375 15.921875 20.484375 11.0625 
Q 25.484375 6.203125 34.421875 6.203125 
Q 39.59375 6.203125 44.453125 7.46875 
Q 49.3125 8.734375 54.109375 11.28125 
L 54.109375 2.78125 
Q 49.265625 0.734375 44.1875 -0.34375 
Q 39.109375 -1.421875 33.890625 -1.421875 
Q 20.796875 -1.421875 13.15625 6.1875 
Q 5.515625 13.8125 5.515625 26.8125 
Q 5.515625 40.234375 12.765625 48.109375 
Q 20.015625 56 32.328125 56 
Q 43.359375 56 49.78125 48.890625 
Q 56.203125 41.796875 56.203125 29.59375 
z
M 47.21875 32.234375 
Q 47.125 39.59375 43.09375 43.984375 
Q 39.0625 48.390625 32.421875 48.390625 
Q 24.90625 48.390625 20.390625 44.140625 
Q 15.875 39.890625 15.1875 32.171875 
z
" id="DejaVuSans-101"/>
      <path d="M 9.421875 54.6875 
L 18.40625 54.6875 
L 18.40625 0 
L 9.421875 0 
z
M 9.421875 75.984375 
L 18.40625 75.984375 
L 18.40625 64.59375 
L 9.421875 64.59375 
z
" id="DejaVuSans-105"/>
      <path d="M 45.40625 27.984375 
Q 45.40625 37.75 41.375 43.109375 
Q 37.359375 48.484375 30.078125 48.484375 
Q 22.859375 48.484375 18.828125 43.109375 
Q 14.796875 37.75 14.796875 27.984375 
Q 14.796875 18.265625 18.828125 12.890625 
Q 22.859375 7.515625 30.078125 7.515625 
Q 37.359375 7.515625 41.375 12.890625 
Q 45.40625 18.265625 45.40625 27.984375 
z
M 54.390625 6.78125 
Q 54.390625 -7.171875 48.1875 -13.984375 
Q 42 -20.796875 29.203125 -20.796875 
Q 24.46875 -20.796875 20.265625 -20.09375 
Q 16.0625 -19.390625 12.109375 -17.921875 
L 12.109375 -9.1875 
Q 16.0625 -11.328125 19.921875 -12.34375 
Q 23.78125 -13.375 27.78125 -13.375 
Q 36.625 -13.375 41.015625 -8.765625 
Q 45.40625 -4.15625 45.40625 5.171875 
L 45.40625 9.625 
Q 42.625 4.78125 38.28125 2.390625 
Q 33.9375 0 27.875 0 
Q 17.828125 0 11.671875 7.65625 
Q 5.515625 15.328125 5.515625 27.984375 
Q 5.515625 40.671875 11.671875 48.328125 
Q 17.828125 56 27.875 56 
Q 33.9375 56 38.28125 53.609375 
Q 42.625 51.21875 45.40625 46.390625 
L 45.40625 54.6875 
L 54.390625 54.6875 
z
" id="DejaVuSans-103"/>
      <path d="M 54.890625 33.015625 
L 54.890625 0 
L 45.90625 0 
L 45.90625 32.71875 
Q 45.90625 40.484375 42.875 44.328125 
Q 39.84375 48.1875 33.796875 48.1875 
Q 26.515625 48.1875 22.3125 43.546875 
Q 18.109375 38.921875 18.109375 30.90625 
L 18.109375 0 
L 9.078125 0 
L 9.078125 75.984375 
L 18.109375 75.984375 
L 18.109375 46.1875 
Q 21.34375 51.125 25.703125 53.5625 
Q 30.078125 56 35.796875 56 
Q 45.21875 56 50.046875 50.171875 
Q 54.890625 44.34375 54.890625 33.015625 
z
" id="DejaVuSans-104"/>
      <path d="M 18.3125 70.21875 
L 18.3125 54.6875 
L 36.8125 54.6875 
L 36.8125 47.703125 
L 18.3125 47.703125 
L 18.3125 18.015625 
Q 18.3125 11.328125 20.140625 9.421875 
Q 21.96875 7.515625 27.59375 7.515625 
L 36.8125 7.515625 
L 36.8125 0 
L 27.59375 0 
Q 17.1875 0 13.234375 3.875 
Q 9.28125 7.765625 9.28125 18.015625 
L 9.28125 47.703125 
L 2.6875 47.703125 
L 2.6875 54.6875 
L 9.28125 54.6875 
L 9.28125 70.21875 
z
" id="DejaVuSans-116"/>
     </defs>
     <g transform="translate(218.451406 335.860562)scale(0.1 -0.1)">
      <use xlink:href="#DejaVuSans-87"/>
      <use x="98.798828" xlink:href="#DejaVuSans-101"/>
      <use x="160.322266" xlink:href="#DejaVuSans-105"/>
      <use x="188.105469" xlink:href="#DejaVuSans-103"/>
      <use x="251.582031" xlink:href="#DejaVuSans-104"/>
      <use x="314.960938" xlink:href="#DejaVuSans-116"/>
     </g>
    </g>
   </g>
   <g id="matplotlib.axis_2">
    <g id="ytick_1">
     <g id="line2d_7">
      <defs>
       <path d="M 0 0 
L -3.5 0 
" id="mb27b511801" style="stroke:#000000;stroke-width:0.8;"/>
      </defs>
      <g>
       <use style="stroke:#000000;stroke-width:0.8;" x="57.6" xlink:href="#mb27b511801" y="307.584"/>
      </g>
     </g>
     <g id="text_8">
      <!-- 0 -->
      <g transform="translate(44.2375 311.383219)scale(0.1 -0.1)">
       <use xlink:href="#DejaVuSans-48"/>
      </g>
     </g>
    </g>
    <g id="ytick_2">
     <g id="line2d_8">
      <g>
       <use style="stroke:#000000;stroke-width:0.8;" x="57.6" xlink:href="#mb27b511801" y="253.660596"/>
      </g>
     </g>
     <g id="text_9">
      <!-- 10 -->
      <g transform="translate(37.875 257.459814)scale(0.1 -0.1)">
       <use xlink:href="#DejaVuSans-49"/>
       <use x="63.623047" xlink:href="#DejaVuSans-48"/>
      </g>
     </g>
    </g>
    <g id="ytick_3">
     <g id="line2d_9">
      <g>
       <use style="stroke:#000000;stroke-width:0.8;" x="57.6" xlink:href="#mb27b511801" y="199.737191"/>
      </g>
     </g>
     <g id="text_10">
      <!-- 20 -->
      <defs>
       <path d="M 19.1875 8.296875 
L 53.609375 8.296875 
L 53.609375 0 
L 7.328125 0 
L 7.328125 8.296875 
Q 12.9375 14.109375 22.625 23.890625 
Q 32.328125 33.6875 34.8125 36.53125 
Q 39.546875 41.84375 41.421875 45.53125 
Q 43.3125 49.21875 43.3125 52.78125 
Q 43.3125 58.59375 39.234375 62.25 
Q 35.15625 65.921875 28.609375 65.921875 
Q 23.96875 65.921875 18.8125 64.3125 
Q 13.671875 62.703125 7.8125 59.421875 
L 7.8125 69.390625 
Q 13.765625 71.78125 18.9375 73 
Q 24.125 74.21875 28.421875 74.21875 
Q 39.75 74.21875 46.484375 68.546875 
Q 53.21875 62.890625 53.21875 53.421875 
Q 53.21875 48.921875 51.53125 44.890625 
Q 49.859375 40.875 45.40625 35.40625 
Q 44.1875 33.984375 37.640625 27.21875 
Q 31.109375 20.453125 19.1875 8.296875 
z
" id="DejaVuSans-50"/>
      </defs>
      <g transform="translate(37.875 203.53641)scale(0.1 -0.1)">
       <use xlink:href="#DejaVuSans-50"/>
       <use x="63.623047" xlink:href="#DejaVuSans-48"/>
      </g>
     </g>
    </g>
    <g id="ytick_4">
     <g id="line2d_10">
      <g>
       <use style="stroke:#000000;stroke-width:0.8;" x="57.6" xlink:href="#mb27b511801" y="145.813787"/>
      </g>
     </g>
     <g id="text_11">
      <!-- 30 -->
      <defs>
       <path d="M 40.578125 39.3125 
Q 47.65625 37.796875 51.625 33 
Q 55.609375 28.21875 55.609375 21.1875 
Q 55.609375 10.40625 48.1875 4.484375 
Q 40.765625 -1.421875 27.09375 -1.421875 
Q 22.515625 -1.421875 17.65625 -0.515625 
Q 12.796875 0.390625 7.625 2.203125 
L 7.625 11.71875 
Q 11.71875 9.328125 16.59375 8.109375 
Q 21.484375 6.890625 26.8125 6.890625 
Q 36.078125 6.890625 40.9375 10.546875 
Q 45.796875 14.203125 45.796875 21.1875 
Q 45.796875 27.640625 41.28125 31.265625 
Q 36.765625 34.90625 28.71875 34.90625 
L 20.21875 34.90625 
L 20.21875 43.015625 
L 29.109375 43.015625 
Q 36.375 43.015625 40.234375 45.921875 
Q 44.09375 48.828125 44.09375 54.296875 
Q 44.09375 59.90625 40.109375 62.90625 
Q 36.140625 65.921875 28.71875 65.921875 
Q 24.65625 65.921875 20.015625 65.03125 
Q 15.375 64.15625 9.8125 62.3125 
L 9.8125 71.09375 
Q 15.4375 72.65625 20.34375 73.4375 
Q 25.25 74.21875 29.59375 74.21875 
Q 40.828125 74.21875 47.359375 69.109375 
Q 53.90625 64.015625 53.90625 55.328125 
Q 53.90625 49.265625 50.4375 45.09375 
Q 46.96875 40.921875 40.578125 39.3125 
z
" id="DejaVuSans-51"/>
      </defs>
      <g transform="translate(37.875 149.613006)scale(0.1 -0.1)">
       <use xlink:href="#DejaVuSans-51"/>
       <use x="63.623047" xlink:href="#DejaVuSans-48"/>
      </g>
     </g>
    </g>
    <g id="ytick_5">
     <g id="line2d_11">
      <g>
       <use style="stroke:#000000;stroke-width:0.8;" x="57.6" xlink:href="#mb27b511801" y="91.890383"/>
      </g>
     </g>
     <g id="text_12">
      <!-- 40 -->
      <defs>
       <path d="M 37.796875 64.3125 
L 12.890625 25.390625 
L 37.796875 25.390625 
z
M 35.203125 72.90625 
L 47.609375 72.90625 
L 47.609375 25.390625 
L 58.015625 25.390625 
L 58.015625 17.1875 
L 47.609375 17.1875 
L 47.609375 0 
L 37.796875 0 
L 37.796875 17.1875 
L 4.890625 17.1875 
L 4.890625 26.703125 
z
" id="DejaVuSans-52"/>
      </defs>
      <g transform="translate(37.875 95.689602)scale(0.1 -0.1)">
       <use xlink:href="#DejaVuSans-52"/>
       <use x="63.623047" xlink:href="#DejaVuSans-48"/>
      </g>
     </g>
    </g>
    <g id="text_13">
     <!-- Occurrencies -->
     <defs>
      <path d="M 39.40625 66.21875 
Q 28.65625 66.21875 22.328125 58.203125 
Q 16.015625 50.203125 16.015625 36.375 
Q 16.015625 22.609375 22.328125 14.59375 
Q 28.65625 6.59375 39.40625 6.59375 
Q 50.140625 6.59375 56.421875 14.59375 
Q 62.703125 22.609375 62.703125 36.375 
Q 62.703125 50.203125 56.421875 58.203125 
Q 50.140625 66.21875 39.40625 66.21875 
z
M 39.40625 74.21875 
Q 54.734375 74.21875 63.90625 63.9375 
Q 73.09375 53.65625 73.09375 36.375 
Q 73.09375 19.140625 63.90625 8.859375 
Q 54.734375 -1.421875 39.40625 -1.421875 
Q 24.03125 -1.421875 14.8125 8.828125 
Q 5.609375 19.09375 5.609375 36.375 
Q 5.609375 53.65625 14.8125 63.9375 
Q 24.03125 74.21875 39.40625 74.21875 
z
" id="DejaVuSans-79"/>
      <path d="M 48.78125 52.59375 
L 48.78125 44.1875 
Q 44.96875 46.296875 41.140625 47.34375 
Q 37.3125 48.390625 33.40625 48.390625 
Q 24.65625 48.390625 19.8125 42.84375 
Q 14.984375 37.3125 14.984375 27.296875 
Q 14.984375 17.28125 19.8125 11.734375 
Q 24.65625 6.203125 33.40625 6.203125 
Q 37.3125 6.203125 41.140625 7.25 
Q 44.96875 8.296875 48.78125 10.40625 
L 48.78125 2.09375 
Q 45.015625 0.34375 40.984375 -0.53125 
Q 36.96875 -1.421875 32.421875 -1.421875 
Q 20.0625 -1.421875 12.78125 6.34375 
Q 5.515625 14.109375 5.515625 27.296875 
Q 5.515625 40.671875 12.859375 48.328125 
Q 20.21875 56 33.015625 56 
Q 37.15625 56 41.109375 55.140625 
Q 45.0625 54.296875 48.78125 52.59375 
z
" id="DejaVuSans-99"/>
      <path d="M 8.5 21.578125 
L 8.5 54.6875 
L 17.484375 54.6875 
L 17.484375 21.921875 
Q 17.484375 14.15625 20.5 10.265625 
Q 23.53125 6.390625 29.59375 6.390625 
Q 36.859375 6.390625 41.078125 11.03125 
Q 45.3125 15.671875 45.3125 23.6875 
L 45.3125 54.6875 
L 54.296875 54.6875 
L 54.296875 0 
L 45.3125 0 
L 45.3125 8.40625 
Q 42.046875 3.421875 37.71875 1 
Q 33.40625 -1.421875 27.6875 -1.421875 
Q 18.265625 -1.421875 13.375 4.4375 
Q 8.5 10.296875 8.5 21.578125 
z
M 31.109375 56 
z
" id="DejaVuSans-117"/>
      <path d="M 41.109375 46.296875 
Q 39.59375 47.171875 37.8125 47.578125 
Q 36.03125 48 33.890625 48 
Q 26.265625 48 22.1875 43.046875 
Q 18.109375 38.09375 18.109375 28.8125 
L 18.109375 0 
L 9.078125 0 
L 9.078125 54.6875 
L 18.109375 54.6875 
L 18.109375 46.1875 
Q 20.953125 51.171875 25.484375 53.578125 
Q 30.03125 56 36.53125 56 
Q 37.453125 56 38.578125 55.875 
Q 39.703125 55.765625 41.0625 55.515625 
z
" id="DejaVuSans-114"/>
      <path d="M 54.890625 33.015625 
L 54.890625 0 
L 45.90625 0 
L 45.90625 32.71875 
Q 45.90625 40.484375 42.875 44.328125 
Q 39.84375 48.1875 33.796875 48.1875 
Q 26.515625 48.1875 22.3125 43.546875 
Q 18.109375 38.921875 18.109375 30.90625 
L 18.109375 0 
L 9.078125 0 
L 9.078125 54.6875 
L 18.109375 54.6875 
L 18.109375 46.1875 
Q 21.34375 51.125 25.703125 53.5625 
Q 30.078125 56 35.796875 56 
Q 45.21875 56 50.046875 50.171875 
Q 54.890625 44.34375 54.890625 33.015625 
z
" id="DejaVuSans-110"/>
      <path d="M 44.28125 53.078125 
L 44.28125 44.578125 
Q 40.484375 46.53125 36.375 47.5 
Q 32.28125 48.484375 27.875 48.484375 
Q 21.1875 48.484375 17.84375 46.4375 
Q 14.5 44.390625 14.5 40.28125 
Q 14.5 37.15625 16.890625 35.375 
Q 19.28125 33.59375 26.515625 31.984375 
L 29.59375 31.296875 
Q 39.15625 29.25 43.1875 25.515625 
Q 47.21875 21.78125 47.21875 15.09375 
Q 47.21875 7.46875 41.1875 3.015625 
Q 35.15625 -1.421875 24.609375 -1.421875 
Q 20.21875 -1.421875 15.453125 -0.5625 
Q 10.6875 0.296875 5.421875 2 
L 5.421875 11.28125 
Q 10.40625 8.6875 15.234375 7.390625 
Q 20.0625 6.109375 24.8125 6.109375 
Q 31.15625 6.109375 34.5625 8.28125 
Q 37.984375 10.453125 37.984375 14.40625 
Q 37.984375 18.0625 35.515625 20.015625 
Q 33.0625 21.96875 24.703125 23.78125 
L 21.578125 24.515625 
Q 13.234375 26.265625 9.515625 29.90625 
Q 5.8125 33.546875 5.8125 39.890625 
Q 5.8125 47.609375 11.28125 51.796875 
Q 16.75 56 26.8125 56 
Q 31.78125 56 36.171875 55.265625 
Q 40.578125 54.546875 44.28125 53.078125 
z
" id="DejaVuSans-115"/>
     </defs>
     <g transform="translate(31.795312 207.304563)rotate(-90)scale(0.1 -0.1)">
      <use xlink:href="#DejaVuSans-79"/>
      <use x="78.710938" xlink:href="#DejaVuSans-99"/>
      <use x="133.691406" xlink:href="#DejaVuSans-99"/>
      <use x="188.671875" xlink:href="#DejaVuSans-117"/>
      <use x="252.050781" xlink:href="#DejaVuSans-114"/>
      <use x="293.148438" xlink:href="#DejaVuSans-114"/>
      <use x="334.230469" xlink:href="#DejaVuSans-101"/>
      <use x="395.753906" xlink:href="#DejaVuSans-110"/>
      <use x="459.132812" xlink:href="#DejaVuSans-99"/>
      <use x="514.113281" xlink:href="#DejaVuSans-105"/>
      <use x="541.896484" xlink:href="#DejaVuSans-101"/>
      <use x="603.419922" xlink:href="#DejaVuSans-115"/>
     </g>
    </g>
   </g>
   <g id="patch_203">
    <path d="M 57.6 307.584 
L 57.6 41.472 
" style="fill:none;stroke:#000000;stroke-linecap:square;stroke-linejoin:miter;stroke-width:0.8;"/>
   </g>
   <g id="patch_204">
    <path d="M 414.72 307.584 
L 414.72 41.472 
" style="fill:none;stroke:#000000;stroke-linecap:square;stroke-linejoin:miter;stroke-width:0.8;"/>
   </g>
   <g id="patch_205">
    <path d="M 57.6 307.584 
L 414.72 307.584 
" style="fill:none;stroke:#000000;stroke-linecap:square;stroke-linejoin:miter;stroke-width:0.8;"/>
   </g>
   <g id="patch_206">
    <path d="M 57.6 41.472 
L 414.72 41.472 
" style="fill:none;stroke:#000000;stroke-linecap:square;stroke-linejoin:miter;stroke-width:0.8;"/>
   </g>
   <g id="text_14">
    <!-- Histogram of conv1 -->
    <defs>
     <path d="M 9.8125 72.90625 
L 19.671875 72.90625 
L 19.671875 43.015625 
L 55.515625 43.015625 
L 55.515625 72.90625 
L 65.375 72.90625 
L 65.375 0 
L 55.515625 0 
L 55.515625 34.71875 
L 19.671875 34.71875 
L 19.671875 0 
L 9.8125 0 
z
" id="DejaVuSans-72"/>
     <path d="M 30.609375 48.390625 
Q 23.390625 48.390625 19.1875 42.75 
Q 14.984375 37.109375 14.984375 27.296875 
Q 14.984375 17.484375 19.15625 11.84375 
Q 23.34375 6.203125 30.609375 6.203125 
Q 37.796875 6.203125 41.984375 11.859375 
Q 46.1875 17.53125 46.1875 27.296875 
Q 46.1875 37.015625 41.984375 42.703125 
Q 37.796875 48.390625 30.609375 48.390625 
z
M 30.609375 56 
Q 42.328125 56 49.015625 48.375 
Q 55.71875 40.765625 55.71875 27.296875 
Q 55.71875 13.875 49.015625 6.21875 
Q 42.328125 -1.421875 30.609375 -1.421875 
Q 18.84375 -1.421875 12.171875 6.21875 
Q 5.515625 13.875 5.515625 27.296875 
Q 5.515625 40.765625 12.171875 48.375 
Q 18.84375 56 30.609375 56 
z
" id="DejaVuSans-111"/>
     <path d="M 34.28125 27.484375 
Q 23.390625 27.484375 19.1875 25 
Q 14.984375 22.515625 14.984375 16.5 
Q 14.984375 11.71875 18.140625 8.90625 
Q 21.296875 6.109375 26.703125 6.109375 
Q 34.1875 6.109375 38.703125 11.40625 
Q 43.21875 16.703125 43.21875 25.484375 
L 43.21875 27.484375 
z
M 52.203125 31.203125 
L 52.203125 0 
L 43.21875 0 
L 43.21875 8.296875 
Q 40.140625 3.328125 35.546875 0.953125 
Q 30.953125 -1.421875 24.3125 -1.421875 
Q 15.921875 -1.421875 10.953125 3.296875 
Q 6 8.015625 6 15.921875 
Q 6 25.140625 12.171875 29.828125 
Q 18.359375 34.515625 30.609375 34.515625 
L 43.21875 34.515625 
L 43.21875 35.40625 
Q 43.21875 41.609375 39.140625 45 
Q 35.0625 48.390625 27.6875 48.390625 
Q 23 48.390625 18.546875 47.265625 
Q 14.109375 46.140625 10.015625 43.890625 
L 10.015625 52.203125 
Q 14.9375 54.109375 19.578125 55.046875 
Q 24.21875 56 28.609375 56 
Q 40.484375 56 46.34375 49.84375 
Q 52.203125 43.703125 52.203125 31.203125 
z
" id="DejaVuSans-97"/>
     <path d="M 52 44.1875 
Q 55.375 50.25 60.0625 53.125 
Q 64.75 56 71.09375 56 
Q 79.640625 56 84.28125 50.015625 
Q 88.921875 44.046875 88.921875 33.015625 
L 88.921875 0 
L 79.890625 0 
L 79.890625 32.71875 
Q 79.890625 40.578125 77.09375 44.375 
Q 74.3125 48.1875 68.609375 48.1875 
Q 61.625 48.1875 57.5625 43.546875 
Q 53.515625 38.921875 53.515625 30.90625 
L 53.515625 0 
L 44.484375 0 
L 44.484375 32.71875 
Q 44.484375 40.625 41.703125 44.40625 
Q 38.921875 48.1875 33.109375 48.1875 
Q 26.21875 48.1875 22.15625 43.53125 
Q 18.109375 38.875 18.109375 30.90625 
L 18.109375 0 
L 9.078125 0 
L 9.078125 54.6875 
L 18.109375 54.6875 
L 18.109375 46.1875 
Q 21.1875 51.21875 25.484375 53.609375 
Q 29.78125 56 35.6875 56 
Q 41.65625 56 45.828125 52.96875 
Q 50 49.953125 52 44.1875 
z
" id="DejaVuSans-109"/>
     <path id="DejaVuSans-32"/>
     <path d="M 37.109375 75.984375 
L 37.109375 68.5 
L 28.515625 68.5 
Q 23.6875 68.5 21.796875 66.546875 
Q 19.921875 64.59375 19.921875 59.515625 
L 19.921875 54.6875 
L 34.71875 54.6875 
L 34.71875 47.703125 
L 19.921875 47.703125 
L 19.921875 0 
L 10.890625 0 
L 10.890625 47.703125 
L 2.296875 47.703125 
L 2.296875 54.6875 
L 10.890625 54.6875 
L 10.890625 58.5 
Q 10.890625 67.625 15.140625 71.796875 
Q 19.390625 75.984375 28.609375 75.984375 
z
" id="DejaVuSans-102"/>
     <path d="M 2.984375 54.6875 
L 12.5 54.6875 
L 29.59375 8.796875 
L 46.6875 54.6875 
L 56.203125 54.6875 
L 35.6875 0 
L 23.484375 0 
z
" id="DejaVuSans-118"/>
    </defs>
    <g transform="translate(177.29625 35.472)scale(0.12 -0.12)">
     <use xlink:href="#DejaVuSans-72"/>
     <use x="75.195312" xlink:href="#DejaVuSans-105"/>
     <use x="102.978516" xlink:href="#DejaVuSans-115"/>
     <use x="155.078125" xlink:href="#DejaVuSans-116"/>
     <use x="194.287109" xlink:href="#DejaVuSans-111"/>
     <use x="255.46875" xlink:href="#DejaVuSans-103"/>
     <use x="318.945312" xlink:href="#DejaVuSans-114"/>
     <use x="360.058594" xlink:href="#DejaVuSans-97"/>
     <use x="421.337891" xlink:href="#DejaVuSans-109"/>
     <use x="518.75" xlink:href="#DejaVuSans-32"/>
     <use x="550.537109" xlink:href="#DejaVuSans-111"/>
     <use x="611.71875" xlink:href="#DejaVuSans-102"/>
     <use x="646.923828" xlink:href="#DejaVuSans-32"/>
     <use x="678.710938" xlink:href="#DejaVuSans-99"/>
     <use x="733.691406" xlink:href="#DejaVuSans-111"/>
     <use x="794.873047" xlink:href="#DejaVuSans-110"/>
     <use x="858.251953" xlink:href="#DejaVuSans-118"/>
     <use x="917.431641" xlink:href="#DejaVuSans-49"/>
    </g>
   </g>
   <g id="legend_1">
    <g id="patch_207">
     <path d="M 323.679375 78.82825 
L 407.72 78.82825 
Q 409.72 78.82825 409.72 76.82825 
L 409.72 48.472 
Q 409.72 46.472 407.72 46.472 
L 323.679375 46.472 
Q 321.679375 46.472 321.679375 48.472 
L 321.679375 76.82825 
Q 321.679375 78.82825 323.679375 78.82825 
z
" style="fill:#ffffff;opacity:0.8;stroke:#cccccc;stroke-linejoin:miter;"/>
    </g>
    <g id="patch_208">
     <path d="M 325.679375 58.070437 
L 345.679375 58.070437 
L 345.679375 51.070437 
L 325.679375 51.070437 
z
" style="fill:#0000ff;"/>
    </g>
    <g id="text_15">
     <!-- unmasked -->
     <defs>
      <path d="M 9.078125 75.984375 
L 18.109375 75.984375 
L 18.109375 31.109375 
L 44.921875 54.6875 
L 56.390625 54.6875 
L 27.390625 29.109375 
L 57.625 0 
L 45.90625 0 
L 18.109375 26.703125 
L 18.109375 0 
L 9.078125 0 
z
" id="DejaVuSans-107"/>
      <path d="M 45.40625 46.390625 
L 45.40625 75.984375 
L 54.390625 75.984375 
L 54.390625 0 
L 45.40625 0 
L 45.40625 8.203125 
Q 42.578125 3.328125 38.25 0.953125 
Q 33.9375 -1.421875 27.875 -1.421875 
Q 17.96875 -1.421875 11.734375 6.484375 
Q 5.515625 14.40625 5.515625 27.296875 
Q 5.515625 40.1875 11.734375 48.09375 
Q 17.96875 56 27.875 56 
Q 33.9375 56 38.25 53.625 
Q 42.578125 51.265625 45.40625 46.390625 
z
M 14.796875 27.296875 
Q 14.796875 17.390625 18.875 11.75 
Q 22.953125 6.109375 30.078125 6.109375 
Q 37.203125 6.109375 41.296875 11.75 
Q 45.40625 17.390625 45.40625 27.296875 
Q 45.40625 37.203125 41.296875 42.84375 
Q 37.203125 48.484375 30.078125 48.484375 
Q 22.953125 48.484375 18.875 42.84375 
Q 14.796875 37.203125 14.796875 27.296875 
z
" id="DejaVuSans-100"/>
     </defs>
     <g transform="translate(353.679375 58.070437)scale(0.1 -0.1)">
      <use xlink:href="#DejaVuSans-117"/>
      <use x="63.378906" xlink:href="#DejaVuSans-110"/>
      <use x="126.757812" xlink:href="#DejaVuSans-109"/>
      <use x="224.169922" xlink:href="#DejaVuSans-97"/>
      <use x="285.449219" xlink:href="#DejaVuSans-115"/>
      <use x="337.548828" xlink:href="#DejaVuSans-107"/>
      <use x="395.412109" xlink:href="#DejaVuSans-101"/>
      <use x="456.935547" xlink:href="#DejaVuSans-100"/>
     </g>
    </g>
    <g id="patch_209">
     <path d="M 325.679375 72.748562 
L 345.679375 72.748562 
L 345.679375 65.748562 
L 325.679375 65.748562 
z
" style="fill:#808080;"/>
    </g>
    <g id="text_16">
     <!-- masked -->
     <g transform="translate(353.679375 72.748562)scale(0.1 -0.1)">
      <use xlink:href="#DejaVuSans-109"/>
      <use x="97.412109" xlink:href="#DejaVuSans-97"/>
      <use x="158.691406" xlink:href="#DejaVuSans-115"/>
      <use x="210.791016" xlink:href="#DejaVuSans-107"/>
      <use x="268.654297" xlink:href="#DejaVuSans-101"/>
      <use x="330.177734" xlink:href="#DejaVuSans-100"/>
     </g>
    </g>
   </g>
  </g>
 </g>
 <defs>
  <clipPath id="pa443b099ef">
   <rect height="266.112" width="357.12" x="57.6" y="41.472"/>
  </clipPath>
 </defs>
</svg>
