<?xml version="1.0" encoding="utf-8" standalone="no"?>
<!DOCTYPE svg PUBLIC "-//W3C//DTD SVG 1.1//EN"
  "http://www.w3.org/Graphics/SVG/1.1/DTD/svg11.dtd">
<!-- Created with matplotlib (https://matplotlib.org/) -->
<svg height="345.6pt" version="1.1" viewBox="0 0 460.8 345.6" width="460.8pt" xmlns="http://www.w3.org/2000/svg" xmlns:xlink="http://www.w3.org/1999/xlink">
 <defs>
  <style type="text/css">
*{stroke-linecap:butt;stroke-linejoin:round;}
  </style>
 </defs>
 <g id="figure_1">
  <g id="patch_1">
   <path d="M 0 345.6 
L 460.8 345.6 
L 460.8 0 
L 0 0 
z
" style="fill:#ffffff;"/>
  </g>
  <g id="axes_1">
   <g id="patch_2">
    <path d="M 57.6 307.584 
L 414.72 307.584 
L 414.72 41.472 
L 57.6 41.472 
z
" style="fill:#ffffff;"/>
   </g>
   <g id="patch_3">
    <path clip-path="url(#ped74ff82fb)" d="M 125.263148 307.584 
L 127.995389 307.584 
L 127.995389 307.573743 
L 125.263148 307.573743 
z
" style="fill:#0000ff;"/>
   </g>
   <g id="patch_4">
    <path clip-path="url(#ped74ff82fb)" d="M 127.995389 307.584 
L 130.727629 307.584 
L 130.727629 307.573743 
L 127.995389 307.573743 
z
" style="fill:#0000ff;"/>
   </g>
   <g id="patch_5">
    <path clip-path="url(#ped74ff82fb)" d="M 130.72763 307.584 
L 133.459871 307.584 
L 133.459871 307.584 
L 130.72763 307.584 
z
" style="fill:#0000ff;"/>
   </g>
   <g id="patch_6">
    <path clip-path="url(#ped74ff82fb)" d="M 133.459872 307.584 
L 136.192113 307.584 
L 136.192113 307.584 
L 133.459872 307.584 
z
" style="fill:#0000ff;"/>
   </g>
   <g id="patch_7">
    <path clip-path="url(#ped74ff82fb)" d="M 136.192113 307.584 
L 138.924354 307.584 
L 138.924354 307.573743 
L 136.192113 307.573743 
z
" style="fill:#0000ff;"/>
   </g>
   <g id="patch_8">
    <path clip-path="url(#ped74ff82fb)" d="M 138.924353 307.584 
L 141.656594 307.584 
L 141.656594 307.584 
L 138.924353 307.584 
z
" style="fill:#0000ff;"/>
   </g>
   <g id="patch_9">
    <path clip-path="url(#ped74ff82fb)" d="M 141.656595 307.584 
L 144.388838 307.584 
L 144.388838 307.584 
L 141.656595 307.584 
z
" style="fill:#0000ff;"/>
   </g>
   <g id="patch_10">
    <path clip-path="url(#ped74ff82fb)" d="M 144.388836 307.584 
L 147.121076 307.584 
L 147.121076 307.584 
L 144.388836 307.584 
z
" style="fill:#0000ff;"/>
   </g>
   <g id="patch_11">
    <path clip-path="url(#ped74ff82fb)" d="M 147.121074 307.584 
L 149.853316 307.584 
L 149.853316 307.584 
L 147.121074 307.584 
z
" style="fill:#0000ff;"/>
   </g>
   <g id="patch_12">
    <path clip-path="url(#ped74ff82fb)" d="M 149.853318 307.584 
L 152.585559 307.584 
L 152.585559 307.584 
L 149.853318 307.584 
z
" style="fill:#0000ff;"/>
   </g>
   <g id="patch_13">
    <path clip-path="url(#ped74ff82fb)" d="M 152.585559 307.584 
L 155.317799 307.584 
L 155.317799 307.563487 
L 152.585559 307.563487 
z
" style="fill:#0000ff;"/>
   </g>
   <g id="patch_14">
    <path clip-path="url(#ped74ff82fb)" d="M 155.317799 307.584 
L 158.050041 307.584 
L 158.050041 307.584 
L 155.317799 307.584 
z
" style="fill:#0000ff;"/>
   </g>
   <g id="patch_15">
    <path clip-path="url(#ped74ff82fb)" d="M 158.050039 307.584 
L 160.782283 307.584 
L 160.782283 307.584 
L 158.050039 307.584 
z
" style="fill:#0000ff;"/>
   </g>
   <g id="patch_16">
    <path clip-path="url(#ped74ff82fb)" d="M 160.782283 307.584 
L 163.514524 307.584 
L 163.514524 307.584 
L 160.782283 307.584 
z
" style="fill:#0000ff;"/>
   </g>
   <g id="patch_17">
    <path clip-path="url(#ped74ff82fb)" d="M 163.51452 307.584 
L 166.24676 307.584 
L 166.24676 307.563487 
L 163.51452 307.563487 
z
" style="fill:#0000ff;"/>
   </g>
   <g id="patch_18">
    <path clip-path="url(#ped74ff82fb)" d="M 166.246764 307.584 
L 168.979004 307.584 
L 168.979004 307.584 
L 166.246764 307.584 
z
" style="fill:#0000ff;"/>
   </g>
   <g id="patch_19">
    <path clip-path="url(#ped74ff82fb)" d="M 168.979 307.584 
L 171.71124 307.584 
L 171.71124 307.584 
L 168.979 307.584 
z
" style="fill:#0000ff;"/>
   </g>
   <g id="patch_20">
    <path clip-path="url(#ped74ff82fb)" d="M 171.711245 307.584 
L 174.443489 307.584 
L 174.443489 307.573743 
L 171.711245 307.573743 
z
" style="fill:#0000ff;"/>
   </g>
   <g id="patch_21">
    <path clip-path="url(#ped74ff82fb)" d="M 174.443489 307.584 
L 177.175729 307.584 
L 177.175729 307.584 
L 174.443489 307.584 
z
" style="fill:#0000ff;"/>
   </g>
   <g id="patch_22">
    <path clip-path="url(#ped74ff82fb)" d="M 177.175725 307.584 
L 179.907965 307.584 
L 179.907965 307.563487 
L 177.175725 307.563487 
z
" style="fill:#0000ff;"/>
   </g>
   <g id="patch_23">
    <path clip-path="url(#ped74ff82fb)" d="M 179.907969 307.584 
L 182.64021 307.584 
L 182.64021 307.573743 
L 179.907969 307.573743 
z
" style="fill:#0000ff;"/>
   </g>
   <g id="patch_24">
    <path clip-path="url(#ped74ff82fb)" d="M 182.640206 307.584 
L 185.372446 307.584 
L 185.372446 307.573743 
L 182.640206 307.573743 
z
" style="fill:#0000ff;"/>
   </g>
   <g id="patch_25">
    <path clip-path="url(#ped74ff82fb)" d="M 185.37245 307.584 
L 188.104694 307.584 
L 188.104694 307.573743 
L 185.37245 307.573743 
z
" style="fill:#0000ff;"/>
   </g>
   <g id="patch_26">
    <path clip-path="url(#ped74ff82fb)" d="M 188.104694 307.584 
L 190.836935 307.584 
L 190.836935 307.512204 
L 188.104694 307.512204 
z
" style="fill:#0000ff;"/>
   </g>
   <g id="patch_27">
    <path clip-path="url(#ped74ff82fb)" d="M 190.836931 307.584 
L 193.569171 307.584 
L 193.569171 307.563487 
L 190.836931 307.563487 
z
" style="fill:#0000ff;"/>
   </g>
   <g id="patch_28">
    <path clip-path="url(#ped74ff82fb)" d="M 193.569175 307.584 
L 196.301419 307.584 
L 196.301419 307.512204 
L 193.569175 307.512204 
z
" style="fill:#0000ff;"/>
   </g>
   <g id="patch_29">
    <path clip-path="url(#ped74ff82fb)" d="M 196.301419 307.584 
L 199.033655 307.584 
L 199.033655 307.481434 
L 196.301419 307.481434 
z
" style="fill:#0000ff;"/>
   </g>
   <g id="patch_30">
    <path clip-path="url(#ped74ff82fb)" d="M 199.033655 307.584 
L 201.7659 307.584 
L 201.7659 307.522461 
L 199.033655 307.522461 
z
" style="fill:#0000ff;"/>
   </g>
   <g id="patch_31">
    <path clip-path="url(#ped74ff82fb)" d="M 201.765908 307.584 
L 204.498144 307.584 
L 204.498144 307.563487 
L 201.765908 307.563487 
z
" style="fill:#0000ff;"/>
   </g>
   <g id="patch_32">
    <path clip-path="url(#ped74ff82fb)" d="M 204.498136 307.584 
L 207.23038 307.584 
L 207.23038 307.481434 
L 204.498136 307.481434 
z
" style="fill:#0000ff;"/>
   </g>
   <g id="patch_33">
    <path clip-path="url(#ped74ff82fb)" d="M 207.23038 307.584 
L 209.962625 307.584 
L 209.962625 307.348099 
L 207.23038 307.348099 
z
" style="fill:#0000ff;"/>
   </g>
   <g id="patch_34">
    <path clip-path="url(#ped74ff82fb)" d="M 209.962625 307.584 
L 212.694861 307.584 
L 212.694861 307.481434 
L 209.962625 307.481434 
z
" style="fill:#0000ff;"/>
   </g>
   <g id="patch_35">
    <path clip-path="url(#ped74ff82fb)" d="M 212.694861 307.584 
L 215.427105 307.584 
L 215.427105 307.399382 
L 212.694861 307.399382 
z
" style="fill:#0000ff;"/>
   </g>
   <g id="patch_36">
    <path clip-path="url(#ped74ff82fb)" d="M 215.427113 307.584 
L 218.15935 307.584 
L 218.15935 307.450665 
L 215.427113 307.450665 
z
" style="fill:#0000ff;"/>
   </g>
   <g id="patch_37">
    <path clip-path="url(#ped74ff82fb)" d="M 218.159341 307.584 
L 220.891586 307.584 
L 220.891586 307.296816 
L 218.159341 307.296816 
z
" style="fill:#0000ff;"/>
   </g>
   <g id="patch_38">
    <path clip-path="url(#ped74ff82fb)" d="M 220.891586 307.584 
L 223.62383 307.584 
L 223.62383 307.317329 
L 220.891586 307.317329 
z
" style="fill:#0000ff;"/>
   </g>
   <g id="patch_39">
    <path clip-path="url(#ped74ff82fb)" d="M 223.62383 307.584 
L 226.356066 307.584 
L 226.356066 307.153224 
L 223.62383 307.153224 
z
" style="fill:#0000ff;"/>
   </g>
   <g id="patch_40">
    <path clip-path="url(#ped74ff82fb)" d="M 226.356066 307.584 
L 229.088311 307.584 
L 229.088311 307.235276 
L 226.356066 307.235276 
z
" style="fill:#0000ff;"/>
   </g>
   <g id="patch_41">
    <path clip-path="url(#ped74ff82fb)" d="M 229.088319 307.584 
L 231.820555 307.584 
L 231.820555 307.019888 
L 229.088319 307.019888 
z
" style="fill:#0000ff;"/>
   </g>
   <g id="patch_42">
    <path clip-path="url(#ped74ff82fb)" d="M 231.820547 307.584 
L 234.552791 307.584 
L 234.552791 307.081428 
L 231.820547 307.081428 
z
" style="fill:#0000ff;"/>
   </g>
   <g id="patch_43">
    <path clip-path="url(#ped74ff82fb)" d="M 234.552791 307.584 
L 237.285036 307.584 
L 237.285036 306.640395 
L 234.552791 306.640395 
z
" style="fill:#0000ff;"/>
   </g>
   <g id="patch_44">
    <path clip-path="url(#ped74ff82fb)" d="M 237.285036 307.584 
L 240.017272 307.584 
L 240.017272 306.527573 
L 237.285036 306.527573 
z
" style="fill:#0000ff;"/>
   </g>
   <g id="patch_45">
    <path clip-path="url(#ped74ff82fb)" d="M 240.017272 307.584 
L 242.749516 307.584 
L 242.749516 306.701934 
L 240.017272 306.701934 
z
" style="fill:#0000ff;"/>
   </g>
   <g id="patch_46">
    <path clip-path="url(#ped74ff82fb)" d="M 242.749524 307.584 
L 245.48176 307.584 
L 245.48176 305.922435 
L 242.749524 305.922435 
z
" style="fill:#0000ff;"/>
   </g>
   <g id="patch_47">
    <path clip-path="url(#ped74ff82fb)" d="M 245.481752 307.584 
L 248.213997 307.584 
L 248.213997 306.230132 
L 245.481752 306.230132 
z
" style="fill:#0000ff;"/>
   </g>
   <g id="patch_48">
    <path clip-path="url(#ped74ff82fb)" d="M 248.213997 307.584 
L 250.946241 307.584 
L 250.946241 305.101909 
L 248.213997 305.101909 
z
" style="fill:#0000ff;"/>
   </g>
   <g id="patch_49">
    <path clip-path="url(#ped74ff82fb)" d="M 250.946241 307.584 
L 253.678477 307.584 
L 253.678477 305.707047 
L 250.946241 305.707047 
z
" style="fill:#0000ff;"/>
   </g>
   <g id="patch_50">
    <path clip-path="url(#ped74ff82fb)" d="M 253.678477 307.584 
L 256.410722 307.584 
L 256.410722 304.424975 
L 253.678477 304.424975 
z
" style="fill:#0000ff;"/>
   </g>
   <g id="patch_51">
    <path clip-path="url(#ped74ff82fb)" d="M 256.41073 307.584 
L 259.142966 307.584 
L 259.142966 305.173705 
L 256.41073 305.173705 
z
" style="fill:#0000ff;"/>
   </g>
   <g id="patch_52">
    <path clip-path="url(#ped74ff82fb)" d="M 259.142958 307.584 
L 261.875202 307.584 
L 261.875202 303.153159 
L 259.142958 303.153159 
z
" style="fill:#0000ff;"/>
   </g>
   <g id="patch_53">
    <path clip-path="url(#ped74ff82fb)" d="M 261.875194 307.584 
L 264.60743 307.584 
L 264.60743 303.081363 
L 261.875194 303.081363 
z
" style="fill:#0000ff;"/>
   </g>
   <g id="patch_54">
    <path clip-path="url(#ped74ff82fb)" d="M 264.607463 307.584 
L 267.339707 307.584 
L 267.339707 303.942915 
L 264.607463 303.942915 
z
" style="fill:#0000ff;"/>
   </g>
   <g id="patch_55">
    <path clip-path="url(#ped74ff82fb)" d="M 267.339691 307.584 
L 270.071919 307.584 
L 270.071919 301.14287 
L 267.339691 301.14287 
z
" style="fill:#0000ff;"/>
   </g>
   <g id="patch_56">
    <path clip-path="url(#ped74ff82fb)" d="M 270.071919 307.584 
L 272.804163 307.584 
L 272.804163 302.753153 
L 270.071919 302.753153 
z
" style="fill:#0000ff;"/>
   </g>
   <g id="patch_57">
    <path clip-path="url(#ped74ff82fb)" d="M 272.804179 307.584 
L 275.536424 307.584 
L 275.536424 299.378739 
L 272.804179 299.378739 
z
" style="fill:#0000ff;"/>
   </g>
   <g id="patch_58">
    <path clip-path="url(#ped74ff82fb)" d="M 275.536407 307.584 
L 278.268652 307.584 
L 278.268652 301.594159 
L 275.536407 301.594159 
z
" style="fill:#0000ff;"/>
   </g>
   <g id="patch_59">
    <path clip-path="url(#ped74ff82fb)" d="M 278.268668 307.584 
L 281.000913 307.584 
L 281.000913 297.286397 
L 278.268668 297.286397 
z
" style="fill:#0000ff;"/>
   </g>
   <g id="patch_60">
    <path clip-path="url(#ped74ff82fb)" d="M 281.000896 307.584 
L 283.733124 307.584 
L 283.733124 300.260805 
L 281.000896 300.260805 
z
" style="fill:#0000ff;"/>
   </g>
   <g id="patch_61">
    <path clip-path="url(#ped74ff82fb)" d="M 283.733124 307.584 
L 286.465369 307.584 
L 286.465369 293.122227 
L 283.733124 293.122227 
z
" style="fill:#0000ff;"/>
   </g>
   <g id="patch_62">
    <path clip-path="url(#ped74ff82fb)" d="M 286.465385 307.584 
L 289.197629 307.584 
L 289.197629 288.311893 
L 286.465385 288.311893 
z
" style="fill:#0000ff;"/>
   </g>
   <g id="patch_63">
    <path clip-path="url(#ped74ff82fb)" d="M 289.197613 307.584 
L 291.929857 307.584 
L 291.929857 251.275396 
L 289.197613 251.275396 
z
" style="fill:#0000ff;"/>
   </g>
   <g id="patch_64">
    <path clip-path="url(#ped74ff82fb)" d="M 291.929874 307.584 
L 294.662118 307.584 
L 294.662118 230.157106 
L 291.929874 230.157106 
z
" style="fill:#0000ff;"/>
   </g>
   <g id="patch_65">
    <path clip-path="url(#ped74ff82fb)" d="M 294.662102 307.584 
L 297.39433 307.584 
L 297.39433 253.726718 
L 294.662102 253.726718 
z
" style="fill:#0000ff;"/>
   </g>
   <g id="patch_66">
    <path clip-path="url(#ped74ff82fb)" d="M 297.39433 307.584 
L 300.126574 307.584 
L 300.126574 242.423971 
L 297.39433 242.423971 
z
" style="fill:#0000ff;"/>
   </g>
   <g id="patch_67">
    <path clip-path="url(#ped74ff82fb)" d="M 300.12659 307.584 
L 302.858835 307.584 
L 302.858835 281.142546 
L 300.12659 281.142546 
z
" style="fill:#0000ff;"/>
   </g>
   <g id="patch_68">
    <path clip-path="url(#ped74ff82fb)" d="M 302.858818 307.584 
L 305.591063 307.584 
L 305.591063 291.183735 
L 302.858818 291.183735 
z
" style="fill:#0000ff;"/>
   </g>
   <g id="patch_69">
    <path clip-path="url(#ped74ff82fb)" d="M 305.591079 307.584 
L 308.323323 307.584 
L 308.323323 298.999246 
L 305.591079 298.999246 
z
" style="fill:#0000ff;"/>
   </g>
   <g id="patch_70">
    <path clip-path="url(#ped74ff82fb)" d="M 308.323307 307.584 
L 311.055535 307.584 
L 311.055535 296.353049 
L 308.323307 296.353049 
z
" style="fill:#0000ff;"/>
   </g>
   <g id="patch_71">
    <path clip-path="url(#ped74ff82fb)" d="M 311.055535 307.584 
L 313.787779 307.584 
L 313.787779 300.435166 
L 311.055535 300.435166 
z
" style="fill:#0000ff;"/>
   </g>
   <g id="patch_72">
    <path clip-path="url(#ped74ff82fb)" d="M 313.787796 307.584 
L 316.52004 307.584 
L 316.52004 297.245371 
L 313.787796 297.245371 
z
" style="fill:#0000ff;"/>
   </g>
   <g id="patch_73">
    <path clip-path="url(#ped74ff82fb)" d="M 316.520024 307.584 
L 319.252268 307.584 
L 319.252268 298.845397 
L 316.520024 298.845397 
z
" style="fill:#0000ff;"/>
   </g>
   <g id="patch_74">
    <path clip-path="url(#ped74ff82fb)" d="M 319.252284 307.584 
L 321.984529 307.584 
L 321.984529 302.158271 
L 319.252284 302.158271 
z
" style="fill:#0000ff;"/>
   </g>
   <g id="patch_75">
    <path clip-path="url(#ped74ff82fb)" d="M 321.984512 307.584 
L 324.716741 307.584 
L 324.716741 300.455679 
L 321.984512 300.455679 
z
" style="fill:#0000ff;"/>
   </g>
   <g id="patch_76">
    <path clip-path="url(#ped74ff82fb)" d="M 324.716741 307.584 
L 327.448985 307.584 
L 327.448985 303.665988 
L 324.716741 303.665988 
z
" style="fill:#0000ff;"/>
   </g>
   <g id="patch_77">
    <path clip-path="url(#ped74ff82fb)" d="M 327.449001 307.584 
L 330.181246 307.584 
L 330.181246 302.219811 
L 327.449001 302.219811 
z
" style="fill:#0000ff;"/>
   </g>
   <g id="patch_78">
    <path clip-path="url(#ped74ff82fb)" d="M 330.181229 307.584 
L 332.913474 307.584 
L 332.913474 304.353178 
L 330.181229 304.353178 
z
" style="fill:#0000ff;"/>
   </g>
   <g id="patch_79">
    <path clip-path="url(#ped74ff82fb)" d="M 332.91349 307.584 
L 335.645734 307.584 
L 335.645734 303.758297 
L 332.91349 303.758297 
z
" style="fill:#0000ff;"/>
   </g>
   <g id="patch_80">
    <path clip-path="url(#ped74ff82fb)" d="M 335.645718 307.584 
L 338.377946 307.584 
L 338.377946 305.30704 
L 335.645718 305.30704 
z
" style="fill:#0000ff;"/>
   </g>
   <g id="patch_81">
    <path clip-path="url(#ped74ff82fb)" d="M 338.377946 307.584 
L 341.11019 307.584 
L 341.11019 304.742928 
L 338.377946 304.742928 
z
" style="fill:#0000ff;"/>
   </g>
   <g id="patch_82">
    <path clip-path="url(#ped74ff82fb)" d="M 341.110207 307.584 
L 343.842451 307.584 
L 343.842451 306.045514 
L 341.110207 306.045514 
z
" style="fill:#0000ff;"/>
   </g>
   <g id="patch_83">
    <path clip-path="url(#ped74ff82fb)" d="M 343.842435 307.584 
L 346.574679 307.584 
L 346.574679 305.953204 
L 343.842435 305.953204 
z
" style="fill:#0000ff;"/>
   </g>
   <g id="patch_84">
    <path clip-path="url(#ped74ff82fb)" d="M 346.574695 307.584 
L 349.30694 307.584 
L 349.30694 306.11731 
L 346.574695 306.11731 
z
" style="fill:#0000ff;"/>
   </g>
   <g id="patch_85">
    <path clip-path="url(#ped74ff82fb)" d="M 349.306923 307.584 
L 352.039151 307.584 
L 352.039151 306.978862 
L 349.306923 306.978862 
z
" style="fill:#0000ff;"/>
   </g>
   <g id="patch_86">
    <path clip-path="url(#ped74ff82fb)" d="M 352.039151 307.584 
L 354.771396 307.584 
L 354.771396 306.742961 
L 352.039151 306.742961 
z
" style="fill:#0000ff;"/>
   </g>
   <g id="patch_87">
    <path clip-path="url(#ped74ff82fb)" d="M 354.771412 307.584 
L 357.503656 307.584 
L 357.503656 307.204507 
L 354.771412 307.204507 
z
" style="fill:#0000ff;"/>
   </g>
   <g id="patch_88">
    <path clip-path="url(#ped74ff82fb)" d="M 357.50364 307.584 
L 360.235884 307.584 
L 360.235884 307.214763 
L 357.50364 307.214763 
z
" style="fill:#0000ff;"/>
   </g>
   <g id="patch_89">
    <path clip-path="url(#ped74ff82fb)" d="M 360.235901 307.584 
L 362.968145 307.584 
L 362.968145 307.358355 
L 360.235901 307.358355 
z
" style="fill:#0000ff;"/>
   </g>
   <g id="patch_90">
    <path clip-path="url(#ped74ff82fb)" d="M 362.968129 307.584 
L 365.700357 307.584 
L 365.700357 307.399382 
L 362.968129 307.399382 
z
" style="fill:#0000ff;"/>
   </g>
   <g id="patch_91">
    <path clip-path="url(#ped74ff82fb)" d="M 365.700357 307.584 
L 368.432601 307.584 
L 368.432601 307.491691 
L 365.700357 307.491691 
z
" style="fill:#0000ff;"/>
   </g>
   <g id="patch_92">
    <path clip-path="url(#ped74ff82fb)" d="M 368.432618 307.584 
L 371.164862 307.584 
L 371.164862 307.440408 
L 368.432618 307.440408 
z
" style="fill:#0000ff;"/>
   </g>
   <g id="patch_93">
    <path clip-path="url(#ped74ff82fb)" d="M 371.164846 307.584 
L 373.89709 307.584 
L 373.89709 307.491691 
L 371.164846 307.491691 
z
" style="fill:#0000ff;"/>
   </g>
   <g id="patch_94">
    <path clip-path="url(#ped74ff82fb)" d="M 373.897106 307.584 
L 376.629351 307.584 
L 376.629351 307.491691 
L 373.897106 307.491691 
z
" style="fill:#0000ff;"/>
   </g>
   <g id="patch_95">
    <path clip-path="url(#ped74ff82fb)" d="M 376.629334 307.584 
L 379.361562 307.584 
L 379.361562 307.522461 
L 376.629334 307.522461 
z
" style="fill:#0000ff;"/>
   </g>
   <g id="patch_96">
    <path clip-path="url(#ped74ff82fb)" d="M 379.361562 307.584 
L 382.093807 307.584 
L 382.093807 307.563487 
L 379.361562 307.563487 
z
" style="fill:#0000ff;"/>
   </g>
   <g id="patch_97">
    <path clip-path="url(#ped74ff82fb)" d="M 382.093823 307.584 
L 384.826067 307.584 
L 384.826067 307.563487 
L 382.093823 307.563487 
z
" style="fill:#0000ff;"/>
   </g>
   <g id="patch_98">
    <path clip-path="url(#ped74ff82fb)" d="M 384.826051 307.584 
L 387.558295 307.584 
L 387.558295 307.573743 
L 384.826051 307.573743 
z
" style="fill:#0000ff;"/>
   </g>
   <g id="patch_99">
    <path clip-path="url(#ped74ff82fb)" d="M 387.558312 307.584 
L 390.290556 307.584 
L 390.290556 307.563487 
L 387.558312 307.563487 
z
" style="fill:#0000ff;"/>
   </g>
   <g id="patch_100">
    <path clip-path="url(#ped74ff82fb)" d="M 390.29054 307.584 
L 393.022768 307.584 
L 393.022768 307.584 
L 390.29054 307.584 
z
" style="fill:#0000ff;"/>
   </g>
   <g id="patch_101">
    <path clip-path="url(#ped74ff82fb)" d="M 393.022768 307.584 
L 395.755012 307.584 
L 395.755012 307.584 
L 393.022768 307.584 
z
" style="fill:#0000ff;"/>
   </g>
   <g id="patch_102">
    <path clip-path="url(#ped74ff82fb)" d="M 395.755028 307.584 
L 398.487273 307.584 
L 398.487273 307.573743 
L 395.755028 307.573743 
z
" style="fill:#0000ff;"/>
   </g>
   <g id="patch_103">
    <path clip-path="url(#ped74ff82fb)" d="M 73.832727 307.584 
L 74.657757 307.584 
L 74.657757 307.573743 
L 73.832727 307.573743 
z
" style="fill:#808080;"/>
   </g>
   <g id="patch_104">
    <path clip-path="url(#ped74ff82fb)" d="M 74.657753 307.584 
L 75.482783 307.584 
L 75.482783 307.573743 
L 74.657753 307.573743 
z
" style="fill:#808080;"/>
   </g>
   <g id="patch_105">
    <path clip-path="url(#ped74ff82fb)" d="M 75.482788 307.584 
L 76.307818 307.584 
L 76.307818 307.584 
L 75.482788 307.584 
z
" style="fill:#808080;"/>
   </g>
   <g id="patch_106">
    <path clip-path="url(#ped74ff82fb)" d="M 76.307814 307.584 
L 77.132844 307.584 
L 77.132844 307.584 
L 76.307814 307.584 
z
" style="fill:#808080;"/>
   </g>
   <g id="patch_107">
    <path clip-path="url(#ped74ff82fb)" d="M 77.132848 307.584 
L 77.957874 307.584 
L 77.957874 307.584 
L 77.132848 307.584 
z
" style="fill:#808080;"/>
   </g>
   <g id="patch_108">
    <path clip-path="url(#ped74ff82fb)" d="M 77.957874 307.584 
L 78.782904 307.584 
L 78.782904 307.573743 
L 77.957874 307.573743 
z
" style="fill:#808080;"/>
   </g>
   <g id="patch_109">
    <path clip-path="url(#ped74ff82fb)" d="M 78.7829 307.584 
L 79.60793 307.584 
L 79.60793 307.584 
L 78.7829 307.584 
z
" style="fill:#808080;"/>
   </g>
   <g id="patch_110">
    <path clip-path="url(#ped74ff82fb)" d="M 79.607934 307.584 
L 80.432964 307.584 
L 80.432964 307.584 
L 79.607934 307.584 
z
" style="fill:#808080;"/>
   </g>
   <g id="patch_111">
    <path clip-path="url(#ped74ff82fb)" d="M 80.43296 307.584 
L 81.25799 307.584 
L 81.25799 307.584 
L 80.43296 307.584 
z
" style="fill:#808080;"/>
   </g>
   <g id="patch_112">
    <path clip-path="url(#ped74ff82fb)" d="M 81.257995 307.584 
L 82.083025 307.584 
L 82.083025 307.584 
L 81.257995 307.584 
z
" style="fill:#808080;"/>
   </g>
   <g id="patch_113">
    <path clip-path="url(#ped74ff82fb)" d="M 82.083021 307.584 
L 82.908051 307.584 
L 82.908051 307.563487 
L 82.083021 307.563487 
z
" style="fill:#808080;"/>
   </g>
   <g id="patch_114">
    <path clip-path="url(#ped74ff82fb)" d="M 82.908055 307.584 
L 83.733085 307.584 
L 83.733085 307.584 
L 82.908055 307.584 
z
" style="fill:#808080;"/>
   </g>
   <g id="patch_115">
    <path clip-path="url(#ped74ff82fb)" d="M 83.733085 307.584 
L 84.558111 307.584 
L 84.558111 307.584 
L 83.733085 307.584 
z
" style="fill:#808080;"/>
   </g>
   <g id="patch_116">
    <path clip-path="url(#ped74ff82fb)" d="M 84.558107 307.584 
L 85.383137 307.584 
L 85.383137 307.584 
L 84.558107 307.584 
z
" style="fill:#808080;"/>
   </g>
   <g id="patch_117">
    <path clip-path="url(#ped74ff82fb)" d="M 85.383141 307.584 
L 86.208171 307.584 
L 86.208171 307.584 
L 85.383141 307.584 
z
" style="fill:#808080;"/>
   </g>
   <g id="patch_118">
    <path clip-path="url(#ped74ff82fb)" d="M 86.208167 307.584 
L 87.033197 307.584 
L 87.033197 307.563487 
L 86.208167 307.563487 
z
" style="fill:#808080;"/>
   </g>
   <g id="patch_119">
    <path clip-path="url(#ped74ff82fb)" d="M 87.033202 307.584 
L 87.858232 307.584 
L 87.858232 302.794179 
L 87.033202 302.794179 
z
" style="fill:#808080;"/>
   </g>
   <g id="patch_120">
    <path clip-path="url(#ped74ff82fb)" d="M 87.858228 307.584 
L 88.683258 307.584 
L 88.683258 307.584 
L 87.858228 307.584 
z
" style="fill:#808080;"/>
   </g>
   <g id="patch_121">
    <path clip-path="url(#ped74ff82fb)" d="M 88.683262 307.584 
L 89.508292 307.584 
L 89.508292 307.584 
L 88.683262 307.584 
z
" style="fill:#808080;"/>
   </g>
   <g id="patch_122">
    <path clip-path="url(#ped74ff82fb)" d="M 89.508288 307.584 
L 90.333318 307.584 
L 90.333318 307.584 
L 89.508288 307.584 
z
" style="fill:#808080;"/>
   </g>
   <g id="patch_123">
    <path clip-path="url(#ped74ff82fb)" d="M 90.333322 307.584 
L 91.158348 307.584 
L 91.158348 307.584 
L 90.333322 307.584 
z
" style="fill:#808080;"/>
   </g>
   <g id="patch_124">
    <path clip-path="url(#ped74ff82fb)" d="M 91.15835 307.584 
L 91.98338 307.584 
L 91.98338 307.584 
L 91.15835 307.584 
z
" style="fill:#808080;"/>
   </g>
   <g id="patch_125">
    <path clip-path="url(#ped74ff82fb)" d="M 91.983382 307.584 
L 92.808409 307.584 
L 92.808409 307.584 
L 91.983382 307.584 
z
" style="fill:#808080;"/>
   </g>
   <g id="patch_126">
    <path clip-path="url(#ped74ff82fb)" d="M 92.808409 307.584 
L 93.633439 307.584 
L 93.633439 307.584 
L 92.808409 307.584 
z
" style="fill:#808080;"/>
   </g>
   <g id="patch_127">
    <path clip-path="url(#ped74ff82fb)" d="M 93.633439 307.584 
L 94.458469 307.584 
L 94.458469 307.584 
L 93.633439 307.584 
z
" style="fill:#808080;"/>
   </g>
   <g id="patch_128">
    <path clip-path="url(#ped74ff82fb)" d="M 94.458469 307.584 
L 95.283499 307.584 
L 95.283499 307.584 
L 94.458469 307.584 
z
" style="fill:#808080;"/>
   </g>
   <g id="patch_129">
    <path clip-path="url(#ped74ff82fb)" d="M 95.283499 307.584 
L 96.108529 307.584 
L 96.108529 307.584 
L 95.283499 307.584 
z
" style="fill:#808080;"/>
   </g>
   <g id="patch_130">
    <path clip-path="url(#ped74ff82fb)" d="M 96.108529 307.584 
L 96.933555 307.584 
L 96.933555 307.584 
L 96.108529 307.584 
z
" style="fill:#808080;"/>
   </g>
   <g id="patch_131">
    <path clip-path="url(#ped74ff82fb)" d="M 96.933557 307.584 
L 97.758587 307.584 
L 97.758587 307.584 
L 96.933557 307.584 
z
" style="fill:#808080;"/>
   </g>
   <g id="patch_132">
    <path clip-path="url(#ped74ff82fb)" d="M 97.758587 307.584 
L 98.583618 307.584 
L 98.583618 307.584 
L 97.758587 307.584 
z
" style="fill:#808080;"/>
   </g>
   <g id="patch_133">
    <path clip-path="url(#ped74ff82fb)" d="M 98.583618 307.584 
L 99.408648 307.584 
L 99.408648 307.584 
L 98.583618 307.584 
z
" style="fill:#808080;"/>
   </g>
   <g id="patch_134">
    <path clip-path="url(#ped74ff82fb)" d="M 99.40865 307.584 
L 100.233676 307.584 
L 100.233676 307.584 
L 99.40865 307.584 
z
" style="fill:#808080;"/>
   </g>
   <g id="patch_135">
    <path clip-path="url(#ped74ff82fb)" d="M 100.233676 307.584 
L 101.058706 307.584 
L 101.058706 307.584 
L 100.233676 307.584 
z
" style="fill:#808080;"/>
   </g>
   <g id="patch_136">
    <path clip-path="url(#ped74ff82fb)" d="M 101.058706 307.584 
L 101.883736 307.584 
L 101.883736 307.584 
L 101.058706 307.584 
z
" style="fill:#808080;"/>
   </g>
   <g id="patch_137">
    <path clip-path="url(#ped74ff82fb)" d="M 101.883736 307.584 
L 102.708766 307.584 
L 102.708766 307.584 
L 101.883736 307.584 
z
" style="fill:#808080;"/>
   </g>
   <g id="patch_138">
    <path clip-path="url(#ped74ff82fb)" d="M 102.708766 307.584 
L 103.533792 307.584 
L 103.533792 307.584 
L 102.708766 307.584 
z
" style="fill:#808080;"/>
   </g>
   <g id="patch_139">
    <path clip-path="url(#ped74ff82fb)" d="M 103.533794 307.584 
L 104.358825 307.584 
L 104.358825 307.584 
L 103.533794 307.584 
z
" style="fill:#808080;"/>
   </g>
   <g id="patch_140">
    <path clip-path="url(#ped74ff82fb)" d="M 104.358825 307.584 
L 105.183855 307.584 
L 105.183855 307.584 
L 104.358825 307.584 
z
" style="fill:#808080;"/>
   </g>
   <g id="patch_141">
    <path clip-path="url(#ped74ff82fb)" d="M 105.183855 307.584 
L 106.008885 307.584 
L 106.008885 307.584 
L 105.183855 307.584 
z
" style="fill:#808080;"/>
   </g>
   <g id="patch_142">
    <path clip-path="url(#ped74ff82fb)" d="M 106.008887 307.584 
L 106.833913 307.584 
L 106.833913 307.584 
L 106.008887 307.584 
z
" style="fill:#808080;"/>
   </g>
   <g id="patch_143">
    <path clip-path="url(#ped74ff82fb)" d="M 106.833913 307.584 
L 107.658943 307.584 
L 107.658943 307.584 
L 106.833913 307.584 
z
" style="fill:#808080;"/>
   </g>
   <g id="patch_144">
    <path clip-path="url(#ped74ff82fb)" d="M 107.658943 307.584 
L 108.483973 307.584 
L 108.483973 307.584 
L 107.658943 307.584 
z
" style="fill:#808080;"/>
   </g>
   <g id="patch_145">
    <path clip-path="url(#ped74ff82fb)" d="M 108.483973 307.584 
L 109.309003 307.584 
L 109.309003 307.584 
L 108.483973 307.584 
z
" style="fill:#808080;"/>
   </g>
   <g id="patch_146">
    <path clip-path="url(#ped74ff82fb)" d="M 109.309002 307.584 
L 110.134032 307.584 
L 110.134032 307.584 
L 109.309002 307.584 
z
" style="fill:#808080;"/>
   </g>
   <g id="patch_147">
    <path clip-path="url(#ped74ff82fb)" d="M 110.134031 307.584 
L 110.959062 307.584 
L 110.959062 307.584 
L 110.134031 307.584 
z
" style="fill:#808080;"/>
   </g>
   <g id="patch_148">
    <path clip-path="url(#ped74ff82fb)" d="M 110.959062 307.584 
L 111.784092 307.584 
L 111.784092 307.584 
L 110.959062 307.584 
z
" style="fill:#808080;"/>
   </g>
   <g id="patch_149">
    <path clip-path="url(#ped74ff82fb)" d="M 111.784092 307.584 
L 112.609122 307.584 
L 112.609122 307.584 
L 111.784092 307.584 
z
" style="fill:#808080;"/>
   </g>
   <g id="patch_150">
    <path clip-path="url(#ped74ff82fb)" d="M 112.609121 307.584 
L 113.434151 307.584 
L 113.434151 307.584 
L 112.609121 307.584 
z
" style="fill:#808080;"/>
   </g>
   <g id="patch_151">
    <path clip-path="url(#ped74ff82fb)" d="M 113.43415 307.584 
L 114.25918 307.584 
L 114.25918 307.584 
L 113.43415 307.584 
z
" style="fill:#808080;"/>
   </g>
   <g id="patch_152">
    <path clip-path="url(#ped74ff82fb)" d="M 114.25918 307.584 
L 115.08421 307.584 
L 115.08421 307.584 
L 114.25918 307.584 
z
" style="fill:#808080;"/>
   </g>
   <g id="patch_153">
    <path clip-path="url(#ped74ff82fb)" d="M 115.08421 307.584 
L 115.90924 307.584 
L 115.90924 307.584 
L 115.08421 307.584 
z
" style="fill:#808080;"/>
   </g>
   <g id="patch_154">
    <path clip-path="url(#ped74ff82fb)" d="M 115.90924 307.584 
L 116.734271 307.584 
L 116.734271 307.584 
L 115.90924 307.584 
z
" style="fill:#808080;"/>
   </g>
   <g id="patch_155">
    <path clip-path="url(#ped74ff82fb)" d="M 116.73427 307.584 
L 117.5593 307.584 
L 117.5593 307.584 
L 116.73427 307.584 
z
" style="fill:#808080;"/>
   </g>
   <g id="patch_156">
    <path clip-path="url(#ped74ff82fb)" d="M 117.559299 307.584 
L 118.384329 307.584 
L 118.384329 307.584 
L 117.559299 307.584 
z
" style="fill:#808080;"/>
   </g>
   <g id="patch_157">
    <path clip-path="url(#ped74ff82fb)" d="M 118.384329 307.584 
L 119.209359 307.584 
L 119.209359 307.584 
L 118.384329 307.584 
z
" style="fill:#808080;"/>
   </g>
   <g id="patch_158">
    <path clip-path="url(#ped74ff82fb)" d="M 119.209358 307.584 
L 120.034388 307.584 
L 120.034388 307.584 
L 119.209358 307.584 
z
" style="fill:#808080;"/>
   </g>
   <g id="patch_159">
    <path clip-path="url(#ped74ff82fb)" d="M 120.034388 307.584 
L 120.859418 307.584 
L 120.859418 307.584 
L 120.034388 307.584 
z
" style="fill:#808080;"/>
   </g>
   <g id="patch_160">
    <path clip-path="url(#ped74ff82fb)" d="M 120.859418 307.584 
L 121.684448 307.584 
L 121.684448 307.584 
L 120.859418 307.584 
z
" style="fill:#808080;"/>
   </g>
   <g id="patch_161">
    <path clip-path="url(#ped74ff82fb)" d="M 121.684447 307.584 
L 122.509478 307.584 
L 122.509478 307.584 
L 121.684447 307.584 
z
" style="fill:#808080;"/>
   </g>
   <g id="patch_162">
    <path clip-path="url(#ped74ff82fb)" d="M 122.509477 307.584 
L 123.334507 307.584 
L 123.334507 307.584 
L 122.509477 307.584 
z
" style="fill:#808080;"/>
   </g>
   <g id="patch_163">
    <path clip-path="url(#ped74ff82fb)" d="M 123.334507 307.584 
L 124.159537 307.584 
L 124.159537 307.584 
L 123.334507 307.584 
z
" style="fill:#808080;"/>
   </g>
   <g id="patch_164">
    <path clip-path="url(#ped74ff82fb)" d="M 124.159536 307.584 
L 124.984567 307.584 
L 124.984567 307.584 
L 124.159536 307.584 
z
" style="fill:#808080;"/>
   </g>
   <g id="patch_165">
    <path clip-path="url(#ped74ff82fb)" d="M 124.984566 307.584 
L 125.809596 307.584 
L 125.809596 307.584 
L 124.984566 307.584 
z
" style="fill:#808080;"/>
   </g>
   <g id="patch_166">
    <path clip-path="url(#ped74ff82fb)" d="M 125.809596 307.584 
L 126.634626 307.584 
L 126.634626 307.584 
L 125.809596 307.584 
z
" style="fill:#808080;"/>
   </g>
   <g id="patch_167">
    <path clip-path="url(#ped74ff82fb)" d="M 126.634625 307.584 
L 127.459655 307.584 
L 127.459655 307.584 
L 126.634625 307.584 
z
" style="fill:#808080;"/>
   </g>
   <g id="patch_168">
    <path clip-path="url(#ped74ff82fb)" d="M 127.459655 307.584 
L 128.284685 307.584 
L 128.284685 307.584 
L 127.459655 307.584 
z
" style="fill:#808080;"/>
   </g>
   <g id="patch_169">
    <path clip-path="url(#ped74ff82fb)" d="M 128.284685 307.584 
L 129.109715 307.584 
L 129.109715 307.584 
L 128.284685 307.584 
z
" style="fill:#808080;"/>
   </g>
   <g id="patch_170">
    <path clip-path="url(#ped74ff82fb)" d="M 129.109714 307.584 
L 129.934744 307.584 
L 129.934744 307.584 
L 129.109714 307.584 
z
" style="fill:#808080;"/>
   </g>
   <g id="patch_171">
    <path clip-path="url(#ped74ff82fb)" d="M 129.934744 307.584 
L 130.759774 307.584 
L 130.759774 307.584 
L 129.934744 307.584 
z
" style="fill:#808080;"/>
   </g>
   <g id="patch_172">
    <path clip-path="url(#ped74ff82fb)" d="M 130.759774 307.584 
L 131.584804 307.584 
L 131.584804 307.584 
L 130.759774 307.584 
z
" style="fill:#808080;"/>
   </g>
   <g id="patch_173">
    <path clip-path="url(#ped74ff82fb)" d="M 131.584803 307.584 
L 132.409833 307.584 
L 132.409833 307.584 
L 131.584803 307.584 
z
" style="fill:#808080;"/>
   </g>
   <g id="patch_174">
    <path clip-path="url(#ped74ff82fb)" d="M 132.409833 307.584 
L 133.234863 307.584 
L 133.234863 307.584 
L 132.409833 307.584 
z
" style="fill:#808080;"/>
   </g>
   <g id="patch_175">
    <path clip-path="url(#ped74ff82fb)" d="M 133.234862 307.584 
L 134.059893 307.584 
L 134.059893 307.584 
L 133.234862 307.584 
z
" style="fill:#808080;"/>
   </g>
   <g id="patch_176">
    <path clip-path="url(#ped74ff82fb)" d="M 134.059892 307.584 
L 134.884922 307.584 
L 134.884922 307.584 
L 134.059892 307.584 
z
" style="fill:#808080;"/>
   </g>
   <g id="patch_177">
    <path clip-path="url(#ped74ff82fb)" d="M 134.884922 307.584 
L 135.709952 307.584 
L 135.709952 307.584 
L 134.884922 307.584 
z
" style="fill:#808080;"/>
   </g>
   <g id="patch_178">
    <path clip-path="url(#ped74ff82fb)" d="M 135.709952 307.584 
L 136.534982 307.584 
L 136.534982 307.584 
L 135.709952 307.584 
z
" style="fill:#808080;"/>
   </g>
   <g id="patch_179">
    <path clip-path="url(#ped74ff82fb)" d="M 136.534982 307.584 
L 137.360012 307.584 
L 137.360012 307.584 
L 136.534982 307.584 
z
" style="fill:#808080;"/>
   </g>
   <g id="patch_180">
    <path clip-path="url(#ped74ff82fb)" d="M 137.360011 307.584 
L 138.185041 307.584 
L 138.185041 307.584 
L 137.360011 307.584 
z
" style="fill:#808080;"/>
   </g>
   <g id="patch_181">
    <path clip-path="url(#ped74ff82fb)" d="M 138.18504 307.584 
L 139.01007 307.584 
L 139.01007 307.584 
L 138.18504 307.584 
z
" style="fill:#808080;"/>
   </g>
   <g id="patch_182">
    <path clip-path="url(#ped74ff82fb)" d="M 139.01007 307.584 
L 139.835101 307.584 
L 139.835101 307.584 
L 139.01007 307.584 
z
" style="fill:#808080;"/>
   </g>
   <g id="patch_183">
    <path clip-path="url(#ped74ff82fb)" d="M 139.835101 307.584 
L 140.660131 307.584 
L 140.660131 307.584 
L 139.835101 307.584 
z
" style="fill:#808080;"/>
   </g>
   <g id="patch_184">
    <path clip-path="url(#ped74ff82fb)" d="M 140.66013 307.584 
L 141.48516 307.584 
L 141.48516 307.584 
L 140.66013 307.584 
z
" style="fill:#808080;"/>
   </g>
   <g id="patch_185">
    <path clip-path="url(#ped74ff82fb)" d="M 141.485159 307.584 
L 142.310189 307.584 
L 142.310189 307.584 
L 141.485159 307.584 
z
" style="fill:#808080;"/>
   </g>
   <g id="patch_186">
    <path clip-path="url(#ped74ff82fb)" d="M 142.310189 307.584 
L 143.135219 307.584 
L 143.135219 54.144 
L 142.310189 54.144 
z
" style="fill:#808080;"/>
   </g>
   <g id="patch_187">
    <path clip-path="url(#ped74ff82fb)" d="M 143.135219 307.584 
L 143.960249 307.584 
L 143.960249 305.36858 
L 143.135219 305.36858 
z
" style="fill:#808080;"/>
   </g>
   <g id="patch_188">
    <path clip-path="url(#ped74ff82fb)" d="M 143.960249 307.584 
L 144.785275 307.584 
L 144.785275 307.584 
L 143.960249 307.584 
z
" style="fill:#808080;"/>
   </g>
   <g id="patch_189">
    <path clip-path="url(#ped74ff82fb)" d="M 144.785277 307.584 
L 145.610308 307.584 
L 145.610308 307.584 
L 144.785277 307.584 
z
" style="fill:#808080;"/>
   </g>
   <g id="patch_190">
    <path clip-path="url(#ped74ff82fb)" d="M 145.610308 307.584 
L 146.435338 307.584 
L 146.435338 307.584 
L 145.610308 307.584 
z
" style="fill:#808080;"/>
   </g>
   <g id="patch_191">
    <path clip-path="url(#ped74ff82fb)" d="M 146.435338 307.584 
L 147.260368 307.584 
L 147.260368 298.363338 
L 146.435338 298.363338 
z
" style="fill:#808080;"/>
   </g>
   <g id="patch_192">
    <path clip-path="url(#ped74ff82fb)" d="M 147.26037 307.584 
L 148.085396 307.584 
L 148.085396 303.235212 
L 147.26037 303.235212 
z
" style="fill:#808080;"/>
   </g>
   <g id="patch_193">
    <path clip-path="url(#ped74ff82fb)" d="M 148.085396 307.584 
L 148.910426 307.584 
L 148.910426 307.584 
L 148.085396 307.584 
z
" style="fill:#808080;"/>
   </g>
   <g id="patch_194">
    <path clip-path="url(#ped74ff82fb)" d="M 148.910426 307.584 
L 149.735456 307.584 
L 149.735456 307.584 
L 148.910426 307.584 
z
" style="fill:#808080;"/>
   </g>
   <g id="patch_195">
    <path clip-path="url(#ped74ff82fb)" d="M 149.735456 307.584 
L 150.560486 307.584 
L 150.560486 307.584 
L 149.735456 307.584 
z
" style="fill:#808080;"/>
   </g>
   <g id="patch_196">
    <path clip-path="url(#ped74ff82fb)" d="M 150.560486 307.584 
L 151.385513 307.584 
L 151.385513 290.076024 
L 150.560486 290.076024 
z
" style="fill:#808080;"/>
   </g>
   <g id="patch_197">
    <path clip-path="url(#ped74ff82fb)" d="M 151.385515 307.584 
L 152.210545 307.584 
L 152.210545 299.481305 
L 151.385515 299.481305 
z
" style="fill:#808080;"/>
   </g>
   <g id="patch_198">
    <path clip-path="url(#ped74ff82fb)" d="M 152.210545 307.584 
L 153.035575 307.584 
L 153.035575 307.584 
L 152.210545 307.584 
z
" style="fill:#808080;"/>
   </g>
   <g id="patch_199">
    <path clip-path="url(#ped74ff82fb)" d="M 153.035575 307.584 
L 153.860605 307.584 
L 153.860605 307.584 
L 153.035575 307.584 
z
" style="fill:#808080;"/>
   </g>
   <g id="patch_200">
    <path clip-path="url(#ped74ff82fb)" d="M 153.860607 307.584 
L 154.685633 307.584 
L 154.685633 307.584 
L 153.860607 307.584 
z
" style="fill:#808080;"/>
   </g>
   <g id="patch_201">
    <path clip-path="url(#ped74ff82fb)" d="M 154.685633 307.584 
L 155.510663 307.584 
L 155.510663 274.547568 
L 154.685633 274.547568 
z
" style="fill:#808080;"/>
   </g>
   <g id="patch_202">
    <path clip-path="url(#ped74ff82fb)" d="M 155.510663 307.584 
L 156.335693 307.584 
L 156.335693 148.00193 
L 155.510663 148.00193 
z
" style="fill:#808080;"/>
   </g>
   <g id="matplotlib.axis_1">
    <g id="xtick_1">
     <g id="line2d_1">
      <defs>
       <path d="M 0 0 
L 0 3.5 
" id="m9badbbc6aa" style="stroke:#000000;stroke-width:0.8;"/>
      </defs>
      <g>
       <use style="stroke:#000000;stroke-width:0.8;" x="71.689793" xlink:href="#m9badbbc6aa" y="307.584"/>
      </g>
     </g>
     <g id="text_1">
      <!-- −50 -->
      <defs>
       <path d="M 10.59375 35.5 
L 73.1875 35.5 
L 73.1875 27.203125 
L 10.59375 27.203125 
z
" id="DejaVuSans-8722"/>
       <path d="M 10.796875 72.90625 
L 49.515625 72.90625 
L 49.515625 64.59375 
L 19.828125 64.59375 
L 19.828125 46.734375 
Q 21.96875 47.46875 24.109375 47.828125 
Q 26.265625 48.1875 28.421875 48.1875 
Q 40.625 48.1875 47.75 41.5 
Q 54.890625 34.8125 54.890625 23.390625 
Q 54.890625 11.625 47.5625 5.09375 
Q 40.234375 -1.421875 26.90625 -1.421875 
Q 22.3125 -1.421875 17.546875 -0.640625 
Q 12.796875 0.140625 7.71875 1.703125 
L 7.71875 11.625 
Q 12.109375 9.234375 16.796875 8.0625 
Q 21.484375 6.890625 26.703125 6.890625 
Q 35.15625 6.890625 40.078125 11.328125 
Q 45.015625 15.765625 45.015625 23.390625 
Q 45.015625 31 40.078125 35.4375 
Q 35.15625 39.890625 26.703125 39.890625 
Q 22.75 39.890625 18.8125 39.015625 
Q 14.890625 38.140625 10.796875 36.28125 
z
" id="DejaVuSans-53"/>
       <path d="M 31.78125 66.40625 
Q 24.171875 66.40625 20.328125 58.90625 
Q 16.5 51.421875 16.5 36.375 
Q 16.5 21.390625 20.328125 13.890625 
Q 24.171875 6.390625 31.78125 6.390625 
Q 39.453125 6.390625 43.28125 13.890625 
Q 47.125 21.390625 47.125 36.375 
Q 47.125 51.421875 43.28125 58.90625 
Q 39.453125 66.40625 31.78125 66.40625 
z
M 31.78125 74.21875 
Q 44.046875 74.21875 50.515625 64.515625 
Q 56.984375 54.828125 56.984375 36.375 
Q 56.984375 17.96875 50.515625 8.265625 
Q 44.046875 -1.421875 31.78125 -1.421875 
Q 19.53125 -1.421875 13.0625 8.265625 
Q 6.59375 17.96875 6.59375 36.375 
Q 6.59375 54.828125 13.0625 64.515625 
Q 19.53125 74.21875 31.78125 74.21875 
z
" id="DejaVuSans-48"/>
      </defs>
      <g transform="translate(61.137449 322.182437)scale(0.1 -0.1)">
       <use xlink:href="#DejaVuSans-8722"/>
       <use x="83.789062" xlink:href="#DejaVuSans-53"/>
       <use x="147.412109" xlink:href="#DejaVuSans-48"/>
      </g>
     </g>
    </g>
    <g id="xtick_2">
     <g id="line2d_2">
      <g>
       <use style="stroke:#000000;stroke-width:0.8;" x="125.263148" xlink:href="#m9badbbc6aa" y="307.584"/>
      </g>
     </g>
     <g id="text_2">
      <!-- 0 -->
      <g transform="translate(122.081898 322.182437)scale(0.1 -0.1)">
       <use xlink:href="#DejaVuSans-48"/>
      </g>
     </g>
    </g>
    <g id="xtick_3">
     <g id="line2d_3">
      <g>
       <use style="stroke:#000000;stroke-width:0.8;" x="178.836502" xlink:href="#m9badbbc6aa" y="307.584"/>
      </g>
     </g>
     <g id="text_3">
      <!-- 50 -->
      <g transform="translate(172.474002 322.182437)scale(0.1 -0.1)">
       <use xlink:href="#DejaVuSans-53"/>
       <use x="63.623047" xlink:href="#DejaVuSans-48"/>
      </g>
     </g>
    </g>
    <g id="xtick_4">
     <g id="line2d_4">
      <g>
       <use style="stroke:#000000;stroke-width:0.8;" x="232.409857" xlink:href="#m9badbbc6aa" y="307.584"/>
      </g>
     </g>
     <g id="text_4">
      <!-- 100 -->
      <defs>
       <path d="M 12.40625 8.296875 
L 28.515625 8.296875 
L 28.515625 63.921875 
L 10.984375 60.40625 
L 10.984375 69.390625 
L 28.421875 72.90625 
L 38.28125 72.90625 
L 38.28125 8.296875 
L 54.390625 8.296875 
L 54.390625 0 
L 12.40625 0 
z
" id="DejaVuSans-49"/>
      </defs>
      <g transform="translate(222.866107 322.182437)scale(0.1 -0.1)">
       <use xlink:href="#DejaVuSans-49"/>
       <use x="63.623047" xlink:href="#DejaVuSans-48"/>
       <use x="127.246094" xlink:href="#DejaVuSans-48"/>
      </g>
     </g>
    </g>
    <g id="xtick_5">
     <g id="line2d_5">
      <g>
       <use style="stroke:#000000;stroke-width:0.8;" x="285.983212" xlink:href="#m9badbbc6aa" y="307.584"/>
      </g>
     </g>
     <g id="text_5">
      <!-- 150 -->
      <g transform="translate(276.439462 322.182437)scale(0.1 -0.1)">
       <use xlink:href="#DejaVuSans-49"/>
       <use x="63.623047" xlink:href="#DejaVuSans-53"/>
       <use x="127.246094" xlink:href="#DejaVuSans-48"/>
      </g>
     </g>
    </g>
    <g id="xtick_6">
     <g id="line2d_6">
      <g>
       <use style="stroke:#000000;stroke-width:0.8;" x="339.556566" xlink:href="#m9badbbc6aa" y="307.584"/>
      </g>
     </g>
     <g id="text_6">
      <!-- 200 -->
      <defs>
       <path d="M 19.1875 8.296875 
L 53.609375 8.296875 
L 53.609375 0 
L 7.328125 0 
L 7.328125 8.296875 
Q 12.9375 14.109375 22.625 23.890625 
Q 32.328125 33.6875 34.8125 36.53125 
Q 39.546875 41.84375 41.421875 45.53125 
Q 43.3125 49.21875 43.3125 52.78125 
Q 43.3125 58.59375 39.234375 62.25 
Q 35.15625 65.921875 28.609375 65.921875 
Q 23.96875 65.921875 18.8125 64.3125 
Q 13.671875 62.703125 7.8125 59.421875 
L 7.8125 69.390625 
Q 13.765625 71.78125 18.9375 73 
Q 24.125 74.21875 28.421875 74.21875 
Q 39.75 74.21875 46.484375 68.546875 
Q 53.21875 62.890625 53.21875 53.421875 
Q 53.21875 48.921875 51.53125 44.890625 
Q 49.859375 40.875 45.40625 35.40625 
Q 44.1875 33.984375 37.640625 27.21875 
Q 31.109375 20.453125 19.1875 8.296875 
z
" id="DejaVuSans-50"/>
      </defs>
      <g transform="translate(330.012816 322.182437)scale(0.1 -0.1)">
       <use xlink:href="#DejaVuSans-50"/>
       <use x="63.623047" xlink:href="#DejaVuSans-48"/>
       <use x="127.246094" xlink:href="#DejaVuSans-48"/>
      </g>
     </g>
    </g>
    <g id="xtick_7">
     <g id="line2d_7">
      <g>
       <use style="stroke:#000000;stroke-width:0.8;" x="393.129921" xlink:href="#m9badbbc6aa" y="307.584"/>
      </g>
     </g>
     <g id="text_7">
      <!-- 250 -->
      <g transform="translate(383.586171 322.182437)scale(0.1 -0.1)">
       <use xlink:href="#DejaVuSans-50"/>
       <use x="63.623047" xlink:href="#DejaVuSans-53"/>
       <use x="127.246094" xlink:href="#DejaVuSans-48"/>
      </g>
     </g>
    </g>
    <g id="text_8">
     <!-- Weight -->
     <defs>
      <path d="M 3.328125 72.90625 
L 13.28125 72.90625 
L 28.609375 11.28125 
L 43.890625 72.90625 
L 54.984375 72.90625 
L 70.3125 11.28125 
L 85.59375 72.90625 
L 95.609375 72.90625 
L 77.296875 0 
L 64.890625 0 
L 49.515625 63.28125 
L 33.984375 0 
L 21.578125 0 
z
" id="DejaVuSans-87"/>
      <path d="M 56.203125 29.59375 
L 56.203125 25.203125 
L 14.890625 25.203125 
Q 15.484375 15.921875 20.484375 11.0625 
Q 25.484375 6.203125 34.421875 6.203125 
Q 39.59375 6.203125 44.453125 7.46875 
Q 49.3125 8.734375 54.109375 11.28125 
L 54.109375 2.78125 
Q 49.265625 0.734375 44.1875 -0.34375 
Q 39.109375 -1.421875 33.890625 -1.421875 
Q 20.796875 -1.421875 13.15625 6.1875 
Q 5.515625 13.8125 5.515625 26.8125 
Q 5.515625 40.234375 12.765625 48.109375 
Q 20.015625 56 32.328125 56 
Q 43.359375 56 49.78125 48.890625 
Q 56.203125 41.796875 56.203125 29.59375 
z
M 47.21875 32.234375 
Q 47.125 39.59375 43.09375 43.984375 
Q 39.0625 48.390625 32.421875 48.390625 
Q 24.90625 48.390625 20.390625 44.140625 
Q 15.875 39.890625 15.1875 32.171875 
z
" id="DejaVuSans-101"/>
      <path d="M 9.421875 54.6875 
L 18.40625 54.6875 
L 18.40625 0 
L 9.421875 0 
z
M 9.421875 75.984375 
L 18.40625 75.984375 
L 18.40625 64.59375 
L 9.421875 64.59375 
z
" id="DejaVuSans-105"/>
      <path d="M 45.40625 27.984375 
Q 45.40625 37.75 41.375 43.109375 
Q 37.359375 48.484375 30.078125 48.484375 
Q 22.859375 48.484375 18.828125 43.109375 
Q 14.796875 37.75 14.796875 27.984375 
Q 14.796875 18.265625 18.828125 12.890625 
Q 22.859375 7.515625 30.078125 7.515625 
Q 37.359375 7.515625 41.375 12.890625 
Q 45.40625 18.265625 45.40625 27.984375 
z
M 54.390625 6.78125 
Q 54.390625 -7.171875 48.1875 -13.984375 
Q 42 -20.796875 29.203125 -20.796875 
Q 24.46875 -20.796875 20.265625 -20.09375 
Q 16.0625 -19.390625 12.109375 -17.921875 
L 12.109375 -9.1875 
Q 16.0625 -11.328125 19.921875 -12.34375 
Q 23.78125 -13.375 27.78125 -13.375 
Q 36.625 -13.375 41.015625 -8.765625 
Q 45.40625 -4.15625 45.40625 5.171875 
L 45.40625 9.625 
Q 42.625 4.78125 38.28125 2.390625 
Q 33.9375 0 27.875 0 
Q 17.828125 0 11.671875 7.65625 
Q 5.515625 15.328125 5.515625 27.984375 
Q 5.515625 40.671875 11.671875 48.328125 
Q 17.828125 56 27.875 56 
Q 33.9375 56 38.28125 53.609375 
Q 42.625 51.21875 45.40625 46.390625 
L 45.40625 54.6875 
L 54.390625 54.6875 
z
" id="DejaVuSans-103"/>
      <path d="M 54.890625 33.015625 
L 54.890625 0 
L 45.90625 0 
L 45.90625 32.71875 
Q 45.90625 40.484375 42.875 44.328125 
Q 39.84375 48.1875 33.796875 48.1875 
Q 26.515625 48.1875 22.3125 43.546875 
Q 18.109375 38.921875 18.109375 30.90625 
L 18.109375 0 
L 9.078125 0 
L 9.078125 75.984375 
L 18.109375 75.984375 
L 18.109375 46.1875 
Q 21.34375 51.125 25.703125 53.5625 
Q 30.078125 56 35.796875 56 
Q 45.21875 56 50.046875 50.171875 
Q 54.890625 44.34375 54.890625 33.015625 
z
" id="DejaVuSans-104"/>
      <path d="M 18.3125 70.21875 
L 18.3125 54.6875 
L 36.8125 54.6875 
L 36.8125 47.703125 
L 18.3125 47.703125 
L 18.3125 18.015625 
Q 18.3125 11.328125 20.140625 9.421875 
Q 21.96875 7.515625 27.59375 7.515625 
L 36.8125 7.515625 
L 36.8125 0 
L 27.59375 0 
Q 17.1875 0 13.234375 3.875 
Q 9.28125 7.765625 9.28125 18.015625 
L 9.28125 47.703125 
L 2.6875 47.703125 
L 2.6875 54.6875 
L 9.28125 54.6875 
L 9.28125 70.21875 
z
" id="DejaVuSans-116"/>
     </defs>
     <g transform="translate(218.451406 335.860562)scale(0.1 -0.1)">
      <use xlink:href="#DejaVuSans-87"/>
      <use x="98.798828" xlink:href="#DejaVuSans-101"/>
      <use x="160.322266" xlink:href="#DejaVuSans-105"/>
      <use x="188.105469" xlink:href="#DejaVuSans-103"/>
      <use x="251.582031" xlink:href="#DejaVuSans-104"/>
      <use x="314.960938" xlink:href="#DejaVuSans-116"/>
     </g>
    </g>
   </g>
   <g id="matplotlib.axis_2">
    <g id="ytick_1">
     <g id="line2d_8">
      <defs>
       <path d="M 0 0 
L -3.5 0 
" id="me742f342b3" style="stroke:#000000;stroke-width:0.8;"/>
      </defs>
      <g>
       <use style="stroke:#000000;stroke-width:0.8;" x="57.6" xlink:href="#me742f342b3" y="307.584"/>
      </g>
     </g>
     <g id="text_9">
      <!-- 0 -->
      <g transform="translate(44.2375 311.383219)scale(0.1 -0.1)">
       <use xlink:href="#DejaVuSans-48"/>
      </g>
     </g>
    </g>
    <g id="ytick_2">
     <g id="line2d_9">
      <g>
       <use style="stroke:#000000;stroke-width:0.8;" x="57.6" xlink:href="#me742f342b3" y="256.301119"/>
      </g>
     </g>
     <g id="text_10">
      <!-- 5000 -->
      <g transform="translate(25.15 260.100337)scale(0.1 -0.1)">
       <use xlink:href="#DejaVuSans-53"/>
       <use x="63.623047" xlink:href="#DejaVuSans-48"/>
       <use x="127.246094" xlink:href="#DejaVuSans-48"/>
       <use x="190.869141" xlink:href="#DejaVuSans-48"/>
      </g>
     </g>
    </g>
    <g id="ytick_3">
     <g id="line2d_10">
      <g>
       <use style="stroke:#000000;stroke-width:0.8;" x="57.6" xlink:href="#me742f342b3" y="205.018237"/>
      </g>
     </g>
     <g id="text_11">
      <!-- 10000 -->
      <g transform="translate(18.7875 208.817456)scale(0.1 -0.1)">
       <use xlink:href="#DejaVuSans-49"/>
       <use x="63.623047" xlink:href="#DejaVuSans-48"/>
       <use x="127.246094" xlink:href="#DejaVuSans-48"/>
       <use x="190.869141" xlink:href="#DejaVuSans-48"/>
       <use x="254.492188" xlink:href="#DejaVuSans-48"/>
      </g>
     </g>
    </g>
    <g id="ytick_4">
     <g id="line2d_11">
      <g>
       <use style="stroke:#000000;stroke-width:0.8;" x="57.6" xlink:href="#me742f342b3" y="153.735356"/>
      </g>
     </g>
     <g id="text_12">
      <!-- 15000 -->
      <g transform="translate(18.7875 157.534574)scale(0.1 -0.1)">
       <use xlink:href="#DejaVuSans-49"/>
       <use x="63.623047" xlink:href="#DejaVuSans-53"/>
       <use x="127.246094" xlink:href="#DejaVuSans-48"/>
       <use x="190.869141" xlink:href="#DejaVuSans-48"/>
       <use x="254.492188" xlink:href="#DejaVuSans-48"/>
      </g>
     </g>
    </g>
    <g id="ytick_5">
     <g id="line2d_12">
      <g>
       <use style="stroke:#000000;stroke-width:0.8;" x="57.6" xlink:href="#me742f342b3" y="102.452474"/>
      </g>
     </g>
     <g id="text_13">
      <!-- 20000 -->
      <g transform="translate(18.7875 106.251693)scale(0.1 -0.1)">
       <use xlink:href="#DejaVuSans-50"/>
       <use x="63.623047" xlink:href="#DejaVuSans-48"/>
       <use x="127.246094" xlink:href="#DejaVuSans-48"/>
       <use x="190.869141" xlink:href="#DejaVuSans-48"/>
       <use x="254.492188" xlink:href="#DejaVuSans-48"/>
      </g>
     </g>
    </g>
    <g id="ytick_6">
     <g id="line2d_13">
      <g>
       <use style="stroke:#000000;stroke-width:0.8;" x="57.6" xlink:href="#me742f342b3" y="51.169593"/>
      </g>
     </g>
     <g id="text_14">
      <!-- 25000 -->
      <g transform="translate(18.7875 54.968812)scale(0.1 -0.1)">
       <use xlink:href="#DejaVuSans-50"/>
       <use x="63.623047" xlink:href="#DejaVuSans-53"/>
       <use x="127.246094" xlink:href="#DejaVuSans-48"/>
       <use x="190.869141" xlink:href="#DejaVuSans-48"/>
       <use x="254.492188" xlink:href="#DejaVuSans-48"/>
      </g>
     </g>
    </g>
    <g id="text_15">
     <!-- Occurrencies -->
     <defs>
      <path d="M 39.40625 66.21875 
Q 28.65625 66.21875 22.328125 58.203125 
Q 16.015625 50.203125 16.015625 36.375 
Q 16.015625 22.609375 22.328125 14.59375 
Q 28.65625 6.59375 39.40625 6.59375 
Q 50.140625 6.59375 56.421875 14.59375 
Q 62.703125 22.609375 62.703125 36.375 
Q 62.703125 50.203125 56.421875 58.203125 
Q 50.140625 66.21875 39.40625 66.21875 
z
M 39.40625 74.21875 
Q 54.734375 74.21875 63.90625 63.9375 
Q 73.09375 53.65625 73.09375 36.375 
Q 73.09375 19.140625 63.90625 8.859375 
Q 54.734375 -1.421875 39.40625 -1.421875 
Q 24.03125 -1.421875 14.8125 8.828125 
Q 5.609375 19.09375 5.609375 36.375 
Q 5.609375 53.65625 14.8125 63.9375 
Q 24.03125 74.21875 39.40625 74.21875 
z
" id="DejaVuSans-79"/>
      <path d="M 48.78125 52.59375 
L 48.78125 44.1875 
Q 44.96875 46.296875 41.140625 47.34375 
Q 37.3125 48.390625 33.40625 48.390625 
Q 24.65625 48.390625 19.8125 42.84375 
Q 14.984375 37.3125 14.984375 27.296875 
Q 14.984375 17.28125 19.8125 11.734375 
Q 24.65625 6.203125 33.40625 6.203125 
Q 37.3125 6.203125 41.140625 7.25 
Q 44.96875 8.296875 48.78125 10.40625 
L 48.78125 2.09375 
Q 45.015625 0.34375 40.984375 -0.53125 
Q 36.96875 -1.421875 32.421875 -1.421875 
Q 20.0625 -1.421875 12.78125 6.34375 
Q 5.515625 14.109375 5.515625 27.296875 
Q 5.515625 40.671875 12.859375 48.328125 
Q 20.21875 56 33.015625 56 
Q 37.15625 56 41.109375 55.140625 
Q 45.0625 54.296875 48.78125 52.59375 
z
" id="DejaVuSans-99"/>
      <path d="M 8.5 21.578125 
L 8.5 54.6875 
L 17.484375 54.6875 
L 17.484375 21.921875 
Q 17.484375 14.15625 20.5 10.265625 
Q 23.53125 6.390625 29.59375 6.390625 
Q 36.859375 6.390625 41.078125 11.03125 
Q 45.3125 15.671875 45.3125 23.6875 
L 45.3125 54.6875 
L 54.296875 54.6875 
L 54.296875 0 
L 45.3125 0 
L 45.3125 8.40625 
Q 42.046875 3.421875 37.71875 1 
Q 33.40625 -1.421875 27.6875 -1.421875 
Q 18.265625 -1.421875 13.375 4.4375 
Q 8.5 10.296875 8.5 21.578125 
z
M 31.109375 56 
z
" id="DejaVuSans-117"/>
      <path d="M 41.109375 46.296875 
Q 39.59375 47.171875 37.8125 47.578125 
Q 36.03125 48 33.890625 48 
Q 26.265625 48 22.1875 43.046875 
Q 18.109375 38.09375 18.109375 28.8125 
L 18.109375 0 
L 9.078125 0 
L 9.078125 54.6875 
L 18.109375 54.6875 
L 18.109375 46.1875 
Q 20.953125 51.171875 25.484375 53.578125 
Q 30.03125 56 36.53125 56 
Q 37.453125 56 38.578125 55.875 
Q 39.703125 55.765625 41.0625 55.515625 
z
" id="DejaVuSans-114"/>
      <path d="M 54.890625 33.015625 
L 54.890625 0 
L 45.90625 0 
L 45.90625 32.71875 
Q 45.90625 40.484375 42.875 44.328125 
Q 39.84375 48.1875 33.796875 48.1875 
Q 26.515625 48.1875 22.3125 43.546875 
Q 18.109375 38.921875 18.109375 30.90625 
L 18.109375 0 
L 9.078125 0 
L 9.078125 54.6875 
L 18.109375 54.6875 
L 18.109375 46.1875 
Q 21.34375 51.125 25.703125 53.5625 
Q 30.078125 56 35.796875 56 
Q 45.21875 56 50.046875 50.171875 
Q 54.890625 44.34375 54.890625 33.015625 
z
" id="DejaVuSans-110"/>
      <path d="M 44.28125 53.078125 
L 44.28125 44.578125 
Q 40.484375 46.53125 36.375 47.5 
Q 32.28125 48.484375 27.875 48.484375 
Q 21.1875 48.484375 17.84375 46.4375 
Q 14.5 44.390625 14.5 40.28125 
Q 14.5 37.15625 16.890625 35.375 
Q 19.28125 33.59375 26.515625 31.984375 
L 29.59375 31.296875 
Q 39.15625 29.25 43.1875 25.515625 
Q 47.21875 21.78125 47.21875 15.09375 
Q 47.21875 7.46875 41.1875 3.015625 
Q 35.15625 -1.421875 24.609375 -1.421875 
Q 20.21875 -1.421875 15.453125 -0.5625 
Q 10.6875 0.296875 5.421875 2 
L 5.421875 11.28125 
Q 10.40625 8.6875 15.234375 7.390625 
Q 20.0625 6.109375 24.8125 6.109375 
Q 31.15625 6.109375 34.5625 8.28125 
Q 37.984375 10.453125 37.984375 14.40625 
Q 37.984375 18.0625 35.515625 20.015625 
Q 33.0625 21.96875 24.703125 23.78125 
L 21.578125 24.515625 
Q 13.234375 26.265625 9.515625 29.90625 
Q 5.8125 33.546875 5.8125 39.890625 
Q 5.8125 47.609375 11.28125 51.796875 
Q 16.75 56 26.8125 56 
Q 31.78125 56 36.171875 55.265625 
Q 40.578125 54.546875 44.28125 53.078125 
z
" id="DejaVuSans-115"/>
     </defs>
     <g transform="translate(12.707812 207.304563)rotate(-90)scale(0.1 -0.1)">
      <use xlink:href="#DejaVuSans-79"/>
      <use x="78.710938" xlink:href="#DejaVuSans-99"/>
      <use x="133.691406" xlink:href="#DejaVuSans-99"/>
      <use x="188.671875" xlink:href="#DejaVuSans-117"/>
      <use x="252.050781" xlink:href="#DejaVuSans-114"/>
      <use x="293.148438" xlink:href="#DejaVuSans-114"/>
      <use x="334.230469" xlink:href="#DejaVuSans-101"/>
      <use x="395.753906" xlink:href="#DejaVuSans-110"/>
      <use x="459.132812" xlink:href="#DejaVuSans-99"/>
      <use x="514.113281" xlink:href="#DejaVuSans-105"/>
      <use x="541.896484" xlink:href="#DejaVuSans-101"/>
      <use x="603.419922" xlink:href="#DejaVuSans-115"/>
     </g>
    </g>
   </g>
   <g id="patch_203">
    <path d="M 57.6 307.584 
L 57.6 41.472 
" style="fill:none;stroke:#000000;stroke-linecap:square;stroke-linejoin:miter;stroke-width:0.8;"/>
   </g>
   <g id="patch_204">
    <path d="M 414.72 307.584 
L 414.72 41.472 
" style="fill:none;stroke:#000000;stroke-linecap:square;stroke-linejoin:miter;stroke-width:0.8;"/>
   </g>
   <g id="patch_205">
    <path d="M 57.6 307.584 
L 414.72 307.584 
" style="fill:none;stroke:#000000;stroke-linecap:square;stroke-linejoin:miter;stroke-width:0.8;"/>
   </g>
   <g id="patch_206">
    <path d="M 57.6 41.472 
L 414.72 41.472 
" style="fill:none;stroke:#000000;stroke-linecap:square;stroke-linejoin:miter;stroke-width:0.8;"/>
   </g>
   <g id="text_16">
    <!-- Histogram of fc1 -->
    <defs>
     <path d="M 9.8125 72.90625 
L 19.671875 72.90625 
L 19.671875 43.015625 
L 55.515625 43.015625 
L 55.515625 72.90625 
L 65.375 72.90625 
L 65.375 0 
L 55.515625 0 
L 55.515625 34.71875 
L 19.671875 34.71875 
L 19.671875 0 
L 9.8125 0 
z
" id="DejaVuSans-72"/>
     <path d="M 30.609375 48.390625 
Q 23.390625 48.390625 19.1875 42.75 
Q 14.984375 37.109375 14.984375 27.296875 
Q 14.984375 17.484375 19.15625 11.84375 
Q 23.34375 6.203125 30.609375 6.203125 
Q 37.796875 6.203125 41.984375 11.859375 
Q 46.1875 17.53125 46.1875 27.296875 
Q 46.1875 37.015625 41.984375 42.703125 
Q 37.796875 48.390625 30.609375 48.390625 
z
M 30.609375 56 
Q 42.328125 56 49.015625 48.375 
Q 55.71875 40.765625 55.71875 27.296875 
Q 55.71875 13.875 49.015625 6.21875 
Q 42.328125 -1.421875 30.609375 -1.421875 
Q 18.84375 -1.421875 12.171875 6.21875 
Q 5.515625 13.875 5.515625 27.296875 
Q 5.515625 40.765625 12.171875 48.375 
Q 18.84375 56 30.609375 56 
z
" id="DejaVuSans-111"/>
     <path d="M 34.28125 27.484375 
Q 23.390625 27.484375 19.1875 25 
Q 14.984375 22.515625 14.984375 16.5 
Q 14.984375 11.71875 18.140625 8.90625 
Q 21.296875 6.109375 26.703125 6.109375 
Q 34.1875 6.109375 38.703125 11.40625 
Q 43.21875 16.703125 43.21875 25.484375 
L 43.21875 27.484375 
z
M 52.203125 31.203125 
L 52.203125 0 
L 43.21875 0 
L 43.21875 8.296875 
Q 40.140625 3.328125 35.546875 0.953125 
Q 30.953125 -1.421875 24.3125 -1.421875 
Q 15.921875 -1.421875 10.953125 3.296875 
Q 6 8.015625 6 15.921875 
Q 6 25.140625 12.171875 29.828125 
Q 18.359375 34.515625 30.609375 34.515625 
L 43.21875 34.515625 
L 43.21875 35.40625 
Q 43.21875 41.609375 39.140625 45 
Q 35.0625 48.390625 27.6875 48.390625 
Q 23 48.390625 18.546875 47.265625 
Q 14.109375 46.140625 10.015625 43.890625 
L 10.015625 52.203125 
Q 14.9375 54.109375 19.578125 55.046875 
Q 24.21875 56 28.609375 56 
Q 40.484375 56 46.34375 49.84375 
Q 52.203125 43.703125 52.203125 31.203125 
z
" id="DejaVuSans-97"/>
     <path d="M 52 44.1875 
Q 55.375 50.25 60.0625 53.125 
Q 64.75 56 71.09375 56 
Q 79.640625 56 84.28125 50.015625 
Q 88.921875 44.046875 88.921875 33.015625 
L 88.921875 0 
L 79.890625 0 
L 79.890625 32.71875 
Q 79.890625 40.578125 77.09375 44.375 
Q 74.3125 48.1875 68.609375 48.1875 
Q 61.625 48.1875 57.5625 43.546875 
Q 53.515625 38.921875 53.515625 30.90625 
L 53.515625 0 
L 44.484375 0 
L 44.484375 32.71875 
Q 44.484375 40.625 41.703125 44.40625 
Q 38.921875 48.1875 33.109375 48.1875 
Q 26.21875 48.1875 22.15625 43.53125 
Q 18.109375 38.875 18.109375 30.90625 
L 18.109375 0 
L 9.078125 0 
L 9.078125 54.6875 
L 18.109375 54.6875 
L 18.109375 46.1875 
Q 21.1875 51.21875 25.484375 53.609375 
Q 29.78125 56 35.6875 56 
Q 41.65625 56 45.828125 52.96875 
Q 50 49.953125 52 44.1875 
z
" id="DejaVuSans-109"/>
     <path id="DejaVuSans-32"/>
     <path d="M 37.109375 75.984375 
L 37.109375 68.5 
L 28.515625 68.5 
Q 23.6875 68.5 21.796875 66.546875 
Q 19.921875 64.59375 19.921875 59.515625 
L 19.921875 54.6875 
L 34.71875 54.6875 
L 34.71875 47.703125 
L 19.921875 47.703125 
L 19.921875 0 
L 10.890625 0 
L 10.890625 47.703125 
L 2.296875 47.703125 
L 2.296875 54.6875 
L 10.890625 54.6875 
L 10.890625 58.5 
Q 10.890625 67.625 15.140625 71.796875 
Q 19.390625 75.984375 28.609375 75.984375 
z
" id="DejaVuSans-102"/>
    </defs>
    <g transform="translate(186.209063 35.472)scale(0.12 -0.12)">
     <use xlink:href="#DejaVuSans-72"/>
     <use x="75.195312" xlink:href="#DejaVuSans-105"/>
     <use x="102.978516" xlink:href="#DejaVuSans-115"/>
     <use x="155.078125" xlink:href="#DejaVuSans-116"/>
     <use x="194.287109" xlink:href="#DejaVuSans-111"/>
     <use x="255.46875" xlink:href="#DejaVuSans-103"/>
     <use x="318.945312" xlink:href="#DejaVuSans-114"/>
     <use x="360.058594" xlink:href="#DejaVuSans-97"/>
     <use x="421.337891" xlink:href="#DejaVuSans-109"/>
     <use x="518.75" xlink:href="#DejaVuSans-32"/>
     <use x="550.537109" xlink:href="#DejaVuSans-111"/>
     <use x="611.71875" xlink:href="#DejaVuSans-102"/>
     <use x="646.923828" xlink:href="#DejaVuSans-32"/>
     <use x="678.710938" xlink:href="#DejaVuSans-102"/>
     <use x="713.916016" xlink:href="#DejaVuSans-99"/>
     <use x="768.896484" xlink:href="#DejaVuSans-49"/>
    </g>
   </g>
   <g id="legend_1">
    <g id="patch_207">
     <path d="M 323.679375 78.82825 
L 407.72 78.82825 
Q 409.72 78.82825 409.72 76.82825 
L 409.72 48.472 
Q 409.72 46.472 407.72 46.472 
L 323.679375 46.472 
Q 321.679375 46.472 321.679375 48.472 
L 321.679375 76.82825 
Q 321.679375 78.82825 323.679375 78.82825 
z
" style="fill:#ffffff;opacity:0.8;stroke:#cccccc;stroke-linejoin:miter;"/>
    </g>
    <g id="patch_208">
     <path d="M 325.679375 58.070437 
L 345.679375 58.070437 
L 345.679375 51.070437 
L 325.679375 51.070437 
z
" style="fill:#0000ff;"/>
    </g>
    <g id="text_17">
     <!-- unmasked -->
     <defs>
      <path d="M 9.078125 75.984375 
L 18.109375 75.984375 
L 18.109375 31.109375 
L 44.921875 54.6875 
L 56.390625 54.6875 
L 27.390625 29.109375 
L 57.625 0 
L 45.90625 0 
L 18.109375 26.703125 
L 18.109375 0 
L 9.078125 0 
z
" id="DejaVuSans-107"/>
      <path d="M 45.40625 46.390625 
L 45.40625 75.984375 
L 54.390625 75.984375 
L 54.390625 0 
L 45.40625 0 
L 45.40625 8.203125 
Q 42.578125 3.328125 38.25 0.953125 
Q 33.9375 -1.421875 27.875 -1.421875 
Q 17.96875 -1.421875 11.734375 6.484375 
Q 5.515625 14.40625 5.515625 27.296875 
Q 5.515625 40.1875 11.734375 48.09375 
Q 17.96875 56 27.875 56 
Q 33.9375 56 38.25 53.625 
Q 42.578125 51.265625 45.40625 46.390625 
z
M 14.796875 27.296875 
Q 14.796875 17.390625 18.875 11.75 
Q 22.953125 6.109375 30.078125 6.109375 
Q 37.203125 6.109375 41.296875 11.75 
Q 45.40625 17.390625 45.40625 27.296875 
Q 45.40625 37.203125 41.296875 42.84375 
Q 37.203125 48.484375 30.078125 48.484375 
Q 22.953125 48.484375 18.875 42.84375 
Q 14.796875 37.203125 14.796875 27.296875 
z
" id="DejaVuSans-100"/>
     </defs>
     <g transform="translate(353.679375 58.070437)scale(0.1 -0.1)">
      <use xlink:href="#DejaVuSans-117"/>
      <use x="63.378906" xlink:href="#DejaVuSans-110"/>
      <use x="126.757812" xlink:href="#DejaVuSans-109"/>
      <use x="224.169922" xlink:href="#DejaVuSans-97"/>
      <use x="285.449219" xlink:href="#DejaVuSans-115"/>
      <use x="337.548828" xlink:href="#DejaVuSans-107"/>
      <use x="395.412109" xlink:href="#DejaVuSans-101"/>
      <use x="456.935547" xlink:href="#DejaVuSans-100"/>
     </g>
    </g>
    <g id="patch_209">
     <path d="M 325.679375 72.748562 
L 345.679375 72.748562 
L 345.679375 65.748562 
L 325.679375 65.748562 
z
" style="fill:#808080;"/>
    </g>
    <g id="text_18">
     <!-- masked -->
     <g transform="translate(353.679375 72.748562)scale(0.1 -0.1)">
      <use xlink:href="#DejaVuSans-109"/>
      <use x="97.412109" xlink:href="#DejaVuSans-97"/>
      <use x="158.691406" xlink:href="#DejaVuSans-115"/>
      <use x="210.791016" xlink:href="#DejaVuSans-107"/>
      <use x="268.654297" xlink:href="#DejaVuSans-101"/>
      <use x="330.177734" xlink:href="#DejaVuSans-100"/>
     </g>
    </g>
   </g>
  </g>
 </g>
 <defs>
  <clipPath id="ped74ff82fb">
   <rect height="266.112" width="357.12" x="57.6" y="41.472"/>
  </clipPath>
 </defs>
</svg>
