<?xml version="1.0" encoding="utf-8" standalone="no"?>
<!DOCTYPE svg PUBLIC "-//W3C//DTD SVG 1.1//EN"
  "http://www.w3.org/Graphics/SVG/1.1/DTD/svg11.dtd">
<!-- Created with matplotlib (https://matplotlib.org/) -->
<svg height="345.6pt" version="1.1" viewBox="0 0 460.8 345.6" width="460.8pt" xmlns="http://www.w3.org/2000/svg" xmlns:xlink="http://www.w3.org/1999/xlink">
 <defs>
  <style type="text/css">
*{stroke-linecap:butt;stroke-linejoin:round;}
  </style>
 </defs>
 <g id="figure_1">
  <g id="patch_1">
   <path d="M 0 345.6 
L 460.8 345.6 
L 460.8 0 
L 0 0 
z
" style="fill:#ffffff;"/>
  </g>
  <g id="axes_1">
   <g id="patch_2">
    <path d="M 57.6 307.584 
L 414.72 307.584 
L 414.72 41.472 
L 57.6 41.472 
z
" style="fill:#ffffff;"/>
   </g>
   <g id="patch_3">
    <path clip-path="url(#p6c1e1780ce)" d="M 147.617848 307.584 
L 150.126542 307.584 
L 150.126542 307.265475 
L 147.617848 307.265475 
z
" style="fill:#0000ff;"/>
   </g>
   <g id="patch_4">
    <path clip-path="url(#p6c1e1780ce)" d="M 150.126542 307.584 
L 152.635235 307.584 
L 152.635235 307.477825 
L 150.126542 307.477825 
z
" style="fill:#0000ff;"/>
   </g>
   <g id="patch_5">
    <path clip-path="url(#p6c1e1780ce)" d="M 152.635236 307.584 
L 155.14393 307.584 
L 155.14393 307.584 
L 152.635236 307.584 
z
" style="fill:#0000ff;"/>
   </g>
   <g id="patch_6">
    <path clip-path="url(#p6c1e1780ce)" d="M 155.143931 307.584 
L 157.652625 307.584 
L 157.652625 307.477825 
L 155.143931 307.477825 
z
" style="fill:#0000ff;"/>
   </g>
   <g id="patch_7">
    <path clip-path="url(#p6c1e1780ce)" d="M 157.652625 307.584 
L 160.161319 307.584 
L 160.161319 307.584 
L 157.652625 307.584 
z
" style="fill:#0000ff;"/>
   </g>
   <g id="patch_8">
    <path clip-path="url(#p6c1e1780ce)" d="M 160.161318 307.584 
L 162.670013 307.584 
L 162.670013 307.477825 
L 160.161318 307.477825 
z
" style="fill:#0000ff;"/>
   </g>
   <g id="patch_9">
    <path clip-path="url(#p6c1e1780ce)" d="M 162.670014 307.584 
L 165.178709 307.584 
L 165.178709 307.37165 
L 162.670014 307.37165 
z
" style="fill:#0000ff;"/>
   </g>
   <g id="patch_10">
    <path clip-path="url(#p6c1e1780ce)" d="M 165.178707 307.584 
L 167.6874 307.584 
L 167.6874 307.053124 
L 165.178707 307.053124 
z
" style="fill:#0000ff;"/>
   </g>
   <g id="patch_11">
    <path clip-path="url(#p6c1e1780ce)" d="M 167.687398 307.584 
L 170.196094 307.584 
L 170.196094 307.265475 
L 167.687398 307.265475 
z
" style="fill:#0000ff;"/>
   </g>
   <g id="patch_12">
    <path clip-path="url(#p6c1e1780ce)" d="M 170.196095 307.584 
L 172.704789 307.584 
L 172.704789 307.477825 
L 170.196095 307.477825 
z
" style="fill:#0000ff;"/>
   </g>
   <g id="patch_13">
    <path clip-path="url(#p6c1e1780ce)" d="M 172.704789 307.584 
L 175.213482 307.584 
L 175.213482 306.946949 
L 172.704789 306.946949 
z
" style="fill:#0000ff;"/>
   </g>
   <g id="patch_14">
    <path clip-path="url(#p6c1e1780ce)" d="M 175.213482 307.584 
L 177.722177 307.584 
L 177.722177 307.265475 
L 175.213482 307.265475 
z
" style="fill:#0000ff;"/>
   </g>
   <g id="patch_15">
    <path clip-path="url(#p6c1e1780ce)" d="M 177.722176 307.584 
L 180.230873 307.584 
L 180.230873 307.1593 
L 177.722176 307.1593 
z
" style="fill:#0000ff;"/>
   </g>
   <g id="patch_16">
    <path clip-path="url(#p6c1e1780ce)" d="M 180.230873 307.584 
L 182.739566 307.584 
L 182.739566 306.946949 
L 180.230873 306.946949 
z
" style="fill:#0000ff;"/>
   </g>
   <g id="patch_17">
    <path clip-path="url(#p6c1e1780ce)" d="M 182.739562 307.584 
L 185.248256 307.584 
L 185.248256 306.309899 
L 182.739562 306.309899 
z
" style="fill:#0000ff;"/>
   </g>
   <g id="patch_18">
    <path clip-path="url(#p6c1e1780ce)" d="M 185.248259 307.584 
L 187.756953 307.584 
L 187.756953 306.734599 
L 185.248259 306.734599 
z
" style="fill:#0000ff;"/>
   </g>
   <g id="patch_19">
    <path clip-path="url(#p6c1e1780ce)" d="M 187.756949 307.584 
L 190.265642 307.584 
L 190.265642 306.522249 
L 187.756949 306.522249 
z
" style="fill:#0000ff;"/>
   </g>
   <g id="patch_20">
    <path clip-path="url(#p6c1e1780ce)" d="M 190.265646 307.584 
L 192.774343 307.584 
L 192.774343 307.053124 
L 190.265646 307.053124 
z
" style="fill:#0000ff;"/>
   </g>
   <g id="patch_21">
    <path clip-path="url(#p6c1e1780ce)" d="M 192.774343 307.584 
L 195.283036 307.584 
L 195.283036 306.097548 
L 192.774343 306.097548 
z
" style="fill:#0000ff;"/>
   </g>
   <g id="patch_22">
    <path clip-path="url(#p6c1e1780ce)" d="M 195.283033 307.584 
L 197.791726 307.584 
L 197.791726 306.416074 
L 195.283033 306.416074 
z
" style="fill:#0000ff;"/>
   </g>
   <g id="patch_23">
    <path clip-path="url(#p6c1e1780ce)" d="M 197.79173 307.584 
L 200.300423 307.584 
L 200.300423 306.097548 
L 197.79173 306.097548 
z
" style="fill:#0000ff;"/>
   </g>
   <g id="patch_24">
    <path clip-path="url(#p6c1e1780ce)" d="M 200.300419 307.584 
L 202.809113 307.584 
L 202.809113 304.398747 
L 200.300419 304.398747 
z
" style="fill:#0000ff;"/>
   </g>
   <g id="patch_25">
    <path clip-path="url(#p6c1e1780ce)" d="M 202.809117 307.584 
L 205.317814 307.584 
L 205.317814 305.460498 
L 202.809117 305.460498 
z
" style="fill:#0000ff;"/>
   </g>
   <g id="patch_26">
    <path clip-path="url(#p6c1e1780ce)" d="M 205.317814 307.584 
L 207.826507 307.584 
L 207.826507 304.611097 
L 205.317814 304.611097 
z
" style="fill:#0000ff;"/>
   </g>
   <g id="patch_27">
    <path clip-path="url(#p6c1e1780ce)" d="M 207.826503 307.584 
L 210.335197 307.584 
L 210.335197 305.460498 
L 207.826503 305.460498 
z
" style="fill:#0000ff;"/>
   </g>
   <g id="patch_28">
    <path clip-path="url(#p6c1e1780ce)" d="M 210.3352 307.584 
L 212.843897 307.584 
L 212.843897 304.504922 
L 210.3352 304.504922 
z
" style="fill:#0000ff;"/>
   </g>
   <g id="patch_29">
    <path clip-path="url(#p6c1e1780ce)" d="M 212.843897 307.584 
L 215.352587 307.584 
L 215.352587 304.823447 
L 212.843897 304.823447 
z
" style="fill:#0000ff;"/>
   </g>
   <g id="patch_30">
    <path clip-path="url(#p6c1e1780ce)" d="M 215.352587 307.584 
L 217.861284 307.584 
L 217.861284 303.124645 
L 215.352587 303.124645 
z
" style="fill:#0000ff;"/>
   </g>
   <g id="patch_31">
    <path clip-path="url(#p6c1e1780ce)" d="M 217.861292 307.584 
L 220.369981 307.584 
L 220.369981 305.035797 
L 217.861292 305.035797 
z
" style="fill:#0000ff;"/>
   </g>
   <g id="patch_32">
    <path clip-path="url(#p6c1e1780ce)" d="M 220.369974 307.584 
L 222.878671 307.584 
L 222.878671 301.744369 
L 220.369974 301.744369 
z
" style="fill:#0000ff;"/>
   </g>
   <g id="patch_33">
    <path clip-path="url(#p6c1e1780ce)" d="M 222.878671 307.584 
L 225.387368 307.584 
L 225.387368 302.275244 
L 222.878671 302.275244 
z
" style="fill:#0000ff;"/>
   </g>
   <g id="patch_34">
    <path clip-path="url(#p6c1e1780ce)" d="M 225.387368 307.584 
L 227.896057 307.584 
L 227.896057 301.850544 
L 225.387368 301.850544 
z
" style="fill:#0000ff;"/>
   </g>
   <g id="patch_35">
    <path clip-path="url(#p6c1e1780ce)" d="M 227.896057 307.584 
L 230.404755 307.584 
L 230.404755 299.939392 
L 227.896057 299.939392 
z
" style="fill:#0000ff;"/>
   </g>
   <g id="patch_36">
    <path clip-path="url(#p6c1e1780ce)" d="M 230.404762 307.584 
L 232.913452 307.584 
L 232.913452 302.062894 
L 230.404762 302.062894 
z
" style="fill:#0000ff;"/>
   </g>
   <g id="patch_37">
    <path clip-path="url(#p6c1e1780ce)" d="M 232.913444 307.584 
L 235.422141 307.584 
L 235.422141 297.178839 
L 232.913444 297.178839 
z
" style="fill:#0000ff;"/>
   </g>
   <g id="patch_38">
    <path clip-path="url(#p6c1e1780ce)" d="M 235.422141 307.584 
L 237.930838 307.584 
L 237.930838 300.045567 
L 235.422141 300.045567 
z
" style="fill:#0000ff;"/>
   </g>
   <g id="patch_39">
    <path clip-path="url(#p6c1e1780ce)" d="M 237.930838 307.584 
L 240.439528 307.584 
L 240.439528 294.524461 
L 237.930838 294.524461 
z
" style="fill:#0000ff;"/>
   </g>
   <g id="patch_40">
    <path clip-path="url(#p6c1e1780ce)" d="M 240.439528 307.584 
L 242.948225 307.584 
L 242.948225 298.66529 
L 240.439528 298.66529 
z
" style="fill:#0000ff;"/>
   </g>
   <g id="patch_41">
    <path clip-path="url(#p6c1e1780ce)" d="M 242.948233 307.584 
L 245.456922 307.584 
L 245.456922 292.825659 
L 242.948233 292.825659 
z
" style="fill:#0000ff;"/>
   </g>
   <g id="patch_42">
    <path clip-path="url(#p6c1e1780ce)" d="M 245.456915 307.584 
L 247.965612 307.584 
L 247.965612 297.603539 
L 245.456915 297.603539 
z
" style="fill:#0000ff;"/>
   </g>
   <g id="patch_43">
    <path clip-path="url(#p6c1e1780ce)" d="M 247.965612 307.584 
L 250.474309 307.584 
L 250.474309 288.791005 
L 247.965612 288.791005 
z
" style="fill:#0000ff;"/>
   </g>
   <g id="patch_44">
    <path clip-path="url(#p6c1e1780ce)" d="M 250.474309 307.584 
L 252.982998 307.584 
L 252.982998 287.516903 
L 250.474309 287.516903 
z
" style="fill:#0000ff;"/>
   </g>
   <g id="patch_45">
    <path clip-path="url(#p6c1e1780ce)" d="M 252.982998 307.584 
L 255.491696 307.584 
L 255.491696 289.852756 
L 252.982998 289.852756 
z
" style="fill:#0000ff;"/>
   </g>
   <g id="patch_46">
    <path clip-path="url(#p6c1e1780ce)" d="M 255.491703 307.584 
L 258.000393 307.584 
L 258.000393 263.415152 
L 255.491703 263.415152 
z
" style="fill:#0000ff;"/>
   </g>
   <g id="patch_47">
    <path clip-path="url(#p6c1e1780ce)" d="M 258.000385 307.584 
L 260.509082 307.584 
L 260.509082 252.58529 
L 258.000385 252.58529 
z
" style="fill:#0000ff;"/>
   </g>
   <g id="patch_48">
    <path clip-path="url(#p6c1e1780ce)" d="M 260.509082 307.584 
L 263.017779 307.584 
L 263.017779 208.734968 
L 260.509082 208.734968 
z
" style="fill:#0000ff;"/>
   </g>
   <g id="patch_49">
    <path clip-path="url(#p6c1e1780ce)" d="M 263.017779 307.584 
L 265.526469 307.584 
L 265.526469 236.234323 
L 263.017779 236.234323 
z
" style="fill:#0000ff;"/>
   </g>
   <g id="patch_50">
    <path clip-path="url(#p6c1e1780ce)" d="M 265.526469 307.584 
L 268.035166 307.584 
L 268.035166 192.59635 
L 265.526469 192.59635 
z
" style="fill:#0000ff;"/>
   </g>
   <g id="patch_51">
    <path clip-path="url(#p6c1e1780ce)" d="M 268.035174 307.584 
L 270.543863 307.584 
L 270.543863 237.189899 
L 268.035174 237.189899 
z
" style="fill:#0000ff;"/>
   </g>
   <g id="patch_52">
    <path clip-path="url(#p6c1e1780ce)" d="M 270.543856 307.584 
L 273.052553 307.584 
L 273.052553 202.789161 
L 270.543856 202.789161 
z
" style="fill:#0000ff;"/>
   </g>
   <g id="patch_53">
    <path clip-path="url(#p6c1e1780ce)" d="M 273.052545 307.584 
L 275.561235 307.584 
L 275.561235 221.794507 
L 273.052545 221.794507 
z
" style="fill:#0000ff;"/>
   </g>
   <g id="patch_54">
    <path clip-path="url(#p6c1e1780ce)" d="M 275.561265 307.584 
L 278.069962 307.584 
L 278.069962 270.953585 
L 275.561265 270.953585 
z
" style="fill:#0000ff;"/>
   </g>
   <g id="patch_55">
    <path clip-path="url(#p6c1e1780ce)" d="M 278.069947 307.584 
L 280.578629 307.584 
L 280.578629 274.032664 
L 278.069947 274.032664 
z
" style="fill:#0000ff;"/>
   </g>
   <g id="patch_56">
    <path clip-path="url(#p6c1e1780ce)" d="M 280.578629 307.584 
L 283.087326 307.584 
L 283.087326 289.428055 
L 280.578629 289.428055 
z
" style="fill:#0000ff;"/>
   </g>
   <g id="patch_57">
    <path clip-path="url(#p6c1e1780ce)" d="M 283.087341 307.584 
L 285.596038 307.584 
L 285.596038 286.030452 
L 283.087341 286.030452 
z
" style="fill:#0000ff;"/>
   </g>
   <g id="patch_58">
    <path clip-path="url(#p6c1e1780ce)" d="M 285.596023 307.584 
L 288.10472 307.584 
L 288.10472 292.294783 
L 285.596023 292.294783 
z
" style="fill:#0000ff;"/>
   </g>
   <g id="patch_59">
    <path clip-path="url(#p6c1e1780ce)" d="M 288.104735 307.584 
L 290.613432 307.584 
L 290.613432 287.516903 
L 288.104735 287.516903 
z
" style="fill:#0000ff;"/>
   </g>
   <g id="patch_60">
    <path clip-path="url(#p6c1e1780ce)" d="M 290.613417 307.584 
L 293.1221 307.584 
L 293.1221 294.736811 
L 290.613417 294.736811 
z
" style="fill:#0000ff;"/>
   </g>
   <g id="patch_61">
    <path clip-path="url(#p6c1e1780ce)" d="M 293.1221 307.584 
L 295.630797 307.584 
L 295.630797 292.294783 
L 293.1221 292.294783 
z
" style="fill:#0000ff;"/>
   </g>
   <g id="patch_62">
    <path clip-path="url(#p6c1e1780ce)" d="M 295.630812 307.584 
L 298.139509 307.584 
L 298.139509 299.196166 
L 295.630812 299.196166 
z
" style="fill:#0000ff;"/>
   </g>
   <g id="patch_63">
    <path clip-path="url(#p6c1e1780ce)" d="M 298.139494 307.584 
L 300.648191 307.584 
L 300.648191 296.117088 
L 298.139494 296.117088 
z
" style="fill:#0000ff;"/>
   </g>
   <g id="patch_64">
    <path clip-path="url(#p6c1e1780ce)" d="M 300.648206 307.584 
L 303.156903 307.584 
L 303.156903 297.922065 
L 300.648206 297.922065 
z
" style="fill:#0000ff;"/>
   </g>
   <g id="patch_65">
    <path clip-path="url(#p6c1e1780ce)" d="M 303.156888 307.584 
L 305.66557 307.584 
L 305.66557 302.275244 
L 303.156888 302.275244 
z
" style="fill:#0000ff;"/>
   </g>
   <g id="patch_66">
    <path clip-path="url(#p6c1e1780ce)" d="M 305.66557 307.584 
L 308.174267 307.584 
L 308.174267 300.682618 
L 305.66557 300.682618 
z
" style="fill:#0000ff;"/>
   </g>
   <g id="patch_67">
    <path clip-path="url(#p6c1e1780ce)" d="M 308.174282 307.584 
L 310.682979 307.584 
L 310.682979 304.398747 
L 308.174282 304.398747 
z
" style="fill:#0000ff;"/>
   </g>
   <g id="patch_68">
    <path clip-path="url(#p6c1e1780ce)" d="M 310.682964 307.584 
L 313.191661 307.584 
L 313.191661 302.381419 
L 310.682964 302.381419 
z
" style="fill:#0000ff;"/>
   </g>
   <g id="patch_69">
    <path clip-path="url(#p6c1e1780ce)" d="M 313.191676 307.584 
L 315.700373 307.584 
L 315.700373 304.823447 
L 313.191676 304.823447 
z
" style="fill:#0000ff;"/>
   </g>
   <g id="patch_70">
    <path clip-path="url(#p6c1e1780ce)" d="M 315.700358 307.584 
L 318.209041 307.584 
L 318.209041 305.248147 
L 315.700358 305.248147 
z
" style="fill:#0000ff;"/>
   </g>
   <g id="patch_71">
    <path clip-path="url(#p6c1e1780ce)" d="M 318.209041 307.584 
L 320.717738 307.584 
L 320.717738 305.460498 
L 318.209041 305.460498 
z
" style="fill:#0000ff;"/>
   </g>
   <g id="patch_72">
    <path clip-path="url(#p6c1e1780ce)" d="M 320.717753 307.584 
L 323.22645 307.584 
L 323.22645 306.203724 
L 320.717753 306.203724 
z
" style="fill:#0000ff;"/>
   </g>
   <g id="patch_73">
    <path clip-path="url(#p6c1e1780ce)" d="M 323.226435 307.584 
L 325.735132 307.584 
L 325.735132 306.097548 
L 323.226435 306.097548 
z
" style="fill:#0000ff;"/>
   </g>
   <g id="patch_74">
    <path clip-path="url(#p6c1e1780ce)" d="M 325.735147 307.584 
L 328.243844 307.584 
L 328.243844 306.840774 
L 325.735147 306.840774 
z
" style="fill:#0000ff;"/>
   </g>
   <g id="patch_75">
    <path clip-path="url(#p6c1e1780ce)" d="M 328.243829 307.584 
L 330.752511 307.584 
L 330.752511 306.628424 
L 328.243829 306.628424 
z
" style="fill:#0000ff;"/>
   </g>
   <g id="patch_76">
    <path clip-path="url(#p6c1e1780ce)" d="M 330.752511 307.584 
L 333.261208 307.584 
L 333.261208 307.265475 
L 330.752511 307.265475 
z
" style="fill:#0000ff;"/>
   </g>
   <g id="patch_77">
    <path clip-path="url(#p6c1e1780ce)" d="M 333.261223 307.584 
L 335.76992 307.584 
L 335.76992 306.628424 
L 333.261223 306.628424 
z
" style="fill:#0000ff;"/>
   </g>
   <g id="patch_78">
    <path clip-path="url(#p6c1e1780ce)" d="M 335.769905 307.584 
L 338.278602 307.584 
L 338.278602 307.265475 
L 335.769905 307.265475 
z
" style="fill:#0000ff;"/>
   </g>
   <g id="patch_79">
    <path clip-path="url(#p6c1e1780ce)" d="M 338.278617 307.584 
L 340.787314 307.584 
L 340.787314 307.1593 
L 338.278617 307.1593 
z
" style="fill:#0000ff;"/>
   </g>
   <g id="patch_80">
    <path clip-path="url(#p6c1e1780ce)" d="M 340.787299 307.584 
L 343.295982 307.584 
L 343.295982 307.37165 
L 340.787299 307.37165 
z
" style="fill:#0000ff;"/>
   </g>
   <g id="patch_81">
    <path clip-path="url(#p6c1e1780ce)" d="M 343.295982 307.584 
L 345.804679 307.584 
L 345.804679 307.477825 
L 343.295982 307.477825 
z
" style="fill:#0000ff;"/>
   </g>
   <g id="patch_82">
    <path clip-path="url(#p6c1e1780ce)" d="M 345.804694 307.584 
L 348.313391 307.584 
L 348.313391 307.37165 
L 345.804694 307.37165 
z
" style="fill:#0000ff;"/>
   </g>
   <g id="patch_83">
    <path clip-path="url(#p6c1e1780ce)" d="M 348.313376 307.584 
L 350.822073 307.584 
L 350.822073 307.37165 
L 348.313376 307.37165 
z
" style="fill:#0000ff;"/>
   </g>
   <g id="patch_84">
    <path clip-path="url(#p6c1e1780ce)" d="M 350.822088 307.584 
L 353.330785 307.584 
L 353.330785 307.584 
L 350.822088 307.584 
z
" style="fill:#0000ff;"/>
   </g>
   <g id="patch_85">
    <path clip-path="url(#p6c1e1780ce)" d="M 353.33077 307.584 
L 355.839452 307.584 
L 355.839452 307.584 
L 353.33077 307.584 
z
" style="fill:#0000ff;"/>
   </g>
   <g id="patch_86">
    <path clip-path="url(#p6c1e1780ce)" d="M 355.839452 307.584 
L 358.348149 307.584 
L 358.348149 307.477825 
L 355.839452 307.477825 
z
" style="fill:#0000ff;"/>
   </g>
   <g id="patch_87">
    <path clip-path="url(#p6c1e1780ce)" d="M 358.348164 307.584 
L 360.856861 307.584 
L 360.856861 307.584 
L 358.348164 307.584 
z
" style="fill:#0000ff;"/>
   </g>
   <g id="patch_88">
    <path clip-path="url(#p6c1e1780ce)" d="M 360.856846 307.584 
L 363.365543 307.584 
L 363.365543 307.584 
L 360.856846 307.584 
z
" style="fill:#0000ff;"/>
   </g>
   <g id="patch_89">
    <path clip-path="url(#p6c1e1780ce)" d="M 363.365558 307.584 
L 365.874255 307.584 
L 365.874255 307.477825 
L 363.365558 307.477825 
z
" style="fill:#0000ff;"/>
   </g>
   <g id="patch_90">
    <path clip-path="url(#p6c1e1780ce)" d="M 365.87424 307.584 
L 368.382923 307.584 
L 368.382923 307.584 
L 365.87424 307.584 
z
" style="fill:#0000ff;"/>
   </g>
   <g id="patch_91">
    <path clip-path="url(#p6c1e1780ce)" d="M 368.382923 307.584 
L 370.89162 307.584 
L 370.89162 307.584 
L 368.382923 307.584 
z
" style="fill:#0000ff;"/>
   </g>
   <g id="patch_92">
    <path clip-path="url(#p6c1e1780ce)" d="M 370.891635 307.584 
L 373.400332 307.584 
L 373.400332 307.584 
L 370.891635 307.584 
z
" style="fill:#0000ff;"/>
   </g>
   <g id="patch_93">
    <path clip-path="url(#p6c1e1780ce)" d="M 373.400317 307.584 
L 375.909014 307.584 
L 375.909014 307.477825 
L 373.400317 307.477825 
z
" style="fill:#0000ff;"/>
   </g>
   <g id="patch_94">
    <path clip-path="url(#p6c1e1780ce)" d="M 375.909029 307.584 
L 378.417726 307.584 
L 378.417726 307.477825 
L 375.909029 307.477825 
z
" style="fill:#0000ff;"/>
   </g>
   <g id="patch_95">
    <path clip-path="url(#p6c1e1780ce)" d="M 378.417711 307.584 
L 380.926393 307.584 
L 380.926393 307.477825 
L 378.417711 307.477825 
z
" style="fill:#0000ff;"/>
   </g>
   <g id="patch_96">
    <path clip-path="url(#p6c1e1780ce)" d="M 380.926393 307.584 
L 383.43509 307.584 
L 383.43509 307.584 
L 380.926393 307.584 
z
" style="fill:#0000ff;"/>
   </g>
   <g id="patch_97">
    <path clip-path="url(#p6c1e1780ce)" d="M 383.435105 307.584 
L 385.943802 307.584 
L 385.943802 307.584 
L 383.435105 307.584 
z
" style="fill:#0000ff;"/>
   </g>
   <g id="patch_98">
    <path clip-path="url(#p6c1e1780ce)" d="M 385.943787 307.584 
L 388.452484 307.584 
L 388.452484 307.584 
L 385.943787 307.584 
z
" style="fill:#0000ff;"/>
   </g>
   <g id="patch_99">
    <path clip-path="url(#p6c1e1780ce)" d="M 388.452499 307.584 
L 390.961196 307.584 
L 390.961196 307.584 
L 388.452499 307.584 
z
" style="fill:#0000ff;"/>
   </g>
   <g id="patch_100">
    <path clip-path="url(#p6c1e1780ce)" d="M 390.961181 307.584 
L 393.469864 307.584 
L 393.469864 307.584 
L 390.961181 307.584 
z
" style="fill:#0000ff;"/>
   </g>
   <g id="patch_101">
    <path clip-path="url(#p6c1e1780ce)" d="M 393.469864 307.584 
L 395.978561 307.584 
L 395.978561 307.584 
L 393.469864 307.584 
z
" style="fill:#0000ff;"/>
   </g>
   <g id="patch_102">
    <path clip-path="url(#p6c1e1780ce)" d="M 395.978576 307.584 
L 398.487273 307.584 
L 398.487273 307.477825 
L 395.978576 307.477825 
z
" style="fill:#0000ff;"/>
   </g>
   <g id="patch_103">
    <path clip-path="url(#p6c1e1780ce)" d="M 73.832727 307.584 
L 75.367455 307.584 
L 75.367455 234.216995 
L 73.832727 234.216995 
z
" style="fill:#808080;"/>
   </g>
   <g id="patch_104">
    <path clip-path="url(#p6c1e1780ce)" d="M 75.367455 307.584 
L 76.902191 307.584 
L 76.902191 307.584 
L 75.367455 307.584 
z
" style="fill:#808080;"/>
   </g>
   <g id="patch_105">
    <path clip-path="url(#p6c1e1780ce)" d="M 76.902191 307.584 
L 78.436919 307.584 
L 78.436919 136.217364 
L 76.902191 136.217364 
z
" style="fill:#808080;"/>
   </g>
   <g id="patch_106">
    <path clip-path="url(#p6c1e1780ce)" d="M 78.436919 307.584 
L 79.971647 307.584 
L 79.971647 307.584 
L 78.436919 307.584 
z
" style="fill:#808080;"/>
   </g>
   <g id="patch_107">
    <path clip-path="url(#p6c1e1780ce)" d="M 79.971655 307.584 
L 81.50639 307.584 
L 81.50639 307.584 
L 79.971655 307.584 
z
" style="fill:#808080;"/>
   </g>
   <g id="patch_108">
    <path clip-path="url(#p6c1e1780ce)" d="M 81.506383 307.584 
L 83.041111 307.584 
L 83.041111 54.144 
L 81.506383 54.144 
z
" style="fill:#808080;"/>
   </g>
   <g id="patch_109">
    <path clip-path="url(#p6c1e1780ce)" d="M 83.041111 307.584 
L 84.575839 307.584 
L 84.575839 307.584 
L 83.041111 307.584 
z
" style="fill:#808080;"/>
   </g>
   <g id="patch_110">
    <path clip-path="url(#p6c1e1780ce)" d="M 84.575839 307.584 
L 86.110567 307.584 
L 86.110567 69.964092 
L 84.575839 69.964092 
z
" style="fill:#808080;"/>
   </g>
   <g id="patch_111">
    <path clip-path="url(#p6c1e1780ce)" d="M 86.110575 307.584 
L 87.645303 307.584 
L 87.645303 307.584 
L 86.110575 307.584 
z
" style="fill:#808080;"/>
   </g>
   <g id="patch_112">
    <path clip-path="url(#p6c1e1780ce)" d="M 87.645303 307.584 
L 89.180031 307.584 
L 89.180031 307.584 
L 87.645303 307.584 
z
" style="fill:#808080;"/>
   </g>
   <g id="patch_113">
    <path clip-path="url(#p6c1e1780ce)" d="M 89.180031 307.584 
L 90.714759 307.584 
L 90.714759 185.907318 
L 89.180031 185.907318 
z
" style="fill:#808080;"/>
   </g>
   <g id="patch_114">
    <path clip-path="url(#p6c1e1780ce)" d="M 90.714766 307.584 
L 92.249495 307.584 
L 92.249495 307.584 
L 90.714766 307.584 
z
" style="fill:#808080;"/>
   </g>
   <g id="patch_115">
    <path clip-path="url(#p6c1e1780ce)" d="M 92.249495 307.584 
L 93.784223 307.584 
L 93.784223 233.579945 
L 92.249495 233.579945 
z
" style="fill:#808080;"/>
   </g>
   <g id="patch_116">
    <path clip-path="url(#p6c1e1780ce)" d="M 93.784223 307.584 
L 95.318951 307.584 
L 95.318951 307.584 
L 93.784223 307.584 
z
" style="fill:#808080;"/>
   </g>
   <g id="patch_117">
    <path clip-path="url(#p6c1e1780ce)" d="M 95.318958 307.584 
L 96.853686 307.584 
L 96.853686 307.584 
L 95.318958 307.584 
z
" style="fill:#808080;"/>
   </g>
   <g id="patch_118">
    <path clip-path="url(#p6c1e1780ce)" d="M 96.853686 307.584 
L 98.388414 307.584 
L 98.388414 233.89847 
L 96.853686 233.89847 
z
" style="fill:#808080;"/>
   </g>
   <g id="patch_119">
    <path clip-path="url(#p6c1e1780ce)" d="M 98.388414 307.584 
L 99.923143 307.584 
L 99.923143 307.584 
L 98.388414 307.584 
z
" style="fill:#808080;"/>
   </g>
   <g id="patch_120">
    <path clip-path="url(#p6c1e1780ce)" d="M 99.92315 307.584 
L 101.457878 307.584 
L 101.457878 243.135705 
L 99.92315 243.135705 
z
" style="fill:#808080;"/>
   </g>
   <g id="patch_121">
    <path clip-path="url(#p6c1e1780ce)" d="M 101.457878 307.584 
L 102.992606 307.584 
L 102.992606 307.584 
L 101.457878 307.584 
z
" style="fill:#808080;"/>
   </g>
   <g id="patch_122">
    <path clip-path="url(#p6c1e1780ce)" d="M 102.992606 307.584 
L 104.527334 307.584 
L 104.527334 307.584 
L 102.992606 307.584 
z
" style="fill:#808080;"/>
   </g>
   <g id="patch_123">
    <path clip-path="url(#p6c1e1780ce)" d="M 104.527338 307.584 
L 106.062066 307.584 
L 106.062066 307.584 
L 104.527338 307.584 
z
" style="fill:#808080;"/>
   </g>
   <g id="patch_124">
    <path clip-path="url(#p6c1e1780ce)" d="M 106.06207 307.584 
L 107.596798 307.584 
L 107.596798 307.584 
L 106.06207 307.584 
z
" style="fill:#808080;"/>
   </g>
   <g id="patch_125">
    <path clip-path="url(#p6c1e1780ce)" d="M 107.596798 307.584 
L 109.131526 307.584 
L 109.131526 307.584 
L 107.596798 307.584 
z
" style="fill:#808080;"/>
   </g>
   <g id="patch_126">
    <path clip-path="url(#p6c1e1780ce)" d="M 109.13153 307.584 
L 110.666258 307.584 
L 110.666258 307.584 
L 109.13153 307.584 
z
" style="fill:#808080;"/>
   </g>
   <g id="patch_127">
    <path clip-path="url(#p6c1e1780ce)" d="M 110.666262 307.584 
L 112.20099 307.584 
L 112.20099 307.584 
L 110.666262 307.584 
z
" style="fill:#808080;"/>
   </g>
   <g id="patch_128">
    <path clip-path="url(#p6c1e1780ce)" d="M 112.20099 307.584 
L 113.735718 307.584 
L 113.735718 307.584 
L 112.20099 307.584 
z
" style="fill:#808080;"/>
   </g>
   <g id="patch_129">
    <path clip-path="url(#p6c1e1780ce)" d="M 113.735722 307.584 
L 115.27045 307.584 
L 115.27045 307.584 
L 113.735722 307.584 
z
" style="fill:#808080;"/>
   </g>
   <g id="patch_130">
    <path clip-path="url(#p6c1e1780ce)" d="M 115.270454 307.584 
L 116.805182 307.584 
L 116.805182 307.584 
L 115.270454 307.584 
z
" style="fill:#808080;"/>
   </g>
   <g id="patch_131">
    <path clip-path="url(#p6c1e1780ce)" d="M 116.805182 307.584 
L 118.33991 307.584 
L 118.33991 307.584 
L 116.805182 307.584 
z
" style="fill:#808080;"/>
   </g>
   <g id="patch_132">
    <path clip-path="url(#p6c1e1780ce)" d="M 118.339914 307.584 
L 119.874642 307.584 
L 119.874642 307.584 
L 118.339914 307.584 
z
" style="fill:#808080;"/>
   </g>
   <g id="patch_133">
    <path clip-path="url(#p6c1e1780ce)" d="M 119.874644 307.584 
L 121.409372 307.584 
L 121.409372 307.584 
L 119.874644 307.584 
z
" style="fill:#808080;"/>
   </g>
   <g id="patch_134">
    <path clip-path="url(#p6c1e1780ce)" d="M 121.409374 307.584 
L 122.944102 307.584 
L 122.944102 307.584 
L 121.409374 307.584 
z
" style="fill:#808080;"/>
   </g>
   <g id="patch_135">
    <path clip-path="url(#p6c1e1780ce)" d="M 122.944105 307.584 
L 124.478834 307.584 
L 124.478834 307.584 
L 122.944105 307.584 
z
" style="fill:#808080;"/>
   </g>
   <g id="patch_136">
    <path clip-path="url(#p6c1e1780ce)" d="M 124.478835 307.584 
L 126.013564 307.584 
L 126.013564 307.584 
L 124.478835 307.584 
z
" style="fill:#808080;"/>
   </g>
   <g id="patch_137">
    <path clip-path="url(#p6c1e1780ce)" d="M 126.013565 307.584 
L 127.548294 307.584 
L 127.548294 307.584 
L 126.013565 307.584 
z
" style="fill:#808080;"/>
   </g>
   <g id="patch_138">
    <path clip-path="url(#p6c1e1780ce)" d="M 127.548297 307.584 
L 129.083025 307.584 
L 129.083025 307.584 
L 127.548297 307.584 
z
" style="fill:#808080;"/>
   </g>
   <g id="patch_139">
    <path clip-path="url(#p6c1e1780ce)" d="M 129.083025 307.584 
L 130.617754 307.584 
L 130.617754 307.584 
L 129.083025 307.584 
z
" style="fill:#808080;"/>
   </g>
   <g id="patch_140">
    <path clip-path="url(#p6c1e1780ce)" d="M 130.617757 307.584 
L 132.152485 307.584 
L 132.152485 307.584 
L 130.617757 307.584 
z
" style="fill:#808080;"/>
   </g>
   <g id="patch_141">
    <path clip-path="url(#p6c1e1780ce)" d="M 132.152487 307.584 
L 133.687215 307.584 
L 133.687215 307.584 
L 132.152487 307.584 
z
" style="fill:#808080;"/>
   </g>
   <g id="patch_142">
    <path clip-path="url(#p6c1e1780ce)" d="M 133.687218 307.584 
L 135.221946 307.584 
L 135.221946 307.584 
L 133.687218 307.584 
z
" style="fill:#808080;"/>
   </g>
   <g id="patch_143">
    <path clip-path="url(#p6c1e1780ce)" d="M 135.221949 307.584 
L 136.756677 307.584 
L 136.756677 307.584 
L 135.221949 307.584 
z
" style="fill:#808080;"/>
   </g>
   <g id="patch_144">
    <path clip-path="url(#p6c1e1780ce)" d="M 136.756679 307.584 
L 138.291407 307.584 
L 138.291407 307.584 
L 136.756679 307.584 
z
" style="fill:#808080;"/>
   </g>
   <g id="patch_145">
    <path clip-path="url(#p6c1e1780ce)" d="M 138.29141 307.584 
L 139.826138 307.584 
L 139.826138 307.584 
L 138.29141 307.584 
z
" style="fill:#808080;"/>
   </g>
   <g id="patch_146">
    <path clip-path="url(#p6c1e1780ce)" d="M 139.82614 307.584 
L 141.360868 307.584 
L 141.360868 307.584 
L 139.82614 307.584 
z
" style="fill:#808080;"/>
   </g>
   <g id="patch_147">
    <path clip-path="url(#p6c1e1780ce)" d="M 141.360871 307.584 
L 142.895599 307.584 
L 142.895599 307.584 
L 141.360871 307.584 
z
" style="fill:#808080;"/>
   </g>
   <g id="patch_148">
    <path clip-path="url(#p6c1e1780ce)" d="M 142.895601 307.584 
L 144.430329 307.584 
L 144.430329 307.584 
L 142.895601 307.584 
z
" style="fill:#808080;"/>
   </g>
   <g id="patch_149">
    <path clip-path="url(#p6c1e1780ce)" d="M 144.430332 307.584 
L 145.96506 307.584 
L 145.96506 307.584 
L 144.430332 307.584 
z
" style="fill:#808080;"/>
   </g>
   <g id="patch_150">
    <path clip-path="url(#p6c1e1780ce)" d="M 145.965062 307.584 
L 147.49979 307.584 
L 147.49979 307.584 
L 145.965062 307.584 
z
" style="fill:#808080;"/>
   </g>
   <g id="patch_151">
    <path clip-path="url(#p6c1e1780ce)" d="M 147.499793 307.584 
L 149.034521 307.584 
L 149.034521 307.584 
L 147.499793 307.584 
z
" style="fill:#808080;"/>
   </g>
   <g id="patch_152">
    <path clip-path="url(#p6c1e1780ce)" d="M 149.034523 307.584 
L 150.569251 307.584 
L 150.569251 307.584 
L 149.034523 307.584 
z
" style="fill:#808080;"/>
   </g>
   <g id="patch_153">
    <path clip-path="url(#p6c1e1780ce)" d="M 150.569254 307.584 
L 152.103982 307.584 
L 152.103982 307.584 
L 150.569254 307.584 
z
" style="fill:#808080;"/>
   </g>
   <g id="patch_154">
    <path clip-path="url(#p6c1e1780ce)" d="M 152.103985 307.584 
L 153.638713 307.584 
L 153.638713 307.584 
L 152.103985 307.584 
z
" style="fill:#808080;"/>
   </g>
   <g id="patch_155">
    <path clip-path="url(#p6c1e1780ce)" d="M 153.638714 307.584 
L 155.173443 307.584 
L 155.173443 307.584 
L 153.638714 307.584 
z
" style="fill:#808080;"/>
   </g>
   <g id="patch_156">
    <path clip-path="url(#p6c1e1780ce)" d="M 155.173445 307.584 
L 156.708174 307.584 
L 156.708174 307.584 
L 155.173445 307.584 
z
" style="fill:#808080;"/>
   </g>
   <g id="patch_157">
    <path clip-path="url(#p6c1e1780ce)" d="M 156.708176 307.584 
L 158.242904 307.584 
L 158.242904 307.584 
L 156.708176 307.584 
z
" style="fill:#808080;"/>
   </g>
   <g id="patch_158">
    <path clip-path="url(#p6c1e1780ce)" d="M 158.242906 307.584 
L 159.777634 307.584 
L 159.777634 307.584 
L 158.242906 307.584 
z
" style="fill:#808080;"/>
   </g>
   <g id="patch_159">
    <path clip-path="url(#p6c1e1780ce)" d="M 159.777636 307.584 
L 161.312364 307.584 
L 161.312364 307.584 
L 159.777636 307.584 
z
" style="fill:#808080;"/>
   </g>
   <g id="patch_160">
    <path clip-path="url(#p6c1e1780ce)" d="M 161.312367 307.584 
L 162.847095 307.584 
L 162.847095 307.584 
L 161.312367 307.584 
z
" style="fill:#808080;"/>
   </g>
   <g id="patch_161">
    <path clip-path="url(#p6c1e1780ce)" d="M 162.847098 307.584 
L 164.381826 307.584 
L 164.381826 307.584 
L 162.847098 307.584 
z
" style="fill:#808080;"/>
   </g>
   <g id="patch_162">
    <path clip-path="url(#p6c1e1780ce)" d="M 164.381828 307.584 
L 165.916556 307.584 
L 165.916556 307.584 
L 164.381828 307.584 
z
" style="fill:#808080;"/>
   </g>
   <g id="patch_163">
    <path clip-path="url(#p6c1e1780ce)" d="M 165.91656 307.584 
L 167.451288 307.584 
L 167.451288 307.584 
L 165.91656 307.584 
z
" style="fill:#808080;"/>
   </g>
   <g id="patch_164">
    <path clip-path="url(#p6c1e1780ce)" d="M 167.451288 307.584 
L 168.986016 307.584 
L 168.986016 307.584 
L 167.451288 307.584 
z
" style="fill:#808080;"/>
   </g>
   <g id="patch_165">
    <path clip-path="url(#p6c1e1780ce)" d="M 168.98602 307.584 
L 170.520748 307.584 
L 170.520748 307.584 
L 168.98602 307.584 
z
" style="fill:#808080;"/>
   </g>
   <g id="patch_166">
    <path clip-path="url(#p6c1e1780ce)" d="M 170.520752 307.584 
L 172.05548 307.584 
L 172.05548 307.584 
L 170.520752 307.584 
z
" style="fill:#808080;"/>
   </g>
   <g id="patch_167">
    <path clip-path="url(#p6c1e1780ce)" d="M 172.05548 307.584 
L 173.590208 307.584 
L 173.590208 307.584 
L 172.05548 307.584 
z
" style="fill:#808080;"/>
   </g>
   <g id="patch_168">
    <path clip-path="url(#p6c1e1780ce)" d="M 173.590212 307.584 
L 175.12494 307.584 
L 175.12494 307.584 
L 173.590212 307.584 
z
" style="fill:#808080;"/>
   </g>
   <g id="patch_169">
    <path clip-path="url(#p6c1e1780ce)" d="M 175.124942 307.584 
L 176.65967 307.584 
L 176.65967 307.584 
L 175.124942 307.584 
z
" style="fill:#808080;"/>
   </g>
   <g id="patch_170">
    <path clip-path="url(#p6c1e1780ce)" d="M 176.659672 307.584 
L 178.1944 307.584 
L 178.1944 307.584 
L 176.659672 307.584 
z
" style="fill:#808080;"/>
   </g>
   <g id="patch_171">
    <path clip-path="url(#p6c1e1780ce)" d="M 178.194404 307.584 
L 179.729132 307.584 
L 179.729132 307.584 
L 178.194404 307.584 
z
" style="fill:#808080;"/>
   </g>
   <g id="patch_172">
    <path clip-path="url(#p6c1e1780ce)" d="M 179.729132 307.584 
L 181.26386 307.584 
L 181.26386 307.584 
L 179.729132 307.584 
z
" style="fill:#808080;"/>
   </g>
   <g id="patch_173">
    <path clip-path="url(#p6c1e1780ce)" d="M 181.263864 307.584 
L 182.798592 307.584 
L 182.798592 307.584 
L 181.263864 307.584 
z
" style="fill:#808080;"/>
   </g>
   <g id="patch_174">
    <path clip-path="url(#p6c1e1780ce)" d="M 182.798595 307.584 
L 184.333324 307.584 
L 184.333324 307.584 
L 182.798595 307.584 
z
" style="fill:#808080;"/>
   </g>
   <g id="patch_175">
    <path clip-path="url(#p6c1e1780ce)" d="M 184.333324 307.584 
L 185.868052 307.584 
L 185.868052 307.584 
L 184.333324 307.584 
z
" style="fill:#808080;"/>
   </g>
   <g id="patch_176">
    <path clip-path="url(#p6c1e1780ce)" d="M 185.868055 307.584 
L 187.402783 307.584 
L 187.402783 307.584 
L 185.868055 307.584 
z
" style="fill:#808080;"/>
   </g>
   <g id="patch_177">
    <path clip-path="url(#p6c1e1780ce)" d="M 187.402787 307.584 
L 188.937515 307.584 
L 188.937515 307.584 
L 187.402787 307.584 
z
" style="fill:#808080;"/>
   </g>
   <g id="patch_178">
    <path clip-path="url(#p6c1e1780ce)" d="M 188.937515 307.584 
L 190.472243 307.584 
L 190.472243 307.584 
L 188.937515 307.584 
z
" style="fill:#808080;"/>
   </g>
   <g id="patch_179">
    <path clip-path="url(#p6c1e1780ce)" d="M 190.472247 307.584 
L 192.006975 307.584 
L 192.006975 307.584 
L 190.472247 307.584 
z
" style="fill:#808080;"/>
   </g>
   <g id="patch_180">
    <path clip-path="url(#p6c1e1780ce)" d="M 192.006979 307.584 
L 193.541707 307.584 
L 193.541707 307.584 
L 192.006979 307.584 
z
" style="fill:#808080;"/>
   </g>
   <g id="patch_181">
    <path clip-path="url(#p6c1e1780ce)" d="M 193.541707 307.584 
L 195.076435 307.584 
L 195.076435 307.584 
L 193.541707 307.584 
z
" style="fill:#808080;"/>
   </g>
   <g id="patch_182">
    <path clip-path="url(#p6c1e1780ce)" d="M 195.076439 307.584 
L 196.611167 307.584 
L 196.611167 307.584 
L 195.076439 307.584 
z
" style="fill:#808080;"/>
   </g>
   <g id="patch_183">
    <path clip-path="url(#p6c1e1780ce)" d="M 196.611171 307.584 
L 198.145899 307.584 
L 198.145899 307.584 
L 196.611171 307.584 
z
" style="fill:#808080;"/>
   </g>
   <g id="patch_184">
    <path clip-path="url(#p6c1e1780ce)" d="M 198.145899 307.584 
L 199.680627 307.584 
L 199.680627 307.584 
L 198.145899 307.584 
z
" style="fill:#808080;"/>
   </g>
   <g id="patch_185">
    <path clip-path="url(#p6c1e1780ce)" d="M 199.680627 307.584 
L 201.215355 307.584 
L 201.215355 307.477825 
L 199.680627 307.477825 
z
" style="fill:#808080;"/>
   </g>
   <g id="patch_186">
    <path clip-path="url(#p6c1e1780ce)" d="M 201.215363 307.584 
L 202.750091 307.584 
L 202.750091 307.584 
L 201.215363 307.584 
z
" style="fill:#808080;"/>
   </g>
   <g id="patch_187">
    <path clip-path="url(#p6c1e1780ce)" d="M 202.750091 307.584 
L 204.284819 307.584 
L 204.284819 307.477825 
L 202.750091 307.477825 
z
" style="fill:#808080;"/>
   </g>
   <g id="patch_188">
    <path clip-path="url(#p6c1e1780ce)" d="M 204.284819 307.584 
L 205.819547 307.584 
L 205.819547 307.584 
L 204.284819 307.584 
z
" style="fill:#808080;"/>
   </g>
   <g id="patch_189">
    <path clip-path="url(#p6c1e1780ce)" d="M 205.819555 307.584 
L 207.354283 307.584 
L 207.354283 307.584 
L 205.819555 307.584 
z
" style="fill:#808080;"/>
   </g>
   <g id="patch_190">
    <path clip-path="url(#p6c1e1780ce)" d="M 207.354283 307.584 
L 208.889011 307.584 
L 208.889011 307.584 
L 207.354283 307.584 
z
" style="fill:#808080;"/>
   </g>
   <g id="patch_191">
    <path clip-path="url(#p6c1e1780ce)" d="M 208.889011 307.584 
L 210.423739 307.584 
L 210.423739 307.584 
L 208.889011 307.584 
z
" style="fill:#808080;"/>
   </g>
   <g id="patch_192">
    <path clip-path="url(#p6c1e1780ce)" d="M 210.423746 307.584 
L 211.958474 307.584 
L 211.958474 307.477825 
L 210.423746 307.477825 
z
" style="fill:#808080;"/>
   </g>
   <g id="patch_193">
    <path clip-path="url(#p6c1e1780ce)" d="M 211.958474 307.584 
L 213.493203 307.584 
L 213.493203 307.584 
L 211.958474 307.584 
z
" style="fill:#808080;"/>
   </g>
   <g id="patch_194">
    <path clip-path="url(#p6c1e1780ce)" d="M 213.493203 307.584 
L 215.027931 307.584 
L 215.027931 307.584 
L 213.493203 307.584 
z
" style="fill:#808080;"/>
   </g>
   <g id="patch_195">
    <path clip-path="url(#p6c1e1780ce)" d="M 215.027938 307.584 
L 216.562674 307.584 
L 216.562674 307.37165 
L 215.027938 307.37165 
z
" style="fill:#808080;"/>
   </g>
   <g id="patch_196">
    <path clip-path="url(#p6c1e1780ce)" d="M 216.562666 307.584 
L 218.097394 307.584 
L 218.097394 307.584 
L 216.562666 307.584 
z
" style="fill:#808080;"/>
   </g>
   <g id="patch_197">
    <path clip-path="url(#p6c1e1780ce)" d="M 218.097394 307.584 
L 219.632122 307.584 
L 219.632122 307.584 
L 218.097394 307.584 
z
" style="fill:#808080;"/>
   </g>
   <g id="patch_198">
    <path clip-path="url(#p6c1e1780ce)" d="M 219.632122 307.584 
L 221.166858 307.584 
L 221.166858 307.584 
L 219.632122 307.584 
z
" style="fill:#808080;"/>
   </g>
   <g id="patch_199">
    <path clip-path="url(#p6c1e1780ce)" d="M 221.166858 307.584 
L 222.701586 307.584 
L 222.701586 307.584 
L 221.166858 307.584 
z
" style="fill:#808080;"/>
   </g>
   <g id="patch_200">
    <path clip-path="url(#p6c1e1780ce)" d="M 222.701586 307.584 
L 224.236314 307.584 
L 224.236314 307.584 
L 222.701586 307.584 
z
" style="fill:#808080;"/>
   </g>
   <g id="patch_201">
    <path clip-path="url(#p6c1e1780ce)" d="M 224.236322 307.584 
L 225.771057 307.584 
L 225.771057 307.584 
L 224.236322 307.584 
z
" style="fill:#808080;"/>
   </g>
   <g id="patch_202">
    <path clip-path="url(#p6c1e1780ce)" d="M 225.77105 307.584 
L 227.305778 307.584 
L 227.305778 307.477825 
L 225.77105 307.477825 
z
" style="fill:#808080;"/>
   </g>
   <g id="matplotlib.axis_1">
    <g id="xtick_1">
     <g id="line2d_1">
      <defs>
       <path d="M 0 0 
L 0 3.5 
" id="m5b179179c6" style="stroke:#000000;stroke-width:0.8;"/>
      </defs>
      <g>
       <use style="stroke:#000000;stroke-width:0.8;" x="98.427767" xlink:href="#m5b179179c6" y="307.584"/>
      </g>
     </g>
     <g id="text_1">
      <!-- −50 -->
      <defs>
       <path d="M 10.59375 35.5 
L 73.1875 35.5 
L 73.1875 27.203125 
L 10.59375 27.203125 
z
" id="DejaVuSans-8722"/>
       <path d="M 10.796875 72.90625 
L 49.515625 72.90625 
L 49.515625 64.59375 
L 19.828125 64.59375 
L 19.828125 46.734375 
Q 21.96875 47.46875 24.109375 47.828125 
Q 26.265625 48.1875 28.421875 48.1875 
Q 40.625 48.1875 47.75 41.5 
Q 54.890625 34.8125 54.890625 23.390625 
Q 54.890625 11.625 47.5625 5.09375 
Q 40.234375 -1.421875 26.90625 -1.421875 
Q 22.3125 -1.421875 17.546875 -0.640625 
Q 12.796875 0.140625 7.71875 1.703125 
L 7.71875 11.625 
Q 12.109375 9.234375 16.796875 8.0625 
Q 21.484375 6.890625 26.703125 6.890625 
Q 35.15625 6.890625 40.078125 11.328125 
Q 45.015625 15.765625 45.015625 23.390625 
Q 45.015625 31 40.078125 35.4375 
Q 35.15625 39.890625 26.703125 39.890625 
Q 22.75 39.890625 18.8125 39.015625 
Q 14.890625 38.140625 10.796875 36.28125 
z
" id="DejaVuSans-53"/>
       <path d="M 31.78125 66.40625 
Q 24.171875 66.40625 20.328125 58.90625 
Q 16.5 51.421875 16.5 36.375 
Q 16.5 21.390625 20.328125 13.890625 
Q 24.171875 6.390625 31.78125 6.390625 
Q 39.453125 6.390625 43.28125 13.890625 
Q 47.125 21.390625 47.125 36.375 
Q 47.125 51.421875 43.28125 58.90625 
Q 39.453125 66.40625 31.78125 66.40625 
z
M 31.78125 74.21875 
Q 44.046875 74.21875 50.515625 64.515625 
Q 56.984375 54.828125 56.984375 36.375 
Q 56.984375 17.96875 50.515625 8.265625 
Q 44.046875 -1.421875 31.78125 -1.421875 
Q 19.53125 -1.421875 13.0625 8.265625 
Q 6.59375 17.96875 6.59375 36.375 
Q 6.59375 54.828125 13.0625 64.515625 
Q 19.53125 74.21875 31.78125 74.21875 
z
" id="DejaVuSans-48"/>
      </defs>
      <g transform="translate(87.875424 322.182437)scale(0.1 -0.1)">
       <use xlink:href="#DejaVuSans-8722"/>
       <use x="83.789062" xlink:href="#DejaVuSans-53"/>
       <use x="147.412109" xlink:href="#DejaVuSans-48"/>
      </g>
     </g>
    </g>
    <g id="xtick_2">
     <g id="line2d_2">
      <g>
       <use style="stroke:#000000;stroke-width:0.8;" x="147.617848" xlink:href="#m5b179179c6" y="307.584"/>
      </g>
     </g>
     <g id="text_2">
      <!-- 0 -->
      <g transform="translate(144.436598 322.182437)scale(0.1 -0.1)">
       <use xlink:href="#DejaVuSans-48"/>
      </g>
     </g>
    </g>
    <g id="xtick_3">
     <g id="line2d_3">
      <g>
       <use style="stroke:#000000;stroke-width:0.8;" x="196.807928" xlink:href="#m5b179179c6" y="307.584"/>
      </g>
     </g>
     <g id="text_3">
      <!-- 50 -->
      <g transform="translate(190.445428 322.182437)scale(0.1 -0.1)">
       <use xlink:href="#DejaVuSans-53"/>
       <use x="63.623047" xlink:href="#DejaVuSans-48"/>
      </g>
     </g>
    </g>
    <g id="xtick_4">
     <g id="line2d_4">
      <g>
       <use style="stroke:#000000;stroke-width:0.8;" x="245.998009" xlink:href="#m5b179179c6" y="307.584"/>
      </g>
     </g>
     <g id="text_4">
      <!-- 100 -->
      <defs>
       <path d="M 12.40625 8.296875 
L 28.515625 8.296875 
L 28.515625 63.921875 
L 10.984375 60.40625 
L 10.984375 69.390625 
L 28.421875 72.90625 
L 38.28125 72.90625 
L 38.28125 8.296875 
L 54.390625 8.296875 
L 54.390625 0 
L 12.40625 0 
z
" id="DejaVuSans-49"/>
      </defs>
      <g transform="translate(236.454259 322.182437)scale(0.1 -0.1)">
       <use xlink:href="#DejaVuSans-49"/>
       <use x="63.623047" xlink:href="#DejaVuSans-48"/>
       <use x="127.246094" xlink:href="#DejaVuSans-48"/>
      </g>
     </g>
    </g>
    <g id="xtick_5">
     <g id="line2d_5">
      <g>
       <use style="stroke:#000000;stroke-width:0.8;" x="295.188089" xlink:href="#m5b179179c6" y="307.584"/>
      </g>
     </g>
     <g id="text_5">
      <!-- 150 -->
      <g transform="translate(285.644339 322.182437)scale(0.1 -0.1)">
       <use xlink:href="#DejaVuSans-49"/>
       <use x="63.623047" xlink:href="#DejaVuSans-53"/>
       <use x="127.246094" xlink:href="#DejaVuSans-48"/>
      </g>
     </g>
    </g>
    <g id="xtick_6">
     <g id="line2d_6">
      <g>
       <use style="stroke:#000000;stroke-width:0.8;" x="344.378169" xlink:href="#m5b179179c6" y="307.584"/>
      </g>
     </g>
     <g id="text_6">
      <!-- 200 -->
      <defs>
       <path d="M 19.1875 8.296875 
L 53.609375 8.296875 
L 53.609375 0 
L 7.328125 0 
L 7.328125 8.296875 
Q 12.9375 14.109375 22.625 23.890625 
Q 32.328125 33.6875 34.8125 36.53125 
Q 39.546875 41.84375 41.421875 45.53125 
Q 43.3125 49.21875 43.3125 52.78125 
Q 43.3125 58.59375 39.234375 62.25 
Q 35.15625 65.921875 28.609375 65.921875 
Q 23.96875 65.921875 18.8125 64.3125 
Q 13.671875 62.703125 7.8125 59.421875 
L 7.8125 69.390625 
Q 13.765625 71.78125 18.9375 73 
Q 24.125 74.21875 28.421875 74.21875 
Q 39.75 74.21875 46.484375 68.546875 
Q 53.21875 62.890625 53.21875 53.421875 
Q 53.21875 48.921875 51.53125 44.890625 
Q 49.859375 40.875 45.40625 35.40625 
Q 44.1875 33.984375 37.640625 27.21875 
Q 31.109375 20.453125 19.1875 8.296875 
z
" id="DejaVuSans-50"/>
      </defs>
      <g transform="translate(334.834419 322.182437)scale(0.1 -0.1)">
       <use xlink:href="#DejaVuSans-50"/>
       <use x="63.623047" xlink:href="#DejaVuSans-48"/>
       <use x="127.246094" xlink:href="#DejaVuSans-48"/>
      </g>
     </g>
    </g>
    <g id="xtick_7">
     <g id="line2d_7">
      <g>
       <use style="stroke:#000000;stroke-width:0.8;" x="393.56825" xlink:href="#m5b179179c6" y="307.584"/>
      </g>
     </g>
     <g id="text_7">
      <!-- 250 -->
      <g transform="translate(384.0245 322.182437)scale(0.1 -0.1)">
       <use xlink:href="#DejaVuSans-50"/>
       <use x="63.623047" xlink:href="#DejaVuSans-53"/>
       <use x="127.246094" xlink:href="#DejaVuSans-48"/>
      </g>
     </g>
    </g>
    <g id="text_8">
     <!-- Weight -->
     <defs>
      <path d="M 3.328125 72.90625 
L 13.28125 72.90625 
L 28.609375 11.28125 
L 43.890625 72.90625 
L 54.984375 72.90625 
L 70.3125 11.28125 
L 85.59375 72.90625 
L 95.609375 72.90625 
L 77.296875 0 
L 64.890625 0 
L 49.515625 63.28125 
L 33.984375 0 
L 21.578125 0 
z
" id="DejaVuSans-87"/>
      <path d="M 56.203125 29.59375 
L 56.203125 25.203125 
L 14.890625 25.203125 
Q 15.484375 15.921875 20.484375 11.0625 
Q 25.484375 6.203125 34.421875 6.203125 
Q 39.59375 6.203125 44.453125 7.46875 
Q 49.3125 8.734375 54.109375 11.28125 
L 54.109375 2.78125 
Q 49.265625 0.734375 44.1875 -0.34375 
Q 39.109375 -1.421875 33.890625 -1.421875 
Q 20.796875 -1.421875 13.15625 6.1875 
Q 5.515625 13.8125 5.515625 26.8125 
Q 5.515625 40.234375 12.765625 48.109375 
Q 20.015625 56 32.328125 56 
Q 43.359375 56 49.78125 48.890625 
Q 56.203125 41.796875 56.203125 29.59375 
z
M 47.21875 32.234375 
Q 47.125 39.59375 43.09375 43.984375 
Q 39.0625 48.390625 32.421875 48.390625 
Q 24.90625 48.390625 20.390625 44.140625 
Q 15.875 39.890625 15.1875 32.171875 
z
" id="DejaVuSans-101"/>
      <path d="M 9.421875 54.6875 
L 18.40625 54.6875 
L 18.40625 0 
L 9.421875 0 
z
M 9.421875 75.984375 
L 18.40625 75.984375 
L 18.40625 64.59375 
L 9.421875 64.59375 
z
" id="DejaVuSans-105"/>
      <path d="M 45.40625 27.984375 
Q 45.40625 37.75 41.375 43.109375 
Q 37.359375 48.484375 30.078125 48.484375 
Q 22.859375 48.484375 18.828125 43.109375 
Q 14.796875 37.75 14.796875 27.984375 
Q 14.796875 18.265625 18.828125 12.890625 
Q 22.859375 7.515625 30.078125 7.515625 
Q 37.359375 7.515625 41.375 12.890625 
Q 45.40625 18.265625 45.40625 27.984375 
z
M 54.390625 6.78125 
Q 54.390625 -7.171875 48.1875 -13.984375 
Q 42 -20.796875 29.203125 -20.796875 
Q 24.46875 -20.796875 20.265625 -20.09375 
Q 16.0625 -19.390625 12.109375 -17.921875 
L 12.109375 -9.1875 
Q 16.0625 -11.328125 19.921875 -12.34375 
Q 23.78125 -13.375 27.78125 -13.375 
Q 36.625 -13.375 41.015625 -8.765625 
Q 45.40625 -4.15625 45.40625 5.171875 
L 45.40625 9.625 
Q 42.625 4.78125 38.28125 2.390625 
Q 33.9375 0 27.875 0 
Q 17.828125 0 11.671875 7.65625 
Q 5.515625 15.328125 5.515625 27.984375 
Q 5.515625 40.671875 11.671875 48.328125 
Q 17.828125 56 27.875 56 
Q 33.9375 56 38.28125 53.609375 
Q 42.625 51.21875 45.40625 46.390625 
L 45.40625 54.6875 
L 54.390625 54.6875 
z
" id="DejaVuSans-103"/>
      <path d="M 54.890625 33.015625 
L 54.890625 0 
L 45.90625 0 
L 45.90625 32.71875 
Q 45.90625 40.484375 42.875 44.328125 
Q 39.84375 48.1875 33.796875 48.1875 
Q 26.515625 48.1875 22.3125 43.546875 
Q 18.109375 38.921875 18.109375 30.90625 
L 18.109375 0 
L 9.078125 0 
L 9.078125 75.984375 
L 18.109375 75.984375 
L 18.109375 46.1875 
Q 21.34375 51.125 25.703125 53.5625 
Q 30.078125 56 35.796875 56 
Q 45.21875 56 50.046875 50.171875 
Q 54.890625 44.34375 54.890625 33.015625 
z
" id="DejaVuSans-104"/>
      <path d="M 18.3125 70.21875 
L 18.3125 54.6875 
L 36.8125 54.6875 
L 36.8125 47.703125 
L 18.3125 47.703125 
L 18.3125 18.015625 
Q 18.3125 11.328125 20.140625 9.421875 
Q 21.96875 7.515625 27.59375 7.515625 
L 36.8125 7.515625 
L 36.8125 0 
L 27.59375 0 
Q 17.1875 0 13.234375 3.875 
Q 9.28125 7.765625 9.28125 18.015625 
L 9.28125 47.703125 
L 2.6875 47.703125 
L 2.6875 54.6875 
L 9.28125 54.6875 
L 9.28125 70.21875 
z
" id="DejaVuSans-116"/>
     </defs>
     <g transform="translate(218.451406 335.860562)scale(0.1 -0.1)">
      <use xlink:href="#DejaVuSans-87"/>
      <use x="98.798828" xlink:href="#DejaVuSans-101"/>
      <use x="160.322266" xlink:href="#DejaVuSans-105"/>
      <use x="188.105469" xlink:href="#DejaVuSans-103"/>
      <use x="251.582031" xlink:href="#DejaVuSans-104"/>
      <use x="314.960938" xlink:href="#DejaVuSans-116"/>
     </g>
    </g>
   </g>
   <g id="matplotlib.axis_2">
    <g id="ytick_1">
     <g id="line2d_8">
      <defs>
       <path d="M 0 0 
L -3.5 0 
" id="m9bbc65fc39" style="stroke:#000000;stroke-width:0.8;"/>
      </defs>
      <g>
       <use style="stroke:#000000;stroke-width:0.8;" x="57.6" xlink:href="#m9bbc65fc39" y="307.584"/>
      </g>
     </g>
     <g id="text_9">
      <!-- 0 -->
      <g transform="translate(44.2375 311.383219)scale(0.1 -0.1)">
       <use xlink:href="#DejaVuSans-48"/>
      </g>
     </g>
    </g>
    <g id="ytick_2">
     <g id="line2d_9">
      <g>
       <use style="stroke:#000000;stroke-width:0.8;" x="57.6" xlink:href="#m9bbc65fc39" y="254.496442"/>
      </g>
     </g>
     <g id="text_10">
      <!-- 500 -->
      <g transform="translate(31.5125 258.295661)scale(0.1 -0.1)">
       <use xlink:href="#DejaVuSans-53"/>
       <use x="63.623047" xlink:href="#DejaVuSans-48"/>
       <use x="127.246094" xlink:href="#DejaVuSans-48"/>
      </g>
     </g>
    </g>
    <g id="ytick_3">
     <g id="line2d_10">
      <g>
       <use style="stroke:#000000;stroke-width:0.8;" x="57.6" xlink:href="#m9bbc65fc39" y="201.408885"/>
      </g>
     </g>
     <g id="text_11">
      <!-- 1000 -->
      <g transform="translate(25.15 205.208104)scale(0.1 -0.1)">
       <use xlink:href="#DejaVuSans-49"/>
       <use x="63.623047" xlink:href="#DejaVuSans-48"/>
       <use x="127.246094" xlink:href="#DejaVuSans-48"/>
       <use x="190.869141" xlink:href="#DejaVuSans-48"/>
      </g>
     </g>
    </g>
    <g id="ytick_4">
     <g id="line2d_11">
      <g>
       <use style="stroke:#000000;stroke-width:0.8;" x="57.6" xlink:href="#m9bbc65fc39" y="148.321327"/>
      </g>
     </g>
     <g id="text_12">
      <!-- 1500 -->
      <g transform="translate(25.15 152.120546)scale(0.1 -0.1)">
       <use xlink:href="#DejaVuSans-49"/>
       <use x="63.623047" xlink:href="#DejaVuSans-53"/>
       <use x="127.246094" xlink:href="#DejaVuSans-48"/>
       <use x="190.869141" xlink:href="#DejaVuSans-48"/>
      </g>
     </g>
    </g>
    <g id="ytick_5">
     <g id="line2d_12">
      <g>
       <use style="stroke:#000000;stroke-width:0.8;" x="57.6" xlink:href="#m9bbc65fc39" y="95.23377"/>
      </g>
     </g>
     <g id="text_13">
      <!-- 2000 -->
      <g transform="translate(25.15 99.032988)scale(0.1 -0.1)">
       <use xlink:href="#DejaVuSans-50"/>
       <use x="63.623047" xlink:href="#DejaVuSans-48"/>
       <use x="127.246094" xlink:href="#DejaVuSans-48"/>
       <use x="190.869141" xlink:href="#DejaVuSans-48"/>
      </g>
     </g>
    </g>
    <g id="ytick_6">
     <g id="line2d_13">
      <g>
       <use style="stroke:#000000;stroke-width:0.8;" x="57.6" xlink:href="#m9bbc65fc39" y="42.146212"/>
      </g>
     </g>
     <g id="text_14">
      <!-- 2500 -->
      <g transform="translate(25.15 45.945431)scale(0.1 -0.1)">
       <use xlink:href="#DejaVuSans-50"/>
       <use x="63.623047" xlink:href="#DejaVuSans-53"/>
       <use x="127.246094" xlink:href="#DejaVuSans-48"/>
       <use x="190.869141" xlink:href="#DejaVuSans-48"/>
      </g>
     </g>
    </g>
    <g id="text_15">
     <!-- Occurrencies -->
     <defs>
      <path d="M 39.40625 66.21875 
Q 28.65625 66.21875 22.328125 58.203125 
Q 16.015625 50.203125 16.015625 36.375 
Q 16.015625 22.609375 22.328125 14.59375 
Q 28.65625 6.59375 39.40625 6.59375 
Q 50.140625 6.59375 56.421875 14.59375 
Q 62.703125 22.609375 62.703125 36.375 
Q 62.703125 50.203125 56.421875 58.203125 
Q 50.140625 66.21875 39.40625 66.21875 
z
M 39.40625 74.21875 
Q 54.734375 74.21875 63.90625 63.9375 
Q 73.09375 53.65625 73.09375 36.375 
Q 73.09375 19.140625 63.90625 8.859375 
Q 54.734375 -1.421875 39.40625 -1.421875 
Q 24.03125 -1.421875 14.8125 8.828125 
Q 5.609375 19.09375 5.609375 36.375 
Q 5.609375 53.65625 14.8125 63.9375 
Q 24.03125 74.21875 39.40625 74.21875 
z
" id="DejaVuSans-79"/>
      <path d="M 48.78125 52.59375 
L 48.78125 44.1875 
Q 44.96875 46.296875 41.140625 47.34375 
Q 37.3125 48.390625 33.40625 48.390625 
Q 24.65625 48.390625 19.8125 42.84375 
Q 14.984375 37.3125 14.984375 27.296875 
Q 14.984375 17.28125 19.8125 11.734375 
Q 24.65625 6.203125 33.40625 6.203125 
Q 37.3125 6.203125 41.140625 7.25 
Q 44.96875 8.296875 48.78125 10.40625 
L 48.78125 2.09375 
Q 45.015625 0.34375 40.984375 -0.53125 
Q 36.96875 -1.421875 32.421875 -1.421875 
Q 20.0625 -1.421875 12.78125 6.34375 
Q 5.515625 14.109375 5.515625 27.296875 
Q 5.515625 40.671875 12.859375 48.328125 
Q 20.21875 56 33.015625 56 
Q 37.15625 56 41.109375 55.140625 
Q 45.0625 54.296875 48.78125 52.59375 
z
" id="DejaVuSans-99"/>
      <path d="M 8.5 21.578125 
L 8.5 54.6875 
L 17.484375 54.6875 
L 17.484375 21.921875 
Q 17.484375 14.15625 20.5 10.265625 
Q 23.53125 6.390625 29.59375 6.390625 
Q 36.859375 6.390625 41.078125 11.03125 
Q 45.3125 15.671875 45.3125 23.6875 
L 45.3125 54.6875 
L 54.296875 54.6875 
L 54.296875 0 
L 45.3125 0 
L 45.3125 8.40625 
Q 42.046875 3.421875 37.71875 1 
Q 33.40625 -1.421875 27.6875 -1.421875 
Q 18.265625 -1.421875 13.375 4.4375 
Q 8.5 10.296875 8.5 21.578125 
z
M 31.109375 56 
z
" id="DejaVuSans-117"/>
      <path d="M 41.109375 46.296875 
Q 39.59375 47.171875 37.8125 47.578125 
Q 36.03125 48 33.890625 48 
Q 26.265625 48 22.1875 43.046875 
Q 18.109375 38.09375 18.109375 28.8125 
L 18.109375 0 
L 9.078125 0 
L 9.078125 54.6875 
L 18.109375 54.6875 
L 18.109375 46.1875 
Q 20.953125 51.171875 25.484375 53.578125 
Q 30.03125 56 36.53125 56 
Q 37.453125 56 38.578125 55.875 
Q 39.703125 55.765625 41.0625 55.515625 
z
" id="DejaVuSans-114"/>
      <path d="M 54.890625 33.015625 
L 54.890625 0 
L 45.90625 0 
L 45.90625 32.71875 
Q 45.90625 40.484375 42.875 44.328125 
Q 39.84375 48.1875 33.796875 48.1875 
Q 26.515625 48.1875 22.3125 43.546875 
Q 18.109375 38.921875 18.109375 30.90625 
L 18.109375 0 
L 9.078125 0 
L 9.078125 54.6875 
L 18.109375 54.6875 
L 18.109375 46.1875 
Q 21.34375 51.125 25.703125 53.5625 
Q 30.078125 56 35.796875 56 
Q 45.21875 56 50.046875 50.171875 
Q 54.890625 44.34375 54.890625 33.015625 
z
" id="DejaVuSans-110"/>
      <path d="M 44.28125 53.078125 
L 44.28125 44.578125 
Q 40.484375 46.53125 36.375 47.5 
Q 32.28125 48.484375 27.875 48.484375 
Q 21.1875 48.484375 17.84375 46.4375 
Q 14.5 44.390625 14.5 40.28125 
Q 14.5 37.15625 16.890625 35.375 
Q 19.28125 33.59375 26.515625 31.984375 
L 29.59375 31.296875 
Q 39.15625 29.25 43.1875 25.515625 
Q 47.21875 21.78125 47.21875 15.09375 
Q 47.21875 7.46875 41.1875 3.015625 
Q 35.15625 -1.421875 24.609375 -1.421875 
Q 20.21875 -1.421875 15.453125 -0.5625 
Q 10.6875 0.296875 5.421875 2 
L 5.421875 11.28125 
Q 10.40625 8.6875 15.234375 7.390625 
Q 20.0625 6.109375 24.8125 6.109375 
Q 31.15625 6.109375 34.5625 8.28125 
Q 37.984375 10.453125 37.984375 14.40625 
Q 37.984375 18.0625 35.515625 20.015625 
Q 33.0625 21.96875 24.703125 23.78125 
L 21.578125 24.515625 
Q 13.234375 26.265625 9.515625 29.90625 
Q 5.8125 33.546875 5.8125 39.890625 
Q 5.8125 47.609375 11.28125 51.796875 
Q 16.75 56 26.8125 56 
Q 31.78125 56 36.171875 55.265625 
Q 40.578125 54.546875 44.28125 53.078125 
z
" id="DejaVuSans-115"/>
     </defs>
     <g transform="translate(19.070312 207.304563)rotate(-90)scale(0.1 -0.1)">
      <use xlink:href="#DejaVuSans-79"/>
      <use x="78.710938" xlink:href="#DejaVuSans-99"/>
      <use x="133.691406" xlink:href="#DejaVuSans-99"/>
      <use x="188.671875" xlink:href="#DejaVuSans-117"/>
      <use x="252.050781" xlink:href="#DejaVuSans-114"/>
      <use x="293.148438" xlink:href="#DejaVuSans-114"/>
      <use x="334.230469" xlink:href="#DejaVuSans-101"/>
      <use x="395.753906" xlink:href="#DejaVuSans-110"/>
      <use x="459.132812" xlink:href="#DejaVuSans-99"/>
      <use x="514.113281" xlink:href="#DejaVuSans-105"/>
      <use x="541.896484" xlink:href="#DejaVuSans-101"/>
      <use x="603.419922" xlink:href="#DejaVuSans-115"/>
     </g>
    </g>
   </g>
   <g id="patch_203">
    <path d="M 57.6 307.584 
L 57.6 41.472 
" style="fill:none;stroke:#000000;stroke-linecap:square;stroke-linejoin:miter;stroke-width:0.8;"/>
   </g>
   <g id="patch_204">
    <path d="M 414.72 307.584 
L 414.72 41.472 
" style="fill:none;stroke:#000000;stroke-linecap:square;stroke-linejoin:miter;stroke-width:0.8;"/>
   </g>
   <g id="patch_205">
    <path d="M 57.6 307.584 
L 414.72 307.584 
" style="fill:none;stroke:#000000;stroke-linecap:square;stroke-linejoin:miter;stroke-width:0.8;"/>
   </g>
   <g id="patch_206">
    <path d="M 57.6 41.472 
L 414.72 41.472 
" style="fill:none;stroke:#000000;stroke-linecap:square;stroke-linejoin:miter;stroke-width:0.8;"/>
   </g>
   <g id="text_16">
    <!-- Histogram of fc2 -->
    <defs>
     <path d="M 9.8125 72.90625 
L 19.671875 72.90625 
L 19.671875 43.015625 
L 55.515625 43.015625 
L 55.515625 72.90625 
L 65.375 72.90625 
L 65.375 0 
L 55.515625 0 
L 55.515625 34.71875 
L 19.671875 34.71875 
L 19.671875 0 
L 9.8125 0 
z
" id="DejaVuSans-72"/>
     <path d="M 30.609375 48.390625 
Q 23.390625 48.390625 19.1875 42.75 
Q 14.984375 37.109375 14.984375 27.296875 
Q 14.984375 17.484375 19.15625 11.84375 
Q 23.34375 6.203125 30.609375 6.203125 
Q 37.796875 6.203125 41.984375 11.859375 
Q 46.1875 17.53125 46.1875 27.296875 
Q 46.1875 37.015625 41.984375 42.703125 
Q 37.796875 48.390625 30.609375 48.390625 
z
M 30.609375 56 
Q 42.328125 56 49.015625 48.375 
Q 55.71875 40.765625 55.71875 27.296875 
Q 55.71875 13.875 49.015625 6.21875 
Q 42.328125 -1.421875 30.609375 -1.421875 
Q 18.84375 -1.421875 12.171875 6.21875 
Q 5.515625 13.875 5.515625 27.296875 
Q 5.515625 40.765625 12.171875 48.375 
Q 18.84375 56 30.609375 56 
z
" id="DejaVuSans-111"/>
     <path d="M 34.28125 27.484375 
Q 23.390625 27.484375 19.1875 25 
Q 14.984375 22.515625 14.984375 16.5 
Q 14.984375 11.71875 18.140625 8.90625 
Q 21.296875 6.109375 26.703125 6.109375 
Q 34.1875 6.109375 38.703125 11.40625 
Q 43.21875 16.703125 43.21875 25.484375 
L 43.21875 27.484375 
z
M 52.203125 31.203125 
L 52.203125 0 
L 43.21875 0 
L 43.21875 8.296875 
Q 40.140625 3.328125 35.546875 0.953125 
Q 30.953125 -1.421875 24.3125 -1.421875 
Q 15.921875 -1.421875 10.953125 3.296875 
Q 6 8.015625 6 15.921875 
Q 6 25.140625 12.171875 29.828125 
Q 18.359375 34.515625 30.609375 34.515625 
L 43.21875 34.515625 
L 43.21875 35.40625 
Q 43.21875 41.609375 39.140625 45 
Q 35.0625 48.390625 27.6875 48.390625 
Q 23 48.390625 18.546875 47.265625 
Q 14.109375 46.140625 10.015625 43.890625 
L 10.015625 52.203125 
Q 14.9375 54.109375 19.578125 55.046875 
Q 24.21875 56 28.609375 56 
Q 40.484375 56 46.34375 49.84375 
Q 52.203125 43.703125 52.203125 31.203125 
z
" id="DejaVuSans-97"/>
     <path d="M 52 44.1875 
Q 55.375 50.25 60.0625 53.125 
Q 64.75 56 71.09375 56 
Q 79.640625 56 84.28125 50.015625 
Q 88.921875 44.046875 88.921875 33.015625 
L 88.921875 0 
L 79.890625 0 
L 79.890625 32.71875 
Q 79.890625 40.578125 77.09375 44.375 
Q 74.3125 48.1875 68.609375 48.1875 
Q 61.625 48.1875 57.5625 43.546875 
Q 53.515625 38.921875 53.515625 30.90625 
L 53.515625 0 
L 44.484375 0 
L 44.484375 32.71875 
Q 44.484375 40.625 41.703125 44.40625 
Q 38.921875 48.1875 33.109375 48.1875 
Q 26.21875 48.1875 22.15625 43.53125 
Q 18.109375 38.875 18.109375 30.90625 
L 18.109375 0 
L 9.078125 0 
L 9.078125 54.6875 
L 18.109375 54.6875 
L 18.109375 46.1875 
Q 21.1875 51.21875 25.484375 53.609375 
Q 29.78125 56 35.6875 56 
Q 41.65625 56 45.828125 52.96875 
Q 50 49.953125 52 44.1875 
z
" id="DejaVuSans-109"/>
     <path id="DejaVuSans-32"/>
     <path d="M 37.109375 75.984375 
L 37.109375 68.5 
L 28.515625 68.5 
Q 23.6875 68.5 21.796875 66.546875 
Q 19.921875 64.59375 19.921875 59.515625 
L 19.921875 54.6875 
L 34.71875 54.6875 
L 34.71875 47.703125 
L 19.921875 47.703125 
L 19.921875 0 
L 10.890625 0 
L 10.890625 47.703125 
L 2.296875 47.703125 
L 2.296875 54.6875 
L 10.890625 54.6875 
L 10.890625 58.5 
Q 10.890625 67.625 15.140625 71.796875 
Q 19.390625 75.984375 28.609375 75.984375 
z
" id="DejaVuSans-102"/>
    </defs>
    <g transform="translate(186.209063 35.472)scale(0.12 -0.12)">
     <use xlink:href="#DejaVuSans-72"/>
     <use x="75.195312" xlink:href="#DejaVuSans-105"/>
     <use x="102.978516" xlink:href="#DejaVuSans-115"/>
     <use x="155.078125" xlink:href="#DejaVuSans-116"/>
     <use x="194.287109" xlink:href="#DejaVuSans-111"/>
     <use x="255.46875" xlink:href="#DejaVuSans-103"/>
     <use x="318.945312" xlink:href="#DejaVuSans-114"/>
     <use x="360.058594" xlink:href="#DejaVuSans-97"/>
     <use x="421.337891" xlink:href="#DejaVuSans-109"/>
     <use x="518.75" xlink:href="#DejaVuSans-32"/>
     <use x="550.537109" xlink:href="#DejaVuSans-111"/>
     <use x="611.71875" xlink:href="#DejaVuSans-102"/>
     <use x="646.923828" xlink:href="#DejaVuSans-32"/>
     <use x="678.710938" xlink:href="#DejaVuSans-102"/>
     <use x="713.916016" xlink:href="#DejaVuSans-99"/>
     <use x="768.896484" xlink:href="#DejaVuSans-50"/>
    </g>
   </g>
   <g id="legend_1">
    <g id="patch_207">
     <path d="M 323.679375 78.82825 
L 407.72 78.82825 
Q 409.72 78.82825 409.72 76.82825 
L 409.72 48.472 
Q 409.72 46.472 407.72 46.472 
L 323.679375 46.472 
Q 321.679375 46.472 321.679375 48.472 
L 321.679375 76.82825 
Q 321.679375 78.82825 323.679375 78.82825 
z
" style="fill:#ffffff;opacity:0.8;stroke:#cccccc;stroke-linejoin:miter;"/>
    </g>
    <g id="patch_208">
     <path d="M 325.679375 58.070437 
L 345.679375 58.070437 
L 345.679375 51.070437 
L 325.679375 51.070437 
z
" style="fill:#0000ff;"/>
    </g>
    <g id="text_17">
     <!-- unmasked -->
     <defs>
      <path d="M 9.078125 75.984375 
L 18.109375 75.984375 
L 18.109375 31.109375 
L 44.921875 54.6875 
L 56.390625 54.6875 
L 27.390625 29.109375 
L 57.625 0 
L 45.90625 0 
L 18.109375 26.703125 
L 18.109375 0 
L 9.078125 0 
z
" id="DejaVuSans-107"/>
      <path d="M 45.40625 46.390625 
L 45.40625 75.984375 
L 54.390625 75.984375 
L 54.390625 0 
L 45.40625 0 
L 45.40625 8.203125 
Q 42.578125 3.328125 38.25 0.953125 
Q 33.9375 -1.421875 27.875 -1.421875 
Q 17.96875 -1.421875 11.734375 6.484375 
Q 5.515625 14.40625 5.515625 27.296875 
Q 5.515625 40.1875 11.734375 48.09375 
Q 17.96875 56 27.875 56 
Q 33.9375 56 38.25 53.625 
Q 42.578125 51.265625 45.40625 46.390625 
z
M 14.796875 27.296875 
Q 14.796875 17.390625 18.875 11.75 
Q 22.953125 6.109375 30.078125 6.109375 
Q 37.203125 6.109375 41.296875 11.75 
Q 45.40625 17.390625 45.40625 27.296875 
Q 45.40625 37.203125 41.296875 42.84375 
Q 37.203125 48.484375 30.078125 48.484375 
Q 22.953125 48.484375 18.875 42.84375 
Q 14.796875 37.203125 14.796875 27.296875 
z
" id="DejaVuSans-100"/>
     </defs>
     <g transform="translate(353.679375 58.070437)scale(0.1 -0.1)">
      <use xlink:href="#DejaVuSans-117"/>
      <use x="63.378906" xlink:href="#DejaVuSans-110"/>
      <use x="126.757812" xlink:href="#DejaVuSans-109"/>
      <use x="224.169922" xlink:href="#DejaVuSans-97"/>
      <use x="285.449219" xlink:href="#DejaVuSans-115"/>
      <use x="337.548828" xlink:href="#DejaVuSans-107"/>
      <use x="395.412109" xlink:href="#DejaVuSans-101"/>
      <use x="456.935547" xlink:href="#DejaVuSans-100"/>
     </g>
    </g>
    <g id="patch_209">
     <path d="M 325.679375 72.748562 
L 345.679375 72.748562 
L 345.679375 65.748562 
L 325.679375 65.748562 
z
" style="fill:#808080;"/>
    </g>
    <g id="text_18">
     <!-- masked -->
     <g transform="translate(353.679375 72.748562)scale(0.1 -0.1)">
      <use xlink:href="#DejaVuSans-109"/>
      <use x="97.412109" xlink:href="#DejaVuSans-97"/>
      <use x="158.691406" xlink:href="#DejaVuSans-115"/>
      <use x="210.791016" xlink:href="#DejaVuSans-107"/>
      <use x="268.654297" xlink:href="#DejaVuSans-101"/>
      <use x="330.177734" xlink:href="#DejaVuSans-100"/>
     </g>
    </g>
   </g>
  </g>
 </g>
 <defs>
  <clipPath id="p6c1e1780ce">
   <rect height="266.112" width="357.12" x="57.6" y="41.472"/>
  </clipPath>
 </defs>
</svg>
