<?xml version="1.0" encoding="utf-8" standalone="no"?>
<!DOCTYPE svg PUBLIC "-//W3C//DTD SVG 1.1//EN"
  "http://www.w3.org/Graphics/SVG/1.1/DTD/svg11.dtd">
<!-- Created with matplotlib (https://matplotlib.org/) -->
<svg height="345.6pt" version="1.1" viewBox="0 0 460.8 345.6" width="460.8pt" xmlns="http://www.w3.org/2000/svg" xmlns:xlink="http://www.w3.org/1999/xlink">
 <defs>
  <style type="text/css">
*{stroke-linecap:butt;stroke-linejoin:round;}
  </style>
 </defs>
 <g id="figure_1">
  <g id="patch_1">
   <path d="M 0 345.6 
L 460.8 345.6 
L 460.8 0 
L 0 0 
z
" style="fill:#ffffff;"/>
  </g>
  <g id="axes_1">
   <g id="patch_2">
    <path d="M 57.6 307.584 
L 414.72 307.584 
L 414.72 41.472 
L 57.6 41.472 
z
" style="fill:#ffffff;"/>
   </g>
   <g id="patch_3">
    <path clip-path="url(#pf30158f5ee)" d="M 98.534704 307.584 
L 101.534233 307.584 
L 101.534233 307.563566 
L 98.534704 307.563566 
z
" style="fill:#0000ff;"/>
   </g>
   <g id="patch_4">
    <path clip-path="url(#pf30158f5ee)" d="M 101.534233 307.584 
L 104.533753 307.584 
L 104.533753 307.563566 
L 101.534233 307.563566 
z
" style="fill:#0000ff;"/>
   </g>
   <g id="patch_5">
    <path clip-path="url(#pf30158f5ee)" d="M 104.533753 307.584 
L 107.533282 307.584 
L 107.533282 307.584 
L 104.533753 307.584 
z
" style="fill:#0000ff;"/>
   </g>
   <g id="patch_6">
    <path clip-path="url(#pf30158f5ee)" d="M 107.533291 307.584 
L 110.532812 307.584 
L 110.532812 307.584 
L 107.533291 307.584 
z
" style="fill:#0000ff;"/>
   </g>
   <g id="patch_7">
    <path clip-path="url(#pf30158f5ee)" d="M 110.532803 307.584 
L 113.532332 307.584 
L 113.532332 307.563566 
L 110.532803 307.563566 
z
" style="fill:#0000ff;"/>
   </g>
   <g id="patch_8">
    <path clip-path="url(#pf30158f5ee)" d="M 113.532332 307.584 
L 116.531861 307.584 
L 116.531861 307.584 
L 113.532332 307.584 
z
" style="fill:#0000ff;"/>
   </g>
   <g id="patch_9">
    <path clip-path="url(#pf30158f5ee)" d="M 116.531861 307.584 
L 119.531382 307.584 
L 119.531382 307.584 
L 116.531861 307.584 
z
" style="fill:#0000ff;"/>
   </g>
   <g id="patch_10">
    <path clip-path="url(#pf30158f5ee)" d="M 119.531382 307.584 
L 122.530911 307.584 
L 122.530911 307.584 
L 119.531382 307.584 
z
" style="fill:#0000ff;"/>
   </g>
   <g id="patch_11">
    <path clip-path="url(#pf30158f5ee)" d="M 122.53092 307.584 
L 125.53044 307.584 
L 125.53044 307.584 
L 122.53092 307.584 
z
" style="fill:#0000ff;"/>
   </g>
   <g id="patch_12">
    <path clip-path="url(#pf30158f5ee)" d="M 125.530431 307.584 
L 128.52996 307.584 
L 128.52996 307.584 
L 125.530431 307.584 
z
" style="fill:#0000ff;"/>
   </g>
   <g id="patch_13">
    <path clip-path="url(#pf30158f5ee)" d="M 128.52996 307.584 
L 131.52949 307.584 
L 131.52949 307.543132 
L 128.52996 307.543132 
z
" style="fill:#0000ff;"/>
   </g>
   <g id="patch_14">
    <path clip-path="url(#pf30158f5ee)" d="M 131.52949 307.584 
L 134.52901 307.584 
L 134.52901 307.584 
L 131.52949 307.584 
z
" style="fill:#0000ff;"/>
   </g>
   <g id="patch_15">
    <path clip-path="url(#pf30158f5ee)" d="M 134.52901 307.584 
L 137.528539 307.584 
L 137.528539 307.584 
L 134.52901 307.584 
z
" style="fill:#0000ff;"/>
   </g>
   <g id="patch_16">
    <path clip-path="url(#pf30158f5ee)" d="M 137.528548 307.584 
L 140.528069 307.584 
L 140.528069 307.584 
L 137.528548 307.584 
z
" style="fill:#0000ff;"/>
   </g>
   <g id="patch_17">
    <path clip-path="url(#pf30158f5ee)" d="M 140.52806 307.584 
L 143.527589 307.584 
L 143.527589 307.543132 
L 140.52806 307.543132 
z
" style="fill:#0000ff;"/>
   </g>
   <g id="patch_18">
    <path clip-path="url(#pf30158f5ee)" d="M 143.527589 307.584 
L 146.527118 307.584 
L 146.527118 307.584 
L 143.527589 307.584 
z
" style="fill:#0000ff;"/>
   </g>
   <g id="patch_19">
    <path clip-path="url(#pf30158f5ee)" d="M 146.527118 307.584 
L 149.526639 307.584 
L 149.526639 307.584 
L 146.527118 307.584 
z
" style="fill:#0000ff;"/>
   </g>
   <g id="patch_20">
    <path clip-path="url(#pf30158f5ee)" d="M 149.526639 307.584 
L 152.526168 307.584 
L 152.526168 307.563566 
L 149.526639 307.563566 
z
" style="fill:#0000ff;"/>
   </g>
   <g id="patch_21">
    <path clip-path="url(#pf30158f5ee)" d="M 152.526177 307.584 
L 155.525697 307.584 
L 155.525697 307.584 
L 152.526177 307.584 
z
" style="fill:#0000ff;"/>
   </g>
   <g id="patch_22">
    <path clip-path="url(#pf30158f5ee)" d="M 155.525688 307.584 
L 158.525217 307.584 
L 158.525217 307.543132 
L 155.525688 307.543132 
z
" style="fill:#0000ff;"/>
   </g>
   <g id="patch_23">
    <path clip-path="url(#pf30158f5ee)" d="M 158.525217 307.584 
L 161.524747 307.584 
L 161.524747 307.563566 
L 158.525217 307.563566 
z
" style="fill:#0000ff;"/>
   </g>
   <g id="patch_24">
    <path clip-path="url(#pf30158f5ee)" d="M 161.524747 307.584 
L 164.524267 307.584 
L 164.524267 307.563566 
L 161.524747 307.563566 
z
" style="fill:#0000ff;"/>
   </g>
   <g id="patch_25">
    <path clip-path="url(#pf30158f5ee)" d="M 164.524267 307.584 
L 167.523796 307.584 
L 167.523796 307.563566 
L 164.524267 307.563566 
z
" style="fill:#0000ff;"/>
   </g>
   <g id="patch_26">
    <path clip-path="url(#pf30158f5ee)" d="M 167.523805 307.584 
L 170.523326 307.584 
L 170.523326 307.440964 
L 167.523805 307.440964 
z
" style="fill:#0000ff;"/>
   </g>
   <g id="patch_27">
    <path clip-path="url(#pf30158f5ee)" d="M 170.523317 307.584 
L 173.522846 307.584 
L 173.522846 307.543132 
L 170.523317 307.543132 
z
" style="fill:#0000ff;"/>
   </g>
   <g id="patch_28">
    <path clip-path="url(#pf30158f5ee)" d="M 173.522846 307.584 
L 176.522366 307.584 
L 176.522366 307.440964 
L 173.522846 307.440964 
z
" style="fill:#0000ff;"/>
   </g>
   <g id="patch_29">
    <path clip-path="url(#pf30158f5ee)" d="M 176.522371 307.584 
L 179.521891 307.584 
L 179.521891 307.379662 
L 176.522371 307.379662 
z
" style="fill:#0000ff;"/>
   </g>
   <g id="patch_30">
    <path clip-path="url(#pf30158f5ee)" d="M 179.521895 307.584 
L 182.521425 307.584 
L 182.521425 307.461397 
L 179.521895 307.461397 
z
" style="fill:#0000ff;"/>
   </g>
   <g id="patch_31">
    <path clip-path="url(#pf30158f5ee)" d="M 182.521429 307.584 
L 185.52095 307.584 
L 185.52095 307.543132 
L 182.521429 307.543132 
z
" style="fill:#0000ff;"/>
   </g>
   <g id="patch_32">
    <path clip-path="url(#pf30158f5ee)" d="M 185.52095 307.584 
L 188.52047 307.584 
L 188.52047 307.379662 
L 185.52095 307.379662 
z
" style="fill:#0000ff;"/>
   </g>
   <g id="patch_33">
    <path clip-path="url(#pf30158f5ee)" d="M 188.520479 307.584 
L 191.519999 307.584 
L 191.519999 307.114023 
L 188.520479 307.114023 
z
" style="fill:#0000ff;"/>
   </g>
   <g id="patch_34">
    <path clip-path="url(#pf30158f5ee)" d="M 191.519999 307.584 
L 194.519519 307.584 
L 194.519519 307.379662 
L 191.519999 307.379662 
z
" style="fill:#0000ff;"/>
   </g>
   <g id="patch_35">
    <path clip-path="url(#pf30158f5ee)" d="M 194.519524 307.584 
L 197.519053 307.584 
L 197.519053 307.216192 
L 194.519524 307.216192 
z
" style="fill:#0000ff;"/>
   </g>
   <g id="patch_36">
    <path clip-path="url(#pf30158f5ee)" d="M 197.519058 307.584 
L 200.518578 307.584 
L 200.518578 307.318361 
L 197.519058 307.318361 
z
" style="fill:#0000ff;"/>
   </g>
   <g id="patch_37">
    <path clip-path="url(#pf30158f5ee)" d="M 200.518578 307.584 
L 203.518098 307.584 
L 203.518098 307.011855 
L 200.518578 307.011855 
z
" style="fill:#0000ff;"/>
   </g>
   <g id="patch_38">
    <path clip-path="url(#pf30158f5ee)" d="M 203.518107 307.584 
L 206.517628 307.584 
L 206.517628 307.052722 
L 203.518107 307.052722 
z
" style="fill:#0000ff;"/>
   </g>
   <g id="patch_39">
    <path clip-path="url(#pf30158f5ee)" d="M 206.517628 307.584 
L 209.517148 307.584 
L 209.517148 306.725782 
L 206.517628 306.725782 
z
" style="fill:#0000ff;"/>
   </g>
   <g id="patch_40">
    <path clip-path="url(#pf30158f5ee)" d="M 209.517152 307.584 
L 212.516682 307.584 
L 212.516682 306.889252 
L 209.517152 306.889252 
z
" style="fill:#0000ff;"/>
   </g>
   <g id="patch_41">
    <path clip-path="url(#pf30158f5ee)" d="M 212.516677 307.584 
L 215.516206 307.584 
L 215.516206 306.460143 
L 212.516677 306.460143 
z
" style="fill:#0000ff;"/>
   </g>
   <g id="patch_42">
    <path clip-path="url(#pf30158f5ee)" d="M 215.516209 307.584 
L 218.515729 307.584 
L 218.515729 306.582745 
L 215.516209 306.582745 
z
" style="fill:#0000ff;"/>
   </g>
   <g id="patch_43">
    <path clip-path="url(#pf30158f5ee)" d="M 218.515733 307.584 
L 221.515254 307.584 
L 221.515254 305.704094 
L 218.515733 305.704094 
z
" style="fill:#0000ff;"/>
   </g>
   <g id="patch_44">
    <path clip-path="url(#pf30158f5ee)" d="M 221.515256 307.584 
L 224.514785 307.584 
L 224.514785 305.479322 
L 221.515256 305.479322 
z
" style="fill:#0000ff;"/>
   </g>
   <g id="patch_45">
    <path clip-path="url(#pf30158f5ee)" d="M 224.514785 307.584 
L 227.514306 307.584 
L 227.514306 305.826696 
L 224.514785 305.826696 
z
" style="fill:#0000ff;"/>
   </g>
   <g id="patch_46">
    <path clip-path="url(#pf30158f5ee)" d="M 227.514306 307.584 
L 230.513835 307.584 
L 230.513835 304.27373 
L 227.514306 304.27373 
z
" style="fill:#0000ff;"/>
   </g>
   <g id="patch_47">
    <path clip-path="url(#pf30158f5ee)" d="M 230.513833 307.584 
L 233.513362 307.584 
L 233.513362 304.886743 
L 230.513833 304.886743 
z
" style="fill:#0000ff;"/>
   </g>
   <g id="patch_48">
    <path clip-path="url(#pf30158f5ee)" d="M 233.513357 307.584 
L 236.512887 307.584 
L 236.512887 302.639029 
L 233.513357 302.639029 
z
" style="fill:#0000ff;"/>
   </g>
   <g id="patch_49">
    <path clip-path="url(#pf30158f5ee)" d="M 236.512884 307.584 
L 239.512414 307.584 
L 239.512414 303.844621 
L 236.512884 303.844621 
z
" style="fill:#0000ff;"/>
   </g>
   <g id="patch_50">
    <path clip-path="url(#pf30158f5ee)" d="M 239.512409 307.584 
L 242.511939 307.584 
L 242.511939 301.2904 
L 239.512409 301.2904 
z
" style="fill:#0000ff;"/>
   </g>
   <g id="patch_51">
    <path clip-path="url(#pf30158f5ee)" d="M 242.511935 307.584 
L 245.511464 307.584 
L 245.511464 302.782065 
L 242.511935 302.782065 
z
" style="fill:#0000ff;"/>
   </g>
   <g id="patch_52">
    <path clip-path="url(#pf30158f5ee)" d="M 245.511461 307.584 
L 248.51099 307.584 
L 248.51099 298.756613 
L 245.511461 298.756613 
z
" style="fill:#0000ff;"/>
   </g>
   <g id="patch_53">
    <path clip-path="url(#pf30158f5ee)" d="M 248.510986 307.584 
L 251.510516 307.584 
L 251.510516 298.613577 
L 248.510986 298.613577 
z
" style="fill:#0000ff;"/>
   </g>
   <g id="patch_54">
    <path clip-path="url(#pf30158f5ee)" d="M 251.510512 307.584 
L 254.510041 307.584 
L 254.510041 300.330013 
L 251.510512 300.330013 
z
" style="fill:#0000ff;"/>
   </g>
   <g id="patch_55">
    <path clip-path="url(#pf30158f5ee)" d="M 254.510038 307.584 
L 257.509567 307.584 
L 257.509567 294.751595 
L 254.510038 294.751595 
z
" style="fill:#0000ff;"/>
   </g>
   <g id="patch_56">
    <path clip-path="url(#pf30158f5ee)" d="M 257.509564 307.584 
L 260.509093 307.584 
L 260.509093 297.959696 
L 257.509564 297.959696 
z
" style="fill:#0000ff;"/>
   </g>
   <g id="patch_57">
    <path clip-path="url(#pf30158f5ee)" d="M 260.50909 307.584 
L 263.508619 307.584 
L 263.508619 291.236987 
L 260.50909 291.236987 
z
" style="fill:#0000ff;"/>
   </g>
   <g id="patch_58">
    <path clip-path="url(#pf30158f5ee)" d="M 263.508614 307.584 
L 266.508144 307.584 
L 266.508144 295.650681 
L 263.508614 295.650681 
z
" style="fill:#0000ff;"/>
   </g>
   <g id="patch_59">
    <path clip-path="url(#pf30158f5ee)" d="M 266.508141 307.584 
L 269.507671 307.584 
L 269.507671 287.068499 
L 266.508141 287.068499 
z
" style="fill:#0000ff;"/>
   </g>
   <g id="patch_60">
    <path clip-path="url(#pf30158f5ee)" d="M 269.507671 307.584 
L 272.507191 307.584 
L 272.507191 292.994291 
L 269.507671 292.994291 
z
" style="fill:#0000ff;"/>
   </g>
   <g id="patch_61">
    <path clip-path="url(#pf30158f5ee)" d="M 272.507191 307.584 
L 275.50672 307.584 
L 275.50672 278.77239 
L 272.507191 278.77239 
z
" style="fill:#0000ff;"/>
   </g>
   <g id="patch_62">
    <path clip-path="url(#pf30158f5ee)" d="M 275.506723 307.584 
L 278.506243 307.584 
L 278.506243 269.188954 
L 275.506723 269.188954 
z
" style="fill:#0000ff;"/>
   </g>
   <g id="patch_63">
    <path clip-path="url(#pf30158f5ee)" d="M 278.506247 307.584 
L 281.505768 307.584 
L 281.505768 195.402625 
L 278.506247 195.402625 
z
" style="fill:#0000ff;"/>
   </g>
   <g id="patch_64">
    <path clip-path="url(#pf30158f5ee)" d="M 281.50577 307.584 
L 284.505299 307.584 
L 284.505299 153.3295 
L 281.50577 153.3295 
z
" style="fill:#0000ff;"/>
   </g>
   <g id="patch_65">
    <path clip-path="url(#pf30158f5ee)" d="M 284.505295 307.584 
L 287.504824 307.584 
L 287.504824 200.286295 
L 284.505295 200.286295 
z
" style="fill:#0000ff;"/>
   </g>
   <g id="patch_66">
    <path clip-path="url(#pf30158f5ee)" d="M 287.504828 307.584 
L 290.504349 307.584 
L 290.504349 177.768284 
L 287.504828 177.768284 
z
" style="fill:#0000ff;"/>
   </g>
   <g id="patch_67">
    <path clip-path="url(#pf30158f5ee)" d="M 290.504349 307.584 
L 293.503869 307.584 
L 293.503869 254.905751 
L 290.504349 254.905751 
z
" style="fill:#0000ff;"/>
   </g>
   <g id="patch_68">
    <path clip-path="url(#pf30158f5ee)" d="M 293.503878 307.584 
L 296.503398 307.584 
L 296.503398 274.910408 
L 293.503878 274.910408 
z
" style="fill:#0000ff;"/>
   </g>
   <g id="patch_69">
    <path clip-path="url(#pf30158f5ee)" d="M 296.503398 307.584 
L 299.502919 307.584 
L 299.502919 290.480938 
L 296.503398 290.480938 
z
" style="fill:#0000ff;"/>
   </g>
   <g id="patch_70">
    <path clip-path="url(#pf30158f5ee)" d="M 299.502923 307.584 
L 302.502452 307.584 
L 302.502452 285.209026 
L 299.502923 285.209026 
z
" style="fill:#0000ff;"/>
   </g>
   <g id="patch_71">
    <path clip-path="url(#pf30158f5ee)" d="M 302.502457 307.584 
L 305.501977 307.584 
L 305.501977 293.341665 
L 302.502457 293.341665 
z
" style="fill:#0000ff;"/>
   </g>
   <g id="patch_72">
    <path clip-path="url(#pf30158f5ee)" d="M 305.501977 307.584 
L 308.501497 307.584 
L 308.501497 286.986764 
L 305.501977 286.986764 
z
" style="fill:#0000ff;"/>
   </g>
   <g id="patch_73">
    <path clip-path="url(#pf30158f5ee)" d="M 308.501506 307.584 
L 311.501027 307.584 
L 311.501027 290.174431 
L 308.501506 290.174431 
z
" style="fill:#0000ff;"/>
   </g>
   <g id="patch_74">
    <path clip-path="url(#pf30158f5ee)" d="M 311.501027 307.584 
L 314.500547 307.584 
L 314.500547 296.774538 
L 311.501027 296.774538 
z
" style="fill:#0000ff;"/>
   </g>
   <g id="patch_75">
    <path clip-path="url(#pf30158f5ee)" d="M 314.500552 307.584 
L 317.500081 307.584 
L 317.500081 293.382533 
L 314.500552 293.382533 
z
" style="fill:#0000ff;"/>
   </g>
   <g id="patch_76">
    <path clip-path="url(#pf30158f5ee)" d="M 317.500085 307.584 
L 320.499606 307.584 
L 320.499606 299.778301 
L 317.500085 299.778301 
z
" style="fill:#0000ff;"/>
   </g>
   <g id="patch_77">
    <path clip-path="url(#pf30158f5ee)" d="M 320.499606 307.584 
L 323.499126 307.584 
L 323.499126 296.89714 
L 320.499606 296.89714 
z
" style="fill:#0000ff;"/>
   </g>
   <g id="patch_78">
    <path clip-path="url(#pf30158f5ee)" d="M 323.49913 307.584 
L 326.49866 307.584 
L 326.49866 301.147364 
L 323.49913 301.147364 
z
" style="fill:#0000ff;"/>
   </g>
   <g id="patch_79">
    <path clip-path="url(#pf30158f5ee)" d="M 326.49866 307.584 
L 329.49818 307.584 
L 329.49818 299.962205 
L 326.49866 299.962205 
z
" style="fill:#0000ff;"/>
   </g>
   <g id="patch_80">
    <path clip-path="url(#pf30158f5ee)" d="M 329.49818 307.584 
L 332.497709 307.584 
L 332.497709 303.047704 
L 329.49818 303.047704 
z
" style="fill:#0000ff;"/>
   </g>
   <g id="patch_81">
    <path clip-path="url(#pf30158f5ee)" d="M 332.497718 307.584 
L 335.497239 307.584 
L 335.497239 301.923847 
L 332.497718 301.923847 
z
" style="fill:#0000ff;"/>
   </g>
   <g id="patch_82">
    <path clip-path="url(#pf30158f5ee)" d="M 335.49723 307.584 
L 338.496759 307.584 
L 338.496759 304.518935 
L 335.49723 304.518935 
z
" style="fill:#0000ff;"/>
   </g>
   <g id="patch_83">
    <path clip-path="url(#pf30158f5ee)" d="M 338.496759 307.584 
L 341.496288 307.584 
L 341.496288 304.335031 
L 338.496759 304.335031 
z
" style="fill:#0000ff;"/>
   </g>
   <g id="patch_84">
    <path clip-path="url(#pf30158f5ee)" d="M 341.496288 307.584 
L 344.495808 307.584 
L 344.495808 304.661971 
L 341.496288 304.661971 
z
" style="fill:#0000ff;"/>
   </g>
   <g id="patch_85">
    <path clip-path="url(#pf30158f5ee)" d="M 344.495808 307.584 
L 347.495338 307.584 
L 347.495338 306.378408 
L 344.495808 306.378408 
z
" style="fill:#0000ff;"/>
   </g>
   <g id="patch_86">
    <path clip-path="url(#pf30158f5ee)" d="M 347.495347 307.584 
L 350.494867 307.584 
L 350.494867 305.908431 
L 347.495347 305.908431 
z
" style="fill:#0000ff;"/>
   </g>
   <g id="patch_87">
    <path clip-path="url(#pf30158f5ee)" d="M 350.494858 307.584 
L 353.494387 307.584 
L 353.494387 306.827951 
L 350.494858 306.827951 
z
" style="fill:#0000ff;"/>
   </g>
   <g id="patch_88">
    <path clip-path="url(#pf30158f5ee)" d="M 353.494387 307.584 
L 356.493917 307.584 
L 356.493917 306.848384 
L 353.494387 306.848384 
z
" style="fill:#0000ff;"/>
   </g>
   <g id="patch_89">
    <path clip-path="url(#pf30158f5ee)" d="M 356.493917 307.584 
L 359.493437 307.584 
L 359.493437 307.134457 
L 356.493917 307.134457 
z
" style="fill:#0000ff;"/>
   </g>
   <g id="patch_90">
    <path clip-path="url(#pf30158f5ee)" d="M 359.493437 307.584 
L 362.492966 307.584 
L 362.492966 307.216192 
L 359.493437 307.216192 
z
" style="fill:#0000ff;"/>
   </g>
   <g id="patch_91">
    <path clip-path="url(#pf30158f5ee)" d="M 362.492975 307.584 
L 365.492496 307.584 
L 365.492496 307.400096 
L 362.492975 307.400096 
z
" style="fill:#0000ff;"/>
   </g>
   <g id="patch_92">
    <path clip-path="url(#pf30158f5ee)" d="M 365.492487 307.584 
L 368.492016 307.584 
L 368.492016 307.297927 
L 365.492487 307.297927 
z
" style="fill:#0000ff;"/>
   </g>
   <g id="patch_93">
    <path clip-path="url(#pf30158f5ee)" d="M 368.492016 307.584 
L 371.491545 307.584 
L 371.491545 307.400096 
L 368.492016 307.400096 
z
" style="fill:#0000ff;"/>
   </g>
   <g id="patch_94">
    <path clip-path="url(#pf30158f5ee)" d="M 371.491545 307.584 
L 374.491065 307.584 
L 374.491065 307.400096 
L 371.491545 307.400096 
z
" style="fill:#0000ff;"/>
   </g>
   <g id="patch_95">
    <path clip-path="url(#pf30158f5ee)" d="M 374.491065 307.584 
L 377.490595 307.584 
L 377.490595 307.461397 
L 374.491065 307.461397 
z
" style="fill:#0000ff;"/>
   </g>
   <g id="patch_96">
    <path clip-path="url(#pf30158f5ee)" d="M 377.490604 307.584 
L 380.490124 307.584 
L 380.490124 307.543132 
L 377.490604 307.543132 
z
" style="fill:#0000ff;"/>
   </g>
   <g id="patch_97">
    <path clip-path="url(#pf30158f5ee)" d="M 380.490115 307.584 
L 383.489644 307.584 
L 383.489644 307.543132 
L 380.490115 307.543132 
z
" style="fill:#0000ff;"/>
   </g>
   <g id="patch_98">
    <path clip-path="url(#pf30158f5ee)" d="M 383.489644 307.584 
L 386.489174 307.584 
L 386.489174 307.563566 
L 383.489644 307.563566 
z
" style="fill:#0000ff;"/>
   </g>
   <g id="patch_99">
    <path clip-path="url(#pf30158f5ee)" d="M 386.489174 307.584 
L 389.488694 307.584 
L 389.488694 307.543132 
L 386.489174 307.543132 
z
" style="fill:#0000ff;"/>
   </g>
   <g id="patch_100">
    <path clip-path="url(#pf30158f5ee)" d="M 389.488694 307.584 
L 392.488223 307.584 
L 392.488223 307.584 
L 389.488694 307.584 
z
" style="fill:#0000ff;"/>
   </g>
   <g id="patch_101">
    <path clip-path="url(#pf30158f5ee)" d="M 392.488232 307.584 
L 395.487752 307.584 
L 395.487752 307.584 
L 392.488232 307.584 
z
" style="fill:#0000ff;"/>
   </g>
   <g id="patch_102">
    <path clip-path="url(#pf30158f5ee)" d="M 395.487743 307.584 
L 398.487273 307.584 
L 398.487273 307.563566 
L 395.487743 307.563566 
z
" style="fill:#0000ff;"/>
   </g>
   <g id="patch_103">
    <path clip-path="url(#pf30158f5ee)" d="M 73.832727 307.584 
L 76.63229 307.584 
L 76.63229 307.543132 
L 73.832727 307.543132 
z
" style="fill:#808080;"/>
   </g>
   <g id="patch_104">
    <path clip-path="url(#pf30158f5ee)" d="M 76.63229 307.584 
L 79.431835 307.584 
L 79.431835 307.584 
L 76.63229 307.584 
z
" style="fill:#808080;"/>
   </g>
   <g id="patch_105">
    <path clip-path="url(#pf30158f5ee)" d="M 79.431835 307.584 
L 82.231398 307.584 
L 82.231398 307.584 
L 79.431835 307.584 
z
" style="fill:#808080;"/>
   </g>
   <g id="patch_106">
    <path clip-path="url(#pf30158f5ee)" d="M 82.231398 307.584 
L 85.030962 307.584 
L 85.030962 307.584 
L 82.231398 307.584 
z
" style="fill:#808080;"/>
   </g>
   <g id="patch_107">
    <path clip-path="url(#pf30158f5ee)" d="M 85.030944 307.584 
L 87.830489 307.584 
L 87.830489 307.584 
L 85.030944 307.584 
z
" style="fill:#808080;"/>
   </g>
   <g id="patch_108">
    <path clip-path="url(#pf30158f5ee)" d="M 87.830507 307.584 
L 90.63007 307.584 
L 90.63007 307.563566 
L 87.830507 307.563566 
z
" style="fill:#808080;"/>
   </g>
   <g id="patch_109">
    <path clip-path="url(#pf30158f5ee)" d="M 90.63007 307.584 
L 93.429633 307.584 
L 93.429633 307.584 
L 90.63007 307.584 
z
" style="fill:#808080;"/>
   </g>
   <g id="patch_110">
    <path clip-path="url(#pf30158f5ee)" d="M 93.429633 307.584 
L 96.229178 307.584 
L 96.229178 307.584 
L 93.429633 307.584 
z
" style="fill:#808080;"/>
   </g>
   <g id="patch_111">
    <path clip-path="url(#pf30158f5ee)" d="M 96.229178 307.584 
L 99.028741 307.584 
L 99.028741 307.584 
L 96.229178 307.584 
z
" style="fill:#808080;"/>
   </g>
   <g id="patch_112">
    <path clip-path="url(#pf30158f5ee)" d="M 99.028741 307.584 
L 101.828304 307.584 
L 101.828304 307.584 
L 99.028741 307.584 
z
" style="fill:#808080;"/>
   </g>
   <g id="patch_113">
    <path clip-path="url(#pf30158f5ee)" d="M 101.828304 307.584 
L 104.627867 307.584 
L 104.627867 307.584 
L 101.828304 307.584 
z
" style="fill:#808080;"/>
   </g>
   <g id="patch_114">
    <path clip-path="url(#pf30158f5ee)" d="M 104.627849 307.584 
L 107.427412 307.584 
L 107.427412 307.584 
L 104.627849 307.584 
z
" style="fill:#808080;"/>
   </g>
   <g id="patch_115">
    <path clip-path="url(#pf30158f5ee)" d="M 107.427412 307.584 
L 110.226975 307.584 
L 110.226975 307.584 
L 107.427412 307.584 
z
" style="fill:#808080;"/>
   </g>
   <g id="patch_116">
    <path clip-path="url(#pf30158f5ee)" d="M 110.226975 307.584 
L 113.026538 307.584 
L 113.026538 307.543132 
L 110.226975 307.543132 
z
" style="fill:#808080;"/>
   </g>
   <g id="patch_117">
    <path clip-path="url(#pf30158f5ee)" d="M 113.02652 307.584 
L 115.826083 307.584 
L 115.826083 307.563566 
L 113.02652 307.563566 
z
" style="fill:#808080;"/>
   </g>
   <g id="patch_118">
    <path clip-path="url(#pf30158f5ee)" d="M 115.826083 307.584 
L 118.625646 307.584 
L 118.625646 307.563566 
L 115.826083 307.563566 
z
" style="fill:#808080;"/>
   </g>
   <g id="patch_119">
    <path clip-path="url(#pf30158f5ee)" d="M 118.625646 307.584 
L 121.425209 307.584 
L 121.425209 307.584 
L 118.625646 307.584 
z
" style="fill:#808080;"/>
   </g>
   <g id="patch_120">
    <path clip-path="url(#pf30158f5ee)" d="M 121.425192 307.584 
L 124.224755 307.584 
L 124.224755 307.563566 
L 121.425192 307.563566 
z
" style="fill:#808080;"/>
   </g>
   <g id="patch_121">
    <path clip-path="url(#pf30158f5ee)" d="M 124.224755 307.584 
L 127.024318 307.584 
L 127.024318 307.584 
L 124.224755 307.584 
z
" style="fill:#808080;"/>
   </g>
   <g id="patch_122">
    <path clip-path="url(#pf30158f5ee)" d="M 127.024318 307.584 
L 129.823881 307.584 
L 129.823881 307.543132 
L 127.024318 307.543132 
z
" style="fill:#808080;"/>
   </g>
   <g id="patch_123">
    <path clip-path="url(#pf30158f5ee)" d="M 129.823872 307.584 
L 132.623435 307.584 
L 132.623435 307.584 
L 129.823872 307.584 
z
" style="fill:#808080;"/>
   </g>
   <g id="patch_124">
    <path clip-path="url(#pf30158f5ee)" d="M 132.623426 307.584 
L 135.422989 307.584 
L 135.422989 307.584 
L 132.623426 307.584 
z
" style="fill:#808080;"/>
   </g>
   <g id="patch_125">
    <path clip-path="url(#pf30158f5ee)" d="M 135.422989 307.584 
L 138.222552 307.584 
L 138.222552 307.584 
L 135.422989 307.584 
z
" style="fill:#808080;"/>
   </g>
   <g id="patch_126">
    <path clip-path="url(#pf30158f5ee)" d="M 138.222543 307.584 
L 141.022106 307.584 
L 141.022106 307.584 
L 138.222543 307.584 
z
" style="fill:#808080;"/>
   </g>
   <g id="patch_127">
    <path clip-path="url(#pf30158f5ee)" d="M 141.022097 307.584 
L 143.82166 307.584 
L 143.82166 307.584 
L 141.022097 307.584 
z
" style="fill:#808080;"/>
   </g>
   <g id="patch_128">
    <path clip-path="url(#pf30158f5ee)" d="M 143.82166 307.584 
L 146.621223 307.584 
L 146.621223 307.584 
L 143.82166 307.584 
z
" style="fill:#808080;"/>
   </g>
   <g id="patch_129">
    <path clip-path="url(#pf30158f5ee)" d="M 146.621214 307.584 
L 149.420777 307.584 
L 149.420777 307.09359 
L 146.621214 307.09359 
z
" style="fill:#808080;"/>
   </g>
   <g id="patch_130">
    <path clip-path="url(#pf30158f5ee)" d="M 149.420768 307.584 
L 152.220331 307.584 
L 152.220331 307.461397 
L 149.420768 307.461397 
z
" style="fill:#808080;"/>
   </g>
   <g id="patch_131">
    <path clip-path="url(#pf30158f5ee)" d="M 152.220331 307.584 
L 155.019894 307.584 
L 155.019894 307.522699 
L 152.220331 307.522699 
z
" style="fill:#808080;"/>
   </g>
   <g id="patch_132">
    <path clip-path="url(#pf30158f5ee)" d="M 155.019885 307.584 
L 157.819448 307.584 
L 157.819448 307.42053 
L 155.019885 307.42053 
z
" style="fill:#808080;"/>
   </g>
   <g id="patch_133">
    <path clip-path="url(#pf30158f5ee)" d="M 157.819439 307.584 
L 160.619003 307.584 
L 160.619003 307.216192 
L 157.819439 307.216192 
z
" style="fill:#808080;"/>
   </g>
   <g id="patch_134">
    <path clip-path="url(#pf30158f5ee)" d="M 160.619003 307.584 
L 163.418566 307.584 
L 163.418566 307.011855 
L 160.619003 307.011855 
z
" style="fill:#808080;"/>
   </g>
   <g id="patch_135">
    <path clip-path="url(#pf30158f5ee)" d="M 163.418566 307.584 
L 166.218129 307.584 
L 166.218129 307.216192 
L 163.418566 307.216192 
z
" style="fill:#808080;"/>
   </g>
   <g id="patch_136">
    <path clip-path="url(#pf30158f5ee)" d="M 166.218111 307.584 
L 169.017674 307.584 
L 169.017674 307.584 
L 166.218111 307.584 
z
" style="fill:#808080;"/>
   </g>
   <g id="patch_137">
    <path clip-path="url(#pf30158f5ee)" d="M 169.017674 307.584 
L 171.817237 307.584 
L 171.817237 307.584 
L 169.017674 307.584 
z
" style="fill:#808080;"/>
   </g>
   <g id="patch_138">
    <path clip-path="url(#pf30158f5ee)" d="M 171.817237 307.584 
L 174.6168 307.584 
L 174.6168 307.584 
L 171.817237 307.584 
z
" style="fill:#808080;"/>
   </g>
   <g id="patch_139">
    <path clip-path="url(#pf30158f5ee)" d="M 174.616791 307.584 
L 177.416354 307.584 
L 177.416354 307.584 
L 174.616791 307.584 
z
" style="fill:#808080;"/>
   </g>
   <g id="patch_140">
    <path clip-path="url(#pf30158f5ee)" d="M 177.416345 307.584 
L 180.215908 307.584 
L 180.215908 307.584 
L 177.416345 307.584 
z
" style="fill:#808080;"/>
   </g>
   <g id="patch_141">
    <path clip-path="url(#pf30158f5ee)" d="M 180.215899 307.584 
L 183.015462 307.584 
L 183.015462 307.584 
L 180.215899 307.584 
z
" style="fill:#808080;"/>
   </g>
   <g id="patch_142">
    <path clip-path="url(#pf30158f5ee)" d="M 183.015462 307.584 
L 185.815025 307.584 
L 185.815025 307.584 
L 183.015462 307.584 
z
" style="fill:#808080;"/>
   </g>
   <g id="patch_143">
    <path clip-path="url(#pf30158f5ee)" d="M 185.815016 307.584 
L 188.614579 307.584 
L 188.614579 303.292909 
L 185.815016 303.292909 
z
" style="fill:#808080;"/>
   </g>
   <g id="patch_144">
    <path clip-path="url(#pf30158f5ee)" d="M 188.614575 307.584 
L 191.414138 307.584 
L 191.414138 305.561057 
L 188.614575 305.561057 
z
" style="fill:#808080;"/>
   </g>
   <g id="patch_145">
    <path clip-path="url(#pf30158f5ee)" d="M 191.414133 307.584 
L 194.213696 307.584 
L 194.213696 302.679896 
L 191.414133 302.679896 
z
" style="fill:#808080;"/>
   </g>
   <g id="patch_146">
    <path clip-path="url(#pf30158f5ee)" d="M 194.213687 307.584 
L 197.01325 307.584 
L 197.01325 305.131948 
L 194.213687 305.131948 
z
" style="fill:#808080;"/>
   </g>
   <g id="patch_147">
    <path clip-path="url(#pf30158f5ee)" d="M 197.013246 307.584 
L 199.812809 307.584 
L 199.812809 304.641538 
L 197.013246 304.641538 
z
" style="fill:#808080;"/>
   </g>
   <g id="patch_148">
    <path clip-path="url(#pf30158f5ee)" d="M 199.812805 307.584 
L 202.612368 307.584 
L 202.612368 304.191995 
L 199.812805 304.191995 
z
" style="fill:#808080;"/>
   </g>
   <g id="patch_149">
    <path clip-path="url(#pf30158f5ee)" d="M 202.612359 307.584 
L 205.411922 307.584 
L 205.411922 301.596907 
L 202.612359 301.596907 
z
" style="fill:#808080;"/>
   </g>
   <g id="patch_150">
    <path clip-path="url(#pf30158f5ee)" d="M 205.411922 307.584 
L 208.211485 307.584 
L 208.211485 307.584 
L 205.411922 307.584 
z
" style="fill:#808080;"/>
   </g>
   <g id="patch_151">
    <path clip-path="url(#pf30158f5ee)" d="M 208.211476 307.584 
L 211.011039 307.584 
L 211.011039 307.584 
L 208.211476 307.584 
z
" style="fill:#808080;"/>
   </g>
   <g id="patch_152">
    <path clip-path="url(#pf30158f5ee)" d="M 211.01103 307.584 
L 213.810593 307.584 
L 213.810593 307.584 
L 211.01103 307.584 
z
" style="fill:#808080;"/>
   </g>
   <g id="patch_153">
    <path clip-path="url(#pf30158f5ee)" d="M 213.810588 307.584 
L 216.610151 307.584 
L 216.610151 307.584 
L 213.810588 307.584 
z
" style="fill:#808080;"/>
   </g>
   <g id="patch_154">
    <path clip-path="url(#pf30158f5ee)" d="M 216.610147 307.584 
L 219.40971 307.584 
L 219.40971 307.584 
L 216.610147 307.584 
z
" style="fill:#808080;"/>
   </g>
   <g id="patch_155">
    <path clip-path="url(#pf30158f5ee)" d="M 219.409706 307.584 
L 222.209269 307.584 
L 222.209269 307.584 
L 219.409706 307.584 
z
" style="fill:#808080;"/>
   </g>
   <g id="patch_156">
    <path clip-path="url(#pf30158f5ee)" d="M 222.209262 307.584 
L 225.008825 307.584 
L 225.008825 267.125143 
L 222.209262 267.125143 
z
" style="fill:#808080;"/>
   </g>
   <g id="patch_157">
    <path clip-path="url(#pf30158f5ee)" d="M 225.008818 307.584 
L 227.808381 307.584 
L 227.808381 291.298288 
L 225.008818 291.298288 
z
" style="fill:#808080;"/>
   </g>
   <g id="patch_158">
    <path clip-path="url(#pf30158f5ee)" d="M 227.808377 307.584 
L 230.60794 307.584 
L 230.60794 289.03014 
L 227.808377 289.03014 
z
" style="fill:#808080;"/>
   </g>
   <g id="patch_159">
    <path clip-path="url(#pf30158f5ee)" d="M 230.607933 307.584 
L 233.407496 307.584 
L 233.407496 286.945896 
L 230.607933 286.945896 
z
" style="fill:#808080;"/>
   </g>
   <g id="patch_160">
    <path clip-path="url(#pf30158f5ee)" d="M 233.407492 307.584 
L 236.207055 307.584 
L 236.207055 271.702307 
L 233.407492 271.702307 
z
" style="fill:#808080;"/>
   </g>
   <g id="patch_161">
    <path clip-path="url(#pf30158f5ee)" d="M 236.207048 307.584 
L 239.006611 307.584 
L 239.006611 284.187338 
L 236.207048 284.187338 
z
" style="fill:#808080;"/>
   </g>
   <g id="patch_162">
    <path clip-path="url(#pf30158f5ee)" d="M 239.006607 307.584 
L 241.80617 307.584 
L 241.80617 225.644598 
L 239.006607 225.644598 
z
" style="fill:#808080;"/>
   </g>
   <g id="patch_163">
    <path clip-path="url(#pf30158f5ee)" d="M 241.806163 307.584 
L 244.605726 307.584 
L 244.605726 307.584 
L 241.806163 307.584 
z
" style="fill:#808080;"/>
   </g>
   <g id="patch_164">
    <path clip-path="url(#pf30158f5ee)" d="M 244.60572 307.584 
L 247.405283 307.584 
L 247.405283 307.584 
L 244.60572 307.584 
z
" style="fill:#808080;"/>
   </g>
   <g id="patch_165">
    <path clip-path="url(#pf30158f5ee)" d="M 247.405278 307.584 
L 250.204841 307.584 
L 250.204841 307.584 
L 247.405278 307.584 
z
" style="fill:#808080;"/>
   </g>
   <g id="patch_166">
    <path clip-path="url(#pf30158f5ee)" d="M 250.204835 307.584 
L 253.004398 307.584 
L 253.004398 307.584 
L 250.204835 307.584 
z
" style="fill:#808080;"/>
   </g>
   <g id="patch_167">
    <path clip-path="url(#pf30158f5ee)" d="M 253.004392 307.584 
L 255.803955 307.584 
L 255.803955 307.584 
L 253.004392 307.584 
z
" style="fill:#808080;"/>
   </g>
   <g id="patch_168">
    <path clip-path="url(#pf30158f5ee)" d="M 255.80395 307.584 
L 258.603512 307.584 
L 258.603512 307.584 
L 255.80395 307.584 
z
" style="fill:#808080;"/>
   </g>
   <g id="patch_169">
    <path clip-path="url(#pf30158f5ee)" d="M 258.603508 307.584 
L 261.403071 307.584 
L 261.403071 307.584 
L 258.603508 307.584 
z
" style="fill:#808080;"/>
   </g>
   <g id="patch_170">
    <path clip-path="url(#pf30158f5ee)" d="M 261.403064 307.584 
L 264.202627 307.584 
L 264.202627 113.851464 
L 261.403064 113.851464 
z
" style="fill:#808080;"/>
   </g>
   <g id="patch_171">
    <path clip-path="url(#pf30158f5ee)" d="M 264.202622 307.584 
L 267.002185 307.584 
L 267.002185 54.144 
L 264.202622 54.144 
z
" style="fill:#808080;"/>
   </g>
   <g id="patch_172">
    <path clip-path="url(#pf30158f5ee)" d="M 267.002179 307.584 
L 269.801742 307.584 
L 269.801742 183.285401 
L 267.002179 183.285401 
z
" style="fill:#808080;"/>
   </g>
   <g id="patch_173">
    <path clip-path="url(#pf30158f5ee)" d="M 269.801737 307.584 
L 272.6013 307.584 
L 272.6013 250.594227 
L 269.801737 250.594227 
z
" style="fill:#808080;"/>
   </g>
   <g id="patch_174">
    <path clip-path="url(#pf30158f5ee)" d="M 272.601294 307.584 
L 275.400857 307.584 
L 275.400857 295.752849 
L 272.601294 295.752849 
z
" style="fill:#808080;"/>
   </g>
   <g id="patch_175">
    <path clip-path="url(#pf30158f5ee)" d="M 275.40085 307.584 
L 278.200413 307.584 
L 278.200413 296.713236 
L 275.40085 296.713236 
z
" style="fill:#808080;"/>
   </g>
   <g id="patch_176">
    <path clip-path="url(#pf30158f5ee)" d="M 278.200409 307.584 
L 280.999972 307.584 
L 280.999972 294.322486 
L 278.200409 294.322486 
z
" style="fill:#808080;"/>
   </g>
   <g id="patch_177">
    <path clip-path="url(#pf30158f5ee)" d="M 280.999967 307.584 
L 283.79953 307.584 
L 283.79953 307.584 
L 280.999967 307.584 
z
" style="fill:#808080;"/>
   </g>
   <g id="patch_178">
    <path clip-path="url(#pf30158f5ee)" d="M 283.799521 307.584 
L 286.599084 307.584 
L 286.599084 307.584 
L 283.799521 307.584 
z
" style="fill:#808080;"/>
   </g>
   <g id="patch_179">
    <path clip-path="url(#pf30158f5ee)" d="M 286.59908 307.584 
L 289.398643 307.584 
L 289.398643 307.584 
L 286.59908 307.584 
z
" style="fill:#808080;"/>
   </g>
   <g id="patch_180">
    <path clip-path="url(#pf30158f5ee)" d="M 289.398634 307.584 
L 292.198197 307.584 
L 292.198197 307.584 
L 289.398634 307.584 
z
" style="fill:#808080;"/>
   </g>
   <g id="patch_181">
    <path clip-path="url(#pf30158f5ee)" d="M 292.198197 307.584 
L 294.99776 307.584 
L 294.99776 307.584 
L 292.198197 307.584 
z
" style="fill:#808080;"/>
   </g>
   <g id="patch_182">
    <path clip-path="url(#pf30158f5ee)" d="M 294.997751 307.584 
L 297.797314 307.584 
L 297.797314 307.584 
L 294.997751 307.584 
z
" style="fill:#808080;"/>
   </g>
   <g id="patch_183">
    <path clip-path="url(#pf30158f5ee)" d="M 297.79731 307.584 
L 300.596873 307.584 
L 300.596873 287.599777 
L 297.79731 287.599777 
z
" style="fill:#808080;"/>
   </g>
   <g id="patch_184">
    <path clip-path="url(#pf30158f5ee)" d="M 300.596868 307.584 
L 303.396431 307.584 
L 303.396431 298.531842 
L 300.596868 298.531842 
z
" style="fill:#808080;"/>
   </g>
   <g id="patch_185">
    <path clip-path="url(#pf30158f5ee)" d="M 303.396422 307.584 
L 306.195985 307.584 
L 306.195985 299.533096 
L 303.396422 299.533096 
z
" style="fill:#808080;"/>
   </g>
   <g id="patch_186">
    <path clip-path="url(#pf30158f5ee)" d="M 306.195981 307.584 
L 308.995544 307.584 
L 308.995544 300.881725 
L 306.195981 300.881725 
z
" style="fill:#808080;"/>
   </g>
   <g id="patch_187">
    <path clip-path="url(#pf30158f5ee)" d="M 308.995539 307.584 
L 311.795102 307.584 
L 311.795102 302.945535 
L 308.995539 302.945535 
z
" style="fill:#808080;"/>
   </g>
   <g id="patch_188">
    <path clip-path="url(#pf30158f5ee)" d="M 311.795093 307.584 
L 314.594656 307.584 
L 314.594656 307.052722 
L 311.795093 307.052722 
z
" style="fill:#808080;"/>
   </g>
   <g id="patch_189">
    <path clip-path="url(#pf30158f5ee)" d="M 314.594656 307.584 
L 317.39422 307.584 
L 317.39422 307.011855 
L 314.594656 307.011855 
z
" style="fill:#808080;"/>
   </g>
   <g id="patch_190">
    <path clip-path="url(#pf30158f5ee)" d="M 317.394211 307.584 
L 320.193774 307.584 
L 320.193774 307.584 
L 317.394211 307.584 
z
" style="fill:#808080;"/>
   </g>
   <g id="patch_191">
    <path clip-path="url(#pf30158f5ee)" d="M 320.193765 307.584 
L 322.993328 307.584 
L 322.993328 307.584 
L 320.193765 307.584 
z
" style="fill:#808080;"/>
   </g>
   <g id="patch_192">
    <path clip-path="url(#pf30158f5ee)" d="M 322.993319 307.584 
L 325.792882 307.584 
L 325.792882 307.584 
L 322.993319 307.584 
z
" style="fill:#808080;"/>
   </g>
   <g id="patch_193">
    <path clip-path="url(#pf30158f5ee)" d="M 325.792882 307.584 
L 328.592445 307.584 
L 328.592445 307.584 
L 325.792882 307.584 
z
" style="fill:#808080;"/>
   </g>
   <g id="patch_194">
    <path clip-path="url(#pf30158f5ee)" d="M 328.592445 307.584 
L 331.392008 307.584 
L 331.392008 307.584 
L 328.592445 307.584 
z
" style="fill:#808080;"/>
   </g>
   <g id="patch_195">
    <path clip-path="url(#pf30158f5ee)" d="M 331.39199 307.584 
L 334.191553 307.584 
L 334.191553 307.584 
L 331.39199 307.584 
z
" style="fill:#808080;"/>
   </g>
   <g id="patch_196">
    <path clip-path="url(#pf30158f5ee)" d="M 334.191553 307.584 
L 336.991116 307.584 
L 336.991116 307.584 
L 334.191553 307.584 
z
" style="fill:#808080;"/>
   </g>
   <g id="patch_197">
    <path clip-path="url(#pf30158f5ee)" d="M 336.991116 307.584 
L 339.790679 307.584 
L 339.790679 306.684914 
L 336.991116 306.684914 
z
" style="fill:#808080;"/>
   </g>
   <g id="patch_198">
    <path clip-path="url(#pf30158f5ee)" d="M 339.79067 307.584 
L 342.590233 307.584 
L 342.590233 307.42053 
L 339.79067 307.42053 
z
" style="fill:#808080;"/>
   </g>
   <g id="patch_199">
    <path clip-path="url(#pf30158f5ee)" d="M 342.590224 307.584 
L 345.389787 307.584 
L 345.389787 307.379662 
L 342.590224 307.379662 
z
" style="fill:#808080;"/>
   </g>
   <g id="patch_200">
    <path clip-path="url(#pf30158f5ee)" d="M 345.389787 307.584 
L 348.18935 307.584 
L 348.18935 307.502265 
L 345.389787 307.502265 
z
" style="fill:#808080;"/>
   </g>
   <g id="patch_201">
    <path clip-path="url(#pf30158f5ee)" d="M 348.189341 307.584 
L 350.988904 307.584 
L 350.988904 307.584 
L 348.189341 307.584 
z
" style="fill:#808080;"/>
   </g>
   <g id="patch_202">
    <path clip-path="url(#pf30158f5ee)" d="M 350.988895 307.584 
L 353.788458 307.584 
L 353.788458 307.563566 
L 350.988895 307.563566 
z
" style="fill:#808080;"/>
   </g>
   <g id="matplotlib.axis_1">
    <g id="xtick_1">
     <g id="line2d_1">
      <defs>
       <path d="M 0 0 
L 0 3.5 
" id="m10dd66c3d2" style="stroke:#000000;stroke-width:0.8;"/>
      </defs>
      <g>
       <use style="stroke:#000000;stroke-width:0.8;" x="72.656443" xlink:href="#m10dd66c3d2" y="307.584"/>
      </g>
     </g>
     <g id="text_1">
      <!-- −150 -->
      <defs>
       <path d="M 10.59375 35.5 
L 73.1875 35.5 
L 73.1875 27.203125 
L 10.59375 27.203125 
z
" id="DejaVuSans-8722"/>
       <path d="M 12.40625 8.296875 
L 28.515625 8.296875 
L 28.515625 63.921875 
L 10.984375 60.40625 
L 10.984375 69.390625 
L 28.421875 72.90625 
L 38.28125 72.90625 
L 38.28125 8.296875 
L 54.390625 8.296875 
L 54.390625 0 
L 12.40625 0 
z
" id="DejaVuSans-49"/>
       <path d="M 10.796875 72.90625 
L 49.515625 72.90625 
L 49.515625 64.59375 
L 19.828125 64.59375 
L 19.828125 46.734375 
Q 21.96875 47.46875 24.109375 47.828125 
Q 26.265625 48.1875 28.421875 48.1875 
Q 40.625 48.1875 47.75 41.5 
Q 54.890625 34.8125 54.890625 23.390625 
Q 54.890625 11.625 47.5625 5.09375 
Q 40.234375 -1.421875 26.90625 -1.421875 
Q 22.3125 -1.421875 17.546875 -0.640625 
Q 12.796875 0.140625 7.71875 1.703125 
L 7.71875 11.625 
Q 12.109375 9.234375 16.796875 8.0625 
Q 21.484375 6.890625 26.703125 6.890625 
Q 35.15625 6.890625 40.078125 11.328125 
Q 45.015625 15.765625 45.015625 23.390625 
Q 45.015625 31 40.078125 35.4375 
Q 35.15625 39.890625 26.703125 39.890625 
Q 22.75 39.890625 18.8125 39.015625 
Q 14.890625 38.140625 10.796875 36.28125 
z
" id="DejaVuSans-53"/>
       <path d="M 31.78125 66.40625 
Q 24.171875 66.40625 20.328125 58.90625 
Q 16.5 51.421875 16.5 36.375 
Q 16.5 21.390625 20.328125 13.890625 
Q 24.171875 6.390625 31.78125 6.390625 
Q 39.453125 6.390625 43.28125 13.890625 
Q 47.125 21.390625 47.125 36.375 
Q 47.125 51.421875 43.28125 58.90625 
Q 39.453125 66.40625 31.78125 66.40625 
z
M 31.78125 74.21875 
Q 44.046875 74.21875 50.515625 64.515625 
Q 56.984375 54.828125 56.984375 36.375 
Q 56.984375 17.96875 50.515625 8.265625 
Q 44.046875 -1.421875 31.78125 -1.421875 
Q 19.53125 -1.421875 13.0625 8.265625 
Q 6.59375 17.96875 6.59375 36.375 
Q 6.59375 54.828125 13.0625 64.515625 
Q 19.53125 74.21875 31.78125 74.21875 
z
" id="DejaVuSans-48"/>
      </defs>
      <g transform="translate(58.922849 322.182437)scale(0.1 -0.1)">
       <use xlink:href="#DejaVuSans-8722"/>
       <use x="83.789062" xlink:href="#DejaVuSans-49"/>
       <use x="147.412109" xlink:href="#DejaVuSans-53"/>
       <use x="211.035156" xlink:href="#DejaVuSans-48"/>
      </g>
     </g>
    </g>
    <g id="xtick_2">
     <g id="line2d_2">
      <g>
       <use style="stroke:#000000;stroke-width:0.8;" x="131.470672" xlink:href="#m10dd66c3d2" y="307.584"/>
      </g>
     </g>
     <g id="text_2">
      <!-- −100 -->
      <g transform="translate(117.737078 322.182437)scale(0.1 -0.1)">
       <use xlink:href="#DejaVuSans-8722"/>
       <use x="83.789062" xlink:href="#DejaVuSans-49"/>
       <use x="147.412109" xlink:href="#DejaVuSans-48"/>
       <use x="211.035156" xlink:href="#DejaVuSans-48"/>
      </g>
     </g>
    </g>
    <g id="xtick_3">
     <g id="line2d_3">
      <g>
       <use style="stroke:#000000;stroke-width:0.8;" x="190.284901" xlink:href="#m10dd66c3d2" y="307.584"/>
      </g>
     </g>
     <g id="text_3">
      <!-- −50 -->
      <g transform="translate(179.732557 322.182437)scale(0.1 -0.1)">
       <use xlink:href="#DejaVuSans-8722"/>
       <use x="83.789062" xlink:href="#DejaVuSans-53"/>
       <use x="147.412109" xlink:href="#DejaVuSans-48"/>
      </g>
     </g>
    </g>
    <g id="xtick_4">
     <g id="line2d_4">
      <g>
       <use style="stroke:#000000;stroke-width:0.8;" x="249.09913" xlink:href="#m10dd66c3d2" y="307.584"/>
      </g>
     </g>
     <g id="text_4">
      <!-- 0 -->
      <g transform="translate(245.91788 322.182437)scale(0.1 -0.1)">
       <use xlink:href="#DejaVuSans-48"/>
      </g>
     </g>
    </g>
    <g id="xtick_5">
     <g id="line2d_5">
      <g>
       <use style="stroke:#000000;stroke-width:0.8;" x="307.91336" xlink:href="#m10dd66c3d2" y="307.584"/>
      </g>
     </g>
     <g id="text_5">
      <!-- 50 -->
      <g transform="translate(301.55086 322.182437)scale(0.1 -0.1)">
       <use xlink:href="#DejaVuSans-53"/>
       <use x="63.623047" xlink:href="#DejaVuSans-48"/>
      </g>
     </g>
    </g>
    <g id="xtick_6">
     <g id="line2d_6">
      <g>
       <use style="stroke:#000000;stroke-width:0.8;" x="366.727589" xlink:href="#m10dd66c3d2" y="307.584"/>
      </g>
     </g>
     <g id="text_6">
      <!-- 100 -->
      <g transform="translate(357.183839 322.182437)scale(0.1 -0.1)">
       <use xlink:href="#DejaVuSans-49"/>
       <use x="63.623047" xlink:href="#DejaVuSans-48"/>
       <use x="127.246094" xlink:href="#DejaVuSans-48"/>
      </g>
     </g>
    </g>
    <g id="text_7">
     <!-- Weight -->
     <defs>
      <path d="M 3.328125 72.90625 
L 13.28125 72.90625 
L 28.609375 11.28125 
L 43.890625 72.90625 
L 54.984375 72.90625 
L 70.3125 11.28125 
L 85.59375 72.90625 
L 95.609375 72.90625 
L 77.296875 0 
L 64.890625 0 
L 49.515625 63.28125 
L 33.984375 0 
L 21.578125 0 
z
" id="DejaVuSans-87"/>
      <path d="M 56.203125 29.59375 
L 56.203125 25.203125 
L 14.890625 25.203125 
Q 15.484375 15.921875 20.484375 11.0625 
Q 25.484375 6.203125 34.421875 6.203125 
Q 39.59375 6.203125 44.453125 7.46875 
Q 49.3125 8.734375 54.109375 11.28125 
L 54.109375 2.78125 
Q 49.265625 0.734375 44.1875 -0.34375 
Q 39.109375 -1.421875 33.890625 -1.421875 
Q 20.796875 -1.421875 13.15625 6.1875 
Q 5.515625 13.8125 5.515625 26.8125 
Q 5.515625 40.234375 12.765625 48.109375 
Q 20.015625 56 32.328125 56 
Q 43.359375 56 49.78125 48.890625 
Q 56.203125 41.796875 56.203125 29.59375 
z
M 47.21875 32.234375 
Q 47.125 39.59375 43.09375 43.984375 
Q 39.0625 48.390625 32.421875 48.390625 
Q 24.90625 48.390625 20.390625 44.140625 
Q 15.875 39.890625 15.1875 32.171875 
z
" id="DejaVuSans-101"/>
      <path d="M 9.421875 54.6875 
L 18.40625 54.6875 
L 18.40625 0 
L 9.421875 0 
z
M 9.421875 75.984375 
L 18.40625 75.984375 
L 18.40625 64.59375 
L 9.421875 64.59375 
z
" id="DejaVuSans-105"/>
      <path d="M 45.40625 27.984375 
Q 45.40625 37.75 41.375 43.109375 
Q 37.359375 48.484375 30.078125 48.484375 
Q 22.859375 48.484375 18.828125 43.109375 
Q 14.796875 37.75 14.796875 27.984375 
Q 14.796875 18.265625 18.828125 12.890625 
Q 22.859375 7.515625 30.078125 7.515625 
Q 37.359375 7.515625 41.375 12.890625 
Q 45.40625 18.265625 45.40625 27.984375 
z
M 54.390625 6.78125 
Q 54.390625 -7.171875 48.1875 -13.984375 
Q 42 -20.796875 29.203125 -20.796875 
Q 24.46875 -20.796875 20.265625 -20.09375 
Q 16.0625 -19.390625 12.109375 -17.921875 
L 12.109375 -9.1875 
Q 16.0625 -11.328125 19.921875 -12.34375 
Q 23.78125 -13.375 27.78125 -13.375 
Q 36.625 -13.375 41.015625 -8.765625 
Q 45.40625 -4.15625 45.40625 5.171875 
L 45.40625 9.625 
Q 42.625 4.78125 38.28125 2.390625 
Q 33.9375 0 27.875 0 
Q 17.828125 0 11.671875 7.65625 
Q 5.515625 15.328125 5.515625 27.984375 
Q 5.515625 40.671875 11.671875 48.328125 
Q 17.828125 56 27.875 56 
Q 33.9375 56 38.28125 53.609375 
Q 42.625 51.21875 45.40625 46.390625 
L 45.40625 54.6875 
L 54.390625 54.6875 
z
" id="DejaVuSans-103"/>
      <path d="M 54.890625 33.015625 
L 54.890625 0 
L 45.90625 0 
L 45.90625 32.71875 
Q 45.90625 40.484375 42.875 44.328125 
Q 39.84375 48.1875 33.796875 48.1875 
Q 26.515625 48.1875 22.3125 43.546875 
Q 18.109375 38.921875 18.109375 30.90625 
L 18.109375 0 
L 9.078125 0 
L 9.078125 75.984375 
L 18.109375 75.984375 
L 18.109375 46.1875 
Q 21.34375 51.125 25.703125 53.5625 
Q 30.078125 56 35.796875 56 
Q 45.21875 56 50.046875 50.171875 
Q 54.890625 44.34375 54.890625 33.015625 
z
" id="DejaVuSans-104"/>
      <path d="M 18.3125 70.21875 
L 18.3125 54.6875 
L 36.8125 54.6875 
L 36.8125 47.703125 
L 18.3125 47.703125 
L 18.3125 18.015625 
Q 18.3125 11.328125 20.140625 9.421875 
Q 21.96875 7.515625 27.59375 7.515625 
L 36.8125 7.515625 
L 36.8125 0 
L 27.59375 0 
Q 17.1875 0 13.234375 3.875 
Q 9.28125 7.765625 9.28125 18.015625 
L 9.28125 47.703125 
L 2.6875 47.703125 
L 2.6875 54.6875 
L 9.28125 54.6875 
L 9.28125 70.21875 
z
" id="DejaVuSans-116"/>
     </defs>
     <g transform="translate(218.451406 335.860562)scale(0.1 -0.1)">
      <use xlink:href="#DejaVuSans-87"/>
      <use x="98.798828" xlink:href="#DejaVuSans-101"/>
      <use x="160.322266" xlink:href="#DejaVuSans-105"/>
      <use x="188.105469" xlink:href="#DejaVuSans-103"/>
      <use x="251.582031" xlink:href="#DejaVuSans-104"/>
      <use x="314.960938" xlink:href="#DejaVuSans-116"/>
     </g>
    </g>
   </g>
   <g id="matplotlib.axis_2">
    <g id="ytick_1">
     <g id="line2d_7">
      <defs>
       <path d="M 0 0 
L -3.5 0 
" id="m4bc814fc18" style="stroke:#000000;stroke-width:0.8;"/>
      </defs>
      <g>
       <use style="stroke:#000000;stroke-width:0.8;" x="57.6" xlink:href="#m4bc814fc18" y="307.584"/>
      </g>
     </g>
     <g id="text_8">
      <!-- 0 -->
      <g transform="translate(44.2375 311.383219)scale(0.1 -0.1)">
       <use xlink:href="#DejaVuSans-48"/>
      </g>
     </g>
    </g>
    <g id="ytick_2">
     <g id="line2d_8">
      <g>
       <use style="stroke:#000000;stroke-width:0.8;" x="57.6" xlink:href="#m4bc814fc18" y="266.716468"/>
      </g>
     </g>
     <g id="text_9">
      <!-- 2000 -->
      <defs>
       <path d="M 19.1875 8.296875 
L 53.609375 8.296875 
L 53.609375 0 
L 7.328125 0 
L 7.328125 8.296875 
Q 12.9375 14.109375 22.625 23.890625 
Q 32.328125 33.6875 34.8125 36.53125 
Q 39.546875 41.84375 41.421875 45.53125 
Q 43.3125 49.21875 43.3125 52.78125 
Q 43.3125 58.59375 39.234375 62.25 
Q 35.15625 65.921875 28.609375 65.921875 
Q 23.96875 65.921875 18.8125 64.3125 
Q 13.671875 62.703125 7.8125 59.421875 
L 7.8125 69.390625 
Q 13.765625 71.78125 18.9375 73 
Q 24.125 74.21875 28.421875 74.21875 
Q 39.75 74.21875 46.484375 68.546875 
Q 53.21875 62.890625 53.21875 53.421875 
Q 53.21875 48.921875 51.53125 44.890625 
Q 49.859375 40.875 45.40625 35.40625 
Q 44.1875 33.984375 37.640625 27.21875 
Q 31.109375 20.453125 19.1875 8.296875 
z
" id="DejaVuSans-50"/>
      </defs>
      <g transform="translate(25.15 270.515687)scale(0.1 -0.1)">
       <use xlink:href="#DejaVuSans-50"/>
       <use x="63.623047" xlink:href="#DejaVuSans-48"/>
       <use x="127.246094" xlink:href="#DejaVuSans-48"/>
       <use x="190.869141" xlink:href="#DejaVuSans-48"/>
      </g>
     </g>
    </g>
    <g id="ytick_3">
     <g id="line2d_9">
      <g>
       <use style="stroke:#000000;stroke-width:0.8;" x="57.6" xlink:href="#m4bc814fc18" y="225.848936"/>
      </g>
     </g>
     <g id="text_10">
      <!-- 4000 -->
      <defs>
       <path d="M 37.796875 64.3125 
L 12.890625 25.390625 
L 37.796875 25.390625 
z
M 35.203125 72.90625 
L 47.609375 72.90625 
L 47.609375 25.390625 
L 58.015625 25.390625 
L 58.015625 17.1875 
L 47.609375 17.1875 
L 47.609375 0 
L 37.796875 0 
L 37.796875 17.1875 
L 4.890625 17.1875 
L 4.890625 26.703125 
z
" id="DejaVuSans-52"/>
      </defs>
      <g transform="translate(25.15 229.648155)scale(0.1 -0.1)">
       <use xlink:href="#DejaVuSans-52"/>
       <use x="63.623047" xlink:href="#DejaVuSans-48"/>
       <use x="127.246094" xlink:href="#DejaVuSans-48"/>
       <use x="190.869141" xlink:href="#DejaVuSans-48"/>
      </g>
     </g>
    </g>
    <g id="ytick_4">
     <g id="line2d_10">
      <g>
       <use style="stroke:#000000;stroke-width:0.8;" x="57.6" xlink:href="#m4bc814fc18" y="184.981404"/>
      </g>
     </g>
     <g id="text_11">
      <!-- 6000 -->
      <defs>
       <path d="M 33.015625 40.375 
Q 26.375 40.375 22.484375 35.828125 
Q 18.609375 31.296875 18.609375 23.390625 
Q 18.609375 15.53125 22.484375 10.953125 
Q 26.375 6.390625 33.015625 6.390625 
Q 39.65625 6.390625 43.53125 10.953125 
Q 47.40625 15.53125 47.40625 23.390625 
Q 47.40625 31.296875 43.53125 35.828125 
Q 39.65625 40.375 33.015625 40.375 
z
M 52.59375 71.296875 
L 52.59375 62.3125 
Q 48.875 64.0625 45.09375 64.984375 
Q 41.3125 65.921875 37.59375 65.921875 
Q 27.828125 65.921875 22.671875 59.328125 
Q 17.53125 52.734375 16.796875 39.40625 
Q 19.671875 43.65625 24.015625 45.921875 
Q 28.375 48.1875 33.59375 48.1875 
Q 44.578125 48.1875 50.953125 41.515625 
Q 57.328125 34.859375 57.328125 23.390625 
Q 57.328125 12.15625 50.6875 5.359375 
Q 44.046875 -1.421875 33.015625 -1.421875 
Q 20.359375 -1.421875 13.671875 8.265625 
Q 6.984375 17.96875 6.984375 36.375 
Q 6.984375 53.65625 15.1875 63.9375 
Q 23.390625 74.21875 37.203125 74.21875 
Q 40.921875 74.21875 44.703125 73.484375 
Q 48.484375 72.75 52.59375 71.296875 
z
" id="DejaVuSans-54"/>
      </defs>
      <g transform="translate(25.15 188.780623)scale(0.1 -0.1)">
       <use xlink:href="#DejaVuSans-54"/>
       <use x="63.623047" xlink:href="#DejaVuSans-48"/>
       <use x="127.246094" xlink:href="#DejaVuSans-48"/>
       <use x="190.869141" xlink:href="#DejaVuSans-48"/>
      </g>
     </g>
    </g>
    <g id="ytick_5">
     <g id="line2d_11">
      <g>
       <use style="stroke:#000000;stroke-width:0.8;" x="57.6" xlink:href="#m4bc814fc18" y="144.113872"/>
      </g>
     </g>
     <g id="text_12">
      <!-- 8000 -->
      <defs>
       <path d="M 31.78125 34.625 
Q 24.75 34.625 20.71875 30.859375 
Q 16.703125 27.09375 16.703125 20.515625 
Q 16.703125 13.921875 20.71875 10.15625 
Q 24.75 6.390625 31.78125 6.390625 
Q 38.8125 6.390625 42.859375 10.171875 
Q 46.921875 13.96875 46.921875 20.515625 
Q 46.921875 27.09375 42.890625 30.859375 
Q 38.875 34.625 31.78125 34.625 
z
M 21.921875 38.8125 
Q 15.578125 40.375 12.03125 44.71875 
Q 8.5 49.078125 8.5 55.328125 
Q 8.5 64.0625 14.71875 69.140625 
Q 20.953125 74.21875 31.78125 74.21875 
Q 42.671875 74.21875 48.875 69.140625 
Q 55.078125 64.0625 55.078125 55.328125 
Q 55.078125 49.078125 51.53125 44.71875 
Q 48 40.375 41.703125 38.8125 
Q 48.828125 37.15625 52.796875 32.3125 
Q 56.78125 27.484375 56.78125 20.515625 
Q 56.78125 9.90625 50.3125 4.234375 
Q 43.84375 -1.421875 31.78125 -1.421875 
Q 19.734375 -1.421875 13.25 4.234375 
Q 6.78125 9.90625 6.78125 20.515625 
Q 6.78125 27.484375 10.78125 32.3125 
Q 14.796875 37.15625 21.921875 38.8125 
z
M 18.3125 54.390625 
Q 18.3125 48.734375 21.84375 45.5625 
Q 25.390625 42.390625 31.78125 42.390625 
Q 38.140625 42.390625 41.71875 45.5625 
Q 45.3125 48.734375 45.3125 54.390625 
Q 45.3125 60.0625 41.71875 63.234375 
Q 38.140625 66.40625 31.78125 66.40625 
Q 25.390625 66.40625 21.84375 63.234375 
Q 18.3125 60.0625 18.3125 54.390625 
z
" id="DejaVuSans-56"/>
      </defs>
      <g transform="translate(25.15 147.913091)scale(0.1 -0.1)">
       <use xlink:href="#DejaVuSans-56"/>
       <use x="63.623047" xlink:href="#DejaVuSans-48"/>
       <use x="127.246094" xlink:href="#DejaVuSans-48"/>
       <use x="190.869141" xlink:href="#DejaVuSans-48"/>
      </g>
     </g>
    </g>
    <g id="ytick_6">
     <g id="line2d_12">
      <g>
       <use style="stroke:#000000;stroke-width:0.8;" x="57.6" xlink:href="#m4bc814fc18" y="103.24634"/>
      </g>
     </g>
     <g id="text_13">
      <!-- 10000 -->
      <g transform="translate(18.7875 107.045559)scale(0.1 -0.1)">
       <use xlink:href="#DejaVuSans-49"/>
       <use x="63.623047" xlink:href="#DejaVuSans-48"/>
       <use x="127.246094" xlink:href="#DejaVuSans-48"/>
       <use x="190.869141" xlink:href="#DejaVuSans-48"/>
       <use x="254.492188" xlink:href="#DejaVuSans-48"/>
      </g>
     </g>
    </g>
    <g id="ytick_7">
     <g id="line2d_13">
      <g>
       <use style="stroke:#000000;stroke-width:0.8;" x="57.6" xlink:href="#m4bc814fc18" y="62.378808"/>
      </g>
     </g>
     <g id="text_14">
      <!-- 12000 -->
      <g transform="translate(18.7875 66.178026)scale(0.1 -0.1)">
       <use xlink:href="#DejaVuSans-49"/>
       <use x="63.623047" xlink:href="#DejaVuSans-50"/>
       <use x="127.246094" xlink:href="#DejaVuSans-48"/>
       <use x="190.869141" xlink:href="#DejaVuSans-48"/>
       <use x="254.492188" xlink:href="#DejaVuSans-48"/>
      </g>
     </g>
    </g>
    <g id="text_15">
     <!-- Occurrencies -->
     <defs>
      <path d="M 39.40625 66.21875 
Q 28.65625 66.21875 22.328125 58.203125 
Q 16.015625 50.203125 16.015625 36.375 
Q 16.015625 22.609375 22.328125 14.59375 
Q 28.65625 6.59375 39.40625 6.59375 
Q 50.140625 6.59375 56.421875 14.59375 
Q 62.703125 22.609375 62.703125 36.375 
Q 62.703125 50.203125 56.421875 58.203125 
Q 50.140625 66.21875 39.40625 66.21875 
z
M 39.40625 74.21875 
Q 54.734375 74.21875 63.90625 63.9375 
Q 73.09375 53.65625 73.09375 36.375 
Q 73.09375 19.140625 63.90625 8.859375 
Q 54.734375 -1.421875 39.40625 -1.421875 
Q 24.03125 -1.421875 14.8125 8.828125 
Q 5.609375 19.09375 5.609375 36.375 
Q 5.609375 53.65625 14.8125 63.9375 
Q 24.03125 74.21875 39.40625 74.21875 
z
" id="DejaVuSans-79"/>
      <path d="M 48.78125 52.59375 
L 48.78125 44.1875 
Q 44.96875 46.296875 41.140625 47.34375 
Q 37.3125 48.390625 33.40625 48.390625 
Q 24.65625 48.390625 19.8125 42.84375 
Q 14.984375 37.3125 14.984375 27.296875 
Q 14.984375 17.28125 19.8125 11.734375 
Q 24.65625 6.203125 33.40625 6.203125 
Q 37.3125 6.203125 41.140625 7.25 
Q 44.96875 8.296875 48.78125 10.40625 
L 48.78125 2.09375 
Q 45.015625 0.34375 40.984375 -0.53125 
Q 36.96875 -1.421875 32.421875 -1.421875 
Q 20.0625 -1.421875 12.78125 6.34375 
Q 5.515625 14.109375 5.515625 27.296875 
Q 5.515625 40.671875 12.859375 48.328125 
Q 20.21875 56 33.015625 56 
Q 37.15625 56 41.109375 55.140625 
Q 45.0625 54.296875 48.78125 52.59375 
z
" id="DejaVuSans-99"/>
      <path d="M 8.5 21.578125 
L 8.5 54.6875 
L 17.484375 54.6875 
L 17.484375 21.921875 
Q 17.484375 14.15625 20.5 10.265625 
Q 23.53125 6.390625 29.59375 6.390625 
Q 36.859375 6.390625 41.078125 11.03125 
Q 45.3125 15.671875 45.3125 23.6875 
L 45.3125 54.6875 
L 54.296875 54.6875 
L 54.296875 0 
L 45.3125 0 
L 45.3125 8.40625 
Q 42.046875 3.421875 37.71875 1 
Q 33.40625 -1.421875 27.6875 -1.421875 
Q 18.265625 -1.421875 13.375 4.4375 
Q 8.5 10.296875 8.5 21.578125 
z
M 31.109375 56 
z
" id="DejaVuSans-117"/>
      <path d="M 41.109375 46.296875 
Q 39.59375 47.171875 37.8125 47.578125 
Q 36.03125 48 33.890625 48 
Q 26.265625 48 22.1875 43.046875 
Q 18.109375 38.09375 18.109375 28.8125 
L 18.109375 0 
L 9.078125 0 
L 9.078125 54.6875 
L 18.109375 54.6875 
L 18.109375 46.1875 
Q 20.953125 51.171875 25.484375 53.578125 
Q 30.03125 56 36.53125 56 
Q 37.453125 56 38.578125 55.875 
Q 39.703125 55.765625 41.0625 55.515625 
z
" id="DejaVuSans-114"/>
      <path d="M 54.890625 33.015625 
L 54.890625 0 
L 45.90625 0 
L 45.90625 32.71875 
Q 45.90625 40.484375 42.875 44.328125 
Q 39.84375 48.1875 33.796875 48.1875 
Q 26.515625 48.1875 22.3125 43.546875 
Q 18.109375 38.921875 18.109375 30.90625 
L 18.109375 0 
L 9.078125 0 
L 9.078125 54.6875 
L 18.109375 54.6875 
L 18.109375 46.1875 
Q 21.34375 51.125 25.703125 53.5625 
Q 30.078125 56 35.796875 56 
Q 45.21875 56 50.046875 50.171875 
Q 54.890625 44.34375 54.890625 33.015625 
z
" id="DejaVuSans-110"/>
      <path d="M 44.28125 53.078125 
L 44.28125 44.578125 
Q 40.484375 46.53125 36.375 47.5 
Q 32.28125 48.484375 27.875 48.484375 
Q 21.1875 48.484375 17.84375 46.4375 
Q 14.5 44.390625 14.5 40.28125 
Q 14.5 37.15625 16.890625 35.375 
Q 19.28125 33.59375 26.515625 31.984375 
L 29.59375 31.296875 
Q 39.15625 29.25 43.1875 25.515625 
Q 47.21875 21.78125 47.21875 15.09375 
Q 47.21875 7.46875 41.1875 3.015625 
Q 35.15625 -1.421875 24.609375 -1.421875 
Q 20.21875 -1.421875 15.453125 -0.5625 
Q 10.6875 0.296875 5.421875 2 
L 5.421875 11.28125 
Q 10.40625 8.6875 15.234375 7.390625 
Q 20.0625 6.109375 24.8125 6.109375 
Q 31.15625 6.109375 34.5625 8.28125 
Q 37.984375 10.453125 37.984375 14.40625 
Q 37.984375 18.0625 35.515625 20.015625 
Q 33.0625 21.96875 24.703125 23.78125 
L 21.578125 24.515625 
Q 13.234375 26.265625 9.515625 29.90625 
Q 5.8125 33.546875 5.8125 39.890625 
Q 5.8125 47.609375 11.28125 51.796875 
Q 16.75 56 26.8125 56 
Q 31.78125 56 36.171875 55.265625 
Q 40.578125 54.546875 44.28125 53.078125 
z
" id="DejaVuSans-115"/>
     </defs>
     <g transform="translate(12.707812 207.304563)rotate(-90)scale(0.1 -0.1)">
      <use xlink:href="#DejaVuSans-79"/>
      <use x="78.710938" xlink:href="#DejaVuSans-99"/>
      <use x="133.691406" xlink:href="#DejaVuSans-99"/>
      <use x="188.671875" xlink:href="#DejaVuSans-117"/>
      <use x="252.050781" xlink:href="#DejaVuSans-114"/>
      <use x="293.148438" xlink:href="#DejaVuSans-114"/>
      <use x="334.230469" xlink:href="#DejaVuSans-101"/>
      <use x="395.753906" xlink:href="#DejaVuSans-110"/>
      <use x="459.132812" xlink:href="#DejaVuSans-99"/>
      <use x="514.113281" xlink:href="#DejaVuSans-105"/>
      <use x="541.896484" xlink:href="#DejaVuSans-101"/>
      <use x="603.419922" xlink:href="#DejaVuSans-115"/>
     </g>
    </g>
   </g>
   <g id="patch_203">
    <path d="M 57.6 307.584 
L 57.6 41.472 
" style="fill:none;stroke:#000000;stroke-linecap:square;stroke-linejoin:miter;stroke-width:0.8;"/>
   </g>
   <g id="patch_204">
    <path d="M 414.72 307.584 
L 414.72 41.472 
" style="fill:none;stroke:#000000;stroke-linecap:square;stroke-linejoin:miter;stroke-width:0.8;"/>
   </g>
   <g id="patch_205">
    <path d="M 57.6 307.584 
L 414.72 307.584 
" style="fill:none;stroke:#000000;stroke-linecap:square;stroke-linejoin:miter;stroke-width:0.8;"/>
   </g>
   <g id="patch_206">
    <path d="M 57.6 41.472 
L 414.72 41.472 
" style="fill:none;stroke:#000000;stroke-linecap:square;stroke-linejoin:miter;stroke-width:0.8;"/>
   </g>
   <g id="text_16">
    <!-- Histogram of fc1 -->
    <defs>
     <path d="M 9.8125 72.90625 
L 19.671875 72.90625 
L 19.671875 43.015625 
L 55.515625 43.015625 
L 55.515625 72.90625 
L 65.375 72.90625 
L 65.375 0 
L 55.515625 0 
L 55.515625 34.71875 
L 19.671875 34.71875 
L 19.671875 0 
L 9.8125 0 
z
" id="DejaVuSans-72"/>
     <path d="M 30.609375 48.390625 
Q 23.390625 48.390625 19.1875 42.75 
Q 14.984375 37.109375 14.984375 27.296875 
Q 14.984375 17.484375 19.15625 11.84375 
Q 23.34375 6.203125 30.609375 6.203125 
Q 37.796875 6.203125 41.984375 11.859375 
Q 46.1875 17.53125 46.1875 27.296875 
Q 46.1875 37.015625 41.984375 42.703125 
Q 37.796875 48.390625 30.609375 48.390625 
z
M 30.609375 56 
Q 42.328125 56 49.015625 48.375 
Q 55.71875 40.765625 55.71875 27.296875 
Q 55.71875 13.875 49.015625 6.21875 
Q 42.328125 -1.421875 30.609375 -1.421875 
Q 18.84375 -1.421875 12.171875 6.21875 
Q 5.515625 13.875 5.515625 27.296875 
Q 5.515625 40.765625 12.171875 48.375 
Q 18.84375 56 30.609375 56 
z
" id="DejaVuSans-111"/>
     <path d="M 34.28125 27.484375 
Q 23.390625 27.484375 19.1875 25 
Q 14.984375 22.515625 14.984375 16.5 
Q 14.984375 11.71875 18.140625 8.90625 
Q 21.296875 6.109375 26.703125 6.109375 
Q 34.1875 6.109375 38.703125 11.40625 
Q 43.21875 16.703125 43.21875 25.484375 
L 43.21875 27.484375 
z
M 52.203125 31.203125 
L 52.203125 0 
L 43.21875 0 
L 43.21875 8.296875 
Q 40.140625 3.328125 35.546875 0.953125 
Q 30.953125 -1.421875 24.3125 -1.421875 
Q 15.921875 -1.421875 10.953125 3.296875 
Q 6 8.015625 6 15.921875 
Q 6 25.140625 12.171875 29.828125 
Q 18.359375 34.515625 30.609375 34.515625 
L 43.21875 34.515625 
L 43.21875 35.40625 
Q 43.21875 41.609375 39.140625 45 
Q 35.0625 48.390625 27.6875 48.390625 
Q 23 48.390625 18.546875 47.265625 
Q 14.109375 46.140625 10.015625 43.890625 
L 10.015625 52.203125 
Q 14.9375 54.109375 19.578125 55.046875 
Q 24.21875 56 28.609375 56 
Q 40.484375 56 46.34375 49.84375 
Q 52.203125 43.703125 52.203125 31.203125 
z
" id="DejaVuSans-97"/>
     <path d="M 52 44.1875 
Q 55.375 50.25 60.0625 53.125 
Q 64.75 56 71.09375 56 
Q 79.640625 56 84.28125 50.015625 
Q 88.921875 44.046875 88.921875 33.015625 
L 88.921875 0 
L 79.890625 0 
L 79.890625 32.71875 
Q 79.890625 40.578125 77.09375 44.375 
Q 74.3125 48.1875 68.609375 48.1875 
Q 61.625 48.1875 57.5625 43.546875 
Q 53.515625 38.921875 53.515625 30.90625 
L 53.515625 0 
L 44.484375 0 
L 44.484375 32.71875 
Q 44.484375 40.625 41.703125 44.40625 
Q 38.921875 48.1875 33.109375 48.1875 
Q 26.21875 48.1875 22.15625 43.53125 
Q 18.109375 38.875 18.109375 30.90625 
L 18.109375 0 
L 9.078125 0 
L 9.078125 54.6875 
L 18.109375 54.6875 
L 18.109375 46.1875 
Q 21.1875 51.21875 25.484375 53.609375 
Q 29.78125 56 35.6875 56 
Q 41.65625 56 45.828125 52.96875 
Q 50 49.953125 52 44.1875 
z
" id="DejaVuSans-109"/>
     <path id="DejaVuSans-32"/>
     <path d="M 37.109375 75.984375 
L 37.109375 68.5 
L 28.515625 68.5 
Q 23.6875 68.5 21.796875 66.546875 
Q 19.921875 64.59375 19.921875 59.515625 
L 19.921875 54.6875 
L 34.71875 54.6875 
L 34.71875 47.703125 
L 19.921875 47.703125 
L 19.921875 0 
L 10.890625 0 
L 10.890625 47.703125 
L 2.296875 47.703125 
L 2.296875 54.6875 
L 10.890625 54.6875 
L 10.890625 58.5 
Q 10.890625 67.625 15.140625 71.796875 
Q 19.390625 75.984375 28.609375 75.984375 
z
" id="DejaVuSans-102"/>
    </defs>
    <g transform="translate(186.209063 35.472)scale(0.12 -0.12)">
     <use xlink:href="#DejaVuSans-72"/>
     <use x="75.195312" xlink:href="#DejaVuSans-105"/>
     <use x="102.978516" xlink:href="#DejaVuSans-115"/>
     <use x="155.078125" xlink:href="#DejaVuSans-116"/>
     <use x="194.287109" xlink:href="#DejaVuSans-111"/>
     <use x="255.46875" xlink:href="#DejaVuSans-103"/>
     <use x="318.945312" xlink:href="#DejaVuSans-114"/>
     <use x="360.058594" xlink:href="#DejaVuSans-97"/>
     <use x="421.337891" xlink:href="#DejaVuSans-109"/>
     <use x="518.75" xlink:href="#DejaVuSans-32"/>
     <use x="550.537109" xlink:href="#DejaVuSans-111"/>
     <use x="611.71875" xlink:href="#DejaVuSans-102"/>
     <use x="646.923828" xlink:href="#DejaVuSans-32"/>
     <use x="678.710938" xlink:href="#DejaVuSans-102"/>
     <use x="713.916016" xlink:href="#DejaVuSans-99"/>
     <use x="768.896484" xlink:href="#DejaVuSans-49"/>
    </g>
   </g>
   <g id="legend_1">
    <g id="patch_207">
     <path d="M 323.679375 78.82825 
L 407.72 78.82825 
Q 409.72 78.82825 409.72 76.82825 
L 409.72 48.472 
Q 409.72 46.472 407.72 46.472 
L 323.679375 46.472 
Q 321.679375 46.472 321.679375 48.472 
L 321.679375 76.82825 
Q 321.679375 78.82825 323.679375 78.82825 
z
" style="fill:#ffffff;opacity:0.8;stroke:#cccccc;stroke-linejoin:miter;"/>
    </g>
    <g id="patch_208">
     <path d="M 325.679375 58.070437 
L 345.679375 58.070437 
L 345.679375 51.070437 
L 325.679375 51.070437 
z
" style="fill:#0000ff;"/>
    </g>
    <g id="text_17">
     <!-- unmasked -->
     <defs>
      <path d="M 9.078125 75.984375 
L 18.109375 75.984375 
L 18.109375 31.109375 
L 44.921875 54.6875 
L 56.390625 54.6875 
L 27.390625 29.109375 
L 57.625 0 
L 45.90625 0 
L 18.109375 26.703125 
L 18.109375 0 
L 9.078125 0 
z
" id="DejaVuSans-107"/>
      <path d="M 45.40625 46.390625 
L 45.40625 75.984375 
L 54.390625 75.984375 
L 54.390625 0 
L 45.40625 0 
L 45.40625 8.203125 
Q 42.578125 3.328125 38.25 0.953125 
Q 33.9375 -1.421875 27.875 -1.421875 
Q 17.96875 -1.421875 11.734375 6.484375 
Q 5.515625 14.40625 5.515625 27.296875 
Q 5.515625 40.1875 11.734375 48.09375 
Q 17.96875 56 27.875 56 
Q 33.9375 56 38.25 53.625 
Q 42.578125 51.265625 45.40625 46.390625 
z
M 14.796875 27.296875 
Q 14.796875 17.390625 18.875 11.75 
Q 22.953125 6.109375 30.078125 6.109375 
Q 37.203125 6.109375 41.296875 11.75 
Q 45.40625 17.390625 45.40625 27.296875 
Q 45.40625 37.203125 41.296875 42.84375 
Q 37.203125 48.484375 30.078125 48.484375 
Q 22.953125 48.484375 18.875 42.84375 
Q 14.796875 37.203125 14.796875 27.296875 
z
" id="DejaVuSans-100"/>
     </defs>
     <g transform="translate(353.679375 58.070437)scale(0.1 -0.1)">
      <use xlink:href="#DejaVuSans-117"/>
      <use x="63.378906" xlink:href="#DejaVuSans-110"/>
      <use x="126.757812" xlink:href="#DejaVuSans-109"/>
      <use x="224.169922" xlink:href="#DejaVuSans-97"/>
      <use x="285.449219" xlink:href="#DejaVuSans-115"/>
      <use x="337.548828" xlink:href="#DejaVuSans-107"/>
      <use x="395.412109" xlink:href="#DejaVuSans-101"/>
      <use x="456.935547" xlink:href="#DejaVuSans-100"/>
     </g>
    </g>
    <g id="patch_209">
     <path d="M 325.679375 72.748562 
L 345.679375 72.748562 
L 345.679375 65.748562 
L 325.679375 65.748562 
z
" style="fill:#808080;"/>
    </g>
    <g id="text_18">
     <!-- masked -->
     <g transform="translate(353.679375 72.748562)scale(0.1 -0.1)">
      <use xlink:href="#DejaVuSans-109"/>
      <use x="97.412109" xlink:href="#DejaVuSans-97"/>
      <use x="158.691406" xlink:href="#DejaVuSans-115"/>
      <use x="210.791016" xlink:href="#DejaVuSans-107"/>
      <use x="268.654297" xlink:href="#DejaVuSans-101"/>
      <use x="330.177734" xlink:href="#DejaVuSans-100"/>
     </g>
    </g>
   </g>
  </g>
 </g>
 <defs>
  <clipPath id="pf30158f5ee">
   <rect height="266.112" width="357.12" x="57.6" y="41.472"/>
  </clipPath>
 </defs>
</svg>
