<?xml version="1.0" encoding="utf-8" standalone="no"?>
<!DOCTYPE svg PUBLIC "-//W3C//DTD SVG 1.1//EN"
  "http://www.w3.org/Graphics/SVG/1.1/DTD/svg11.dtd">
<!-- Created with matplotlib (https://matplotlib.org/) -->
<svg height="345.6pt" version="1.1" viewBox="0 0 460.8 345.6" width="460.8pt" xmlns="http://www.w3.org/2000/svg" xmlns:xlink="http://www.w3.org/1999/xlink">
 <defs>
  <style type="text/css">
*{stroke-linecap:butt;stroke-linejoin:round;}
  </style>
 </defs>
 <g id="figure_1">
  <g id="patch_1">
   <path d="M 0 345.6 
L 460.8 345.6 
L 460.8 0 
L 0 0 
z
" style="fill:#ffffff;"/>
  </g>
  <g id="axes_1">
   <g id="patch_2">
    <path d="M 57.6 307.584 
L 414.72 307.584 
L 414.72 41.472 
L 57.6 41.472 
z
" style="fill:#ffffff;"/>
   </g>
   <g id="patch_3">
    <path clip-path="url(#p8281720633)" d="M 167.883065 307.584 
L 170.189107 307.584 
L 170.189107 306.42674 
L 167.883065 306.42674 
z
" style="fill:#0000ff;"/>
   </g>
   <g id="patch_4">
    <path clip-path="url(#p8281720633)" d="M 170.189107 307.584 
L 172.495148 307.584 
L 172.495148 307.584 
L 170.189107 307.584 
z
" style="fill:#0000ff;"/>
   </g>
   <g id="patch_5">
    <path clip-path="url(#p8281720633)" d="M 172.495149 307.584 
L 174.801191 307.584 
L 174.801191 307.584 
L 172.495149 307.584 
z
" style="fill:#0000ff;"/>
   </g>
   <g id="patch_6">
    <path clip-path="url(#p8281720633)" d="M 174.801191 307.584 
L 177.107234 307.584 
L 177.107234 307.584 
L 174.801191 307.584 
z
" style="fill:#0000ff;"/>
   </g>
   <g id="patch_7">
    <path clip-path="url(#p8281720633)" d="M 177.107234 307.584 
L 179.413276 307.584 
L 179.413276 306.42674 
L 177.107234 306.42674 
z
" style="fill:#0000ff;"/>
   </g>
   <g id="patch_8">
    <path clip-path="url(#p8281720633)" d="M 179.413275 307.584 
L 181.719317 307.584 
L 181.719317 307.584 
L 179.413275 307.584 
z
" style="fill:#0000ff;"/>
   </g>
   <g id="patch_9">
    <path clip-path="url(#p8281720633)" d="M 181.719318 307.584 
L 184.025361 307.584 
L 184.025361 307.584 
L 181.719318 307.584 
z
" style="fill:#0000ff;"/>
   </g>
   <g id="patch_10">
    <path clip-path="url(#p8281720633)" d="M 184.025359 307.584 
L 186.3314 307.584 
L 186.3314 306.42674 
L 184.025359 306.42674 
z
" style="fill:#0000ff;"/>
   </g>
   <g id="patch_11">
    <path clip-path="url(#p8281720633)" d="M 186.331399 307.584 
L 188.637442 307.584 
L 188.637442 306.42674 
L 186.331399 306.42674 
z
" style="fill:#0000ff;"/>
   </g>
   <g id="patch_12">
    <path clip-path="url(#p8281720633)" d="M 188.637443 307.584 
L 190.943485 307.584 
L 190.943485 307.584 
L 188.637443 307.584 
z
" style="fill:#0000ff;"/>
   </g>
   <g id="patch_13">
    <path clip-path="url(#p8281720633)" d="M 190.943485 307.584 
L 193.249526 307.584 
L 193.249526 306.42674 
L 190.943485 306.42674 
z
" style="fill:#0000ff;"/>
   </g>
   <g id="patch_14">
    <path clip-path="url(#p8281720633)" d="M 193.249526 307.584 
L 195.555569 307.584 
L 195.555569 307.584 
L 193.249526 307.584 
z
" style="fill:#0000ff;"/>
   </g>
   <g id="patch_15">
    <path clip-path="url(#p8281720633)" d="M 195.555567 307.584 
L 197.861612 307.584 
L 197.861612 307.584 
L 195.555567 307.584 
z
" style="fill:#0000ff;"/>
   </g>
   <g id="patch_16">
    <path clip-path="url(#p8281720633)" d="M 197.861612 307.584 
L 200.167653 307.584 
L 200.167653 305.269479 
L 197.861612 305.269479 
z
" style="fill:#0000ff;"/>
   </g>
   <g id="patch_17">
    <path clip-path="url(#p8281720633)" d="M 200.16765 307.584 
L 202.473691 307.584 
L 202.473691 305.269479 
L 200.16765 305.269479 
z
" style="fill:#0000ff;"/>
   </g>
   <g id="patch_18">
    <path clip-path="url(#p8281720633)" d="M 202.473694 307.584 
L 204.779735 307.584 
L 204.779735 307.584 
L 202.473694 307.584 
z
" style="fill:#0000ff;"/>
   </g>
   <g id="patch_19">
    <path clip-path="url(#p8281720633)" d="M 204.779732 307.584 
L 207.085773 307.584 
L 207.085773 306.42674 
L 204.779732 306.42674 
z
" style="fill:#0000ff;"/>
   </g>
   <g id="patch_20">
    <path clip-path="url(#p8281720633)" d="M 207.085777 307.584 
L 209.391821 307.584 
L 209.391821 307.584 
L 207.085777 307.584 
z
" style="fill:#0000ff;"/>
   </g>
   <g id="patch_21">
    <path clip-path="url(#p8281720633)" d="M 209.391821 307.584 
L 211.697863 307.584 
L 211.697863 307.584 
L 209.391821 307.584 
z
" style="fill:#0000ff;"/>
   </g>
   <g id="patch_22">
    <path clip-path="url(#p8281720633)" d="M 211.697859 307.584 
L 214.0039 307.584 
L 214.0039 306.42674 
L 211.697859 306.42674 
z
" style="fill:#0000ff;"/>
   </g>
   <g id="patch_23">
    <path clip-path="url(#p8281720633)" d="M 214.003904 307.584 
L 216.309945 307.584 
L 216.309945 307.584 
L 214.003904 307.584 
z
" style="fill:#0000ff;"/>
   </g>
   <g id="patch_24">
    <path clip-path="url(#p8281720633)" d="M 216.309942 307.584 
L 218.615983 307.584 
L 218.615983 306.42674 
L 216.309942 306.42674 
z
" style="fill:#0000ff;"/>
   </g>
   <g id="patch_25">
    <path clip-path="url(#p8281720633)" d="M 218.615986 307.584 
L 220.922031 307.584 
L 220.922031 307.584 
L 218.615986 307.584 
z
" style="fill:#0000ff;"/>
   </g>
   <g id="patch_26">
    <path clip-path="url(#p8281720633)" d="M 220.922031 307.584 
L 223.228072 307.584 
L 223.228072 306.42674 
L 220.922031 306.42674 
z
" style="fill:#0000ff;"/>
   </g>
   <g id="patch_27">
    <path clip-path="url(#p8281720633)" d="M 223.228069 307.584 
L 225.53411 307.584 
L 225.53411 306.42674 
L 223.228069 306.42674 
z
" style="fill:#0000ff;"/>
   </g>
   <g id="patch_28">
    <path clip-path="url(#p8281720633)" d="M 225.534114 307.584 
L 227.840158 307.584 
L 227.840158 306.42674 
L 225.534114 306.42674 
z
" style="fill:#0000ff;"/>
   </g>
   <g id="patch_29">
    <path clip-path="url(#p8281720633)" d="M 227.840158 307.584 
L 230.146196 307.584 
L 230.146196 307.584 
L 227.840158 307.584 
z
" style="fill:#0000ff;"/>
   </g>
   <g id="patch_30">
    <path clip-path="url(#p8281720633)" d="M 230.146196 307.584 
L 232.452241 307.584 
L 232.452241 305.269479 
L 230.146196 305.269479 
z
" style="fill:#0000ff;"/>
   </g>
   <g id="patch_31">
    <path clip-path="url(#p8281720633)" d="M 232.452248 307.584 
L 234.758285 307.584 
L 234.758285 307.584 
L 232.452248 307.584 
z
" style="fill:#0000ff;"/>
   </g>
   <g id="patch_32">
    <path clip-path="url(#p8281720633)" d="M 234.758279 307.584 
L 237.064323 307.584 
L 237.064323 306.42674 
L 234.758279 306.42674 
z
" style="fill:#0000ff;"/>
   </g>
   <g id="patch_33">
    <path clip-path="url(#p8281720633)" d="M 237.064323 307.584 
L 239.370368 307.584 
L 239.370368 301.797699 
L 237.064323 301.797699 
z
" style="fill:#0000ff;"/>
   </g>
   <g id="patch_34">
    <path clip-path="url(#p8281720633)" d="M 239.370368 307.584 
L 241.676406 307.584 
L 241.676406 307.584 
L 239.370368 307.584 
z
" style="fill:#0000ff;"/>
   </g>
   <g id="patch_35">
    <path clip-path="url(#p8281720633)" d="M 241.676406 307.584 
L 243.98245 307.584 
L 243.98245 304.112219 
L 241.676406 304.112219 
z
" style="fill:#0000ff;"/>
   </g>
   <g id="patch_36">
    <path clip-path="url(#p8281720633)" d="M 243.982457 307.584 
L 246.288495 307.584 
L 246.288495 302.954959 
L 243.982457 302.954959 
z
" style="fill:#0000ff;"/>
   </g>
   <g id="patch_37">
    <path clip-path="url(#p8281720633)" d="M 246.288488 307.584 
L 248.594533 307.584 
L 248.594533 305.269479 
L 246.288488 305.269479 
z
" style="fill:#0000ff;"/>
   </g>
   <g id="patch_38">
    <path clip-path="url(#p8281720633)" d="M 248.594533 307.584 
L 250.900578 307.584 
L 250.900578 305.269479 
L 248.594533 305.269479 
z
" style="fill:#0000ff;"/>
   </g>
   <g id="patch_39">
    <path clip-path="url(#p8281720633)" d="M 250.900578 307.584 
L 253.206615 307.584 
L 253.206615 305.269479 
L 250.900578 305.269479 
z
" style="fill:#0000ff;"/>
   </g>
   <g id="patch_40">
    <path clip-path="url(#p8281720633)" d="M 253.206615 307.584 
L 255.51266 307.584 
L 255.51266 302.954959 
L 253.206615 302.954959 
z
" style="fill:#0000ff;"/>
   </g>
   <g id="patch_41">
    <path clip-path="url(#p8281720633)" d="M 255.512667 307.584 
L 257.818705 307.584 
L 257.818705 301.797699 
L 255.512667 301.797699 
z
" style="fill:#0000ff;"/>
   </g>
   <g id="patch_42">
    <path clip-path="url(#p8281720633)" d="M 257.818698 307.584 
L 260.124743 307.584 
L 260.124743 302.954959 
L 257.818698 302.954959 
z
" style="fill:#0000ff;"/>
   </g>
   <g id="patch_43">
    <path clip-path="url(#p8281720633)" d="M 260.124743 307.584 
L 262.430787 307.584 
L 262.430787 300.640438 
L 260.124743 300.640438 
z
" style="fill:#0000ff;"/>
   </g>
   <g id="patch_44">
    <path clip-path="url(#p8281720633)" d="M 262.430787 307.584 
L 264.736825 307.584 
L 264.736825 298.325918 
L 262.430787 298.325918 
z
" style="fill:#0000ff;"/>
   </g>
   <g id="patch_45">
    <path clip-path="url(#p8281720633)" d="M 264.736825 307.584 
L 267.04287 307.584 
L 267.04287 304.112219 
L 264.736825 304.112219 
z
" style="fill:#0000ff;"/>
   </g>
   <g id="patch_46">
    <path clip-path="url(#p8281720633)" d="M 267.042877 307.584 
L 269.348915 307.584 
L 269.348915 299.483178 
L 267.042877 299.483178 
z
" style="fill:#0000ff;"/>
   </g>
   <g id="patch_47">
    <path clip-path="url(#p8281720633)" d="M 269.348908 307.584 
L 271.654952 307.584 
L 271.654952 301.797699 
L 269.348908 301.797699 
z
" style="fill:#0000ff;"/>
   </g>
   <g id="patch_48">
    <path clip-path="url(#p8281720633)" d="M 271.654952 307.584 
L 273.960997 307.584 
L 273.960997 302.954959 
L 271.654952 302.954959 
z
" style="fill:#0000ff;"/>
   </g>
   <g id="patch_49">
    <path clip-path="url(#p8281720633)" d="M 273.960997 307.584 
L 276.267035 307.584 
L 276.267035 298.325918 
L 273.960997 298.325918 
z
" style="fill:#0000ff;"/>
   </g>
   <g id="patch_50">
    <path clip-path="url(#p8281720633)" d="M 276.267035 307.584 
L 278.57308 307.584 
L 278.57308 298.325918 
L 276.267035 298.325918 
z
" style="fill:#0000ff;"/>
   </g>
   <g id="patch_51">
    <path clip-path="url(#p8281720633)" d="M 278.573086 307.584 
L 280.879124 307.584 
L 280.879124 293.696877 
L 278.573086 293.696877 
z
" style="fill:#0000ff;"/>
   </g>
   <g id="patch_52">
    <path clip-path="url(#p8281720633)" d="M 280.879117 307.584 
L 283.185162 307.584 
L 283.185162 301.797699 
L 280.879117 301.797699 
z
" style="fill:#0000ff;"/>
   </g>
   <g id="patch_53">
    <path clip-path="url(#p8281720633)" d="M 283.185155 307.584 
L 285.491193 307.584 
L 285.491193 299.483178 
L 283.185155 299.483178 
z
" style="fill:#0000ff;"/>
   </g>
   <g id="patch_54">
    <path clip-path="url(#p8281720633)" d="M 285.491221 307.584 
L 287.797265 307.584 
L 287.797265 298.325918 
L 285.491221 298.325918 
z
" style="fill:#0000ff;"/>
   </g>
   <g id="patch_55">
    <path clip-path="url(#p8281720633)" d="M 287.797251 307.584 
L 290.103282 307.584 
L 290.103282 294.854137 
L 287.797251 294.854137 
z
" style="fill:#0000ff;"/>
   </g>
   <g id="patch_56">
    <path clip-path="url(#p8281720633)" d="M 290.103282 307.584 
L 292.409327 307.584 
L 292.409327 298.325918 
L 290.103282 298.325918 
z
" style="fill:#0000ff;"/>
   </g>
   <g id="patch_57">
    <path clip-path="url(#p8281720633)" d="M 292.409341 307.584 
L 294.715386 307.584 
L 294.715386 293.696877 
L 292.409341 293.696877 
z
" style="fill:#0000ff;"/>
   </g>
   <g id="patch_58">
    <path clip-path="url(#p8281720633)" d="M 294.715372 307.584 
L 297.021416 307.584 
L 297.021416 297.168658 
L 294.715372 297.168658 
z
" style="fill:#0000ff;"/>
   </g>
   <g id="patch_59">
    <path clip-path="url(#p8281720633)" d="M 297.02143 307.584 
L 299.327475 307.584 
L 299.327475 293.696877 
L 297.02143 293.696877 
z
" style="fill:#0000ff;"/>
   </g>
   <g id="patch_60">
    <path clip-path="url(#p8281720633)" d="M 299.327461 307.584 
L 301.633492 307.584 
L 301.633492 297.168658 
L 299.327461 297.168658 
z
" style="fill:#0000ff;"/>
   </g>
   <g id="patch_61">
    <path clip-path="url(#p8281720633)" d="M 301.633492 307.584 
L 303.939537 307.584 
L 303.939537 286.753315 
L 301.633492 286.753315 
z
" style="fill:#0000ff;"/>
   </g>
   <g id="patch_62">
    <path clip-path="url(#p8281720633)" d="M 303.939551 307.584 
L 306.245595 307.584 
L 306.245595 297.168658 
L 303.939551 297.168658 
z
" style="fill:#0000ff;"/>
   </g>
   <g id="patch_63">
    <path clip-path="url(#p8281720633)" d="M 306.245581 307.584 
L 308.551626 307.584 
L 308.551626 286.753315 
L 306.245581 286.753315 
z
" style="fill:#0000ff;"/>
   </g>
   <g id="patch_64">
    <path clip-path="url(#p8281720633)" d="M 308.55164 307.584 
L 310.857685 307.584 
L 310.857685 289.067836 
L 308.55164 289.067836 
z
" style="fill:#0000ff;"/>
   </g>
   <g id="patch_65">
    <path clip-path="url(#p8281720633)" d="M 310.857671 307.584 
L 313.163702 307.584 
L 313.163702 287.910575 
L 310.857671 287.910575 
z
" style="fill:#0000ff;"/>
   </g>
   <g id="patch_66">
    <path clip-path="url(#p8281720633)" d="M 313.163702 307.584 
L 315.469746 307.584 
L 315.469746 291.382356 
L 313.163702 291.382356 
z
" style="fill:#0000ff;"/>
   </g>
   <g id="patch_67">
    <path clip-path="url(#p8281720633)" d="M 315.46976 307.584 
L 317.775805 307.584 
L 317.775805 299.483178 
L 315.46976 299.483178 
z
" style="fill:#0000ff;"/>
   </g>
   <g id="patch_68">
    <path clip-path="url(#p8281720633)" d="M 317.775791 307.584 
L 320.081836 307.584 
L 320.081836 289.067836 
L 317.775791 289.067836 
z
" style="fill:#0000ff;"/>
   </g>
   <g id="patch_69">
    <path clip-path="url(#p8281720633)" d="M 320.08185 307.584 
L 322.387894 307.584 
L 322.387894 297.168658 
L 320.08185 297.168658 
z
" style="fill:#0000ff;"/>
   </g>
   <g id="patch_70">
    <path clip-path="url(#p8281720633)" d="M 322.38788 307.584 
L 324.693911 307.584 
L 324.693911 292.539616 
L 322.38788 292.539616 
z
" style="fill:#0000ff;"/>
   </g>
   <g id="patch_71">
    <path clip-path="url(#p8281720633)" d="M 324.693911 307.584 
L 326.999956 307.584 
L 326.999956 301.797699 
L 324.693911 301.797699 
z
" style="fill:#0000ff;"/>
   </g>
   <g id="patch_72">
    <path clip-path="url(#p8281720633)" d="M 326.99997 307.584 
L 329.306015 307.584 
L 329.306015 298.325918 
L 326.99997 298.325918 
z
" style="fill:#0000ff;"/>
   </g>
   <g id="patch_73">
    <path clip-path="url(#p8281720633)" d="M 329.306001 307.584 
L 331.612045 307.584 
L 331.612045 296.011397 
L 329.306001 296.011397 
z
" style="fill:#0000ff;"/>
   </g>
   <g id="patch_74">
    <path clip-path="url(#p8281720633)" d="M 331.612059 307.584 
L 333.918104 307.584 
L 333.918104 300.640438 
L 331.612059 300.640438 
z
" style="fill:#0000ff;"/>
   </g>
   <g id="patch_75">
    <path clip-path="url(#p8281720633)" d="M 333.91809 307.584 
L 336.224121 307.584 
L 336.224121 298.325918 
L 333.91809 298.325918 
z
" style="fill:#0000ff;"/>
   </g>
   <g id="patch_76">
    <path clip-path="url(#p8281720633)" d="M 336.224121 307.584 
L 338.530166 307.584 
L 338.530166 302.954959 
L 336.224121 302.954959 
z
" style="fill:#0000ff;"/>
   </g>
   <g id="patch_77">
    <path clip-path="url(#p8281720633)" d="M 338.53018 307.584 
L 340.836224 307.584 
L 340.836224 301.797699 
L 338.53018 301.797699 
z
" style="fill:#0000ff;"/>
   </g>
   <g id="patch_78">
    <path clip-path="url(#p8281720633)" d="M 340.83621 307.584 
L 343.142255 307.584 
L 343.142255 293.696877 
L 340.83621 293.696877 
z
" style="fill:#0000ff;"/>
   </g>
   <g id="patch_79">
    <path clip-path="url(#p8281720633)" d="M 343.142269 307.584 
L 345.448314 307.584 
L 345.448314 299.483178 
L 343.142269 299.483178 
z
" style="fill:#0000ff;"/>
   </g>
   <g id="patch_80">
    <path clip-path="url(#p8281720633)" d="M 345.4483 307.584 
L 347.754331 307.584 
L 347.754331 301.797699 
L 345.4483 301.797699 
z
" style="fill:#0000ff;"/>
   </g>
   <g id="patch_81">
    <path clip-path="url(#p8281720633)" d="M 347.754331 307.584 
L 350.060375 307.584 
L 350.060375 300.640438 
L 347.754331 300.640438 
z
" style="fill:#0000ff;"/>
   </g>
   <g id="patch_82">
    <path clip-path="url(#p8281720633)" d="M 350.060389 307.584 
L 352.366434 307.584 
L 352.366434 302.954959 
L 350.060389 302.954959 
z
" style="fill:#0000ff;"/>
   </g>
   <g id="patch_83">
    <path clip-path="url(#p8281720633)" d="M 352.36642 307.584 
L 354.672465 307.584 
L 354.672465 301.797699 
L 352.36642 301.797699 
z
" style="fill:#0000ff;"/>
   </g>
   <g id="patch_84">
    <path clip-path="url(#p8281720633)" d="M 354.672479 307.584 
L 356.978523 307.584 
L 356.978523 305.269479 
L 354.672479 305.269479 
z
" style="fill:#0000ff;"/>
   </g>
   <g id="patch_85">
    <path clip-path="url(#p8281720633)" d="M 356.97851 307.584 
L 359.28454 307.584 
L 359.28454 306.42674 
L 356.97851 306.42674 
z
" style="fill:#0000ff;"/>
   </g>
   <g id="patch_86">
    <path clip-path="url(#p8281720633)" d="M 359.28454 307.584 
L 361.590585 307.584 
L 361.590585 305.269479 
L 359.28454 305.269479 
z
" style="fill:#0000ff;"/>
   </g>
   <g id="patch_87">
    <path clip-path="url(#p8281720633)" d="M 361.590599 307.584 
L 363.896644 307.584 
L 363.896644 305.269479 
L 361.590599 305.269479 
z
" style="fill:#0000ff;"/>
   </g>
   <g id="patch_88">
    <path clip-path="url(#p8281720633)" d="M 363.89663 307.584 
L 366.202675 307.584 
L 366.202675 306.42674 
L 363.89663 306.42674 
z
" style="fill:#0000ff;"/>
   </g>
   <g id="patch_89">
    <path clip-path="url(#p8281720633)" d="M 366.202688 307.584 
L 368.508733 307.584 
L 368.508733 302.954959 
L 366.202688 302.954959 
z
" style="fill:#0000ff;"/>
   </g>
   <g id="patch_90">
    <path clip-path="url(#p8281720633)" d="M 368.508719 307.584 
L 370.81475 307.584 
L 370.81475 305.269479 
L 368.508719 305.269479 
z
" style="fill:#0000ff;"/>
   </g>
   <g id="patch_91">
    <path clip-path="url(#p8281720633)" d="M 370.81475 307.584 
L 373.120795 307.584 
L 373.120795 304.112219 
L 370.81475 304.112219 
z
" style="fill:#0000ff;"/>
   </g>
   <g id="patch_92">
    <path clip-path="url(#p8281720633)" d="M 373.120809 307.584 
L 375.426853 307.584 
L 375.426853 305.269479 
L 373.120809 305.269479 
z
" style="fill:#0000ff;"/>
   </g>
   <g id="patch_93">
    <path clip-path="url(#p8281720633)" d="M 375.42684 307.584 
L 377.732884 307.584 
L 377.732884 304.112219 
L 375.42684 304.112219 
z
" style="fill:#0000ff;"/>
   </g>
   <g id="patch_94">
    <path clip-path="url(#p8281720633)" d="M 377.732898 307.584 
L 380.038943 307.584 
L 380.038943 306.42674 
L 377.732898 306.42674 
z
" style="fill:#0000ff;"/>
   </g>
   <g id="patch_95">
    <path clip-path="url(#p8281720633)" d="M 380.038929 307.584 
L 382.34496 307.584 
L 382.34496 304.112219 
L 380.038929 304.112219 
z
" style="fill:#0000ff;"/>
   </g>
   <g id="patch_96">
    <path clip-path="url(#p8281720633)" d="M 382.34496 307.584 
L 384.651005 307.584 
L 384.651005 302.954959 
L 382.34496 302.954959 
z
" style="fill:#0000ff;"/>
   </g>
   <g id="patch_97">
    <path clip-path="url(#p8281720633)" d="M 384.651018 307.584 
L 386.957063 307.584 
L 386.957063 305.269479 
L 384.651018 305.269479 
z
" style="fill:#0000ff;"/>
   </g>
   <g id="patch_98">
    <path clip-path="url(#p8281720633)" d="M 386.957049 307.584 
L 389.263094 307.584 
L 389.263094 307.584 
L 386.957049 307.584 
z
" style="fill:#0000ff;"/>
   </g>
   <g id="patch_99">
    <path clip-path="url(#p8281720633)" d="M 389.263108 307.584 
L 391.569152 307.584 
L 391.569152 306.42674 
L 389.263108 306.42674 
z
" style="fill:#0000ff;"/>
   </g>
   <g id="patch_100">
    <path clip-path="url(#p8281720633)" d="M 391.569139 307.584 
L 393.87517 307.584 
L 393.87517 305.269479 
L 391.569139 305.269479 
z
" style="fill:#0000ff;"/>
   </g>
   <g id="patch_101">
    <path clip-path="url(#p8281720633)" d="M 393.87517 307.584 
L 396.181214 307.584 
L 396.181214 306.42674 
L 393.87517 306.42674 
z
" style="fill:#0000ff;"/>
   </g>
   <g id="patch_102">
    <path clip-path="url(#p8281720633)" d="M 396.181228 307.584 
L 398.487273 307.584 
L 398.487273 306.42674 
L 396.181228 306.42674 
z
" style="fill:#0000ff;"/>
   </g>
   <g id="patch_103">
    <path clip-path="url(#p8281720633)" d="M 73.832727 307.584 
L 75.415305 307.584 
L 75.415305 306.42674 
L 73.832727 306.42674 
z
" style="fill:#808080;"/>
   </g>
   <g id="patch_104">
    <path clip-path="url(#p8281720633)" d="M 75.415305 307.584 
L 76.997883 307.584 
L 76.997883 307.584 
L 75.415305 307.584 
z
" style="fill:#808080;"/>
   </g>
   <g id="patch_105">
    <path clip-path="url(#p8281720633)" d="M 76.997883 307.584 
L 78.580461 307.584 
L 78.580461 307.584 
L 76.997883 307.584 
z
" style="fill:#808080;"/>
   </g>
   <g id="patch_106">
    <path clip-path="url(#p8281720633)" d="M 78.580461 307.584 
L 80.163038 307.584 
L 80.163038 307.584 
L 78.580461 307.584 
z
" style="fill:#808080;"/>
   </g>
   <g id="patch_107">
    <path clip-path="url(#p8281720633)" d="M 80.163038 307.584 
L 81.745616 307.584 
L 81.745616 306.42674 
L 80.163038 306.42674 
z
" style="fill:#808080;"/>
   </g>
   <g id="patch_108">
    <path clip-path="url(#p8281720633)" d="M 81.745616 307.584 
L 83.328194 307.584 
L 83.328194 307.584 
L 81.745616 307.584 
z
" style="fill:#808080;"/>
   </g>
   <g id="patch_109">
    <path clip-path="url(#p8281720633)" d="M 83.328194 307.584 
L 84.910772 307.584 
L 84.910772 307.584 
L 83.328194 307.584 
z
" style="fill:#808080;"/>
   </g>
   <g id="patch_110">
    <path clip-path="url(#p8281720633)" d="M 84.910772 307.584 
L 86.49335 307.584 
L 86.49335 306.42674 
L 84.910772 306.42674 
z
" style="fill:#808080;"/>
   </g>
   <g id="patch_111">
    <path clip-path="url(#p8281720633)" d="M 86.49335 307.584 
L 88.075927 307.584 
L 88.075927 306.42674 
L 86.49335 306.42674 
z
" style="fill:#808080;"/>
   </g>
   <g id="patch_112">
    <path clip-path="url(#p8281720633)" d="M 88.075927 307.584 
L 89.658505 307.584 
L 89.658505 307.584 
L 88.075927 307.584 
z
" style="fill:#808080;"/>
   </g>
   <g id="patch_113">
    <path clip-path="url(#p8281720633)" d="M 89.658505 307.584 
L 91.241083 307.584 
L 91.241083 307.584 
L 89.658505 307.584 
z
" style="fill:#808080;"/>
   </g>
   <g id="patch_114">
    <path clip-path="url(#p8281720633)" d="M 91.241083 307.584 
L 92.823661 307.584 
L 92.823661 307.584 
L 91.241083 307.584 
z
" style="fill:#808080;"/>
   </g>
   <g id="patch_115">
    <path clip-path="url(#p8281720633)" d="M 92.823661 307.584 
L 94.406239 307.584 
L 94.406239 307.584 
L 92.823661 307.584 
z
" style="fill:#808080;"/>
   </g>
   <g id="patch_116">
    <path clip-path="url(#p8281720633)" d="M 94.406239 307.584 
L 95.988816 307.584 
L 95.988816 307.584 
L 94.406239 307.584 
z
" style="fill:#808080;"/>
   </g>
   <g id="patch_117">
    <path clip-path="url(#p8281720633)" d="M 95.988816 307.584 
L 97.571394 307.584 
L 97.571394 307.584 
L 95.988816 307.584 
z
" style="fill:#808080;"/>
   </g>
   <g id="patch_118">
    <path clip-path="url(#p8281720633)" d="M 97.571394 307.584 
L 99.153972 307.584 
L 99.153972 307.584 
L 97.571394 307.584 
z
" style="fill:#808080;"/>
   </g>
   <g id="patch_119">
    <path clip-path="url(#p8281720633)" d="M 99.153972 307.584 
L 100.73655 307.584 
L 100.73655 307.584 
L 99.153972 307.584 
z
" style="fill:#808080;"/>
   </g>
   <g id="patch_120">
    <path clip-path="url(#p8281720633)" d="M 100.73655 307.584 
L 102.319128 307.584 
L 102.319128 307.584 
L 100.73655 307.584 
z
" style="fill:#808080;"/>
   </g>
   <g id="patch_121">
    <path clip-path="url(#p8281720633)" d="M 102.319128 307.584 
L 103.901705 307.584 
L 103.901705 301.797699 
L 102.319128 301.797699 
z
" style="fill:#808080;"/>
   </g>
   <g id="patch_122">
    <path clip-path="url(#p8281720633)" d="M 103.901705 307.584 
L 105.484283 307.584 
L 105.484283 307.584 
L 103.901705 307.584 
z
" style="fill:#808080;"/>
   </g>
   <g id="patch_123">
    <path clip-path="url(#p8281720633)" d="M 105.484283 307.584 
L 107.066861 307.584 
L 107.066861 305.269479 
L 105.484283 305.269479 
z
" style="fill:#808080;"/>
   </g>
   <g id="patch_124">
    <path clip-path="url(#p8281720633)" d="M 107.066861 307.584 
L 108.649439 307.584 
L 108.649439 306.42674 
L 107.066861 306.42674 
z
" style="fill:#808080;"/>
   </g>
   <g id="patch_125">
    <path clip-path="url(#p8281720633)" d="M 108.649439 307.584 
L 110.232017 307.584 
L 110.232017 307.584 
L 108.649439 307.584 
z
" style="fill:#808080;"/>
   </g>
   <g id="patch_126">
    <path clip-path="url(#p8281720633)" d="M 110.232017 307.584 
L 111.814594 307.584 
L 111.814594 307.584 
L 110.232017 307.584 
z
" style="fill:#808080;"/>
   </g>
   <g id="patch_127">
    <path clip-path="url(#p8281720633)" d="M 111.814594 307.584 
L 113.397172 307.584 
L 113.397172 305.269479 
L 111.814594 305.269479 
z
" style="fill:#808080;"/>
   </g>
   <g id="patch_128">
    <path clip-path="url(#p8281720633)" d="M 113.397172 307.584 
L 114.97975 307.584 
L 114.97975 307.584 
L 113.397172 307.584 
z
" style="fill:#808080;"/>
   </g>
   <g id="patch_129">
    <path clip-path="url(#p8281720633)" d="M 114.97975 307.584 
L 116.562328 307.584 
L 116.562328 284.438795 
L 114.97975 284.438795 
z
" style="fill:#808080;"/>
   </g>
   <g id="patch_130">
    <path clip-path="url(#p8281720633)" d="M 116.562328 307.584 
L 118.144906 307.584 
L 118.144906 307.584 
L 116.562328 307.584 
z
" style="fill:#808080;"/>
   </g>
   <g id="patch_131">
    <path clip-path="url(#p8281720633)" d="M 118.144906 307.584 
L 119.727483 307.584 
L 119.727483 307.584 
L 118.144906 307.584 
z
" style="fill:#808080;"/>
   </g>
   <g id="patch_132">
    <path clip-path="url(#p8281720633)" d="M 119.727483 307.584 
L 121.310061 307.584 
L 121.310061 307.584 
L 119.727483 307.584 
z
" style="fill:#808080;"/>
   </g>
   <g id="patch_133">
    <path clip-path="url(#p8281720633)" d="M 121.310061 307.584 
L 122.892639 307.584 
L 122.892639 307.584 
L 121.310061 307.584 
z
" style="fill:#808080;"/>
   </g>
   <g id="patch_134">
    <path clip-path="url(#p8281720633)" d="M 122.892639 307.584 
L 124.475217 307.584 
L 124.475217 307.584 
L 122.892639 307.584 
z
" style="fill:#808080;"/>
   </g>
   <g id="patch_135">
    <path clip-path="url(#p8281720633)" d="M 124.475217 307.584 
L 126.057795 307.584 
L 126.057795 307.584 
L 124.475217 307.584 
z
" style="fill:#808080;"/>
   </g>
   <g id="patch_136">
    <path clip-path="url(#p8281720633)" d="M 126.057795 307.584 
L 127.640372 307.584 
L 127.640372 307.584 
L 126.057795 307.584 
z
" style="fill:#808080;"/>
   </g>
   <g id="patch_137">
    <path clip-path="url(#p8281720633)" d="M 127.640372 307.584 
L 129.22295 307.584 
L 129.22295 307.584 
L 127.640372 307.584 
z
" style="fill:#808080;"/>
   </g>
   <g id="patch_138">
    <path clip-path="url(#p8281720633)" d="M 129.22295 307.584 
L 130.805528 307.584 
L 130.805528 307.584 
L 129.22295 307.584 
z
" style="fill:#808080;"/>
   </g>
   <g id="patch_139">
    <path clip-path="url(#p8281720633)" d="M 130.805528 307.584 
L 132.388106 307.584 
L 132.388106 307.584 
L 130.805528 307.584 
z
" style="fill:#808080;"/>
   </g>
   <g id="patch_140">
    <path clip-path="url(#p8281720633)" d="M 132.388106 307.584 
L 133.970684 307.584 
L 133.970684 307.584 
L 132.388106 307.584 
z
" style="fill:#808080;"/>
   </g>
   <g id="patch_141">
    <path clip-path="url(#p8281720633)" d="M 133.970684 307.584 
L 135.553261 307.584 
L 135.553261 307.584 
L 133.970684 307.584 
z
" style="fill:#808080;"/>
   </g>
   <g id="patch_142">
    <path clip-path="url(#p8281720633)" d="M 135.553261 307.584 
L 137.135839 307.584 
L 137.135839 307.584 
L 135.553261 307.584 
z
" style="fill:#808080;"/>
   </g>
   <g id="patch_143">
    <path clip-path="url(#p8281720633)" d="M 137.135839 307.584 
L 138.718417 307.584 
L 138.718417 307.584 
L 137.135839 307.584 
z
" style="fill:#808080;"/>
   </g>
   <g id="patch_144">
    <path clip-path="url(#p8281720633)" d="M 138.718417 307.584 
L 140.300995 307.584 
L 140.300995 307.584 
L 138.718417 307.584 
z
" style="fill:#808080;"/>
   </g>
   <g id="patch_145">
    <path clip-path="url(#p8281720633)" d="M 140.300995 307.584 
L 141.883573 307.584 
L 141.883573 307.584 
L 140.300995 307.584 
z
" style="fill:#808080;"/>
   </g>
   <g id="patch_146">
    <path clip-path="url(#p8281720633)" d="M 141.883573 307.584 
L 143.46615 307.584 
L 143.46615 307.584 
L 141.883573 307.584 
z
" style="fill:#808080;"/>
   </g>
   <g id="patch_147">
    <path clip-path="url(#p8281720633)" d="M 143.46615 307.584 
L 145.048728 307.584 
L 145.048728 307.584 
L 143.46615 307.584 
z
" style="fill:#808080;"/>
   </g>
   <g id="patch_148">
    <path clip-path="url(#p8281720633)" d="M 145.048728 307.584 
L 146.631306 307.584 
L 146.631306 307.584 
L 145.048728 307.584 
z
" style="fill:#808080;"/>
   </g>
   <g id="patch_149">
    <path clip-path="url(#p8281720633)" d="M 146.631306 307.584 
L 148.213884 307.584 
L 148.213884 307.584 
L 146.631306 307.584 
z
" style="fill:#808080;"/>
   </g>
   <g id="patch_150">
    <path clip-path="url(#p8281720633)" d="M 148.213884 307.584 
L 149.796462 307.584 
L 149.796462 307.584 
L 148.213884 307.584 
z
" style="fill:#808080;"/>
   </g>
   <g id="patch_151">
    <path clip-path="url(#p8281720633)" d="M 149.796462 307.584 
L 151.379039 307.584 
L 151.379039 307.584 
L 149.796462 307.584 
z
" style="fill:#808080;"/>
   </g>
   <g id="patch_152">
    <path clip-path="url(#p8281720633)" d="M 151.379039 307.584 
L 152.961617 307.584 
L 152.961617 307.584 
L 151.379039 307.584 
z
" style="fill:#808080;"/>
   </g>
   <g id="patch_153">
    <path clip-path="url(#p8281720633)" d="M 152.961617 307.584 
L 154.544195 307.584 
L 154.544195 307.584 
L 152.961617 307.584 
z
" style="fill:#808080;"/>
   </g>
   <g id="patch_154">
    <path clip-path="url(#p8281720633)" d="M 154.544195 307.584 
L 156.126773 307.584 
L 156.126773 307.584 
L 154.544195 307.584 
z
" style="fill:#808080;"/>
   </g>
   <g id="patch_155">
    <path clip-path="url(#p8281720633)" d="M 156.126773 307.584 
L 157.709351 307.584 
L 157.709351 307.584 
L 156.126773 307.584 
z
" style="fill:#808080;"/>
   </g>
   <g id="patch_156">
    <path clip-path="url(#p8281720633)" d="M 157.709351 307.584 
L 159.291929 307.584 
L 159.291929 307.584 
L 157.709351 307.584 
z
" style="fill:#808080;"/>
   </g>
   <g id="patch_157">
    <path clip-path="url(#p8281720633)" d="M 159.291929 307.584 
L 160.874506 307.584 
L 160.874506 307.584 
L 159.291929 307.584 
z
" style="fill:#808080;"/>
   </g>
   <g id="patch_158">
    <path clip-path="url(#p8281720633)" d="M 160.874506 307.584 
L 162.457084 307.584 
L 162.457084 307.584 
L 160.874506 307.584 
z
" style="fill:#808080;"/>
   </g>
   <g id="patch_159">
    <path clip-path="url(#p8281720633)" d="M 162.457084 307.584 
L 164.039662 307.584 
L 164.039662 307.584 
L 162.457084 307.584 
z
" style="fill:#808080;"/>
   </g>
   <g id="patch_160">
    <path clip-path="url(#p8281720633)" d="M 164.039662 307.584 
L 165.62224 307.584 
L 165.62224 307.584 
L 164.039662 307.584 
z
" style="fill:#808080;"/>
   </g>
   <g id="patch_161">
    <path clip-path="url(#p8281720633)" d="M 165.62224 307.584 
L 167.204818 307.584 
L 167.204818 307.584 
L 165.62224 307.584 
z
" style="fill:#808080;"/>
   </g>
   <g id="patch_162">
    <path clip-path="url(#p8281720633)" d="M 167.204818 307.584 
L 168.787395 307.584 
L 168.787395 307.584 
L 167.204818 307.584 
z
" style="fill:#808080;"/>
   </g>
   <g id="patch_163">
    <path clip-path="url(#p8281720633)" d="M 168.787395 307.584 
L 170.369973 307.584 
L 170.369973 307.584 
L 168.787395 307.584 
z
" style="fill:#808080;"/>
   </g>
   <g id="patch_164">
    <path clip-path="url(#p8281720633)" d="M 170.369973 307.584 
L 171.952551 307.584 
L 171.952551 307.584 
L 170.369973 307.584 
z
" style="fill:#808080;"/>
   </g>
   <g id="patch_165">
    <path clip-path="url(#p8281720633)" d="M 171.952551 307.584 
L 173.535129 307.584 
L 173.535129 307.584 
L 171.952551 307.584 
z
" style="fill:#808080;"/>
   </g>
   <g id="patch_166">
    <path clip-path="url(#p8281720633)" d="M 173.535129 307.584 
L 175.117707 307.584 
L 175.117707 307.584 
L 173.535129 307.584 
z
" style="fill:#808080;"/>
   </g>
   <g id="patch_167">
    <path clip-path="url(#p8281720633)" d="M 175.117707 307.584 
L 176.700284 307.584 
L 176.700284 307.584 
L 175.117707 307.584 
z
" style="fill:#808080;"/>
   </g>
   <g id="patch_168">
    <path clip-path="url(#p8281720633)" d="M 176.700284 307.584 
L 178.282862 307.584 
L 178.282862 307.584 
L 176.700284 307.584 
z
" style="fill:#808080;"/>
   </g>
   <g id="patch_169">
    <path clip-path="url(#p8281720633)" d="M 178.282862 307.584 
L 179.86544 307.584 
L 179.86544 307.584 
L 178.282862 307.584 
z
" style="fill:#808080;"/>
   </g>
   <g id="patch_170">
    <path clip-path="url(#p8281720633)" d="M 179.86544 307.584 
L 181.448018 307.584 
L 181.448018 307.584 
L 179.86544 307.584 
z
" style="fill:#808080;"/>
   </g>
   <g id="patch_171">
    <path clip-path="url(#p8281720633)" d="M 181.448018 307.584 
L 183.030596 307.584 
L 183.030596 307.584 
L 181.448018 307.584 
z
" style="fill:#808080;"/>
   </g>
   <g id="patch_172">
    <path clip-path="url(#p8281720633)" d="M 183.030596 307.584 
L 184.613173 307.584 
L 184.613173 307.584 
L 183.030596 307.584 
z
" style="fill:#808080;"/>
   </g>
   <g id="patch_173">
    <path clip-path="url(#p8281720633)" d="M 184.613173 307.584 
L 186.195751 307.584 
L 186.195751 307.584 
L 184.613173 307.584 
z
" style="fill:#808080;"/>
   </g>
   <g id="patch_174">
    <path clip-path="url(#p8281720633)" d="M 186.195751 307.584 
L 187.778329 307.584 
L 187.778329 307.584 
L 186.195751 307.584 
z
" style="fill:#808080;"/>
   </g>
   <g id="patch_175">
    <path clip-path="url(#p8281720633)" d="M 187.778329 307.584 
L 189.360907 307.584 
L 189.360907 307.584 
L 187.778329 307.584 
z
" style="fill:#808080;"/>
   </g>
   <g id="patch_176">
    <path clip-path="url(#p8281720633)" d="M 189.360907 307.584 
L 190.943485 307.584 
L 190.943485 54.144 
L 189.360907 54.144 
z
" style="fill:#808080;"/>
   </g>
   <g id="patch_177">
    <path clip-path="url(#p8281720633)" d="M 190.943485 307.584 
L 192.526062 307.584 
L 192.526062 298.325918 
L 190.943485 298.325918 
z
" style="fill:#808080;"/>
   </g>
   <g id="patch_178">
    <path clip-path="url(#p8281720633)" d="M 192.526062 307.584 
L 194.10864 307.584 
L 194.10864 294.854137 
L 192.526062 294.854137 
z
" style="fill:#808080;"/>
   </g>
   <g id="patch_179">
    <path clip-path="url(#p8281720633)" d="M 194.10864 307.584 
L 195.691218 307.584 
L 195.691218 286.753315 
L 194.10864 286.753315 
z
" style="fill:#808080;"/>
   </g>
   <g id="patch_180">
    <path clip-path="url(#p8281720633)" d="M 195.691218 307.584 
L 197.273796 307.584 
L 197.273796 294.854137 
L 195.691218 294.854137 
z
" style="fill:#808080;"/>
   </g>
   <g id="patch_181">
    <path clip-path="url(#p8281720633)" d="M 197.273796 307.584 
L 198.856374 307.584 
L 198.856374 290.225096 
L 197.273796 290.225096 
z
" style="fill:#808080;"/>
   </g>
   <g id="patch_182">
    <path clip-path="url(#p8281720633)" d="M 198.856374 307.584 
L 200.438951 307.584 
L 200.438951 301.797699 
L 198.856374 301.797699 
z
" style="fill:#808080;"/>
   </g>
   <g id="patch_183">
    <path clip-path="url(#p8281720633)" d="M 200.438951 307.584 
L 202.021529 307.584 
L 202.021529 296.011397 
L 200.438951 296.011397 
z
" style="fill:#808080;"/>
   </g>
   <g id="patch_184">
    <path clip-path="url(#p8281720633)" d="M 202.021529 307.584 
L 203.604107 307.584 
L 203.604107 293.696877 
L 202.021529 293.696877 
z
" style="fill:#808080;"/>
   </g>
   <g id="patch_185">
    <path clip-path="url(#p8281720633)" d="M 203.604107 307.584 
L 205.186685 307.584 
L 205.186685 307.584 
L 203.604107 307.584 
z
" style="fill:#808080;"/>
   </g>
   <g id="patch_186">
    <path clip-path="url(#p8281720633)" d="M 205.186685 307.584 
L 206.769263 307.584 
L 206.769263 307.584 
L 205.186685 307.584 
z
" style="fill:#808080;"/>
   </g>
   <g id="patch_187">
    <path clip-path="url(#p8281720633)" d="M 206.769263 307.584 
L 208.35184 307.584 
L 208.35184 307.584 
L 206.769263 307.584 
z
" style="fill:#808080;"/>
   </g>
   <g id="patch_188">
    <path clip-path="url(#p8281720633)" d="M 208.35184 307.584 
L 209.934418 307.584 
L 209.934418 307.584 
L 208.35184 307.584 
z
" style="fill:#808080;"/>
   </g>
   <g id="patch_189">
    <path clip-path="url(#p8281720633)" d="M 209.934418 307.584 
L 211.516996 307.584 
L 211.516996 307.584 
L 209.934418 307.584 
z
" style="fill:#808080;"/>
   </g>
   <g id="patch_190">
    <path clip-path="url(#p8281720633)" d="M 211.516996 307.584 
L 213.099574 307.584 
L 213.099574 307.584 
L 211.516996 307.584 
z
" style="fill:#808080;"/>
   </g>
   <g id="patch_191">
    <path clip-path="url(#p8281720633)" d="M 213.099574 307.584 
L 214.682152 307.584 
L 214.682152 307.584 
L 213.099574 307.584 
z
" style="fill:#808080;"/>
   </g>
   <g id="patch_192">
    <path clip-path="url(#p8281720633)" d="M 214.682152 307.584 
L 216.264729 307.584 
L 216.264729 307.584 
L 214.682152 307.584 
z
" style="fill:#808080;"/>
   </g>
   <g id="patch_193">
    <path clip-path="url(#p8281720633)" d="M 216.264729 307.584 
L 217.847307 307.584 
L 217.847307 307.584 
L 216.264729 307.584 
z
" style="fill:#808080;"/>
   </g>
   <g id="patch_194">
    <path clip-path="url(#p8281720633)" d="M 217.847307 307.584 
L 219.429885 307.584 
L 219.429885 246.249205 
L 217.847307 246.249205 
z
" style="fill:#808080;"/>
   </g>
   <g id="patch_195">
    <path clip-path="url(#p8281720633)" d="M 219.429885 307.584 
L 221.012463 307.584 
L 221.012463 297.168658 
L 219.429885 297.168658 
z
" style="fill:#808080;"/>
   </g>
   <g id="patch_196">
    <path clip-path="url(#p8281720633)" d="M 221.012463 307.584 
L 222.595041 307.584 
L 222.595041 285.596055 
L 221.012463 285.596055 
z
" style="fill:#808080;"/>
   </g>
   <g id="patch_197">
    <path clip-path="url(#p8281720633)" d="M 222.595041 307.584 
L 224.177618 307.584 
L 224.177618 290.225096 
L 222.595041 290.225096 
z
" style="fill:#808080;"/>
   </g>
   <g id="patch_198">
    <path clip-path="url(#p8281720633)" d="M 224.177618 307.584 
L 225.760196 307.584 
L 225.760196 300.640438 
L 224.177618 300.640438 
z
" style="fill:#808080;"/>
   </g>
   <g id="patch_199">
    <path clip-path="url(#p8281720633)" d="M 225.760196 307.584 
L 227.342774 307.584 
L 227.342774 307.584 
L 225.760196 307.584 
z
" style="fill:#808080;"/>
   </g>
   <g id="patch_200">
    <path clip-path="url(#p8281720633)" d="M 227.342774 307.584 
L 228.925352 307.584 
L 228.925352 305.269479 
L 227.342774 305.269479 
z
" style="fill:#808080;"/>
   </g>
   <g id="patch_201">
    <path clip-path="url(#p8281720633)" d="M 228.925352 307.584 
L 230.50793 307.584 
L 230.50793 305.269479 
L 228.925352 305.269479 
z
" style="fill:#808080;"/>
   </g>
   <g id="patch_202">
    <path clip-path="url(#p8281720633)" d="M 230.50793 307.584 
L 232.090507 307.584 
L 232.090507 306.42674 
L 230.50793 306.42674 
z
" style="fill:#808080;"/>
   </g>
   <g id="matplotlib.axis_1">
    <g id="xtick_1">
     <g id="line2d_1">
      <defs>
       <path d="M 0 0 
L 0 3.5 
" id="m7f76f7947f" style="stroke:#000000;stroke-width:0.8;"/>
      </defs>
      <g>
       <use style="stroke:#000000;stroke-width:0.8;" x="77.450048" xlink:href="#m7f76f7947f" y="307.584"/>
      </g>
     </g>
     <g id="text_1">
      <!-- −100 -->
      <defs>
       <path d="M 10.59375 35.5 
L 73.1875 35.5 
L 73.1875 27.203125 
L 10.59375 27.203125 
z
" id="DejaVuSans-8722"/>
       <path d="M 12.40625 8.296875 
L 28.515625 8.296875 
L 28.515625 63.921875 
L 10.984375 60.40625 
L 10.984375 69.390625 
L 28.421875 72.90625 
L 38.28125 72.90625 
L 38.28125 8.296875 
L 54.390625 8.296875 
L 54.390625 0 
L 12.40625 0 
z
" id="DejaVuSans-49"/>
       <path d="M 31.78125 66.40625 
Q 24.171875 66.40625 20.328125 58.90625 
Q 16.5 51.421875 16.5 36.375 
Q 16.5 21.390625 20.328125 13.890625 
Q 24.171875 6.390625 31.78125 6.390625 
Q 39.453125 6.390625 43.28125 13.890625 
Q 47.125 21.390625 47.125 36.375 
Q 47.125 51.421875 43.28125 58.90625 
Q 39.453125 66.40625 31.78125 66.40625 
z
M 31.78125 74.21875 
Q 44.046875 74.21875 50.515625 64.515625 
Q 56.984375 54.828125 56.984375 36.375 
Q 56.984375 17.96875 50.515625 8.265625 
Q 44.046875 -1.421875 31.78125 -1.421875 
Q 19.53125 -1.421875 13.0625 8.265625 
Q 6.59375 17.96875 6.59375 36.375 
Q 6.59375 54.828125 13.0625 64.515625 
Q 19.53125 74.21875 31.78125 74.21875 
z
" id="DejaVuSans-48"/>
      </defs>
      <g transform="translate(63.716454 322.182437)scale(0.1 -0.1)">
       <use xlink:href="#DejaVuSans-8722"/>
       <use x="83.789062" xlink:href="#DejaVuSans-49"/>
       <use x="147.412109" xlink:href="#DejaVuSans-48"/>
       <use x="211.035156" xlink:href="#DejaVuSans-48"/>
      </g>
     </g>
    </g>
    <g id="xtick_2">
     <g id="line2d_2">
      <g>
       <use style="stroke:#000000;stroke-width:0.8;" x="122.666557" xlink:href="#m7f76f7947f" y="307.584"/>
      </g>
     </g>
     <g id="text_2">
      <!-- −50 -->
      <defs>
       <path d="M 10.796875 72.90625 
L 49.515625 72.90625 
L 49.515625 64.59375 
L 19.828125 64.59375 
L 19.828125 46.734375 
Q 21.96875 47.46875 24.109375 47.828125 
Q 26.265625 48.1875 28.421875 48.1875 
Q 40.625 48.1875 47.75 41.5 
Q 54.890625 34.8125 54.890625 23.390625 
Q 54.890625 11.625 47.5625 5.09375 
Q 40.234375 -1.421875 26.90625 -1.421875 
Q 22.3125 -1.421875 17.546875 -0.640625 
Q 12.796875 0.140625 7.71875 1.703125 
L 7.71875 11.625 
Q 12.109375 9.234375 16.796875 8.0625 
Q 21.484375 6.890625 26.703125 6.890625 
Q 35.15625 6.890625 40.078125 11.328125 
Q 45.015625 15.765625 45.015625 23.390625 
Q 45.015625 31 40.078125 35.4375 
Q 35.15625 39.890625 26.703125 39.890625 
Q 22.75 39.890625 18.8125 39.015625 
Q 14.890625 38.140625 10.796875 36.28125 
z
" id="DejaVuSans-53"/>
      </defs>
      <g transform="translate(112.114213 322.182437)scale(0.1 -0.1)">
       <use xlink:href="#DejaVuSans-8722"/>
       <use x="83.789062" xlink:href="#DejaVuSans-53"/>
       <use x="147.412109" xlink:href="#DejaVuSans-48"/>
      </g>
     </g>
    </g>
    <g id="xtick_3">
     <g id="line2d_3">
      <g>
       <use style="stroke:#000000;stroke-width:0.8;" x="167.883065" xlink:href="#m7f76f7947f" y="307.584"/>
      </g>
     </g>
     <g id="text_3">
      <!-- 0 -->
      <g transform="translate(164.701815 322.182437)scale(0.1 -0.1)">
       <use xlink:href="#DejaVuSans-48"/>
      </g>
     </g>
    </g>
    <g id="xtick_4">
     <g id="line2d_4">
      <g>
       <use style="stroke:#000000;stroke-width:0.8;" x="213.099574" xlink:href="#m7f76f7947f" y="307.584"/>
      </g>
     </g>
     <g id="text_4">
      <!-- 50 -->
      <g transform="translate(206.737074 322.182437)scale(0.1 -0.1)">
       <use xlink:href="#DejaVuSans-53"/>
       <use x="63.623047" xlink:href="#DejaVuSans-48"/>
      </g>
     </g>
    </g>
    <g id="xtick_5">
     <g id="line2d_5">
      <g>
       <use style="stroke:#000000;stroke-width:0.8;" x="258.316082" xlink:href="#m7f76f7947f" y="307.584"/>
      </g>
     </g>
     <g id="text_5">
      <!-- 100 -->
      <g transform="translate(248.772332 322.182437)scale(0.1 -0.1)">
       <use xlink:href="#DejaVuSans-49"/>
       <use x="63.623047" xlink:href="#DejaVuSans-48"/>
       <use x="127.246094" xlink:href="#DejaVuSans-48"/>
      </g>
     </g>
    </g>
    <g id="xtick_6">
     <g id="line2d_6">
      <g>
       <use style="stroke:#000000;stroke-width:0.8;" x="303.532591" xlink:href="#m7f76f7947f" y="307.584"/>
      </g>
     </g>
     <g id="text_6">
      <!-- 150 -->
      <g transform="translate(293.988841 322.182437)scale(0.1 -0.1)">
       <use xlink:href="#DejaVuSans-49"/>
       <use x="63.623047" xlink:href="#DejaVuSans-53"/>
       <use x="127.246094" xlink:href="#DejaVuSans-48"/>
      </g>
     </g>
    </g>
    <g id="xtick_7">
     <g id="line2d_7">
      <g>
       <use style="stroke:#000000;stroke-width:0.8;" x="348.749099" xlink:href="#m7f76f7947f" y="307.584"/>
      </g>
     </g>
     <g id="text_7">
      <!-- 200 -->
      <defs>
       <path d="M 19.1875 8.296875 
L 53.609375 8.296875 
L 53.609375 0 
L 7.328125 0 
L 7.328125 8.296875 
Q 12.9375 14.109375 22.625 23.890625 
Q 32.328125 33.6875 34.8125 36.53125 
Q 39.546875 41.84375 41.421875 45.53125 
Q 43.3125 49.21875 43.3125 52.78125 
Q 43.3125 58.59375 39.234375 62.25 
Q 35.15625 65.921875 28.609375 65.921875 
Q 23.96875 65.921875 18.8125 64.3125 
Q 13.671875 62.703125 7.8125 59.421875 
L 7.8125 69.390625 
Q 13.765625 71.78125 18.9375 73 
Q 24.125 74.21875 28.421875 74.21875 
Q 39.75 74.21875 46.484375 68.546875 
Q 53.21875 62.890625 53.21875 53.421875 
Q 53.21875 48.921875 51.53125 44.890625 
Q 49.859375 40.875 45.40625 35.40625 
Q 44.1875 33.984375 37.640625 27.21875 
Q 31.109375 20.453125 19.1875 8.296875 
z
" id="DejaVuSans-50"/>
      </defs>
      <g transform="translate(339.205349 322.182437)scale(0.1 -0.1)">
       <use xlink:href="#DejaVuSans-50"/>
       <use x="63.623047" xlink:href="#DejaVuSans-48"/>
       <use x="127.246094" xlink:href="#DejaVuSans-48"/>
      </g>
     </g>
    </g>
    <g id="xtick_8">
     <g id="line2d_8">
      <g>
       <use style="stroke:#000000;stroke-width:0.8;" x="393.965608" xlink:href="#m7f76f7947f" y="307.584"/>
      </g>
     </g>
     <g id="text_8">
      <!-- 250 -->
      <g transform="translate(384.421858 322.182437)scale(0.1 -0.1)">
       <use xlink:href="#DejaVuSans-50"/>
       <use x="63.623047" xlink:href="#DejaVuSans-53"/>
       <use x="127.246094" xlink:href="#DejaVuSans-48"/>
      </g>
     </g>
    </g>
    <g id="text_9">
     <!-- Weight -->
     <defs>
      <path d="M 3.328125 72.90625 
L 13.28125 72.90625 
L 28.609375 11.28125 
L 43.890625 72.90625 
L 54.984375 72.90625 
L 70.3125 11.28125 
L 85.59375 72.90625 
L 95.609375 72.90625 
L 77.296875 0 
L 64.890625 0 
L 49.515625 63.28125 
L 33.984375 0 
L 21.578125 0 
z
" id="DejaVuSans-87"/>
      <path d="M 56.203125 29.59375 
L 56.203125 25.203125 
L 14.890625 25.203125 
Q 15.484375 15.921875 20.484375 11.0625 
Q 25.484375 6.203125 34.421875 6.203125 
Q 39.59375 6.203125 44.453125 7.46875 
Q 49.3125 8.734375 54.109375 11.28125 
L 54.109375 2.78125 
Q 49.265625 0.734375 44.1875 -0.34375 
Q 39.109375 -1.421875 33.890625 -1.421875 
Q 20.796875 -1.421875 13.15625 6.1875 
Q 5.515625 13.8125 5.515625 26.8125 
Q 5.515625 40.234375 12.765625 48.109375 
Q 20.015625 56 32.328125 56 
Q 43.359375 56 49.78125 48.890625 
Q 56.203125 41.796875 56.203125 29.59375 
z
M 47.21875 32.234375 
Q 47.125 39.59375 43.09375 43.984375 
Q 39.0625 48.390625 32.421875 48.390625 
Q 24.90625 48.390625 20.390625 44.140625 
Q 15.875 39.890625 15.1875 32.171875 
z
" id="DejaVuSans-101"/>
      <path d="M 9.421875 54.6875 
L 18.40625 54.6875 
L 18.40625 0 
L 9.421875 0 
z
M 9.421875 75.984375 
L 18.40625 75.984375 
L 18.40625 64.59375 
L 9.421875 64.59375 
z
" id="DejaVuSans-105"/>
      <path d="M 45.40625 27.984375 
Q 45.40625 37.75 41.375 43.109375 
Q 37.359375 48.484375 30.078125 48.484375 
Q 22.859375 48.484375 18.828125 43.109375 
Q 14.796875 37.75 14.796875 27.984375 
Q 14.796875 18.265625 18.828125 12.890625 
Q 22.859375 7.515625 30.078125 7.515625 
Q 37.359375 7.515625 41.375 12.890625 
Q 45.40625 18.265625 45.40625 27.984375 
z
M 54.390625 6.78125 
Q 54.390625 -7.171875 48.1875 -13.984375 
Q 42 -20.796875 29.203125 -20.796875 
Q 24.46875 -20.796875 20.265625 -20.09375 
Q 16.0625 -19.390625 12.109375 -17.921875 
L 12.109375 -9.1875 
Q 16.0625 -11.328125 19.921875 -12.34375 
Q 23.78125 -13.375 27.78125 -13.375 
Q 36.625 -13.375 41.015625 -8.765625 
Q 45.40625 -4.15625 45.40625 5.171875 
L 45.40625 9.625 
Q 42.625 4.78125 38.28125 2.390625 
Q 33.9375 0 27.875 0 
Q 17.828125 0 11.671875 7.65625 
Q 5.515625 15.328125 5.515625 27.984375 
Q 5.515625 40.671875 11.671875 48.328125 
Q 17.828125 56 27.875 56 
Q 33.9375 56 38.28125 53.609375 
Q 42.625 51.21875 45.40625 46.390625 
L 45.40625 54.6875 
L 54.390625 54.6875 
z
" id="DejaVuSans-103"/>
      <path d="M 54.890625 33.015625 
L 54.890625 0 
L 45.90625 0 
L 45.90625 32.71875 
Q 45.90625 40.484375 42.875 44.328125 
Q 39.84375 48.1875 33.796875 48.1875 
Q 26.515625 48.1875 22.3125 43.546875 
Q 18.109375 38.921875 18.109375 30.90625 
L 18.109375 0 
L 9.078125 0 
L 9.078125 75.984375 
L 18.109375 75.984375 
L 18.109375 46.1875 
Q 21.34375 51.125 25.703125 53.5625 
Q 30.078125 56 35.796875 56 
Q 45.21875 56 50.046875 50.171875 
Q 54.890625 44.34375 54.890625 33.015625 
z
" id="DejaVuSans-104"/>
      <path d="M 18.3125 70.21875 
L 18.3125 54.6875 
L 36.8125 54.6875 
L 36.8125 47.703125 
L 18.3125 47.703125 
L 18.3125 18.015625 
Q 18.3125 11.328125 20.140625 9.421875 
Q 21.96875 7.515625 27.59375 7.515625 
L 36.8125 7.515625 
L 36.8125 0 
L 27.59375 0 
Q 17.1875 0 13.234375 3.875 
Q 9.28125 7.765625 9.28125 18.015625 
L 9.28125 47.703125 
L 2.6875 47.703125 
L 2.6875 54.6875 
L 9.28125 54.6875 
L 9.28125 70.21875 
z
" id="DejaVuSans-116"/>
     </defs>
     <g transform="translate(218.451406 335.860562)scale(0.1 -0.1)">
      <use xlink:href="#DejaVuSans-87"/>
      <use x="98.798828" xlink:href="#DejaVuSans-101"/>
      <use x="160.322266" xlink:href="#DejaVuSans-105"/>
      <use x="188.105469" xlink:href="#DejaVuSans-103"/>
      <use x="251.582031" xlink:href="#DejaVuSans-104"/>
      <use x="314.960938" xlink:href="#DejaVuSans-116"/>
     </g>
    </g>
   </g>
   <g id="matplotlib.axis_2">
    <g id="ytick_1">
     <g id="line2d_9">
      <defs>
       <path d="M 0 0 
L -3.5 0 
" id="md03861a07c" style="stroke:#000000;stroke-width:0.8;"/>
      </defs>
      <g>
       <use style="stroke:#000000;stroke-width:0.8;" x="57.6" xlink:href="#md03861a07c" y="307.584"/>
      </g>
     </g>
     <g id="text_10">
      <!-- 0 -->
      <g transform="translate(44.2375 311.383219)scale(0.1 -0.1)">
       <use xlink:href="#DejaVuSans-48"/>
      </g>
     </g>
    </g>
    <g id="ytick_2">
     <g id="line2d_10">
      <g>
       <use style="stroke:#000000;stroke-width:0.8;" x="57.6" xlink:href="#md03861a07c" y="249.720986"/>
      </g>
     </g>
     <g id="text_11">
      <!-- 50 -->
      <g transform="translate(37.875 253.520205)scale(0.1 -0.1)">
       <use xlink:href="#DejaVuSans-53"/>
       <use x="63.623047" xlink:href="#DejaVuSans-48"/>
      </g>
     </g>
    </g>
    <g id="ytick_3">
     <g id="line2d_11">
      <g>
       <use style="stroke:#000000;stroke-width:0.8;" x="57.6" xlink:href="#md03861a07c" y="191.857973"/>
      </g>
     </g>
     <g id="text_12">
      <!-- 100 -->
      <g transform="translate(31.5125 195.657191)scale(0.1 -0.1)">
       <use xlink:href="#DejaVuSans-49"/>
       <use x="63.623047" xlink:href="#DejaVuSans-48"/>
       <use x="127.246094" xlink:href="#DejaVuSans-48"/>
      </g>
     </g>
    </g>
    <g id="ytick_4">
     <g id="line2d_12">
      <g>
       <use style="stroke:#000000;stroke-width:0.8;" x="57.6" xlink:href="#md03861a07c" y="133.994959"/>
      </g>
     </g>
     <g id="text_13">
      <!-- 150 -->
      <g transform="translate(31.5125 137.794178)scale(0.1 -0.1)">
       <use xlink:href="#DejaVuSans-49"/>
       <use x="63.623047" xlink:href="#DejaVuSans-53"/>
       <use x="127.246094" xlink:href="#DejaVuSans-48"/>
      </g>
     </g>
    </g>
    <g id="ytick_5">
     <g id="line2d_13">
      <g>
       <use style="stroke:#000000;stroke-width:0.8;" x="57.6" xlink:href="#md03861a07c" y="76.131945"/>
      </g>
     </g>
     <g id="text_14">
      <!-- 200 -->
      <g transform="translate(31.5125 79.931164)scale(0.1 -0.1)">
       <use xlink:href="#DejaVuSans-50"/>
       <use x="63.623047" xlink:href="#DejaVuSans-48"/>
       <use x="127.246094" xlink:href="#DejaVuSans-48"/>
      </g>
     </g>
    </g>
    <g id="text_15">
     <!-- Occurrencies -->
     <defs>
      <path d="M 39.40625 66.21875 
Q 28.65625 66.21875 22.328125 58.203125 
Q 16.015625 50.203125 16.015625 36.375 
Q 16.015625 22.609375 22.328125 14.59375 
Q 28.65625 6.59375 39.40625 6.59375 
Q 50.140625 6.59375 56.421875 14.59375 
Q 62.703125 22.609375 62.703125 36.375 
Q 62.703125 50.203125 56.421875 58.203125 
Q 50.140625 66.21875 39.40625 66.21875 
z
M 39.40625 74.21875 
Q 54.734375 74.21875 63.90625 63.9375 
Q 73.09375 53.65625 73.09375 36.375 
Q 73.09375 19.140625 63.90625 8.859375 
Q 54.734375 -1.421875 39.40625 -1.421875 
Q 24.03125 -1.421875 14.8125 8.828125 
Q 5.609375 19.09375 5.609375 36.375 
Q 5.609375 53.65625 14.8125 63.9375 
Q 24.03125 74.21875 39.40625 74.21875 
z
" id="DejaVuSans-79"/>
      <path d="M 48.78125 52.59375 
L 48.78125 44.1875 
Q 44.96875 46.296875 41.140625 47.34375 
Q 37.3125 48.390625 33.40625 48.390625 
Q 24.65625 48.390625 19.8125 42.84375 
Q 14.984375 37.3125 14.984375 27.296875 
Q 14.984375 17.28125 19.8125 11.734375 
Q 24.65625 6.203125 33.40625 6.203125 
Q 37.3125 6.203125 41.140625 7.25 
Q 44.96875 8.296875 48.78125 10.40625 
L 48.78125 2.09375 
Q 45.015625 0.34375 40.984375 -0.53125 
Q 36.96875 -1.421875 32.421875 -1.421875 
Q 20.0625 -1.421875 12.78125 6.34375 
Q 5.515625 14.109375 5.515625 27.296875 
Q 5.515625 40.671875 12.859375 48.328125 
Q 20.21875 56 33.015625 56 
Q 37.15625 56 41.109375 55.140625 
Q 45.0625 54.296875 48.78125 52.59375 
z
" id="DejaVuSans-99"/>
      <path d="M 8.5 21.578125 
L 8.5 54.6875 
L 17.484375 54.6875 
L 17.484375 21.921875 
Q 17.484375 14.15625 20.5 10.265625 
Q 23.53125 6.390625 29.59375 6.390625 
Q 36.859375 6.390625 41.078125 11.03125 
Q 45.3125 15.671875 45.3125 23.6875 
L 45.3125 54.6875 
L 54.296875 54.6875 
L 54.296875 0 
L 45.3125 0 
L 45.3125 8.40625 
Q 42.046875 3.421875 37.71875 1 
Q 33.40625 -1.421875 27.6875 -1.421875 
Q 18.265625 -1.421875 13.375 4.4375 
Q 8.5 10.296875 8.5 21.578125 
z
M 31.109375 56 
z
" id="DejaVuSans-117"/>
      <path d="M 41.109375 46.296875 
Q 39.59375 47.171875 37.8125 47.578125 
Q 36.03125 48 33.890625 48 
Q 26.265625 48 22.1875 43.046875 
Q 18.109375 38.09375 18.109375 28.8125 
L 18.109375 0 
L 9.078125 0 
L 9.078125 54.6875 
L 18.109375 54.6875 
L 18.109375 46.1875 
Q 20.953125 51.171875 25.484375 53.578125 
Q 30.03125 56 36.53125 56 
Q 37.453125 56 38.578125 55.875 
Q 39.703125 55.765625 41.0625 55.515625 
z
" id="DejaVuSans-114"/>
      <path d="M 54.890625 33.015625 
L 54.890625 0 
L 45.90625 0 
L 45.90625 32.71875 
Q 45.90625 40.484375 42.875 44.328125 
Q 39.84375 48.1875 33.796875 48.1875 
Q 26.515625 48.1875 22.3125 43.546875 
Q 18.109375 38.921875 18.109375 30.90625 
L 18.109375 0 
L 9.078125 0 
L 9.078125 54.6875 
L 18.109375 54.6875 
L 18.109375 46.1875 
Q 21.34375 51.125 25.703125 53.5625 
Q 30.078125 56 35.796875 56 
Q 45.21875 56 50.046875 50.171875 
Q 54.890625 44.34375 54.890625 33.015625 
z
" id="DejaVuSans-110"/>
      <path d="M 44.28125 53.078125 
L 44.28125 44.578125 
Q 40.484375 46.53125 36.375 47.5 
Q 32.28125 48.484375 27.875 48.484375 
Q 21.1875 48.484375 17.84375 46.4375 
Q 14.5 44.390625 14.5 40.28125 
Q 14.5 37.15625 16.890625 35.375 
Q 19.28125 33.59375 26.515625 31.984375 
L 29.59375 31.296875 
Q 39.15625 29.25 43.1875 25.515625 
Q 47.21875 21.78125 47.21875 15.09375 
Q 47.21875 7.46875 41.1875 3.015625 
Q 35.15625 -1.421875 24.609375 -1.421875 
Q 20.21875 -1.421875 15.453125 -0.5625 
Q 10.6875 0.296875 5.421875 2 
L 5.421875 11.28125 
Q 10.40625 8.6875 15.234375 7.390625 
Q 20.0625 6.109375 24.8125 6.109375 
Q 31.15625 6.109375 34.5625 8.28125 
Q 37.984375 10.453125 37.984375 14.40625 
Q 37.984375 18.0625 35.515625 20.015625 
Q 33.0625 21.96875 24.703125 23.78125 
L 21.578125 24.515625 
Q 13.234375 26.265625 9.515625 29.90625 
Q 5.8125 33.546875 5.8125 39.890625 
Q 5.8125 47.609375 11.28125 51.796875 
Q 16.75 56 26.8125 56 
Q 31.78125 56 36.171875 55.265625 
Q 40.578125 54.546875 44.28125 53.078125 
z
" id="DejaVuSans-115"/>
     </defs>
     <g transform="translate(25.432812 207.304563)rotate(-90)scale(0.1 -0.1)">
      <use xlink:href="#DejaVuSans-79"/>
      <use x="78.710938" xlink:href="#DejaVuSans-99"/>
      <use x="133.691406" xlink:href="#DejaVuSans-99"/>
      <use x="188.671875" xlink:href="#DejaVuSans-117"/>
      <use x="252.050781" xlink:href="#DejaVuSans-114"/>
      <use x="293.148438" xlink:href="#DejaVuSans-114"/>
      <use x="334.230469" xlink:href="#DejaVuSans-101"/>
      <use x="395.753906" xlink:href="#DejaVuSans-110"/>
      <use x="459.132812" xlink:href="#DejaVuSans-99"/>
      <use x="514.113281" xlink:href="#DejaVuSans-105"/>
      <use x="541.896484" xlink:href="#DejaVuSans-101"/>
      <use x="603.419922" xlink:href="#DejaVuSans-115"/>
     </g>
    </g>
   </g>
   <g id="patch_203">
    <path d="M 57.6 307.584 
L 57.6 41.472 
" style="fill:none;stroke:#000000;stroke-linecap:square;stroke-linejoin:miter;stroke-width:0.8;"/>
   </g>
   <g id="patch_204">
    <path d="M 414.72 307.584 
L 414.72 41.472 
" style="fill:none;stroke:#000000;stroke-linecap:square;stroke-linejoin:miter;stroke-width:0.8;"/>
   </g>
   <g id="patch_205">
    <path d="M 57.6 307.584 
L 414.72 307.584 
" style="fill:none;stroke:#000000;stroke-linecap:square;stroke-linejoin:miter;stroke-width:0.8;"/>
   </g>
   <g id="patch_206">
    <path d="M 57.6 41.472 
L 414.72 41.472 
" style="fill:none;stroke:#000000;stroke-linecap:square;stroke-linejoin:miter;stroke-width:0.8;"/>
   </g>
   <g id="text_16">
    <!-- Histogram of conv1 -->
    <defs>
     <path d="M 9.8125 72.90625 
L 19.671875 72.90625 
L 19.671875 43.015625 
L 55.515625 43.015625 
L 55.515625 72.90625 
L 65.375 72.90625 
L 65.375 0 
L 55.515625 0 
L 55.515625 34.71875 
L 19.671875 34.71875 
L 19.671875 0 
L 9.8125 0 
z
" id="DejaVuSans-72"/>
     <path d="M 30.609375 48.390625 
Q 23.390625 48.390625 19.1875 42.75 
Q 14.984375 37.109375 14.984375 27.296875 
Q 14.984375 17.484375 19.15625 11.84375 
Q 23.34375 6.203125 30.609375 6.203125 
Q 37.796875 6.203125 41.984375 11.859375 
Q 46.1875 17.53125 46.1875 27.296875 
Q 46.1875 37.015625 41.984375 42.703125 
Q 37.796875 48.390625 30.609375 48.390625 
z
M 30.609375 56 
Q 42.328125 56 49.015625 48.375 
Q 55.71875 40.765625 55.71875 27.296875 
Q 55.71875 13.875 49.015625 6.21875 
Q 42.328125 -1.421875 30.609375 -1.421875 
Q 18.84375 -1.421875 12.171875 6.21875 
Q 5.515625 13.875 5.515625 27.296875 
Q 5.515625 40.765625 12.171875 48.375 
Q 18.84375 56 30.609375 56 
z
" id="DejaVuSans-111"/>
     <path d="M 34.28125 27.484375 
Q 23.390625 27.484375 19.1875 25 
Q 14.984375 22.515625 14.984375 16.5 
Q 14.984375 11.71875 18.140625 8.90625 
Q 21.296875 6.109375 26.703125 6.109375 
Q 34.1875 6.109375 38.703125 11.40625 
Q 43.21875 16.703125 43.21875 25.484375 
L 43.21875 27.484375 
z
M 52.203125 31.203125 
L 52.203125 0 
L 43.21875 0 
L 43.21875 8.296875 
Q 40.140625 3.328125 35.546875 0.953125 
Q 30.953125 -1.421875 24.3125 -1.421875 
Q 15.921875 -1.421875 10.953125 3.296875 
Q 6 8.015625 6 15.921875 
Q 6 25.140625 12.171875 29.828125 
Q 18.359375 34.515625 30.609375 34.515625 
L 43.21875 34.515625 
L 43.21875 35.40625 
Q 43.21875 41.609375 39.140625 45 
Q 35.0625 48.390625 27.6875 48.390625 
Q 23 48.390625 18.546875 47.265625 
Q 14.109375 46.140625 10.015625 43.890625 
L 10.015625 52.203125 
Q 14.9375 54.109375 19.578125 55.046875 
Q 24.21875 56 28.609375 56 
Q 40.484375 56 46.34375 49.84375 
Q 52.203125 43.703125 52.203125 31.203125 
z
" id="DejaVuSans-97"/>
     <path d="M 52 44.1875 
Q 55.375 50.25 60.0625 53.125 
Q 64.75 56 71.09375 56 
Q 79.640625 56 84.28125 50.015625 
Q 88.921875 44.046875 88.921875 33.015625 
L 88.921875 0 
L 79.890625 0 
L 79.890625 32.71875 
Q 79.890625 40.578125 77.09375 44.375 
Q 74.3125 48.1875 68.609375 48.1875 
Q 61.625 48.1875 57.5625 43.546875 
Q 53.515625 38.921875 53.515625 30.90625 
L 53.515625 0 
L 44.484375 0 
L 44.484375 32.71875 
Q 44.484375 40.625 41.703125 44.40625 
Q 38.921875 48.1875 33.109375 48.1875 
Q 26.21875 48.1875 22.15625 43.53125 
Q 18.109375 38.875 18.109375 30.90625 
L 18.109375 0 
L 9.078125 0 
L 9.078125 54.6875 
L 18.109375 54.6875 
L 18.109375 46.1875 
Q 21.1875 51.21875 25.484375 53.609375 
Q 29.78125 56 35.6875 56 
Q 41.65625 56 45.828125 52.96875 
Q 50 49.953125 52 44.1875 
z
" id="DejaVuSans-109"/>
     <path id="DejaVuSans-32"/>
     <path d="M 37.109375 75.984375 
L 37.109375 68.5 
L 28.515625 68.5 
Q 23.6875 68.5 21.796875 66.546875 
Q 19.921875 64.59375 19.921875 59.515625 
L 19.921875 54.6875 
L 34.71875 54.6875 
L 34.71875 47.703125 
L 19.921875 47.703125 
L 19.921875 0 
L 10.890625 0 
L 10.890625 47.703125 
L 2.296875 47.703125 
L 2.296875 54.6875 
L 10.890625 54.6875 
L 10.890625 58.5 
Q 10.890625 67.625 15.140625 71.796875 
Q 19.390625 75.984375 28.609375 75.984375 
z
" id="DejaVuSans-102"/>
     <path d="M 2.984375 54.6875 
L 12.5 54.6875 
L 29.59375 8.796875 
L 46.6875 54.6875 
L 56.203125 54.6875 
L 35.6875 0 
L 23.484375 0 
z
" id="DejaVuSans-118"/>
    </defs>
    <g transform="translate(177.29625 35.472)scale(0.12 -0.12)">
     <use xlink:href="#DejaVuSans-72"/>
     <use x="75.195312" xlink:href="#DejaVuSans-105"/>
     <use x="102.978516" xlink:href="#DejaVuSans-115"/>
     <use x="155.078125" xlink:href="#DejaVuSans-116"/>
     <use x="194.287109" xlink:href="#DejaVuSans-111"/>
     <use x="255.46875" xlink:href="#DejaVuSans-103"/>
     <use x="318.945312" xlink:href="#DejaVuSans-114"/>
     <use x="360.058594" xlink:href="#DejaVuSans-97"/>
     <use x="421.337891" xlink:href="#DejaVuSans-109"/>
     <use x="518.75" xlink:href="#DejaVuSans-32"/>
     <use x="550.537109" xlink:href="#DejaVuSans-111"/>
     <use x="611.71875" xlink:href="#DejaVuSans-102"/>
     <use x="646.923828" xlink:href="#DejaVuSans-32"/>
     <use x="678.710938" xlink:href="#DejaVuSans-99"/>
     <use x="733.691406" xlink:href="#DejaVuSans-111"/>
     <use x="794.873047" xlink:href="#DejaVuSans-110"/>
     <use x="858.251953" xlink:href="#DejaVuSans-118"/>
     <use x="917.431641" xlink:href="#DejaVuSans-49"/>
    </g>
   </g>
   <g id="legend_1">
    <g id="patch_207">
     <path d="M 323.679375 78.82825 
L 407.72 78.82825 
Q 409.72 78.82825 409.72 76.82825 
L 409.72 48.472 
Q 409.72 46.472 407.72 46.472 
L 323.679375 46.472 
Q 321.679375 46.472 321.679375 48.472 
L 321.679375 76.82825 
Q 321.679375 78.82825 323.679375 78.82825 
z
" style="fill:#ffffff;opacity:0.8;stroke:#cccccc;stroke-linejoin:miter;"/>
    </g>
    <g id="patch_208">
     <path d="M 325.679375 58.070437 
L 345.679375 58.070437 
L 345.679375 51.070437 
L 325.679375 51.070437 
z
" style="fill:#0000ff;"/>
    </g>
    <g id="text_17">
     <!-- unmasked -->
     <defs>
      <path d="M 9.078125 75.984375 
L 18.109375 75.984375 
L 18.109375 31.109375 
L 44.921875 54.6875 
L 56.390625 54.6875 
L 27.390625 29.109375 
L 57.625 0 
L 45.90625 0 
L 18.109375 26.703125 
L 18.109375 0 
L 9.078125 0 
z
" id="DejaVuSans-107"/>
      <path d="M 45.40625 46.390625 
L 45.40625 75.984375 
L 54.390625 75.984375 
L 54.390625 0 
L 45.40625 0 
L 45.40625 8.203125 
Q 42.578125 3.328125 38.25 0.953125 
Q 33.9375 -1.421875 27.875 -1.421875 
Q 17.96875 -1.421875 11.734375 6.484375 
Q 5.515625 14.40625 5.515625 27.296875 
Q 5.515625 40.1875 11.734375 48.09375 
Q 17.96875 56 27.875 56 
Q 33.9375 56 38.25 53.625 
Q 42.578125 51.265625 45.40625 46.390625 
z
M 14.796875 27.296875 
Q 14.796875 17.390625 18.875 11.75 
Q 22.953125 6.109375 30.078125 6.109375 
Q 37.203125 6.109375 41.296875 11.75 
Q 45.40625 17.390625 45.40625 27.296875 
Q 45.40625 37.203125 41.296875 42.84375 
Q 37.203125 48.484375 30.078125 48.484375 
Q 22.953125 48.484375 18.875 42.84375 
Q 14.796875 37.203125 14.796875 27.296875 
z
" id="DejaVuSans-100"/>
     </defs>
     <g transform="translate(353.679375 58.070437)scale(0.1 -0.1)">
      <use xlink:href="#DejaVuSans-117"/>
      <use x="63.378906" xlink:href="#DejaVuSans-110"/>
      <use x="126.757812" xlink:href="#DejaVuSans-109"/>
      <use x="224.169922" xlink:href="#DejaVuSans-97"/>
      <use x="285.449219" xlink:href="#DejaVuSans-115"/>
      <use x="337.548828" xlink:href="#DejaVuSans-107"/>
      <use x="395.412109" xlink:href="#DejaVuSans-101"/>
      <use x="456.935547" xlink:href="#DejaVuSans-100"/>
     </g>
    </g>
    <g id="patch_209">
     <path d="M 325.679375 72.748562 
L 345.679375 72.748562 
L 345.679375 65.748562 
L 325.679375 65.748562 
z
" style="fill:#808080;"/>
    </g>
    <g id="text_18">
     <!-- masked -->
     <g transform="translate(353.679375 72.748562)scale(0.1 -0.1)">
      <use xlink:href="#DejaVuSans-109"/>
      <use x="97.412109" xlink:href="#DejaVuSans-97"/>
      <use x="158.691406" xlink:href="#DejaVuSans-115"/>
      <use x="210.791016" xlink:href="#DejaVuSans-107"/>
      <use x="268.654297" xlink:href="#DejaVuSans-101"/>
      <use x="330.177734" xlink:href="#DejaVuSans-100"/>
     </g>
    </g>
   </g>
  </g>
 </g>
 <defs>
  <clipPath id="p8281720633">
   <rect height="266.112" width="357.12" x="57.6" y="41.472"/>
  </clipPath>
 </defs>
</svg>
