<?xml version="1.0" encoding="utf-8" standalone="no"?>
<!DOCTYPE svg PUBLIC "-//W3C//DTD SVG 1.1//EN"
  "http://www.w3.org/Graphics/SVG/1.1/DTD/svg11.dtd">
<!-- Created with matplotlib (https://matplotlib.org/) -->
<svg height="345.6pt" version="1.1" viewBox="0 0 460.8 345.6" width="460.8pt" xmlns="http://www.w3.org/2000/svg" xmlns:xlink="http://www.w3.org/1999/xlink">
 <defs>
  <style type="text/css">
*{stroke-linecap:butt;stroke-linejoin:round;}
  </style>
 </defs>
 <g id="figure_1">
  <g id="patch_1">
   <path d="M 0 345.6 
L 460.8 345.6 
L 460.8 0 
L 0 0 
z
" style="fill:#ffffff;"/>
  </g>
  <g id="axes_1">
   <g id="patch_2">
    <path d="M 57.6 307.584 
L 414.72 307.584 
L 414.72 41.472 
L 57.6 41.472 
z
" style="fill:#ffffff;"/>
   </g>
   <g id="patch_3">
    <path clip-path="url(#p70e47934b8)" d="M 75.541435 307.584 
L 78.770893 307.584 
L 78.770893 302.411755 
L 75.541435 302.411755 
z
" style="fill:#0000ff;"/>
   </g>
   <g id="patch_4">
    <path clip-path="url(#p70e47934b8)" d="M 78.770893 307.584 
L 82.00035 307.584 
L 82.00035 307.584 
L 78.770893 307.584 
z
" style="fill:#0000ff;"/>
   </g>
   <g id="patch_5">
    <path clip-path="url(#p70e47934b8)" d="M 82.00035 307.584 
L 85.229807 307.584 
L 85.229807 307.584 
L 82.00035 307.584 
z
" style="fill:#0000ff;"/>
   </g>
   <g id="patch_6">
    <path clip-path="url(#p70e47934b8)" d="M 85.229807 307.584 
L 88.459265 307.584 
L 88.459265 307.584 
L 85.229807 307.584 
z
" style="fill:#0000ff;"/>
   </g>
   <g id="patch_7">
    <path clip-path="url(#p70e47934b8)" d="M 88.459265 307.584 
L 91.688722 307.584 
L 91.688722 307.584 
L 88.459265 307.584 
z
" style="fill:#0000ff;"/>
   </g>
   <g id="patch_8">
    <path clip-path="url(#p70e47934b8)" d="M 91.688722 307.584 
L 94.918179 307.584 
L 94.918179 302.411755 
L 91.688722 302.411755 
z
" style="fill:#0000ff;"/>
   </g>
   <g id="patch_9">
    <path clip-path="url(#p70e47934b8)" d="M 94.918179 307.584 
L 98.14765 307.584 
L 98.14765 307.584 
L 94.918179 307.584 
z
" style="fill:#0000ff;"/>
   </g>
   <g id="patch_10">
    <path clip-path="url(#p70e47934b8)" d="M 98.14765 307.584 
L 101.377107 307.584 
L 101.377107 307.584 
L 98.14765 307.584 
z
" style="fill:#0000ff;"/>
   </g>
   <g id="patch_11">
    <path clip-path="url(#p70e47934b8)" d="M 101.377107 307.584 
L 104.606564 307.584 
L 104.606564 307.584 
L 101.377107 307.584 
z
" style="fill:#0000ff;"/>
   </g>
   <g id="patch_12">
    <path clip-path="url(#p70e47934b8)" d="M 104.606564 307.584 
L 107.836022 307.584 
L 107.836022 302.411755 
L 104.606564 302.411755 
z
" style="fill:#0000ff;"/>
   </g>
   <g id="patch_13">
    <path clip-path="url(#p70e47934b8)" d="M 107.836022 307.584 
L 111.065479 307.584 
L 111.065479 307.584 
L 107.836022 307.584 
z
" style="fill:#0000ff;"/>
   </g>
   <g id="patch_14">
    <path clip-path="url(#p70e47934b8)" d="M 111.065479 307.584 
L 114.294936 307.584 
L 114.294936 307.584 
L 111.065479 307.584 
z
" style="fill:#0000ff;"/>
   </g>
   <g id="patch_15">
    <path clip-path="url(#p70e47934b8)" d="M 114.294936 307.584 
L 117.524394 307.584 
L 117.524394 302.411755 
L 114.294936 302.411755 
z
" style="fill:#0000ff;"/>
   </g>
   <g id="patch_16">
    <path clip-path="url(#p70e47934b8)" d="M 117.524394 307.584 
L 120.753851 307.584 
L 120.753851 307.584 
L 117.524394 307.584 
z
" style="fill:#0000ff;"/>
   </g>
   <g id="patch_17">
    <path clip-path="url(#p70e47934b8)" d="M 120.753851 307.584 
L 123.983308 307.584 
L 123.983308 307.584 
L 120.753851 307.584 
z
" style="fill:#0000ff;"/>
   </g>
   <g id="patch_18">
    <path clip-path="url(#p70e47934b8)" d="M 123.983308 307.584 
L 127.212766 307.584 
L 127.212766 307.584 
L 123.983308 307.584 
z
" style="fill:#0000ff;"/>
   </g>
   <g id="patch_19">
    <path clip-path="url(#p70e47934b8)" d="M 127.212766 307.584 
L 130.442223 307.584 
L 130.442223 307.584 
L 127.212766 307.584 
z
" style="fill:#0000ff;"/>
   </g>
   <g id="patch_20">
    <path clip-path="url(#p70e47934b8)" d="M 130.442223 307.584 
L 133.67168 307.584 
L 133.67168 307.584 
L 130.442223 307.584 
z
" style="fill:#0000ff;"/>
   </g>
   <g id="patch_21">
    <path clip-path="url(#p70e47934b8)" d="M 133.671667 307.584 
L 136.901138 307.584 
L 136.901138 307.584 
L 133.671667 307.584 
z
" style="fill:#0000ff;"/>
   </g>
   <g id="patch_22">
    <path clip-path="url(#p70e47934b8)" d="M 136.901151 307.584 
L 140.130608 307.584 
L 140.130608 297.23951 
L 136.901151 297.23951 
z
" style="fill:#0000ff;"/>
   </g>
   <g id="patch_23">
    <path clip-path="url(#p70e47934b8)" d="M 140.130608 307.584 
L 143.360065 307.584 
L 143.360065 307.584 
L 140.130608 307.584 
z
" style="fill:#0000ff;"/>
   </g>
   <g id="patch_24">
    <path clip-path="url(#p70e47934b8)" d="M 143.360065 307.584 
L 146.589523 307.584 
L 146.589523 302.411755 
L 143.360065 302.411755 
z
" style="fill:#0000ff;"/>
   </g>
   <g id="patch_25">
    <path clip-path="url(#p70e47934b8)" d="M 146.589523 307.584 
L 149.81898 307.584 
L 149.81898 297.23951 
L 146.589523 297.23951 
z
" style="fill:#0000ff;"/>
   </g>
   <g id="patch_26">
    <path clip-path="url(#p70e47934b8)" d="M 149.81898 307.584 
L 153.048437 307.584 
L 153.048437 302.411755 
L 149.81898 302.411755 
z
" style="fill:#0000ff;"/>
   </g>
   <g id="patch_27">
    <path clip-path="url(#p70e47934b8)" d="M 153.048437 307.584 
L 156.277895 307.584 
L 156.277895 302.411755 
L 153.048437 302.411755 
z
" style="fill:#0000ff;"/>
   </g>
   <g id="patch_28">
    <path clip-path="url(#p70e47934b8)" d="M 156.277895 307.584 
L 159.507352 307.584 
L 159.507352 307.584 
L 156.277895 307.584 
z
" style="fill:#0000ff;"/>
   </g>
   <g id="patch_29">
    <path clip-path="url(#p70e47934b8)" d="M 159.507352 307.584 
L 162.736809 307.584 
L 162.736809 302.411755 
L 159.507352 302.411755 
z
" style="fill:#0000ff;"/>
   </g>
   <g id="patch_30">
    <path clip-path="url(#p70e47934b8)" d="M 162.736809 307.584 
L 165.966267 307.584 
L 165.966267 307.584 
L 162.736809 307.584 
z
" style="fill:#0000ff;"/>
   </g>
   <g id="patch_31">
    <path clip-path="url(#p70e47934b8)" d="M 165.966267 307.584 
L 169.195724 307.584 
L 169.195724 302.411755 
L 165.966267 302.411755 
z
" style="fill:#0000ff;"/>
   </g>
   <g id="patch_32">
    <path clip-path="url(#p70e47934b8)" d="M 169.195724 307.584 
L 172.425181 307.584 
L 172.425181 307.584 
L 169.195724 307.584 
z
" style="fill:#0000ff;"/>
   </g>
   <g id="patch_33">
    <path clip-path="url(#p70e47934b8)" d="M 172.425181 307.584 
L 175.654639 307.584 
L 175.654639 292.067265 
L 172.425181 292.067265 
z
" style="fill:#0000ff;"/>
   </g>
   <g id="patch_34">
    <path clip-path="url(#p70e47934b8)" d="M 175.654639 307.584 
L 178.884109 307.584 
L 178.884109 302.411755 
L 175.654639 302.411755 
z
" style="fill:#0000ff;"/>
   </g>
   <g id="patch_35">
    <path clip-path="url(#p70e47934b8)" d="M 178.884109 307.584 
L 182.113566 307.584 
L 182.113566 297.23951 
L 178.884109 297.23951 
z
" style="fill:#0000ff;"/>
   </g>
   <g id="patch_36">
    <path clip-path="url(#p70e47934b8)" d="M 182.113579 307.584 
L 185.343024 307.584 
L 185.343024 297.23951 
L 182.113579 297.23951 
z
" style="fill:#0000ff;"/>
   </g>
   <g id="patch_37">
    <path clip-path="url(#p70e47934b8)" d="M 185.343017 307.584 
L 188.572488 307.584 
L 188.572488 297.23951 
L 185.343017 297.23951 
z
" style="fill:#0000ff;"/>
   </g>
   <g id="patch_38">
    <path clip-path="url(#p70e47934b8)" d="M 188.572481 307.584 
L 191.801938 307.584 
L 191.801938 292.067265 
L 188.572481 292.067265 
z
" style="fill:#0000ff;"/>
   </g>
   <g id="patch_39">
    <path clip-path="url(#p70e47934b8)" d="M 191.801938 307.584 
L 195.031396 307.584 
L 195.031396 292.067265 
L 191.801938 292.067265 
z
" style="fill:#0000ff;"/>
   </g>
   <g id="patch_40">
    <path clip-path="url(#p70e47934b8)" d="M 195.031396 307.584 
L 198.260853 307.584 
L 198.260853 286.89502 
L 195.031396 286.89502 
z
" style="fill:#0000ff;"/>
   </g>
   <g id="patch_41">
    <path clip-path="url(#p70e47934b8)" d="M 198.260853 307.584 
L 201.49031 307.584 
L 201.49031 286.89502 
L 198.260853 286.89502 
z
" style="fill:#0000ff;"/>
   </g>
   <g id="patch_42">
    <path clip-path="url(#p70e47934b8)" d="M 201.49031 307.584 
L 204.719768 307.584 
L 204.719768 266.206041 
L 201.49031 266.206041 
z
" style="fill:#0000ff;"/>
   </g>
   <g id="patch_43">
    <path clip-path="url(#p70e47934b8)" d="M 204.719761 307.584 
L 207.949232 307.584 
L 207.949232 266.206041 
L 204.719761 266.206041 
z
" style="fill:#0000ff;"/>
   </g>
   <g id="patch_44">
    <path clip-path="url(#p70e47934b8)" d="M 207.949232 307.584 
L 211.178689 307.584 
L 211.178689 271.378286 
L 207.949232 271.378286 
z
" style="fill:#0000ff;"/>
   </g>
   <g id="patch_45">
    <path clip-path="url(#p70e47934b8)" d="M 211.178689 307.584 
L 214.408146 307.584 
L 214.408146 271.378286 
L 211.178689 271.378286 
z
" style="fill:#0000ff;"/>
   </g>
   <g id="patch_46">
    <path clip-path="url(#p70e47934b8)" d="M 214.408146 307.584 
L 217.637604 307.584 
L 217.637604 281.722776 
L 214.408146 281.722776 
z
" style="fill:#0000ff;"/>
   </g>
   <g id="patch_47">
    <path clip-path="url(#p70e47934b8)" d="M 217.637604 307.584 
L 220.867061 307.584 
L 220.867061 240.344816 
L 217.637604 240.344816 
z
" style="fill:#0000ff;"/>
   </g>
   <g id="patch_48">
    <path clip-path="url(#p70e47934b8)" d="M 220.867061 307.584 
L 224.096518 307.584 
L 224.096518 292.067265 
L 220.867061 292.067265 
z
" style="fill:#0000ff;"/>
   </g>
   <g id="patch_49">
    <path clip-path="url(#p70e47934b8)" d="M 224.096518 307.584 
L 227.325989 307.584 
L 227.325989 261.033796 
L 224.096518 261.033796 
z
" style="fill:#0000ff;"/>
   </g>
   <g id="patch_50">
    <path clip-path="url(#p70e47934b8)" d="M 227.325982 307.584 
L 230.555439 307.584 
L 230.555439 240.344816 
L 227.325982 240.344816 
z
" style="fill:#0000ff;"/>
   </g>
   <g id="patch_51">
    <path clip-path="url(#p70e47934b8)" d="M 230.555439 307.584 
L 233.784897 307.584 
L 233.784897 255.861551 
L 230.555439 255.861551 
z
" style="fill:#0000ff;"/>
   </g>
   <g id="patch_52">
    <path clip-path="url(#p70e47934b8)" d="M 233.784897 307.584 
L 237.014354 307.584 
L 237.014354 255.861551 
L 233.784897 255.861551 
z
" style="fill:#0000ff;"/>
   </g>
   <g id="patch_53">
    <path clip-path="url(#p70e47934b8)" d="M 237.014354 307.584 
L 240.243811 307.584 
L 240.243811 255.861551 
L 237.014354 255.861551 
z
" style="fill:#0000ff;"/>
   </g>
   <g id="patch_54">
    <path clip-path="url(#p70e47934b8)" d="M 240.243811 307.584 
L 243.473269 307.584 
L 243.473269 255.861551 
L 240.243811 255.861551 
z
" style="fill:#0000ff;"/>
   </g>
   <g id="patch_55">
    <path clip-path="url(#p70e47934b8)" d="M 243.473272 307.584 
L 246.702729 307.584 
L 246.702729 255.861551 
L 243.473272 255.861551 
z
" style="fill:#0000ff;"/>
   </g>
   <g id="patch_56">
    <path clip-path="url(#p70e47934b8)" d="M 246.702729 307.584 
L 249.932187 307.584 
L 249.932187 235.172571 
L 246.702729 235.172571 
z
" style="fill:#0000ff;"/>
   </g>
   <g id="patch_57">
    <path clip-path="url(#p70e47934b8)" d="M 249.93219 307.584 
L 253.161647 307.584 
L 253.161647 250.689306 
L 249.93219 250.689306 
z
" style="fill:#0000ff;"/>
   </g>
   <g id="patch_58">
    <path clip-path="url(#p70e47934b8)" d="M 253.161647 307.584 
L 256.391105 307.584 
L 256.391105 255.861551 
L 253.161647 255.861551 
z
" style="fill:#0000ff;"/>
   </g>
   <g id="patch_59">
    <path clip-path="url(#p70e47934b8)" d="M 256.391105 307.584 
L 259.620562 307.584 
L 259.620562 224.828082 
L 256.391105 224.828082 
z
" style="fill:#0000ff;"/>
   </g>
   <g id="patch_60">
    <path clip-path="url(#p70e47934b8)" d="M 259.620562 307.584 
L 262.850019 307.584 
L 262.850019 261.033796 
L 259.620562 261.033796 
z
" style="fill:#0000ff;"/>
   </g>
   <g id="patch_61">
    <path clip-path="url(#p70e47934b8)" d="M 262.850022 307.584 
L 266.07948 307.584 
L 266.07948 188.622367 
L 262.850022 188.622367 
z
" style="fill:#0000ff;"/>
   </g>
   <g id="patch_62">
    <path clip-path="url(#p70e47934b8)" d="M 266.07948 307.584 
L 269.308937 307.584 
L 269.308937 188.622367 
L 266.07948 188.622367 
z
" style="fill:#0000ff;"/>
   </g>
   <g id="patch_63">
    <path clip-path="url(#p70e47934b8)" d="M 269.308937 307.584 
L 272.538394 307.584 
L 272.538394 173.105633 
L 269.308937 173.105633 
z
" style="fill:#0000ff;"/>
   </g>
   <g id="patch_64">
    <path clip-path="url(#p70e47934b8)" d="M 272.538398 307.584 
L 275.767855 307.584 
L 275.767855 198.966857 
L 272.538398 198.966857 
z
" style="fill:#0000ff;"/>
   </g>
   <g id="patch_65">
    <path clip-path="url(#p70e47934b8)" d="M 275.767855 307.584 
L 278.997312 307.584 
L 278.997312 162.761143 
L 275.767855 162.761143 
z
" style="fill:#0000ff;"/>
   </g>
   <g id="patch_66">
    <path clip-path="url(#p70e47934b8)" d="M 278.997314 307.584 
L 282.226771 307.584 
L 282.226771 255.861551 
L 278.997314 255.861551 
z
" style="fill:#0000ff;"/>
   </g>
   <g id="patch_67">
    <path clip-path="url(#p70e47934b8)" d="M 282.226771 307.584 
L 285.456229 307.584 
L 285.456229 136.899918 
L 282.226771 136.899918 
z
" style="fill:#0000ff;"/>
   </g>
   <g id="patch_68">
    <path clip-path="url(#p70e47934b8)" d="M 285.45623 307.584 
L 288.685688 307.584 
L 288.685688 167.933388 
L 285.45623 167.933388 
z
" style="fill:#0000ff;"/>
   </g>
   <g id="patch_69">
    <path clip-path="url(#p70e47934b8)" d="M 288.685688 307.584 
L 291.915146 307.584 
L 291.915146 100.694204 
L 288.685688 100.694204 
z
" style="fill:#0000ff;"/>
   </g>
   <g id="patch_70">
    <path clip-path="url(#p70e47934b8)" d="M 291.915147 307.584 
L 295.144604 307.584 
L 295.144604 100.694204 
L 291.915147 100.694204 
z
" style="fill:#0000ff;"/>
   </g>
   <g id="patch_71">
    <path clip-path="url(#p70e47934b8)" d="M 295.144606 307.584 
L 298.374063 307.584 
L 298.374063 142.072163 
L 295.144606 142.072163 
z
" style="fill:#0000ff;"/>
   </g>
   <g id="patch_72">
    <path clip-path="url(#p70e47934b8)" d="M 298.374064 307.584 
L 301.603521 307.584 
L 301.603521 162.761143 
L 298.374064 162.761143 
z
" style="fill:#0000ff;"/>
   </g>
   <g id="patch_73">
    <path clip-path="url(#p70e47934b8)" d="M 301.603522 307.584 
L 304.832979 307.584 
L 304.832979 178.277878 
L 301.603522 178.277878 
z
" style="fill:#0000ff;"/>
   </g>
   <g id="patch_74">
    <path clip-path="url(#p70e47934b8)" d="M 304.832981 307.584 
L 308.062438 307.584 
L 308.062438 142.072163 
L 304.832981 142.072163 
z
" style="fill:#0000ff;"/>
   </g>
   <g id="patch_75">
    <path clip-path="url(#p70e47934b8)" d="M 308.062438 307.584 
L 311.291895 307.584 
L 311.291895 240.344816 
L 308.062438 240.344816 
z
" style="fill:#0000ff;"/>
   </g>
   <g id="patch_76">
    <path clip-path="url(#p70e47934b8)" d="M 311.291897 307.584 
L 314.521354 307.584 
L 314.521354 188.622367 
L 311.291897 188.622367 
z
" style="fill:#0000ff;"/>
   </g>
   <g id="patch_77">
    <path clip-path="url(#p70e47934b8)" d="M 314.521356 307.584 
L 317.750813 307.584 
L 317.750813 157.588898 
L 314.521356 157.588898 
z
" style="fill:#0000ff;"/>
   </g>
   <g id="patch_78">
    <path clip-path="url(#p70e47934b8)" d="M 317.750813 307.584 
L 320.980271 307.584 
L 320.980271 188.622367 
L 317.750813 188.622367 
z
" style="fill:#0000ff;"/>
   </g>
   <g id="patch_79">
    <path clip-path="url(#p70e47934b8)" d="M 320.980271 307.584 
L 324.209728 307.584 
L 324.209728 204.139102 
L 320.980271 204.139102 
z
" style="fill:#0000ff;"/>
   </g>
   <g id="patch_80">
    <path clip-path="url(#p70e47934b8)" d="M 324.209731 307.584 
L 327.439189 307.584 
L 327.439189 188.622367 
L 324.209731 188.622367 
z
" style="fill:#0000ff;"/>
   </g>
   <g id="patch_81">
    <path clip-path="url(#p70e47934b8)" d="M 327.439189 307.584 
L 330.668646 307.584 
L 330.668646 230.000327 
L 327.439189 230.000327 
z
" style="fill:#0000ff;"/>
   </g>
   <g id="patch_82">
    <path clip-path="url(#p70e47934b8)" d="M 330.668649 307.584 
L 333.898107 307.584 
L 333.898107 230.000327 
L 330.668649 230.000327 
z
" style="fill:#0000ff;"/>
   </g>
   <g id="patch_83">
    <path clip-path="url(#p70e47934b8)" d="M 333.898107 307.584 
L 337.127564 307.584 
L 337.127564 261.033796 
L 333.898107 261.033796 
z
" style="fill:#0000ff;"/>
   </g>
   <g id="patch_84">
    <path clip-path="url(#p70e47934b8)" d="M 337.127564 307.584 
L 340.357021 307.584 
L 340.357021 266.206041 
L 337.127564 266.206041 
z
" style="fill:#0000ff;"/>
   </g>
   <g id="patch_85">
    <path clip-path="url(#p70e47934b8)" d="M 340.357021 307.584 
L 343.586479 307.584 
L 343.586479 266.206041 
L 340.357021 266.206041 
z
" style="fill:#0000ff;"/>
   </g>
   <g id="patch_86">
    <path clip-path="url(#p70e47934b8)" d="M 343.586482 307.584 
L 346.815939 307.584 
L 346.815939 250.689306 
L 343.586482 250.689306 
z
" style="fill:#0000ff;"/>
   </g>
   <g id="patch_87">
    <path clip-path="url(#p70e47934b8)" d="M 346.815942 307.584 
L 350.0454 307.584 
L 350.0454 271.378286 
L 346.815942 271.378286 
z
" style="fill:#0000ff;"/>
   </g>
   <g id="patch_88">
    <path clip-path="url(#p70e47934b8)" d="M 350.0454 307.584 
L 353.274857 307.584 
L 353.274857 271.378286 
L 350.0454 271.378286 
z
" style="fill:#0000ff;"/>
   </g>
   <g id="patch_89">
    <path clip-path="url(#p70e47934b8)" d="M 353.274857 307.584 
L 356.504314 307.584 
L 356.504314 271.378286 
L 353.274857 271.378286 
z
" style="fill:#0000ff;"/>
   </g>
   <g id="patch_90">
    <path clip-path="url(#p70e47934b8)" d="M 356.504314 307.584 
L 359.733772 307.584 
L 359.733772 292.067265 
L 356.504314 292.067265 
z
" style="fill:#0000ff;"/>
   </g>
   <g id="patch_91">
    <path clip-path="url(#p70e47934b8)" d="M 359.733772 307.584 
L 362.963229 307.584 
L 362.963229 286.89502 
L 359.733772 286.89502 
z
" style="fill:#0000ff;"/>
   </g>
   <g id="patch_92">
    <path clip-path="url(#p70e47934b8)" d="M 362.963229 307.584 
L 366.192686 307.584 
L 366.192686 302.411755 
L 362.963229 302.411755 
z
" style="fill:#0000ff;"/>
   </g>
   <g id="patch_93">
    <path clip-path="url(#p70e47934b8)" d="M 366.19268 307.584 
L 369.42215 307.584 
L 369.42215 307.584 
L 366.19268 307.584 
z
" style="fill:#0000ff;"/>
   </g>
   <g id="patch_94">
    <path clip-path="url(#p70e47934b8)" d="M 369.42215 307.584 
L 372.651608 307.584 
L 372.651608 307.584 
L 369.42215 307.584 
z
" style="fill:#0000ff;"/>
   </g>
   <g id="patch_95">
    <path clip-path="url(#p70e47934b8)" d="M 372.651608 307.584 
L 375.881065 307.584 
L 375.881065 302.411755 
L 372.651608 302.411755 
z
" style="fill:#0000ff;"/>
   </g>
   <g id="patch_96">
    <path clip-path="url(#p70e47934b8)" d="M 375.881065 307.584 
L 379.110522 307.584 
L 379.110522 292.067265 
L 375.881065 292.067265 
z
" style="fill:#0000ff;"/>
   </g>
   <g id="patch_97">
    <path clip-path="url(#p70e47934b8)" d="M 379.110522 307.584 
L 382.33998 307.584 
L 382.33998 307.584 
L 379.110522 307.584 
z
" style="fill:#0000ff;"/>
   </g>
   <g id="patch_98">
    <path clip-path="url(#p70e47934b8)" d="M 382.33998 307.584 
L 385.569437 307.584 
L 385.569437 307.584 
L 382.33998 307.584 
z
" style="fill:#0000ff;"/>
   </g>
   <g id="patch_99">
    <path clip-path="url(#p70e47934b8)" d="M 385.569437 307.584 
L 388.798907 307.584 
L 388.798907 307.584 
L 385.569437 307.584 
z
" style="fill:#0000ff;"/>
   </g>
   <g id="patch_100">
    <path clip-path="url(#p70e47934b8)" d="M 388.798901 307.584 
L 392.028358 307.584 
L 392.028358 302.411755 
L 388.798901 302.411755 
z
" style="fill:#0000ff;"/>
   </g>
   <g id="patch_101">
    <path clip-path="url(#p70e47934b8)" d="M 392.028358 307.584 
L 395.257815 307.584 
L 395.257815 307.584 
L 392.028358 307.584 
z
" style="fill:#0000ff;"/>
   </g>
   <g id="patch_102">
    <path clip-path="url(#p70e47934b8)" d="M 395.257815 307.584 
L 398.487273 307.584 
L 398.487273 302.411755 
L 395.257815 302.411755 
z
" style="fill:#0000ff;"/>
   </g>
   <g id="patch_103">
    <path clip-path="url(#p70e47934b8)" d="M 73.832727 307.584 
L 76.549567 307.584 
L 76.549567 240.344816 
L 73.832727 240.344816 
z
" style="fill:#808080;"/>
   </g>
   <g id="patch_104">
    <path clip-path="url(#p70e47934b8)" d="M 76.549567 307.584 
L 79.26642 307.584 
L 79.26642 245.517061 
L 76.549567 245.517061 
z
" style="fill:#808080;"/>
   </g>
   <g id="patch_105">
    <path clip-path="url(#p70e47934b8)" d="M 79.26642 307.584 
L 81.983259 307.584 
L 81.983259 281.722776 
L 79.26642 281.722776 
z
" style="fill:#808080;"/>
   </g>
   <g id="patch_106">
    <path clip-path="url(#p70e47934b8)" d="M 81.983272 307.584 
L 84.700125 307.584 
L 84.700125 230.000327 
L 81.983272 230.000327 
z
" style="fill:#808080;"/>
   </g>
   <g id="patch_107">
    <path clip-path="url(#p70e47934b8)" d="M 84.700112 307.584 
L 87.416952 307.584 
L 87.416952 235.172571 
L 84.700112 235.172571 
z
" style="fill:#808080;"/>
   </g>
   <g id="patch_108">
    <path clip-path="url(#p70e47934b8)" d="M 87.416952 307.584 
L 90.133804 307.584 
L 90.133804 209.311347 
L 87.416952 209.311347 
z
" style="fill:#808080;"/>
   </g>
   <g id="patch_109">
    <path clip-path="url(#p70e47934b8)" d="M 90.133804 307.584 
L 92.850644 307.584 
L 92.850644 178.277878 
L 90.133804 178.277878 
z
" style="fill:#808080;"/>
   </g>
   <g id="patch_110">
    <path clip-path="url(#p70e47934b8)" d="M 92.850657 307.584 
L 95.56751 307.584 
L 95.56751 250.689306 
L 92.850657 250.689306 
z
" style="fill:#808080;"/>
   </g>
   <g id="patch_111">
    <path clip-path="url(#p70e47934b8)" d="M 95.567497 307.584 
L 98.284336 307.584 
L 98.284336 214.483592 
L 95.567497 214.483592 
z
" style="fill:#808080;"/>
   </g>
   <g id="patch_112">
    <path clip-path="url(#p70e47934b8)" d="M 98.284336 307.584 
L 101.001189 307.584 
L 101.001189 219.655837 
L 98.284336 219.655837 
z
" style="fill:#808080;"/>
   </g>
   <g id="patch_113">
    <path clip-path="url(#p70e47934b8)" d="M 101.001189 307.584 
L 103.718029 307.584 
L 103.718029 178.277878 
L 101.001189 178.277878 
z
" style="fill:#808080;"/>
   </g>
   <g id="patch_114">
    <path clip-path="url(#p70e47934b8)" d="M 103.718042 307.584 
L 106.434895 307.584 
L 106.434895 116.210939 
L 103.718042 116.210939 
z
" style="fill:#808080;"/>
   </g>
   <g id="patch_115">
    <path clip-path="url(#p70e47934b8)" d="M 106.434882 307.584 
L 109.151721 307.584 
L 109.151721 230.000327 
L 106.434882 230.000327 
z
" style="fill:#808080;"/>
   </g>
   <g id="patch_116">
    <path clip-path="url(#p70e47934b8)" d="M 109.151721 307.584 
L 111.868574 307.584 
L 111.868574 131.727673 
L 109.151721 131.727673 
z
" style="fill:#808080;"/>
   </g>
   <g id="patch_117">
    <path clip-path="url(#p70e47934b8)" d="M 111.868574 307.584 
L 114.585414 307.584 
L 114.585414 183.450122 
L 111.868574 183.450122 
z
" style="fill:#808080;"/>
   </g>
   <g id="patch_118">
    <path clip-path="url(#p70e47934b8)" d="M 114.585427 307.584 
L 117.302279 307.584 
L 117.302279 162.761143 
L 114.585427 162.761143 
z
" style="fill:#808080;"/>
   </g>
   <g id="patch_119">
    <path clip-path="url(#p70e47934b8)" d="M 117.302266 307.584 
L 120.019106 307.584 
L 120.019106 54.144 
L 117.302266 54.144 
z
" style="fill:#808080;"/>
   </g>
   <g id="patch_120">
    <path clip-path="url(#p70e47934b8)" d="M 120.019106 307.584 
L 122.735959 307.584 
L 122.735959 209.311347 
L 120.019106 209.311347 
z
" style="fill:#808080;"/>
   </g>
   <g id="patch_121">
    <path clip-path="url(#p70e47934b8)" d="M 122.735959 307.584 
L 125.452798 307.584 
L 125.452798 95.521959 
L 122.735959 95.521959 
z
" style="fill:#808080;"/>
   </g>
   <g id="patch_122">
    <path clip-path="url(#p70e47934b8)" d="M 125.452811 307.584 
L 128.169664 307.584 
L 128.169664 152.416653 
L 125.452811 152.416653 
z
" style="fill:#808080;"/>
   </g>
   <g id="patch_123">
    <path clip-path="url(#p70e47934b8)" d="M 128.169651 307.584 
L 130.886491 307.584 
L 130.886491 307.584 
L 128.169651 307.584 
z
" style="fill:#808080;"/>
   </g>
   <g id="patch_124">
    <path clip-path="url(#p70e47934b8)" d="M 130.886491 307.584 
L 133.603344 307.584 
L 133.603344 307.584 
L 130.886491 307.584 
z
" style="fill:#808080;"/>
   </g>
   <g id="patch_125">
    <path clip-path="url(#p70e47934b8)" d="M 133.603344 307.584 
L 136.320183 307.584 
L 136.320183 307.584 
L 133.603344 307.584 
z
" style="fill:#808080;"/>
   </g>
   <g id="patch_126">
    <path clip-path="url(#p70e47934b8)" d="M 136.320196 307.584 
L 139.037049 307.584 
L 139.037049 307.584 
L 136.320196 307.584 
z
" style="fill:#808080;"/>
   </g>
   <g id="patch_127">
    <path clip-path="url(#p70e47934b8)" d="M 139.037036 307.584 
L 141.753876 307.584 
L 141.753876 307.584 
L 139.037036 307.584 
z
" style="fill:#808080;"/>
   </g>
   <g id="patch_128">
    <path clip-path="url(#p70e47934b8)" d="M 141.753876 307.584 
L 144.470715 307.584 
L 144.470715 307.584 
L 141.753876 307.584 
z
" style="fill:#808080;"/>
   </g>
   <g id="patch_129">
    <path clip-path="url(#p70e47934b8)" d="M 144.470715 307.584 
L 147.187568 307.584 
L 147.187568 307.584 
L 144.470715 307.584 
z
" style="fill:#808080;"/>
   </g>
   <g id="patch_130">
    <path clip-path="url(#p70e47934b8)" d="M 147.187568 307.584 
L 149.904408 307.584 
L 149.904408 307.584 
L 147.187568 307.584 
z
" style="fill:#808080;"/>
   </g>
   <g id="patch_131">
    <path clip-path="url(#p70e47934b8)" d="M 149.904421 307.584 
L 152.621273 307.584 
L 152.621273 307.584 
L 149.904421 307.584 
z
" style="fill:#808080;"/>
   </g>
   <g id="patch_132">
    <path clip-path="url(#p70e47934b8)" d="M 152.62126 307.584 
L 155.3381 307.584 
L 155.3381 307.584 
L 152.62126 307.584 
z
" style="fill:#808080;"/>
   </g>
   <g id="patch_133">
    <path clip-path="url(#p70e47934b8)" d="M 155.3381 307.584 
L 158.054953 307.584 
L 158.054953 307.584 
L 155.3381 307.584 
z
" style="fill:#808080;"/>
   </g>
   <g id="patch_134">
    <path clip-path="url(#p70e47934b8)" d="M 158.054953 307.584 
L 160.771792 307.584 
L 160.771792 307.584 
L 158.054953 307.584 
z
" style="fill:#808080;"/>
   </g>
   <g id="patch_135">
    <path clip-path="url(#p70e47934b8)" d="M 160.771805 307.584 
L 163.488658 307.584 
L 163.488658 307.584 
L 160.771805 307.584 
z
" style="fill:#808080;"/>
   </g>
   <g id="patch_136">
    <path clip-path="url(#p70e47934b8)" d="M 163.488645 307.584 
L 166.205485 307.584 
L 166.205485 307.584 
L 163.488645 307.584 
z
" style="fill:#808080;"/>
   </g>
   <g id="patch_137">
    <path clip-path="url(#p70e47934b8)" d="M 166.205485 307.584 
L 168.922338 307.584 
L 168.922338 307.584 
L 166.205485 307.584 
z
" style="fill:#808080;"/>
   </g>
   <g id="patch_138">
    <path clip-path="url(#p70e47934b8)" d="M 168.922338 307.584 
L 171.639177 307.584 
L 171.639177 307.584 
L 168.922338 307.584 
z
" style="fill:#808080;"/>
   </g>
   <g id="patch_139">
    <path clip-path="url(#p70e47934b8)" d="M 171.63919 307.584 
L 174.356043 307.584 
L 174.356043 307.584 
L 171.63919 307.584 
z
" style="fill:#808080;"/>
   </g>
   <g id="patch_140">
    <path clip-path="url(#p70e47934b8)" d="M 174.35603 307.584 
L 177.07287 307.584 
L 177.07287 307.584 
L 174.35603 307.584 
z
" style="fill:#808080;"/>
   </g>
   <g id="patch_141">
    <path clip-path="url(#p70e47934b8)" d="M 177.07287 307.584 
L 179.789722 307.584 
L 179.789722 307.584 
L 177.07287 307.584 
z
" style="fill:#808080;"/>
   </g>
   <g id="patch_142">
    <path clip-path="url(#p70e47934b8)" d="M 179.789722 307.584 
L 182.506562 307.584 
L 182.506562 307.584 
L 179.789722 307.584 
z
" style="fill:#808080;"/>
   </g>
   <g id="patch_143">
    <path clip-path="url(#p70e47934b8)" d="M 182.506562 307.584 
L 185.223402 307.584 
L 185.223402 307.584 
L 182.506562 307.584 
z
" style="fill:#808080;"/>
   </g>
   <g id="patch_144">
    <path clip-path="url(#p70e47934b8)" d="M 185.223415 307.584 
L 187.940254 307.584 
L 187.940254 307.584 
L 185.223415 307.584 
z
" style="fill:#808080;"/>
   </g>
   <g id="patch_145">
    <path clip-path="url(#p70e47934b8)" d="M 187.940254 307.584 
L 190.657094 307.584 
L 190.657094 307.584 
L 187.940254 307.584 
z
" style="fill:#808080;"/>
   </g>
   <g id="patch_146">
    <path clip-path="url(#p70e47934b8)" d="M 190.657107 307.584 
L 193.373947 307.584 
L 193.373947 307.584 
L 190.657107 307.584 
z
" style="fill:#808080;"/>
   </g>
   <g id="patch_147">
    <path clip-path="url(#p70e47934b8)" d="M 193.373947 307.584 
L 196.090786 307.584 
L 196.090786 307.584 
L 193.373947 307.584 
z
" style="fill:#808080;"/>
   </g>
   <g id="patch_148">
    <path clip-path="url(#p70e47934b8)" d="M 196.090799 307.584 
L 198.807639 307.584 
L 198.807639 307.584 
L 196.090799 307.584 
z
" style="fill:#808080;"/>
   </g>
   <g id="patch_149">
    <path clip-path="url(#p70e47934b8)" d="M 198.807639 307.584 
L 201.524479 307.584 
L 201.524479 307.584 
L 198.807639 307.584 
z
" style="fill:#808080;"/>
   </g>
   <g id="patch_150">
    <path clip-path="url(#p70e47934b8)" d="M 201.524492 307.584 
L 204.241332 307.584 
L 204.241332 307.584 
L 201.524492 307.584 
z
" style="fill:#808080;"/>
   </g>
   <g id="patch_151">
    <path clip-path="url(#p70e47934b8)" d="M 204.241332 307.584 
L 206.958171 307.584 
L 206.958171 307.584 
L 204.241332 307.584 
z
" style="fill:#808080;"/>
   </g>
   <g id="patch_152">
    <path clip-path="url(#p70e47934b8)" d="M 206.958184 307.584 
L 209.675024 307.584 
L 209.675024 307.584 
L 206.958184 307.584 
z
" style="fill:#808080;"/>
   </g>
   <g id="patch_153">
    <path clip-path="url(#p70e47934b8)" d="M 209.675024 307.584 
L 212.391864 307.584 
L 212.391864 307.584 
L 209.675024 307.584 
z
" style="fill:#808080;"/>
   </g>
   <g id="patch_154">
    <path clip-path="url(#p70e47934b8)" d="M 212.391877 307.584 
L 215.108716 307.584 
L 215.108716 307.584 
L 212.391877 307.584 
z
" style="fill:#808080;"/>
   </g>
   <g id="patch_155">
    <path clip-path="url(#p70e47934b8)" d="M 215.108716 307.584 
L 217.825556 307.584 
L 217.825556 307.584 
L 215.108716 307.584 
z
" style="fill:#808080;"/>
   </g>
   <g id="patch_156">
    <path clip-path="url(#p70e47934b8)" d="M 217.825569 307.584 
L 220.542409 307.584 
L 220.542409 307.584 
L 217.825569 307.584 
z
" style="fill:#808080;"/>
   </g>
   <g id="patch_157">
    <path clip-path="url(#p70e47934b8)" d="M 220.542409 307.584 
L 223.259248 307.584 
L 223.259248 307.584 
L 220.542409 307.584 
z
" style="fill:#808080;"/>
   </g>
   <g id="patch_158">
    <path clip-path="url(#p70e47934b8)" d="M 223.259261 307.584 
L 225.976101 307.584 
L 225.976101 307.584 
L 223.259261 307.584 
z
" style="fill:#808080;"/>
   </g>
   <g id="patch_159">
    <path clip-path="url(#p70e47934b8)" d="M 225.976101 307.584 
L 228.692941 307.584 
L 228.692941 307.584 
L 225.976101 307.584 
z
" style="fill:#808080;"/>
   </g>
   <g id="patch_160">
    <path clip-path="url(#p70e47934b8)" d="M 228.692954 307.584 
L 231.409793 307.584 
L 231.409793 307.584 
L 228.692954 307.584 
z
" style="fill:#808080;"/>
   </g>
   <g id="patch_161">
    <path clip-path="url(#p70e47934b8)" d="M 231.409793 307.584 
L 234.126633 307.584 
L 234.126633 307.584 
L 231.409793 307.584 
z
" style="fill:#808080;"/>
   </g>
   <g id="patch_162">
    <path clip-path="url(#p70e47934b8)" d="M 234.126646 307.584 
L 236.843486 307.584 
L 236.843486 307.584 
L 234.126646 307.584 
z
" style="fill:#808080;"/>
   </g>
   <g id="patch_163">
    <path clip-path="url(#p70e47934b8)" d="M 236.843486 307.584 
L 239.560326 307.584 
L 239.560326 307.584 
L 236.843486 307.584 
z
" style="fill:#808080;"/>
   </g>
   <g id="patch_164">
    <path clip-path="url(#p70e47934b8)" d="M 239.560332 307.584 
L 242.277172 307.584 
L 242.277172 307.584 
L 239.560332 307.584 
z
" style="fill:#808080;"/>
   </g>
   <g id="patch_165">
    <path clip-path="url(#p70e47934b8)" d="M 242.277178 307.584 
L 244.994018 307.584 
L 244.994018 307.584 
L 242.277178 307.584 
z
" style="fill:#808080;"/>
   </g>
   <g id="patch_166">
    <path clip-path="url(#p70e47934b8)" d="M 244.994024 307.584 
L 247.710864 307.584 
L 247.710864 307.584 
L 244.994024 307.584 
z
" style="fill:#808080;"/>
   </g>
   <g id="patch_167">
    <path clip-path="url(#p70e47934b8)" d="M 247.710871 307.584 
L 250.42771 307.584 
L 250.42771 307.584 
L 247.710871 307.584 
z
" style="fill:#808080;"/>
   </g>
   <g id="patch_168">
    <path clip-path="url(#p70e47934b8)" d="M 250.427717 307.584 
L 253.144557 307.584 
L 253.144557 307.584 
L 250.427717 307.584 
z
" style="fill:#808080;"/>
   </g>
   <g id="patch_169">
    <path clip-path="url(#p70e47934b8)" d="M 253.144563 307.584 
L 255.861403 307.584 
L 255.861403 307.584 
L 253.144563 307.584 
z
" style="fill:#808080;"/>
   </g>
   <g id="patch_170">
    <path clip-path="url(#p70e47934b8)" d="M 255.861409 307.584 
L 258.578249 307.584 
L 258.578249 307.584 
L 255.861409 307.584 
z
" style="fill:#808080;"/>
   </g>
   <g id="patch_171">
    <path clip-path="url(#p70e47934b8)" d="M 258.578255 307.584 
L 261.295095 307.584 
L 261.295095 307.584 
L 258.578255 307.584 
z
" style="fill:#808080;"/>
   </g>
   <g id="patch_172">
    <path clip-path="url(#p70e47934b8)" d="M 261.295098 307.584 
L 264.011938 307.584 
L 264.011938 307.584 
L 261.295098 307.584 
z
" style="fill:#808080;"/>
   </g>
   <g id="patch_173">
    <path clip-path="url(#p70e47934b8)" d="M 264.011938 307.584 
L 266.728791 307.584 
L 266.728791 307.584 
L 264.011938 307.584 
z
" style="fill:#808080;"/>
   </g>
   <g id="patch_174">
    <path clip-path="url(#p70e47934b8)" d="M 266.728791 307.584 
L 269.44563 307.584 
L 269.44563 307.584 
L 266.728791 307.584 
z
" style="fill:#808080;"/>
   </g>
   <g id="patch_175">
    <path clip-path="url(#p70e47934b8)" d="M 269.445637 307.584 
L 272.162477 307.584 
L 272.162477 307.584 
L 269.445637 307.584 
z
" style="fill:#808080;"/>
   </g>
   <g id="patch_176">
    <path clip-path="url(#p70e47934b8)" d="M 272.162483 307.584 
L 274.879323 307.584 
L 274.879323 307.584 
L 272.162483 307.584 
z
" style="fill:#808080;"/>
   </g>
   <g id="patch_177">
    <path clip-path="url(#p70e47934b8)" d="M 274.879329 307.584 
L 277.596169 307.584 
L 277.596169 307.584 
L 274.879329 307.584 
z
" style="fill:#808080;"/>
   </g>
   <g id="patch_178">
    <path clip-path="url(#p70e47934b8)" d="M 277.596176 307.584 
L 280.313015 307.584 
L 280.313015 307.584 
L 277.596176 307.584 
z
" style="fill:#808080;"/>
   </g>
   <g id="patch_179">
    <path clip-path="url(#p70e47934b8)" d="M 280.313022 307.584 
L 283.029861 307.584 
L 283.029861 307.584 
L 280.313022 307.584 
z
" style="fill:#808080;"/>
   </g>
   <g id="patch_180">
    <path clip-path="url(#p70e47934b8)" d="M 283.029867 307.584 
L 285.746707 307.584 
L 285.746707 307.584 
L 283.029867 307.584 
z
" style="fill:#808080;"/>
   </g>
   <g id="patch_181">
    <path clip-path="url(#p70e47934b8)" d="M 285.746713 307.584 
L 288.463553 307.584 
L 288.463553 307.584 
L 285.746713 307.584 
z
" style="fill:#808080;"/>
   </g>
   <g id="patch_182">
    <path clip-path="url(#p70e47934b8)" d="M 288.463559 307.584 
L 291.180399 307.584 
L 291.180399 307.584 
L 288.463559 307.584 
z
" style="fill:#808080;"/>
   </g>
   <g id="patch_183">
    <path clip-path="url(#p70e47934b8)" d="M 291.180405 307.584 
L 293.897245 307.584 
L 293.897245 204.139102 
L 291.180405 204.139102 
z
" style="fill:#808080;"/>
   </g>
   <g id="patch_184">
    <path clip-path="url(#p70e47934b8)" d="M 293.897251 307.584 
L 296.614091 307.584 
L 296.614091 105.866449 
L 293.897251 105.866449 
z
" style="fill:#808080;"/>
   </g>
   <g id="patch_185">
    <path clip-path="url(#p70e47934b8)" d="M 296.614097 307.584 
L 299.330937 307.584 
L 299.330937 167.933388 
L 296.614097 167.933388 
z
" style="fill:#808080;"/>
   </g>
   <g id="patch_186">
    <path clip-path="url(#p70e47934b8)" d="M 299.330943 307.584 
L 302.047782 307.584 
L 302.047782 126.555429 
L 299.330943 126.555429 
z
" style="fill:#808080;"/>
   </g>
   <g id="patch_187">
    <path clip-path="url(#p70e47934b8)" d="M 302.047789 307.584 
L 304.764628 307.584 
L 304.764628 162.761143 
L 302.047789 162.761143 
z
" style="fill:#808080;"/>
   </g>
   <g id="patch_188">
    <path clip-path="url(#p70e47934b8)" d="M 304.764634 307.584 
L 307.481474 307.584 
L 307.481474 214.483592 
L 304.764634 214.483592 
z
" style="fill:#808080;"/>
   </g>
   <g id="patch_189">
    <path clip-path="url(#p70e47934b8)" d="M 307.48148 307.584 
L 310.19832 307.584 
L 310.19832 147.244408 
L 307.48148 147.244408 
z
" style="fill:#808080;"/>
   </g>
   <g id="patch_190">
    <path clip-path="url(#p70e47934b8)" d="M 310.198327 307.584 
L 312.915166 307.584 
L 312.915166 250.689306 
L 310.198327 250.689306 
z
" style="fill:#808080;"/>
   </g>
   <g id="patch_191">
    <path clip-path="url(#p70e47934b8)" d="M 312.915173 307.584 
L 315.632012 307.584 
L 315.632012 152.416653 
L 312.915173 152.416653 
z
" style="fill:#808080;"/>
   </g>
   <g id="patch_192">
    <path clip-path="url(#p70e47934b8)" d="M 315.632019 307.584 
L 318.348859 307.584 
L 318.348859 173.105633 
L 315.632019 173.105633 
z
" style="fill:#808080;"/>
   </g>
   <g id="patch_193">
    <path clip-path="url(#p70e47934b8)" d="M 318.348865 307.584 
L 321.065705 307.584 
L 321.065705 255.861551 
L 318.348865 255.861551 
z
" style="fill:#808080;"/>
   </g>
   <g id="patch_194">
    <path clip-path="url(#p70e47934b8)" d="M 321.065711 307.584 
L 323.782551 307.584 
L 323.782551 188.622367 
L 321.065711 188.622367 
z
" style="fill:#808080;"/>
   </g>
   <g id="patch_195">
    <path clip-path="url(#p70e47934b8)" d="M 323.782558 307.584 
L 326.499397 307.584 
L 326.499397 230.000327 
L 323.782558 230.000327 
z
" style="fill:#808080;"/>
   </g>
   <g id="patch_196">
    <path clip-path="url(#p70e47934b8)" d="M 326.499404 307.584 
L 329.216243 307.584 
L 329.216243 219.655837 
L 326.499404 219.655837 
z
" style="fill:#808080;"/>
   </g>
   <g id="patch_197">
    <path clip-path="url(#p70e47934b8)" d="M 329.216247 307.584 
L 331.933086 307.584 
L 331.933086 230.000327 
L 329.216247 230.000327 
z
" style="fill:#808080;"/>
   </g>
   <g id="patch_198">
    <path clip-path="url(#p70e47934b8)" d="M 331.933093 307.584 
L 334.649933 307.584 
L 334.649933 276.550531 
L 331.933093 276.550531 
z
" style="fill:#808080;"/>
   </g>
   <g id="patch_199">
    <path clip-path="url(#p70e47934b8)" d="M 334.649939 307.584 
L 337.366779 307.584 
L 337.366779 255.861551 
L 334.649939 255.861551 
z
" style="fill:#808080;"/>
   </g>
   <g id="patch_200">
    <path clip-path="url(#p70e47934b8)" d="M 337.366785 307.584 
L 340.083625 307.584 
L 340.083625 266.206041 
L 337.366785 266.206041 
z
" style="fill:#808080;"/>
   </g>
   <g id="patch_201">
    <path clip-path="url(#p70e47934b8)" d="M 340.083631 307.584 
L 342.800471 307.584 
L 342.800471 266.206041 
L 340.083631 266.206041 
z
" style="fill:#808080;"/>
   </g>
   <g id="patch_202">
    <path clip-path="url(#p70e47934b8)" d="M 342.800478 307.584 
L 345.517317 307.584 
L 345.517317 245.517061 
L 342.800478 245.517061 
z
" style="fill:#808080;"/>
   </g>
   <g id="matplotlib.axis_1">
    <g id="xtick_1">
     <g id="line2d_1">
      <defs>
       <path d="M 0 0 
L 0 3.5 
" id="mc5ecfd7428" style="stroke:#000000;stroke-width:0.8;"/>
      </defs>
      <g>
       <use style="stroke:#000000;stroke-width:0.8;" x="78.958852" xlink:href="#mc5ecfd7428" y="307.584"/>
      </g>
     </g>
     <g id="text_1">
      <!-- −125 -->
      <defs>
       <path d="M 10.59375 35.5 
L 73.1875 35.5 
L 73.1875 27.203125 
L 10.59375 27.203125 
z
" id="DejaVuSans-8722"/>
       <path d="M 12.40625 8.296875 
L 28.515625 8.296875 
L 28.515625 63.921875 
L 10.984375 60.40625 
L 10.984375 69.390625 
L 28.421875 72.90625 
L 38.28125 72.90625 
L 38.28125 8.296875 
L 54.390625 8.296875 
L 54.390625 0 
L 12.40625 0 
z
" id="DejaVuSans-49"/>
       <path d="M 19.1875 8.296875 
L 53.609375 8.296875 
L 53.609375 0 
L 7.328125 0 
L 7.328125 8.296875 
Q 12.9375 14.109375 22.625 23.890625 
Q 32.328125 33.6875 34.8125 36.53125 
Q 39.546875 41.84375 41.421875 45.53125 
Q 43.3125 49.21875 43.3125 52.78125 
Q 43.3125 58.59375 39.234375 62.25 
Q 35.15625 65.921875 28.609375 65.921875 
Q 23.96875 65.921875 18.8125 64.3125 
Q 13.671875 62.703125 7.8125 59.421875 
L 7.8125 69.390625 
Q 13.765625 71.78125 18.9375 73 
Q 24.125 74.21875 28.421875 74.21875 
Q 39.75 74.21875 46.484375 68.546875 
Q 53.21875 62.890625 53.21875 53.421875 
Q 53.21875 48.921875 51.53125 44.890625 
Q 49.859375 40.875 45.40625 35.40625 
Q 44.1875 33.984375 37.640625 27.21875 
Q 31.109375 20.453125 19.1875 8.296875 
z
" id="DejaVuSans-50"/>
       <path d="M 10.796875 72.90625 
L 49.515625 72.90625 
L 49.515625 64.59375 
L 19.828125 64.59375 
L 19.828125 46.734375 
Q 21.96875 47.46875 24.109375 47.828125 
Q 26.265625 48.1875 28.421875 48.1875 
Q 40.625 48.1875 47.75 41.5 
Q 54.890625 34.8125 54.890625 23.390625 
Q 54.890625 11.625 47.5625 5.09375 
Q 40.234375 -1.421875 26.90625 -1.421875 
Q 22.3125 -1.421875 17.546875 -0.640625 
Q 12.796875 0.140625 7.71875 1.703125 
L 7.71875 11.625 
Q 12.109375 9.234375 16.796875 8.0625 
Q 21.484375 6.890625 26.703125 6.890625 
Q 35.15625 6.890625 40.078125 11.328125 
Q 45.015625 15.765625 45.015625 23.390625 
Q 45.015625 31 40.078125 35.4375 
Q 35.15625 39.890625 26.703125 39.890625 
Q 22.75 39.890625 18.8125 39.015625 
Q 14.890625 38.140625 10.796875 36.28125 
z
" id="DejaVuSans-53"/>
      </defs>
      <g transform="translate(65.225258 322.182437)scale(0.1 -0.1)">
       <use xlink:href="#DejaVuSans-8722"/>
       <use x="83.789062" xlink:href="#DejaVuSans-49"/>
       <use x="147.412109" xlink:href="#DejaVuSans-50"/>
       <use x="211.035156" xlink:href="#DejaVuSans-53"/>
      </g>
     </g>
    </g>
    <g id="xtick_2">
     <g id="line2d_2">
      <g>
       <use style="stroke:#000000;stroke-width:0.8;" x="121.676555" xlink:href="#mc5ecfd7428" y="307.584"/>
      </g>
     </g>
     <g id="text_2">
      <!-- −100 -->
      <defs>
       <path d="M 31.78125 66.40625 
Q 24.171875 66.40625 20.328125 58.90625 
Q 16.5 51.421875 16.5 36.375 
Q 16.5 21.390625 20.328125 13.890625 
Q 24.171875 6.390625 31.78125 6.390625 
Q 39.453125 6.390625 43.28125 13.890625 
Q 47.125 21.390625 47.125 36.375 
Q 47.125 51.421875 43.28125 58.90625 
Q 39.453125 66.40625 31.78125 66.40625 
z
M 31.78125 74.21875 
Q 44.046875 74.21875 50.515625 64.515625 
Q 56.984375 54.828125 56.984375 36.375 
Q 56.984375 17.96875 50.515625 8.265625 
Q 44.046875 -1.421875 31.78125 -1.421875 
Q 19.53125 -1.421875 13.0625 8.265625 
Q 6.59375 17.96875 6.59375 36.375 
Q 6.59375 54.828125 13.0625 64.515625 
Q 19.53125 74.21875 31.78125 74.21875 
z
" id="DejaVuSans-48"/>
      </defs>
      <g transform="translate(107.942961 322.182437)scale(0.1 -0.1)">
       <use xlink:href="#DejaVuSans-8722"/>
       <use x="83.789062" xlink:href="#DejaVuSans-49"/>
       <use x="147.412109" xlink:href="#DejaVuSans-48"/>
       <use x="211.035156" xlink:href="#DejaVuSans-48"/>
      </g>
     </g>
    </g>
    <g id="xtick_3">
     <g id="line2d_3">
      <g>
       <use style="stroke:#000000;stroke-width:0.8;" x="164.394258" xlink:href="#mc5ecfd7428" y="307.584"/>
      </g>
     </g>
     <g id="text_3">
      <!-- −75 -->
      <defs>
       <path d="M 8.203125 72.90625 
L 55.078125 72.90625 
L 55.078125 68.703125 
L 28.609375 0 
L 18.3125 0 
L 43.21875 64.59375 
L 8.203125 64.59375 
z
" id="DejaVuSans-55"/>
      </defs>
      <g transform="translate(153.841915 322.182437)scale(0.1 -0.1)">
       <use xlink:href="#DejaVuSans-8722"/>
       <use x="83.789062" xlink:href="#DejaVuSans-55"/>
       <use x="147.412109" xlink:href="#DejaVuSans-53"/>
      </g>
     </g>
    </g>
    <g id="xtick_4">
     <g id="line2d_4">
      <g>
       <use style="stroke:#000000;stroke-width:0.8;" x="207.111962" xlink:href="#mc5ecfd7428" y="307.584"/>
      </g>
     </g>
     <g id="text_4">
      <!-- −50 -->
      <g transform="translate(196.559618 322.182437)scale(0.1 -0.1)">
       <use xlink:href="#DejaVuSans-8722"/>
       <use x="83.789062" xlink:href="#DejaVuSans-53"/>
       <use x="147.412109" xlink:href="#DejaVuSans-48"/>
      </g>
     </g>
    </g>
    <g id="xtick_5">
     <g id="line2d_5">
      <g>
       <use style="stroke:#000000;stroke-width:0.8;" x="249.829665" xlink:href="#mc5ecfd7428" y="307.584"/>
      </g>
     </g>
     <g id="text_5">
      <!-- −25 -->
      <g transform="translate(239.277321 322.182437)scale(0.1 -0.1)">
       <use xlink:href="#DejaVuSans-8722"/>
       <use x="83.789062" xlink:href="#DejaVuSans-50"/>
       <use x="147.412109" xlink:href="#DejaVuSans-53"/>
      </g>
     </g>
    </g>
    <g id="xtick_6">
     <g id="line2d_6">
      <g>
       <use style="stroke:#000000;stroke-width:0.8;" x="292.547368" xlink:href="#mc5ecfd7428" y="307.584"/>
      </g>
     </g>
     <g id="text_6">
      <!-- 0 -->
      <g transform="translate(289.366118 322.182437)scale(0.1 -0.1)">
       <use xlink:href="#DejaVuSans-48"/>
      </g>
     </g>
    </g>
    <g id="xtick_7">
     <g id="line2d_7">
      <g>
       <use style="stroke:#000000;stroke-width:0.8;" x="335.265072" xlink:href="#mc5ecfd7428" y="307.584"/>
      </g>
     </g>
     <g id="text_7">
      <!-- 25 -->
      <g transform="translate(328.902572 322.182437)scale(0.1 -0.1)">
       <use xlink:href="#DejaVuSans-50"/>
       <use x="63.623047" xlink:href="#DejaVuSans-53"/>
      </g>
     </g>
    </g>
    <g id="xtick_8">
     <g id="line2d_8">
      <g>
       <use style="stroke:#000000;stroke-width:0.8;" x="377.982775" xlink:href="#mc5ecfd7428" y="307.584"/>
      </g>
     </g>
     <g id="text_8">
      <!-- 50 -->
      <g transform="translate(371.620275 322.182437)scale(0.1 -0.1)">
       <use xlink:href="#DejaVuSans-53"/>
       <use x="63.623047" xlink:href="#DejaVuSans-48"/>
      </g>
     </g>
    </g>
    <g id="text_9">
     <!-- Weight -->
     <defs>
      <path d="M 3.328125 72.90625 
L 13.28125 72.90625 
L 28.609375 11.28125 
L 43.890625 72.90625 
L 54.984375 72.90625 
L 70.3125 11.28125 
L 85.59375 72.90625 
L 95.609375 72.90625 
L 77.296875 0 
L 64.890625 0 
L 49.515625 63.28125 
L 33.984375 0 
L 21.578125 0 
z
" id="DejaVuSans-87"/>
      <path d="M 56.203125 29.59375 
L 56.203125 25.203125 
L 14.890625 25.203125 
Q 15.484375 15.921875 20.484375 11.0625 
Q 25.484375 6.203125 34.421875 6.203125 
Q 39.59375 6.203125 44.453125 7.46875 
Q 49.3125 8.734375 54.109375 11.28125 
L 54.109375 2.78125 
Q 49.265625 0.734375 44.1875 -0.34375 
Q 39.109375 -1.421875 33.890625 -1.421875 
Q 20.796875 -1.421875 13.15625 6.1875 
Q 5.515625 13.8125 5.515625 26.8125 
Q 5.515625 40.234375 12.765625 48.109375 
Q 20.015625 56 32.328125 56 
Q 43.359375 56 49.78125 48.890625 
Q 56.203125 41.796875 56.203125 29.59375 
z
M 47.21875 32.234375 
Q 47.125 39.59375 43.09375 43.984375 
Q 39.0625 48.390625 32.421875 48.390625 
Q 24.90625 48.390625 20.390625 44.140625 
Q 15.875 39.890625 15.1875 32.171875 
z
" id="DejaVuSans-101"/>
      <path d="M 9.421875 54.6875 
L 18.40625 54.6875 
L 18.40625 0 
L 9.421875 0 
z
M 9.421875 75.984375 
L 18.40625 75.984375 
L 18.40625 64.59375 
L 9.421875 64.59375 
z
" id="DejaVuSans-105"/>
      <path d="M 45.40625 27.984375 
Q 45.40625 37.75 41.375 43.109375 
Q 37.359375 48.484375 30.078125 48.484375 
Q 22.859375 48.484375 18.828125 43.109375 
Q 14.796875 37.75 14.796875 27.984375 
Q 14.796875 18.265625 18.828125 12.890625 
Q 22.859375 7.515625 30.078125 7.515625 
Q 37.359375 7.515625 41.375 12.890625 
Q 45.40625 18.265625 45.40625 27.984375 
z
M 54.390625 6.78125 
Q 54.390625 -7.171875 48.1875 -13.984375 
Q 42 -20.796875 29.203125 -20.796875 
Q 24.46875 -20.796875 20.265625 -20.09375 
Q 16.0625 -19.390625 12.109375 -17.921875 
L 12.109375 -9.1875 
Q 16.0625 -11.328125 19.921875 -12.34375 
Q 23.78125 -13.375 27.78125 -13.375 
Q 36.625 -13.375 41.015625 -8.765625 
Q 45.40625 -4.15625 45.40625 5.171875 
L 45.40625 9.625 
Q 42.625 4.78125 38.28125 2.390625 
Q 33.9375 0 27.875 0 
Q 17.828125 0 11.671875 7.65625 
Q 5.515625 15.328125 5.515625 27.984375 
Q 5.515625 40.671875 11.671875 48.328125 
Q 17.828125 56 27.875 56 
Q 33.9375 56 38.28125 53.609375 
Q 42.625 51.21875 45.40625 46.390625 
L 45.40625 54.6875 
L 54.390625 54.6875 
z
" id="DejaVuSans-103"/>
      <path d="M 54.890625 33.015625 
L 54.890625 0 
L 45.90625 0 
L 45.90625 32.71875 
Q 45.90625 40.484375 42.875 44.328125 
Q 39.84375 48.1875 33.796875 48.1875 
Q 26.515625 48.1875 22.3125 43.546875 
Q 18.109375 38.921875 18.109375 30.90625 
L 18.109375 0 
L 9.078125 0 
L 9.078125 75.984375 
L 18.109375 75.984375 
L 18.109375 46.1875 
Q 21.34375 51.125 25.703125 53.5625 
Q 30.078125 56 35.796875 56 
Q 45.21875 56 50.046875 50.171875 
Q 54.890625 44.34375 54.890625 33.015625 
z
" id="DejaVuSans-104"/>
      <path d="M 18.3125 70.21875 
L 18.3125 54.6875 
L 36.8125 54.6875 
L 36.8125 47.703125 
L 18.3125 47.703125 
L 18.3125 18.015625 
Q 18.3125 11.328125 20.140625 9.421875 
Q 21.96875 7.515625 27.59375 7.515625 
L 36.8125 7.515625 
L 36.8125 0 
L 27.59375 0 
Q 17.1875 0 13.234375 3.875 
Q 9.28125 7.765625 9.28125 18.015625 
L 9.28125 47.703125 
L 2.6875 47.703125 
L 2.6875 54.6875 
L 9.28125 54.6875 
L 9.28125 70.21875 
z
" id="DejaVuSans-116"/>
     </defs>
     <g transform="translate(218.451406 335.860562)scale(0.1 -0.1)">
      <use xlink:href="#DejaVuSans-87"/>
      <use x="98.798828" xlink:href="#DejaVuSans-101"/>
      <use x="160.322266" xlink:href="#DejaVuSans-105"/>
      <use x="188.105469" xlink:href="#DejaVuSans-103"/>
      <use x="251.582031" xlink:href="#DejaVuSans-104"/>
      <use x="314.960938" xlink:href="#DejaVuSans-116"/>
     </g>
    </g>
   </g>
   <g id="matplotlib.axis_2">
    <g id="ytick_1">
     <g id="line2d_9">
      <defs>
       <path d="M 0 0 
L -3.5 0 
" id="mb29b416d51" style="stroke:#000000;stroke-width:0.8;"/>
      </defs>
      <g>
       <use style="stroke:#000000;stroke-width:0.8;" x="57.6" xlink:href="#mb29b416d51" y="307.584"/>
      </g>
     </g>
     <g id="text_10">
      <!-- 0 -->
      <g transform="translate(44.2375 311.383219)scale(0.1 -0.1)">
       <use xlink:href="#DejaVuSans-48"/>
      </g>
     </g>
    </g>
    <g id="ytick_2">
     <g id="line2d_10">
      <g>
       <use style="stroke:#000000;stroke-width:0.8;" x="57.6" xlink:href="#mb29b416d51" y="255.861551"/>
      </g>
     </g>
     <g id="text_11">
      <!-- 10 -->
      <g transform="translate(37.875 259.66077)scale(0.1 -0.1)">
       <use xlink:href="#DejaVuSans-49"/>
       <use x="63.623047" xlink:href="#DejaVuSans-48"/>
      </g>
     </g>
    </g>
    <g id="ytick_3">
     <g id="line2d_11">
      <g>
       <use style="stroke:#000000;stroke-width:0.8;" x="57.6" xlink:href="#mb29b416d51" y="204.139102"/>
      </g>
     </g>
     <g id="text_12">
      <!-- 20 -->
      <g transform="translate(37.875 207.938321)scale(0.1 -0.1)">
       <use xlink:href="#DejaVuSans-50"/>
       <use x="63.623047" xlink:href="#DejaVuSans-48"/>
      </g>
     </g>
    </g>
    <g id="ytick_4">
     <g id="line2d_12">
      <g>
       <use style="stroke:#000000;stroke-width:0.8;" x="57.6" xlink:href="#mb29b416d51" y="152.416653"/>
      </g>
     </g>
     <g id="text_13">
      <!-- 30 -->
      <defs>
       <path d="M 40.578125 39.3125 
Q 47.65625 37.796875 51.625 33 
Q 55.609375 28.21875 55.609375 21.1875 
Q 55.609375 10.40625 48.1875 4.484375 
Q 40.765625 -1.421875 27.09375 -1.421875 
Q 22.515625 -1.421875 17.65625 -0.515625 
Q 12.796875 0.390625 7.625 2.203125 
L 7.625 11.71875 
Q 11.71875 9.328125 16.59375 8.109375 
Q 21.484375 6.890625 26.8125 6.890625 
Q 36.078125 6.890625 40.9375 10.546875 
Q 45.796875 14.203125 45.796875 21.1875 
Q 45.796875 27.640625 41.28125 31.265625 
Q 36.765625 34.90625 28.71875 34.90625 
L 20.21875 34.90625 
L 20.21875 43.015625 
L 29.109375 43.015625 
Q 36.375 43.015625 40.234375 45.921875 
Q 44.09375 48.828125 44.09375 54.296875 
Q 44.09375 59.90625 40.109375 62.90625 
Q 36.140625 65.921875 28.71875 65.921875 
Q 24.65625 65.921875 20.015625 65.03125 
Q 15.375 64.15625 9.8125 62.3125 
L 9.8125 71.09375 
Q 15.4375 72.65625 20.34375 73.4375 
Q 25.25 74.21875 29.59375 74.21875 
Q 40.828125 74.21875 47.359375 69.109375 
Q 53.90625 64.015625 53.90625 55.328125 
Q 53.90625 49.265625 50.4375 45.09375 
Q 46.96875 40.921875 40.578125 39.3125 
z
" id="DejaVuSans-51"/>
      </defs>
      <g transform="translate(37.875 156.215872)scale(0.1 -0.1)">
       <use xlink:href="#DejaVuSans-51"/>
       <use x="63.623047" xlink:href="#DejaVuSans-48"/>
      </g>
     </g>
    </g>
    <g id="ytick_5">
     <g id="line2d_13">
      <g>
       <use style="stroke:#000000;stroke-width:0.8;" x="57.6" xlink:href="#mb29b416d51" y="100.694204"/>
      </g>
     </g>
     <g id="text_14">
      <!-- 40 -->
      <defs>
       <path d="M 37.796875 64.3125 
L 12.890625 25.390625 
L 37.796875 25.390625 
z
M 35.203125 72.90625 
L 47.609375 72.90625 
L 47.609375 25.390625 
L 58.015625 25.390625 
L 58.015625 17.1875 
L 47.609375 17.1875 
L 47.609375 0 
L 37.796875 0 
L 37.796875 17.1875 
L 4.890625 17.1875 
L 4.890625 26.703125 
z
" id="DejaVuSans-52"/>
      </defs>
      <g transform="translate(37.875 104.493423)scale(0.1 -0.1)">
       <use xlink:href="#DejaVuSans-52"/>
       <use x="63.623047" xlink:href="#DejaVuSans-48"/>
      </g>
     </g>
    </g>
    <g id="ytick_6">
     <g id="line2d_14">
      <g>
       <use style="stroke:#000000;stroke-width:0.8;" x="57.6" xlink:href="#mb29b416d51" y="48.971755"/>
      </g>
     </g>
     <g id="text_15">
      <!-- 50 -->
      <g transform="translate(37.875 52.770974)scale(0.1 -0.1)">
       <use xlink:href="#DejaVuSans-53"/>
       <use x="63.623047" xlink:href="#DejaVuSans-48"/>
      </g>
     </g>
    </g>
    <g id="text_16">
     <!-- Occurrencies -->
     <defs>
      <path d="M 39.40625 66.21875 
Q 28.65625 66.21875 22.328125 58.203125 
Q 16.015625 50.203125 16.015625 36.375 
Q 16.015625 22.609375 22.328125 14.59375 
Q 28.65625 6.59375 39.40625 6.59375 
Q 50.140625 6.59375 56.421875 14.59375 
Q 62.703125 22.609375 62.703125 36.375 
Q 62.703125 50.203125 56.421875 58.203125 
Q 50.140625 66.21875 39.40625 66.21875 
z
M 39.40625 74.21875 
Q 54.734375 74.21875 63.90625 63.9375 
Q 73.09375 53.65625 73.09375 36.375 
Q 73.09375 19.140625 63.90625 8.859375 
Q 54.734375 -1.421875 39.40625 -1.421875 
Q 24.03125 -1.421875 14.8125 8.828125 
Q 5.609375 19.09375 5.609375 36.375 
Q 5.609375 53.65625 14.8125 63.9375 
Q 24.03125 74.21875 39.40625 74.21875 
z
" id="DejaVuSans-79"/>
      <path d="M 48.78125 52.59375 
L 48.78125 44.1875 
Q 44.96875 46.296875 41.140625 47.34375 
Q 37.3125 48.390625 33.40625 48.390625 
Q 24.65625 48.390625 19.8125 42.84375 
Q 14.984375 37.3125 14.984375 27.296875 
Q 14.984375 17.28125 19.8125 11.734375 
Q 24.65625 6.203125 33.40625 6.203125 
Q 37.3125 6.203125 41.140625 7.25 
Q 44.96875 8.296875 48.78125 10.40625 
L 48.78125 2.09375 
Q 45.015625 0.34375 40.984375 -0.53125 
Q 36.96875 -1.421875 32.421875 -1.421875 
Q 20.0625 -1.421875 12.78125 6.34375 
Q 5.515625 14.109375 5.515625 27.296875 
Q 5.515625 40.671875 12.859375 48.328125 
Q 20.21875 56 33.015625 56 
Q 37.15625 56 41.109375 55.140625 
Q 45.0625 54.296875 48.78125 52.59375 
z
" id="DejaVuSans-99"/>
      <path d="M 8.5 21.578125 
L 8.5 54.6875 
L 17.484375 54.6875 
L 17.484375 21.921875 
Q 17.484375 14.15625 20.5 10.265625 
Q 23.53125 6.390625 29.59375 6.390625 
Q 36.859375 6.390625 41.078125 11.03125 
Q 45.3125 15.671875 45.3125 23.6875 
L 45.3125 54.6875 
L 54.296875 54.6875 
L 54.296875 0 
L 45.3125 0 
L 45.3125 8.40625 
Q 42.046875 3.421875 37.71875 1 
Q 33.40625 -1.421875 27.6875 -1.421875 
Q 18.265625 -1.421875 13.375 4.4375 
Q 8.5 10.296875 8.5 21.578125 
z
M 31.109375 56 
z
" id="DejaVuSans-117"/>
      <path d="M 41.109375 46.296875 
Q 39.59375 47.171875 37.8125 47.578125 
Q 36.03125 48 33.890625 48 
Q 26.265625 48 22.1875 43.046875 
Q 18.109375 38.09375 18.109375 28.8125 
L 18.109375 0 
L 9.078125 0 
L 9.078125 54.6875 
L 18.109375 54.6875 
L 18.109375 46.1875 
Q 20.953125 51.171875 25.484375 53.578125 
Q 30.03125 56 36.53125 56 
Q 37.453125 56 38.578125 55.875 
Q 39.703125 55.765625 41.0625 55.515625 
z
" id="DejaVuSans-114"/>
      <path d="M 54.890625 33.015625 
L 54.890625 0 
L 45.90625 0 
L 45.90625 32.71875 
Q 45.90625 40.484375 42.875 44.328125 
Q 39.84375 48.1875 33.796875 48.1875 
Q 26.515625 48.1875 22.3125 43.546875 
Q 18.109375 38.921875 18.109375 30.90625 
L 18.109375 0 
L 9.078125 0 
L 9.078125 54.6875 
L 18.109375 54.6875 
L 18.109375 46.1875 
Q 21.34375 51.125 25.703125 53.5625 
Q 30.078125 56 35.796875 56 
Q 45.21875 56 50.046875 50.171875 
Q 54.890625 44.34375 54.890625 33.015625 
z
" id="DejaVuSans-110"/>
      <path d="M 44.28125 53.078125 
L 44.28125 44.578125 
Q 40.484375 46.53125 36.375 47.5 
Q 32.28125 48.484375 27.875 48.484375 
Q 21.1875 48.484375 17.84375 46.4375 
Q 14.5 44.390625 14.5 40.28125 
Q 14.5 37.15625 16.890625 35.375 
Q 19.28125 33.59375 26.515625 31.984375 
L 29.59375 31.296875 
Q 39.15625 29.25 43.1875 25.515625 
Q 47.21875 21.78125 47.21875 15.09375 
Q 47.21875 7.46875 41.1875 3.015625 
Q 35.15625 -1.421875 24.609375 -1.421875 
Q 20.21875 -1.421875 15.453125 -0.5625 
Q 10.6875 0.296875 5.421875 2 
L 5.421875 11.28125 
Q 10.40625 8.6875 15.234375 7.390625 
Q 20.0625 6.109375 24.8125 6.109375 
Q 31.15625 6.109375 34.5625 8.28125 
Q 37.984375 10.453125 37.984375 14.40625 
Q 37.984375 18.0625 35.515625 20.015625 
Q 33.0625 21.96875 24.703125 23.78125 
L 21.578125 24.515625 
Q 13.234375 26.265625 9.515625 29.90625 
Q 5.8125 33.546875 5.8125 39.890625 
Q 5.8125 47.609375 11.28125 51.796875 
Q 16.75 56 26.8125 56 
Q 31.78125 56 36.171875 55.265625 
Q 40.578125 54.546875 44.28125 53.078125 
z
" id="DejaVuSans-115"/>
     </defs>
     <g transform="translate(31.795312 207.304563)rotate(-90)scale(0.1 -0.1)">
      <use xlink:href="#DejaVuSans-79"/>
      <use x="78.710938" xlink:href="#DejaVuSans-99"/>
      <use x="133.691406" xlink:href="#DejaVuSans-99"/>
      <use x="188.671875" xlink:href="#DejaVuSans-117"/>
      <use x="252.050781" xlink:href="#DejaVuSans-114"/>
      <use x="293.148438" xlink:href="#DejaVuSans-114"/>
      <use x="334.230469" xlink:href="#DejaVuSans-101"/>
      <use x="395.753906" xlink:href="#DejaVuSans-110"/>
      <use x="459.132812" xlink:href="#DejaVuSans-99"/>
      <use x="514.113281" xlink:href="#DejaVuSans-105"/>
      <use x="541.896484" xlink:href="#DejaVuSans-101"/>
      <use x="603.419922" xlink:href="#DejaVuSans-115"/>
     </g>
    </g>
   </g>
   <g id="patch_203">
    <path d="M 57.6 307.584 
L 57.6 41.472 
" style="fill:none;stroke:#000000;stroke-linecap:square;stroke-linejoin:miter;stroke-width:0.8;"/>
   </g>
   <g id="patch_204">
    <path d="M 414.72 307.584 
L 414.72 41.472 
" style="fill:none;stroke:#000000;stroke-linecap:square;stroke-linejoin:miter;stroke-width:0.8;"/>
   </g>
   <g id="patch_205">
    <path d="M 57.6 307.584 
L 414.72 307.584 
" style="fill:none;stroke:#000000;stroke-linecap:square;stroke-linejoin:miter;stroke-width:0.8;"/>
   </g>
   <g id="patch_206">
    <path d="M 57.6 41.472 
L 414.72 41.472 
" style="fill:none;stroke:#000000;stroke-linecap:square;stroke-linejoin:miter;stroke-width:0.8;"/>
   </g>
   <g id="text_17">
    <!-- Histogram of fc3 -->
    <defs>
     <path d="M 9.8125 72.90625 
L 19.671875 72.90625 
L 19.671875 43.015625 
L 55.515625 43.015625 
L 55.515625 72.90625 
L 65.375 72.90625 
L 65.375 0 
L 55.515625 0 
L 55.515625 34.71875 
L 19.671875 34.71875 
L 19.671875 0 
L 9.8125 0 
z
" id="DejaVuSans-72"/>
     <path d="M 30.609375 48.390625 
Q 23.390625 48.390625 19.1875 42.75 
Q 14.984375 37.109375 14.984375 27.296875 
Q 14.984375 17.484375 19.15625 11.84375 
Q 23.34375 6.203125 30.609375 6.203125 
Q 37.796875 6.203125 41.984375 11.859375 
Q 46.1875 17.53125 46.1875 27.296875 
Q 46.1875 37.015625 41.984375 42.703125 
Q 37.796875 48.390625 30.609375 48.390625 
z
M 30.609375 56 
Q 42.328125 56 49.015625 48.375 
Q 55.71875 40.765625 55.71875 27.296875 
Q 55.71875 13.875 49.015625 6.21875 
Q 42.328125 -1.421875 30.609375 -1.421875 
Q 18.84375 -1.421875 12.171875 6.21875 
Q 5.515625 13.875 5.515625 27.296875 
Q 5.515625 40.765625 12.171875 48.375 
Q 18.84375 56 30.609375 56 
z
" id="DejaVuSans-111"/>
     <path d="M 34.28125 27.484375 
Q 23.390625 27.484375 19.1875 25 
Q 14.984375 22.515625 14.984375 16.5 
Q 14.984375 11.71875 18.140625 8.90625 
Q 21.296875 6.109375 26.703125 6.109375 
Q 34.1875 6.109375 38.703125 11.40625 
Q 43.21875 16.703125 43.21875 25.484375 
L 43.21875 27.484375 
z
M 52.203125 31.203125 
L 52.203125 0 
L 43.21875 0 
L 43.21875 8.296875 
Q 40.140625 3.328125 35.546875 0.953125 
Q 30.953125 -1.421875 24.3125 -1.421875 
Q 15.921875 -1.421875 10.953125 3.296875 
Q 6 8.015625 6 15.921875 
Q 6 25.140625 12.171875 29.828125 
Q 18.359375 34.515625 30.609375 34.515625 
L 43.21875 34.515625 
L 43.21875 35.40625 
Q 43.21875 41.609375 39.140625 45 
Q 35.0625 48.390625 27.6875 48.390625 
Q 23 48.390625 18.546875 47.265625 
Q 14.109375 46.140625 10.015625 43.890625 
L 10.015625 52.203125 
Q 14.9375 54.109375 19.578125 55.046875 
Q 24.21875 56 28.609375 56 
Q 40.484375 56 46.34375 49.84375 
Q 52.203125 43.703125 52.203125 31.203125 
z
" id="DejaVuSans-97"/>
     <path d="M 52 44.1875 
Q 55.375 50.25 60.0625 53.125 
Q 64.75 56 71.09375 56 
Q 79.640625 56 84.28125 50.015625 
Q 88.921875 44.046875 88.921875 33.015625 
L 88.921875 0 
L 79.890625 0 
L 79.890625 32.71875 
Q 79.890625 40.578125 77.09375 44.375 
Q 74.3125 48.1875 68.609375 48.1875 
Q 61.625 48.1875 57.5625 43.546875 
Q 53.515625 38.921875 53.515625 30.90625 
L 53.515625 0 
L 44.484375 0 
L 44.484375 32.71875 
Q 44.484375 40.625 41.703125 44.40625 
Q 38.921875 48.1875 33.109375 48.1875 
Q 26.21875 48.1875 22.15625 43.53125 
Q 18.109375 38.875 18.109375 30.90625 
L 18.109375 0 
L 9.078125 0 
L 9.078125 54.6875 
L 18.109375 54.6875 
L 18.109375 46.1875 
Q 21.1875 51.21875 25.484375 53.609375 
Q 29.78125 56 35.6875 56 
Q 41.65625 56 45.828125 52.96875 
Q 50 49.953125 52 44.1875 
z
" id="DejaVuSans-109"/>
     <path id="DejaVuSans-32"/>
     <path d="M 37.109375 75.984375 
L 37.109375 68.5 
L 28.515625 68.5 
Q 23.6875 68.5 21.796875 66.546875 
Q 19.921875 64.59375 19.921875 59.515625 
L 19.921875 54.6875 
L 34.71875 54.6875 
L 34.71875 47.703125 
L 19.921875 47.703125 
L 19.921875 0 
L 10.890625 0 
L 10.890625 47.703125 
L 2.296875 47.703125 
L 2.296875 54.6875 
L 10.890625 54.6875 
L 10.890625 58.5 
Q 10.890625 67.625 15.140625 71.796875 
Q 19.390625 75.984375 28.609375 75.984375 
z
" id="DejaVuSans-102"/>
    </defs>
    <g transform="translate(186.209063 35.472)scale(0.12 -0.12)">
     <use xlink:href="#DejaVuSans-72"/>
     <use x="75.195312" xlink:href="#DejaVuSans-105"/>
     <use x="102.978516" xlink:href="#DejaVuSans-115"/>
     <use x="155.078125" xlink:href="#DejaVuSans-116"/>
     <use x="194.287109" xlink:href="#DejaVuSans-111"/>
     <use x="255.46875" xlink:href="#DejaVuSans-103"/>
     <use x="318.945312" xlink:href="#DejaVuSans-114"/>
     <use x="360.058594" xlink:href="#DejaVuSans-97"/>
     <use x="421.337891" xlink:href="#DejaVuSans-109"/>
     <use x="518.75" xlink:href="#DejaVuSans-32"/>
     <use x="550.537109" xlink:href="#DejaVuSans-111"/>
     <use x="611.71875" xlink:href="#DejaVuSans-102"/>
     <use x="646.923828" xlink:href="#DejaVuSans-32"/>
     <use x="678.710938" xlink:href="#DejaVuSans-102"/>
     <use x="713.916016" xlink:href="#DejaVuSans-99"/>
     <use x="768.896484" xlink:href="#DejaVuSans-51"/>
    </g>
   </g>
   <g id="legend_1">
    <g id="patch_207">
     <path d="M 323.679375 78.82825 
L 407.72 78.82825 
Q 409.72 78.82825 409.72 76.82825 
L 409.72 48.472 
Q 409.72 46.472 407.72 46.472 
L 323.679375 46.472 
Q 321.679375 46.472 321.679375 48.472 
L 321.679375 76.82825 
Q 321.679375 78.82825 323.679375 78.82825 
z
" style="fill:#ffffff;opacity:0.8;stroke:#cccccc;stroke-linejoin:miter;"/>
    </g>
    <g id="patch_208">
     <path d="M 325.679375 58.070437 
L 345.679375 58.070437 
L 345.679375 51.070437 
L 325.679375 51.070437 
z
" style="fill:#0000ff;"/>
    </g>
    <g id="text_18">
     <!-- unmasked -->
     <defs>
      <path d="M 9.078125 75.984375 
L 18.109375 75.984375 
L 18.109375 31.109375 
L 44.921875 54.6875 
L 56.390625 54.6875 
L 27.390625 29.109375 
L 57.625 0 
L 45.90625 0 
L 18.109375 26.703125 
L 18.109375 0 
L 9.078125 0 
z
" id="DejaVuSans-107"/>
      <path d="M 45.40625 46.390625 
L 45.40625 75.984375 
L 54.390625 75.984375 
L 54.390625 0 
L 45.40625 0 
L 45.40625 8.203125 
Q 42.578125 3.328125 38.25 0.953125 
Q 33.9375 -1.421875 27.875 -1.421875 
Q 17.96875 -1.421875 11.734375 6.484375 
Q 5.515625 14.40625 5.515625 27.296875 
Q 5.515625 40.1875 11.734375 48.09375 
Q 17.96875 56 27.875 56 
Q 33.9375 56 38.25 53.625 
Q 42.578125 51.265625 45.40625 46.390625 
z
M 14.796875 27.296875 
Q 14.796875 17.390625 18.875 11.75 
Q 22.953125 6.109375 30.078125 6.109375 
Q 37.203125 6.109375 41.296875 11.75 
Q 45.40625 17.390625 45.40625 27.296875 
Q 45.40625 37.203125 41.296875 42.84375 
Q 37.203125 48.484375 30.078125 48.484375 
Q 22.953125 48.484375 18.875 42.84375 
Q 14.796875 37.203125 14.796875 27.296875 
z
" id="DejaVuSans-100"/>
     </defs>
     <g transform="translate(353.679375 58.070437)scale(0.1 -0.1)">
      <use xlink:href="#DejaVuSans-117"/>
      <use x="63.378906" xlink:href="#DejaVuSans-110"/>
      <use x="126.757812" xlink:href="#DejaVuSans-109"/>
      <use x="224.169922" xlink:href="#DejaVuSans-97"/>
      <use x="285.449219" xlink:href="#DejaVuSans-115"/>
      <use x="337.548828" xlink:href="#DejaVuSans-107"/>
      <use x="395.412109" xlink:href="#DejaVuSans-101"/>
      <use x="456.935547" xlink:href="#DejaVuSans-100"/>
     </g>
    </g>
    <g id="patch_209">
     <path d="M 325.679375 72.748562 
L 345.679375 72.748562 
L 345.679375 65.748562 
L 325.679375 65.748562 
z
" style="fill:#808080;"/>
    </g>
    <g id="text_19">
     <!-- masked -->
     <g transform="translate(353.679375 72.748562)scale(0.1 -0.1)">
      <use xlink:href="#DejaVuSans-109"/>
      <use x="97.412109" xlink:href="#DejaVuSans-97"/>
      <use x="158.691406" xlink:href="#DejaVuSans-115"/>
      <use x="210.791016" xlink:href="#DejaVuSans-107"/>
      <use x="268.654297" xlink:href="#DejaVuSans-101"/>
      <use x="330.177734" xlink:href="#DejaVuSans-100"/>
     </g>
    </g>
   </g>
  </g>
 </g>
 <defs>
  <clipPath id="p70e47934b8">
   <rect height="266.112" width="357.12" x="57.6" y="41.472"/>
  </clipPath>
 </defs>
</svg>
